<svg width="21" height="24" viewBox="0 0 21 24" fill="none" xmlns="http://www.w3.org/2000/svg">
<path d="M4.48936 4.71933H11.0836C11.5147 4.71933 11.8698 4.36601 11.8698 3.93698V2.39752C11.8698 1.96849 11.5147 1.61517 11.0836 1.61517H9.86619C9.63793 0.6814 8.80097 0 7.78647 0C6.77198 0 5.93502 0.6814 5.70676 1.61517H4.48936C4.0582 1.61517 3.70313 1.96849 3.70313 2.39752V3.93698C3.70312 4.36601 4.0582 4.71933 4.48936 4.71933ZM7.76111 1.26185C8.243 1.26185 8.64879 1.64041 8.64879 2.14515C8.64879 2.62465 8.243 3.02845 7.76111 3.02845C7.27922 3.02845 6.87343 2.64989 6.87343 2.14515C6.89879 1.64041 7.27922 1.26185 7.76111 1.26185Z" fill="#2B92D5"/>
<path d="M13.9747 15.1928C13.9747 14.2843 14.3551 13.3757 15.0399 12.77C15.1921 12.6186 15.3696 12.5177 15.5725 12.442V3.65946C15.5725 3.23043 15.2174 2.90234 14.8116 2.90234H12.9348V3.9623C12.9348 4.97178 12.0979 5.80461 11.0834 5.80461H4.48915C3.47465 5.80461 2.63769 4.97178 2.63769 3.9623V2.90234H0.760872C0.329711 2.90234 0 3.25566 0 3.65946V20.3664C0 20.7954 0.355074 21.1235 0.760872 21.1235H10.2718V20.1897C10.2718 19.584 10.5761 19.0288 11.0834 18.6755L13.9747 16.7323V15.1928ZM4.03262 18.1708H3.47465C3.1703 18.1708 2.94204 17.9184 2.94204 17.6408C2.94204 17.3379 3.19566 17.1108 3.47465 17.1108H4.03262C4.33697 17.1108 4.56523 17.3632 4.56523 17.6408C4.56523 17.9184 4.31161 18.1708 4.03262 18.1708ZM4.03262 15.218H3.47465C3.1703 15.218 2.94204 14.9657 2.94204 14.688C2.94204 14.3852 3.19566 14.1581 3.47465 14.1581H4.03262C4.33697 14.1581 4.56523 14.4104 4.56523 14.688C4.56523 14.9657 4.31161 15.218 4.03262 15.218ZM4.03262 12.2401H3.47465C3.1703 12.2401 2.94204 11.9877 2.94204 11.7101C2.94204 11.4072 3.19566 11.1801 3.47465 11.1801H4.03262C4.33697 11.1801 4.56523 11.4325 4.56523 11.7101C4.56523 12.0129 4.31161 12.2401 4.03262 12.2401ZM4.03262 9.28732H3.47465C3.1703 9.28732 2.94204 9.03495 2.94204 8.75734C2.94204 8.47973 3.19566 8.22736 3.47465 8.22736H4.03262C4.33697 8.22736 4.56523 8.47973 4.56523 8.75734C4.56523 9.03495 4.31161 9.28732 4.03262 9.28732ZM9.5109 18.1708H5.96017C5.65582 18.1708 5.42756 17.9184 5.42756 17.6408C5.42756 17.3379 5.68118 17.1108 5.96017 17.1108H9.53626C9.84061 17.1108 10.0689 17.3632 10.0689 17.6408C10.0689 17.9184 9.81525 18.1708 9.5109 18.1708ZM12.0979 15.218H5.96017C5.65582 15.218 5.42756 14.9657 5.42756 14.688C5.42756 14.3852 5.68118 14.1581 5.96017 14.1581H12.0979C12.4022 14.1581 12.6305 14.4104 12.6305 14.688C12.6305 14.9657 12.3769 15.218 12.0979 15.218ZM12.0979 12.2401H5.96017C5.65582 12.2401 5.42756 11.9877 5.42756 11.7101C5.42756 11.4072 5.68118 11.1801 5.96017 11.1801H12.0979C12.4022 11.1801 12.6305 11.4325 12.6305 11.7101C12.6305 12.0129 12.3769 12.2401 12.0979 12.2401ZM12.0979 9.28732H5.96017C5.65582 9.28732 5.42756 9.03495 5.42756 8.75734C5.42756 8.47973 5.68118 8.22736 5.96017 8.22736H12.0979C12.4022 8.22736 12.6305 8.47973 12.6305 8.75734C12.6305 9.03495 12.3769 9.28732 12.0979 9.28732Z" fill="#2B92D5"/>
<path d="M20.6195 19.5333L17.2717 17.2872V15.2178C17.2717 14.5869 16.9927 13.9559 16.5362 13.5269C16.3079 13.325 15.9528 13.325 15.7499 13.5269C15.2934 13.9559 15.0144 14.5869 15.0144 15.2178V17.2872L11.6666 19.5333C11.4383 19.6848 11.3115 19.9371 11.3115 20.1895V21.2999C11.3115 21.3756 11.3622 21.4513 11.413 21.4766C11.4891 21.5271 11.5651 21.5271 11.6159 21.4766L15.0652 19.8109L15.2934 21.9561L13.9999 22.7384C13.8224 22.8394 13.721 23.0413 13.721 23.2432V23.5713C13.721 23.647 13.7463 23.6974 13.797 23.7479C13.8478 23.7984 13.8985 23.7984 13.9746 23.7984L15.4963 23.5713C15.6231 23.8236 15.8768 24.0003 16.1557 24.0003C16.4347 24.0003 16.6884 23.8489 16.8152 23.5713L18.3369 23.7984C18.413 23.7984 18.4637 23.7984 18.5144 23.7479C18.5652 23.6974 18.5905 23.647 18.5905 23.5713V23.2432C18.5905 23.0413 18.4891 22.8394 18.3115 22.7384L17.0181 21.9561L17.2463 19.8109L20.6956 21.5018C20.7717 21.5271 20.8478 21.5271 20.8985 21.5018C20.9746 21.4513 21 21.4009 21 21.3252V20.2147C20.9746 19.9119 20.8478 19.6848 20.6195 19.5333Z" fill="#2B92D5"/>
</svg>
