<svg width="54" height="49" viewBox="0 0 54 49" fill="none" xmlns="http://www.w3.org/2000/svg">
<path d="M24.7439 33.2745C31.3276 41.3776 36.0904 48.3656 35.46 48.9603C34.8296 49.555 29.0163 43.4591 22.4326 35.356C15.9188 27.2529 11.0861 20.2649 11.7164 19.6702C12.3468 19.0755 18.2302 25.1714 24.7439 33.2745Z" fill="#AE592B"/>
<path d="M18.4405 30.2264L20.6117 28.2192C15.919 22.7923 12.2769 19.1497 11.7166 19.5957C11.2263 20.1161 14.0279 24.5022 18.4405 30.2264Z" fill="#003961"/>
<path d="M12.7681 21.6032C12.7681 21.6032 9.89643 23.8334 6.81466 21.0828C3.7329 18.2579 4.0831 12.5337 0.0908203 7.77588C0.0908203 7.77588 5.4839 9.26269 9.40615 10.7495C13.2583 12.3106 16.4802 17.5145 12.7681 21.6032Z" fill="#893D20"/>
<path d="M9.40615 10.8237C5.4839 9.26256 0.0908203 7.8501 0.0908203 7.8501C2.82238 11.3441 3.45274 14.6894 4.71346 17.8117C4.99362 18.2577 5.34382 18.6294 5.69402 18.3321C6.5345 17.7374 5.1337 14.0947 6.1843 14.3177C7.30494 14.6151 9.05595 15.8045 10.0365 17.663C10.8069 19.0755 12.3478 18.1091 11.1571 16.6966C9.96647 15.2841 7.02479 13.946 7.65515 12.7566C8.07539 11.7901 10.3867 12.6822 9.40615 10.8237Z" fill="#FFB239"/>
<path d="M24.8152 24.2381C25.7238 28.0696 22.643 35.1683 28.1931 40.046C35.8831 46.8511 49.9771 40.4367 50.4017 25.7975C50.7735 11.6638 41.0119 3.59706 31.3211 2.11519C21.6304 0.633321 16.3503 8.35552 20.1935 16.3981C21.4872 19.1778 23.8836 19.9655 24.8152 24.2381Z" fill="#79C1ED"/>
<path d="M25.6462 23.5301C26.5549 27.3616 23.474 34.4602 29.0241 39.338C36.7142 46.1431 50.8082 39.7286 51.2327 25.0895C51.6046 10.9558 41.8429 2.88905 32.1522 1.40718C22.4614 -0.0746871 17.1813 7.64751 21.0245 15.6901C22.3258 18.3976 24.7147 19.2575 25.6462 23.5301Z" fill="#9BE0F8"/>
<path d="M27.0632 13.2442C26.338 14.2567 24.6902 14.213 23.3519 13.1819C22.0816 12.1587 21.6425 10.4274 22.3677 9.4148C23.1609 8.41006 24.8162 8.38155 26.079 9.47701C27.3493 10.5003 27.7884 12.2316 27.0632 13.2442Z" fill="#79C1ED"/>
<path d="M31.3397 9.86365C30.138 10.1636 28.8828 8.99598 28.5797 7.28034C28.2766 5.5647 28.9185 4.031 30.1202 3.731C31.3218 3.431 32.5771 4.59866 32.8802 6.31431C33.2513 8.03778 32.5339 9.63586 31.3397 9.86365Z" fill="#79C1ED"/>
<path d="M36.4885 12.649C35.3621 12.2269 34.8474 10.56 35.3607 8.93838C35.874 7.31679 37.219 6.30255 38.4134 6.73247C39.5398 7.15454 40.0545 8.82149 39.5412 10.4431C39.0279 12.0647 37.6829 13.0789 36.4885 12.649Z" fill="#79C1ED"/>
<path d="M41.313 17.8816C40.3678 17.042 40.4805 15.3012 41.5154 13.9589C42.5504 12.6166 44.1753 12.2193 45.1205 13.0589C46.0656 13.8986 45.953 15.6394 44.9181 16.9816C43.8831 18.3239 42.2582 18.7213 41.313 17.8816Z" fill="#79C1ED"/>
<path d="M43.7716 24.011C43.1286 22.9138 43.778 21.3079 45.2515 20.3816C46.6495 19.5196 48.2822 19.7077 48.9252 20.8048C49.5681 21.9019 48.9188 23.5079 47.4452 24.4342C45.9717 25.3606 44.3465 25.1003 43.7716 24.011Z" fill="#79C1ED"/>
<path d="M42.6614 29.3638C43.0615 28.1676 44.6335 27.6179 46.1605 28.1593C47.6876 28.7006 48.6331 30.1979 48.165 31.3863C47.7649 32.5824 46.1929 33.1321 44.6659 32.5908C43.2143 31.9851 42.2613 30.5599 42.6614 29.3638Z" fill="#79C1ED"/>
<path d="M38.9847 32.9592C40.0804 32.3547 41.5925 33.0404 42.3263 34.5864C43.1282 36.1403 42.8795 37.8655 41.7838 38.47C40.688 39.0745 39.176 38.3888 38.4422 36.8427C37.7083 35.2967 37.957 33.5715 38.9847 32.9592Z" fill="#79C1ED"/>
<path d="M33.9119 33.3975C35.1139 33.7552 35.7041 35.3578 35.3269 36.9951C34.9421 38.7045 33.5896 39.791 32.4557 39.4411C31.2537 39.0834 30.6635 37.4808 31.0407 35.8436C31.4254 34.1341 32.7099 33.0398 33.9119 33.3975Z" fill="#79C1ED"/>
<path d="M27.4482 12.8497C26.723 13.8623 25.0752 13.8186 23.7369 12.7875C22.4666 11.7642 22.0275 10.0329 22.7527 9.02036C23.4779 8.00779 25.1256 8.05148 26.464 9.08257C27.7947 10.1859 28.2414 11.845 27.4482 12.8497Z" fill="#FFDB88"/>
<path d="M31.785 9.54944C30.5834 9.84944 29.3281 8.68177 29.025 6.96613C28.722 5.25049 29.3638 3.71679 30.5655 3.41679C31.7672 3.11679 33.0224 4.28446 33.3255 6.0001C33.6361 7.64353 32.9867 9.24944 31.785 9.54944Z" fill="#FFB239"/>
<path d="M36.9416 12.2628C35.8152 11.8407 35.3005 10.1737 35.8138 8.55215C36.3271 6.93056 37.6721 5.91632 38.8665 6.34624C39.9929 6.76831 40.5076 8.43526 39.9944 10.0568C39.4811 11.6784 38.068 12.6848 36.9416 12.2628Z" fill="#FF989C"/>
<path d="M41.7661 17.4956C40.8209 16.656 40.9336 14.9152 41.9685 13.5729C43.0035 12.2307 44.6284 11.8333 45.5736 12.6729C46.5188 13.5126 46.4061 15.2534 45.3712 16.5956C44.2682 17.9301 42.6433 18.3275 41.7661 17.4956Z" fill="#FF6776"/>
<path d="M44.1573 23.6169C43.5144 22.5198 44.1637 20.9139 45.6372 19.9875C47.0352 19.1255 48.6679 19.3137 49.3109 20.4108C49.9538 21.5079 49.3045 23.1138 47.831 24.0402C46.4255 24.9744 44.7927 24.7863 44.1573 23.6169Z" fill="#004F87"/>
<path d="M43.1166 28.9775C43.5167 27.7813 45.0887 27.2317 46.6157 27.773C48.1428 28.3143 49.0883 29.8117 48.6201 31C48.2201 32.1962 46.6481 32.7458 45.121 32.2045C43.594 31.6632 42.7165 30.1737 43.1166 28.9775Z" fill="#003961"/>
<path d="M39.4379 32.5729C40.5337 31.9684 42.0457 32.6542 42.7795 34.2002C43.5814 35.7541 43.3327 37.4792 42.237 38.0837C41.1412 38.6883 39.6292 38.0025 38.8954 36.4565C38.0935 34.9026 38.3422 33.1775 39.4379 32.5729Z" fill="#F52314"/>
<path d="M34.3572 33.084C35.5592 33.4417 36.1494 35.0443 35.7722 36.6816C35.3875 38.3911 34.0349 39.4775 32.901 39.1276C31.699 38.7699 31.1088 37.1673 31.486 35.5301C31.8707 33.8206 33.1552 32.7263 34.3572 33.084Z" fill="#CC0000"/>
<path d="M35.8729 22.5162C36.2593 24.7529 35.1491 26.8173 33.3957 27.1268C31.6422 27.4363 29.9409 25.9249 29.5544 23.6881C29.168 21.4514 30.2782 19.387 32.0316 19.0775C33.7851 18.768 35.4864 20.2794 35.8729 22.5162Z" fill="white"/>
<path d="M35.7215 22.6451C36.108 24.8818 34.9977 26.9462 33.2443 27.2557C31.4908 27.5652 29.7895 26.0538 29.403 23.817C29.0166 21.5803 30.1268 19.5159 31.8803 19.2064C33.6337 18.8969 35.3351 20.4083 35.7215 22.6451Z" fill="white"/>
<path d="M35.8722 22.516C35.4857 20.2793 33.7844 18.7679 32.0309 19.0774C31.4716 19.1591 30.9578 19.4653 30.5724 19.8593C30.8747 19.6019 31.2299 19.4966 31.5851 19.3914C33.3385 19.0819 35.0399 20.5933 35.4263 22.83C35.684 24.3212 35.2538 25.8062 34.4076 26.6587C35.5184 25.9098 36.1752 24.2317 35.8722 22.516Z" fill="#79C1ED"/>
</svg>
