<svg width="150" height="335" viewBox="0 0 150 335" fill="none" xmlns="http://www.w3.org/2000/svg">
<mask id="mask0_152_9588" style="mask-type:alpha" maskUnits="userSpaceOnUse" x="0" y="0" width="150" height="335">
<rect width="150" height="335" rx="20" fill="#D9D9D9"/>
</mask>
<g mask="url(#mask0_152_9588)">
<path d="M203 -0.00012207H-38V335H203V-0.00012207Z" fill="url(#paint0_linear_152_9588)"/>
<mask id="mask1_152_9588" style="mask-type:luminance" maskUnits="userSpaceOnUse" x="-19" y="35" width="243" height="242">
<path d="M223.075 35.1061H-18.1885V276.37H223.075V35.1061Z" fill="white"/>
</mask>
<g mask="url(#mask1_152_9588)">
<g opacity="0.6">
<mask id="mask2_152_9588" style="mask-type:luminance" maskUnits="userSpaceOnUse" x="31" y="144" width="266" height="58">
<path d="M296.421 144.544H80.4415C78.1253 144.447 75.9057 144.447 73.8791 144.544H73.8308C45.0239 145.847 44.4449 164.424 44.4449 164.424C39.4749 167.802 31.6579 173.158 31.0789 179.865C29.8726 194.341 47.2436 201.096 65.5796 201.048L74.1204 201.096H296.421V144.544Z" fill="white"/>
</mask>
<g mask="url(#mask2_152_9588)">
<path d="M296.421 144.544H80.4415C78.1253 144.447 75.9057 144.447 73.8791 144.544H73.8308C45.0239 145.846 44.4449 164.424 44.4449 164.424C39.4749 167.801 31.6579 173.157 31.0789 179.865C29.8726 194.34 47.2436 201.096 65.5796 201.048L74.1204 201.096H296.421V144.544Z" fill="white"/>
</g>
<mask id="mask3_152_9588" style="mask-type:luminance" maskUnits="userSpaceOnUse" x="31" y="144" width="266" height="58">
<path d="M296.421 144.544H80.4415C78.1253 144.447 75.9057 144.447 73.8791 144.544H73.8308C45.0239 145.847 44.4449 164.424 44.4449 164.424C39.4749 167.802 31.6579 173.158 31.0789 179.865C29.8726 194.341 47.2436 201.096 65.5796 201.048L74.1204 201.096H296.421V144.544Z" fill="white"/>
</mask>
<g mask="url(#mask3_152_9588)">
<path d="M23.6484 161.529C23.6484 163.362 25.1443 164.906 27.0261 164.906H66.4004C68.234 164.906 69.7781 163.411 69.7781 161.529C69.7781 159.695 68.2822 158.151 66.4004 158.151H26.9779C25.1443 158.151 23.6484 159.647 23.6484 161.529Z" fill="#2149AB"/>
</g>
<path opacity="0.3" d="M143.506 167.512C143.506 168.67 144.423 169.587 145.532 169.587C146.642 169.587 147.559 168.67 147.559 167.512V164.231C147.559 163.073 146.642 162.156 145.532 162.156C144.423 162.156 143.506 163.073 143.506 164.231V167.512Z" fill="#2149AB"/>
<path opacity="0.3" d="M134.676 167.512C134.676 168.67 135.593 169.587 136.702 169.587C137.812 169.587 138.729 168.67 138.729 167.512V164.231C138.729 163.073 137.812 162.156 136.702 162.156C135.593 162.156 134.676 163.073 134.676 164.231V167.512Z" fill="#2149AB"/>
<path opacity="0.3" d="M125.797 167.512C125.797 168.67 126.714 169.587 127.823 169.587C128.933 169.587 129.85 168.67 129.85 167.512V164.231C129.85 163.073 128.933 162.156 127.823 162.156C126.714 162.156 125.797 163.073 125.797 164.231V167.512Z" fill="#2149AB"/>
<path opacity="0.3" d="M116.967 167.512C116.967 168.67 117.884 169.587 118.993 169.587C120.103 169.587 121.02 168.67 121.02 167.512V164.231C121.02 163.073 120.103 162.156 118.993 162.156C117.884 162.156 116.967 163.073 116.967 164.231V167.512Z" fill="#2149AB"/>
<path opacity="0.2" d="M107.414 161.287H94.1924V196.608H107.414V161.287Z" fill="#2149AB"/>
</g>
</g>
<mask id="mask4_152_9588" style="mask-type:luminance" maskUnits="userSpaceOnUse" x="-76" y="-1" width="243" height="242">
<path d="M166.075 -0.893677H-75.1885V240.37H166.075V-0.893677Z" fill="white"/>
</mask>
<g mask="url(#mask4_152_9588)">
<path d="M122.647 40.1212C121.779 38.7219 120.283 37.8051 118.497 37.8051C117.629 37.8051 116.809 38.0463 116.133 38.4324C115.264 35.4407 112.562 33.2693 109.281 33.2693C108.171 33.2693 107.061 33.5106 106.145 33.9931C104.649 29.5539 100.451 26.3209 95.529 26.3209C90.366 26.3209 86.0233 29.8434 84.7204 34.6204C83.5624 33.7518 82.1148 33.2693 80.5707 33.2693C76.7105 33.2693 73.574 36.3092 73.4775 40.1212H122.647Z" fill="white"/>
</g>
<mask id="mask5_152_9588" style="mask-type:luminance" maskUnits="userSpaceOnUse" x="-69" y="29" width="243" height="242">
<path d="M173.075 29.1063H-68.1885V270.37H173.075V29.1063Z" fill="white"/>
</mask>
<g mask="url(#mask5_152_9588)">
<path opacity="0.8" d="M205.404 111.039C203.764 108.337 200.772 106.504 197.394 106.504C195.705 106.504 194.161 106.938 192.762 107.71C191.121 101.92 185.814 97.6734 179.492 97.6734C177.321 97.6734 175.246 98.2042 173.364 99.121C170.469 90.4838 162.363 84.2592 152.712 84.2592C142.676 84.2592 134.231 91.0628 131.722 100.327C129.454 98.6867 126.656 97.7217 123.616 97.7217C116.137 97.7217 110.057 103.657 109.815 111.039H205.404Z" fill="white"/>
</g>
<mask id="mask6_152_9588" style="mask-type:luminance" maskUnits="userSpaceOnUse" x="-39" y="49" width="243" height="242">
<path d="M203.075 49.1062H-38.1885V290.37H203.075V49.1062Z" fill="white"/>
</mask>
<g mask="url(#mask6_152_9588)">
<path opacity="0.6" d="M4.27428 178.81C2.63368 176.107 -0.357994 174.274 -3.73569 174.274C-5.42453 174.274 -6.96862 174.708 -8.36795 175.48C-10.0085 169.69 -15.3164 165.444 -21.6375 165.444C-23.8088 165.444 -25.8837 165.974 -27.7656 166.891C-30.6607 158.254 -38.7672 152.029 -48.4177 152.029C-58.4543 152.029 -66.8986 158.833 -69.4077 168.097C-71.6756 166.457 -74.4742 165.492 -77.5142 165.492C-84.9933 165.492 -91.0732 171.427 -91.3145 178.81H4.27428Z" fill="white"/>
</g>
<mask id="mask7_152_9588" style="mask-type:luminance" maskUnits="userSpaceOnUse" x="-59" y="-38" width="343" height="342">
<path d="M116.284 -37.3165L-58.0771 129.445L108.684 303.806L283.046 137.045L116.284 -37.3165Z" fill="white"/>
</mask>
<g mask="url(#mask7_152_9588)">
<path opacity="0.2" d="M161.591 -5.93212L-72.7852 218.229L-57.6432 234.061L176.733 9.89989L161.591 -5.93212Z" fill="white"/>
</g>
<mask id="mask8_152_9588" style="mask-type:luminance" maskUnits="userSpaceOnUse" x="-60" y="37" width="342" height="343">
<path d="M114.663 37.9939L-59.6982 204.755L107.063 379.117L281.425 212.355L114.663 37.9939Z" fill="white"/>
</mask>
<g mask="url(#mask8_152_9588)">
<path opacity="0.2" d="M258.522 37.82L24.1455 261.981L31.5164 269.688L265.893 45.5267L258.522 37.82Z" fill="white"/>
</g>
<mask id="mask9_152_9588" style="mask-type:luminance" maskUnits="userSpaceOnUse" x="-74" y="-116" width="342" height="342">
<path d="M100.361 -115.483L-74 51.2788L92.7615 225.64L267.123 58.8786L100.361 -115.483Z" fill="white"/>
</mask>
<g mask="url(#mask9_152_9588)">
<path opacity="0.2" d="M60.1021 -21.0908L-174.274 203.07L-166.904 210.777L67.473 -13.384L60.1021 -21.0908Z" fill="white"/>
</g>
<mask id="mask10_152_9588" style="mask-type:luminance" maskUnits="userSpaceOnUse" x="-39" y="49" width="243" height="242">
<path d="M203.075 49.1062H-38.1885V290.37H203.075V49.1062Z" fill="white"/>
</mask>
<g mask="url(#mask10_152_9588)">
<path d="M247.468 185.758H175.571V29.8051H170.746V185.758H46.7361V29.8051H41.9108V185.758H-112.498V190.583H41.9108V333.122H46.7361V190.583H170.746V333.122H175.571V190.583H247.468V185.758Z" fill="#5AC4D9"/>
</g>
<mask id="mask11_152_9588" style="mask-type:luminance" maskUnits="userSpaceOnUse" x="-39" y="-150" width="243" height="487">
<path d="M203.075 -149H-38.1885V336.37H203.075V-149Z" fill="white"/>
</mask>
<g mask="url(#mask11_152_9588)">
<path d="M247.468 246.577H-112.498V433.444H247.468V246.577Z" fill="url(#paint1_linear_152_9588)"/>
</g>
<mask id="mask12_152_9588" style="mask-type:luminance" maskUnits="userSpaceOnUse" x="-39" y="49" width="243" height="242">
<path d="M203.075 49.1062H-38.1885V290.37H203.075V49.1062Z" fill="white"/>
</mask>
<g mask="url(#mask12_152_9588)">
<path d="M247.468 242.117H-112.498V246.943H247.468V242.117Z" fill="#5AC4D9"/>
</g>
<mask id="mask13_152_9588" style="mask-type:luminance" maskUnits="userSpaceOnUse" x="-76" y="69" width="243" height="242">
<path d="M166.075 69.1063H-75.1885V310.37H166.075V69.1063Z" fill="white"/>
</mask>
<g mask="url(#mask13_152_9588)">
<path d="M103.298 247.593V267.087" stroke="#002961" stroke-width="5" stroke-miterlimit="10"/>
<path d="M132.925 247.593V259.704" stroke="#002961" stroke-width="5" stroke-miterlimit="10"/>
<path d="M127.52 223.997H144.071L139.728 246.531H123.322L127.52 223.997Z" fill="#002961"/>
<path d="M120.91 250.343H136.399V250.585L137.123 250.343L138.088 246.531C138.088 246.531 138.957 241.947 139.005 241.658L142.383 223.997H125.88L120.91 250.343Z" fill="#2149AB"/>
<path d="M164.241 250.343H115.265V252.708H164.241V250.343Z" fill="#002961"/>
<path d="M138.088 246.483C138.088 246.483 137.171 249.957 134.518 250.343V251.501C134.518 251.501 138.571 252.611 139.777 246.483H138.088Z" fill="#002961"/>
<path d="M107.399 223.997H123.95L119.607 246.531H103.201L107.399 223.997Z" fill="#002961"/>
<path d="M100.788 250.343H116.277V250.585L117.001 250.343L117.966 246.531C117.966 246.531 118.835 241.947 118.883 241.658L122.261 223.997H105.758L100.788 250.343Z" fill="#2149AB"/>
<path d="M116.277 250.343H95.1426V252.708H116.277V250.343Z" fill="#002961"/>
<path d="M117.966 246.483C117.966 246.483 117.049 249.957 114.396 250.343V251.502C114.396 251.502 118.449 252.611 119.655 246.483H117.966Z" fill="#002961"/>
<path d="M194.061 258.547H103.877V259.994H194.061V258.547Z" fill="#002961"/>
<path d="M106.723 266.267H99.8232V268.342H106.723V266.267Z" fill="#002961"/>
<path d="M151.262 247.593V267.087" stroke="#002961" stroke-width="5" stroke-miterlimit="10"/>
<path d="M148.751 250.343H164.24V250.585L164.964 250.343L165.929 246.531C165.929 246.531 166.798 241.947 166.846 241.658L170.223 223.997H153.721L148.751 250.343Z" fill="#2149AB"/>
<path d="M164.241 250.343H143.106V252.708H164.241V250.343Z" fill="#002961"/>
<path d="M154.687 266.267H147.787V268.342H154.687V266.267Z" fill="#002961"/>
</g>
<mask id="mask14_152_9588" style="mask-type:luminance" maskUnits="userSpaceOnUse" x="-27" y="69" width="243" height="242">
<path d="M215.075 69.1063H-26.1885V310.37H215.075V69.1063Z" fill="white"/>
</mask>
<g mask="url(#mask14_152_9588)">
<path d="M1.55785 262.117C3.00543 259.994 3.82573 258.402 3.15019 255.748C2.47465 253.19 1.12357 250.874 0.496284 248.269C-0.758287 243.154 1.99212 237.798 5.90059 235.337C8.651 233.552 10.0986 230.319 8.50624 227.231C7.10691 224.577 3.10193 222.84 0.399778 224.625C-6.35561 229.161 -9.6368 236.206 -8.28572 244.312C-7.75494 247.641 -6.64512 250.826 -5.00453 253.721C-4.18423 255.169 -3.17093 256.568 -2.01286 257.775C-0.951299 258.836 0.110263 260.042 -0.131001 261.635C-0.27576 262.552 1.07532 262.841 1.55785 262.117Z" fill="#5AC5D8"/>
<path d="M4.59654 228.244C0.446807 231.814 -4.23371 236.688 -4.1372 242.575C-4.08895 245.711 -2.44836 248.462 -1.14553 251.212C0.639819 254.976 0.350302 258.547 -1.00077 262.407C-1.09728 262.696 -0.614753 262.841 -0.518247 262.552C0.543314 259.56 1.12235 256.423 0.253796 253.335C-0.614754 250.247 -2.73787 247.593 -3.41341 244.408C-4.81274 238.039 0.543313 232.394 4.98257 228.582C5.17558 228.389 4.83781 228.051 4.59654 228.244Z" fill="white"/>
<path d="M7.05836 262.214C9.80876 259.126 10.6291 255.169 10.1465 251.164C9.90527 249.282 8.98846 247.4 9.13322 245.422C9.32623 243.202 10.6291 241.562 11.4011 239.535C12.7522 235.771 8.45768 232.538 5.46601 235.578C2.66735 238.473 1.41278 243.202 1.99182 247.111C2.32959 249.427 3.29464 251.212 4.64572 253.094C6.47932 255.748 8.11992 258.064 5.75553 261.056C5.03174 261.924 6.28631 263.034 7.05836 262.214Z" fill="#2DC1C3"/>
<path d="M7.39587 238.184C4.83847 240.548 4.11468 244.891 5.17624 248.124C5.75527 250.006 7.10635 251.646 8.11966 253.335C9.47074 255.651 10.3393 258.064 9.51899 260.718C9.42248 261.007 9.90501 261.152 10.0015 260.863C11.2561 256.568 8.50568 253.287 6.47906 249.765C4.5007 246.387 4.74197 241.272 7.73364 238.522C7.9749 238.329 7.63713 237.991 7.39587 238.184Z" fill="white"/>
<path d="M7.10586 264.819C10.8213 262.696 13.2822 260.042 14.1025 255.796C14.6333 252.901 14.4403 248.655 18.2522 248.172C19.7481 247.979 21.0027 247.303 21.4369 245.759C21.8712 244.167 20.9061 241.947 19.1208 241.706C13.8612 240.886 9.80801 243.974 9.13247 249.234C8.84295 251.598 9.32548 254.011 8.98772 256.375C8.60169 258.981 7.44363 261.056 5.46526 262.744C4.3072 263.758 5.80303 265.591 7.10586 264.819Z" fill="#1D93B7"/>
<path d="M18.1562 244.167C14.875 244.891 12.2211 247.496 11.9316 250.971C11.6421 254.541 12.9931 258.932 9.27767 261.2C9.03641 261.345 9.27767 261.779 9.51893 261.635C12.4141 259.849 12.5106 256.713 12.3658 253.625C12.3176 251.743 12.2211 249.909 13.1861 248.22C14.2477 246.338 16.1296 245.084 18.2527 244.601C18.5905 244.553 18.4457 244.071 18.1562 244.167Z" fill="white"/>
<path d="M0.592629 264.819C-3.12283 262.696 -5.58372 260.042 -6.40402 255.796C-6.9348 252.901 -6.74179 248.655 -10.5538 248.172C-12.0496 247.979 -13.3042 247.304 -13.7384 245.76C-14.1727 244.167 -13.2077 241.948 -11.4223 241.706C-6.16276 240.886 -2.10953 243.974 -1.43399 249.234C-1.14447 251.598 -1.627 254.011 -1.28923 256.375C-0.903207 258.981 0.254862 261.056 2.23322 262.745C3.39129 263.758 1.89545 265.592 0.592629 264.819Z" fill="#1D93B7"/>
<path d="M-9.05833 245.325C-7.41773 246.097 -5.82539 247.111 -5.1016 248.848C-4.37781 250.681 -4.61907 252.756 -4.57082 254.686C-4.47431 258.161 -3.31625 260.863 -0.131566 262.552C0.15795 262.696 0.399214 262.262 0.109697 262.117C-1.72391 261.152 -3.12324 259.801 -3.70227 257.775C-4.1848 255.941 -4.08829 254.011 -4.08829 252.129C-4.08829 250.585 -4.2813 248.993 -5.1016 247.69C-5.97015 246.339 -7.36948 245.518 -8.76881 244.891C-9.10658 244.795 -9.34784 245.181 -9.05833 245.325Z" fill="white"/>
<path opacity="0.3" d="M19.556 271.864C19.556 273.264 12.0768 274.422 2.86049 274.422C-6.35578 274.422 -13.835 273.264 -13.835 271.864C-13.835 270.465 -6.35578 269.307 2.86049 269.307C12.0768 269.307 19.556 270.417 19.556 271.864Z" fill="#1B70C2"/>
<path d="M15.4059 259.27C15.4059 266.219 9.80857 271.816 2.86017 271.816C-4.08823 271.816 -9.68555 266.219 -9.68555 259.27H15.4059Z" fill="white"/>
</g>
<mask id="mask15_152_9588" style="mask-type:luminance" maskUnits="userSpaceOnUse" x="-103" y="23" width="308" height="308">
<path d="M205 23H-103V331H205V23Z" fill="white"/>
</mask>
<g mask="url(#mask15_152_9588)">
<path d="M29.3505 295.441C27.9253 301.439 26.1439 301.082 25.1938 300.726C25.1344 300.726 25.075 300.667 25.0157 300.667C23.1154 300.013 24.3031 293.66 24.3031 293.66L26.9752 294.61L29.3505 295.441Z" fill="#091B1E"/>
<path opacity="0.3" d="M29.351 295.441C27.9259 301.438 26.1444 301.082 25.1943 300.726C26.0851 298.944 26.6789 296.51 26.9758 294.61L29.351 295.441Z" fill="#091B1E"/>
<path d="M64.6825 296.51C64.6825 296.51 64.5637 303.992 61.7134 303.992C61.654 303.992 61.654 303.992 61.5946 303.992C58.9225 303.814 59.635 297.697 59.635 297.579L61.1196 297.282L64.6825 296.51Z" fill="#091B1E"/>
<path opacity="0.3" d="M61.5946 303.992C58.9225 303.814 59.635 297.698 59.635 297.579L61.1196 297.282C61.1196 299.835 61.1196 302.211 61.5946 303.992Z" fill="#091B1E"/>
<path d="M64.6829 296.51C64.6829 296.51 57.9134 299.123 44.5525 298.291C31.1917 297.46 23.2346 293.66 23.2346 293.66C23.2346 293.66 23.2346 293.6 23.2346 293.541C23.2346 293.422 23.1752 293.185 23.1752 292.947C22.8783 288.137 23.7096 262.247 29.3509 246.57C30.0041 244.729 30.776 243.007 31.548 241.523C31.548 241.523 32.8544 241.523 34.9327 241.582C41.1678 241.76 54.7068 242.354 63.6734 244.432C64.386 244.61 65.0986 244.789 65.7518 244.967C65.7518 244.967 65.8112 246.986 65.8112 250.192C66.0487 262.187 66.2862 291.225 64.6829 296.51Z" fill="url(#paint2_linear_152_9588)"/>
<path d="M65.8703 250.192C60.229 249.895 33.5073 246.867 29.3506 246.629C30.0038 244.789 30.7758 243.067 31.5477 241.582C31.5477 241.582 54.1127 241.701 65.7515 245.026C65.8109 244.967 65.8109 246.986 65.8703 250.192Z" fill="#2A4849"/>
<path d="M39.8014 246.57C39.6827 247.045 37.5449 258.565 37.5449 258.565C37.5449 258.565 51.9747 260.465 58.8035 260.406L59.6943 248.411L39.8014 246.57Z" fill="#1B2728"/>
<path d="M39.8014 246.57L41.5829 246.748L40.6921 257.08L37.5449 258.565L39.8014 246.57Z" fill="#061314"/>
<path d="M46.9276 211.594C46.9276 211.654 46.6307 213.435 46.215 216.226C44.9086 225.074 42.2958 244.492 42.2365 255.893C42.2365 256.249 41.9396 256.487 41.6426 256.487C41.2864 256.487 41.0488 256.19 41.0488 255.893C41.1082 244.373 43.7804 224.718 45.0868 215.929C45.5024 213.198 45.74 211.475 45.74 211.416C45.7994 211.06 46.0963 210.822 46.4525 210.882C46.7495 210.941 46.987 211.238 46.9276 211.594Z" fill="url(#paint3_linear_152_9588)"/>
<path d="M59.6945 248.47L57.5567 248.233L56.666 257.496L58.8038 260.406L59.6945 248.47Z" fill="#061314"/>
<path d="M64.0886 213.317C64.0886 213.435 63.4948 216.345 62.6634 220.739C60.882 230.359 57.9723 247.045 57.2597 256.843C57.2597 257.14 56.9628 257.437 56.6659 257.437H56.6065C56.2502 257.437 56.0127 257.14 56.0127 256.784C56.7253 246.927 59.6944 230.122 61.4758 220.502C62.3071 216.107 62.8416 213.257 62.8416 213.138C62.901 212.782 63.1979 212.604 63.5542 212.663C63.9104 212.663 64.148 212.96 64.0886 213.317Z" fill="url(#paint4_linear_152_9588)"/>
<path d="M96.0958 203.875C95.3833 203.934 94.7301 203.993 94.0769 203.993C88.6138 204.172 84.9321 203.162 83.5663 202.746C84.5758 196.333 85.4072 187.485 84.8133 177.747C83.9226 162.783 80.4785 147.403 78.9346 141.168C81.3098 141.583 83.982 141.821 87.0699 141.762C89.6826 141.702 91.9985 141.405 94.0175 140.99C93.6612 145.384 93.1862 153.697 92.9486 161.714C92.8299 165.336 92.8299 168.899 92.8892 172.046C93.1862 180.597 94.6707 193.839 96.0958 203.875Z" fill="url(#paint5_linear_152_9588)"/>
<path d="M109.872 261.712C105.359 277.627 96.6896 294.313 96.6896 294.313C95.5019 294.61 94.6706 294.016 94.0768 293.244C93.2454 292.056 92.9485 290.453 92.9485 290.453C92.9485 290.453 91.9391 277.745 92.4141 267.71C92.8892 257.674 95.4426 253.28 95.4426 253.28C94.9675 249.836 89.6825 221.274 89.6825 221.274C89.6825 221.274 86.2384 242.651 86.5353 255.24C86.7729 267.829 81.666 300.192 81.666 300.192C81.2504 300.014 80.7159 299.954 80.1221 299.954C79.6471 299.954 79.172 299.954 78.697 300.014C77.8062 300.073 77.0937 300.251 77.0937 300.251C75.5497 294.966 69.9085 270.441 68.6021 252.924C68.6021 252.686 68.5427 252.508 68.5427 252.271C67.9489 243.72 67.8895 233.803 68.0083 225.252C68.1864 216.226 68.6021 208.803 68.899 206.369C69.1365 208.15 69.1959 208.566 69.1959 208.566C69.1959 208.566 78.4594 212.96 81.4285 212.366C81.4285 212.366 81.8442 210.525 82.6161 206.488C83.0912 206.606 83.5069 206.666 83.9819 206.784C89.2075 207.853 92.9485 208.21 95.2644 208.269C96.0958 208.269 96.6896 208.269 97.1646 208.21C97.5803 210.941 97.7584 212.782 98.0554 214.385C98.0554 214.385 102.984 216.048 108.863 213.673C108.863 213.91 108.922 214.088 108.922 214.326C110.169 223.827 114.326 246.214 109.872 261.712Z" fill="url(#paint6_linear_152_9588)"/>
<path d="M58.6845 202.865C57.9126 202.687 57.0219 202.628 56.1905 202.568C53.5183 202.449 51.0243 202.746 51.0243 202.746C50.7274 200.846 50.9055 198.293 50.9055 198.293C51.915 198.411 53.5777 198.649 55.181 198.827C57.2594 199.065 59.219 199.302 59.219 199.302C59.5159 200.252 58.6845 202.865 58.6845 202.865Z" fill="url(#paint7_linear_152_9588)"/>
<path d="M123.114 183.685C122.461 186.119 121.333 187.842 119.848 188.376C119.254 188.614 118.601 188.732 117.948 188.673C117.889 188.673 117.829 188.673 117.77 188.673C117.592 188.673 117.414 188.614 117.235 188.614C117.176 188.614 117.117 188.614 117.057 188.554C116.998 188.554 116.998 188.554 116.939 188.554C116.879 188.554 116.82 188.554 116.76 188.495C116.701 188.495 116.642 188.495 116.582 188.435H116.523C116.463 188.435 116.404 188.376 116.345 188.376C116.107 188.317 115.81 188.198 115.573 188.079C115.454 188.02 115.335 187.96 115.216 187.901C115.038 187.842 114.86 187.723 114.682 187.604C114.623 187.545 114.563 187.545 114.504 187.485C114.504 187.485 114.445 187.485 114.445 187.426C114.385 187.366 114.326 187.366 114.266 187.307C114.207 187.248 114.148 187.248 114.088 187.188C114.029 187.188 114.029 187.129 113.969 187.129C113.851 187.07 113.791 187.01 113.673 186.951C113.316 186.713 112.901 186.416 112.544 186.179C112.485 186.119 112.426 186.06 112.366 186.06C111.832 185.644 111.357 185.229 111 184.872C110.941 184.813 110.882 184.754 110.763 184.635C110.703 184.576 110.585 184.457 110.525 184.397C109.991 183.863 109.635 183.447 109.635 183.447C109.635 183.447 109.635 183.507 109.635 183.566C109.575 184.872 108.981 194.967 109.397 200.015C109.753 204.825 110.11 212.841 110.11 212.841C109.694 213.019 109.278 213.197 108.863 213.376C107.913 213.732 107.022 214.029 106.131 214.266C101.499 215.454 97.8177 214.801 97.8177 214.801C97.8177 214.682 97.7583 214.563 97.7583 214.445C97.7583 214.385 97.7583 214.385 97.7583 214.326C97.7583 214.266 97.6989 214.148 97.6989 214.088L97.6395 213.91C97.6395 213.851 97.6395 213.732 97.5801 213.673C97.5801 213.613 97.5801 213.554 97.5208 213.494C97.5208 213.435 97.5208 213.316 97.4614 213.257C97.4614 213.197 97.4614 213.138 97.4614 213.079C97.4614 213.019 97.402 212.901 97.402 212.841C97.3426 212.544 97.2832 212.247 97.2239 211.95C97.2239 211.891 97.2239 211.891 97.2239 211.832C97.2239 211.713 97.1645 211.594 97.1645 211.535C97.1645 211.475 97.1645 211.416 97.1645 211.416C97.1645 211.297 97.1051 211.179 97.1051 211.06C97.1051 211 97.1051 211 97.1051 210.941C97.1051 210.822 97.0457 210.703 97.0457 210.525C96.9269 209.931 96.8676 209.278 96.7488 208.625C96.7488 208.447 96.6894 208.328 96.6894 208.15C96.63 207.913 96.63 207.675 96.5707 207.437C96.5707 207.378 96.5707 207.378 96.5707 207.319C96.5113 207.081 96.5113 206.844 96.4519 206.547C96.3331 205.775 96.2144 204.943 96.0956 204.053C96.0956 203.934 96.0362 203.756 96.0362 203.637C94.6111 193.602 93.1859 180.3 92.9484 171.69C92.9484 171.512 92.9484 171.274 92.9484 171.096C92.7702 162.604 93.364 151.262 93.8391 144.137C93.8985 142.83 94.0172 141.643 94.0766 140.693C94.1954 139.03 94.3141 137.902 94.3735 137.545L98.7084 136.239L101.143 135.526C102.449 136.298 104.053 137.545 105.834 139.149C111.357 144.137 118.245 152.628 121.333 161.714C124.064 170.205 124.539 178.578 123.114 183.685Z" fill="url(#paint8_linear_152_9588)"/>
<path d="M83.5669 202.746C83.5075 202.925 83.5075 203.162 83.4481 203.34C83.27 204.468 83.0918 205.597 82.9137 206.547C82.9137 206.606 82.9137 206.666 82.9137 206.666C82.1417 210.644 81.4885 213.019 81.4885 213.019C79.3508 213.435 73.9471 210.882 71.0968 209.397C70.0279 208.863 69.3153 208.447 69.3153 208.447C69.3153 208.447 69.2559 207.972 69.0184 206.25C68.8996 205.3 68.7215 203.934 68.4246 202.093C67.712 196.808 66.1681 179.35 66.1681 179.35C63.7334 184.338 60.1705 199.896 60.1705 199.896C59.6361 199.955 59.0423 199.955 58.3891 199.896C55.0043 199.777 50.5507 198.827 50.5507 198.827C50.4913 197.105 51.7977 174.718 58.3891 157.379C61.18 150.075 65.5149 144.434 69.3747 141.286C70.5029 140.336 71.6312 139.683 72.6407 139.208C72.9376 139.089 73.2345 138.971 73.5908 138.852C75.8473 138.139 78.3413 138.199 78.3413 138.199C78.3413 138.199 78.6382 139.267 79.1133 141.108C79.3508 141.999 79.5883 143.127 79.8852 144.434C81.3698 150.847 83.5075 161.417 84.517 172.402C84.6951 174.184 84.8139 175.965 84.9327 177.747C85.4077 187.485 84.5764 196.333 83.5669 202.746Z" fill="url(#paint9_linear_152_9588)"/>
<path d="M110.406 166.227C110.703 166.227 115.81 170.146 118.126 174.481C118.126 174.481 112.366 170.086 112.188 169.611L110.406 166.227Z" fill="url(#paint10_linear_152_9588)"/>
<path d="M84.3965 172.402L73.6484 165.217C73.6484 165.217 75.0142 144.196 74.7173 138.614C76.9738 137.902 78.2208 138.258 78.2208 138.258C78.2208 138.258 78.5177 139.327 78.9928 141.168C80.3586 146.69 83.1495 159.279 84.3965 172.402Z" fill="url(#paint11_linear_152_9588)"/>
<path d="M101.975 164.326L93.0083 171.393C92.7708 161.357 93.6615 147.284 94.1365 140.99C94.2553 139.327 94.3741 138.199 94.4334 137.842L98.7683 136.536C99.184 144.137 101.975 164.326 101.975 164.326Z" fill="url(#paint12_linear_152_9588)"/>
<path opacity="0.2" d="M105.834 139.446C104.528 140.811 102.152 142.296 99.2426 142.83C96.9861 143.305 95.1453 143.187 93.8389 143.424C93.8982 142.118 94.017 141.94 94.0764 140.989C94.1952 139.327 94.3139 138.199 94.3733 137.842L98.7082 136.536L101.143 135.823C102.449 136.595 104.053 137.842 105.834 139.446Z" fill="url(#paint13_linear_152_9588)"/>
<path opacity="0.2" d="M79.7656 144.493C75.0745 144.79 72.046 143.187 69.3145 141.346C70.4427 140.396 71.571 139.743 72.5804 139.268C72.8773 139.149 73.1743 139.03 73.5305 138.911C75.787 138.199 78.2811 138.258 78.2811 138.258C78.2811 138.258 78.578 139.327 79.053 141.168C79.2312 142.118 79.4687 143.187 79.7656 144.493Z" fill="url(#paint14_linear_152_9588)"/>
<path opacity="0.2" d="M96.0948 203.875C95.3822 203.934 94.729 203.993 94.0758 203.993C93.6008 201.024 90.9286 176.084 93.007 161.654C92.8882 165.277 92.8882 168.839 92.9476 171.987C93.1851 180.597 94.6696 193.839 96.0948 203.875Z" fill="url(#paint15_linear_152_9588)"/>
<path d="M93.5425 184.575C93.3644 185.644 90.7516 189.445 90.7516 189.445L86.5949 186.001C86.5949 186.001 86.1792 178.34 86.4168 170.086C86.6543 161.773 87.7232 148.293 87.7232 148.293L85.4073 144.968L85.1104 144.552L87.7232 142.296L90.5735 144.552L88.6732 148.115C88.6732 148.115 90.1578 157.438 90.8704 163.554C90.9298 164.267 91.0485 165.098 91.1673 165.989C92.058 172.818 93.7207 183.625 93.5425 184.575Z" fill="url(#paint16_linear_152_9588)"/>
<path opacity="0.2" d="M71.0963 209.397C70.0275 208.863 69.3149 208.447 69.3149 208.447C69.3149 208.447 69.2555 207.972 69.018 206.25C68.8992 205.3 68.7211 203.934 68.4242 202.093C67.7116 196.808 66.1677 179.35 66.1677 179.35C63.733 184.338 60.1701 199.896 60.1701 199.896C59.6357 199.956 59.0419 199.956 58.3887 199.896C59.1013 195.977 62.7829 180.954 67.0584 174.481C66.999 174.481 68.7211 201.44 71.0963 209.397Z" fill="url(#paint17_linear_152_9588)"/>
<path opacity="0.2" d="M123.115 183.685C122.462 186.12 121.334 187.842 119.849 188.376C119.255 188.614 118.602 188.732 117.949 188.673C117.889 188.673 117.83 188.673 117.771 188.673C117.592 188.673 117.414 188.614 117.236 188.614C117.177 188.614 117.117 188.614 117.058 188.554C116.999 188.554 116.999 188.554 116.939 188.554C116.88 188.554 116.821 188.554 116.761 188.495C116.702 188.495 116.642 188.495 116.583 188.435H116.524C116.464 188.435 116.405 188.376 116.345 188.376C116.108 188.317 115.811 188.198 115.574 188.079C115.455 188.02 115.336 187.96 115.217 187.901C115.039 187.842 114.861 187.723 114.683 187.604C114.623 187.545 114.564 187.545 114.505 187.485C114.505 187.485 114.445 187.485 114.445 187.426C114.386 187.367 114.326 187.367 114.267 187.307C114.208 187.248 114.148 187.248 114.089 187.188C114.03 187.188 114.03 187.129 113.97 187.129C113.851 187.07 113.792 187.01 113.673 186.951C113.317 186.713 112.901 186.416 112.545 186.179C112.486 186.12 112.426 186.06 112.367 186.06C111.832 185.644 111.357 185.229 111.001 184.872C110.942 184.813 110.882 184.754 110.764 184.635C110.704 184.576 110.585 184.457 110.526 184.397C109.992 183.863 109.635 183.447 109.635 183.447C109.635 183.447 109.635 183.507 109.635 183.566C109.576 184.872 108.982 194.967 109.398 200.015C109.754 204.825 110.11 212.841 110.11 212.841C109.695 213.019 109.279 213.198 108.863 213.376C107.913 213.732 107.023 214.029 106.132 214.266C106.785 212.069 107.201 208.803 107.438 205.359C107.676 201.618 107.795 191.108 108.388 186.713C108.745 184.219 108.685 182.497 108.566 181.547C107.438 179.231 106.726 175.668 106.488 175.134L107.795 175.371C110.051 179.469 112.664 186.535 117.889 186.238C119.908 186.476 121.868 185.11 123.115 183.685Z" fill="url(#paint18_linear_152_9588)"/>
<path opacity="0.2" d="M87.6639 142.415L84.2197 145.384L79.8255 144.493L78.9941 141.346C78.9941 141.346 85.8824 142.89 94.1364 141.168L93.8989 143.424L91.1674 145.146C90.0985 144.374 88.5546 143.127 87.6639 142.415Z" fill="url(#paint19_linear_152_9588)"/>
<path opacity="0.3" d="M91.1669 166.049C90.87 165.098 90.5731 163.792 90.3949 162.367C89.9793 159.22 88.376 148.293 88.376 148.293L89.9793 144.849L87.8415 143.246L85.2881 145.087L84.9912 144.671L87.604 142.415L90.4543 144.671L88.5541 148.234C88.5541 148.234 90.0386 157.557 90.7512 163.673C90.9294 164.386 90.9887 165.158 91.1669 166.049Z" fill="url(#paint20_linear_152_9588)"/>
<path d="M58.6844 202.865C57.9124 202.687 57.0217 202.628 56.1903 202.568L55.2402 198.827C57.3186 199.065 59.2782 199.302 59.2782 199.302C59.5157 200.252 58.6844 202.865 58.6844 202.865Z" fill="url(#paint21_linear_152_9588)"/>
<path d="M109.041 157.141L105.478 171.393L96.2142 170.977H95.3828L96.3329 166.049L98.1737 156.488L106.665 156.072L108.031 156.013L109.041 157.141Z" fill="#444444"/>
<path d="M109.041 157.141L107.556 157.26L98.7083 157.735L98.1738 156.488L106.665 156.072L108.031 156.013L109.041 157.141Z" fill="#2D2C2C"/>
<path d="M98.7082 157.735L97.1643 165.989L96.2142 170.977H95.3828L96.3329 166.048L98.1737 156.488L98.7082 157.735Z" fill="#606060"/>
<path opacity="0.4" d="M109.041 157.141L105.478 171.393L96.2142 170.977L95.3828 170.918L96.3329 165.989C96.5111 165.989 96.808 165.93 97.1643 165.93C99.4801 165.752 104.765 164.742 104.765 164.742L107.556 157.201L106.665 156.013L108.031 155.954L109.041 157.141Z" fill="#444444"/>
<path d="M96.749 208.388C96.2146 208.447 95.5614 208.447 94.6706 208.447C92.5923 208.388 89.3263 208.031 84.3976 207.022C83.9226 206.903 83.3881 206.784 82.9131 206.725C82.9131 206.665 82.9131 206.606 82.9131 206.606C83.0912 205.656 83.2694 204.528 83.4475 203.399C83.4475 203.221 83.5069 202.984 83.5663 202.806C83.8038 202.865 84.0413 202.984 84.3976 203.043C86.1791 203.518 89.5044 204.171 94.0768 204.053C94.73 204.053 95.3832 203.993 96.0958 203.934C96.0958 204.053 96.1552 204.231 96.1552 204.35C96.2739 205.181 96.3927 206.012 96.5115 206.844C96.5708 207.378 96.6302 207.912 96.749 208.388Z" fill="#0E3033"/>
<path opacity="0.3" d="M96.7493 208.388C96.2149 208.447 95.5617 208.447 94.671 208.447L94.0771 203.993C94.7303 203.993 95.3835 203.934 96.0961 203.875C96.0961 203.993 96.1555 204.171 96.1555 204.29C96.2743 205.122 96.393 205.953 96.5118 206.784C96.5712 207.378 96.6306 207.912 96.7493 208.388Z" fill="#0E3033"/>
<path opacity="0.3" d="M84.3976 202.984V206.962C83.9226 206.844 83.3881 206.725 82.9131 206.666C82.9131 206.606 82.9131 206.547 82.9131 206.547C83.0912 205.597 83.2694 204.468 83.4475 203.34C83.4475 203.162 83.5069 202.924 83.5663 202.746C83.8038 202.806 84.1007 202.924 84.3976 202.984Z" fill="#0E3033"/>
<path d="M108.03 174.54C104.646 177.094 97.8762 176.619 96.6885 175.431C96.5698 175.312 96.5104 175.193 96.5104 175.075C96.3323 173.649 99.3014 173.353 99.3014 173.353C99.3014 173.353 95.0853 173.293 95.3822 171.987C95.5603 171.096 97.5199 170.799 98.6482 170.68C97.4011 170.74 95.204 170.621 95.3822 169.493C95.5603 168.008 99.8358 168.424 100.37 168.483C99.8952 168.424 96.451 167.889 97.3417 166.405C98.2919 164.861 106.308 165.395 106.308 165.395C106.308 165.395 103.339 159.992 105.121 159.398C105.18 159.398 105.299 159.338 105.358 159.338C107.08 159.279 109.396 163.673 110.049 165.395C110.94 167.711 111.712 171.749 108.03 174.54Z" fill="url(#paint22_linear_152_9588)"/>
<path opacity="0.3" d="M108.031 174.54C104.647 177.094 97.8771 176.618 96.6895 175.431C101.321 176.203 108.031 174.362 109.041 170.68C110.11 166.939 107.259 161.298 105.419 159.398C107.141 159.338 109.456 163.733 110.11 165.455C110.941 167.711 111.713 171.749 108.031 174.54Z" fill="#E77653"/>
<path d="M110.109 165.514C110.524 165.514 113.375 170.146 111.89 173.828C110.406 177.509 106.962 177.331 106.546 175.431C106.546 175.431 109.693 174.303 110.287 170.918C110.881 167.474 110.109 165.514 110.109 165.514Z" fill="#0E3033"/>
<path d="M110.109 165.514C110.109 165.514 113.137 171.037 110.406 174.184C107.674 177.331 106.546 175.431 106.546 175.431C106.546 175.431 109.693 173.649 110.228 171.274C110.703 168.899 110.109 165.514 110.109 165.514Z" fill="url(#paint23_linear_152_9588)"/>
<path d="M101.084 159.813C101.084 160.229 100.728 160.585 100.312 160.585C99.8963 160.585 99.54 160.229 99.54 159.813C99.54 159.398 99.8963 159.041 100.312 159.041C100.728 159.041 101.084 159.398 101.084 159.813Z" fill="#2D2C2C"/>
<path d="M103.103 155.597C103.103 155.597 103.994 154.528 103.697 153.4C103.4 152.212 98.9461 146.037 105.716 144.433C112.485 142.83 115.335 145.68 114.682 149.065C114.088 152.509 108.922 155.063 105.359 153.578C105.419 153.578 103.637 155.775 103.103 155.597Z" fill="#F3F3F3"/>
<path opacity="0.5" d="M37.5449 258.565L40.7515 257.08L56.7252 257.496L58.8629 260.406C58.8035 260.406 42.6517 259.456 37.5449 258.565Z" fill="#061314"/>
<path opacity="0.3" d="M64.6835 296.51C64.6835 296.51 57.914 299.122 44.5532 298.291C31.1923 297.46 23.2352 293.659 23.2352 293.659C23.1758 293.541 23.1758 293.303 23.1758 292.947L28.817 293.897C28.817 293.897 38.7338 295.916 46.869 288.553C53.9948 282.139 61.8926 252.27 63.674 244.373C64.3866 244.551 65.0992 244.729 65.7524 244.907C65.7524 244.907 65.8118 246.926 65.8118 250.133C66.0493 262.187 66.2868 291.225 64.6835 296.51Z" fill="url(#paint24_linear_152_9588)"/>
<path opacity="0.2" d="M29.3509 286.178L23.2346 293.6C23.2346 293.482 23.1752 293.244 23.1752 293.006C22.8783 288.197 23.7096 262.306 29.3509 246.629C30.0041 244.789 30.776 243.067 31.548 241.582C31.548 241.582 32.8544 241.582 34.9327 241.641C32.8544 249.836 27.6882 274.064 29.3509 286.178Z" fill="url(#paint25_linear_152_9588)"/>
<path opacity="0.5" d="M46.9276 211.654C46.9276 211.713 46.6306 213.613 46.215 216.642L45.0273 216.285C45.443 213.316 45.6805 211.475 45.6805 211.416C45.7399 211.06 46.0368 210.822 46.3931 210.882C46.7494 210.941 46.9869 211.297 46.9276 211.654Z" fill="url(#paint26_linear_152_9588)"/>
<path opacity="0.5" d="M64.0893 213.198C64.0893 213.316 63.4955 216.404 62.6642 221.155L61.4766 220.798C62.3079 216.107 62.8423 213.019 62.8423 212.96C62.9017 212.604 63.1986 212.366 63.5549 212.426C63.9112 212.485 64.1487 212.841 64.0893 213.198Z" fill="url(#paint27_linear_152_9588)"/>
<path opacity="0.2" d="M74.0647 279.646C75.8461 287.306 77.9839 296.688 78.6964 299.954C77.8057 300.013 77.0931 300.192 77.0931 300.192C75.5492 294.907 69.908 270.382 68.6016 252.865C70.3236 262.841 72.7583 273.886 74.0647 279.646Z" fill="url(#paint28_linear_152_9588)"/>
<path opacity="0.2" d="M84.3973 207.022L82.2596 214.029L71.0958 210.169C71.0958 210.169 69.3144 217.414 68.0674 225.133C68.2455 216.107 68.6612 208.684 68.9581 206.25C69.1956 208.031 69.255 208.447 69.255 208.447C69.255 208.447 78.5185 212.841 81.4876 212.247C81.4876 212.247 81.9033 210.406 82.6753 206.369C83.1503 206.487 83.566 206.547 84.041 206.665L84.3973 207.022Z" fill="url(#paint29_linear_152_9588)"/>
<path opacity="0.2" d="M108.981 214.266C108.803 214.326 108.625 214.445 108.387 214.504C101.083 217.414 96.0357 215.216 96.0357 215.216L94.6699 208.388L95.3231 208.15C96.1545 208.15 96.7483 208.15 97.2233 208.091C97.639 210.822 97.8172 212.663 98.1141 214.266C98.1141 214.266 103.043 215.929 108.922 213.554C108.981 213.851 108.981 214.088 108.981 214.266Z" fill="url(#paint30_linear_152_9588)"/>
<path opacity="0.3" d="M98.7679 257.377C98.6491 257.318 95.5019 255.833 94.7299 263.553C94.1361 269.848 94.0767 286.771 94.0767 293.244C93.2454 292.056 92.9485 290.453 92.9485 290.453C92.9485 290.453 91.939 277.745 92.4141 267.71C92.8891 257.674 95.4425 253.28 95.4425 253.28C94.9675 249.836 89.6825 221.273 89.6825 221.273C89.6825 221.273 86.2384 242.651 86.5353 255.24C86.7728 267.829 81.666 300.192 81.666 300.192C81.2503 300.013 80.7159 299.954 80.1221 299.954C80.894 294.135 83.8631 269.076 83.7444 257.437C83.6256 244.313 88.198 226.321 89.8013 218.72C89.8013 218.72 96.5708 250.252 97.4021 253.518C98.2335 256.724 98.7679 257.318 98.7679 257.377Z" fill="url(#paint31_linear_152_9588)"/>
<path opacity="0.3" d="M103.34 260.049C103.34 260.049 106.546 260.643 109.1 258.862C109.1 258.862 107.734 261.712 106.25 261.89C104.646 262.128 103.34 260.049 103.34 260.049Z" fill="url(#paint32_linear_152_9588)"/>
<path d="M83.6253 302.626C83.6253 302.626 82.2595 305.061 78.5779 306.604C74.8962 308.148 72.0459 308.208 72.0459 308.208C72.0459 307.97 72.0459 307.733 72.1053 307.436C72.4616 304.645 74.243 301.023 76.2026 300.132C78.3403 299.182 81.6657 299.894 81.6657 299.894C82.2595 300.369 82.7346 301.023 83.0315 301.557C83.4472 302.21 83.6253 302.626 83.6253 302.626Z" fill="#0E3033"/>
<path opacity="0.4" d="M83.6253 302.626C83.6253 302.626 82.2595 305.06 78.5779 306.604C74.8962 308.148 72.0459 308.208 72.0459 308.208C72.0459 307.97 72.0459 307.733 72.1053 307.436C79.2904 306.011 82.2595 302.745 83.0909 301.557C83.4472 302.21 83.6253 302.626 83.6253 302.626Z" fill="#0E3033"/>
<path d="M99.3608 305.655C98.9451 306.605 97.7575 306.842 94.9666 304.586C90.7505 301.142 89.9785 292.472 89.9785 292.472C90.1567 292.294 90.4536 291.997 90.8099 291.7C91.7006 290.928 92.8882 289.978 92.9476 290.453C93.6602 294.254 96.9262 293.838 96.9262 293.838C98.1732 295.916 99.242 302.329 99.4796 304.052C99.5983 304.586 99.5983 305.239 99.3608 305.655Z" fill="#0E3033"/>
<path opacity="0.4" d="M99.3608 305.655C98.9451 306.605 97.7575 306.842 94.9666 304.586C90.7505 301.142 89.9785 292.472 89.9785 292.472C90.1567 292.294 90.4536 291.997 90.8099 291.7C91.1068 294.313 92.3538 299.717 93.8383 301.736C95.2041 303.636 97.2824 305.298 99.3608 305.655Z" fill="#0E3033"/>
<path d="M102.569 120.74C102.094 122.047 101.381 123.294 100.253 124.185C100.253 124.185 99.6589 121.691 99.8371 119.493C100.015 117.296 100.193 116.287 100.193 116.287C100.728 115.812 101.44 115.337 101.975 115.337C102.331 115.337 102.628 115.455 102.806 115.812C103.281 116.346 103.341 118.543 102.569 120.74Z" fill="url(#paint33_linear_152_9588)"/>
<path opacity="0.3" d="M102.272 121.394C101.797 122.7 101.322 123.294 100.253 124.185C100.253 124.185 99.6589 121.691 99.8371 119.494C100.015 117.296 100.193 116.287 100.193 116.287C100.728 115.812 100.965 115.456 101.5 115.396C101.203 117.89 101.322 120.206 102.272 121.394Z" fill="#E89478"/>
<path d="M100.49 124.838C100.49 124.838 100.43 125.135 100.312 125.55C100.074 126.619 99.4803 128.638 98.649 129.529C98.5896 129.588 98.5896 129.588 98.5302 129.648C97.5207 130.716 96.8675 131.31 94.9673 131.37C94.0766 131.429 92.8296 131.31 91.1669 131.132C86.0007 130.479 77.331 128.401 75.3714 126.382C73.4118 124.363 72.1648 120.265 72.1648 120.265C71.3335 106.904 75.4308 106.608 79.7656 105.361C84.1005 104.113 89.7418 104.589 93.5422 105.42C95.0267 105.776 96.2143 105.895 97.2832 105.776C97.6395 106.073 97.9364 106.311 98.2333 106.608C98.7084 107.083 99.0647 107.558 99.3022 108.092C99.421 108.33 99.5397 108.567 99.5991 108.805C100.609 111.596 100.371 117.771 100.371 123.116C100.43 123.709 100.43 124.244 100.49 124.838Z" fill="url(#paint34_linear_152_9588)"/>
<path opacity="0.3" d="M100.49 124.838C100.49 124.838 100.431 125.135 100.312 125.55C100.074 126.619 99.4806 128.638 98.6493 129.529C98.5899 129.588 98.5899 129.588 98.5305 129.648C97.4023 130.301 96.2146 130.835 94.9676 131.37C94.0769 131.429 92.8299 131.31 91.1672 131.132C86.001 130.479 77.3313 128.401 75.3717 126.382C73.4121 124.363 72.3433 120.265 72.3433 120.265C71.5119 106.904 75.4905 106.608 79.8253 105.361C84.1602 104.113 89.8014 104.589 93.6019 105.42C95.0864 105.776 96.274 105.895 97.3429 105.776C97.6992 106.073 97.9961 106.311 98.293 106.608C98.7681 107.083 99.1243 107.558 99.3619 108.092C97.3429 107.142 94.7895 107.083 91.761 106.251C88.3763 105.361 80.9536 105.598 77.8064 107.379C74.5997 109.161 73.9466 110.289 73.709 114.862C73.5309 119.493 74.7779 123.116 76.0843 125.016C77.4501 126.857 79.7066 127.926 80.5973 127.629C81.488 127.332 83.2101 125.075 87.7825 125.194C92.4142 125.313 93.6019 127.391 94.3144 127.629C94.9082 127.807 98.7681 125.016 100.371 123.175C100.431 123.709 100.431 124.244 100.49 124.838Z" fill="#E89478"/>
<path d="M70.9184 126.679C70.384 126.56 69.909 126.322 69.4339 125.966C67.2962 124.422 66.1085 121.156 66.7024 119.256C67.1774 117.831 68.1275 117.059 68.9589 116.999C69.4339 116.94 69.8496 117.118 70.1465 117.474C70.5622 118.781 70.9778 120.028 71.0372 120.919C71.3341 122.819 71.0966 124.6 70.9184 126.679Z" fill="url(#paint35_linear_152_9588)"/>
<path opacity="0.5" d="M68.1278 118.781C69.4936 119.256 70.9782 121.512 71.2157 122.938C71.4532 124.363 71.0969 125.135 70.5625 125.075C70.0281 125.075 68.1278 122.284 69.9093 121.691C69.9093 121.691 69.3155 120.265 68.6029 119.731C67.8903 119.197 68.1278 118.781 68.1278 118.781Z" fill="#F68E75"/>
<path opacity="0.3" d="M69.9677 124.6C70.8584 122.641 69.552 118.543 69.0176 116.999C69.4926 116.94 69.9083 117.118 70.2052 117.474C70.6209 118.781 71.0366 120.028 71.0959 120.919C71.2741 122.878 71.0366 124.6 70.8584 126.679C70.324 126.56 69.8489 126.322 69.3739 125.966C69.552 125.61 69.7302 125.194 69.9677 124.6Z" fill="#E89478"/>
<path d="M102.331 132.439C102.45 135.526 102.153 138.733 101.321 141.643C100.965 142.83 100.549 143.959 99.9557 144.968C97.9961 148.472 94.6113 150.906 90.6328 151.441C88.5544 151.738 86.3573 151.856 84.3383 151.381C82.26 150.906 80.4191 149.778 78.6377 148.65C77.2125 147.7 75.9655 146.571 74.8966 145.265C72.7589 142.533 71.69 139.208 71.1556 135.823C70.7399 133.151 70.443 130.479 70.5024 127.807C70.5618 125.372 70.7399 123.294 70.3836 121.037C70.3836 120.978 70.3836 120.919 70.3243 120.859C70.2649 120.681 70.2055 120.443 70.1461 120.206C70.0867 119.968 70.0273 119.731 69.9086 119.493C69.6711 118.781 69.3148 117.949 69.0179 117.059C68.3053 115.218 67.5927 113.14 67.5333 111.239C67.4146 107.736 69.0772 104.173 71.5119 105.064C71.5119 105.064 71.5119 104.945 71.4525 104.707C71.2744 103.698 70.9775 100.551 72.462 98.9474C72.462 98.9474 72.3432 102.57 73.234 102.985C73.234 102.985 76.6187 93.7218 82.4975 95.1469C82.5569 95.1469 82.6756 95.1469 82.735 95.1469C84.8134 95.4438 87.1886 94.4937 89.3264 93.3061C89.3857 93.2467 89.6827 93.1873 89.6827 93.1873V93.128C89.6827 92.5341 91.7016 91.7622 92.6517 91.2277C92.7111 91.2277 92.7111 91.2277 92.7705 91.1684C93.1862 90.8715 93.5425 90.6933 93.8988 90.4558C93.9581 90.4558 93.9581 90.3964 94.0175 90.3964C94.9082 89.862 95.6208 89.6838 96.0365 89.862C96.274 89.9807 96.5115 90.1589 96.6897 90.2776C96.7491 90.337 96.8085 90.3964 96.9272 90.4558C97.8773 91.2277 98.5305 92.4154 99.5994 93.8999C99.7182 94.0781 99.8369 94.2562 100.015 94.4937C100.312 94.9094 100.668 95.3251 101.025 95.7407C103.103 98.1754 102.747 101.62 101.5 103.401C100.787 104.41 99.3025 105.301 98.1148 105.657C96.2146 106.192 94.3144 105.657 92.4736 105.301C92.4142 105.301 92.4142 105.301 92.3548 105.301C92.2954 105.301 90.3358 104.886 87.8418 104.767C85.6447 104.648 82.9725 104.826 81.2505 105.182C79.6472 105.539 77.747 105.954 76.2624 106.786C76.2624 106.786 75.3123 107.38 75.3123 107.439C74.8966 107.736 74.481 108.092 74.1841 108.508C74.1247 108.567 74.0653 108.567 74.0653 108.627C73.0558 109.933 72.6995 111.596 72.5808 113.555C72.4026 115.515 72.462 117.831 72.2838 120.443C72.2838 120.443 73.3527 124.481 75.3123 126.56C75.7874 127.035 77.0344 127.569 78.6377 128.044C83.1507 129.291 90.9297 130.004 95.2645 127.807C95.7396 127.569 96.1552 127.332 96.5115 127.035C98.4711 125.432 100.312 123.828 100.371 123.769C100.549 123.65 101.203 125.55 101.262 125.728C101.5 126.619 101.737 127.451 101.856 128.401C102.153 129.588 102.272 130.954 102.331 132.439Z" fill="#884016"/>
<g opacity="0.7">
<path d="M74.8378 132.676C74.0065 134.161 73.1158 135.586 72.4032 137.189C72.1657 137.664 71.9875 138.199 71.8094 138.733C71.8094 138.614 71.75 138.555 71.75 138.436C71.9281 137.961 72.1063 137.546 72.2844 137.13C72.997 135.586 73.8877 134.101 74.7191 132.617C74.7785 132.498 74.8972 132.557 74.8378 132.676Z" fill="#BA9783"/>
<path d="M101.084 142.118C101.025 142.236 101.025 142.296 101.025 142.415C101.025 142.415 101.025 142.474 100.965 142.474C100.49 137.783 99.362 133.21 96.6304 129.232C96.5711 129.172 96.6898 129.054 96.7492 129.113C99.4807 132.973 100.609 137.486 101.084 142.118Z" fill="#BA9783"/>
<path d="M95.7987 149.481L95.7394 149.541C95.7394 149.541 95.68 149.541 95.68 149.6C95.3237 143.84 94.0173 138.199 91.3451 133.032C91.2857 132.973 91.4639 132.854 91.4639 132.973C94.0767 138.139 95.3831 143.781 95.7987 149.481Z" fill="#BA9783"/>
<path d="M90.2757 144.849C89.6819 147.047 89.2662 149.362 89.2662 151.678H89.2068H89.1475C89.1475 149.362 89.5631 147.047 90.1569 144.79C90.1569 144.731 90.3351 144.79 90.2757 144.849Z" fill="#BA9783"/>
<path d="M84.4569 136.12C83.5662 138.971 82.6755 141.94 82.2598 144.909C81.9629 146.809 81.9035 148.65 81.9629 150.55C81.9035 150.55 81.8441 150.491 81.7848 150.491C81.666 148.65 81.7848 146.75 82.0817 144.909C82.4973 141.88 83.3881 138.971 84.2788 136.061C84.3382 136.001 84.4569 136.061 84.4569 136.12Z" fill="#BA9783"/>
<path d="M79.4093 143.009C79.053 144.909 78.7561 146.75 78.6967 148.709C78.6373 148.65 78.5779 148.65 78.5186 148.59C78.5779 146.69 78.8748 144.849 79.2311 142.949C79.2311 142.83 79.4093 142.89 79.4093 143.009Z" fill="#BA9783"/>
<path d="M79.5873 131.31C78.1028 133.745 76.6776 136.179 75.6681 138.792C74.9556 140.574 74.4805 142.415 74.3617 144.315C74.3617 144.315 74.3617 144.255 74.3024 144.255C74.243 144.196 74.243 144.137 74.1836 144.137C74.3024 142.296 74.8368 140.455 75.49 138.792C76.5589 136.12 77.984 133.685 79.4092 131.251C79.5279 131.132 79.6467 131.251 79.5873 131.31Z" fill="#BA9783"/>
<path d="M73.3526 130.419C72.5213 131.429 71.6305 132.438 70.918 133.507C70.918 133.448 70.918 133.329 70.918 133.27C71.6305 132.201 72.4619 131.251 73.2932 130.301C73.3526 130.241 73.412 130.36 73.3526 130.419Z" fill="#BA9783"/>
</g>
<path opacity="0.3" d="M101.507 133.503V133.681C101.507 133.741 101.685 133.8 101.685 133.859C101.685 134.156 101.744 134.453 101.744 134.75C101.744 134.81 101.804 134.869 101.804 134.928C101.804 134.988 101.804 135.047 101.804 135.106C101.804 135.166 101.804 135.225 101.804 135.344C101.804 135.641 101.685 135.938 101.625 136.235C101.625 136.294 101.507 136.353 101.507 136.472C101.507 136.532 101.625 136.591 101.625 136.65L101.685 136.71V136.769C101.625 137.244 101.625 137.719 101.507 138.254C101.507 138.432 101.447 138.551 101.447 138.729C101.447 138.788 101.447 138.907 101.388 138.966V139.026C101.388 139.144 101.329 139.323 101.329 139.441C101.329 139.501 100.972 139.619 100.913 139.679C100.913 139.738 100.497 139.857 100.497 139.916C100.497 139.976 100.794 140.035 100.794 140.095C100.735 140.273 100.913 140.391 100.853 140.57C100.794 140.748 100.853 140.866 100.853 141.045C100.853 141.163 100.853 141.282 100.794 141.342C100.794 141.401 100.794 141.46 100.794 141.52C100.794 141.579 100.794 141.698 100.735 141.757C100.735 141.817 100.675 141.935 100.675 141.995C100.616 142.173 100.616 142.292 100.557 142.47C100.557 142.529 100.497 142.648 100.497 142.707C100.497 142.767 100.497 142.767 100.497 142.826C100.497 142.885 100.141 142.945 100.082 143.004C100.022 143.123 99.6065 143.301 99.6065 143.42C99.6065 143.479 99.9034 143.598 99.844 143.657C99.844 143.717 99.9628 143.836 99.9034 143.895C99.9034 143.954 99.9628 144.073 99.9034 144.132C99.844 144.251 99.844 144.37 99.7846 144.489C99.7846 144.548 99.7846 144.608 99.7252 144.667C99.7252 144.726 99.6659 144.786 99.6659 144.786C99.6659 144.845 99.6065 144.904 99.6065 144.964C99.6065 144.964 99.6065 145.023 99.5471 145.023C99.5471 145.023 99.5471 145.083 99.4877 145.083C99.4283 145.201 99.3689 145.32 99.3096 145.379C99.3096 145.439 99.2502 145.498 99.2502 145.558C99.2502 145.617 99.1908 145.676 99.1908 145.676C99.1314 145.736 99.1314 145.795 99.072 145.855C99.0127 145.973 98.9533 146.033 98.8939 146.151C98.8939 146.211 98.8345 146.27 98.8345 146.33C98.7751 146.389 98.7751 146.448 98.7157 146.448C98.6564 146.567 98.597 146.626 98.5376 146.745C98.4782 146.805 98.4782 146.864 98.4188 146.864C98.3595 146.923 98.3595 146.983 98.3001 146.983C98.2407 147.102 98.1813 147.161 98.0625 147.28C98.0032 147.339 98.0032 147.398 97.9438 147.398C97.9438 147.458 97.8844 147.458 97.8844 147.517C97.8844 147.517 97.8844 147.577 97.825 147.577C97.7656 147.636 97.7656 147.636 97.7063 147.695C97.6469 147.755 97.6469 147.755 97.5875 147.814C97.5281 147.874 97.4687 147.992 97.4094 148.052L97.35 148.111C97.2906 148.17 97.2906 148.17 97.2312 148.23L97.1718 148.289L97.1124 148.349C97.0531 148.408 96.9937 148.467 96.9343 148.527C96.8749 148.586 96.8155 148.645 96.7562 148.705C96.6968 148.705 96.6968 148.764 96.6374 148.764C96.4592 148.942 96.2811 149.061 96.0436 149.239C95.9842 149.239 95.9842 149.299 95.9248 149.299C95.8654 149.358 95.806 149.358 95.806 149.417C95.7467 149.477 95.6873 149.477 95.6279 149.536C95.5685 149.596 95.5091 149.596 95.4498 149.655C95.3904 149.655 95.3904 149.714 95.331 149.714C95.331 149.714 95.331 149.714 95.2716 149.714C95.2122 149.714 95.2122 149.774 95.1528 149.774C95.0935 149.833 95.0341 149.833 94.9747 149.892C94.8559 149.952 94.7372 150.011 94.6778 150.071C94.559 150.13 94.3809 150.189 94.2621 150.308C94.1434 150.368 93.9652 150.427 93.8465 150.486C93.7871 150.486 93.7277 150.546 93.6683 150.546H93.6089C93.5495 150.546 93.4902 150.605 93.4308 150.605C93.3714 150.605 93.3714 150.664 93.312 150.664C93.2526 150.664 93.2526 150.724 93.1933 150.724C93.1339 150.724 93.0151 150.783 92.9557 150.843C92.8964 150.902 92.7776 150.902 92.7182 150.961C92.6588 150.961 92.6588 151.021 92.5994 151.021C92.5401 151.021 92.5401 151.08 92.4807 151.08C92.4213 151.08 92.3619 151.139 92.3025 151.139C92.2432 151.139 92.1838 151.199 92.1244 151.199C92.0056 151.258 91.8869 151.258 91.8275 151.318C91.7681 151.318 91.6493 151.377 91.59 151.377C91.5306 151.377 91.4712 151.436 91.4118 151.436C91.3524 151.436 91.3524 151.436 91.293 151.496C91.2337 151.496 91.1743 151.555 91.0555 151.555C90.9961 151.555 90.9368 151.615 90.818 151.615C90.7586 151.615 90.6992 151.674 90.5805 151.674C90.4617 151.674 90.3429 151.733 90.2242 151.733H90.1648C90.1054 151.733 90.046 151.793 89.9273 151.793C89.8679 151.793 89.8085 151.793 89.6898 151.852C89.6304 151.852 89.571 151.852 89.5116 151.911C89.5116 151.911 89.5116 151.911 89.4522 151.911C89.3928 151.911 89.3335 151.911 89.3335 151.911C89.2741 151.911 89.2147 151.911 89.1553 151.971C89.0959 151.971 89.0959 151.971 89.0366 151.971C88.9772 151.971 88.9772 151.971 88.9178 151.971C88.8584 151.971 88.799 151.971 88.7396 151.971C88.6803 151.971 88.6803 151.971 88.6209 151.971C88.5615 151.971 88.5615 151.971 88.5021 151.971C88.4427 151.971 88.3833 151.971 88.324 151.971C88.2646 151.971 88.2052 151.971 88.1458 151.971C88.0864 151.971 88.0271 151.971 87.9677 151.971C87.9083 151.971 87.8489 151.971 87.7301 151.971C87.6708 151.971 87.6114 151.971 87.6114 151.971C87.552 151.971 87.552 152.387 87.4926 152.387C87.2551 152.387 87.0176 152.802 86.78 152.802C86.7207 152.802 86.6613 152.802 86.6613 152.802C86.5425 152.802 86.4238 152.802 86.305 152.802C86.2456 152.802 86.1862 152.802 86.1269 152.802C86.1269 152.802 86.1269 152.802 86.0675 152.802C86.0081 152.802 85.9487 152.387 85.8893 152.387C85.8299 152.387 85.7706 152.149 85.6518 152.149C85.5924 152.149 85.533 152.03 85.4737 152.03C85.4143 152.03 85.3549 151.971 85.2955 151.971C85.2361 151.971 85.1767 151.911 85.1174 151.911C85.058 151.911 84.9986 151.911 84.9392 151.852C84.8798 151.852 84.8204 151.852 84.7611 151.852C84.7017 151.852 84.6423 151.436 84.6423 151.436C84.4048 151.377 84.1673 150.902 83.9891 150.902L83.8703 151.258C83.811 151.258 83.7516 151.436 83.6922 151.377C83.5734 151.377 83.5141 151.436 83.3953 151.377C83.0984 151.318 82.7421 151.258 82.4452 151.139C82.3858 151.139 82.3264 151.139 82.2671 151.139C82.0889 151.08 81.8514 151.021 81.6732 150.902C81.6139 150.902 81.5545 150.843 81.4951 150.843C81.4357 150.843 81.3763 151.377 81.3763 151.318C81.3169 151.318 81.2576 151.793 81.1982 151.793C81.0794 151.793 81.02 151.139 80.9013 151.08C80.8419 151.08 80.7825 150.724 80.7825 150.724C80.4856 150.605 80.2481 150.308 79.9512 150.13C79.8918 150.13 79.8324 150.011 79.8324 149.952C79.773 149.892 79.7136 149.833 79.6542 149.833C79.4761 149.714 79.298 149.596 79.1198 149.477C79.0604 149.417 79.0011 149.358 78.9417 149.358C78.8823 149.299 78.8229 149.299 78.8229 149.299C78.7041 149.18 78.526 149.121 78.4072 149.002C78.3479 148.942 78.2291 148.883 78.1697 148.824C78.1103 148.764 78.051 148.764 77.9916 148.705C77.9916 148.705 77.9916 148.705 77.9322 148.705C77.8728 148.645 77.754 148.586 77.6947 148.527C77.6353 148.467 77.5165 148.408 77.4571 148.349C77.2196 148.17 76.9821 147.992 76.8039 147.814C76.7446 147.755 76.6852 147.695 76.6258 147.695C76.5664 147.636 76.507 147.577 76.3883 147.517C76.3289 147.458 76.2695 147.398 76.2101 147.339C76.032 147.161 75.7945 146.983 75.6163 146.805C75.5569 146.745 75.4382 146.626 75.3788 146.567C75.3194 146.448 75.2006 146.389 75.1413 146.27C74.9631 146.092 74.8443 145.914 74.6662 145.736C74.6068 145.617 74.4881 145.558 74.4287 145.439C74.4287 145.379 74.3693 145.379 74.3099 145.32C74.2505 145.261 74.2505 145.261 74.1912 145.201C74.1318 145.142 74.0724 145.023 74.013 144.964C73.9536 144.904 73.9536 144.845 73.8942 144.845C73.8349 144.786 73.7755 144.667 73.7161 144.608L73.6567 144.548L73.5973 144.489C73.538 144.429 73.4786 144.311 73.4786 144.251C73.4192 144.192 73.4192 144.132 73.3598 144.132C73.241 143.954 73.1223 143.717 73.0035 143.479C72.9441 143.361 72.8848 143.242 72.766 143.123C72.7066 143.004 72.6472 142.826 72.5285 142.707C72.5285 142.648 72.4691 142.589 72.4691 142.589C72.4097 142.41 72.2909 142.232 72.2316 142.054C72.1722 141.995 72.1722 141.876 72.1128 141.817C72.0534 141.757 72.0534 141.638 71.994 141.579C71.994 141.52 71.9347 141.52 71.9347 141.46C71.7565 141.045 71.6377 140.629 71.519 140.273C71.519 140.213 71.4596 140.213 71.4596 140.154C71.4596 140.095 71.4002 139.976 71.4002 139.916C71.4002 139.857 71.3408 139.798 71.3408 139.738C71.2815 139.441 71.1627 139.204 71.1033 138.907C71.1033 138.848 71.1033 138.788 71.0439 138.788C71.0439 138.729 70.9845 138.669 70.9845 138.61C70.9845 138.491 70.9252 138.432 70.9252 138.313C70.9252 138.194 70.8658 138.135 70.8658 138.016C70.8658 137.957 70.8064 137.838 70.8064 137.779C70.747 137.6 70.747 137.422 70.6876 137.244C70.6283 137.066 70.6283 136.888 70.5689 136.71C70.5689 136.65 70.5689 136.591 70.5689 136.532C70.5689 136.413 70.5095 136.235 70.5095 136.116C70.5095 136.057 70.5095 135.997 70.4501 135.878C70.4501 135.819 70.4501 135.7 70.4501 135.641C70.4501 135.582 70.4501 135.522 70.3907 135.403C70.3907 135.344 70.3907 135.285 70.3907 135.166C70.3907 135.106 70.3907 135.047 70.3907 134.988C70.3907 134.869 70.3907 134.75 70.3313 134.631C70.3313 134.572 70.3313 134.513 70.3313 134.453C70.272 134.097 70.272 133.8 70.2126 133.444C70.2126 133.325 70.2126 133.206 70.1532 133.147C70.1532 133.087 70.1532 132.969 70.1532 132.909C70.1532 132.731 70.0938 132.553 70.0938 132.434C70.0938 132.316 70.0938 132.197 70.0938 132.078C70.0938 132.019 70.0938 131.9 70.0938 131.84C70.0938 131.781 70.0938 131.662 70.0938 131.603C70.0938 131.365 70.0344 131.128 70.0344 130.831C69.9751 129.881 69.9751 128.931 69.9751 128.099C70.0344 125.665 70.2126 123.586 69.8563 121.33C69.8563 121.271 69.8563 121.211 69.7969 121.152C69.7375 120.974 69.6781 120.736 69.6188 120.499C69.5594 120.261 69.5 120.024 69.3812 119.786C69.1437 119.073 68.7874 118.242 68.4905 117.351C67.7779 115.511 67.0654 113.432 67.006 111.532C66.8872 108.028 68.5499 104.466 70.9845 105.356C70.9845 105.356 70.9845 105.238 70.9252 105C71.8159 106.603 72.5878 108.028 71.9347 110.998C71.1033 114.976 71.1627 117.945 71.6377 121.33C72.1128 124.715 74.2505 130 75.7945 138.194C77.3384 146.389 85.2361 149.299 90.6398 147.695C95.9842 146.092 99.4283 141.342 100.26 137.007C101.091 132.791 99.5471 129.228 100.378 125.427C100.438 125.605 100.497 125.784 100.497 125.962C100.557 126.14 100.616 126.318 100.616 126.556C100.913 127.743 101.15 129.05 101.269 129.881V129.94C101.329 130.297 101.388 130.89 101.447 131.544C101.447 131.603 101.447 131.603 101.447 131.662C101.447 131.84 101.447 132.078 101.507 132.256C101.507 132.316 101.329 132.375 101.329 132.434C101.329 132.494 101.15 132.553 101.15 132.612C101.15 132.672 101.15 132.731 101.15 132.791C101.15 132.85 101.15 132.909 101.15 132.909C101.15 132.969 101.15 132.969 101.15 132.969V133.087C101.507 133.266 101.507 133.384 101.507 133.503Z" fill="#5A2709"/>
<path opacity="0.3" d="M102.271 101.798C101.796 103.045 101.202 103.995 99.3616 105.064C98.1146 105.776 96.5707 105.836 95.1455 105.717C93.7204 105.539 92.3546 105.182 90.9294 104.945C89.5043 104.707 88.0197 104.589 86.5945 104.589C84.2787 104.589 82.0816 104.826 79.825 105.361C79.825 105.361 79.825 105.361 79.7657 105.361C78.3405 105.717 77.2123 106.132 76.3215 106.667C76.2622 106.726 76.2028 106.726 76.1434 106.786C76.0246 106.845 75.9059 106.904 75.7871 107.023C75.8465 106.073 76.5591 104.589 78.578 102.688C81.7253 99.7193 91.5826 101.501 96.3331 103.045C97.9364 103.579 99.8366 103.876 101.262 102.748C101.618 102.51 102.034 102.095 102.271 101.798Z" fill="#7A3912"/>
<g opacity="0.6">
<path d="M98.8275 102.154C98.2931 102.926 97.5211 103.46 96.7492 103.935C95.9178 104.41 95.0271 104.826 94.1364 105.064C93.6019 105.182 93.1269 105.242 92.5925 105.242C92.5331 105.242 92.5331 105.242 92.4737 105.242C92.2956 105.182 92.058 105.182 91.8799 105.123C92.1174 105.123 92.3549 105.123 92.5331 105.123C93.5426 105.064 94.4927 104.885 95.4428 104.47C96.3929 104.054 97.343 103.579 98.1149 102.866C98.8275 102.213 99.3026 101.382 99.7182 100.551C100.668 98.4129 100.668 95.9782 99.7776 93.9592C99.8964 94.1374 100.075 94.3155 100.193 94.4937C100.965 96.9877 100.431 99.9568 98.8275 102.154Z" fill="#AB7D62"/>
<path d="M94.5515 101.323C93.0076 103.045 90.9886 104.292 88.8508 104.945V105.064H88.9102V104.826L88.7915 104.767H88.7321C88.6133 104.767 88.4946 104.767 88.3164 104.707C88.3758 104.707 88.4352 104.707 88.4352 104.648C91.2261 103.876 94.017 102.391 95.5609 99.5412C97.0455 96.8096 97.6393 93.3061 96.8674 90.2183C96.9267 90.2776 96.9861 90.337 97.1049 90.3964C97.8768 94.0781 96.9861 98.5911 94.5515 101.323Z" fill="#AB7D62"/>
<path d="M94.315 92.1186C94.1962 93.128 93.9587 94.1969 93.6618 95.147C93.068 97.1066 92.0585 98.8881 90.4552 100.194C88.9113 101.501 87.0705 102.273 85.289 103.164C84.3389 103.639 83.3294 104.173 82.4981 104.886C82.3793 104.886 82.3199 104.886 82.2012 104.945C82.9138 104.292 83.7451 103.817 84.5764 103.342C86.2985 102.451 88.1393 101.738 89.7426 100.551C91.5241 99.2443 92.7711 97.4629 93.4243 95.3845C93.7806 94.3157 94.0181 93.1874 94.1369 92.1186C94.1963 91.5247 94.1369 91.0497 94.0181 90.4559C94.0775 90.4559 94.1369 90.3965 94.1963 90.3965C94.1963 90.4559 94.2556 90.5746 94.2556 90.634C94.3744 91.1684 94.3744 91.5841 94.315 92.1186Z" fill="#AB7D62"/>
<path d="M92.8302 91.0497C92.8302 91.2278 92.8302 91.406 92.7708 91.5841C92.4145 93.4249 91.5831 95.0876 90.4549 96.5722C89.8017 97.4035 89.1485 98.1755 88.3765 98.8287C87.5452 99.5412 86.6545 100.076 85.645 100.551C83.5666 101.56 81.4289 102.688 79.4693 103.876C78.2817 104.589 76.7971 104.767 76.4408 107.439V107.083C76.3815 107.142 76.3221 107.558 76.2627 107.617V107.914C76.3815 106.964 76.619 106.37 76.9753 105.954C78.1629 104.529 79.885 103.342 81.4883 102.629C83.5666 101.679 85.9419 100.788 87.7827 99.3631C89.386 98.1161 90.8112 96.2159 91.7019 94.3751C92.177 93.4249 92.652 92.5342 92.652 91.1091C92.652 91.0497 92.7708 91.1091 92.8302 91.0497Z" fill="#AB7D62"/>
<path d="M89.6231 92.95C89.2074 94.0782 88.4949 95.1471 87.7229 95.9784C86.7134 97.1067 85.4664 97.9974 84.1006 98.71C82.6755 99.4225 81.1909 100.016 79.7658 100.788C78.4 101.501 77.0342 102.392 76.2623 103.698C75.7872 104.411 75.134 105.361 75.134 106.192C75.134 106.548 74.8965 106.905 74.8965 107.202C74.8965 107.261 74.8965 107.261 74.8965 107.32C74.8965 106.786 75.0152 106.192 75.134 105.598C75.3715 104.529 75.9654 103.579 76.6779 102.807C78.8157 100.551 82.0223 99.7788 84.6351 98.2943C86.1196 97.463 87.426 96.2159 88.3761 94.7908C88.7324 94.3157 89.0887 93.0093 89.3262 93.0093C89.5043 92.95 89.5637 93.0093 89.6231 92.95Z" fill="#AB7D62"/>
<path d="M82.9128 95.2063C82.4378 95.5032 82.0221 95.8001 81.547 96.097C79.8843 97.2253 78.1029 98.2941 76.6184 99.6599C75.6089 100.61 74.7775 101.679 74.1243 102.926C73.5305 104.054 73.0555 105.42 73.3524 106.726C73.4711 107.38 73.8274 107.914 74.3025 108.33C74.2431 108.389 74.2431 108.389 74.1837 108.448C73.8868 108.151 73.5899 107.855 73.4118 107.498C72.9367 106.548 72.9961 105.361 73.3524 104.351C73.768 103.045 74.4806 101.857 75.312 100.788C76.3808 99.4818 77.6872 98.591 79.053 97.6409C80.2406 96.8096 81.4877 95.5626 82.6753 95.2063C82.7347 95.2657 82.7941 95.2063 82.9128 95.2063Z" fill="#AB7D62"/>
</g>
<path opacity="0.3" d="M95.3832 127.629C94.3737 130.182 90.9295 131.548 85.4664 131.37C79.7658 131.192 77.8062 129.47 77.8062 129.47C77.7468 129.291 78.2813 128.698 79.3501 127.985C83.9225 129.291 91.1077 129.826 95.3832 127.629Z" fill="#884016"/>
<path d="M84.6954 130.36C86.655 130.598 89.2084 130.776 92.2369 129.41C92.2369 129.41 93.5433 129.648 90.396 130.657C87.3082 131.667 83.3296 131.251 82.8546 130.598C82.5577 130.004 83.8641 130.242 84.6954 130.36Z" fill="#CECECE"/>
<path d="M94.6105 128.46C94.6105 128.46 94.1948 128.876 93.126 129.351C93.0666 129.351 93.0072 129.41 92.9478 129.41C92.8885 129.41 92.8291 129.47 92.7697 129.47C92.4728 129.588 92.1759 129.707 91.8196 129.766C91.2852 129.885 90.6913 130.063 90.0381 130.123C89.9788 130.123 89.9194 130.123 89.86 130.123C89.0286 130.241 88.0192 130.301 86.8909 130.301H86.8315C86.7722 130.301 86.7722 130.301 86.7128 130.301C86.119 130.301 85.5251 130.241 84.9907 130.241C84.9313 130.241 84.8719 130.241 84.8126 130.241C83.3874 130.123 82.2592 129.885 81.3684 129.648C81.309 129.648 81.2497 129.648 81.2497 129.588H81.1903C79.6464 129.113 78.9932 128.579 78.9932 128.579C79.1119 128.519 79.2307 128.46 79.4088 128.341C79.4088 128.341 79.4682 128.341 79.4682 128.282C80.4183 127.688 82.3185 126.56 84.0406 125.966C84.8126 125.728 89.5631 124.185 92.1165 126.085C92.9478 126.679 93.7792 127.629 94.3136 128.163C94.4324 128.282 94.5511 128.401 94.6105 128.46Z" fill="#884016"/>
<g opacity="0.5">
<path d="M85.5251 126.203C84.6343 126.797 83.803 127.391 83.031 128.104C82.6747 128.46 82.2591 128.816 81.9028 129.232C81.784 129.351 81.6652 129.469 81.5465 129.648C81.4871 129.648 81.4277 129.648 81.4277 129.588C81.4871 129.529 81.5465 129.469 81.5465 129.41C81.9028 128.994 82.3184 128.579 82.7341 128.163C83.5655 127.391 84.5156 126.678 85.4657 126.025C85.5251 125.966 85.5844 126.144 85.5251 126.203Z" fill="#AB7D62"/>
<path d="M93.0077 129.41C92.9484 129.41 92.889 129.469 92.8296 129.469C92.117 128.104 91.2263 126.916 90.2168 125.788C90.2762 125.788 90.3356 125.728 90.3356 125.728C91.3451 126.857 92.2952 128.104 93.0077 129.41Z" fill="#AB7D62"/>
<path d="M90.0983 130.182C90.0389 130.182 89.9795 130.182 89.9201 130.182C89.5638 128.994 89.1481 127.866 88.6731 126.738C88.6137 126.619 88.7919 126.619 88.8512 126.679C89.3263 127.866 89.742 128.994 90.0983 130.182Z" fill="#AB7D62"/>
<path d="M87.5449 126.144C87.1292 127.51 86.8917 128.876 87.0105 130.36C87.0105 130.36 87.0105 130.36 86.9511 130.36C86.8917 130.36 86.8917 130.36 86.8323 130.36C86.773 128.935 87.0105 127.51 87.3668 126.144C87.4261 126.144 87.4855 126.144 87.5449 126.144Z" fill="#AB7D62"/>
<path d="M86.1787 128.044C85.8224 128.697 85.3473 129.469 85.1098 130.301C85.0504 130.301 84.991 130.301 84.9316 130.301C85.1098 129.469 85.6442 128.697 86.0005 127.985C86.1193 127.866 86.238 127.926 86.1787 128.044Z" fill="#AB7D62"/>
</g>
<path opacity="0.2" d="M97.3429 116.109C97.2835 116.228 94.3738 120.859 90.8109 116.703C90.8109 116.703 90.6328 114.862 91.9392 113.674C92.3548 113.258 92.9486 112.902 93.7206 112.783C94.4926 112.665 95.0864 112.783 95.5614 113.08C97.046 113.852 97.4023 116.049 97.3429 116.109Z" fill="#E89478"/>
<path opacity="0.3" d="M95.4428 113.021C94.077 112.843 92.6518 113.259 91.8799 113.615C92.2956 113.199 92.8894 112.902 93.6019 112.724C94.3739 112.605 94.9677 112.724 95.4428 113.021Z" fill="#E89478"/>
<path opacity="0.5" d="M94.6115 128.46C94.6115 128.46 94.1958 128.875 93.127 129.35C93.0676 129.35 93.0082 129.41 92.9488 129.41C92.8894 129.41 92.8301 129.469 92.7707 129.469C92.4738 129.588 92.1769 129.707 91.8206 129.766C91.2861 129.885 90.6923 130.063 90.0391 130.122C89.9797 130.122 89.9203 130.122 89.861 130.122C89.0296 130.241 88.0201 130.301 86.8919 130.301H86.8325C86.7731 130.301 86.7731 130.301 86.7137 130.301C86.1199 130.301 85.5261 130.241 84.9917 130.241C84.9323 130.241 84.8729 130.241 84.8135 130.241C83.3884 130.122 82.2601 129.885 81.3694 129.647C81.31 129.647 81.2506 129.647 81.2506 129.588H81.1913C79.6473 129.113 78.9941 128.579 78.9941 128.579C79.1129 128.519 79.2317 128.46 79.4098 128.341C80.3599 128.935 81.31 129.291 82.9133 129.647C84.6354 130.063 88.4952 130.36 90.3954 129.944C92.0581 129.588 93.4832 128.875 94.3146 128.163C94.4333 128.282 94.5521 128.4 94.6115 128.46Z" fill="url(#paint36_linear_152_9588)"/>
<path opacity="0.3" d="M81.0723 135.289C81.1331 135.35 81.1331 135.35 81.1331 135.35C81.1331 135.35 81.0723 135.35 81.0723 135.289Z" fill="#E89478"/>
<path d="M93.8398 111.299C92.474 111.477 90.6925 112.071 90.8113 113.08C90.9301 114.03 91.9396 114.387 92.5334 113.971C93.1272 113.555 95.0274 112.308 96.215 112.368C97.4027 112.486 97.9965 113.318 98.3528 113.14C98.5903 112.902 98.3528 110.586 93.8398 111.299Z" fill="#7A3912"/>
<path d="M76.0256 111.417C75.7881 111.121 77.0351 109.933 77.9258 109.636C78.8166 109.339 82.2607 109.339 83.2108 110.052C84.2203 110.705 83.5671 112.486 82.617 112.308C81.845 112.13 81.2512 111.061 79.6479 110.883C77.8071 110.705 77.4508 111.002 76.9163 111.299C76.5007 111.477 76.2038 111.655 76.0256 111.417Z" fill="#7A3912"/>
<path d="M97.1648 116.108C97.1648 116.108 96.3334 117.296 94.4926 117.771C94.4926 117.83 94.1957 117.89 93.8988 117.949C93.1862 118.068 92.6518 117.949 92.1767 117.712C91.2266 117.355 90.6328 116.643 90.6328 116.643C93.0675 114.149 97.1648 116.108 97.1648 116.108Z" fill="white"/>
<path d="M94.8486 117.177C94.8486 117.415 94.4923 117.593 94.4923 117.831C94.4923 117.89 94.1954 117.949 93.8985 118.009C93.1859 118.128 92.6514 118.009 92.1764 117.771C92.0576 117.593 92.0576 117.415 92.0576 117.177C92.0576 116.465 92.6514 115.871 93.4234 115.871C94.2547 115.871 94.8486 116.465 94.8486 117.177Z" fill="#193D4C"/>
<path d="M90.8115 116.702C90.8115 116.702 91.1678 114.861 93.8994 114.743C96.6309 114.624 97.3435 116.108 97.3435 116.108C97.3435 116.108 95.7996 115.574 93.6619 115.752C91.5241 115.871 90.8115 116.702 90.8115 116.702Z" fill="#484848"/>
<path opacity="0.2" d="M83.5656 117.475C83.5656 117.475 80.0027 121.097 76.4992 116.703C76.321 116.524 76.618 114.565 77.9243 113.555C78.5182 113.08 79.2901 112.783 80.359 112.902C81.1309 112.962 81.7248 113.258 82.1998 113.674C83.625 115.04 83.5656 117.475 83.5656 117.475Z" fill="#E89478"/>
<path opacity="0.3" d="M82.1417 113.733C80.7759 113.318 79.1132 113.318 77.8662 113.615C78.46 113.14 79.232 112.843 80.3009 112.961C81.0728 113.021 81.6666 113.318 82.1417 113.733Z" fill="#E89478"/>
<path d="M83.4478 117.415C83.4478 117.415 82.7353 118.247 81.132 118.306C80.7757 118.306 80.4194 118.306 80.0037 118.247C79.4099 118.187 78.9348 118.009 78.5192 117.89C77.1534 117.415 76.5596 116.703 76.5596 116.703C76.5596 116.703 77.9253 115.396 80.4194 115.693C82.7946 115.99 83.4478 117.415 83.4478 117.415Z" fill="white"/>
<path d="M81.429 117.534C81.429 117.831 81.3103 118.128 81.1321 118.306C80.7758 118.306 80.4196 118.306 80.0039 118.246C79.4101 118.187 78.935 118.009 78.5193 117.89C78.46 117.771 78.46 117.653 78.46 117.534C78.46 116.762 79.1132 116.168 79.9445 116.168C80.7165 116.168 81.429 116.762 81.429 117.534Z" fill="#193D4C"/>
<path d="M83.4475 117.415C83.4475 117.415 81.4879 115.099 76.4404 116.703C76.4404 116.703 77.3905 115.099 80.3596 115.337C83.4475 115.574 83.4475 117.415 83.4475 117.415Z" fill="#484848"/>
<path d="M88.0802 125.55C88.0208 125.55 87.9614 125.55 87.902 125.55C87.0707 125.491 86.3581 125.075 86.0018 124.422C85.9424 124.303 86.0018 124.185 86.1206 124.125C86.2393 124.066 86.3581 124.125 86.4175 124.244C86.655 124.778 87.1894 125.075 87.902 125.135C88.7334 125.194 89.5053 124.838 89.8616 124.244C90.4554 123.353 88.7928 118.128 87.6051 114.98C87.5457 114.862 87.6051 114.743 87.7239 114.684C87.8427 114.624 87.9614 114.684 88.0208 114.802C88.3177 115.634 91.168 123.056 90.2773 124.482C89.8022 125.135 88.9709 125.55 88.0802 125.55Z" fill="#DB835D"/>
<path d="M45.1455 207.615C45.8581 207.734 65.0383 209.694 65.0383 209.694L64.8008 213.316L45.1455 211.416V207.615Z" fill="#091B1E"/>
<path d="M65.0974 209.694C64.7411 209.635 64.0285 213.376 64.8599 213.316C65.6912 213.257 65.6912 209.753 65.0974 209.694Z" fill="#212F30"/>
<path d="M60.882 209.338L59.2194 209.159C59.2194 209.159 59.2194 211.772 58.8631 212.604C58.6849 213.019 58.1505 213.019 57.7348 212.841C57.3192 212.722 56.9035 212.485 56.8441 212.425C56.8441 212.485 56.9629 212.722 56.1315 212.9C55.1814 213.138 54.2907 212.188 54.2907 212.188C54.2907 212.188 54.2907 212.188 53.3406 212.485C52.3905 212.782 51.4404 211.95 51.4404 211.95C50.0746 212.307 49.362 210.109 49.362 208.091C49.3026 206.072 50.2527 202.924 51.0247 202.687C51.4998 202.509 53.5781 202.093 56.0721 202.331C56.666 202.39 57.2598 202.509 57.913 202.687C61.179 203.459 60.882 209.338 60.882 209.338Z" fill="url(#paint37_linear_152_9588)"/>
<path opacity="0.3" d="M60.8822 209.338L59.2195 209.159C59.2195 209.159 59.2195 211.772 58.8632 212.604C58.6851 213.019 58.1506 213.019 57.735 212.841C57.7943 212.722 57.8537 212.604 57.9131 212.425C58.8038 210.585 57.9131 204.943 56.0723 202.271C56.6661 202.33 57.2599 202.449 57.9131 202.627C61.1791 203.459 60.8822 209.338 60.8822 209.338Z" fill="#E77653"/>
</g>
<path d="M144 304C144 307.29 113.607 310 76 310C38.4828 310 8 307.29 8 304C8 300.71 38.3926 298 76 298C113.607 298 144 300.613 144 304Z" fill="#1B1B1B" fill-opacity="0.2"/>
</g>
<defs>
<linearGradient id="paint0_linear_152_9588" x1="82.5" y1="335" x2="82.5" y2="-0.00012207" gradientUnits="userSpaceOnUse">
<stop stop-color="#92E1F6"/>
<stop offset="1" stop-color="#55C7EC"/>
</linearGradient>
<linearGradient id="paint1_linear_152_9588" x1="67.4848" y1="433.406" x2="67.4848" y2="246.53" gradientUnits="userSpaceOnUse">
<stop offset="0.00537636" stop-color="#1B70C2"/>
<stop offset="0.3853" stop-color="#1B6DC0"/>
<stop offset="0.6497" stop-color="#1D64BB"/>
<stop offset="0.8783" stop-color="#1F55B2"/>
<stop offset="1" stop-color="#2149AB"/>
</linearGradient>
<linearGradient id="paint2_linear_152_9588" x1="54.0786" y1="236.034" x2="40.2459" y2="302.672" gradientUnits="userSpaceOnUse">
<stop offset="0.0002439" stop-color="#5B5D60"/>
<stop offset="1" stop-color="#3A3E44"/>
</linearGradient>
<linearGradient id="paint3_linear_152_9588" x1="48.815" y1="207.872" x2="39.8002" y2="255.663" gradientUnits="userSpaceOnUse">
<stop stop-color="#BB7A5C"/>
<stop offset="0.9949" stop-color="#93989A"/>
</linearGradient>
<linearGradient id="paint4_linear_152_9588" x1="64.6081" y1="210.882" x2="55.5945" y2="258.666" gradientUnits="userSpaceOnUse">
<stop stop-color="#BB7A5C"/>
<stop offset="0.9949" stop-color="#93989A"/>
</linearGradient>
<linearGradient id="paint5_linear_152_9588" x1="78.8152" y1="172.504" x2="101.149" y2="172.504" gradientUnits="userSpaceOnUse">
<stop offset="1.953e-05" stop-color="#D8EFF8"/>
<stop offset="1" stop-color="#C4EBFF"/>
</linearGradient>
<linearGradient id="paint6_linear_152_9588" x1="90.2829" y1="212.156" x2="89.4684" y2="273.733" gradientUnits="userSpaceOnUse">
<stop stop-color="#025D72"/>
<stop offset="1" stop-color="#004557"/>
</linearGradient>
<linearGradient id="paint7_linear_152_9588" x1="50.8931" y1="200.573" x2="59.3106" y2="200.573" gradientUnits="userSpaceOnUse">
<stop offset="1.953e-05" stop-color="#D8EFF8"/>
<stop offset="1" stop-color="#C4EBFF"/>
</linearGradient>
<linearGradient id="paint8_linear_152_9588" x1="22.0484" y1="175.536" x2="131.218" y2="175.536" gradientUnits="userSpaceOnUse">
<stop stop-color="#025D72"/>
<stop offset="1" stop-color="#005967"/>
</linearGradient>
<linearGradient id="paint9_linear_152_9588" x1="50.4658" y1="175.665" x2="85.027" y2="175.665" gradientUnits="userSpaceOnUse">
<stop stop-color="#025D72"/>
<stop offset="1" stop-color="#005967"/>
</linearGradient>
<linearGradient id="paint10_linear_152_9588" x1="114.204" y1="167.081" x2="114.384" y2="174.291" gradientUnits="userSpaceOnUse">
<stop stop-color="#0B4950"/>
<stop offset="0.99" stop-color="#005260"/>
</linearGradient>
<linearGradient id="paint11_linear_152_9588" x1="78.3822" y1="141.895" x2="79.1152" y2="171.299" gradientUnits="userSpaceOnUse">
<stop stop-color="#0B4950"/>
<stop offset="0.99" stop-color="#005260"/>
</linearGradient>
<linearGradient id="paint12_linear_152_9588" x1="97.2608" y1="138.337" x2="97.4237" y2="163.425" gradientUnits="userSpaceOnUse">
<stop stop-color="#0B4950"/>
<stop offset="0.99" stop-color="#005260"/>
</linearGradient>
<linearGradient id="paint13_linear_152_9588" x1="99.7222" y1="136.662" x2="99.8804" y2="143.009" gradientUnits="userSpaceOnUse">
<stop stop-color="#025D72"/>
<stop offset="1" stop-color="#005967"/>
</linearGradient>
<linearGradient id="paint14_linear_152_9588" x1="74.4497" y1="139.03" x2="74.5834" y2="144.39" gradientUnits="userSpaceOnUse">
<stop stop-color="#025D72"/>
<stop offset="1" stop-color="#005967"/>
</linearGradient>
<linearGradient id="paint15_linear_152_9588" x1="101.743" y1="193.418" x2="86.1523" y2="173.294" gradientUnits="userSpaceOnUse">
<stop stop-color="#025D72"/>
<stop offset="1" stop-color="#005967"/>
</linearGradient>
<linearGradient id="paint16_linear_152_9588" x1="89.3938" y1="190.476" x2="89.1494" y2="135.249" gradientUnits="userSpaceOnUse">
<stop offset="0.0152439" stop-color="#3A3E44"/>
<stop offset="1" stop-color="#252626"/>
</linearGradient>
<linearGradient id="paint17_linear_152_9588" x1="64.0496" y1="178.413" x2="64.7948" y2="208.305" gradientUnits="userSpaceOnUse">
<stop stop-color="#025D72"/>
<stop offset="1" stop-color="#005967"/>
</linearGradient>
<linearGradient id="paint18_linear_152_9588" x1="114.164" y1="179.496" x2="114.996" y2="212.884" gradientUnits="userSpaceOnUse">
<stop stop-color="#025D72"/>
<stop offset="1" stop-color="#005967"/>
</linearGradient>
<linearGradient id="paint19_linear_152_9588" x1="86.504" y1="141.621" x2="86.5915" y2="145.134" gradientUnits="userSpaceOnUse">
<stop stop-color="#025D72"/>
<stop offset="1" stop-color="#005967"/>
</linearGradient>
<linearGradient id="paint20_linear_152_9588" x1="88.1324" y1="166.568" x2="88.0096" y2="138.802" gradientUnits="userSpaceOnUse">
<stop offset="0.0152439" stop-color="#3A3E44"/>
<stop offset="1" stop-color="#252626"/>
</linearGradient>
<linearGradient id="paint21_linear_152_9588" x1="55.2417" y1="200.844" x2="59.3104" y2="200.844" gradientUnits="userSpaceOnUse">
<stop offset="1.953e-05" stop-color="#D8EFF8"/>
<stop offset="1" stop-color="#C4EBFF"/>
</linearGradient>
<linearGradient id="paint22_linear_152_9588" x1="106.246" y1="173.561" x2="100.194" y2="165.749" gradientUnits="userSpaceOnUse">
<stop stop-color="#F7CEAA"/>
<stop offset="1" stop-color="#F7B091"/>
</linearGradient>
<linearGradient id="paint23_linear_152_9588" x1="106.531" y1="170.736" x2="111.53" y2="170.736" gradientUnits="userSpaceOnUse">
<stop offset="1.953e-05" stop-color="#D8EFF8"/>
<stop offset="1" stop-color="#C4EBFF"/>
</linearGradient>
<linearGradient id="paint24_linear_152_9588" x1="23.1851" y1="271.456" x2="65.9856" y2="271.456" gradientUnits="userSpaceOnUse">
<stop offset="0.0002439" stop-color="#5B5D60"/>
<stop offset="1" stop-color="#3A3E44"/>
</linearGradient>
<linearGradient id="paint25_linear_152_9588" x1="23.1378" y1="267.567" x2="34.9751" y2="267.567" gradientUnits="userSpaceOnUse">
<stop offset="0.0002439" stop-color="#5B5D60"/>
<stop offset="1" stop-color="#3A3E44"/>
</linearGradient>
<linearGradient id="paint26_linear_152_9588" x1="45.0183" y1="213.78" x2="46.9125" y2="213.78" gradientUnits="userSpaceOnUse">
<stop offset="0.0002439" stop-color="#5B5D60"/>
<stop offset="1" stop-color="#3A3E44"/>
</linearGradient>
<linearGradient id="paint27_linear_152_9588" x1="61.4889" y1="216.753" x2="64.0898" y2="216.753" gradientUnits="userSpaceOnUse">
<stop offset="0.0002439" stop-color="#5B5D60"/>
<stop offset="1" stop-color="#3A3E44"/>
</linearGradient>
<linearGradient id="paint28_linear_152_9588" x1="73.9543" y1="255.735" x2="73.5443" y2="286.738" gradientUnits="userSpaceOnUse">
<stop stop-color="#025D72"/>
<stop offset="1" stop-color="#005967"/>
</linearGradient>
<linearGradient id="paint29_linear_152_9588" x1="76.3691" y1="207.488" x2="76.2049" y2="219.904" gradientUnits="userSpaceOnUse">
<stop stop-color="#025D72"/>
<stop offset="1" stop-color="#005967"/>
</linearGradient>
<linearGradient id="paint30_linear_152_9588" x1="101.882" y1="208.697" x2="101.814" y2="213.84" gradientUnits="userSpaceOnUse">
<stop stop-color="#025D72"/>
<stop offset="1" stop-color="#005967"/>
</linearGradient>
<linearGradient id="paint31_linear_152_9588" x1="90.1734" y1="223.582" x2="89.465" y2="277.139" gradientUnits="userSpaceOnUse">
<stop stop-color="#025D72"/>
<stop offset="1" stop-color="#005967"/>
</linearGradient>
<linearGradient id="paint32_linear_152_9588" x1="106.197" y1="259.044" x2="106.17" y2="261.077" gradientUnits="userSpaceOnUse">
<stop stop-color="#025D72"/>
<stop offset="1" stop-color="#005967"/>
</linearGradient>
<linearGradient id="paint33_linear_152_9588" x1="104.453" y1="115.536" x2="101.684" y2="120.515" gradientUnits="userSpaceOnUse">
<stop stop-color="#F7CEAA"/>
<stop offset="1" stop-color="#F7B091"/>
</linearGradient>
<linearGradient id="paint34_linear_152_9588" x1="88.817" y1="112.593" x2="81.9785" y2="130.297" gradientUnits="userSpaceOnUse">
<stop stop-color="#F7CEAA"/>
<stop offset="1" stop-color="#F7B091"/>
</linearGradient>
<linearGradient id="paint35_linear_152_9588" x1="76.6221" y1="108.693" x2="68.6294" y2="123.25" gradientUnits="userSpaceOnUse">
<stop stop-color="#F7CEAA"/>
<stop offset="1" stop-color="#F7B091"/>
</linearGradient>
<linearGradient id="paint36_linear_152_9588" x1="79.0684" y1="129.269" x2="94.5946" y2="129.269" gradientUnits="userSpaceOnUse">
<stop stop-color="#FA7319"/>
<stop offset="1" stop-color="#E25319"/>
</linearGradient>
<linearGradient id="paint37_linear_152_9588" x1="54.3811" y1="214.679" x2="55.7965" y2="202.465" gradientUnits="userSpaceOnUse">
<stop stop-color="#F7CEAA"/>
<stop offset="1" stop-color="#F7B091"/>
</linearGradient>
</defs>
</svg>
