<svg width="66" height="42" viewBox="0 0 66 42" fill="none" xmlns="http://www.w3.org/2000/svg">
<g clip-path="url(#clip0_259_139)">
<path d="M62.6998 9.70744L62.4248 9.44329C62.4248 9.44329 44.2061 5.6131 38.4998 25.9527L33.5498 3.83008H32.5186L27.4998 25.9527C21.7936 5.67913 3.5748 9.44329 3.5748 9.44329L3.2998 9.70744C21.0373 17.3678 16.8436 37.6414 16.8436 37.6414H32.9311H33.1373H49.2248C49.1561 37.6414 44.9623 17.3678 62.6998 9.70744Z" fill="#FFCC00"/>
<path d="M15.0557 36.2546L16.6369 41.9999H49.3619L50.9432 36.2546H15.0557Z" fill="#FFAE00"/>
<path d="M35.4754 2.37736C35.4754 3.69811 34.3754 4.75472 33.0004 4.75472C31.6254 4.75472 30.5254 3.69811 30.5254 2.37736C30.5254 1.0566 31.6254 0 33.0004 0C34.3754 0 35.4754 1.0566 35.4754 2.37736Z" fill="#FC1043"/>
<path d="M4.88125 9.17936C4.88125 10.5001 3.78125 11.5567 2.40625 11.5567C1.03125 11.5567 0 10.5001 0 9.17936C0 7.85861 1.1 6.802 2.475 6.802C3.85 6.802 4.88125 7.85861 4.88125 9.17936Z" fill="#002A94"/>
<path d="M65.9998 9.17936C65.9998 10.5001 64.8998 11.5567 63.5248 11.5567C62.1498 11.5567 61.0498 10.5001 61.0498 9.17936C61.0498 7.85861 62.1498 6.802 63.5248 6.802C64.8998 6.802 65.9998 7.85861 65.9998 9.17936Z" fill="#002A94"/>
<path d="M19.3186 37.7075L18.0811 39.2924L19.3186 40.8773L20.4873 39.2924L19.3186 37.7075Z" fill="#FC1043"/>
<path d="M23.8557 37.7075L22.6182 39.2924L23.8557 40.8773L25.0932 39.2924L23.8557 37.7075Z" fill="#002A94"/>
<path d="M28.4621 37.7075L27.2246 39.2924L28.4621 40.8773L29.6309 39.2924L28.4621 37.7075Z" fill="#FC1043"/>
<path d="M33.0002 37.7075L31.7627 39.2924L33.0002 40.8773L34.2377 39.2924L33.0002 37.7075Z" fill="#002A94"/>
<path d="M37.5369 37.7075L36.3682 39.2924L37.5369 40.8773L38.7744 39.2924L37.5369 37.7075Z" fill="#FC1043"/>
<path d="M42.1437 37.7075L40.9062 39.2924L42.1437 40.8773L43.3812 39.2924L42.1437 37.7075Z" fill="#002A94"/>
<path d="M46.6814 37.7075L45.5127 39.2924L46.6814 40.8773L47.9189 39.2924L46.6814 37.7075Z" fill="#FC1043"/>
</g>
<defs>
<clipPath id="clip0_259_139">
<rect width="66" height="42" fill="white"/>
</clipPath>
</defs>
</svg>
