<svg width="140" height="143" viewBox="0 0 140 143" fill="none" xmlns="http://www.w3.org/2000/svg">
<mask id="mask0_1051_10253" style="mask-type:alpha" maskUnits="userSpaceOnUse" x="0" y="0" width="140" height="143">
<rect width="140" height="143" rx="10" fill="#F9F9F9"/>
</mask>
<g mask="url(#mask0_1051_10253)">
<path d="M135 -41H6.43457C0.911723 -41 -3.56543 -36.5228 -3.56543 -31V164.443C-3.56543 169.966 0.911715 174.443 6.43456 174.443H135C140.523 174.443 145 169.966 145 164.443V-31C145 -36.5228 140.523 -41 135 -41Z" fill="url(#paint0_linear_1051_10253)"/>
<path opacity="0.85" d="M136.827 104.41C130.12 104.41 123.376 104.449 116.669 104.295C109.926 104.18 103.219 103.95 96.475 103.835C92.7733 103.796 89.1449 103.758 85.5165 103.489C56.7093 103.72 28.122 103.911 24.97 103.911C19.0693 103.95 13.1686 103.835 7.2679 103.835C-1.20445 103.799 -9.70865 104.53 -18.1556 104.288C-19.1604 104.259 -20 105.059 -20 106.064C-20 107.037 -19.2113 107.826 -18.2384 107.826H143.238C144.171 107.826 144.927 107.07 144.927 106.137C144.927 105.205 144.171 104.449 143.238 104.444C141.113 104.434 138.97 104.41 136.827 104.41Z" fill="#FFFEE0"/>
<path opacity="0.85" d="M132.173 98.6167C125.136 98.5783 118.062 98.5016 111.025 98.4248C101.628 98.3104 48.6493 98.7266 20.4015 98.5434C20.0484 98.5412 19.7081 98.4588 19.3625 98.3864C18.2264 98.2329 13.3885 97.8876 12.2524 97.7341C11.1528 97.5422 10.0167 97.2352 9.46693 96.6979C9.21038 96.4293 9.06378 96.1606 8.77057 95.892C7.81766 95.0477 5.54534 94.971 3.78612 95.2013C3.41961 95.2396 3.05311 95.3164 2.6866 95.278C1.88029 95.2013 1.44049 94.7024 0.817432 94.3954C-0.208778 93.8965 -1.71145 93.8965 -3.06751 93.8965C-4.24032 93.8965 -5.41314 93.9349 -6.58595 93.9349C-7.94202 93.9349 -9.59128 94.05 -10.1044 94.7024C-10.4342 95.0861 -10.251 95.6234 -10.874 95.9304C-11.4605 96.199 -12.3767 96.0839 -13.1097 95.9304C-13.8427 95.7769 -14.649 95.5466 -15.382 95.7001C-15.9928 95.8186 -16.2964 96.0978 -16.5169 96.4295C-16.7843 96.8318 -17.1429 97.1584 -17.5635 97.396C-17.6052 97.4196 -17.6465 97.4435 -17.6876 97.4678C-17.9319 97.6124 -18.2082 97.6967 -18.492 97.6908C-18.5601 97.6895 -18.6279 97.6878 -18.6956 97.686C-19.416 97.6671 -20 98.2415 -20 98.9621C-20 99.6827 -19.4158 100.267 -18.6952 100.267H143.956C144.512 100.267 144.964 99.8156 144.964 99.2591C144.964 98.6667 144.455 98.2025 143.865 98.2494C139.974 98.5586 136.058 98.6518 132.173 98.6167Z" fill="#FFFEE0"/>
<path opacity="0.85" d="M144.855 100.228C144.855 97.9621 143.397 95.9782 141.135 96.1012C140.878 96.1152 140.626 96.135 140.383 96.1598C140.017 96.1981 139.65 96.2365 139.284 96.1981C138.478 96.1214 138.038 95.7376 137.415 95.469C136.388 95.0469 134.886 95.0469 133.53 95.0469C132.357 95.0469 131.184 95.0853 130.011 95.0853C128.655 95.0853 127.006 95.2004 126.493 95.7376C126.163 96.0446 126.346 96.5051 125.723 96.7354C125.137 96.9657 124.221 96.8505 123.487 96.7354C122.754 96.5819 121.948 96.4284 121.215 96.5435C120.674 96.6275 120.374 96.8148 120.159 97.0426C119.822 97.4 119.446 97.7124 119.001 97.9218C118.963 97.9399 118.925 97.9582 118.887 97.9769C118.657 98.0904 118.406 98.1561 118.149 98.1514C117.732 98.1437 117.316 98.1268 116.899 98.1199C116.712 98.1168 116.561 98.2686 116.561 98.4557C116.561 98.6161 116.448 98.7524 116.288 98.7691C116.216 98.7766 116.144 98.7841 116.073 98.7961C116.031 98.803 115.99 98.8077 115.948 98.8077C115.871 98.8077 115.813 98.8077 115.754 98.8077C115.241 98.8077 114.691 98.8077 114.215 98.8461C113.629 98.9228 113.042 98.9996 113.079 99.2298C113.115 99.4985 113.958 99.7671 114.728 99.8438C115.205 99.8822 115.644 99.8822 116.121 99.8822C116.221 99.8822 116.338 99.8822 116.449 99.8944C116.537 99.9042 116.597 99.9824 116.597 100.071C116.597 100.179 116.684 100.266 116.792 100.266H144.816C144.838 100.266 144.855 100.249 144.855 100.228Z" fill="#FFFEE0"/>
<path opacity="0.85" d="M75.5576 95.5463C76.0375 95.5463 76.4264 95.1573 76.4264 94.6775C76.4264 94.2497 76.1134 93.8921 75.6964 93.7966C75.2811 93.7015 74.9281 93.5846 74.6672 93.4356C74.4107 93.2821 74.264 93.1286 73.9708 92.9751C73.0179 92.4762 70.7456 92.3995 68.9864 92.553C68.6199 92.5913 68.2534 92.6297 67.8869 92.5913C67.0806 92.553 66.6408 92.2459 66.0177 92.0541C64.9915 91.7471 63.4888 91.7471 62.1328 91.7471C60.96 91.7471 59.7871 91.7471 58.6143 91.7854C57.2583 91.7854 55.609 91.8622 55.0959 92.2459C54.766 92.4762 54.9493 92.8216 54.3262 92.9751C53.7398 93.1286 52.8236 93.0518 52.0906 92.9751C51.3575 92.86 50.5512 92.7448 49.8182 92.8216C49.3192 92.8796 49.0252 93.006 48.8141 93.1564C48.4468 93.418 48.0843 93.6783 47.6562 93.8199C47.5819 93.8444 47.5088 93.8698 47.4365 93.8962C47.2409 93.9677 47.0355 94.0114 46.8272 94.0111C46.3516 94.0104 45.8759 94.0065 45.4003 93.985C45.2718 93.9793 45.1636 94.0812 45.1636 94.2098C45.1636 94.3333 45.0634 94.4348 44.9406 94.4472C44.8317 94.4582 44.7228 94.4717 44.6139 94.4717C44.5039 94.4717 44.4306 94.4717 44.3207 94.4717C43.8076 94.4717 43.2578 94.4718 42.7813 94.5101C42.1949 94.5485 41.6085 94.6252 41.6452 94.7787C41.6818 94.9706 42.5248 95.1625 43.2945 95.2393C43.7709 95.2776 44.2107 95.2776 44.6872 95.2776C44.7915 95.2776 44.9143 95.2776 45.0293 95.2776C45.1035 95.2776 45.1636 95.3378 45.1636 95.412C45.1636 95.4861 45.2238 95.5463 45.2979 95.5463H75.5576Z" fill="#FFFEE0"/>
<path d="M148.359 83.3473C148.367 83.3473 148.371 83.3383 148.366 83.3325C147.655 82.5254 147.086 81.5999 146.63 80.5854L139.316 64.2349C139.166 63.9008 138.709 63.8585 138.501 64.1595C138.42 64.2763 138.396 64.4234 138.437 64.5596L143.505 81.7262C143.993 83.2873 144.824 84.6982 145.942 85.8691C146.721 86.889 148.351 86.3379 148.351 85.0543V83.3562C148.351 83.3513 148.355 83.3473 148.359 83.3473Z" fill="#E79F55"/>
<path opacity="0.65" d="M144.274 77.4128C144.663 77.0657 144.813 76.5187 144.6 76.0429L139.316 64.2347C139.166 63.9007 138.709 63.8584 138.501 64.1594C138.42 64.2763 138.396 64.4235 138.437 64.5597L142.103 76.9533C142.364 77.8358 143.587 78.0257 144.274 77.4128Z" fill="#CC8B55"/>
<path d="M130.586 65.3172C134.073 64.4027 135.837 60.0171 133 57.7945C130.835 56.0992 128.386 54.7529 126.189 54.918C124.134 55.0725 121.808 55.6811 119.688 56.3892C116.255 57.5359 114.886 63.7683 118.505 63.6841C118.986 63.6731 119.73 63.2907 120.482 62.8092C121.305 62.2819 122.472 63.0613 122.198 63.9999C122.033 64.5663 122.4 65.1496 122.983 65.2456L124.303 65.4634C125.331 65.6329 126.096 65.634 126.512 64.679C127.137 63.243 128.843 63.1142 129.04 64.6679L129.072 64.9224C129.136 65.4245 129.433 65.6282 129.921 65.4952C130.112 65.4432 130.335 65.3831 130.586 65.3172Z" fill="#7FAB3A"/>
<path opacity="0.55" d="M121.745 60.8928C120.855 60.3003 119.838 59.5586 118.923 58.6992C118.24 58.0572 116.505 58.0861 115.644 58.4571C114.303 59.0349 114.71 60.4103 115.779 61.4049C116.777 62.3329 117.869 63.2188 118.39 63.2044C119.2 63.1771 120.89 61.9289 121.77 61.2303C121.872 61.1489 121.852 60.9678 121.745 60.8928Z" fill="#6D9F1E"/>
<path opacity="0.55" d="M136.516 61.7013C135.892 61.0344 134.211 60.6482 133.465 61.1743C133.354 61.2526 133.241 61.3197 133.127 61.3736C132.42 61.7048 131.652 61.9601 130.856 62.1396C130.14 62.3009 129.62 62.9582 129.714 63.686C129.819 64.4998 130.634 65.028 131.428 64.8201C132.308 64.5898 133.496 64.3059 134.787 64.0738C136.031 63.8502 137.379 62.6249 136.516 61.7013Z" fill="#6D9F1E"/>
<path opacity="0.55" d="M124.776 62.2729C123.967 62.0507 123.046 62.4347 122.815 63.241L122.782 63.3559C122.55 64.1693 123.081 65.003 123.916 65.137L124.964 65.3051C125.509 65.3925 125.849 65.5679 126.058 65.0571C126.417 64.1811 125.997 62.5642 125.075 62.3489C124.975 62.3255 124.875 62.3002 124.776 62.2729Z" fill="#6D9F1E"/>
<path d="M140.248 62.4788C139.591 63.1356 138.482 62.9192 138.208 62.0317C137.322 59.1587 136.057 53.6948 137.999 50.5052C139.018 48.8328 140.389 47.3618 141.706 46.1754C143.342 44.7031 145.611 46.1029 145.359 48.2887L145.208 49.592C145.151 50.0893 144.753 50.4784 144.255 50.5249C143.399 50.6048 142.989 51.6176 143.55 52.2696L144.117 52.9299C144.385 53.2412 144.514 53.6482 144.475 54.0568L144.24 56.5194C144.196 56.9788 143.821 57.336 143.36 57.3578L142.134 57.4157C141.593 57.4413 141.411 58.1504 141.872 58.4332C142.345 58.7231 142.476 60.3561 142.068 60.732C141.534 61.2245 140.9 61.8264 140.248 62.4788Z" fill="#7FAB3A"/>
<path opacity="0.55" d="M140.868 54.6788C140.347 55.393 139.748 56.0131 139.098 56.5538C138.397 57.1369 137.977 58.0258 138.183 58.9139C138.261 59.2494 138.342 59.5707 138.423 59.8732C138.742 61.0646 140.22 61.3676 141.105 60.5082C141.461 60.1623 141.796 59.8446 142.088 59.5718C142.395 59.2842 142.347 58.7827 141.988 58.5618L140.721 57.7815C140.581 57.6952 140.636 57.4798 140.8 57.4705L140.824 57.4691C140.98 57.4603 141.033 57.2562 140.9 57.173C140.767 57.0894 140.821 56.884 140.978 56.8768L143.04 56.7821C143.439 56.7638 143.765 56.4563 143.806 56.059L144.028 53.9068C144.06 53.5948 143.963 53.2833 143.758 53.0457C143.186 52.3828 142.105 52.587 141.698 53.3623C141.453 53.8304 141.178 54.2729 140.868 54.6788Z" fill="#6D9F1E"/>
<path d="M131.068 83.5881C129.747 84.3163 128.105 83.5953 127.81 82.1159C127.167 78.8913 126.398 73.8943 127.337 71.9693C128.052 70.5 130.978 68.4018 133.727 66.6693C135.852 65.3303 138.43 67.1714 137.995 69.6454L137.803 70.7406C137.699 71.334 137.234 71.7985 136.641 71.9028C135.429 72.1158 135.033 73.6575 135.992 74.4282L136.05 74.4743C136.533 74.8623 136.719 75.5122 136.516 76.0973L136.39 76.459C135.889 77.8986 134.027 78.2754 132.9 77.2486C132.066 76.4878 131.287 75.9054 131.092 76.1722C130.806 76.5843 131.547 78.9952 132.145 80.75C132.513 81.8327 132.07 83.0361 131.068 83.5881Z" fill="#7FAB3A"/>
<path opacity="0.55" d="M133.625 72.5318C133.589 72.505 133.538 72.5166 133.517 72.5561C132.8 73.8897 131.847 74.9254 130.691 75.6237C129.261 76.4874 128.007 77.9133 128.293 79.5593C128.399 80.1681 128.51 80.7454 128.614 81.261C128.845 82.396 130.106 82.9512 131.121 82.3925C131.88 81.9743 132.221 81.0677 131.95 80.2439C131.403 78.5783 130.835 76.5853 131.054 76.1863C131.06 76.1766 131.066 76.1689 131.074 76.1613C131.077 76.1579 131.081 76.1547 131.084 76.1516C131.168 76.0771 131.272 75.9838 131.349 75.9028C131.517 75.6762 132.175 76.1626 132.882 76.8037C133.853 77.6848 135.456 77.359 135.884 76.1193L135.989 75.8163C136.164 75.3099 136.002 74.7483 135.584 74.4127L133.564 72.7888C133.516 72.7502 133.535 72.6728 133.596 72.6613C133.658 72.6495 133.676 72.5695 133.625 72.5318Z" fill="#6D9F1E"/>
<path opacity="0.55" d="M137.691 68.0431C137.899 66.8445 137.067 65.7129 136.017 66.3263C135.582 66.5799 134.908 67.2922 134.866 67.7936C134.728 69.428 134.265 71.0629 133.674 72.2997C133.65 72.3494 133.705 72.4294 133.759 72.4199L136.382 71.9622C136.77 71.8945 137.073 71.5908 137.141 71.203L137.691 68.0431Z" fill="#6D9F1E"/>
<path opacity="0.55" d="M144.998 62.6927C143.708 62.9408 142.394 62.9357 141.211 62.6078C141.012 62.5529 140.603 62.7224 140.436 62.8428C139.966 63.1829 140.36 63.7575 140.938 63.8169L147.24 64.4664C147.85 64.5293 148.381 64.0506 148.381 63.4374C148.381 62.5397 147.212 61.9495 146.377 62.2773C145.911 62.4598 145.438 62.6005 144.998 62.6927Z" fill="#6D9F1E"/>
<path d="M9.28223 55.4677C9.28223 60.8462 1.2913 47.467 5.65953 44.3289C8.01589 42.6361 10.5525 41.4208 12.8948 41.5381C15.522 41.6806 18.5007 42.3872 21.2242 43.2271C25.687 44.6033 27.6285 52.5857 22.9583 52.5857C22.3428 52.5857 21.3818 52.1207 20.4083 51.529C19.3328 50.8753 17.854 51.9098 18.23 53.1108C18.4574 53.8372 17.9984 54.5988 17.25 54.7371L15.5581 55.0497C14.2442 55.2925 13.2679 55.3216 12.7068 54.109C11.8596 52.2781 9.64316 52.1564 9.42456 54.1619L9.28223 55.4677Z" fill="#7FAB3A"/>
<path opacity="0.55" d="M26.1248 49.3294C27.3031 48.1351 27.7689 46.5703 26.2176 45.9314C25.2219 45.5213 23.2052 45.5124 22.3872 46.2128C19.8117 48.4178 16.1956 49.3967 12.8074 49.703C10.313 49.9431 7.73264 49.8831 5.35294 49.0125C5.10145 48.9184 4.83588 48.8215 4.56418 48.7169C3.47476 48.2977 1.45763 49.1838 0.677299 50.0519C-0.705127 51.5899 1.05611 53.1843 3.09868 53.5074C4.74348 53.7676 6.26226 54.0919 7.42792 54.3672C8.4656 54.6124 9.5016 53.9081 9.61886 52.8483L9.92275 50.1018C9.93066 50.0303 10.014 49.9906 10.0739 50.0304C10.094 50.0438 10.1141 50.0577 10.1339 50.0724C10.1739 50.1021 10.237 50.0803 10.2437 50.0309C10.2494 49.989 10.2945 49.9657 10.3299 49.9889C11.0756 50.4778 11.8914 51.8728 12.4873 53.0605C13.0313 54.1449 14.2097 54.7981 15.4026 54.5777L17.0075 54.2812C17.6559 54.1613 18.0542 53.5021 17.8587 52.8723L16.8043 49.4769C16.7764 49.3871 16.8873 49.3131 16.9609 49.3716C16.9772 49.3845 16.9943 49.3981 17.0121 49.4121C17.0679 49.456 17.1458 49.4013 17.1243 49.3337C17.1024 49.265 17.1826 49.208 17.2392 49.2527C17.9171 49.7876 20.2791 51.6071 21.935 52.3303C22.0044 52.3606 22.0784 52.3748 22.1541 52.3748C22.9383 52.3748 24.679 50.7947 26.1248 49.3294Z" fill="#6D9F1E"/>
<path d="M-1.7274 35.9227C-3.05979 33.813 -5.9707 35.0305 -5.9707 37.5257V44.5855C-5.9707 44.7762 -5.8181 44.9319 -5.62739 44.9358C-5.28162 44.9427 -5.15395 45.3933 -5.44467 45.5806L-5.75797 45.7825C-5.89057 45.8679 -5.9707 46.0149 -5.9707 46.1726V49.0566C-5.9707 49.525 -5.82193 49.9253 -5.47762 50.2429C-4.37792 51.2573 -1.64858 50.6739 -1.29027 49.2214C-0.32868 45.3231 0.535011 39.4572 -1.7274 35.9227Z" fill="#7FAB3A"/>
<path d="M7.79351 78.3819C9.50549 79.2736 11.5843 78.3053 11.9233 76.405C12.665 72.2468 13.5239 65.7911 12.265 63.332C11.3051 61.4717 7.48815 58.8616 3.90949 56.7158C1.1469 55.0593 -2.10643 57.491 -1.48202 60.6511L-1.20272 62.0646C-1.05259 62.8243 -0.440371 63.4073 0.32584 63.52C1.88694 63.7498 2.44461 65.7155 1.23669 66.7308L1.15085 66.803C0.54291 67.3139 0.321606 68.1518 0.597925 68.8963L0.769643 69.359C1.45245 71.1988 3.86177 71.6314 5.28207 70.2772C6.32932 69.2787 7.30885 68.5136 7.56299 68.8558C7.93936 69.3624 7.04975 72.4968 6.32983 74.7757C5.88801 76.1743 6.49269 77.7043 7.79351 78.3819Z" fill="#7FAB3A"/>
<path opacity="0.55" d="M7.68215 77.0481C9.05746 77.7636 10.7264 76.9846 11.0016 75.4589C11.3291 73.643 11.6972 71.2605 11.8451 69.0582C11.8567 68.885 11.7406 68.7631 11.5767 68.7059C7.17064 67.6624 3.46029 63.2778 3.03524 58.6085C2.96212 57.8052 1.93102 56.6769 1.22646 56.2842C-0.352223 55.4043 -1.5333 57.1207 -1.18429 58.894L-0.510122 62.3194C-0.379958 62.9807 0.151968 63.4888 0.818587 63.5885L4.13505 64.0846C4.20796 64.0955 4.23382 64.1874 4.17731 64.2347L4.17038 64.2405C4.11736 64.285 4.14048 64.3711 4.20861 64.383C4.27663 64.3948 4.29983 64.4807 4.24702 64.5252L1.61827 66.7401C1.07383 67.1989 0.876486 67.9503 1.12528 68.6173L1.26775 68.9993C1.86872 70.6106 3.98013 70.9877 5.22632 69.8026C6.13635 68.9372 6.99144 68.2707 7.23685 68.543C7.24395 68.5509 7.24909 68.5593 7.25364 68.5689C7.29782 68.6621 7.41624 68.7301 7.50081 68.7893C7.52425 68.8057 7.54492 68.8279 7.56279 68.856C7.90782 69.3302 7.18237 72.0121 6.50876 74.2067C6.16873 75.3145 6.65415 76.5134 7.68215 77.0481Z" fill="#6D9F1E"/>
<g opacity="0.85">
<path opacity="0.85" d="M152.646 67.9617C151.385 67.8116 149.98 67.6615 149.492 67.5414C148.69 67.3313 147.858 66.911 147.428 66.1905C147.227 65.8603 147.113 65.47 146.912 65.1398C146.195 64.029 144.561 63.969 143.271 64.3292C143.013 64.3893 142.726 64.4793 142.468 64.4493C141.866 64.3592 141.551 63.6988 141.092 63.3085C140.346 62.6481 139.228 62.6781 138.253 62.7381C137.393 62.7982 136.533 62.8582 135.702 62.8882C134.698 62.9483 133.523 63.1584 133.121 64.059C132.892 64.5994 133.007 65.3199 132.577 65.7402C132.175 66.1305 131.487 66.0104 130.942 65.8002C130.398 65.5901 129.824 65.3199 129.279 65.53C128.305 65.8903 128.448 67.3013 127.875 68.1719C127.287 69.0847 126.048 69.2498 124.986 69.6384C124.104 69.9608 124.196 71.0509 125.122 71.204C127.588 71.6242 129.996 70.1832 132.491 70.2133C134.813 70.2433 136.504 70.9037 138.798 70.6336C140.776 70.3934 142.955 69.6129 144.934 69.2826C146.683 68.9824 148.489 69.6129 150.267 69.6129C150.542 69.6129 151.145 69.6129 151.847 69.5887C152.28 69.5737 152.618 69.2145 152.618 68.781V67.9904C152.618 67.9746 152.63 67.9617 152.646 67.9617Z" fill="url(#paint1_linear_1051_10253)"/>
<path opacity="0.85" d="M148.718 69.1019C148.001 68.8317 147.342 68.4114 146.597 68.2913C145.966 68.1712 145.249 68.2613 144.704 67.9311C144.303 67.6609 144.074 67.1806 143.672 66.9104C142.955 66.37 141.895 66.5802 141.034 66.9104C140.146 67.2406 139.228 67.6609 138.339 67.4808C137.393 67.3006 136.705 66.4901 135.816 66.1599C133.981 65.4694 131.946 66.8203 129.939 67.0004C129.537 67.0305 129.107 67.0305 128.735 67.1806C127.674 67.5708 127.215 68.9518 126.154 69.3721C125.896 69.4621 125.638 69.4922 125.38 69.4922C125.007 69.4922 124.606 69.5222 124.233 69.6122C123.803 69.7323 123.373 69.9124 123.402 70.2727C123.43 70.753 124.061 71.1133 124.606 71.2334C124.993 71.3054 125.381 71.3072 125.768 71.2744C127.55 71.1232 129.239 70.1469 131.023 70.0082C131.338 69.9837 131.655 69.9989 131.974 70.0625C132.605 70.1826 133.207 70.5129 133.867 70.5129C134.641 70.5129 135.329 70.0625 136.074 69.9124C137.766 69.5522 139.343 70.5729 141.034 70.8731C142.095 71.0532 143.213 70.9331 144.303 70.8131C145.794 70.6329 147.256 70.4828 148.747 70.3027H148.776C149.291 70.2513 149.449 69.6276 149.124 69.3363C149.009 69.2328 148.856 69.1738 148.718 69.1019Z" fill="url(#paint2_linear_1051_10253)"/>
</g>
<path opacity="0.07" d="M133.858 -1.77556C133.858 3.90404 129.46 8.5475 123.999 8.5475C118.538 8.5475 114.14 3.94242 114.14 -1.77556C114.14 -7.49355 118.538 -12.0986 123.999 -12.0986C129.46 -12.0986 133.858 -7.49355 133.858 -1.77556Z" fill="white"/>
<path opacity="0.07" d="M57.5524 9.23956C57.5524 13.6911 54.1072 17.2985 49.8558 17.2985C45.6043 17.2985 42.1592 13.6911 42.1592 9.23956C42.1592 4.78798 45.6043 1.18066 49.8558 1.18066C54.1072 1.18066 57.5524 4.78798 57.5524 9.23956Z" fill="white"/>
<path opacity="0.07" d="M119.199 11.9258C119.199 15.7634 116.23 18.8719 112.565 18.8719C108.9 18.8719 105.932 15.7634 105.932 11.9258C105.932 8.08828 108.9 4.97984 112.565 4.97984C116.194 4.94147 119.199 8.0499 119.199 11.9258Z" fill="white"/>
<path opacity="0.07" d="M46.4101 15.1879C46.4101 17.2985 44.7975 18.9871 42.7817 18.9871C40.7659 18.9871 39.1533 17.2985 39.1533 15.1879C39.1533 13.0772 40.7659 11.3887 42.7817 11.3887C44.7975 11.3887 46.4101 13.0772 46.4101 15.1879Z" fill="white"/>
<path opacity="0.07" d="M139.319 1.1806C139.319 3.48314 137.523 5.36355 135.324 5.36355C133.125 5.36355 131.329 3.48314 131.329 1.1806C131.329 -1.12194 133.125 -3.00235 135.324 -3.00235C137.523 -3.04073 139.319 -1.16032 139.319 1.1806Z" fill="white"/>
<path d="M57.5696 16.9152C57.5349 16.8898 57.5001 16.8612 57.4617 16.8416C57.4566 16.839 57.4506 16.8374 57.443 16.8374C57.3867 16.8374 57.3472 16.8929 57.3041 16.9292C57.192 17.0233 57.0969 17.1175 56.9786 17.2117C56.9708 17.2178 56.9703 17.22 56.9606 17.2218C56.9365 17.2261 56.9102 17.2595 56.8857 17.2595C56.8835 17.2595 56.8812 17.2595 56.8786 17.2595C56.8646 17.2595 56.8514 17.2535 56.8404 17.2447C56.828 17.2348 56.8162 17.2281 56.8066 17.2214C56.7813 17.2038 56.7736 17.1694 56.7562 17.1439C56.6696 17.0163 56.6039 16.8887 56.5172 16.7611C56.4999 16.7356 56.4922 16.7012 56.4669 16.6836C56.4641 16.6817 56.4612 16.6798 56.4581 16.6778C56.4299 16.6596 56.4011 16.6455 56.3676 16.6455C56.3538 16.6455 56.3369 16.6478 56.3239 16.6523C56.2842 16.6661 56.2451 16.6792 56.2063 16.692C55.9468 16.7776 55.9626 16.9496 56.2336 16.9141C56.2513 16.9141 56.2669 16.9164 56.2808 16.9203C56.3596 16.9426 56.3963 17.0299 56.4434 17.0968C56.5268 17.2151 56.6509 17.3357 56.7598 17.3999C56.7741 17.4083 56.7808 17.4254 56.7913 17.4382C56.7961 17.4442 56.8024 17.4474 56.8079 17.4492C56.8149 17.4515 56.8215 17.4561 56.8237 17.4631L56.8246 17.466C56.8303 17.4839 56.8874 17.4851 56.8915 17.4669C56.8934 17.458 56.901 17.452 56.9092 17.4482C56.9272 17.44 56.9339 17.4168 56.9528 17.3911C56.9612 17.3797 56.9736 17.3724 56.9866 17.367C57.0745 17.3307 57.1816 17.2528 57.2743 17.1862C57.3133 17.1582 57.3518 17.1266 57.3989 17.1173C57.437 17.1097 57.4822 17.1072 57.5153 17.1064C57.5401 17.1058 57.5647 17.1111 57.5871 17.1218C57.7574 17.2033 57.8084 17.0865 57.6548 16.9768C57.6261 16.9564 57.5977 16.9358 57.5696 16.9152Z" fill="white"/>
<path d="M99.2606 23.1698C99.2239 23.1314 99.224 23.1314 99.1873 23.1314C99.1147 23.1314 99.0427 23.1455 98.9764 23.1751C98.8587 23.2277 98.7516 23.2802 98.6316 23.3328C98.5873 23.3522 98.5393 23.3617 98.491 23.3617C98.4905 23.3617 98.49 23.3617 98.4895 23.3616C98.4582 23.3608 98.3905 23.3062 98.3637 23.2899C98.3514 23.2824 98.3409 23.276 98.3359 23.2625C98.2723 23.0894 98.2361 22.9175 98.1736 22.775C98.1656 22.7569 98.1597 22.7271 98.151 22.7094C98.135 22.6769 98.1039 22.6709 98.0677 22.6709C98.0575 22.6709 98.0511 22.6709 98.0511 22.6709C98.0016 22.6709 97.9521 22.6709 97.9027 22.6709C97.6384 22.6709 97.6058 22.8285 97.8679 22.8628C97.9946 22.8628 98.0276 23.0445 98.083 23.1585C98.1339 23.2631 98.2049 23.3748 98.2802 23.4555C98.318 23.4959 98.381 23.5365 98.381 23.5919V23.6283C98.381 23.6707 98.4157 23.6816 98.4403 23.6471C98.4478 23.6367 98.4616 23.6305 98.4744 23.63C98.4772 23.6299 98.48 23.6298 98.4827 23.6296C98.5192 23.6267 98.5574 23.5921 98.5937 23.5873C98.7261 23.5695 98.8735 23.504 98.9674 23.4384C99.0301 23.4056 99.1197 23.4289 99.1902 23.4604C99.213 23.4706 99.2356 23.4871 99.2538 23.5041C99.4646 23.7014 99.6035 23.5472 99.4108 23.332C99.362 23.2775 99.3121 23.2237 99.2606 23.1698Z" fill="white"/>
<g opacity="0.85">
<path opacity="0.85" d="M4.80443 10.6874C4.57307 11.3782 4.68875 12.2992 4.25496 12.8364C3.85008 13.3353 3.15601 13.1818 2.60654 12.9132C2.05707 12.6446 1.47868 12.2992 0.929204 12.5678C-0.0540624 13.0283 0.0905361 14.832 -0.487856 15.9449C-1.09122 17.1329 -2.37573 17.3302 -3.45981 17.8469C-4.40885 18.2993 -4.29313 19.6052 -3.26414 19.8208C-0.777052 20.3581 1.65219 18.516 4.1682 18.5544C6.51068 18.5928 8.21694 19.4371 10.5305 19.0917C12.526 18.7847 14.7238 17.7869 16.7193 17.3648C18.4834 16.981 20.3053 17.7869 22.0983 17.7869C22.8792 17.7869 26.523 17.8637 26.899 16.981C26.9858 16.7891 27.0436 16.5589 26.9568 16.367C26.8701 16.1751 26.6966 16.0984 26.523 16.06C25.6844 15.8297 22.0983 15.446 21.2886 15.1774C20.4788 14.9087 19.6402 14.3715 19.2064 13.4505C19.0039 13.0283 18.8883 12.5294 18.6858 12.1073C17.9628 10.6874 16.3144 10.6106 15.013 11.0712C14.7528 11.1479 14.4636 11.263 14.2033 11.2247C13.596 11.1095 13.2779 10.2653 12.8152 9.76638C12.0632 8.92212 10.9354 8.96049 9.95212 9.03724C9.08453 9.114 8.21694 9.19075 7.37827 9.22912C6.39501 9.2675 5.2093 9.53613 4.80443 10.6874Z" fill="url(#paint3_linear_1051_10253)"/>
<path opacity="0.85" d="M20.5374 17.1341C19.8144 16.7888 19.1492 16.2515 18.3973 16.098C17.7611 15.9445 17.0381 16.0596 16.4886 15.6375C16.0837 15.2921 15.8524 14.6781 15.4475 14.3327C14.7245 13.6419 13.6545 13.9106 12.7869 14.3327C11.8904 14.7548 10.965 15.2921 10.0685 15.0618C9.11413 14.8316 8.42006 13.7954 7.52355 13.3733C5.6727 12.4907 3.61941 14.2176 1.59504 14.4478C1.19016 14.4862 0.756369 14.4862 0.380414 14.6781C-0.689611 15.177 -1.15232 16.9423 -2.22235 17.4795C-2.48263 17.5946 -2.7429 17.633 -3.00318 17.633C-3.37913 17.633 -3.78401 17.6714 -4.15996 17.7865C-4.59376 17.94 -5.02755 18.1703 -4.99863 18.6308C-4.96971 19.2448 -4.33348 19.7053 -3.78401 19.8588C-3.57876 19.9072 -3.37352 19.9308 -3.16828 19.9362C-1.0085 19.9931 0.997888 18.1448 3.15391 18.2843C3.31813 18.2949 3.48296 18.3204 3.64833 18.3622C4.28456 18.5157 4.89187 18.9378 5.55702 18.9378C6.33785 18.9378 7.03192 18.3622 7.78383 18.1703C9.49008 17.7098 11.0807 19.0145 12.7869 19.3983C13.8569 19.6286 14.9848 19.4751 16.0837 19.3216C17.578 19.0928 19.0438 18.9019 20.5377 18.6735C20.5567 18.6706 20.576 18.6692 20.5952 18.6692C21.1152 18.6035 21.2748 17.8063 20.9469 17.4339C20.8363 17.3083 20.6768 17.2266 20.5374 17.1341Z" fill="url(#paint4_linear_1051_10253)"/>
</g>
<path d="M133.997 83.9248H7.67285C2.15 83.9248 -2.32715 88.402 -2.32715 93.9248V148.931C-2.32715 154.453 2.15002 158.931 7.67287 158.931H133.997C139.52 158.931 143.997 154.453 143.997 148.931V93.9248C143.997 88.402 139.52 83.9248 133.997 83.9248Z" fill="#47BDFF"/>
<path d="M4.5013 90.0873C8.37076 90.7002 12.1101 92.1642 15.9796 92.9132C19.719 93.6623 23.5234 93.9347 27.3278 94.0368C37.5705 94.3092 47.8782 93.6282 58.1209 93.492C63.4536 93.424 68.8513 93.0835 74.184 93.3899C79.4842 93.6963 84.7519 94.7177 90.052 94.7518C100.652 94.8199 111.22 95.9434 121.821 96.3861C126.991 96.5903 132.128 96.5563 137.298 96.5222C140.897 96.5222 143.997 93.6499 143.997 90.051C143.997 86.6699 141.256 83.9248 137.875 83.9248H0.381873C-1.11427 83.9248 -2.32715 85.1377 -2.32715 86.6338C-2.32715 88.1148 -1.13574 89.3184 0.336717 89.4772C1.80112 89.6352 3.22106 89.8745 4.5013 90.0873Z" fill="#0FA0E3"/>
<path d="M0.469265 115.383C2.68038 115.213 4.76144 115.69 6.94004 116.064C8.95606 116.405 11.0371 116.541 13.0856 116.575C17.3128 116.643 21.3123 115.962 25.4094 114.804C29.2463 113.715 33.1158 112.489 37.0503 111.979C41.6676 111.366 47.0003 111.059 51.455 113C53.6336 113.953 55.7147 115.077 58.0559 115.315C60.4621 115.588 62.8358 115.724 65.242 115.758C70.3146 115.86 75.3546 115.69 80.4272 115.826C85.5973 115.928 90.7024 116.541 95.8725 116.541C98.5714 116.541 101.27 116.575 103.937 117.154C106.245 117.664 108.521 118.413 110.83 118.958C115.773 120.116 120.943 119.367 125.95 119.026C130.828 118.72 135.64 118.618 140.453 119.877C140.756 119.953 141.056 120.039 141.354 120.131C142.667 120.542 144.029 119.632 144.029 118.256C144.029 117.381 143.452 116.611 142.611 116.367C142.499 116.334 142.386 116.301 142.273 116.268C140.16 115.622 138.079 115.281 135.9 115.281C131.38 115.247 126.893 116.064 122.373 116.2C117.919 116.337 113.561 115.485 109.172 114.668C104.099 113.715 99.0916 113.783 93.9865 113.647C88.7839 113.511 83.5813 112.932 78.3786 113.068C73.176 113.204 68.2335 112.285 63.0959 111.264C58.1534 110.276 53.1459 110.106 48.1709 110.038C43.1633 109.97 38.1558 110.072 33.1483 110.685C28.2708 111.264 23.5559 112.864 18.6785 113.579C13.736 114.294 8.79347 113.715 3.85097 113.783C2.06854 113.813 0.235272 114.083 -1.60389 114.168C-2.00502 114.187 -2.32715 114.514 -2.32715 114.915C-2.32715 115.395 -1.87617 115.744 -1.40655 115.648C-0.782812 115.521 -0.164108 115.429 0.469265 115.383Z" fill="#0FA0E3"/>
<path d="M9.834 88.8258H93.6289C104.229 88.8258 114.895 88.9279 125.462 87.3958C130.437 86.6808 135.445 86.9191 140.42 87.1234C140.952 87.152 141.466 87.1865 141.968 87.2396C143.003 87.3489 143.997 86.5777 143.997 85.5376C143.997 84.6647 143.289 83.957 142.416 83.957H-0.268723C-1.40556 83.957 -2.32715 84.8786 -2.32715 86.0155C-2.32715 87.0989 -1.48723 87.9962 -0.407966 88.0909C3.00887 88.3908 6.40989 88.8258 9.834 88.8258Z" fill="#22D3FF"/>
<path d="M27.0024 104.011C32.27 104.011 37.5702 104.148 42.8379 103.875C48.1055 103.603 53.3407 102.82 58.6084 102.275C63.9085 101.73 69.1762 101.492 74.4764 102.003C79.8091 102.513 85.1418 103.535 90.4745 103.807C95.8072 104.08 101.14 103.875 106.473 104.25C111.578 104.59 116.683 105.271 121.82 105.169C128.485 105.016 135.123 104.258 141.759 103.71C143.02 103.606 143.997 102.556 143.997 101.29C143.997 99.915 142.851 98.8172 141.476 98.8636C139.132 98.9426 136.792 98.9994 134.469 99.0746C126.633 99.2789 118.926 99.8577 111.155 101.151C106.017 102.003 101.075 101.662 95.9372 100.947C90.7346 100.232 85.532 99.7555 80.2968 99.4151C69.6314 98.7341 58.966 98.2915 48.2681 98.5639C37.6027 98.8363 27.0024 100.3 16.337 100.334C11.8172 100.334 7.26491 100.436 2.74512 100.062C1.95663 99.9917 1.09889 99.8943 0.216559 99.8164C-1.16735 99.6942 -2.29492 100.814 -2.29492 102.203C-2.29492 103.527 -1.26832 104.628 0.0549419 104.679C8.98514 105.023 18.035 104.043 27.0024 104.011Z" fill="#22D3FF"/>
<path d="M30.8064 107.553C41.0166 106.43 51.2593 107.281 61.4694 107.724C66.5745 107.962 71.7121 107.826 76.8497 108.2C82.0523 108.575 87.255 109.29 92.4576 109.29C97.6277 109.324 102.798 109.358 107.968 109.835C113.008 110.277 117.983 111.367 123.023 111.843C129.279 112.453 135.56 112.408 141.798 111.635C143.064 111.479 143.996 110.39 143.996 109.114C143.996 107.743 142.923 106.609 141.555 106.521C139.85 106.411 138.16 106.295 136.485 106.226C127.803 105.919 119.186 104.932 110.472 104.898C89.1409 104.796 67.7776 104.149 46.4143 104.898C35.7489 105.272 25.051 105.579 14.4181 106.77C9.63821 107.315 4.8583 107.996 0.143414 108.915C-0.19762 108.987 -0.544376 109.058 -0.894454 109.13C-1.74677 109.304 -2.36035 110.052 -2.36035 110.922C-2.36035 112.012 -1.41125 112.86 -0.330127 112.719C10.0921 111.357 20.3632 108.705 30.8064 107.553Z" fill="#0FA9FF"/>
<path d="M134.665 94.6495C127.739 94.3431 120.78 94.3431 113.854 94.3431C108.521 94.3431 103.221 94.2069 97.8885 93.7984C92.6208 93.3898 87.3532 92.9131 82.053 92.9472C76.8178 93.0153 71.6803 93.9005 66.4776 94.2069C61.3075 94.5134 56.1374 94.5474 50.9348 94.4453C40.562 94.241 30.1568 94.3091 19.8165 93.56C15.5569 93.2536 11.2647 92.845 6.97255 92.6748H0.870973C-0.895302 92.6748 -2.32715 94.1067 -2.32715 95.8729C-2.32715 97.6673 -0.851038 99.1119 0.942309 99.0499C10.4532 98.7215 19.9667 97.9407 29.5064 97.5436C40.2043 97.1009 50.9022 97.3052 61.6327 97.2031C72.3631 97.1009 83.0935 96.9307 93.7914 96.6924C104.327 96.454 114.862 96.454 125.397 96.4881C129.657 96.4881 133.884 96.8966 138.111 97.0669C139.628 97.1198 141.145 97.1728 142.662 97.1297C143.396 97.1089 143.964 96.4974 143.964 95.763C143.964 94.7383 142.88 94.0347 141.883 94.269C139.418 94.8482 136.701 94.7285 134.665 94.6495Z" fill="#0FA9FF"/>
<path d="M133.997 158.93C139.52 158.93 143.997 154.453 143.997 148.93V146.189C143.997 138.911 135.789 131.553 128.602 130.399C125.256 129.862 122.537 129.332 121.756 129.412C118.797 129.718 96.0025 128.424 88.3287 127.028C82.6383 126.007 67.4531 126.62 65.2095 125.803C59.6492 123.76 53.6336 126.926 47.8132 125.939C30.8396 123.045 22.743 128.118 11.72 125.326C8.86321 124.611 4.67541 124.53 1.54771 125.023C-1.08941 125.438 -2.32715 127.918 -2.32715 130.587V148.93C-2.32715 154.453 2.15 158.93 7.67285 158.93H133.997Z" fill="#FEF993"/>
<path opacity="0.65" d="M24.1404 136.989C25.8274 137.636 32.8688 139.198 34.7392 138.664C36.7563 138.093 38.2966 137.065 40.4603 137.484C44.2011 138.246 47.1717 141.673 51.0591 141.977C53.1495 142.13 54.9832 141.482 57.0003 140.835C59.4208 140.035 61.8413 139.312 64.3351 138.664C66.7189 138.055 69.1761 137.446 71.5965 136.989C73.6503 136.608 75.7407 136.341 77.6477 137.446C78.3079 137.827 78.9313 139.007 79.6281 139.121C80.6183 139.312 81.6452 139.198 82.6721 139.198C84.9459 139.198 87.403 139.502 89.5668 138.741C91.5838 138.055 93.5276 136.837 95.728 136.989C98.1852 137.179 100.569 137.712 103.026 138.093C104.566 138.322 107.867 138.703 109.811 138.055C113.111 136.989 108.564 134.628 107.904 133.904C105.703 131.619 104.64 132.419 102.659 132C97.7084 131.01 78.6013 131.353 74.3471 132.419C74.127 132.457 73.907 132.457 73.687 132.381C51.0732 123.684 28.7849 134.436 27.5019 135.073C27.4789 135.084 27.4614 135.083 27.4435 135.101C27.4222 135.123 27.3924 135.13 27.3659 135.145C26.6492 135.548 23.2769 136.69 24.1404 136.989Z" fill="#F0CFD2"/>
<path d="M35.4994 131.618C35.4994 136.21 31.8949 139.858 27.4193 139.858C22.9738 139.858 19.2191 136.241 19.0088 131.649C18.7986 126.931 22.373 123.031 27.0288 123C31.7147 123 35.4994 126.9 35.4994 131.618Z" fill="#06D9A1"/>
<path d="M31.1748 125.939C31.3492 126.121 31.5455 126.325 31.7928 126.375C31.8196 126.38 31.8464 126.385 31.8732 126.391C32.6258 126.549 33.2608 125.765 32.6949 125.244C32.37 124.945 32.0217 124.671 31.6525 124.426C31.1725 124.108 30.5947 124.564 30.6641 125.136C30.6659 125.151 30.6676 125.165 30.6694 125.18C30.7056 125.485 30.9622 125.717 31.1748 125.939Z" fill="#FFDB46"/>
<path d="M27.0297 123C26.8652 123 26.811 123.266 26.9549 123.346C27.9152 123.879 28.7785 124.564 29.5127 125.381C29.749 125.643 30.1909 125.642 30.5441 125.642C30.6261 125.642 30.7195 125.571 30.7143 125.489C30.6855 125.03 30.6263 124.573 30.5267 124.127C30.469 123.869 30.2859 123.658 30.0397 123.562C29.0964 123.195 28.0863 123 27.0297 123Z" fill="#06D9A1"/>
<path d="M26.6986 125.484C27.761 125.484 28.8234 125.667 29.8004 125.971C29.8323 125.981 29.8671 125.972 29.8902 125.948C29.9203 125.917 29.9227 125.868 29.8956 125.834C29.0535 124.776 28.0087 123.909 26.8202 123.273C26.5088 123.106 26.1516 123.043 25.8027 123.098C25.5255 123.142 25.2536 123.2 24.9875 123.271C23.0956 123.776 24.7406 125.505 26.6986 125.484Z" fill="#F9F6EF"/>
<path d="M31.4439 126.617C31.4439 126.675 31.4758 126.729 31.5266 126.757C32.1698 127.113 32.7682 127.535 33.3132 128.013C33.859 128.493 34.7535 128.06 34.4072 127.422C34.3545 127.324 34.2785 127.247 34.1832 127.19C33.4841 126.777 32.7271 126.481 31.7069 126.341C31.5763 126.323 31.4439 126.485 31.4439 126.617Z" fill="#F9F6EF"/>
<path d="M31.9371 126.988C31.7064 126.848 31.4047 127.016 31.2379 127.228C31.1118 127.388 31.0409 127.608 31.1303 127.791C31.7814 129.125 32.1663 130.611 32.1663 132.152C32.1888 134.531 34.1759 136.767 34.991 134.532C35.3203 133.628 35.5005 132.647 35.5005 131.617C35.5005 131.521 35.4981 131.427 35.4941 131.335C35.4735 130.857 35.3246 130.391 35.0593 129.993C34.2527 128.783 33.1889 127.743 31.9371 126.988Z" fill="#2FCAFE"/>
<path d="M32.1651 132.152C32.1358 130.497 31.7354 128.96 31.0196 127.573C30.9848 127.506 30.97 127.466 30.8946 127.457C30.7749 127.441 30.6222 127.525 30.6048 127.645C29.9191 132.354 26.0879 135.958 21.3816 135.958C21.0302 135.958 20.7073 135.928 20.3851 135.897C20.3718 135.896 20.3604 135.907 20.3604 135.92C20.3604 135.924 20.3616 135.928 20.3639 135.932C21.8664 138.288 24.5078 139.858 27.4192 139.858C28.1076 139.858 28.7728 139.586 29.2683 139.108C31.064 137.376 32.1914 134.909 32.1651 132.152Z" fill="#FFDB46"/>
<path d="M35.4994 131.618C35.4994 136.21 31.8949 139.858 27.4193 139.858C22.9738 139.858 19.2191 136.241 19.0088 131.649C18.7986 126.931 22.373 123.031 27.0288 123C31.7147 123 35.4994 126.9 35.4994 131.618Z" fill="#70CA4E"/>
<path d="M31.1748 125.939C31.3492 126.121 31.5455 126.325 31.7928 126.375C31.8196 126.38 31.8464 126.385 31.8732 126.391C32.6258 126.549 33.2608 125.765 32.6949 125.244C32.37 124.945 32.0217 124.671 31.6525 124.426C31.1725 124.108 30.5947 124.564 30.6641 125.136C30.6659 125.151 30.6676 125.165 30.6694 125.18C30.7056 125.485 30.9622 125.717 31.1748 125.939Z" fill="#FFDB46"/>
<path d="M27.0297 123C26.8652 123 26.811 123.266 26.9549 123.346C27.9152 123.879 28.7785 124.564 29.5127 125.381C29.749 125.643 30.1909 125.642 30.5441 125.642C30.6261 125.642 30.7195 125.571 30.7143 125.489C30.6855 125.03 30.6263 124.573 30.5267 124.127C30.469 123.869 30.2859 123.658 30.0397 123.562C29.0964 123.195 28.0863 123 27.0297 123Z" fill="#70CA4E"/>
<path d="M26.6986 125.484C27.761 125.484 28.8234 125.667 29.8004 125.971C29.8323 125.981 29.8671 125.972 29.8902 125.948C29.9203 125.917 29.9227 125.868 29.8956 125.834C29.0535 124.776 28.0087 123.909 26.8202 123.273C26.5088 123.106 26.1516 123.043 25.8027 123.098C25.5255 123.142 25.2536 123.2 24.9875 123.271C23.0956 123.776 24.7406 125.505 26.6986 125.484Z" fill="#F9F6EF"/>
<path d="M31.4439 126.617C31.4439 126.675 31.4758 126.729 31.5266 126.757C32.1698 127.113 32.7682 127.535 33.3132 128.013C33.859 128.493 34.7535 128.06 34.4072 127.422C34.3545 127.324 34.2785 127.247 34.1832 127.19C33.4841 126.777 32.7271 126.481 31.7069 126.341C31.5763 126.323 31.4439 126.485 31.4439 126.617Z" fill="#F9F6EF"/>
<path d="M31.9371 126.988C31.7064 126.848 31.4047 127.016 31.2379 127.228C31.1118 127.388 31.0409 127.608 31.1303 127.791C31.7814 129.125 32.1663 130.611 32.1663 132.152C32.1888 134.531 34.1759 136.767 34.991 134.532C35.3203 133.628 35.5005 132.647 35.5005 131.617C35.5005 131.521 35.4981 131.427 35.4941 131.335C35.4735 130.857 35.3246 130.391 35.0593 129.993C34.2527 128.783 33.1889 127.743 31.9371 126.988Z" fill="#2FCAFE"/>
<path d="M32.1651 132.152C32.1358 130.497 31.7354 128.96 31.0196 127.573C30.9848 127.506 30.97 127.466 30.8946 127.457C30.7749 127.441 30.6222 127.525 30.6048 127.645C29.9191 132.354 26.0879 135.958 21.3816 135.958C21.0302 135.958 20.7073 135.928 20.3851 135.897C20.3718 135.896 20.3604 135.907 20.3604 135.92C20.3604 135.924 20.3616 135.928 20.3639 135.932C21.8664 138.288 24.5078 139.858 27.4192 139.858C28.1076 139.858 28.7728 139.586 29.2683 139.108C31.064 137.376 32.1914 134.909 32.1651 132.152Z" fill="#FFDB46"/>
<path d="M31.6551 126.995C31.4148 127.372 30.8441 127.404 30.4236 127.089C30.0031 126.775 29.8529 126.209 30.0932 125.831C30.3335 125.454 30.9042 125.422 31.3247 125.737C31.7753 126.051 31.8954 126.618 31.6551 126.995Z" fill="#706375"/>
<path opacity="0.55" d="M31.9252 125.264C33.427 126.145 34.0879 127.875 33.427 129.133C32.7662 130.391 30.994 130.674 29.4921 129.793C27.9903 128.913 27.3294 127.183 27.9903 125.925C28.6811 124.667 30.4533 124.384 31.9252 125.264Z" fill="#A7C993"/>
<path opacity="0.55" d="M34.4193 133.159C33.1277 134.574 31.2653 135.297 29.403 135.172C27.4205 135.014 25.5883 133.882 24.4769 132.121C24.0563 131.429 23.7259 130.674 23.5757 129.888C23.3966 129.013 23.3979 128.112 23.5626 127.249C23.7766 126.126 22.7514 124.854 21.9237 125.642C20.0013 127.466 19.1302 130.297 19.7009 132.97C19.9112 133.945 20.2716 134.857 20.8123 135.675C22.164 137.782 24.4168 139.134 26.8198 139.323C29.0726 139.512 31.3555 138.631 32.9474 136.933C33.8757 135.908 34.5106 134.664 34.7997 133.329C34.8552 133.073 34.5855 132.956 34.4193 133.159Z" fill="#A49A90"/>
<path d="M130.466 13.0973C130.466 17.5489 127.021 21.1946 122.733 21.1946C118.482 21.1946 115 17.5872 115 13.0973C115 8.64569 118.445 5 122.733 5C127.021 5 130.466 8.60732 130.466 13.0973Z" fill="#FFEE22"/>
<path d="M103.352 126.257C103.182 127.054 103.614 127.873 103.655 128.686C103.988 134.72 109.494 139.226 114.796 140.272C117.537 140.808 121.122 141.049 123.427 139.333C123.555 139.253 123.683 139.145 123.811 139.038C125.195 137.992 126.219 136.544 126.706 134.828C128.166 129.759 126.578 123.35 121.506 120.239C111.595 114.151 104.91 122.384 104.782 122.599C104.183 123.519 103.662 124.797 103.352 126.257ZM112.248 128.267C112.287 127.71 112.791 127.361 113.338 127.253C114.229 127.075 115.754 127.078 117.332 128.472C119.816 130.671 119.457 133.969 115.974 133.084C113.205 132.402 112.151 129.668 112.248 128.267Z" fill="#FF3E4A"/>
<path d="M111.01 128.786C111.697 128.734 112.268 129.143 112.492 129.794C112.747 130.535 112.588 131.541 111.872 131.861C110.799 132.34 109.718 132.821 108.68 133.365C107.191 134.145 105.241 133.933 104.559 132.396C103.825 130.744 105.234 129.116 107.04 129.031C108.36 128.969 109.679 128.887 111.01 128.786Z" fill="#FDC2B3"/>
<path d="M121.989 124.022C123.154 123.093 124.873 123.301 125.585 124.609C126.269 125.864 126.732 127.231 126.974 128.623C127.046 129.041 126.691 129.427 126.27 129.383C123.608 129.088 120.895 128.606 118.285 128.016C118.281 128.016 118.278 128.015 118.275 128.015C118.234 128.015 118.209 127.969 118.232 127.935C119.33 126.357 120.597 125.132 121.989 124.022Z" fill="#FDC2B3"/>
<path d="M111.462 118.37C111.48 118.364 111.497 118.362 111.516 118.359C111.552 118.355 111.586 118.331 111.621 118.323C111.759 118.295 111.913 118.252 112.068 118.228C112.075 118.227 112.082 118.226 112.09 118.226C112.099 118.226 112.109 118.225 112.119 118.223C113.037 118.038 114.031 117.985 115.075 118.066C116.055 118.139 117.078 118.346 118.163 118.706C118.313 118.757 118.37 118.957 118.262 119.073C118.254 119.081 118.249 119.088 118.243 119.097C117.824 119.708 117.11 121.953 116.508 123.924C115.921 125.849 114.277 126.681 113.035 125.097C111.99 123.764 110.918 122.018 110.114 120.751C109.62 119.972 109.898 118.844 110.775 118.559C110.837 118.539 110.901 118.518 110.965 118.498C110.973 118.496 110.982 118.495 110.99 118.495C110.999 118.495 111.007 118.493 111.015 118.491C111.179 118.443 111.321 118.416 111.462 118.37Z" fill="#FDC2B3"/>
<path d="M116.705 133.454C116.712 133.44 116.719 133.424 116.724 133.409C116.762 133.295 116.877 133.225 116.997 133.225C117.138 133.226 117.271 133.218 117.395 133.203C117.732 133.16 118.096 133.232 118.324 133.484C119.994 135.33 121.902 136.993 123.766 138.547C123.921 138.675 123.917 138.914 123.759 139.038C123.631 139.145 123.503 139.226 123.375 139.333C121.964 140.379 120.062 140.695 118.168 140.657C116.324 140.62 115.106 138.746 115.615 136.973C115.971 135.854 116.175 134.471 116.705 133.454Z" fill="#FDC2B3"/>
<path opacity="0.55" d="M120.916 137.052C122.843 136.365 124.3 134.545 125.147 132.348C125.406 131.675 126.436 131.674 126.32 132.386C125.577 137.16 121.582 138.608 120.071 138.849C116.331 139.466 112.72 139.037 109.8 136.248C109.499 135.964 109.909 135.519 110.273 135.715C113.626 137.52 117.638 138.196 120.916 137.052Z" fill="#B03E4A"/>
<path d="M115.973 133.11C119.457 133.995 119.815 130.67 117.331 128.498C116.683 127.925 116.037 127.589 115.435 127.409C114.56 127.147 113.541 125.788 114.385 125.441C115.41 125.011 116.716 125.199 117.638 125.896C119.072 126.942 120.891 128.846 119.738 131.743C119.252 132.976 118.022 133.754 116.742 133.7C116.332 133.677 116.023 133.594 115.765 133.464C115.506 133.333 115.694 133.032 115.973 133.11Z" fill="#C72B37"/>
<path d="M104.718 122.616C104.726 122.603 104.721 122.606 104.731 122.596C104.888 122.423 105.191 122.59 105.125 122.814C104.36 125.441 104.89 128.408 105.677 131.045C106.573 134.102 108.75 136.999 112.9 138.634C115.999 139.841 120.506 140.404 124.732 137.562C125.143 137.285 125.522 137.516 125.231 137.916C123.031 140.932 119.02 142.551 114.564 141.718C100.6 139.121 102.113 126.87 104.718 122.616Z" fill="#DB2C39"/>
<path opacity="0.55" d="M109.724 125.951C109.339 126.97 109.493 128.15 110.005 129.089C110.043 129.158 110.083 129.226 110.124 129.292C110.494 129.885 111.396 129.144 111.414 128.445C111.44 127.453 111.824 126.461 112.49 125.764C112.746 125.469 113.053 125.227 113.412 125.066C113.796 124.879 114.206 124.798 114.641 124.744C116.101 124.61 117.638 125.066 118.739 126.059C119.253 126.522 119.673 127.108 119.966 127.757C120.212 128.302 120.739 128.332 120.609 127.748C120.122 125.71 118.611 123.967 116.716 123.269C114.82 122.572 112.592 122.974 111.03 124.262C110.466 124.691 109.98 125.254 109.724 125.951Z" fill="#C72C39"/>
<path opacity="0.75" d="M112.413 121.847C112.055 122.089 111.696 122.357 111.312 122.571C110.928 122.786 110.492 122.92 110.057 122.813C109.647 122.705 109.289 122.276 109.34 121.847C109.365 121.579 109.545 121.338 109.724 121.123C110.262 120.533 110.979 120.158 111.722 119.863C113.796 119.031 116.153 119.031 118.253 119.809C120.353 120.587 122.146 122.169 123.273 124.207C123.503 124.636 123.708 125.092 123.708 125.575C123.708 126.058 123.478 126.567 123.068 126.755C122.658 126.943 122.171 126.755 121.839 126.433C121.506 126.111 121.301 125.682 121.096 125.28C120.43 123.966 119.585 122.652 118.33 121.901C117.561 121.445 116.69 121.257 115.794 121.177C114.616 121.07 113.412 121.231 112.413 121.847Z" fill="#FF7C59"/>
<path opacity="0.95" d="M107.548 125.575C107.138 125.494 106.779 125.199 106.626 124.797C106.472 124.395 106.549 123.912 106.805 123.59C107.061 123.268 107.522 123.107 107.932 123.215C108.009 123.242 108.086 123.268 108.162 123.322C108.342 123.456 108.47 123.671 108.547 123.885C108.675 124.207 108.777 124.556 108.675 124.877C108.61 125.096 108.465 125.294 108.284 125.431C108.075 125.589 107.804 125.632 107.548 125.575Z" fill="#FF7C59"/>
<path opacity="0.95" d="M107.034 126.701C107.469 126.701 107.904 127.05 108.007 127.506C108.032 127.613 108.032 127.72 108.007 127.828C107.93 128.042 107.674 128.096 107.469 128.096C107.136 128.123 106.778 128.069 106.573 127.774C106.368 127.506 106.47 127.05 106.752 126.862C106.982 126.728 106.778 126.701 107.034 126.701Z" fill="#FF7C59"/>
<path opacity="0.75" d="M110.415 132.28C110.53 132.4 110.561 132.603 110.435 132.713C110.4 132.745 110.358 132.77 110.312 132.789C109.877 132.977 109.39 132.923 108.955 132.736C107.905 132.28 107.188 131.127 107.162 129.947C107.162 129.705 107.188 129.464 107.367 129.303C107.521 129.196 107.726 129.196 107.905 129.276C108.084 129.357 108.212 129.517 108.315 129.678C108.596 130.107 108.724 130.617 109.032 131.046C109.39 131.556 109.954 131.851 110.415 132.28Z" fill="#FF7C59"/>
<path opacity="0.75" d="M111.902 133.406C112.106 133.164 112.465 133.164 112.772 133.218C113.438 133.352 113.976 133.781 114.591 134.076C115.129 134.318 115.692 134.425 116.256 134.505C117.203 134.639 118.202 134.72 119.15 134.532C120.097 134.371 121.045 133.942 121.711 133.218C122.095 132.816 122.377 132.36 122.659 131.877C122.761 131.716 122.838 131.555 122.94 131.394C123.145 131.019 123.401 130.992 123.581 130.992C123.745 130.992 123.866 131.059 123.944 131.317C123.959 131.368 123.965 131.421 123.965 131.475C123.965 131.555 123.99 131.609 123.99 131.689C123.99 131.725 123.987 131.761 123.98 131.796C123.793 132.742 123.312 133.633 122.659 134.318C121.532 135.471 119.969 136.061 118.381 136.195C116.819 136.329 115.231 136.061 113.694 135.658C112.875 135.444 111.902 135.068 111.697 134.21C111.671 133.942 111.697 133.62 111.902 133.406Z" fill="#FF7C59"/>
<path opacity="0.75" d="M123.989 127.479C124.246 127.613 124.399 127.935 124.425 128.257C124.45 128.498 124.374 128.766 124.169 128.927C124.015 129.061 123.785 129.061 123.605 129.008C123.426 128.954 123.247 128.847 123.093 128.713C123.042 128.659 122.991 128.632 122.939 128.579C122.863 128.471 122.837 128.337 122.837 128.23C122.837 127.791 123.216 127.391 123.655 127.395C123.764 127.395 123.877 127.42 123.989 127.479Z" fill="#FF7C59"/>
<path opacity="0.75" d="M123.733 130.108C123.656 130.269 123.477 130.349 123.298 130.349C123.195 130.349 123.119 130.322 123.042 130.242C122.965 130.134 122.965 129.974 123.016 129.839C123.044 129.767 123.079 129.702 123.126 129.654C123.205 129.572 123.295 129.568 123.408 129.577C123.537 129.587 123.697 129.661 123.741 129.783C123.778 129.888 123.766 130.003 123.733 130.108Z" fill="#FF7C59"/>
<path d="M33.0514 61.0866C33.0235 59.6324 34.6603 60.0632 34.7908 61.5117L35.035 64.2233L35.0692 64.5535L35.2246 66.2187C35.3173 67.2123 34.165 68.0169 33.8722 67.0629C33.8105 66.8844 33.6378 65.9819 33.4791 64.887C33.4438 64.6435 33.4209 64.3955 33.3592 64.1573C33.1882 63.0347 33.0514 61.846 33.0514 61.0866Z" fill="#2D1C64"/>
<path d="M34.8772 64.2373C34.964 64.231 35.0415 64.2936 35.0505 64.3801C35.0601 64.4728 34.9875 64.5535 34.8943 64.5534C34.4496 64.5531 33.9187 64.5504 33.5051 64.5274C33.4368 64.5236 33.3804 64.489 33.3689 64.4216C33.3485 64.3013 33.4579 64.177 33.579 64.1917C33.9552 64.2373 34.42 64.2702 34.8772 64.2373Z" fill="#403384"/>
<path d="M32.1955 49.2004C32.3139 47.486 34.2611 48.2991 34.1917 50.0162L34.0765 52.8654V53.2617V55.1131C34.0765 56.2283 32.6871 57.0031 32.5033 55.9031C32.4691 55.672 32.3323 54.4503 32.2639 53.0636C32.2639 52.7983 32.222 52.534 32.2093 52.269C32.1552 51.139 32.1343 49.9979 32.1955 49.2004Z" fill="#2D1C64"/>
<path d="M33.8792 52.8712C33.9865 52.8707 34.0764 52.956 34.0764 53.0633C34.0764 53.1714 33.9856 53.2572 33.8779 53.2501C33.3828 53.2176 32.806 53.1637 32.3626 53.0883C32.2851 53.0751 32.2305 53.0083 32.2282 52.9297C32.2246 52.8083 32.3343 52.6967 32.4536 52.7194C32.86 52.7965 33.3718 52.8736 33.8792 52.8712Z" fill="#403384"/>
<path d="M59.8613 39.8924C59.8468 40.6408 59.7747 41.3844 59.7959 42.1326C59.9341 47.0215 60.3906 66.443 59.0782 71.2232C58.9414 71.6854 58.8046 72.0156 58.6336 72.1807C56.5473 74.1948 40.1651 76.308 36.6766 71.1241C32.4699 64.8837 34.3168 43.6859 34.5904 40.9784C34.7272 39.6576 35.3428 38.502 36.3004 37.5445L36.3346 37.5114L36.3688 37.4784L36.403 37.4454L36.4372 37.4124C40.6781 33.4172 50.87 32.5587 55.3503 33.6483C59.4088 34.6339 59.8963 38.0869 59.8613 39.8924Z" fill="#2D1C64"/>
<path d="M58.0177 71.3249C58.5239 71.2788 58.9993 71.8275 58.6336 72.1806C56.5473 74.1947 40.1651 76.3079 36.6766 71.124C32.4699 64.8835 34.3168 43.6857 34.5904 40.9782C34.7272 39.6575 35.3428 38.5019 36.3004 37.5443L36.3346 37.5113L36.3688 37.4783L36.403 37.4453L36.4372 37.4122C36.8476 37.016 38.6603 35.6293 41.0543 37.2141C43.8246 39.0632 39.8573 45.0395 40.2335 55.3082C40.6097 65.5769 41.1227 72.0815 44.3034 72.0485C46.3228 72.0176 52.6679 71.8126 58.0177 71.3249Z" fill="#403384"/>
<path d="M44.5424 34.8225C44.4792 34.9523 44.3537 35.0018 44.2186 34.9511C44.0088 34.8723 43.9027 34.6236 44.0019 34.4226C44.4237 33.568 45.5791 31.5806 47.4153 31.5012C49.1096 31.412 49.9437 32.796 50.1926 33.7473C50.235 33.9094 50.1201 34.064 49.9544 34.0893C49.7702 34.1173 49.5795 33.9767 49.5244 33.7987C49.3417 33.2083 48.7998 32.0784 47.4495 32.1285C45.9041 32.2114 44.8616 34.167 44.5424 34.8225Z" fill="#2D1C64"/>
<path d="M63.9629 44.1216C63.8199 41.4216 66.7426 40.1015 68.0928 42.444C68.4153 43.0036 68.7104 43.5949 68.958 44.2114C69.5087 45.5826 68.4573 46.9411 66.9912 47.1257C65.4515 47.3196 64.0711 46.1656 63.9891 44.616L63.9629 44.1216Z" fill="#1F73AF"/>
<path d="M42.6542 128.167C41.7722 128.12 41.252 128.967 41.1812 129.848L41.1499 130.236C41.0729 131.193 41.5935 132.1 42.5509 132.17C43.4231 132.233 44.1667 131.56 44.3777 130.711L44.6013 129.812C44.7645 129.155 44.5473 128.608 43.9017 128.406C43.534 128.291 43.0956 128.19 42.6542 128.167Z" fill="#FCB38F"/>
<path d="M44.2711 136.435C44.21 136.907 43.8124 137.26 43.3366 137.26H31.5958C31.1352 137.26 30.7488 136.881 30.8643 136.435C31.0695 135.642 31.6167 134.949 32.3692 134.52C33.4582 133.906 34.817 133.47 35.8525 133.195C36.8741 132.924 37.8512 132.456 38.7542 131.907C39.1601 131.66 39.5835 131.42 39.9449 131.222C40.5397 130.896 41.9391 131.091 42.6096 131.194C43.9049 131.394 44.5774 132.203 44.5697 133.514C44.5638 134.509 44.4065 135.482 44.2711 136.435Z" fill="#F5345A"/>
<path d="M43.8018 136.436C44.0506 136.436 44.2433 136.655 44.2132 136.902C44.1881 137.108 44.0133 137.261 43.806 137.261H31.2319C30.9722 137.261 30.7577 137.041 30.7943 136.784C30.8246 136.572 31.014 136.436 31.2283 136.436H43.8018Z" fill="#BD185A"/>
<path d="M66.9686 128.717C67.4834 128.79 67.8159 129.254 67.9642 129.752L68.1067 130.231C68.3361 131.001 67.9079 131.813 67.1428 132.06C66.2598 132.344 65.3363 131.754 65.223 130.833L65.1238 130.027C65.0637 129.539 65.223 129.071 65.6807 128.89C66.0255 128.753 66.4788 128.648 66.9686 128.717Z" fill="#FCB38F"/>
<path d="M75.0149 136.535C75.1337 136.936 74.7343 137.263 74.316 137.263H66.094C65.5795 137.263 65.1239 136.935 64.9949 136.437C64.8315 135.716 64.6682 134.58 64.7656 133.217C64.8495 132.046 65.8196 131.339 66.992 131.272C67.713 131.231 68.6479 131.098 69.2606 131.48C69.5344 131.651 69.8654 131.875 70.2558 132.167C70.8789 132.633 71.5937 132.971 72.3054 133.286C73.326 133.738 74.7121 134.651 74.9674 136.334C74.9777 136.402 74.9955 136.469 75.0149 136.535Z" fill="#F5345A"/>
<path d="M75.0705 136.807C75.0819 137.06 74.8588 137.261 74.6053 137.261H65.5401C65.3572 137.261 65.2539 137.326 65.1987 137.151C65.114 136.884 65.2687 136.436 65.5491 136.436H74.6298C74.8572 136.436 75.0602 136.58 75.0705 136.807Z" fill="#BD185A"/>
<path d="M49.8604 73.9291C46.5258 74.3823 44.5335 77.3393 44.2898 80.6957L40.923 127.077C40.828 128.387 41.8648 129.502 43.1778 129.502C44.2359 129.502 45.1524 128.768 45.3837 127.735L47.3725 118.858C47.5379 118.12 47.7933 117.407 48.0811 116.707C49.4916 113.277 51.0326 107.403 51.1293 103.162C51.1553 102.018 51.226 100.871 51.4693 99.7528C52.3693 95.6157 53.0243 90.5439 53.6174 85.1746C53.7052 84.38 53.9308 83.7567 54.7279 83.8164C55.5616 83.879 56.8621 84.4812 56.9265 85.3148C57.3093 90.2663 58.1862 95.1818 59.5389 100.132C59.8766 101.368 59.9855 102.653 60.0061 103.934C60.0629 107.469 60.9187 112.077 61.8258 114.985C62.0304 115.642 62.208 116.307 62.3096 116.986L63.9084 127.687C64.0725 128.785 64.7489 129.752 65.8584 129.798C67.2672 129.856 68.2636 128.472 68.1939 127.063L65.5427 73.5024C65.5427 73.5522 56.4087 73.0391 49.8604 73.9291Z" fill="#282A3A"/>
<path d="M54.6378 36.1105C52.7009 35.7123 50.6878 35.9351 48.8848 36.747C44.8538 38.5621 42.6321 42.9405 43.5473 47.2656L45.899 58.3799C46.112 59.3864 46.1684 60.4196 46.0662 61.4433L45.7148 64.9638C45.1508 70.6146 49.4104 75.6332 55.082 75.3477C56.3496 75.2839 57.637 75.1884 58.883 75.0497C62.9893 74.5928 65.3982 70.815 65.1771 66.6893L63.9507 43.7981C63.7465 39.9866 60.7628 36.9094 56.9595 36.5877L54.6378 36.1105Z" fill="#2B92D5"/>
<path d="M61.6342 36.4181C60.242 35.8643 59.5292 37.6986 59.8924 39.1523C60.6946 42.3628 62.1411 48.2969 63.2981 53.8409C63.6594 55.5719 65.928 55.517 65.7491 53.7577C65.3009 49.3493 63.453 40.9313 62.799 38.0299C62.6491 37.3644 62.3294 36.7155 61.7026 36.4464C61.6801 36.4368 61.6574 36.4273 61.6342 36.4181Z" fill="#2D1C64"/>
<path d="M45.9988 40.6998C45.3639 39.3028 45.2352 37.476 46.6994 37.0166C47.6067 36.7246 48.0234 36.8146 48.1972 36.902C48.2793 36.9433 48.3327 37.0188 48.3841 37.0951C49.1003 38.1586 54.4713 46.8016 50.6667 61.6483C50.0353 64.1137 49.0067 65.9177 48.0131 67.1881C47.0085 68.4725 45.4248 67.5801 45.5723 65.9562C45.6683 64.9002 46.0916 63.3582 46.4488 62.3599C47.7632 58.6875 50.0954 49.7141 45.9988 40.6998Z" fill="#2D1C64"/>
<path d="M56.0336 33.9735C56.8553 35.1694 57.0108 36.6766 56.6163 38.073C56.5742 38.2154 56.4576 38.3263 56.3098 38.3418C55.0378 38.4752 53.7326 37.5548 52.8357 36.726C52.0399 35.9908 51.7326 34.9011 51.8072 33.8203C51.9417 31.8732 53.4255 30.7492 54.7007 32.2266C55.0998 32.689 55.484 33.1961 55.8297 33.6816C55.8995 33.7798 55.9675 33.8773 56.0336 33.9735Z" fill="#FCB38F"/>
<path d="M56.9225 35.3604C57.1274 35.6997 57.1736 36.1083 57.0658 36.4897C56.8253 37.3413 55.8814 37.7939 55.2673 37.1568C54.6416 36.5077 54.1925 35.6627 53.8744 34.8514C53.4539 33.779 54.5972 32.9818 55.5876 33.5702C55.7487 33.6659 55.8893 33.793 55.9977 33.9458C56.3822 34.488 56.7038 34.9982 56.9225 35.3604Z" fill="#FD8471"/>
<path d="M52.1641 22.9392C51.7977 23.6925 51.6749 24.5287 51.6758 25.3663C51.6773 26.7513 51.7382 29.0255 52.0685 30.8753C52.5816 33.7479 56.1727 36.9507 57.9169 36.8186C59.6611 36.6865 61.85 33.1866 62.3972 32.2621C62.9444 31.3376 63.6626 26.4178 63.5942 25.4933C63.5258 24.5358 61.7474 20.5406 57.5065 19.6491C54.5612 19.0299 52.9026 21.4206 52.1641 22.9392Z" fill="#FCB38F"/>
<path d="M50.8776 26.2994C50.6736 26.0544 50.5491 25.7531 50.5389 25.4344C50.5133 24.639 50.5281 23.0473 50.9745 21.9938C51.657 20.3832 53.344 19.2665 54.7072 18.1705C55.6173 17.4387 56.8119 16.8345 58.1567 17.041C61.1664 17.4702 63.6972 17.9985 64.347 19.5504C64.8896 20.8461 64.4546 22.9244 63.9977 23.7289C63.8737 23.9472 63.7472 24.2044 63.7597 24.4552C63.763 24.521 63.7661 24.5926 63.7685 24.6684C63.7859 25.211 63.1053 25.2676 62.7396 24.8664C61.9872 24.0409 60.8585 24.3381 60.1403 24.7673C59.4221 25.1965 58.4987 25.0314 57.3017 24.3381C56.1046 23.6447 53.8474 24.6022 53.8132 25.1965C53.799 25.4427 53.4796 25.8986 53.1103 26.3482C52.5307 27.0539 51.462 27.0012 50.8776 26.2994Z" fill="#382420"/>
<path d="M51.6967 26.7945C51.6712 26.4793 51.6154 26.1606 51.4378 25.899C51.1986 25.5468 50.7583 25.1439 50.0851 25.4282C49.5263 25.6642 49.1993 27.0363 49.4409 28.301C49.8276 30.3249 51.8629 28.8483 51.6967 26.7945Z" fill="#FCB38F"/>
<path d="M51.4102 28.1441C51.443 28.451 51.2613 28.4992 51.2126 28.1945C51.1986 28.107 51.1326 27.9773 51.0462 27.9579C50.9928 27.9459 50.937 27.9392 50.8821 27.9362C50.7004 27.9264 50.62 27.6997 50.795 27.6495C50.96 27.6022 51.0554 27.442 50.9914 27.2826C50.9629 27.2115 50.9343 27.1528 50.9057 27.1115C50.698 26.8508 50.516 26.3625 50.8373 26.4511C51.098 26.5285 51.3234 27.3325 51.4102 28.1441Z" fill="#FD8471"/>
<path d="M53.3865 28.5165C53.3742 28.3669 53.6169 28.3025 53.7669 28.3077C54.4826 28.3327 56.7251 28.4264 58.109 28.657C58.4624 28.7159 58.8153 28.776 59.1726 28.8025C59.7018 28.8418 60.2327 28.8148 60.7561 28.727C61.6161 28.5827 62.9835 28.3625 63.8247 28.2736C64.1923 28.2348 64.8663 28.3541 64.6209 28.6306C64.597 28.6536 64.4558 28.8556 64.4386 28.8839L63.287 30.7768C63.1604 31.0213 62.8477 31.0835 62.5806 31.1504C62.0429 31.2851 61.236 31.4323 60.551 31.3051C60.4325 31.2822 60.3468 31.2276 60.2712 31.1523C60.2018 31.083 60.1519 30.9974 60.1078 30.9098C59.9812 30.6578 59.8107 30.2953 59.7098 29.9706C59.6433 29.7564 59.46 29.5796 59.236 29.5682C59.0763 29.5601 58.9246 29.6376 58.832 29.7681C58.5659 30.1434 57.9698 30.9221 57.3361 31.3381C57.1993 31.4372 57.0625 31.4702 56.8915 31.4702C56.3443 31.5032 54.942 31.4702 53.8476 31.074C53.6082 30.9749 53.4714 30.7438 53.4714 30.5126L53.5622 29.4606C53.5907 29.1303 53.4136 28.847 53.3865 28.5165Z" fill="#1D1E1E"/>
<path d="M51.6659 26.7041C51.6667 26.4847 51.8941 26.0992 52.052 26.2514C52.6049 26.7842 53.1972 27.4738 53.792 28.1846C53.8677 28.275 53.8844 28.401 53.8351 28.508C53.7436 28.7068 53.479 28.7477 53.3317 28.5859L51.7846 26.8863C51.7144 26.8092 51.6656 26.8084 51.6659 26.7041Z" fill="#1D1E1E"/>
<path d="M64.2567 28.622C64.4445 28.5787 64.5105 28.2616 64.3978 28.1053L63.9092 27.4272C63.7601 27.2202 63.4346 27.3035 63.4031 27.5566C63.3939 27.6309 63.4147 27.7057 63.4609 27.7646L64.0043 28.4561C64.0907 28.566 64.1205 28.6534 64.2567 28.622Z" fill="#1D1E1E"/>
<path d="M58.9637 32.9779C58.7826 32.9424 58.9298 32.7688 59.1139 32.757C59.3695 32.7394 59.6042 32.9362 59.3533 32.9881C59.2183 33.0055 59.088 33.0023 58.9637 32.9779Z" fill="#FD8471"/>
<path d="M57.018 34.4769C56.3363 33.9424 56.1462 33.1358 56.9889 33.3363C58.0499 33.5887 59.5163 34.9928 58.4262 35.0234C58.3282 35.0261 58.2268 35.0198 58.1221 35.003C57.7094 34.9209 57.3312 34.7225 57.018 34.4769Z" fill="white"/>
<path d="M45.8093 56.3615C46.3257 58.5418 45.7184 60.6126 43.5552 61.1967C41.7984 61.671 39.8793 60.3942 39.594 58.597L38.6948 52.9327C38.387 50.3242 38.2844 48.2441 38.4896 46.5271C38.772 43.7098 38.968 41.8653 41.3229 40.2795C41.6735 40.0434 42.1426 40.2192 42.2859 40.6168C42.5595 41.9376 42.9357 43.9847 43.2777 45.4705C44.1669 49.3667 44.8851 52.4044 45.3981 54.6827C45.5008 55.1779 45.6376 55.6402 45.7402 56.0694C45.7636 56.1687 45.7867 56.266 45.8093 56.3615Z" fill="#1F73AF"/>
<path opacity="0.5" d="M45.6411 55.7069C45.7018 55.9455 45.61 56.1947 45.4119 56.341C45.2146 56.4865 44.9404 56.6914 44.6233 56.9354C44.1416 57.306 43.0769 56.4831 43.5504 56.1021C43.9398 55.7915 44.2957 55.5133 44.6056 55.2795C44.9821 54.9955 45.5126 55.2026 45.6291 55.6597C45.6331 55.6755 45.6371 55.6912 45.6411 55.7069Z" fill="#0071B6"/>
<path d="M42.4697 58.7076C40.826 60.0525 39.943 62.3038 41.0319 64.1272C41.5085 64.9251 42.1857 65.6478 43.1406 65.9746C45.6248 66.8246 48.5137 62.5668 50.8238 57.5126C51.1964 56.6974 51.0347 55.7416 50.4362 55.0744C49.46 53.9861 47.7475 54.0882 46.7379 55.1456C45.3528 56.5962 44.1767 57.311 42.4697 58.7076Z" fill="#1F73AF"/>
<path d="M51.3111 51.1892C51.0058 51.1169 50.7373 50.8808 50.6977 50.5696C50.6311 50.046 49.9966 49.8565 49.6832 50.2812C49.0704 51.1116 48.3713 52.2434 48.51 52.9319C48.7494 54.1206 48.9546 57.9507 50.8698 57.5545C52.7851 57.1583 53.9137 55.8706 53.6401 54.0546C53.3529 51.9752 52.061 51.367 51.3111 51.1892Z" fill="#FCB38F"/>
<path d="M79.3967 128.167C78.509 128.121 77.982 128.973 77.9108 129.859L77.8804 130.237C77.8034 131.194 78.3239 132.101 79.2814 132.17C80.1536 132.234 80.8972 131.56 81.1082 130.712L81.3317 129.812C81.4949 129.156 81.279 128.606 80.6335 128.404C80.2697 128.29 79.836 128.19 79.3967 128.167Z" fill="#FCB38F"/>
<path d="M81.0005 136.435C80.9395 136.907 80.5419 137.261 80.0661 137.261H68.3595C67.8988 137.261 67.5125 136.881 67.628 136.435C67.8674 135.643 68.3804 134.949 69.1328 134.52C70.2219 133.907 71.5807 133.47 72.6161 133.196C73.6378 132.925 74.6148 132.456 75.5179 131.907C75.9238 131.66 76.3472 131.421 76.7086 131.223C77.3034 130.896 78.7027 131.092 79.3732 131.195C80.6686 131.394 81.34 132.205 81.3196 133.516C81.3041 134.51 81.1359 135.483 81.0005 136.435Z" fill="#0096D0"/>
<path d="M80.5312 136.435C80.7801 136.435 80.9728 136.655 80.9426 136.902C80.9175 137.108 80.7428 137.261 80.5354 137.261H67.9956C67.7359 137.261 67.5213 137.041 67.558 136.784C67.5882 136.571 67.7777 136.435 67.9919 136.435H80.5312Z" fill="#0071B6"/>
<path d="M100.127 127.782C98.7616 127.718 98.182 129.134 98.6988 130.399L98.9241 130.951C99.096 131.372 99.445 131.695 99.8778 131.835C100.973 132.187 102.054 131.257 101.869 130.122L101.703 129.104C101.589 128.402 101.113 127.857 100.404 127.8C100.315 127.793 100.222 127.786 100.127 127.782Z" fill="#FCB38F"/>
<path d="M92.6968 136.437C92.6362 136.906 93.019 137.263 93.4911 137.263H101.619C102.133 137.263 102.589 136.935 102.718 136.437C102.886 135.694 102.784 134.394 102.505 132.895C102.303 131.805 101.32 131.185 100.213 131.23C99.5536 131.257 98.7073 131.206 98.1729 131.593C97.9351 131.765 97.6392 131.988 97.2741 132.276C96.7573 132.683 96.1506 132.964 95.5422 133.214C94.493 133.645 92.9217 134.592 92.6968 136.437Z" fill="#0096D0"/>
<path d="M92.6542 136.834C92.6391 137.072 92.8421 137.262 93.0798 137.262H102.173C102.356 137.262 102.459 137.327 102.514 137.153C102.599 136.885 102.444 136.437 102.164 136.437H93.1081C92.8729 136.437 92.6692 136.6 92.6542 136.834Z" fill="#0071B6"/>
<path d="M101.851 81.8824C102.176 77.4735 98.5036 74.2125 94.0925 73.9185C93.3684 73.8703 92.6241 73.8222 91.8756 73.7758C86.8846 73.4667 82.6264 77.0937 81.9563 82.0493C81.0908 88.4511 80.3726 94.7572 80.4198 100.544L77.7581 127.088C77.6267 128.398 78.6554 129.535 79.972 129.535C81.0134 129.535 81.9154 128.812 82.1431 127.796L84.1381 118.891C84.3036 118.153 84.5589 117.44 84.8467 116.74C86.2593 113.305 87.8028 107.419 87.8953 103.176C87.92 102.044 87.9899 100.91 88.2309 99.804C89.152 95.5766 89.8165 90.3708 90.4204 84.868C90.477 84.3526 90.6349 83.8509 91.1465 83.9357C91.6027 84.0113 92.528 84.3239 92.4949 84.7852C92.2553 88.1174 91.4422 99.6239 91.3358 103.742C91.3163 104.493 91.4281 105.236 91.6228 105.962L97.2176 126.816C97.5083 127.9 98.5564 128.6 99.6686 128.455C100.843 128.301 101.696 127.26 101.624 126.077C101.431 122.88 101.121 116.799 101.317 113.289C101.479 110.19 100.944 107.541 100.338 105.616C99.6304 103.368 99.1234 100.985 99.482 98.6562C100.213 93.9064 101.442 85.7779 101.795 82.5494C101.817 82.3239 101.835 82.1015 101.851 81.8824Z" fill="#282A3A"/>
<path d="M88.8663 33.8146C87.9703 31.2195 85.2215 29.4933 86.3023 26.9695C87.2854 24.6736 89.1187 22.4852 91.9102 23.0506C96.3905 23.9751 99.5712 24.4374 100.802 26.8477C102.034 29.2581 102.239 29.9845 102.786 32.692C103.539 36.423 99.8106 38.8664 103.368 40.1211C107.095 41.4418 108.087 46.6257 106.548 49.2012C105.009 51.7766 106.753 52.3379 105.933 55.5737C105.112 58.8095 96.6983 61.0547 94.5095 57.852C93.073 55.7388 83.189 53.2954 82.6418 45.7012C81.9236 36.1259 89.3452 35.2014 88.8663 33.8146Z" fill="#2C1817"/>
<path d="M101.966 49.2338C100.563 51.446 98.0668 58.512 98.3062 61.2195C98.3988 62.2799 98.7833 63.8891 99.3388 65.7581C100.944 71.1591 98.2904 76.9601 92.656 77.0047C92.3477 77.0072 92.0343 77.0059 91.7159 77.0004C86.1496 76.9047 83.1804 71.1192 84.2958 65.6649C84.762 63.3852 85.1046 61.1243 85.1046 59.4035C85.1046 55.5904 84.2806 50.9155 84.2867 47.7859C84.2905 45.8295 85.805 44.4951 87.5436 43.598C88.0674 43.3277 88.6079 43.032 89.1061 42.7292C89.1534 42.7009 89.2003 42.6725 89.2467 42.644C90.3263 41.9796 91.5631 41.4648 92.8086 41.2291C92.9212 41.2078 93.0363 41.1841 93.1536 41.1576C94.5616 40.8392 96.1167 40.8667 97.3143 41.6726C98.6917 42.5676 100.028 43.5418 101.323 44.1198C102.045 44.4418 102.635 44.8751 102.725 45.6603C102.832 46.5952 102.771 47.9635 101.966 49.2338Z" fill="#3FD9D7"/>
<path d="M95.525 40.4004C96.387 40.9983 96.9735 42.3927 96.3507 43.2369C95.3389 44.6082 93.8143 46.2281 92.0457 46.5923C90.3888 46.9277 89.6507 45.4487 89.3256 43.951C89.1654 43.2131 89.6524 42.4466 90.242 41.9748C90.7022 41.6066 91.1915 41.4248 91.7788 41.3744C92.5816 41.3055 93.789 41.1096 94.9302 40.5648C95.2423 40.4158 95.2409 40.2033 95.525 40.4004Z" fill="#FCB38F"/>
<path d="M95.0776 39.6205C95.5316 40.562 95.4406 41.7145 94.5222 42.2137C94.3587 42.3026 94.1891 42.3852 94.0167 42.4617C92.5304 43.1214 90.9743 41.7197 90.6819 40.12C90.4758 38.9265 91.2639 37.7734 92.4582 37.5719L93.7942 37.3465C93.895 37.327 93.9962 37.3779 94.0408 37.4704L95.0776 39.6205Z" fill="#FCB38F"/>
<path d="M91.3451 37.7604C92.2598 37.606 92.867 38.6073 92.1623 39.2105C92.0229 39.3299 91.8778 39.4444 91.7274 39.5516C91.2231 39.9112 90.5013 39.1049 90.3825 38.497C90.2753 37.9482 90.7297 37.8642 91.2812 37.7712L91.3451 37.7604Z" fill="#FD8471"/>
<path d="M90.9272 25.1417C89.8071 25.1358 88.8611 25.8501 88.0783 26.6513C87.1859 27.5647 86.0998 28.7472 85.9615 29.2242C85.6028 30.4114 85.0157 31.537 84.0493 32.3144L83.7042 32.592C83.5332 32.7241 83.499 32.9883 83.67 33.1533C83.6887 33.1714 83.708 33.19 83.7279 33.2091C84.2275 33.6887 84.4503 34.4175 84.5593 35.1014C84.6277 35.5307 84.4909 37.7429 84.3541 38.1721C84.2173 38.6014 85.1749 39.757 86.7139 39.3938C88.253 39.0306 94.4091 38.007 96.085 35.8609C97.7266 33.6816 97.6582 29.5213 97.5898 28.4978C97.5328 27.6177 93.8692 25.157 90.9272 25.1417Z" fill="#FCB38F"/>
<path d="M85.0175 36.6559C84.7917 36.061 84.7648 35.5144 85.4006 35.54C86.3306 35.5776 87.798 36.443 87.0431 36.9874C86.7176 37.2221 86.3246 37.3726 85.8584 37.3461C85.4023 37.3195 85.1528 37.0124 85.0175 36.6559Z" fill="white"/>
<path d="M83.9005 29.0258C84.0196 28.5818 84.4786 28.3428 84.9238 28.4577C85.2188 28.5338 85.5135 28.651 85.6197 28.8268C85.8924 29.2218 86.3589 29.3887 86.8357 29.445C87.0906 29.4751 87.3567 29.5201 87.5349 29.5862C87.7669 29.6724 88.1199 29.9473 88.4045 30.1905C88.7128 30.454 89.0877 30.6333 89.491 30.6766L91.0273 30.8414C91.1944 30.8593 91.3146 31.0105 91.2942 31.1774C91.2762 31.3256 91.1523 31.4382 91.0031 31.4421L89.9514 31.47C89.2546 31.4884 88.6684 31.983 88.4206 32.6346C88.172 33.2882 87.7983 33.9915 87.3297 34.0437C86.484 34.1744 85.5044 32.8513 85.8804 30.6177C85.888 30.5725 85.8711 30.5259 85.8354 30.4972C85.7656 30.441 85.661 30.4744 85.6366 30.5607L85.5191 30.9768C85.4955 31.0602 85.4464 31.1339 85.3785 31.1876C85.3608 31.2016 85.3412 31.2171 85.3199 31.234C84.8457 31.6092 83.7658 31.173 83.7499 30.5685C83.7366 30.0656 83.7677 29.521 83.9005 29.0258Z" fill="#1D1E1E"/>
<path d="M88.5196 25.5518C88.0467 25.935 88.5346 26.2797 89.142 26.3188C89.655 26.3188 89.5866 29.6866 90.6811 30.9744C91.7755 32.2621 91.8781 38.0733 93.7249 38.8327C95.5718 39.5922 97.3502 37.4129 98.0685 34.6724C98.3032 33.7769 98.5013 32.7544 98.6618 31.7836C99.0529 29.4175 98.3652 26.6954 96.29 25.4933C96.1163 25.4095 91.7771 22.9127 88.5196 25.5518Z" fill="#2C1817"/>
<path d="M101.437 60.5355C100.97 61.5721 99.8037 62.0761 98.7127 61.7552L98.5956 61.7207C97.3238 61.3466 96.649 59.9539 97.109 58.7106C97.2116 58.4134 97.3483 58.0832 97.4852 57.72C98.5581 54.8637 99.9401 50.8138 100.309 48.492C100.346 48.2603 100.314 48.3149 100.372 48.0876C100.975 45.7461 103.825 45.5555 104.475 47.8844C104.61 48.3655 104.705 48.8935 104.736 49.4654C104.878 52.0801 102.953 57.1725 101.437 60.5355Z" fill="#FCB38F"/>
<path d="M98.6293 58.2158C99.2608 58.5953 98.7309 59.1464 98.0262 58.9319C97.9168 58.8987 97.8125 58.8689 97.7155 58.8427C97.4189 58.7626 97.2278 58.4718 97.3393 58.1855C97.4351 57.9397 97.718 57.782 97.9619 57.8825C98.2122 57.9856 98.4336 58.0981 98.6293 58.2158Z" fill="#FD8471"/>
<path d="M98.1243 59.3491C97.6336 58.971 97.0804 58.6829 96.4823 58.5217C95.7066 58.3125 94.4801 58.0057 93.0046 57.7208C92.1961 57.5575 90.7879 56.8951 89.6839 56.3317C88.8439 55.9031 87.8029 56.3069 87.505 57.2016C87.2976 57.8246 87.5196 58.5096 88.0583 58.8852C90.0563 60.2781 94.851 63.5295 97.0403 64.2255C97.7242 64.4482 98.3048 64.4064 98.7923 64.2148C100.787 63.4305 99.8218 60.657 98.1243 59.3491Z" fill="#FCB38F"/>
<path d="M88.5592 57.3245C88.3198 58.4472 87.0886 58.6122 86.0284 58.117C84.6603 57.4896 83.2239 56.7962 82.7451 55.7066C81.9927 53.9567 81.8559 51.9756 82.4373 52.0086C82.907 52.0338 85.089 52.6164 86.0969 52.8912C86.3779 52.9678 86.6657 52.7965 86.733 52.5132C86.8334 52.0899 87.3548 51.996 87.5453 52.3872C88.1827 53.6962 88.5469 55.3256 88.6587 55.8772C88.6848 56.0059 88.6964 56.1356 88.6897 56.2668C88.6784 56.4896 88.6469 56.8799 88.5592 57.3245Z" fill="#FCB38F"/>
<path d="M61.9516 68.0209C60.7888 67.9219 59.6943 66.337 60.0705 65.2804C60.5494 63.8936 61.165 63.1342 62.2252 62.5399C63.9352 61.6153 65.5769 62.4078 65.6111 63.0021C65.6342 63.4046 65.5947 64.4583 65.5667 65.0966C65.5535 65.3976 65.7485 65.6685 66.0385 65.7502C66.5317 65.889 66.6686 66.5147 66.2504 66.8107C65.5054 67.3379 64.9272 67.6047 64.6807 67.7064C64.5946 67.742 64.5053 67.764 64.4132 67.7779C63.9665 67.8452 62.5523 68.0485 61.9516 68.0209Z" fill="#FCB38F"/>
<path d="M65.8622 66.1718C65.7315 66.3209 65.8278 66.5534 66.0258 66.5635C67.333 66.6304 70.9931 66.766 73.2382 66.3379C74.6388 66.0708 74.2126 64.7872 72.8044 65.0113L66.0046 66.0932C65.9494 66.102 65.899 66.1298 65.8622 66.1718Z" fill="#FCB38F"/>
<path d="M80.4213 44.3337C84.5113 43.7073 87.937 47.4165 86.9882 51.444C86.7828 52.3092 85.8999 52.8304 85.04 52.6037C84.0037 52.3306 82.7777 52.0234 82.4395 52.0053C81.8238 51.9723 81.9948 53.9534 82.7473 55.7033C82.8251 55.8787 82.9288 56.0446 83.0539 56.2021C84.1267 57.5525 85.1996 59.0516 84.8035 60.7302C84.4689 62.1478 83.3225 63.2301 81.8881 63.4826L67.1988 66.0688C67.1902 66.0703 67.1815 66.0711 67.1728 66.0711C67.1588 66.0711 67.1448 66.0691 67.1314 66.0653L66.9091 66.0013C66.1096 65.7714 65.5761 65.0213 65.6024 64.1899C65.6178 63.706 65.6266 63.2295 65.6126 63.0004C65.5784 62.4061 63.9368 61.6136 62.2267 62.5381C61.0154 63.2064 59.612 63.8822 58.2838 63.495L54.0485 62.2599C52.9076 61.9273 52.0703 60.9529 51.9132 59.7749C51.7251 58.3649 52.7976 57.1132 53.4205 55.8344C53.6715 55.3191 53.7639 54.7081 53.6765 54.0194C53.5015 52.8495 53.0137 52.1453 52.4865 51.7214C51.6584 51.0555 50.6665 50.2856 50.53 49.2317C49.9658 45.061 53.8708 41.6842 57.9165 42.8445L67.0299 45.4581C68.4171 45.856 69.8739 45.9489 71.3004 45.7304L80.4213 44.3337Z" fill="#FFDAD2"/>
<path opacity="0.5" d="M80.4223 44.338C84.5116 43.7107 87.9376 47.4191 86.9888 51.446C86.7834 52.3113 85.9005 52.8325 85.0406 52.6058C84.0044 52.3327 82.7783 52.0255 82.4401 52.0074C81.8245 51.9743 81.9955 53.9554 82.7479 55.7054C82.8258 55.8808 82.9295 56.0467 83.0546 56.2041C84.1273 57.5546 85.2003 59.0537 84.8041 60.7323C84.4696 62.1499 83.3232 63.2322 81.8887 63.4847L78.5681 64.0693C72.8521 65.0757 67.754 60.3486 68.3266 54.5729L68.491 52.9151C68.8907 48.8834 71.9706 45.6345 75.9753 45.0202L80.4223 44.338Z" fill="#C0D1E0" fill-opacity="0.7"/>
</g>
<defs>
<linearGradient id="paint0_linear_1051_10253" x1="70.7174" y1="41.7103" x2="70.7174" y2="-48.9298" gradientUnits="userSpaceOnUse">
<stop stop-color="#B2F3FD"/>
<stop offset="0.404" stop-color="#9EF0FC"/>
<stop offset="0.5048" stop-color="#85E0FC"/>
<stop offset="0.7326" stop-color="#52C0FD"/>
<stop offset="0.9048" stop-color="#32ACFE"/>
<stop offset="1" stop-color="#26A4FE"/>
</linearGradient>
<linearGradient id="paint1_linear_1051_10253" x1="123.447" y1="68.2191" x2="154.88" y2="65.4423" gradientUnits="userSpaceOnUse">
<stop stop-color="#DDD6A4"/>
<stop offset="0.3627" stop-color="#D3C8BE"/>
<stop offset="0.4131" stop-color="#DAD0C8"/>
<stop offset="0.5877" stop-color="#EEEAE6"/>
<stop offset="0.7373" stop-color="#FBF9F8"/>
<stop offset="0.8435" stop-color="white"/>
</linearGradient>
<linearGradient id="paint2_linear_1051_10253" x1="120.173" y1="71.3294" x2="149.196" y2="68.7191" gradientUnits="userSpaceOnUse">
<stop stop-color="#DDD6A4"/>
<stop offset="0.3627" stop-color="#D3C8BE"/>
<stop offset="0.4131" stop-color="#DAD0C8"/>
<stop offset="0.5877" stop-color="#EEEAE6"/>
<stop offset="0.7373" stop-color="#FBF9F8"/>
<stop offset="0.8435" stop-color="white"/>
</linearGradient>
<linearGradient id="paint3_linear_1051_10253" x1="-4.94233" y1="16.0387" x2="26.8569" y2="13.8221" gradientUnits="userSpaceOnUse">
<stop stop-color="#DDD6A4"/>
<stop offset="0.3627" stop-color="#D3C8BE"/>
<stop offset="0.4131" stop-color="#DAD0C8"/>
<stop offset="0.5877" stop-color="#EEEAE6"/>
<stop offset="0.7373" stop-color="#FBF9F8"/>
<stop offset="0.8435" stop-color="white"/>
</linearGradient>
<linearGradient id="paint4_linear_1051_10253" x1="-8.24396" y1="20.0066" x2="21.1187" y2="17.9227" gradientUnits="userSpaceOnUse">
<stop stop-color="#DDD6A4"/>
<stop offset="0.3627" stop-color="#D3C8BE"/>
<stop offset="0.4131" stop-color="#DAD0C8"/>
<stop offset="0.5877" stop-color="#EEEAE6"/>
<stop offset="0.7373" stop-color="#FBF9F8"/>
<stop offset="0.8435" stop-color="white"/>
</linearGradient>
</defs>
</svg>
