<svg width="150" height="335" viewBox="0 0 150 335" fill="none" xmlns="http://www.w3.org/2000/svg">
<mask id="mask0_152_6833" style="mask-type:alpha" maskUnits="userSpaceOnUse" x="0" y="0" width="150" height="335">
<rect width="150" height="335" rx="20" fill="#D9D9D9"/>
</mask>
<g mask="url(#mask0_152_6833)">
<path d="M191 0H-35V313H191V0Z" fill="url(#paint0_linear_152_6833)"/>
<path opacity="0.85" d="M178.567 211.256C168.364 211.256 158.106 211.312 147.903 211.089C137.645 210.922 127.442 210.587 117.183 210.42C111.552 210.364 106.033 210.308 100.513 209.918C56.6911 210.253 13.2037 210.531 8.40898 210.531C-0.567261 210.587 -9.5435 210.42 -18.5197 210.42C-32.3465 210.364 -46.229 211.591 -60 210.977V216.218H190.889V211.312C186.819 211.312 182.693 211.256 178.567 211.256Z" fill="#FFFEE0"/>
<path opacity="0.85" d="M171.487 202.837C160.782 202.782 150.022 202.67 139.317 202.559C124.933 202.391 43.4219 203.005 0.659313 202.726C0.436298 202.614 0.157539 202.559 -0.121227 202.503C-1.84957 202.28 -9.20898 201.778 -10.9373 201.555C-12.6099 201.276 -14.3383 200.83 -15.1745 200.05C-15.5648 199.659 -15.7878 199.269 -16.2339 198.879C-17.6834 197.652 -21.1401 197.541 -23.8163 197.875C-24.3738 197.931 -24.9313 198.043 -25.4889 197.987C-26.7154 197.875 -27.3845 197.151 -28.3323 196.705C-29.8934 195.98 -32.1792 195.98 -34.2421 195.98C-36.0262 195.98 -37.8103 196.035 -39.5944 196.035C-41.6572 196.035 -44.1661 196.203 -44.9467 197.151C-45.4485 197.708 -45.1697 198.489 -46.1175 198.935C-47.0095 199.325 -48.4034 199.158 -49.5184 198.935C-50.6335 198.712 -51.8601 198.377 -52.9751 198.6C-54.4804 198.879 -54.7592 199.771 -55.261 200.607C-55.93 200.83 -56.4876 201.165 -57.0451 201.499C-58.0486 201.499 -58.9964 201.444 -60 201.444V205.235H190.944V202.168C184.477 202.726 177.954 202.893 171.487 202.837Z" fill="#FFFEE0"/>
<path opacity="0.85" d="M190.778 205.179V199.715C189.105 199.102 186.262 199.046 183.976 199.269C183.418 199.325 182.861 199.381 182.303 199.325C181.077 199.213 180.408 198.656 179.46 198.266C177.899 197.652 175.613 197.652 173.55 197.652C171.766 197.652 169.982 197.708 168.198 197.708C166.135 197.708 163.626 197.875 162.846 198.656C162.344 199.102 162.623 199.771 161.675 200.105C160.783 200.44 159.389 200.273 158.274 200.105C157.159 199.882 155.932 199.659 154.817 199.827C153.312 200.05 153.033 200.775 152.531 201.444C151.862 201.611 151.305 201.89 150.747 202.168C149.744 202.168 148.74 202.113 147.737 202.113V203.005C147.458 203.06 147.179 203.06 146.9 203.116C146.733 203.116 146.621 203.116 146.51 203.116C145.729 203.116 144.893 203.116 144.168 203.172C143.276 203.283 142.384 203.395 142.44 203.729C142.496 204.12 143.778 204.51 144.949 204.621C145.674 204.677 146.343 204.677 147.067 204.677C147.29 204.677 147.569 204.677 147.792 204.733V205.235H190.778V205.179Z" fill="#FFFEE0"/>
<path opacity="0.85" d="M86.6856 198.377V196.035C85.5705 195.868 84.6227 195.645 84.0094 195.311C83.6191 195.088 83.3961 194.865 82.9501 194.642C81.5005 193.917 78.0438 193.805 75.3677 194.028C74.8102 194.084 74.2526 194.14 73.6951 194.084C72.4685 194.028 71.7995 193.582 70.8517 193.303C69.2906 192.857 67.0047 192.857 64.9419 192.857C63.1578 192.857 61.3737 192.857 59.5896 192.913C57.5267 192.913 55.0178 193.025 54.2373 193.582C53.7355 193.917 54.0143 194.419 53.0665 194.642C52.1744 194.865 50.7806 194.753 49.6655 194.642C48.5505 194.474 47.3239 194.307 46.2088 194.419C44.7035 194.586 44.4248 195.143 43.923 195.589C43.2539 195.757 42.6964 195.924 42.1389 196.147C41.1353 196.147 40.1318 196.147 39.1282 196.091V196.76C38.8494 196.76 38.5707 196.816 38.2919 196.816C38.1247 196.816 38.0131 196.816 37.8459 196.816C37.0653 196.816 36.2291 196.816 35.5043 196.872C34.6122 196.927 33.7202 197.039 33.7759 197.262C33.8317 197.541 35.114 197.819 36.2848 197.931C37.0096 197.987 37.6786 197.987 38.4034 197.987C38.6264 197.987 38.9052 197.987 39.1282 197.987V198.377H86.6856Z" fill="#FFFEE0"/>
<path d="M134.578 29.6806L130.394 29.5705C129.367 29.3503 128.266 29.0934 127.568 28.9466C127.091 28.8365 125.844 28.8365 126.247 29.02C126.541 29.1301 127.091 29.3503 127.678 29.5338L125.844 29.4971L124.155 28.9099H122.761L125.256 30.4146L137 30.5247C136.597 30.0843 135.716 29.8274 134.578 29.6806Z" fill="white"/>
<path opacity="0.75" d="M0 31.3321L122.687 30.2678L122.503 30.0843L0 28.5062V31.3321Z" fill="white"/>
<path d="M155.558 193.312C155.558 193.312 144.568 179.705 136.063 180.315C127.558 180.926 116 186.421 116 186.421C116 186.421 122.411 193.094 124.374 193.051C126.38 193.007 131.396 188.907 131.396 188.907L129.521 195.057L135.888 196.06C135.888 196.06 137.938 190.739 139.77 189.736L140.599 195.973C140.642 196.016 148.667 193.618 155.558 193.312Z" fill="#7FAB3A"/>
<path opacity="0.55" d="M129.303 188.995C127.384 187.773 125.072 186.116 123.371 184.153C119.795 185.462 117.091 186.727 117.091 186.727C117.091 186.727 122.543 192.397 124.2 192.353C125.552 192.309 128.518 190.129 129.695 189.213C129.565 189.169 129.434 189.082 129.303 188.995Z" fill="#6D9F1E"/>
<path opacity="0.55" d="M148.884 187.425C148.317 188.428 147.488 189.3 146.616 189.693C144.959 190.434 143.083 190.914 141.164 191.132L141.731 195.319C141.731 195.319 148.579 193.269 154.423 193.007C154.379 193.051 152.068 190.216 148.884 187.425Z" fill="#6D9F1E"/>
<path opacity="0.55" d="M131.613 190.128L130.218 194.795L135.626 195.624C135.626 195.624 136.629 193.05 137.807 191.437C135.626 191.48 133.489 191.088 131.613 190.128Z" fill="#6D9F1E"/>
<path d="M155.34 193.399C155.34 193.399 149.888 180.402 154.032 173.904C158.175 167.405 166.157 163 166.157 163L164.848 173.816L160.443 174.209L163.976 178.134L163.409 183.804L157.608 184.066L162.449 186.901C162.362 186.901 158.524 190.085 155.34 193.399Z" fill="#7FAB3A"/>
<path d="M139.509 224.06C139.509 224.06 135.628 209.362 137.808 205.088C139.989 200.814 155.647 192.876 155.647 192.876L153.466 204.739L147.229 205.786L152.289 209.667L149.89 216.253C149.89 216.253 144.22 210.278 143.522 211.194C142.824 212.154 146.139 220.571 146.139 220.571L139.509 224.06Z" fill="#7FAB3A"/>
<path opacity="0.55" d="M147.272 205.829C145.397 209.231 142.431 211.325 138.637 211.804C139.116 216.515 140.512 221.836 140.512 221.836L145.571 219.175C144.656 216.733 142.998 211.892 143.478 211.194C143.565 211.106 143.652 211.063 143.827 211.106C143.827 210.976 143.87 210.845 143.914 210.801C144.525 210.016 149.366 215.119 149.366 215.119L151.416 209.449L147.098 206.134L147.578 206.047L147.272 205.829Z" fill="#6D9F1E"/>
<path opacity="0.55" d="M154.341 195.1C154.341 195.1 152.117 196.234 149.326 197.848C149.282 200.595 148.497 203.474 147.45 205.567C147.407 205.655 147.363 205.742 147.319 205.786L152.553 204.913L154.341 195.1Z" fill="#6D9F1E"/>
<path d="M0.0439453 187.029L6.10638 167.446L3.66396 168.101L0.0439453 176.954V187.029Z" fill="#E79F55"/>
<path d="M4.05664 168.537C4.05664 168.537 17.7953 150.785 28.7425 151.309C39.6898 151.876 54.6496 158.592 54.6496 158.592C54.6496 158.592 46.6246 167.359 44.0513 167.359C41.478 167.359 34.9358 162.256 34.9358 162.256L37.5091 170.107L29.3531 171.546C29.3531 171.546 26.5618 164.786 24.163 163.521L23.2471 171.546C23.2471 171.59 12.8668 168.711 4.05664 168.537Z" fill="#7FAB3A"/>
<path opacity="0.55" d="M52.3374 159.072C52.3374 159.072 49.328 157.72 45.0973 156.237C41.2156 160.773 34.6734 162.649 28.611 163.172C24.8165 163.521 20.8912 163.434 17.2712 162.169C16.05 161.733 14.6107 161.253 13.3459 160.512C9.24609 164.306 6.41113 168.013 6.41113 168.013C13.3895 168.144 21.4146 170.15 23.4208 170.674L24.2495 163.521C24.3804 163.608 24.5548 163.695 24.6857 163.826L24.7293 163.521C26.8664 164.699 29.4397 170.805 29.4397 170.805L36.8542 169.496L34.5426 162.387C34.5426 162.387 34.8043 162.605 35.284 162.954L35.066 162.3C35.066 162.3 39.6891 165.876 42.6549 167.054C42.6985 167.054 42.7858 167.054 42.8294 167.054C45.0537 167.054 52.3374 159.072 52.3374 159.072Z" fill="#6D9F1E"/>
<path d="M6.49891 143.153C4.71071 140.449 2.35552 138.05 0.0439453 136.044V156.238L2.31191 156.281L0.0439453 157.677V163.303C1.65769 164.699 3.57673 166.443 5.36493 168.232C5.36493 168.188 11.9944 151.353 6.49891 143.153Z" fill="#7FAB3A"/>
<path opacity="0.55" d="M2.00627 152.661C0.305303 148.343 -0.348917 142.106 1.43928 137.745C1.4829 137.657 1.52651 137.57 1.57013 137.439C1.04675 136.96 0.523376 136.48 0 136V156.194L2.26796 156.237L0.0436147 157.676V163.303C1.65736 164.698 3.5764 166.443 5.3646 168.231C5.3646 168.231 6.32413 165.832 7.19642 162.43C6.67304 161.602 6.19328 160.773 5.75713 159.901C4.18701 157.633 2.9658 155.06 2.00627 152.661Z" fill="#6D9F1E"/>
<path d="M26.1264 207.397C26.1264 207.397 30.7059 188.425 27.7837 182.973C24.8615 177.565 4.53711 167.795 4.53711 167.795L7.67736 182.973L15.7461 184.107L9.33472 189.254L12.6058 197.671C12.6058 197.671 19.715 189.821 20.6309 190.998C21.5468 192.176 17.5343 203.123 17.5343 203.123L26.1264 207.397Z" fill="#7FAB3A"/>
<path opacity="0.55" d="M24.9493 204.955C24.9493 204.955 26.7811 197.279 27.1736 190.867C27.0428 190.824 26.8683 190.824 26.7375 190.78C19.4102 189.123 13.3478 181.665 13.6967 174.207C9.55329 171.895 6.02051 170.194 6.02051 170.194L8.681 183.104L15.703 184.107L15.2668 184.456L15.7902 184.543L10.2075 189.035L13.0861 196.406C13.0861 196.406 19.323 189.515 20.1517 190.562C20.1953 190.649 20.2389 190.736 20.2389 190.867C20.4133 190.824 20.5442 190.867 20.6314 190.998C21.3293 191.914 19.1485 198.5 18.1018 201.553L24.9493 204.955Z" fill="#6D9F1E"/>
<path d="M0.0439453 164.437V168.754L5.58301 168.057C5.58301 168.057 3.35866 166.53 0.0439453 164.437Z" fill="#7FAB3A"/>
<path d="M0.0439453 169.06V171.982L6.10638 167.752C6.10638 167.795 3.62035 168.275 0.0439453 169.06Z" fill="#7FAB3A"/>
<g opacity="0.85">
<path opacity="0.85" d="M176.311 159.116C174.392 158.898 172.254 158.68 171.513 158.505C170.292 158.2 169.027 157.589 168.373 156.543C168.067 156.063 167.893 155.496 167.588 155.016C166.497 153.402 164.011 153.315 162.049 153.839C161.656 153.926 161.22 154.057 160.827 154.013C159.911 153.882 159.432 152.923 158.734 152.356C157.6 151.396 155.899 151.44 154.416 151.527C153.108 151.614 151.799 151.701 150.534 151.745C149.008 151.832 147.22 152.138 146.609 153.446C146.26 154.231 146.435 155.278 145.78 155.888C145.17 156.455 144.123 156.281 143.294 155.976C142.466 155.67 141.593 155.278 140.765 155.583C139.282 156.106 139.5 158.156 138.627 159.421C137.275 161.427 133.655 160.948 132.129 162.867C132.783 163.39 133.612 163.695 134.44 163.826C138.191 164.437 141.855 162.343 145.649 162.387C149.182 162.431 151.756 163.39 155.245 162.998C158.254 162.649 161.569 161.515 164.578 161.035C167.239 160.599 169.986 161.515 172.691 161.515C173.258 161.515 174.74 161.515 176.267 161.427V159.116H176.311Z" fill="url(#paint1_linear_152_6833)"/>
<path opacity="0.85" d="M170.335 160.773C169.245 160.381 168.242 159.77 167.108 159.596C166.148 159.421 165.058 159.552 164.229 159.072C163.618 158.68 163.27 157.982 162.659 157.589C161.569 156.804 159.955 157.11 158.646 157.589C157.294 158.069 155.899 158.68 154.547 158.418C153.107 158.156 152.061 156.979 150.708 156.499C147.917 155.496 144.821 157.458 141.767 157.72C141.157 157.764 140.503 157.764 139.936 157.982C138.322 158.549 137.624 160.555 136.01 161.166C135.618 161.297 135.225 161.34 134.833 161.34C134.266 161.34 133.655 161.384 133.088 161.515C132.434 161.689 131.78 161.951 131.823 162.474C131.867 163.172 132.826 163.695 133.655 163.87C135.618 164.219 137.58 163.434 139.543 163.434C141.244 162.474 143.032 161.82 144.864 162.169C145.824 162.343 146.74 162.823 147.743 162.823C148.92 162.823 149.967 162.169 151.101 161.951C153.674 161.427 156.073 162.91 158.646 163.346C160.26 163.608 161.961 163.434 163.618 163.259C165.886 162.997 168.111 162.779 170.379 162.518H170.422C171.338 162.43 171.513 161.209 170.64 160.948C170.51 160.817 170.422 160.817 170.335 160.773Z" fill="url(#paint2_linear_152_6833)"/>
</g>
<path opacity="0.07" d="M174.052 56.9872C174.052 65.2386 167.361 71.9848 159.054 71.9848C150.747 71.9848 144.057 65.2944 144.057 56.9872C144.057 48.68 150.747 41.9896 159.054 41.9896C167.361 41.9896 174.052 48.68 174.052 56.9872Z" fill="white"/>
<path opacity="0.07" d="M57.9729 72.9885C57.9729 79.4559 52.7321 84.6967 46.2648 84.6967C39.7974 84.6967 34.5566 79.4559 34.5566 72.9885C34.5566 66.5212 39.7974 61.2804 46.2648 61.2804C52.7321 61.2804 57.9729 66.5212 57.9729 72.9885Z" fill="white"/>
<path opacity="0.07" d="M151.75 76.8911C151.75 82.4664 147.234 86.9824 141.659 86.9824C136.083 86.9824 131.567 82.4664 131.567 76.8911C131.567 71.3158 136.083 66.7998 141.659 66.7998C147.178 66.7441 151.75 71.2601 151.75 76.8911Z" fill="white"/>
<path opacity="0.07" d="M41.0245 81.6303C41.0245 84.6967 38.5713 87.1498 35.5049 87.1498C32.4385 87.1498 29.9854 84.6967 29.9854 81.6303C29.9854 78.5639 32.4385 76.1107 35.5049 76.1107C38.5713 76.1107 41.0245 78.5639 41.0245 81.6303Z" fill="white"/>
<path d="M57.9173 84.0833C57.8615 84.0833 57.8615 84.0275 57.8058 84.0275C57.75 84.0275 57.6943 84.0833 57.6943 84.0833C57.4712 84.2506 57.304 84.4178 57.081 84.5851C57.081 84.5851 57.0252 84.5851 57.0252 84.6408C56.9695 84.6408 56.9695 84.6408 56.9137 84.6408C56.858 84.5851 56.8022 84.5851 56.8022 84.5293C56.6349 84.3063 56.5234 84.0833 56.3562 83.8603C56.3562 83.8045 56.3004 83.8045 56.2447 83.7488C56.1889 83.7488 56.1889 83.7488 56.1332 83.7488C55.6314 83.916 55.1854 84.0275 54.6836 84.1948C55.2411 84.3621 55.5199 84.1948 55.9659 84.139C56.0774 84.139 56.1332 84.1948 56.1889 84.2506C56.3004 84.4736 56.5792 84.7523 56.8022 84.8638C56.8022 84.9196 56.858 84.9196 56.858 84.9196L56.9137 85.0868C56.9137 85.0311 56.9695 84.9753 56.9695 84.9196C57.0252 84.9196 57.0252 84.8638 57.081 84.8081C57.2482 84.7523 57.4712 84.5851 57.6385 84.4736C57.6943 84.4178 57.9173 84.4178 57.973 84.4178C58.3633 84.5851 58.5863 84.8081 59.1438 84.8638C58.7536 84.6408 58.3075 84.3621 57.9173 84.0833Z" fill="white"/>
<path d="M70.7415 56.876C70.6857 56.876 70.63 56.876 70.63 56.876C70.5742 56.876 70.5742 56.9317 70.5185 56.9875C70.3512 57.2105 70.2397 57.4893 70.0724 57.7123L70.0167 57.768C69.9609 57.768 69.9052 57.768 69.9052 57.8238C69.8494 57.8238 69.7937 57.768 69.7379 57.768C69.5149 57.6008 69.2919 57.4335 69.0131 57.2663C68.9574 57.2663 68.9016 57.2105 68.9016 57.2105C68.8459 57.2105 68.7901 57.2663 68.7901 57.2663C68.3441 57.6008 67.8981 57.9353 67.5078 58.2698C68.1211 58.214 68.3441 57.9353 68.7901 57.7123C68.9016 57.6565 69.0131 57.6565 69.0689 57.7123C69.2919 57.8795 69.6822 58.0468 69.9052 58.1025C69.9609 58.1583 69.9609 58.1583 70.0167 58.1583L70.1282 58.3256C70.1282 58.2698 70.1282 58.2141 70.1282 58.1025C70.184 58.0468 70.184 58.0468 70.184 57.991C70.3512 57.8238 70.5185 57.6008 70.63 57.4335C70.6857 57.322 70.853 57.2663 70.9645 57.2663C71.4663 57.322 71.745 57.4335 72.3583 57.2663C71.8008 57.099 71.2433 56.9875 70.7415 56.876Z" fill="white"/>
<path d="M121.421 93.2269C121.365 93.1711 121.365 93.1711 121.309 93.1711C121.253 93.1711 121.198 93.1711 121.142 93.1711C120.863 93.2826 120.64 93.3941 120.361 93.5056C120.361 93.5056 120.305 93.5056 120.25 93.5056C120.194 93.5056 120.138 93.4499 120.138 93.5056C120.082 93.4499 120.082 93.3941 120.027 93.3941C119.915 93.1154 119.859 92.8366 119.748 92.6136C119.748 92.5578 119.692 92.5021 119.692 92.5021C119.636 92.5021 119.581 92.5021 119.581 92.5021C119.023 92.5021 118.466 92.5021 117.964 92.5021C118.521 92.8366 118.856 92.7251 119.302 92.7808C119.413 92.7808 119.469 92.8923 119.525 92.9481C119.581 93.1711 119.804 93.5614 120.027 93.7286C120.027 93.7844 120.082 93.7844 120.082 93.8401V94.0632C120.138 94.0074 120.138 93.9517 120.194 93.8959C120.25 93.8959 120.305 93.8959 120.305 93.8401C120.528 93.8401 120.807 93.7286 120.975 93.6171C121.086 93.5614 121.253 93.6171 121.365 93.6729C121.755 94.0074 121.867 94.2862 122.48 94.5092C122.145 94.0074 121.811 93.6171 121.421 93.2269Z" fill="white"/>
<g opacity="0.85">
<path opacity="0.85" d="M-31.1189 55.8168C-31.5649 56.8204 -31.3419 58.1585 -32.1782 58.939C-32.9587 59.6638 -34.2968 59.4408 -35.3561 59.0505C-36.4154 58.6603 -37.5305 58.1585 -38.5898 58.5487C-40.4854 59.2178 -40.2066 61.8382 -41.3217 63.455C-43.05 66.0197 -47.6775 65.4064 -49.6289 67.8595C-48.7926 68.5285 -47.7333 68.9188 -46.674 69.0861C-41.8792 69.8666 -37.196 67.1905 -32.3455 67.2462C-27.8295 67.302 -24.54 68.5285 -20.0798 68.0268C-16.2328 67.5807 -11.9956 66.1312 -8.14864 65.5179C-4.7477 64.9603 -1.23526 66.1312 2.22143 66.1312C3.72676 66.1312 10.7516 66.2427 11.4764 64.9603C11.6437 64.6816 11.7552 64.3471 11.5879 64.0683C11.4207 63.7895 11.0862 63.678 10.7516 63.6223C9.13481 63.2878 2.22142 62.7302 0.660339 62.34C-0.900745 61.9497 -2.51758 61.1691 -3.35388 59.8311C-3.74415 59.2178 -3.96716 58.493 -4.35743 57.8797C-5.75126 55.8168 -8.92918 55.7053 -11.4381 56.3744C-11.9398 56.4859 -12.4974 56.6531 -12.9992 56.5974C-14.17 56.4301 -14.7833 55.2036 -15.6753 54.4788C-17.1249 53.2522 -19.2992 53.308 -21.1949 53.4195C-22.8674 53.531 -24.54 53.6425 -26.1569 53.6982C-28.0525 53.754 -30.3384 54.1443 -31.1189 55.8168Z" fill="url(#paint3_linear_152_6833)"/>
<path opacity="0.85" d="M-0.78891 65.1833C-2.18274 64.6815 -3.46506 63.901 -4.91464 63.6779C-6.1412 63.4549 -7.53503 63.6222 -8.59434 63.0089C-9.37488 62.5071 -9.8209 61.6151 -10.6014 61.1133C-11.9953 60.1097 -14.0581 60.5 -15.7307 61.1133C-17.4591 61.7266 -19.2432 62.5071 -20.9715 62.1726C-22.8114 61.8381 -24.1494 60.3328 -25.8778 59.7195C-29.446 58.4372 -33.4044 60.946 -37.3071 61.2806C-38.0877 61.3363 -38.924 61.3363 -39.6488 61.6151C-41.7116 62.3399 -42.6037 64.9045 -44.6666 65.6851C-45.1683 65.8523 -45.6701 65.9081 -46.1719 65.9081C-46.8967 65.9081 -47.6772 65.9638 -48.402 66.1311C-49.2383 66.3541 -50.0746 66.6886 -50.0188 67.3576C-49.9631 68.2497 -48.7365 68.9187 -47.6772 69.1417C-45.1683 69.5878 -42.6594 68.5842 -40.1506 68.5842C-37.9762 67.3576 -35.6903 66.5213 -33.3487 66.9674C-32.1221 67.1904 -30.9513 67.8037 -29.669 67.8037C-28.1637 67.8037 -26.8256 66.9674 -25.376 66.6886C-22.0866 66.0196 -19.0202 67.9152 -15.7307 68.4727C-13.6679 68.8072 -11.4935 68.5842 -9.37488 68.3612C-6.47572 68.0267 -3.63232 67.7479 -0.733158 67.4134H-0.677402C0.493412 67.3019 0.716423 65.7408 -0.398636 65.4063C-0.510143 65.2948 -0.677406 65.239 -0.78891 65.1833Z" fill="url(#paint4_linear_152_6833)"/>
</g>
<path d="M189.472 226H-33.1182V334.97H189.472V226Z" fill="#47BDFF"/>
<path d="M-22.7306 234.953C-16.8444 235.843 -11.156 237.97 -5.26971 239.059C0.418694 240.147 6.20603 240.543 11.9934 240.691C27.5746 241.087 43.2549 240.097 58.8361 239.899C66.9483 239.801 75.1594 239.306 83.2716 239.751C91.3343 240.196 99.3475 241.68 107.41 241.73C123.536 241.829 139.611 243.461 155.737 244.104C163.602 244.401 171.417 244.351 179.282 244.302C182.695 244.302 186.108 244.351 189.472 244.648V226H-33.1182V233.815C-29.5073 233.865 -25.8469 234.458 -22.7306 234.953Z" fill="#0FA0E3"/>
<path d="M-28.8642 271.705C-25.5006 271.458 -22.3349 272.15 -19.0208 272.694C-15.954 273.189 -12.7883 273.387 -9.67204 273.436C-3.24167 273.535 2.84245 272.546 9.07497 270.864C14.9118 269.281 20.798 267.501 26.7832 266.759C33.8072 265.868 41.9193 265.423 48.6959 268.243C52.0101 269.628 55.1758 271.26 58.7372 271.606C62.3976 272.002 66.0085 272.2 69.6689 272.249C77.3853 272.398 85.0523 272.15 92.7687 272.348C100.634 272.497 108.399 273.387 116.264 273.387C120.37 273.387 124.475 273.436 128.531 274.277C132.043 275.019 135.506 276.107 139.018 276.899C146.537 278.581 154.401 277.492 162.019 276.998C169.439 276.553 176.759 276.404 184.08 278.234C185.96 278.68 187.74 279.372 189.521 280.015V273.733C188.631 273.486 187.74 273.238 186.85 272.991C183.635 272.051 180.469 271.557 177.155 271.557C170.279 271.507 163.453 272.694 156.578 272.892C149.801 273.09 143.173 271.853 136.495 270.666C128.779 269.281 121.161 269.38 113.395 269.182C105.481 268.985 97.5668 268.144 89.6525 268.342C81.7382 268.539 74.2196 267.204 66.4042 265.72C58.8856 264.285 51.2681 264.038 43.7 263.939C36.0825 263.84 28.465 263.989 20.8475 264.879C13.4278 265.72 6.25549 268.045 -1.16417 269.083C-8.68275 270.122 -16.2013 269.281 -23.7199 269.38C-26.7867 269.43 -29.9524 269.924 -33.1182 269.974V272.398C-31.6837 272.051 -30.2987 271.804 -28.8642 271.705Z" fill="#0FA0E3"/>
<path d="M-14.6185 233.123H112.851C128.977 233.123 145.201 233.271 161.277 231.045C168.845 230.006 176.462 230.353 184.031 230.65C185.96 230.748 187.74 230.897 189.472 231.342V226.049H-33.1182V231.837C-26.9351 232.232 -20.8015 233.123 -14.6185 233.123Z" fill="#22D3FF"/>
<path d="M11.4991 255.183C19.5123 255.183 27.575 255.381 35.5882 254.986C43.6014 254.59 51.5652 253.452 59.5784 252.661C67.6411 251.869 75.6544 251.523 83.7171 252.265C91.8292 253.007 99.9414 254.491 108.054 254.887C116.166 255.282 124.278 254.986 132.39 255.53C140.156 256.024 147.922 257.014 155.737 256.865C167.015 256.618 178.244 255.282 189.472 254.491V247.566C184.624 247.764 179.777 247.863 174.979 248.011C163.058 248.308 151.335 249.149 139.513 251.028C131.698 252.265 124.179 251.77 116.364 250.732C108.449 249.693 100.535 249 92.5712 248.506C76.3469 247.516 60.1226 246.873 43.8488 247.269C27.6245 247.665 11.4991 249.792 -4.72526 249.841C-11.6008 249.841 -18.5258 249.99 -25.4014 249.446C-27.7262 249.248 -30.4467 248.901 -33.0684 248.901V255.975C-18.328 256.915 -3.34026 255.233 11.4991 255.183Z" fill="#22D3FF"/>
<path d="M17.2857 260.328C32.8175 258.696 48.3988 259.933 63.9306 260.576C71.6965 260.922 79.5119 260.724 87.3273 261.268C95.2416 261.812 103.156 262.851 111.07 262.851C118.935 262.901 126.8 262.95 134.665 263.642C142.332 264.286 149.9 265.868 157.567 266.561C168.202 267.55 178.886 267.352 189.471 265.819V259.042C185.613 258.844 181.804 258.548 178.045 258.399C164.838 257.954 151.73 256.52 138.473 256.47C106.025 256.322 73.5267 255.382 41.0286 256.47C24.8043 257.014 8.53052 257.459 -7.64434 259.191C-14.9156 259.982 -22.1869 260.971 -29.3592 262.307C-30.5958 262.554 -31.8819 262.802 -33.168 263.049V268.193C-16.2511 266.363 0.368893 262.109 17.2857 260.328Z" fill="#0FA9FF"/>
<path d="M175.275 241.581C164.739 241.136 154.154 241.136 143.618 241.136C135.506 241.136 127.443 240.938 119.331 240.344C111.318 239.751 103.305 239.058 95.2419 239.108C87.2782 239.206 79.4628 240.493 71.5485 240.938C63.6837 241.383 55.8188 241.432 47.9045 241.284C32.1254 240.987 16.2968 241.086 0.567085 239.998C-5.91275 239.553 -12.442 238.959 -18.9713 238.712H-33.1182V248.11C-16.9928 247.764 -0.867378 246.428 15.3075 245.785C31.5813 245.142 47.855 245.439 64.1783 245.291C80.5015 245.142 96.8248 244.895 113.099 244.549C129.125 244.202 145.152 244.202 161.178 244.252C167.658 244.252 174.088 244.845 180.519 245.093C183.486 245.192 186.454 245.291 189.422 245.093V239.998C185.02 241.976 179.282 241.729 175.275 241.581Z" fill="#0FA9FF"/>
<path d="M189.472 334.969V293.865C181.409 297.377 158.705 291.787 155.638 292.084C151.137 292.529 116.462 290.649 104.789 288.621C96.1323 287.137 73.0324 288.028 69.6194 286.841C61.161 283.873 52.0101 288.473 43.1559 287.038C17.3355 282.834 5.01888 290.204 -11.7495 286.148C-18.5756 284.516 -30.3976 285.159 -33.1182 287.731V334.969H189.472Z" fill="#FEF993"/>
<path opacity="0.65" d="M7.21347 312.696C9.77811 313.644 20.4827 315.93 23.3261 315.149C26.3925 314.313 28.7341 312.808 32.0236 313.421C37.7104 314.536 42.2264 319.554 48.1362 320C51.3141 320.223 54.1018 319.275 57.1682 318.327C60.8479 317.156 64.5276 316.097 68.3188 315.149C71.9428 314.257 75.6782 313.365 79.3579 312.696C82.4801 312.139 85.658 311.748 88.5572 313.365C89.5607 313.923 90.5085 315.651 91.5678 315.818C93.0732 316.097 94.6342 315.93 96.1953 315.93C99.652 315.93 103.387 316.376 106.677 315.261C109.743 314.257 112.698 312.473 116.043 312.696C119.779 312.975 123.403 313.755 127.138 314.313C129.48 314.648 134.498 315.205 137.453 314.257C142.47 312.696 135.557 309.239 134.553 308.18C131.208 304.835 129.591 306.006 126.581 305.393C119.054 303.943 90.0067 304.445 83.5394 306.006C83.2049 306.062 82.8704 306.062 82.5358 305.95C47.9132 293.127 13.7923 309.184 12.287 309.909C12.2312 309.909 12.2312 309.964 12.1755 309.964C11.2277 310.522 5.8754 312.25 7.21347 312.696Z" fill="#F0CFD2"/>
<path d="M53.0123 328.895C53.0123 329.397 52.399 329.787 51.6184 329.787C50.8379 329.787 50.2246 329.397 50.2246 328.895C50.2246 328.393 50.8379 328.003 51.6184 328.003C52.399 328.003 53.0123 328.393 53.0123 328.895Z" fill="#EABF95"/>
<path d="M13.148 329.174C13.148 329.676 12.5347 330.066 11.7542 330.066C10.9736 330.066 10.3604 329.676 10.3604 329.174C10.3604 328.672 10.9736 328.282 11.7542 328.282C12.5347 328.282 13.148 328.672 13.148 329.174Z" fill="#EABF95"/>
<path d="M140.767 322.037C140.767 322.372 140.265 322.595 139.652 322.595C139.039 322.595 138.537 322.316 138.537 322.037C138.537 321.703 139.039 321.48 139.652 321.48C140.265 321.424 140.767 321.703 140.767 322.037Z" fill="#EABF95"/>
<path d="M127.665 332.017C127.665 332.352 127.163 332.575 126.55 332.575C125.936 332.575 125.435 332.296 125.435 332.017C125.435 331.683 125.936 331.46 126.55 331.46C127.163 331.46 127.665 331.683 127.665 332.017Z" fill="#EABF95"/>
<path d="M101.239 329.731C101.239 330.066 100.737 330.289 100.124 330.289C99.5106 330.289 99.0088 330.01 99.0088 329.731C99.0088 329.453 99.5106 329.174 100.124 329.174C100.737 329.174 101.239 329.453 101.239 329.731Z" fill="#EABF95"/>
<path d="M0.826802 294.384C0.826802 294.719 0.325024 294.942 -0.288259 294.942C-0.901543 294.942 -1.40332 294.663 -1.40332 294.384C-1.40332 294.05 -0.901543 293.827 -0.288259 293.827C0.325024 293.771 0.826802 294.05 0.826802 294.384Z" fill="#EABF95"/>
<path d="M46.9909 326.498C46.9909 326.832 46.4891 327.055 45.8758 327.055C45.2625 327.055 44.7607 326.776 44.7607 326.498C44.7607 326.163 45.2625 325.94 45.8758 325.94C46.4891 325.94 46.9909 326.163 46.9909 326.498Z" fill="#EABF95"/>
<path d="M72.1354 324.769C72.1354 325.104 71.6336 325.327 71.0203 325.327C70.4071 325.327 69.9053 325.048 69.9053 324.769C69.9053 324.435 70.4071 324.212 71.0203 324.212C71.6894 324.212 72.1354 324.435 72.1354 324.769Z" fill="#EABF95"/>
<path d="M134.021 318.469C134.575 318.469 135.025 318.22 135.025 317.912C135.025 317.604 134.575 317.354 134.021 317.354C133.467 317.354 133.018 317.604 133.018 317.912C133.018 318.22 133.467 318.469 134.021 318.469Z" fill="#EABF95"/>
<path opacity="0.65" d="M123.594 324.658C120.193 323.097 118.075 323.041 116.736 323.487C116.848 322.316 116.402 320.867 114.841 319.082C110.882 314.567 112.889 320.644 113.559 322.874C112.332 322.428 110.213 322.483 106.478 323.933C96.9441 327.668 107.983 326.219 111.774 325.996C110.938 326.665 109.99 327.668 108.987 329.23C104.359 336.422 112.388 328.728 115.343 326.776C116.681 329.676 120.137 339.488 120.137 331.237C120.137 329.118 119.803 327.724 119.301 326.776C122.479 327.111 132.013 328.505 123.594 324.658Z" fill="#EBBFC3"/>
<path opacity="0.65" d="M-15.5091 309.27C-15.5091 309.27 -24.8756 308.378 -28.7783 310.998C-31.6217 312.95 -18.1852 315.849 -9.37625 314.845C-0.567263 313.842 6.51337 310.831 -15.5091 309.27Z" fill="#F0CFD2"/>
<path opacity="0.65" d="M154.761 312.336C154.761 312.336 140.6 311.444 134.745 314.065C130.397 316.016 150.747 318.915 164.016 317.912C177.341 316.964 188.045 313.953 154.761 312.336Z" fill="#F0CFD2"/>
<path d="M122.702 323.766C119.302 322.205 117.183 322.149 115.845 322.595C115.956 321.424 115.51 319.974 113.949 318.19C109.991 313.674 111.998 319.751 112.667 321.981C111.44 321.535 109.322 321.591 105.586 323.041C96.0525 326.776 107.092 325.327 110.883 325.104C110.047 325.773 109.099 326.776 108.095 328.337C103.468 335.529 111.496 327.836 114.451 325.884C115.789 328.783 119.246 338.596 119.246 330.344C119.246 328.226 118.911 326.832 118.409 325.884C121.587 326.219 131.121 327.668 122.702 323.766Z" fill="#FF3E4A"/>
<path d="M114.564 323.208C114.396 323.32 114.173 323.208 114.118 322.985C114.006 322.762 114.062 322.539 114.229 322.428C114.396 322.316 114.619 322.428 114.675 322.651C114.787 322.874 114.731 323.152 114.564 323.208Z" fill="#F7EBEE"/>
<path d="M113.56 319.863C113.393 319.974 113.17 319.863 113.058 319.696C112.947 319.528 113.002 319.25 113.17 319.194C113.337 319.082 113.56 319.194 113.616 319.361C113.727 319.528 113.727 319.751 113.56 319.863Z" fill="#F7EBEE"/>
<path d="M113.895 320.978C113.727 321.09 113.504 320.978 113.393 320.811C113.281 320.644 113.337 320.365 113.504 320.309C113.672 320.198 113.895 320.309 114.006 320.476C114.118 320.644 114.062 320.867 113.895 320.978Z" fill="#F7EBEE"/>
<path d="M114.284 322.037C114.117 322.149 113.894 322.037 113.783 321.87C113.671 321.647 113.727 321.424 113.894 321.313C114.061 321.201 114.284 321.313 114.396 321.48C114.452 321.703 114.396 321.926 114.284 322.037Z" fill="#F7EBEE"/>
<path d="M118.744 324.212C118.744 324.379 118.521 324.546 118.298 324.546C118.074 324.546 117.907 324.379 117.907 324.212C117.907 324.044 118.13 323.877 118.353 323.877C118.576 323.877 118.744 324.044 118.744 324.212Z" fill="#F7EBEE"/>
<path d="M119.859 324.379C119.859 324.546 119.636 324.713 119.413 324.713C119.19 324.713 119.022 324.546 119.022 324.379C119.022 324.212 119.245 324.044 119.468 324.044C119.691 323.989 119.859 324.156 119.859 324.379Z" fill="#F7EBEE"/>
<path d="M121.029 324.602C121.029 324.769 120.806 324.936 120.583 324.936C120.36 324.936 120.192 324.769 120.192 324.602C120.192 324.435 120.415 324.267 120.638 324.267C120.861 324.267 121.084 324.435 121.029 324.602Z" fill="#F7EBEE"/>
<path d="M122.201 324.881C122.201 325.048 121.978 325.215 121.755 325.215C121.532 325.215 121.364 325.048 121.364 324.881C121.364 324.713 121.587 324.546 121.81 324.546C122.033 324.546 122.201 324.658 122.201 324.881Z" fill="#F7EBEE"/>
<path d="M114.953 324.267C114.897 324.435 114.674 324.602 114.451 324.546C114.228 324.546 114.061 324.323 114.116 324.156C114.172 323.989 114.395 323.821 114.618 323.877C114.841 323.877 115.008 324.044 114.953 324.267Z" fill="#F7EBEE"/>
<path d="M112.444 323.543C112.388 323.71 112.221 323.877 111.942 323.877C111.719 323.877 111.552 323.71 111.552 323.543C111.608 323.376 111.775 323.208 112.054 323.208C112.332 323.208 112.5 323.376 112.444 323.543Z" fill="#F7EBEE"/>
<path d="M113.614 323.766C113.558 323.933 113.391 324.1 113.112 324.1C112.889 324.1 112.722 323.933 112.722 323.766C112.777 323.598 112.945 323.431 113.223 323.431C113.446 323.431 113.614 323.598 113.614 323.766Z" fill="#F7EBEE"/>
<path d="M117.461 324.1C117.406 324.267 117.183 324.435 116.96 324.379C116.737 324.379 116.569 324.156 116.625 323.989C116.681 323.821 116.904 323.654 117.127 323.71C117.294 323.766 117.461 323.933 117.461 324.1Z" fill="#F7EBEE"/>
<path d="M116.346 324.156C116.346 324.323 116.123 324.49 115.9 324.49C115.677 324.49 115.454 324.323 115.51 324.156C115.51 323.989 115.733 323.821 115.956 323.821C116.179 323.821 116.346 323.933 116.346 324.156Z" fill="#F7EBEE"/>
<path d="M115.677 325.606C115.51 325.717 115.287 325.661 115.175 325.494C115.064 325.327 115.064 325.048 115.231 324.937C115.398 324.825 115.621 324.881 115.733 325.048C115.844 325.215 115.789 325.438 115.677 325.606Z" fill="#F7EBEE"/>
<path d="M116.402 326.721C116.234 326.832 116.011 326.776 115.9 326.609C115.788 326.386 115.788 326.163 115.956 326.052C116.123 325.94 116.346 325.996 116.458 326.163C116.569 326.386 116.569 326.609 116.402 326.721Z" fill="#F7EBEE"/>
<path d="M117.126 328.003C116.959 328.114 116.736 328.059 116.569 327.891C116.457 327.668 116.457 327.445 116.625 327.334C116.792 327.222 117.015 327.278 117.126 327.445C117.294 327.613 117.238 327.836 117.126 328.003Z" fill="#F7EBEE"/>
<path d="M117.628 329.118C117.461 329.229 117.238 329.174 117.071 329.006C116.903 328.783 116.959 328.56 117.126 328.393C117.294 328.282 117.517 328.337 117.684 328.505C117.796 328.728 117.796 329.006 117.628 329.118Z" fill="#F7EBEE"/>
<path d="M118.129 330.289C117.962 330.4 117.739 330.345 117.572 330.177C117.404 329.954 117.46 329.675 117.627 329.564C117.795 329.452 118.018 329.508 118.185 329.676C118.296 329.899 118.296 330.177 118.129 330.289Z" fill="#F7EBEE"/>
<path d="M112.778 325.55C112.666 325.438 112.666 325.215 112.834 324.992C113.001 324.769 113.224 324.714 113.391 324.825C113.503 324.937 113.503 325.16 113.335 325.383C113.168 325.55 112.889 325.661 112.778 325.55Z" fill="#F7EBEE"/>
<path d="M111.942 326.442C111.83 326.33 111.83 326.052 111.998 325.884C112.165 325.661 112.388 325.606 112.555 325.717C112.667 325.829 112.667 326.107 112.499 326.275C112.332 326.498 112.109 326.553 111.942 326.442Z" fill="#F7EBEE"/>
<path d="M110.938 327.39C110.827 327.278 110.827 326.999 110.994 326.832C111.161 326.609 111.384 326.553 111.551 326.665C111.663 326.776 111.663 327.055 111.496 327.222C111.328 327.445 111.05 327.501 110.938 327.39Z" fill="#F7EBEE"/>
<path d="M109.935 328.337C109.824 328.226 109.824 327.947 109.991 327.724C110.158 327.501 110.437 327.445 110.548 327.557C110.66 327.668 110.66 327.947 110.493 328.17C110.325 328.393 110.047 328.449 109.935 328.337Z" fill="#F7EBEE"/>
<path d="M111.049 323.487C111.105 323.71 110.882 323.877 110.603 323.933C110.324 323.989 110.101 323.877 110.046 323.654C109.99 323.431 110.213 323.264 110.492 323.208C110.771 323.208 110.994 323.32 111.049 323.487Z" fill="#F7EBEE"/>
<path d="M106.756 323.877C106.812 324.1 106.589 324.323 106.31 324.379C106.032 324.435 105.808 324.379 105.753 324.156C105.697 323.933 105.92 323.71 106.199 323.654C106.478 323.599 106.701 323.71 106.756 323.877Z" fill="#F7EBEE"/>
<path d="M108.206 323.71C108.262 323.933 108.039 324.156 107.816 324.212C107.537 324.268 107.314 324.212 107.259 323.989C107.203 323.766 107.426 323.543 107.705 323.487C107.928 323.431 108.206 323.543 108.206 323.71Z" fill="#F7EBEE"/>
<path d="M109.6 323.543C109.656 323.766 109.433 323.989 109.21 324.045C108.931 324.1 108.708 324.045 108.652 323.822C108.596 323.599 108.819 323.431 109.042 323.32C109.321 323.264 109.544 323.376 109.6 323.543Z" fill="#F7EBEE"/>
<path d="M15.4902 298.214C15.4902 305.255 9.70307 310.849 2.51741 310.849C-4.62002 310.849 -10.6483 305.303 -10.9858 298.262C-11.3234 291.028 -5.58454 285.048 1.89048 285C9.41372 285 15.4902 290.98 15.4902 298.214Z" fill="#06D9A1"/>
<path d="M8.88405 290.064C10.572 290.305 12.1152 290.835 13.6102 291.559C12.1634 289.196 9.99324 287.267 7.34082 286.157C7.58195 287.122 7.72663 288.135 7.82308 289.147C8.30534 289.196 8.73937 289.582 8.88405 290.064Z" fill="#FFDB46"/>
<path d="M0.782227 285.048C3.04884 286.061 5.02611 287.556 6.56933 289.437C6.81046 289.196 7.14805 289.051 7.53385 289.051C7.6303 289.051 7.72676 289.051 7.82321 289.099C7.77498 288.086 7.6303 287.074 7.34095 286.109C5.65304 285.386 3.82046 285 1.89142 285C1.55384 285 1.16803 285.048 0.782227 285.048Z" fill="#06D9A1"/>
<path d="M1.36102 288.81C3.09715 288.81 4.83328 289.099 6.42474 289.582C6.47297 289.533 6.52119 289.485 6.56941 289.437C5.02619 287.556 3.04892 286.061 0.782306 285.048C-4.76367 285.531 -9.15223 289.292 -10.5508 294.26C-7.75368 290.98 -3.5098 288.858 1.36102 288.81Z" fill="#F9F6EF"/>
<path d="M8.98024 290.546C8.98024 290.594 8.98024 290.642 8.98024 290.691C11.6809 292.089 13.8993 294.163 15.3943 296.719C15.1532 294.886 14.5262 293.102 13.6099 291.559C12.3078 290.787 10.9093 290.257 8.88379 290.064C8.98024 290.208 8.98024 290.353 8.98024 290.546Z" fill="#F9F6EF"/>
<path d="M8.98042 290.691C8.93219 291.173 8.64284 291.607 8.20881 291.848C9.41445 294.019 10.1378 296.478 10.1378 299.034C10.1861 303.905 7.87122 308.149 4.20605 310.753C10.5719 309.981 15.4909 304.725 15.4909 298.214C15.4909 297.684 15.4427 297.201 15.3945 296.671C13.8995 294.163 11.6811 292.041 8.98042 290.691Z" fill="#2FCAFE"/>
<path d="M10.1383 299.034C10.0901 296.43 9.41494 294.018 8.20929 291.848C8.20929 291.848 7.87171 291.8 7.6788 291.8C6.71429 299.178 0.493144 304.869 -7.17477 304.869C-7.75348 304.869 -8.28397 304.821 -8.81445 304.773V304.821C-6.40316 308.438 -2.15928 310.849 2.51863 310.849C3.09734 310.849 3.67605 310.801 4.20654 310.753C7.82348 308.1 10.1866 303.856 10.1383 299.034Z" fill="#FFDB46"/>
<path d="M15.4902 298.214C15.4902 305.255 9.70307 310.849 2.51741 310.849C-4.62002 310.849 -10.6483 305.303 -10.9858 298.262C-11.3234 291.028 -5.58454 285.048 1.89048 285C9.41372 285 15.4902 290.98 15.4902 298.214Z" fill="#70CA4E"/>
<path d="M8.88405 290.064C10.572 290.305 12.1152 290.835 13.6102 291.559C12.1634 289.196 9.99324 287.267 7.34082 286.157C7.58195 287.122 7.72663 288.135 7.82308 289.147C8.30534 289.196 8.73937 289.582 8.88405 290.064Z" fill="#FFDB46"/>
<path d="M0.782227 285.048C3.04884 286.061 5.02611 287.556 6.56933 289.437C6.81046 289.196 7.14805 289.051 7.53385 289.051C7.6303 289.051 7.72676 289.051 7.82321 289.099C7.77498 288.086 7.6303 287.074 7.34095 286.109C5.65304 285.386 3.82046 285 1.89142 285C1.55384 285 1.16803 285.048 0.782227 285.048Z" fill="#70CA4E"/>
<path d="M1.36102 288.81C3.09715 288.81 4.83328 289.099 6.42474 289.582C6.47297 289.533 6.52119 289.485 6.56941 289.437C5.02619 287.556 3.04892 286.061 0.782306 285.048C-4.76367 285.531 -9.15223 289.292 -10.5508 294.26C-7.75368 290.98 -3.5098 288.858 1.36102 288.81Z" fill="#F9F6EF"/>
<path d="M8.98024 290.546C8.98024 290.594 8.98024 290.642 8.98024 290.691C11.6809 292.089 13.8993 294.163 15.3943 296.719C15.1532 294.886 14.5262 293.102 13.6099 291.559C12.3078 290.787 10.9093 290.257 8.88379 290.064C8.98024 290.208 8.98024 290.353 8.98024 290.546Z" fill="#F9F6EF"/>
<path d="M8.98042 290.691C8.93219 291.173 8.64284 291.607 8.20881 291.848C9.41445 294.019 10.1378 296.478 10.1378 299.034C10.1861 303.905 7.87122 308.149 4.20605 310.753C10.5719 309.981 15.4909 304.725 15.4909 298.214C15.4909 297.684 15.4427 297.201 15.3945 296.671C13.8995 294.163 11.6811 292.041 8.98042 290.691Z" fill="#2FCAFE"/>
<path d="M10.1383 299.034C10.0901 296.43 9.41494 294.018 8.20929 291.848C8.20929 291.848 7.87171 291.8 7.6788 291.8C6.71429 299.178 0.493144 304.869 -7.17477 304.869C-7.75348 304.869 -8.28397 304.821 -8.81445 304.773V304.821C-6.40316 308.438 -2.15928 310.849 2.51863 310.849C3.09734 310.849 3.67605 310.801 4.20654 310.753C7.82348 308.1 10.1866 303.856 10.1383 299.034Z" fill="#FFDB46"/>
<path d="M9.31785 291.125C8.93204 291.703 8.01575 291.752 7.34059 291.269C6.66542 290.787 6.4243 289.919 6.8101 289.34C7.19591 288.762 8.1122 288.713 8.78736 289.196C9.51075 289.678 9.70366 290.546 9.31785 291.125Z" fill="#706375"/>
<path opacity="0.55" d="M9.75283 288.472C12.1641 289.823 13.2251 292.475 12.1641 294.404C11.1032 296.333 8.25783 296.767 5.84653 295.417C3.43524 294.067 2.37427 291.414 3.43524 289.485C4.54444 287.556 7.38976 287.122 9.75283 288.472Z" fill="#A7C993"/>
<path opacity="0.55" d="M13.7564 300.577C11.6827 302.748 8.6927 303.857 5.70269 303.664C2.51978 303.423 -0.422 301.687 -2.20636 298.986C-2.88152 297.925 -3.41201 296.768 -3.65314 295.562C-4.37652 292.186 -3.26733 288.569 -0.759581 286.206C-2.78507 286.64 -4.7141 287.605 -6.30556 289.051C-9.39202 291.848 -10.7906 296.189 -9.87428 300.288C-9.53669 301.783 -8.95798 303.182 -8.08992 304.435C-5.91975 307.667 -2.30281 309.74 1.55526 310.03C5.1722 310.319 8.83737 308.969 11.3933 306.364C13.1777 304.484 14.2869 302.121 14.5763 299.613C14.2869 299.902 14.0458 300.24 13.7564 300.577Z" fill="#A49A90"/>
<path d="M126.242 293.504C126.722 293.94 127.071 294.551 127.114 295.38C127.681 305.193 137.059 312.52 146.087 314.221C150.754 315.093 156.86 315.486 160.785 312.695C161.003 312.564 161.221 312.389 161.439 312.215C163.794 310.514 165.539 308.159 166.368 305.367C168.854 297.124 166.15 286.7 157.514 281.641C140.635 271.74 129.252 285.13 129.034 285.479C127.725 287.398 126.635 290.277 126.242 293.504ZM142.249 293.461C142.249 293.461 146.218 291.498 150.405 295.031C154.635 298.607 154.025 303.972 148.093 302.532C142.162 301.137 140.853 294.464 142.249 293.461Z" fill="#FF3E4A"/>
<path d="M141.767 295.379C141.854 296.601 142.378 298.127 143.468 299.523C139.325 301.355 134.92 302.968 131.3 305.585C129.075 302.881 127.549 299.654 127.156 296.121C132.041 296.034 136.839 295.772 141.767 295.379Z" fill="#FDC2B3"/>
<path d="M140.458 278.588C140.502 278.588 140.545 278.588 140.589 278.544C140.851 278.5 141.156 278.413 141.461 278.37H141.505C143.075 278.064 144.776 277.977 146.564 278.108C148.396 278.239 150.315 278.631 152.365 279.329C152.234 279.46 152.103 279.634 151.972 279.765C150.751 281.423 148.004 291.105 147.349 292.719C144.165 293.068 138.103 281.902 136.358 280.027C137.362 279.547 138.408 279.155 139.586 278.806H139.629C139.935 278.718 140.196 278.675 140.458 278.588Z" fill="#FDC2B3"/>
<path d="M149.357 303.099C149.401 302.969 149.444 302.881 149.488 302.751C150.273 302.794 150.927 302.707 151.451 302.489C154.591 305.934 158.298 308.987 161.874 311.822C161.7 311.953 161.526 312.084 161.351 312.215C161.133 312.389 160.915 312.52 160.697 312.695C156.815 315.442 150.753 315.094 146.086 314.221C146.566 312.433 146.958 310.601 147.482 308.857C148.092 307.025 148.441 304.757 149.357 303.099Z" fill="#FDC2B3"/>
<path opacity="0.55" d="M156.51 308.987C162.398 306.981 165.713 299.043 165.059 292.283C165.975 295.074 166.28 298.083 165.713 301.398C164.448 309.162 157.644 311.517 155.071 311.909C148.703 312.912 142.553 312.215 137.581 307.679C136.709 306.894 135.924 305.89 135.183 304.887C141.376 309.205 149.837 311.211 156.51 308.987Z" fill="#B03E4A"/>
<path d="M148.092 302.576C154.024 304.015 154.635 298.607 150.404 295.074C146.479 291.76 142.597 293.33 141.986 293.766C142.684 292.021 142.946 291.062 145.388 290.102C147.133 289.404 149.357 289.71 150.927 290.844C153.37 292.545 156.466 295.641 154.504 300.352C153.675 302.358 151.582 303.623 149.401 303.536C147.787 303.448 147.089 302.838 146.261 301.965C146.871 302.184 147.438 302.402 148.092 302.576Z" fill="#C72B37"/>
<path d="M128.945 285.479C128.989 285.435 129.468 284.868 130.297 284.083C128.073 288.75 129.032 294.333 130.559 299.217C132.085 304.189 135.792 308.9 142.858 311.56C148.135 313.523 155.812 314.439 163.008 309.816C164.229 309.031 164.971 307.81 165.887 306.763C163.139 313.916 154.983 318.233 145.693 316.576C121.879 312.345 124.496 292.37 128.945 285.479Z" fill="#DB2C39"/>
<path opacity="0.55" d="M137.45 290.931C136.796 292.589 137.057 294.508 137.93 296.034C138.802 297.561 140.285 298.695 141.898 299.436C140.852 298.215 140.285 296.601 140.328 294.987C140.372 293.374 141.026 291.76 142.16 290.626C142.596 290.146 143.12 289.754 143.73 289.492C144.385 289.187 145.082 289.056 145.824 288.968C148.31 288.75 150.927 289.492 152.802 291.106C154.678 292.719 155.812 295.249 155.681 297.735C156.335 296.601 156.291 295.162 155.986 293.853C155.157 290.539 152.584 287.704 149.357 286.57C146.129 285.436 142.335 286.09 139.674 288.183C138.715 288.881 137.886 289.797 137.45 290.931Z" fill="#C72C39"/>
<path opacity="0.75" d="M142.031 284.258C141.421 284.65 140.81 285.086 140.156 285.435C139.501 285.784 138.76 286.002 138.019 285.828C137.321 285.653 136.71 284.955 136.797 284.258C136.841 283.821 137.146 283.429 137.452 283.08C138.368 282.12 139.589 281.51 140.854 281.03C144.386 279.678 148.399 279.678 151.975 280.943C155.552 282.208 158.605 284.781 160.524 288.096C160.916 288.794 161.265 289.535 161.265 290.32C161.265 291.105 160.873 291.934 160.175 292.239C159.477 292.544 158.648 292.239 158.081 291.716C157.514 291.192 157.165 290.494 156.817 289.84C155.683 287.703 154.243 285.566 152.106 284.345C150.798 283.603 149.315 283.298 147.788 283.167C145.782 282.993 143.732 283.254 142.031 284.258Z" fill="#FF7C59"/>
<path opacity="0.95" d="M133.743 290.32C133.046 290.189 132.435 289.71 132.173 289.055C131.912 288.401 132.042 287.616 132.479 287.093C132.915 286.569 133.7 286.308 134.398 286.482C134.529 286.526 134.659 286.569 134.79 286.657C135.096 286.875 135.314 287.223 135.444 287.572C135.663 288.096 135.837 288.663 135.663 289.186C135.488 289.753 134.965 290.233 134.398 290.364C133.787 290.407 134.354 290.451 133.743 290.32Z" fill="#FF7C59"/>
<path opacity="0.95" d="M132.869 292.152C133.61 292.152 134.352 292.719 134.526 293.461C134.57 293.635 134.57 293.809 134.526 293.984C134.395 294.333 133.959 294.42 133.61 294.42C133.043 294.464 132.433 294.376 132.084 293.897C131.735 293.461 131.909 292.719 132.389 292.414C132.782 292.196 132.433 292.152 132.869 292.152Z" fill="#FF7C59"/>
<path opacity="0.75" d="M138.846 301.573C138.846 301.791 138.672 301.966 138.453 302.053C137.712 302.358 136.883 302.271 136.142 301.966C134.354 301.224 133.132 299.349 133.089 297.43C133.089 297.037 133.132 296.645 133.438 296.383C133.699 296.208 134.048 296.208 134.354 296.339C134.659 296.47 134.877 296.732 135.052 296.993C135.531 297.691 135.749 298.52 136.273 299.218C136.883 300.046 137.843 300.526 138.628 301.224C138.715 301.311 138.802 301.442 138.846 301.573Z" fill="#FF7C59"/>
<path opacity="0.75" d="M141.158 303.056C141.507 302.663 142.117 302.663 142.641 302.751C143.775 302.969 144.691 303.666 145.737 304.146C146.653 304.539 147.613 304.713 148.572 304.844C150.186 305.062 151.887 305.193 153.501 304.888C155.114 304.626 156.728 303.928 157.862 302.751C158.516 302.096 158.996 301.355 159.476 300.57C159.65 300.308 159.781 300.046 159.956 299.785C160.305 299.174 160.741 299.13 161.046 299.13C161.351 299.13 161.569 299.261 161.7 299.785C161.7 299.828 161.7 299.872 161.7 299.916C161.7 300.046 161.744 300.134 161.744 300.264C161.744 300.308 161.744 300.352 161.744 300.352C161.439 301.922 160.61 303.405 159.476 304.539C157.557 306.414 154.896 307.374 152.192 307.592C149.532 307.81 146.828 307.374 144.211 306.719C142.815 306.371 141.158 305.76 140.809 304.364C140.765 303.928 140.809 303.405 141.158 303.056Z" fill="#FF7C59"/>
<path d="M19.079 176.193L19.993 186.704L20.0501 187.275L20.6214 193.616C20.6214 193.616 18.5077 193.159 18.0507 191.617C17.9365 191.274 17.5937 189.389 17.3081 187.218C17.2509 187.047 17.251 186.818 17.1938 186.59C16.9082 184.647 16.6797 182.591 16.6797 181.277C16.6226 178.192 19.079 176.193 19.079 176.193Z" fill="#2D1C64"/>
<path d="M19.993 186.704L20.0501 187.275C19.1933 187.275 18.0507 187.275 17.251 187.218C17.1938 187.046 17.1938 186.818 17.1367 186.589C17.8794 186.704 18.9647 186.818 19.993 186.704Z" fill="#403384"/>
<path d="M18.8487 155.342L18.3917 167.052V167.738V174.821C18.3917 174.821 16.0495 174.079 15.7639 172.308C15.7068 171.908 15.4783 169.794 15.364 167.395C15.364 167.167 15.364 166.938 15.3069 166.71C15.1927 164.539 15.1355 162.254 15.2498 160.711C15.4783 157.284 18.8487 155.342 18.8487 155.342Z" fill="#2D1C64"/>
<path d="M18.3919 167.052V167.738C17.4208 167.681 16.164 167.566 15.3071 167.395C15.3071 167.167 15.3071 166.938 15.25 166.71C16.0498 166.881 17.2494 167.109 18.3919 167.052Z" fill="#403384"/>
<path d="M61.2932 146.545C61.2932 146.545 62.6642 189.332 60.1507 198.815C59.9222 199.614 59.6937 200.186 59.4081 200.471C55.9234 203.956 28.5601 207.612 22.7333 198.643C15.7068 187.846 18.7916 151.172 19.2486 146.487C19.4771 144.202 20.5054 142.203 22.1049 140.546L22.162 140.489L22.2192 140.432L22.2763 140.375L22.3334 140.318C29.417 133.406 46.4405 131.92 53.924 133.805C63.2355 136.148 61.2932 146.545 61.2932 146.545Z" fill="#2D1C64"/>
<path d="M60.1507 198.814C59.9222 199.614 59.6937 200.185 59.4081 200.471C55.9234 203.956 28.5601 207.612 22.7333 198.643C15.7068 187.846 18.7916 151.171 19.2486 146.487C19.4771 144.202 20.5054 142.203 22.1049 140.546L22.162 140.489L22.2192 140.432L22.2763 140.375L22.3334 140.317C23.0189 139.632 26.0466 137.233 30.0454 139.975C34.6726 143.174 28.046 153.514 28.6744 171.28C29.3028 189.046 30.1597 200.3 35.4724 200.242C39.0713 200.185 50.8963 199.785 60.1507 198.814Z" fill="#403384"/>
<path d="M35.7011 136.205L34.6729 135.805C34.7871 135.576 36.8436 130.263 40.6711 130.092C43.813 129.921 45.184 132.891 45.4125 134.491L44.3271 134.662C44.3271 134.491 43.6987 131.063 40.7282 131.177C37.6434 131.349 35.7582 136.147 35.7011 136.205Z" fill="#2D1C64"/>
<path d="M67.6914 139.861C67.6914 139.861 76.6602 147.287 77.8027 156.542L68.6054 157.741L67.6914 139.861Z" fill="#1F73AF"/>
<path d="M30.4463 297.814L29.9893 303.697C31.3603 304.269 33.3597 304.44 35.0163 304.155L36.3873 298.442C36.4445 298.385 32.6742 296.443 30.4463 297.814Z" fill="#FCB38F"/>
<path d="M35.4172 311.638C35.3601 312.095 35.303 312.609 35.2459 313.066H12.8525C12.8525 312.552 12.9097 312.095 13.0239 311.638C13.3667 310.267 14.2807 309.067 15.5375 308.325C18.965 306.325 23.9921 305.411 23.9921 305.411C25.4202 304.04 29.7618 301.755 29.7618 301.755C33.3607 303.183 35.3601 302.555 35.3601 302.555C36.3313 305.697 35.8171 308.724 35.4172 311.638Z" fill="#F5345A"/>
<path d="M35.4172 311.638C35.3601 312.095 35.303 312.609 35.2459 313.066H12.8525C12.8525 312.552 12.9097 312.095 13.0239 311.638H35.4172Z" fill="#BD185A"/>
<path d="M74.6038 298.727L75.9177 303.298L70.7764 305.011L70.0909 299.242C70.0338 299.184 72.3188 297.414 74.6038 298.727Z" fill="#FCB38F"/>
<path d="M86.8285 313.066H70.4334C70.4334 313.066 70.262 312.552 70.0335 311.638C69.6336 309.81 69.2337 306.44 70.2049 302.555C70.2049 302.555 74.2037 303.126 75.4604 302.155C75.4604 302.155 77.0028 302.612 80.3733 305.526C80.3733 305.526 86.143 306.782 86.7142 311.638C86.8856 312.095 86.8856 312.552 86.8285 313.066Z" fill="#F5345A"/>
<path d="M86.8292 313.066H70.4341C70.4341 313.066 70.2627 312.552 70.0342 311.638H86.772C86.8863 312.095 86.8863 312.552 86.8292 313.066Z" fill="#BD185A"/>
<path d="M36.1007 205.898L29.5312 299.641H36.6149L41.0135 279.305C43.8698 273.135 47.5259 259.082 46.7832 251.084C48.7827 242.858 50.0965 231.947 51.2962 220.408C51.2962 220.408 54.0953 220.922 56.3804 220.465C56.9516 231.033 58.7797 241.487 61.8073 252.056C61.1789 258.911 63.2926 270.622 65.292 276.22L68.6624 299.584C70.7761 300.384 73.0611 300.327 75.5747 299.584L70.9475 202.756C70.9475 202.87 44.0983 201.271 36.1007 205.898Z" fill="#282A3A"/>
<path d="M47.7545 137.004L31.5879 144.545L38.6715 179.22L36.1008 205.898C36.1008 205.898 61.0077 207.44 70.9476 202.813L67.6914 139.86L56.609 138.889L47.7545 137.004Z" fill="#2B92D5"/>
<path d="M60.4941 139.175C60.4941 139.175 69.52 175.336 70.0913 187.275C70.0913 187.275 72.2049 177.906 71.2909 168.595C70.3769 159.283 65.9782 139.632 65.9782 139.632C65.9782 139.632 63.4647 136.947 60.4941 139.175Z" fill="#2D1C64"/>
<path d="M36.4434 142.26C36.4434 142.26 37.186 140.374 39.471 139.632C41.6989 138.889 42.1559 139.575 42.1559 139.575C42.1559 139.575 52.8956 154.77 46.0976 182.248C43.527 192.645 37.0146 196.243 37.0146 196.243L37.8715 186.475C37.9286 186.475 48.3827 163.739 36.4434 142.26Z" fill="#2D1C64"/>
<path d="M57.0659 137.69L56.0376 141.46L55.9234 141.86C52.0388 142.717 47.8115 137.004 47.8115 137.004L48.3828 128.435C50.2679 127.978 52.8386 131.12 54.7238 133.862C56.0948 135.862 57.0659 137.69 57.0659 137.69Z" fill="#FCB38F"/>
<path d="M57.0665 137.69L56.0383 141.46C51.2397 139.575 50.2686 131.177 50.2686 131.177L54.7244 133.919C56.0954 135.862 57.0665 137.69 57.0665 137.69Z" fill="#FD8471"/>
<path d="M47.8118 117.296C47.8118 117.296 47.5833 124.037 48.4402 129.007C49.2971 133.977 55.2953 139.518 58.2087 139.289C61.1221 139.061 64.7782 133.006 65.6922 131.406C66.6062 129.807 67.8059 121.295 67.6916 119.695C67.5774 118.039 64.6068 111.126 57.5232 109.584C50.4396 108.042 47.8118 117.296 47.8118 117.296Z" fill="#FCB38F"/>
<path d="M45.9269 120.438C45.9269 120.438 45.5842 116.153 46.6124 113.64C47.6407 111.126 49.8115 110.498 49.8115 110.498C49.8115 110.498 53.5818 104.271 58.6088 105.071C63.6359 105.814 67.8632 106.728 68.9486 109.412C70.034 112.097 68.7772 116.725 67.9204 117.182C67.9204 117.182 68.206 120.266 67.6347 121.352C67.6347 121.352 67.5205 120.038 66.2637 118.61C65.0069 117.182 63.1218 117.696 61.9221 118.438C60.7225 119.181 59.1801 118.895 57.1807 117.696C55.1813 116.496 51.411 118.153 51.3539 119.181C51.2967 120.209 48.2691 123.351 48.2691 123.351L45.9269 120.438Z" fill="#382420"/>
<path d="M47.7543 121.124C47.7543 121.124 46.9545 118.781 45.1265 119.581C43.2985 120.381 42.9557 128.721 48.3255 128.436L47.7543 121.124Z" fill="#FCB38F"/>
<path d="M47.2401 126.836C47.2401 126.836 47.183 125.294 46.9545 124.037C46.4975 123.808 45.7549 123.98 45.7549 123.98C45.9834 123.351 46.5546 123.351 46.8402 123.409C46.726 123.009 46.6117 122.666 46.4975 122.494C45.9262 121.752 45.2979 121.98 45.2979 121.98C45.2979 121.98 45.5835 121.123 46.3832 121.352C47.1259 121.58 47.6971 125.465 47.2401 126.836Z" fill="#FD8471"/>
<path d="M50.897 124.551C50.897 124.551 56.9523 124.723 59.4087 125.351L61.6366 125.522C61.6366 125.522 67.5777 124.437 69.0059 124.437C69.0059 124.437 69.7485 124.723 69.4057 125.122C69.063 125.465 69.2915 125.237 69.2915 125.237L67.1778 128.836C67.0636 129.064 66.8922 129.178 66.6637 129.293C65.9211 129.521 64.093 130.035 62.6078 129.75C62.3221 129.692 62.1508 129.521 61.9794 129.293C61.6937 128.721 61.1225 127.522 61.0654 126.779L59.98 126.722C59.98 126.722 58.6661 128.836 57.2379 129.807C57.0094 129.978 56.7809 130.035 56.4953 130.035C55.5813 130.092 53.2391 130.035 51.4111 129.35C51.0112 129.178 50.7827 128.778 50.7827 128.379L51.0112 125.637C51.1255 125.579 50.2115 124.894 50.897 124.551Z" fill="#1D1E1E"/>
<path d="M46.8408 119.695C48.2118 120.552 49.8685 122.552 51.5251 124.608L51.0681 125.636L47.7548 121.866C47.812 121.809 47.6977 120.724 46.8408 119.695Z" fill="#1D1E1E"/>
<path d="M69.348 124.665L67.52 122.038L67.3486 123.466L68.6054 125.122C68.6625 125.122 69.0053 125.18 69.348 124.665Z" fill="#1D1E1E"/>
<path d="M58.4951 131.406C58.4951 131.406 59.352 132.32 60.2089 132.263C61.0087 132.206 61.5228 131.52 61.5228 131.52C61.5228 131.52 61.4085 132.491 60.6088 132.663C59.7519 132.777 59.0092 132.377 58.4951 131.406Z" fill="#FD8471"/>
<path d="M55.2376 132.834C55.2376 132.834 58.7223 134.205 62.3212 133.52C62.3212 133.52 60.9502 136.547 58.5509 136.147C56.6086 135.748 55.1234 133.748 55.2376 132.834Z" fill="white"/>
<path d="M39.4686 179.62C39.4686 179.62 31.6424 182.991 28.3862 182.077L26.1012 167.167C25.587 162.654 25.4156 159.055 25.7584 156.084C26.2725 150.772 26.6153 147.458 31.6424 144.545L32.0994 145.859C32.5564 148.144 33.1848 151.686 33.756 154.256C35.2413 160.997 36.4409 166.253 37.2978 170.195C37.4692 171.051 37.6977 171.851 37.8691 172.594C38.7831 176.593 39.2972 178.821 39.4686 179.62Z" fill="#1F73AF"/>
<path opacity="0.5" d="M37.8687 172.651C37.8687 172.651 31.4706 177.393 29.9854 179.906C29.9854 179.906 31.8134 174.651 34.2127 172.651C35.5266 171.566 36.6119 170.709 37.2975 170.252C37.4688 171.052 37.6973 171.908 37.8687 172.651Z" fill="#0071B6"/>
<path d="M28.2148 181.048C28.2148 181.048 29.0146 188.132 33.5275 189.731C38.0405 191.331 43.3532 182.476 47.352 172.765L42.5534 167.224C37.4692 174.365 35.1842 174.022 28.2148 181.048Z" fill="#1F73AF"/>
<path d="M46.2668 164.025L45.8669 160.769C45.8669 160.769 42.0966 165.11 42.4965 167.167C42.8964 169.223 43.2391 175.85 46.4382 175.164C49.6372 174.479 51.5224 172.251 51.0654 169.109C50.3799 163.968 46.2668 164.025 46.2668 164.025Z" fill="#FCB38F"/>
<path d="M91.7978 297.813L91.3408 303.697C92.7118 304.268 94.7112 304.44 96.3679 304.154L97.7389 298.442C97.796 298.384 94.0829 296.442 91.7978 297.813Z" fill="#FCB38F"/>
<path d="M96.7673 311.637C96.7102 312.094 96.6531 312.609 96.596 313.066H74.2598C74.2598 312.551 74.3169 312.094 74.4311 311.637C74.831 310.266 75.6879 309.067 76.9447 308.324C80.3722 306.325 85.3993 305.411 85.3993 305.411C86.8274 304.04 91.169 301.755 91.169 301.755C94.7679 303.183 96.7673 302.554 96.7673 302.554C97.7385 305.696 97.1672 308.724 96.7673 311.637Z" fill="#0096D0"/>
<path d="M96.7673 311.637C96.7102 312.094 96.6531 312.609 96.596 313.066H74.2598C74.2598 312.551 74.3169 312.094 74.4311 311.637H96.7673Z" fill="#0071B6"/>
<path d="M124.816 297.356L127.159 303.297L132.3 305.011L131.043 297.013C131.1 296.956 127.101 296.042 124.816 297.356Z" fill="#FCB38F"/>
<path d="M116.248 313.066H132.643C132.643 313.066 132.815 312.552 133.043 311.638C133.443 309.81 132.929 306.039 131.958 302.098C131.958 302.098 128.188 303.183 126.931 302.269C126.931 302.269 126.074 302.612 122.646 305.525C122.646 305.525 116.877 306.782 116.305 311.638C116.248 312.095 116.191 312.552 116.248 313.066Z" fill="#0096D0"/>
<path d="M116.248 313.066H132.643C132.643 313.066 132.815 312.552 133.043 311.638H116.305C116.248 312.095 116.191 312.552 116.248 313.066Z" fill="#0071B6"/>
<path d="M131.044 204.413C131.044 204.413 109.05 202.585 100.367 202.585C98.2535 218.637 95.6828 235.032 95.7971 249.542L90.9414 299.699H98.025L102.424 279.362C105.28 273.192 108.936 259.139 108.193 251.142C110.193 242.916 111.507 232.005 112.706 220.465C112.706 220.465 113.792 221.208 116.077 220.694C116.077 220.694 113.849 252.227 114.02 257.026L124.703 298.27L131.444 297.356C131.444 297.356 130.244 280.104 130.701 271.593C131.272 260.339 126.702 252.513 126.702 252.513C126.702 252.513 130.644 226.52 131.501 218.409C132.243 210.24 131.044 204.413 131.044 204.413Z" fill="#282A3A"/>
<path d="M104.251 129.578C103.566 126.664 106.822 113.754 114.991 115.468C122.474 117.067 127.787 117.867 129.843 122.037C131.9 126.207 132.243 127.464 133.157 132.148C134.413 138.604 128.187 142.831 134.128 145.002C140.355 147.287 142.011 156.256 139.441 160.711C136.87 165.167 139.783 166.138 138.412 171.737C137.041 177.335 122.988 181.22 119.332 175.678C116.933 172.022 100.424 167.795 99.5096 154.656C98.3099 138.09 110.706 136.49 109.906 134.091C109.107 131.691 104.251 129.578 104.251 129.578Z" fill="#2C1817"/>
<path d="M131.785 160.768C129.443 164.596 125.272 176.821 125.672 181.505C126.072 186.246 129.728 197.329 133.156 206.126C133.156 206.126 117.389 212.181 98.0234 206.126C98.0234 206.126 103.622 187.674 103.622 178.363C103.622 169.051 100.88 156.769 103.165 153.228C103.165 153.228 107.221 151.457 110.305 149.514C111.505 148.772 112.533 147.972 113.162 147.229C113.162 147.229 117.332 147.401 120.76 145.344C120.76 145.344 122.131 146.373 124.016 147.686C126.986 149.686 129.843 151.914 132.585 152.599C132.699 152.599 134.127 156.941 131.785 160.768Z" fill="#3FD9D7"/>
<path d="M124.129 147.686C122.929 149.8 119.501 155.284 115.217 156.198C111.675 156.941 110.647 152.542 110.361 149.514C111.561 148.772 112.589 147.972 113.218 147.229C113.218 147.229 117.388 147.401 120.815 145.344C120.872 145.344 122.186 146.373 124.129 147.686Z" fill="#FCB38F"/>
<path d="M121.503 146.773C119.561 149.686 113.334 150.543 113.334 150.543C113.506 149.172 113.277 146.944 112.935 145.002C112.592 142.945 112.249 141.231 112.249 141.231L118.133 140.203L118.419 140.146L121.503 146.773Z" fill="#FCB38F"/>
<path d="M118.133 140.203C117.105 141.746 115.277 144.088 112.935 145.002C112.592 142.945 112.249 141.231 112.249 141.231L118.133 140.203Z" fill="#FD8471"/>
<path d="M110.593 119.638C110.593 119.638 105.451 124.722 105.051 126.15C104.651 127.521 104.366 129.406 104.366 129.406L101.281 131.977C100.995 132.206 100.938 132.663 101.224 132.948C101.624 133.348 102.195 133.919 102.938 134.262C102.938 134.262 102.595 135.576 102.709 136.319C102.823 137.061 102.595 140.889 102.366 141.631C102.138 142.374 103.737 144.373 106.308 143.745C108.879 143.117 119.161 141.346 121.961 137.633C124.703 133.862 124.588 126.664 124.474 124.893C124.36 123.065 115.562 117.296 110.593 119.638Z" fill="#FCB38F"/>
<path d="M103.223 137.005C103.223 137.005 106.25 137.462 108.992 136.262C108.992 136.262 107.793 140.375 104.879 140.204C102.994 140.089 103.223 137.005 103.223 137.005Z" fill="white"/>
<path d="M102.08 124.608C102.08 124.608 104.079 124.779 104.479 125.465C104.936 126.15 105.279 126.436 105.279 126.436C105.279 126.436 106.936 126.493 107.678 126.779C108.421 127.064 109.906 128.55 109.906 128.55L114.019 129.007L113.905 129.978L109.735 130.092C109.735 130.092 108.821 134.319 107.336 134.491C105.907 134.719 104.251 132.377 104.936 128.435L104.594 128.15L104.251 129.406C104.251 129.406 102.366 130.949 101.623 131.577C101.794 131.577 100.652 127.121 102.08 124.608Z" fill="#1D1E1E"/>
<path d="M106.593 123.237C106.593 123.237 109.506 121.066 110.363 121.123C111.22 121.123 111.106 126.95 112.934 129.178C114.762 131.406 114.933 141.46 118.018 142.774C121.103 144.088 124.073 140.317 125.273 135.576C126.473 130.835 127.101 124.037 127.101 124.037C127.101 124.037 122.588 119.866 122.302 119.695C121.96 119.524 111.905 113.525 106.593 123.237Z" fill="#2C1817"/>
<path d="M129.501 183.391L122.188 181.163C122.188 181.163 122.817 179.563 123.674 177.164C123.845 176.65 124.074 176.079 124.302 175.45C126.187 170.252 128.644 162.768 129.101 158.884C129.101 158.884 130.3 153.685 132.642 152.6C132.642 152.6 136.127 155.742 136.413 161.169C136.698 166.596 132.014 178.192 129.501 183.391Z" fill="#FCB38F"/>
<path d="M128.643 179.278C127.272 178.021 124.416 177.278 123.73 177.164C123.902 176.65 124.13 176.079 124.359 175.45C128.129 176.707 128.643 179.278 128.643 179.278Z" fill="#FD8471"/>
<path d="M124.13 177.278C124.13 177.278 121.103 176.307 116.818 175.45C114.362 174.936 108.592 171.566 108.592 171.566L107.05 176.364C107.05 176.364 118.875 185.161 123.559 186.704C128.301 188.303 130.072 182.02 130.072 182.02L124.13 177.278Z" fill="#FCB38F"/>
<path d="M109.392 174.765C108.993 176.707 106.936 176.992 105.165 176.136C102.88 175.05 100.481 173.851 99.6811 171.965C98.4243 168.938 98.1958 165.51 99.1669 165.567C100.195 165.624 106.136 167.338 106.136 167.338L106.765 164.596C108.707 167.281 109.621 172.594 109.621 172.594C109.621 172.594 109.621 173.565 109.392 174.765Z" fill="#FCB38F"/>
<path d="M64.9486 193.273C63.0063 193.101 61.1783 190.359 61.8066 188.531C62.6064 186.132 63.6347 184.818 65.4056 183.79C68.2619 182.19 71.0039 183.561 71.061 184.59C71.1182 185.618 70.9468 189.103 70.9468 189.103L73.6888 189.902C71.2324 192.13 69.2901 192.816 69.2901 192.816C69.2901 192.816 66.1482 193.33 64.9486 193.273Z" fill="#FCB38F"/>
<path d="M70.9473 190.702C70.9473 190.702 79.1734 191.273 83.8006 190.359C88.4278 189.445 92.0267 186.589 92.0267 186.589L71.5757 189.959L70.9473 190.702Z" fill="#FCB38F"/>
<path d="M110.078 150.03L106.765 164.597L106.136 167.339C106.136 167.339 100.195 165.625 99.1669 165.568C98.1387 165.511 98.4243 168.938 99.6811 171.966C100.367 173.565 102.252 174.708 104.251 175.679L102.195 184.705L73.6888 189.903H73.6317L70.9468 189.104C70.9468 189.104 71.1182 185.562 71.061 184.591C71.0039 183.563 68.2619 182.191 65.4056 183.791C64.2059 184.477 63.2919 185.333 62.6064 186.59L48.6106 182.363L47.6394 174.822C50.153 173.908 51.4669 171.852 51.1241 169.053C50.3815 163.911 46.2684 163.968 46.2684 163.968L45.8685 160.769L43.8691 145.46L76.945 155.285L110.078 150.03Z" fill="#FFDAD2"/>
<path opacity="0.5" d="M110.079 150.03L106.765 164.597L106.137 167.339C106.137 167.339 100.196 165.625 99.1676 165.568C98.1393 165.511 98.4249 168.938 99.6817 171.966C100.367 173.565 102.252 174.708 104.252 175.679L102.195 184.705L73.6895 189.903L77.0028 155.285L110.079 150.03Z" fill="#C0D1E0" fill-opacity="0.7"/>
</g>
<defs>
<linearGradient id="paint0_linear_152_6833" x1="78" y1="120.163" x2="78" y2="-11.5206" gradientUnits="userSpaceOnUse">
<stop stop-color="#B2F3FD"/>
<stop offset="0.404" stop-color="#9EF0FC"/>
<stop offset="0.5048" stop-color="#85E0FC"/>
<stop offset="0.7326" stop-color="#52C0FD"/>
<stop offset="0.9048" stop-color="#32ACFE"/>
<stop offset="1" stop-color="#26A4FE"/>
</linearGradient>
<linearGradient id="paint1_linear_152_6833" x1="131.892" y1="159.49" x2="179.674" y2="155.07" gradientUnits="userSpaceOnUse">
<stop stop-color="#DDD6A4"/>
<stop offset="0.3627" stop-color="#D3C8BE"/>
<stop offset="0.4131" stop-color="#DAD0C8"/>
<stop offset="0.5877" stop-color="#EEEAE6"/>
<stop offset="0.7373" stop-color="#FBF9F8"/>
<stop offset="0.8435" stop-color="white"/>
</linearGradient>
<linearGradient id="paint2_linear_152_6833" x1="126.912" y1="164.009" x2="171.027" y2="159.855" gradientUnits="userSpaceOnUse">
<stop stop-color="#DDD6A4"/>
<stop offset="0.3627" stop-color="#D3C8BE"/>
<stop offset="0.4131" stop-color="#DAD0C8"/>
<stop offset="0.5877" stop-color="#EEEAE6"/>
<stop offset="0.7373" stop-color="#FBF9F8"/>
<stop offset="0.8435" stop-color="white"/>
</linearGradient>
<linearGradient id="paint3_linear_152_6833" x1="-49.9093" y1="63.5913" x2="11.1705" y2="57.9416" gradientUnits="userSpaceOnUse">
<stop stop-color="#DDD6A4"/>
<stop offset="0.3627" stop-color="#D3C8BE"/>
<stop offset="0.4131" stop-color="#DAD0C8"/>
<stop offset="0.5877" stop-color="#EEEAE6"/>
<stop offset="0.7373" stop-color="#FBF9F8"/>
<stop offset="0.8435" stop-color="white"/>
</linearGradient>
<linearGradient id="paint4_linear_152_6833" x1="-56.2754" y1="69.3565" x2="0.116891" y2="64.0457" gradientUnits="userSpaceOnUse">
<stop stop-color="#DDD6A4"/>
<stop offset="0.3627" stop-color="#D3C8BE"/>
<stop offset="0.4131" stop-color="#DAD0C8"/>
<stop offset="0.5877" stop-color="#EEEAE6"/>
<stop offset="0.7373" stop-color="#FBF9F8"/>
<stop offset="0.8435" stop-color="white"/>
</linearGradient>
</defs>
</svg>
