<svg width="42" height="52" viewBox="0 0 42 52" fill="none" xmlns="http://www.w3.org/2000/svg">
<path d="M21.246 18.9152L21.0456 18.8172C20.9955 18.8172 20.9454 18.7682 20.8953 18.7682L14.7319 16.171V5.34128C14.7319 3.62617 13.2788 2.20508 11.525 2.20508C9.77116 2.20508 8.31802 3.62617 8.31802 5.34128V16.171L1.70369 18.9152C0.701519 19.4542 0 20.4833 0 21.6593V49.5911C0 51.3063 1.45315 51.5513 3.20695 51.5513H19.7428C21.4966 51.5513 22.9497 51.3553 22.9497 49.5911V21.6593C22.9497 20.4833 22.2482 19.4542 21.246 18.9152Z" fill="#E6E0CA"/>
<path d="M20.8956 19.5523L20.7453 19.4543C20.6952 19.4543 20.645 19.4053 20.5949 19.4053L18.1396 18.3762H4.76064L2.05477 19.5033C1.25304 19.9443 0.751953 20.7774 0.751953 21.6594V49.5912C0.751953 50.4733 1.10271 50.8163 3.25738 50.8163H19.7431C21.8978 50.8163 22.2485 50.4733 22.2485 49.5912V21.6594C22.2485 20.7774 21.7474 19.9443 20.8956 19.5523Z" fill="#EB7801"/>
<path d="M15.4334 3.62624C15.4334 3.92025 14.9323 4.16527 14.3811 4.16527H8.46829C7.86699 4.16527 7.41602 3.92025 7.41602 3.62624V0.539035C7.41602 0.245016 7.9171 0 8.46829 0H14.3811C14.9824 0 15.4334 0.245016 15.4334 0.539035V3.62624Z" fill="#394251"/>
<path d="M6.41404 50.1303C6.41404 50.7183 5.91296 51.1593 5.36176 51.1593H4.4097C3.8084 51.1593 3.35742 50.6693 3.35742 50.1303V20.7774C3.35742 20.1893 3.85851 19.7483 4.4097 19.7483H5.36176C5.96307 19.7483 6.41404 20.2383 6.41404 20.7774V50.1303Z" fill="#E6E0CA"/>
<path d="M10.7234 14.799C10.7234 15.1911 10.4227 15.4851 10.0218 15.4851C9.62096 15.4851 9.32031 15.1911 9.32031 14.799V5.58643C9.32031 5.19441 9.62096 4.90039 10.0218 4.90039C10.4227 4.90039 10.7234 5.19441 10.7234 5.58643V14.799Z" fill="#F7F3E7"/>
<path d="M14.6824 6.51733H8.26855V11.8097H14.6824V6.51733Z" fill="#B1291D"/>
<path d="M14.6824 7.30151H8.26855V8.18357H14.6824V7.30151Z" fill="#E6E0CA"/>
<path d="M14.6824 10.0947H8.26855V10.9768H14.6824V10.0947Z" fill="#E6E0CA"/>
<path d="M22.9494 25.3347H0.0498047V43.6129H22.9494V25.3347Z" fill="#B1291D"/>
<path d="M4.66048 39.0066L5.11146 39.8887L6.11363 40.0357L5.41211 40.7707L5.56244 41.7508L4.66048 41.2607L3.75853 41.7508L3.90885 40.7707L3.15723 40.0357L4.20951 39.8887L4.66048 39.0066Z" fill="#EAEEEF"/>
<path d="M8.1683 39.0066L8.61927 39.8887L9.62144 40.0357L8.86981 40.7707L9.07025 41.7508L8.1683 41.2607L7.21623 41.7508L7.41667 40.7707L6.66504 40.0357L7.71732 39.8887L8.1683 39.0066Z" fill="#EAEEEF"/>
<path d="M11.625 39.0066L12.1261 39.8887L13.1283 40.0357L12.3767 40.7707L12.5771 41.7508L11.625 41.2607L10.7231 41.7508L10.9235 40.7707L10.1719 40.0357L11.174 39.8887L11.625 39.0066Z" fill="#EAEEEF"/>
<path d="M15.1338 39.0066L15.5848 39.8887L16.6371 40.0357L15.8854 40.7707L16.0358 41.7508L15.1338 41.2607L14.2319 41.7508L14.4323 40.7707L13.6807 40.0357L14.6828 39.8887L15.1338 39.0066Z" fill="#EAEEEF"/>
<path d="M18.6406 39.0066L19.0916 39.8887L20.1439 40.0357L19.3923 40.7707L19.5426 41.7508L18.6406 41.2607L17.7387 41.7508L17.889 40.7707L17.1875 40.0357L18.1897 39.8887L18.6406 39.0066Z" fill="#EAEEEF"/>
<path d="M2.05524 38.5655L2.9572 38.6145C2.85698 38.1245 2.80687 37.6344 2.80687 37.0954C2.80687 32.2931 6.81555 28.3728 11.7262 28.3728C16.6368 28.3728 20.6455 32.2931 20.6455 37.0954C20.6455 37.6344 20.5954 38.1245 20.4952 38.6145H21.3971V38.5655L22.3492 37.2424C22.4494 37.1444 22.4494 36.9484 22.3492 36.8504L21.3971 35.5273L21.8982 34.0082C21.9483 33.8612 21.8982 33.7142 21.798 33.6162L20.4451 32.6851V31.068C20.4451 30.921 20.3449 30.774 20.1945 30.725L18.6412 30.235L18.1401 28.7159C18.09 28.5689 17.9396 28.4708 17.8394 28.4708H16.1858L15.2338 27.1968C15.1336 27.0988 14.9832 27.0498 14.8329 27.0988L13.2796 27.5888L11.9266 26.6577C11.8264 26.5597 11.626 26.5597 11.5258 26.6577L10.2229 27.5888L8.66957 27.0988C8.51924 27.0498 8.36892 27.0988 8.2687 27.1968L7.31664 28.5199H5.66305C5.51273 28.5199 5.3624 28.6179 5.3624 28.7649L4.86132 30.284L3.30796 30.774C3.15763 30.823 3.05741 30.97 3.05741 31.117V32.7341L1.70448 33.6652C1.60426 33.7632 1.55416 33.9102 1.60426 34.0572L2.10535 35.5763L1.15329 36.8994C1.05307 36.9974 1.05307 37.1934 1.15329 37.2914L2.05524 38.5655ZM21.6978 37.0464L20.9963 38.0265C21.0464 37.7324 21.0464 37.3894 21.0464 37.0954C21.0464 36.7524 21.0464 36.4584 20.9963 36.1153L21.6978 37.0464ZM19.8438 31.313V32.5381C19.493 31.9501 19.0921 31.411 18.6412 30.921L19.8438 31.313ZM14.8329 27.7848L15.5845 28.7649C14.9832 28.4709 14.3318 28.2748 13.6303 28.1278L14.8329 27.7848ZM8.66957 27.7848L9.87217 28.1768C9.17065 28.3238 8.51924 28.5199 7.91794 28.8139L8.66957 27.7848ZM4.91143 30.97C4.46045 31.46 4.05958 31.9991 3.70882 32.5871V31.362L4.91143 30.97ZM2.55633 36.0663C2.50622 36.4094 2.50622 36.7524 2.50622 37.0954C2.50622 37.4384 2.50622 37.7324 2.55633 38.0755L1.8047 37.0954L2.55633 36.0663Z" fill="#EAEEEF"/>
<path d="M24.6191 33.665L25.5211 50.3261C25.5211 50.7671 25.8719 51.1102 26.2727 51.1102H39.4012C39.802 51.1102 40.1027 50.7671 40.1528 50.3261L41.0547 33.665H24.6191Z" fill="#EAEEEF"/>
<path opacity="0.8" d="M25.2207 33.665L26.4233 48.415C26.4233 48.611 26.5736 48.758 26.6739 48.758H38.9003C39.0006 48.758 39.1509 48.611 39.1509 48.415L40.3535 33.665H25.2207Z" fill="#E6E0CA"/>
<path d="M25.7715 40.4766L26.4229 48.4151C26.4229 48.6111 26.5732 48.7581 26.6734 48.7581H38.8999C39.0001 48.7581 39.1505 48.6111 39.1505 48.4151L39.8019 40.4766H25.7715Z" fill="#EB7801"/>
<path d="M30.7826 45.8176C30.6824 45.9646 30.4318 46.0136 30.2815 45.9156L26.3731 43.3185C26.2227 43.2204 26.1726 42.9754 26.2728 42.8284L28.9286 39.0062C29.0288 38.8592 29.2794 38.8102 29.4297 38.9082L33.3381 41.5053C33.4885 41.6033 33.5386 41.8484 33.4384 41.9954L30.7826 45.8176Z" fill="#C66002"/>
<path d="M37.8479 48.2189C37.8479 48.4149 37.6976 48.5619 37.4972 48.5619H32.8371C32.6367 48.5619 32.4863 48.4149 32.4863 48.2189V43.6616C32.4863 43.4656 32.6367 43.3186 32.8371 43.3186H37.4972C37.6976 43.3186 37.8479 43.4656 37.8479 43.6616V48.2189Z" fill="#C66002"/>
<path d="M35.6934 43.2207C35.5431 43.3187 35.2925 43.2697 35.1923 43.1227L32.6869 39.3004C32.5867 39.1534 32.6368 38.9084 32.7871 38.8104L36.6956 36.3112C36.8459 36.2132 37.0965 36.2622 37.1967 36.4093L39.7522 40.2315C39.8524 40.3785 39.8023 40.6235 39.652 40.7215L35.6934 43.2207Z" fill="#C66002"/>
<path d="M31.885 40.4764L29.4296 38.8593C29.2793 38.7613 29.0288 38.8103 28.8785 38.9573L27.8262 40.4764H31.885Z" fill="#EAEEEF"/>
<path d="M33.4385 40.4765H39.8023C39.8023 40.3785 39.8023 40.3295 39.7522 40.2315L37.1967 36.4093C37.0965 36.2622 36.8459 36.2132 36.6956 36.3112L32.7871 38.8104C32.6368 38.9084 32.5867 39.1534 32.6869 39.3004L33.4385 40.4765Z" fill="#EAEEEF"/>
<g opacity="0.7">
<path d="M29.4297 33.665H26.5234L27.1247 50.3261C27.1247 50.7671 27.3753 51.1102 27.6258 51.1102H29.3796V33.665H29.4297Z" fill="#EAEEEF"/>
</g>
<path d="M34.1895 50.375C34.1895 50.571 34.0392 50.718 33.8387 50.718H26.3224C26.122 50.718 25.9717 50.571 25.9717 50.375V49.4929C25.9717 49.2969 26.122 49.1499 26.3224 49.1499H33.8387C34.0392 49.1499 34.1895 49.2969 34.1895 49.4929V50.375Z" fill="#FCFCFC"/>
</svg>
