<svg width="150" height="335" viewBox="0 0 150 335" fill="none" xmlns="http://www.w3.org/2000/svg">
<rect width="150" height="335" rx="20" fill="white"/>
<mask id="mask0_152_6215" style="mask-type:alpha" maskUnits="userSpaceOnUse" x="0" y="0" width="150" height="335">
<rect width="150" height="335" rx="20" fill="#D9D9D9"/>
</mask>
<g mask="url(#mask0_152_6215)">
<path d="M241 197.951V351H-92V197.684C-43.3154 188.34 13.2946 183 73.7674 183C134.84 183 191.982 188.473 241 197.951Z" fill="#ECCE8C"/>
<path d="M80 285C155.111 285 216 272.912 216 258C216 243.088 155.111 231 80 231C4.88928 231 -56 243.088 -56 258C-56 272.912 4.88928 285 80 285Z" fill="#D7B370"/>
<path d="M191.832 51.1927V116.666H84.3919C77.8493 116.199 71.3066 115.685 64.764 115.124C64.1564 115.077 63.5489 115.03 62.9413 114.937C60.3243 114.657 57.6605 114.236 55.0902 114.376C54.249 114.423 46.9586 114.189 46.8184 114.47C47.052 113.815 47.2857 113.114 47.6128 112.46C47.8465 111.993 48.0334 111.525 48.3138 111.058C49.5289 108.768 51.2113 106.712 53.1741 105.029C53.8751 104.422 54.6696 103.814 55.6042 103.581C56.5389 103.3 57.567 103.394 58.3148 104.048C58.2213 103.394 58.3615 102.74 58.6886 102.179C58.8288 101.945 58.969 101.711 59.156 101.524C59.2962 101.384 59.4364 101.244 59.6233 101.104C60.558 100.496 61.8665 100.45 62.8479 101.01C62.1936 98.0662 63.5489 94.8416 66.0258 93.1125C66.2594 92.9723 66.4463 92.8321 66.68 92.6919C69.5775 91.1497 73.4096 91.7572 75.6995 94.1406C76.4005 92.2713 77.9895 90.7758 79.9055 90.1683C81.9618 89.5608 84.3452 90.0748 86.0276 91.4768C86.5417 86.9904 89.5793 82.9246 94.2059 82.1769C98.6456 81.4759 103.412 84.2799 104.908 88.4859C105.001 85.0276 109.348 82.504 112.385 84.093C112.993 79.887 117.339 76.5689 121.592 77.1297C120.704 74.1388 122.152 70.587 124.91 69.0916C127.667 67.5961 131.452 68.2971 133.462 70.7272C133.275 66.9418 137.621 63.6705 141.22 64.979C139.631 58.7635 143.697 51.66 149.865 49.8842C156.034 48.1083 163.231 51.9404 165.241 58.0158C165.661 56.2399 167.297 54.7912 169.166 54.6977C170.989 54.6042 172.858 55.7726 173.466 57.5484C175.662 52.8284 180.756 49.6505 185.943 49.6972C187.953 49.7907 190.009 50.3048 191.832 51.1927Z" fill="#FFC511"/>
<path d="M191.833 62.6891V111.712H113.975C106.451 110.778 98.8802 109.89 91.3561 109.002C89.2999 108.768 87.1969 108.488 85.1406 108.254C85.421 107.974 85.7014 107.693 86.0286 107.46C90.1411 103.627 94.2069 99.7953 98.3194 95.9632C98.9269 95.4024 99.5345 94.7949 100.235 94.2808C101.077 93.5798 102.011 93.019 103.039 92.6451C104.862 92.0376 107.152 92.318 108.274 93.8602C110.096 90.5421 115.564 90.3085 117.714 93.3929C117.807 89.8879 120.191 86.5231 123.509 85.3547C126.827 84.1397 130.799 85.1211 133.136 87.7381C132.668 84.3266 136.687 81.1955 139.912 82.504C139.912 81.3357 140.753 80.2608 141.875 79.9804C142.996 79.7 144.258 80.3076 144.772 81.3357C143.23 74.5126 147.389 66.8951 153.979 64.5584C160.568 62.2218 168.606 65.5398 171.691 71.8021C171.55 70.1664 173.934 69.0448 175.102 70.2132C176.224 65.6333 180.383 61.9881 185.056 61.4273C187.346 61.1002 189.73 61.6142 191.833 62.6891Z" fill="#DB812F"/>
<path d="M191.833 67.1757V109.002H138.978C128.93 108.114 118.789 108.021 108.741 108.768C109.582 107.974 110.283 107.086 110.938 106.151C111.826 104.89 112.573 103.581 113.415 102.272C113.742 101.758 114.069 101.198 114.443 100.73C115.611 99.0478 117.013 97.5056 118.836 96.5242C121.172 95.2624 124.397 95.2157 126.266 97.085C128.603 92.5519 133.183 89.2339 138.183 88.3927C140.987 87.9253 143.931 88.2057 146.595 89.1871C148.698 89.9349 150.661 91.1032 152.25 92.6454C152.437 92.0846 152.624 91.5705 152.904 91.0565C154.026 88.86 155.895 87.0841 158.138 86.1027C160.942 84.9344 164.214 85.0279 166.924 86.3831C167.064 84.4203 168.513 82.5977 170.382 82.0837C172.252 81.5229 174.448 82.2706 175.617 83.8595C174.916 78.6721 177.159 73.2043 181.318 70.0265C184.356 67.8767 188.141 66.8486 191.833 67.1757Z" fill="#F69F1A"/>
<path d="M107.9 115.591C100.609 115.451 93.272 115.217 85.9816 115.077C82.1962 115.03 78.4108 114.937 74.6254 114.937H-41.834V39.0421H-38.8431C-38.1888 39.416 -37.5345 39.7898 -36.927 40.2572C-32.4873 43.6687 -30.4311 50.1179 -32.6743 55.2586C-32.02 53.6229 -29.8235 53.0154 -28.1879 53.6696C-26.5522 54.3239 -25.4773 56.0063 -25.1035 57.7354C-24.3557 51.4732 -16.1774 48.2018 -10.8498 50.8656C-5.70914 53.3892 -3.69961 60.7731 -6.87747 65.5866C-4.58754 64.0444 -0.942341 65.7268 -0.568474 68.4374C0.646591 66.5213 4.29179 67.3158 4.61892 69.6057C5.92745 63.3434 13.4048 59.2776 19.3866 61.5208C25.3218 63.8108 28.2192 71.8489 25.0414 77.3634C26.9107 75.4474 29.9951 74.7931 32.472 75.7745C34.9956 76.7559 36.7714 79.3262 36.8182 82.0368C37.2855 79.5599 40.5101 78.2514 42.8 79.373C45.0432 80.4946 46.0714 83.4388 45.4171 85.8689C46.9593 80.5413 53.502 77.27 58.6894 79.3262C63.83 81.3825 66.4003 88.2523 63.8767 93.1593C64.5778 92.7854 65.419 92.8789 66.1199 93.2528C67.1481 93.8136 67.8491 94.9352 67.6154 96.0568C67.9426 94.7015 70.8867 95.6829 71.4475 96.197C72.7561 97.3653 72.6159 99.3748 72.9897 101.057C74.4852 97.8794 77.9435 95.7296 81.4485 95.7764C84.9535 95.8231 88.365 98.0663 89.767 101.291C89.8137 99.7954 91.169 98.4402 92.6645 98.3467C94.1599 98.2532 95.6554 99.4683 95.8423 100.964C97.3845 100.777 98.9267 101.151 100.282 101.898C101.544 102.599 102.712 103.628 103.6 104.749C104.348 105.731 104.955 106.899 105.469 108.161C106.03 109.516 106.498 110.918 106.918 112.32C107.152 113.442 107.526 114.563 107.9 115.591Z" fill="#DB812F"/>
<path d="M191.833 96.6643V112.32H100.002C101.778 110.918 103.46 109.376 105.376 108.161C105.423 108.161 105.47 108.114 105.47 108.114C108.134 106.478 111.685 105.637 114.443 106.899C114.816 107.086 115.19 107.273 115.517 107.553C117.387 105.544 120.985 105.497 122.901 107.46C123.462 105.637 125.285 104.329 127.107 104.142C127.621 104.095 132.622 104.515 132.341 105.357C133.042 103.394 136.08 102.833 137.435 104.422C137.342 101.104 139.445 97.8793 142.436 96.3839C143.698 95.7763 145.1 95.4492 146.548 95.4025C148.464 95.3557 150.38 95.8698 152.063 96.8045C152.343 96.9447 152.624 97.1316 152.857 97.3185C155.334 99.0009 157.11 101.711 157.905 104.609C158.792 100.59 162.344 97.3185 166.41 96.711C170.476 96.1035 174.822 98.2065 176.832 101.758C176.878 100.59 177.953 99.6085 179.121 99.6085C180.29 99.6085 181.365 100.59 181.411 101.758C183.608 98.2065 187.814 96.1969 191.833 96.6643Z" fill="#FFC511"/>
<path d="M68.6903 112.46C66.2601 112.46 63.83 112.507 61.3532 112.507H-41.834V59.558C-39.9647 59.371 -38.0486 59.558 -36.226 60.2122C-31.8331 61.8012 -28.515 66.4278 -29.0291 71.1011C-28.1879 69.6056 -26.3185 68.8112 -24.6829 69.1383C-23.0005 69.5122 -21.6919 71.0076 -21.505 72.7368C-20.1497 69.9328 -17.9065 67.5026 -15.0558 66.2408C-12.2051 64.979 -8.79354 64.9323 -6.03627 66.4278C-3.09208 68.0167 -1.26947 71.1946 -0.521744 74.4192C0.22599 77.6438 0.0857925 81.0553 -0.054409 84.3734C0.833523 82.4106 3.02999 81.1955 5.17972 81.4759C7.28272 81.7563 9.15205 83.5322 9.47919 85.6351C12.4701 81.1488 17.9379 78.7654 22.5178 82.8779C24.9012 85.0276 25.8358 88.5793 24.8544 91.617C27.1444 90.1215 30.7896 91.8507 31.07 94.6079C32.285 93.4396 34.3413 93.6265 35.6966 94.6079C36.1172 94.9351 36.5378 95.3089 36.8649 95.7295C37.5659 96.6175 38.1267 97.6456 38.6408 98.627C39.5754 96.8511 41.1644 95.4491 42.9402 94.5612C45.0432 93.5331 47.4266 93.2059 49.6698 93.8135C51.1653 94.1873 52.5206 94.9818 53.6889 96.0099C55.7452 97.8793 57.0537 100.59 57.007 103.394C57.4276 102.693 58.0351 102.179 58.7828 101.805C58.923 101.711 59.0632 101.665 59.2502 101.618C60.3718 101.197 61.6803 101.197 62.8019 101.618C64.8581 102.319 66.4004 104.142 67.2883 106.151C67.3818 106.385 67.4752 106.618 67.5687 106.852C68.0827 108.207 68.3631 109.656 68.5501 111.105C68.5501 111.525 68.6435 111.993 68.6903 112.46Z" fill="#F69F1A"/>
<path d="M74.9058 111.292C74.9058 111.058 70.7466 111.058 68.5034 111.058C67.8024 111.058 67.2416 111.058 67.1014 111.058C64.3441 111.058 61.5401 111.058 58.7828 111.105C55.3246 111.105 51.8196 111.105 48.3613 111.105C46.2583 111.105 44.202 111.105 42.099 111.105C39.7156 111.105 37.3322 111.105 34.9488 111.105H-41.834V85.2147C-39.03 83.6258 -35.6185 83.065 -32.5808 84.0464C-28.4683 85.4016 -25.4773 90.075 -26.6924 94.281C-25.9447 93.0192 -24.2623 92.3649 -22.8135 92.7388C-21.3648 93.1594 -20.2899 94.5614 -20.2899 96.0568C-18.4673 93.58 -13.8407 94.5146 -13.0463 97.4588C-10.2423 92.3649 -3.37247 89.5142 1.86166 92.7388C5.17973 94.7483 7.04906 98.9076 6.39479 102.693C6.81539 101.478 8.12392 100.683 9.38572 100.824C10.6475 100.964 11.7691 102.039 11.9093 103.3C12.4234 98.4402 17.0033 94.3744 21.8635 94.3744C26.7238 94.3744 31.2569 98.487 31.771 103.347C31.3504 100.029 33.7338 97.1784 36.8182 95.683C38.7342 94.7483 40.9307 94.281 42.8935 94.5614C45.2769 94.8885 47.2864 96.2905 48.0809 99.0945C48.9688 97.1784 51.0718 95.8699 53.1748 95.9634C53.3618 95.9634 53.502 95.9634 53.6422 96.0101C55.2778 96.2438 56.7266 97.2252 57.6612 98.5804C58.409 99.6553 58.7361 100.683 58.7361 101.805C58.7361 101.945 58.7361 102.132 58.7361 102.272C58.6894 102.833 58.5959 103.394 58.4557 104.048C59.1567 103.114 60.5587 102.74 61.6336 103.254C62.7084 103.721 63.3627 104.983 63.129 106.151C63.8768 105.497 64.9516 105.263 65.8863 105.544C66.7275 105.777 67.1014 106.291 67.522 106.852C67.6622 107.039 67.8024 107.226 67.9426 107.413C69.4848 106.665 70.9802 106.198 72.6626 107.086C74.1114 107.834 75.046 109.609 74.9058 111.292Z" fill="#FFC511"/>
<path d="M74.9981 150.641C97.9432 150.641 116.544 132.04 116.544 109.095C116.544 86.1499 97.9432 67.5492 74.9981 67.5492C52.0529 67.5492 33.4521 86.1499 33.4521 109.095C33.4521 132.04 52.0529 150.641 74.9981 150.641Z" fill="#F4D168"/>
<path d="M75.7624 145.821C96.0451 145.401 112.147 128.618 111.727 108.335C111.306 88.0527 94.5233 71.951 74.2407 72.3712C53.958 72.7914 37.8563 89.5744 38.2765 109.857C38.6967 130.14 55.4798 146.241 75.7624 145.821Z" fill="#FFD98D"/>
<path d="M75.0002 140.266C92.2156 140.266 106.171 126.31 106.171 109.095C106.171 91.8797 92.2156 77.924 75.0002 77.924C57.7849 77.924 43.8291 91.8797 43.8291 109.095C43.8291 126.31 57.7849 140.266 75.0002 140.266Z" fill="#FFEAC5"/>
<path d="M201 109H-51V193H201V109Z" fill="#F69F1A"/>
<path d="M107.712 109.095H42.2856C40.7434 109.095 39.5283 110.311 39.5283 111.853C39.5283 113.395 40.7434 114.61 42.2856 114.61H52.1463C50.6041 114.61 49.389 115.825 49.389 117.367C49.389 118.909 50.6041 120.125 52.1463 120.125H60.091C58.5488 120.125 57.3337 121.34 57.3337 122.882C57.3337 124.424 58.5488 125.639 60.091 125.639H66.8206C65.2784 125.639 64.0633 126.854 64.0633 128.396C64.0633 129.939 65.2784 131.154 66.8206 131.154H70.6994C69.1572 131.154 67.9422 132.369 67.9422 133.911C67.9422 135.453 69.1572 136.668 70.6994 136.668H79.2516C80.7938 136.668 82.0089 135.453 82.0089 133.911C82.0089 132.369 80.7938 131.154 79.2516 131.154H83.1305C84.6727 131.154 85.8878 129.939 85.8878 128.396C85.8878 126.854 84.6727 125.639 83.1305 125.639H89.8601C91.4023 125.639 92.6174 124.424 92.6174 122.882C92.6174 121.34 91.4023 120.125 89.8601 120.125H97.8047C99.3469 120.125 100.562 118.909 100.562 117.367C100.562 115.825 99.3469 114.61 97.8047 114.61H107.712C109.254 114.61 110.469 113.395 110.469 111.853C110.469 110.357 109.254 109.095 107.712 109.095Z" fill="#FFC511"/>
<path d="M103.583 266.091C103.583 266.091 92.9251 260.257 90.4008 257.565C87.8764 254.872 89.6154 244.999 98.4785 243.373C107.342 241.802 129.836 242.643 129.836 242.643C129.836 242.643 131.294 259.64 123.329 262.613C115.307 265.643 103.583 266.091 103.583 266.091Z" fill="#EDCABB"/>
<path d="M105.154 247.58C105.154 247.58 103.022 245.897 102.573 245.504C102.181 245.111 99.8809 244.831 99.8809 244.831C99.8809 244.831 117.271 242.699 123.946 243.541C123.946 243.541 126.19 253.806 126.246 253.975C126.358 254.087 105.154 247.58 105.154 247.58Z" fill="#E4AE92"/>
<path d="M158.502 270.467C158.502 270.916 155.641 278.152 132.979 276.806C110.316 275.516 102.855 268.448 102.407 267.101C102.294 266.653 102.07 265.979 101.902 264.97C101.509 262.67 101.173 258.855 101.509 253.47C102.07 245.673 107.287 245.785 109.699 245.561C110.428 245.505 111.887 246.065 113.57 246.907C117.328 248.814 122.096 252.068 122.096 252.068L158.502 259.472C160.017 264.577 158.502 270.018 158.502 270.467Z" fill="#946A42"/>
<path d="M158.501 270.467C158.501 270.916 155.64 278.152 132.977 276.806C110.315 275.516 102.854 268.448 102.405 267.101C102.293 266.653 102.069 265.979 101.9 264.97L106.388 267.999C106.781 265.755 107.734 261.884 107.734 261.884C107.342 265.138 109.473 269.401 109.473 269.401C122.319 275.852 145.318 275.628 150.535 274.282C155.752 272.935 155.528 269.962 155.528 269.962C154.069 271.14 142.009 274.899 129.556 272.094C117.102 269.289 115.419 261.043 115.419 261.043C114.466 264.128 114.69 266.596 114.69 266.596C112.11 262.838 112.502 255.77 112.502 255.77C109.81 258.631 109.754 262.782 109.754 262.782C108.351 255.097 112.783 248.758 112.783 248.758L113.624 246.907C117.383 248.814 122.151 252.068 122.151 252.068L158.557 259.472C160.015 264.577 158.501 270.018 158.501 270.467Z" fill="#774822"/>
<path d="M158.502 246.963L120.805 254.368C120.805 254.368 120.693 254.368 120.469 254.368C119.179 254.368 114.579 254.087 112.503 250.105C112.391 249.88 112.223 249.6 112.167 249.319C109.979 243.766 108.408 214.596 111.494 210.557C114.579 206.518 125.966 206.182 128.883 202.872C131.856 199.562 129.612 187.277 129.612 187.277L143.973 189.577C143.973 189.577 143.468 197.375 145.319 200.067C147.17 202.76 161.026 201.975 163.719 211.343C166.523 220.71 158.502 246.963 158.502 246.963Z" fill="#EDCABB"/>
<path d="M120.469 254.367C119.178 254.367 114.578 254.087 112.503 250.104C113.793 250.553 115.364 250.665 116.542 249.375C119.178 246.57 117.215 215.83 117.215 215.83C117.215 215.83 120.973 231.032 121.198 239.782C121.366 245.112 120.861 250.777 120.469 254.367Z" fill="#E4AE92"/>
<path d="M159.736 242.644C159.736 242.644 160.185 259.304 159.961 261.099C159.68 262.838 150.985 269.233 136.849 267.831C122.713 266.372 118.001 260.931 118.001 258.575C118.001 256.219 119.628 246.065 119.628 241.353C119.628 236.641 118.955 230.134 118.955 230.134C118.955 230.134 119.291 230.134 119.796 230.022C121.647 229.629 126.079 227.947 127.537 221.327C129.388 212.913 121.255 206.181 121.255 206.181C121.255 206.181 125.854 202.984 128.435 203.377C128.435 203.377 133.427 207.472 141.842 206.911C150.256 206.294 150.536 202.143 150.536 202.143C150.536 202.143 153.622 201.357 156.034 202.816C156.651 203.208 157.268 203.769 157.717 204.555C157.717 204.555 161.756 216.335 161.756 224.469C161.643 232.659 159.736 242.644 159.736 242.644Z" fill="#529198"/>
<path d="M159.736 242.644C159.736 242.644 160.185 259.304 159.961 261.099C159.68 262.838 150.985 269.233 136.849 267.831C122.713 266.372 118.001 260.931 118.001 258.575C118.001 256.219 119.628 246.066 119.628 241.354C119.628 236.642 118.955 230.135 118.955 230.135C118.955 230.135 119.291 230.135 119.796 230.022C120.133 231.986 120.469 234.622 120.75 238.156C121.535 247.636 119.123 259.529 119.123 259.529C119.123 259.529 123.106 265.082 135.166 265.138C146.89 265.194 154.744 262.446 155.249 262.277C141.337 265.138 132.137 261.773 132.137 261.773C146.946 263.848 155.585 258.799 155.585 258.799C157.268 256.163 155.249 247.636 155.249 247.636L138.027 249.207L154.688 245.561L132.979 247.412L156.819 243.99C158.726 240.288 158.502 229.91 158.502 229.91C154.127 230.247 135.503 229.91 135.503 229.91C148.349 229.237 159.792 227.274 159.792 227.274C160.465 216.055 157.492 206.799 155.978 202.872C156.595 203.265 157.212 203.826 157.661 204.611C157.661 204.611 161.7 216.391 161.7 224.525C161.643 232.659 159.736 242.644 159.736 242.644Z" fill="#3E797C"/>
<path d="M135.783 184.641C134.1 181.331 128.603 181.331 127.088 183.799C126.976 184.024 127.032 184.473 126.976 184.697C126.92 185.426 126.864 186.099 126.864 186.829C126.808 187.67 126.808 188.455 126.808 189.297C126.808 190.475 126.639 191.653 126.864 192.831C127.088 193.953 127.537 194.963 128.378 195.804C128.771 196.253 129.22 196.589 129.669 197.038C129.837 197.206 132.137 198.945 132.193 198.889C132.193 198.833 137.466 187.951 135.783 184.641Z" fill="#EDCABB"/>
<path d="M145.824 189.409C145.656 190.867 145.376 192.326 144.927 193.728C144.703 194.401 144.422 195.074 144.029 195.691C143.581 196.365 143.02 196.813 142.347 197.262C141.056 198.103 139.598 198.721 138.027 198.664C136.456 198.608 134.942 198.103 133.596 197.374C132.137 196.589 131.015 195.243 130.342 193.728C129.052 190.867 128.996 187.67 129.108 184.584C129.108 184.248 129.164 183.911 129.332 183.631C129.613 183.182 130.174 183.07 130.679 182.958C133.203 182.397 135.727 182.004 138.252 181.667C139.542 181.499 140.888 181.331 142.234 181.499C142.851 181.555 143.468 181.724 144.085 181.948C144.59 182.116 145.432 182.453 145.712 182.958C145.937 183.406 145.881 183.967 145.881 184.416C145.993 185.987 145.993 187.726 145.824 189.409Z" fill="#80391E"/>
<path d="M126.247 181.668C126.247 181.668 121.815 180.658 121.535 182.453C121.311 184.248 122.152 187.838 134.437 188.399C146.722 188.96 152.444 186.155 152.107 184.865C151.714 183.631 146.722 183.968 146.722 183.968L126.247 181.668Z" fill="#A5683F"/>
<path d="M125.741 183.294C125.741 183.294 128.939 171.682 131.8 170.224C134.66 168.765 135.614 170.28 137.073 170.224C138.531 170.168 145.823 169.999 146.609 173.926C147.394 177.853 146.609 184.865 146.609 184.865C146.609 184.865 133.539 187.613 125.741 183.294Z" fill="#AB6E41"/>
<path d="M53.3224 233.051C53.3224 233.051 57.3052 219.532 52.5932 216.951C48.8909 214.988 42.2155 215.998 39.4668 226.039C39.4668 226.039 49.8445 232.77 53.3224 233.051Z" fill="#E4AE92"/>
<path d="M53.4344 233.219C53.4344 233.219 53.2101 234.004 52.8174 235.239C51.2467 240.399 47.2078 253.694 46.8712 256.611C46.4225 260.201 44.6274 274.842 30.884 277.142C19.0478 279.105 6.08969 278.881 0.0874491 276.805C-0.922273 276.469 -1.70761 276.076 -2.26857 275.627C-6.30746 272.486 -7.59766 262.164 -7.59766 262.164L39.13 225.871C39.0739 225.814 49.5077 225.366 53.4344 233.219Z" fill="#3A333D"/>
<path d="M53.4358 233.219C53.4358 233.219 53.2115 234.005 52.8188 235.239C50.8554 233.163 47.4336 230.078 43.9557 229.741C43.9557 229.741 41.5997 240.119 41.7118 243.485C41.7118 243.485 46.7605 246.458 48.0507 249.263C47.8263 249.15 44.6849 246.907 41.7118 245.897V253.021C41.7118 253.021 45.1898 255.938 45.0776 260.314C45.0776 260.314 43.7874 256.275 41.7118 255.489C41.7118 255.489 43.002 261.828 37.7851 266.316C32.5683 270.803 17.1419 275.852 10.0739 275.403C3.00583 274.954 -2.43545 271.589 -2.43545 271.589C-2.43545 271.589 -1.65011 274.113 0.0327616 276.862C-0.976961 276.525 -1.7623 276.133 -2.32326 275.684C-6.36214 272.542 -7.65234 262.221 -7.65234 262.221L39.0754 225.927C39.0754 225.815 49.5091 225.366 53.4358 233.219Z" fill="#2A252D"/>
<path d="M52.2013 212.801C52.2013 212.801 59.2694 215.549 59.9986 218.634C61.0083 222.954 58.7084 225.422 54.1646 225.815C49.677 226.207 42.665 222.842 42.665 222.842C42.665 222.842 44.1235 214.091 52.2013 212.801Z" fill="#EDCABB"/>
<path d="M11.8669 196.701C9.95969 194.681 8.72559 191.876 8.72559 188.679C8.72559 182.677 13.045 177.74 18.374 177.74C23.1422 177.74 27.0689 181.667 27.8542 186.828C28.4152 186.884 28.7517 187.501 28.7517 188.006C28.7517 188.679 28.4152 189.296 28.2469 189.913C28.2469 189.969 28.2469 189.969 28.1908 190.025C27.9664 190.755 27.9103 191.596 28.0786 192.325C28.1347 192.718 28.303 193.054 28.303 193.447C28.303 193.84 28.1908 194.232 27.8542 194.457C27.5176 194.681 27.0689 194.569 26.7323 194.345C26.3957 195.018 26.2835 195.803 26.2274 196.588C26.0031 198.945 26.0592 201.357 26.2835 203.769C21.5154 204.218 16.7473 204.33 11.9791 204.161C12.2596 201.693 12.484 199.057 11.8669 196.701Z" fill="#EDCABB"/>
<path d="M10.9129 195.299C10.6885 194.85 10.4641 194.401 10.408 193.953C10.3519 193.504 10.408 192.999 10.4641 192.55C10.7446 190.643 11.1933 188.792 11.8104 186.997C12.2592 185.538 12.8762 184.08 13.942 183.07C14.9518 182.116 16.3541 181.668 17.7004 181.499C19.1028 181.331 20.4491 181.499 21.8515 181.611C23.1978 181.78 24.6563 182.004 25.4416 183.014C25.8904 183.575 26.0587 184.304 26.227 184.977C26.3953 185.65 26.5075 186.324 26.7318 186.941C26.844 187.333 27.1806 187.67 27.2367 188.119C27.5172 189.577 27.1245 191.316 26.7318 192.718C26.2831 194.457 25.7221 196.196 24.6563 197.655C23.4222 199.282 21.6271 199.562 19.7199 199.73C17.7004 199.899 15.12 200.067 13.3811 198.889C12.9884 198.665 12.6518 198.328 12.3713 197.991C11.8665 197.374 11.5299 196.701 11.1933 195.972C11.1372 195.748 11.025 195.523 10.9129 195.299Z" fill="#80391E"/>
<path d="M33.5201 173.982C34.8103 175.273 33.2396 182.453 25.7789 190.979C18.3182 199.506 8.55756 198.665 5.3601 195.579C0.984641 191.372 1.37731 183.07 6.20154 178.751C12.7086 172.917 28.6959 169.102 33.5201 173.982Z" fill="#2A252D"/>
<path d="M26.5646 180.209C26.5646 180.209 24.8818 171.178 20.1136 169.831C15.4016 168.485 8.61402 171.907 5.97752 175.946C3.39712 179.985 3.95808 183.07 5.86533 185.819C7.71649 188.567 9.62374 190.979 9.62374 190.979C9.62374 190.979 22.0209 191.035 26.5646 180.209Z" fill="#3A333D"/>
<path d="M20.1143 169.831C20.1143 169.831 21.6288 171.514 19.385 174.655C17.1412 177.797 10.5219 183.014 7.60493 183.406C4.74405 183.743 4.23919 180.994 4.23919 180.994C4.23919 180.994 3.50994 174.936 12.0365 170.953C18.0387 168.204 20.1143 169.831 20.1143 169.831Z" fill="#2A252D"/>
<path d="M52.5939 212.464C52.5939 212.464 52.4256 217.568 49.0599 220.429C45.6381 223.29 42.4967 223.458 42.4967 223.458C42.4967 223.458 36.1018 243.316 39.6919 256.835C39.6919 256.835 36.214 269.793 12.2051 269.906C-5.1846 270.018 -8.43815 264.016 -8.88691 260.706C-8.9991 260.089 -8.94301 259.584 -8.94301 259.247C-8.88691 258.855 -8.83082 258.574 -8.83082 258.574L-7.765 222C-7.765 222 -7.87719 221.719 -7.98938 221.158C-8.55034 218.802 -9.84054 212.015 -7.48452 208.2C-4.62364 203.488 1.88346 200.235 15.3464 200.796C15.3464 200.796 27.0704 200.684 35.036 203.376C41.487 205.564 49.0599 210.164 51.6964 211.847C52.2013 212.239 52.5939 212.464 52.5939 212.464Z" fill="#C94B43"/>
<path d="M52.5941 212.464C52.5941 212.464 52.4258 217.569 49.0601 220.43C45.6383 223.29 42.4969 223.459 42.4969 223.459C42.4969 223.459 36.102 243.317 39.6921 256.836C39.6921 256.836 36.2142 269.794 12.2053 269.906C-5.18441 270.018 -8.43795 264.016 -8.88672 260.706C-7.76481 261.436 -6.4746 262.277 -5.01612 263.006C-1.20161 264.913 14.1125 268.616 24.0414 265.699C33.9704 262.782 35.1484 256.163 35.1484 256.163C26.4536 265.699 14.8978 263.174 14.8978 263.174C28.3608 261.492 35.3728 253.246 35.3728 253.246C35.3728 253.246 35.0923 251.114 35.3728 242.868C35.6532 234.678 41.0945 215.437 41.0945 215.437L42.7774 210.052L43.5066 216.11L46.5919 216.615L43.5627 217.793L42.7213 221.271C42.7213 221.271 45.2456 221.103 48.4991 218.915C50.6869 217.457 51.4161 213.979 51.6966 211.847C52.2015 212.24 52.5941 212.464 52.5941 212.464Z" fill="#A8322F"/>
<path d="M99.0933 255.153C99.0933 255.153 96.008 236.809 94.83 233.836C93.652 230.863 89.2766 228.732 85.8547 228.732C82.4329 228.675 84.1158 251.899 87.0888 255.153C90.118 258.462 99.0933 255.153 99.0933 255.153Z" fill="#E4AE92"/>
<path d="M57.9746 252.965C57.9746 252.965 61.0599 242.643 61.0599 239.502C61.0599 236.305 59.4331 231.649 66.2207 231.256C72.9522 230.863 69.0255 244.551 67.6231 249.655C66.2207 254.76 59.9941 256.667 57.9746 252.965Z" fill="#E4AE92"/>
<path d="M92.4755 274.954C87.8757 277.591 77.8907 276.469 73.9079 276.637C69.869 276.806 60.6693 276.525 56.9109 270.13C56.6304 269.681 56.406 269.177 56.1817 268.672C53.433 262.557 55.228 255.601 56.9109 253.919C58.7621 252.124 62.0156 250.665 62.0156 250.665L90.1756 245.504C90.1756 245.504 96.0096 249.038 98.4778 253.582C98.6461 253.919 98.8144 254.255 98.9826 254.648C101.002 259.64 97.0754 272.318 92.4755 274.954Z" fill="#C87B05"/>
<path d="M95.3925 250.553C97.0754 254.76 97.1315 259.64 95.673 263.904C95.112 261.267 94.2706 258.743 93.1487 256.331C94.4389 259.528 93.4853 263.343 91.2415 265.979C88.9976 268.56 85.6319 270.074 82.2661 270.579C78.8443 271.084 75.3664 270.747 72.0006 270.13C69.1959 269.625 66.3911 269.008 63.8668 267.662C61.3425 266.316 59.1547 264.24 58.2011 261.548C57.1353 263.791 56.4621 266.204 56.1817 268.672C53.433 262.557 55.228 255.601 56.9109 253.919C58.7621 252.124 62.0156 250.665 62.0156 250.665L90.1756 245.504C90.1756 245.504 96.0096 249.038 98.4778 253.582C97.5242 252.46 96.5144 251.45 95.3925 250.553Z" fill="#A55E02"/>
<path d="M100.216 233.331C98.7014 236.529 92.1943 236.641 92.1943 236.641C92.1943 236.641 91.9699 237.763 91.8577 239.502C91.8577 239.726 91.8016 239.895 91.8016 240.119C91.7455 240.624 91.6894 241.185 91.6894 241.746V241.802C91.5211 245.336 91.6333 249.936 93.0918 253.021C93.0918 253.021 92.3625 262.669 84.1165 263.848C75.8704 265.026 65.1561 263.735 61.566 259.135C57.9198 254.536 59.771 251.002 61.566 245.953C63.3611 240.904 61.4538 232.266 60.6124 229.236C59.771 226.263 57.9198 223.571 56.9662 220.654C55.676 216.727 55.9565 212.8 57.9759 209.154C60.2197 205.059 64.3147 203.713 68.7463 203.657C69.8121 203.657 70.8779 203.657 71.9437 203.657C76.207 203.657 80.4142 203.713 84.6774 203.881C87.0335 203.993 89.3895 204.218 91.7455 204.667C93.3162 204.947 95.2234 205.34 96.4575 206.406C99.3184 208.93 100.833 219.756 100.889 227.049C100.833 229.966 100.609 232.378 100.216 233.331Z" fill="#EDCABB"/>
<path d="M100.217 233.332C98.7021 236.529 92.195 236.641 92.195 236.641C92.195 236.641 91.9706 237.763 91.8584 239.502C92.6998 229.629 94.6071 217.962 94.6071 217.962C94.6071 217.962 92.195 235.632 97.2436 233.893C100.441 232.827 100.497 230.527 100.834 226.993C100.834 229.966 100.609 232.378 100.217 233.332Z" fill="#E4AE92"/>
<path d="M58.0312 223.571C58.0312 223.571 63.0238 230.583 74.0746 230.976C85.2937 231.368 93.4276 225.422 93.4276 225.422C93.4276 225.422 92.8106 235.8 91.6886 240.792L62.1823 241.185C62.2384 241.129 58.8166 225.254 58.0312 223.571Z" fill="#C87B05"/>
<path d="M64.7641 226.488C65.2128 228.227 65.9982 229.91 66.3908 231.705C67.064 234.678 67.1762 237.876 68.2981 240.793C69.4761 243.766 71.6638 246.009 74.4686 247.412C76.2076 248.309 78.1148 248.87 80.0221 249.207C79.6855 248.422 79.7416 247.524 80.0782 246.795C80.0221 247.636 80.4709 248.534 81.144 249.039C80.9196 245.673 83.1073 242.756 84.9585 239.951C86.8097 237.146 88.4364 233.612 87.0341 230.583C87.5389 231.088 88.0438 231.537 88.6608 231.929C87.7633 230.022 87.5389 227.834 88.0999 225.815C88.5486 224.076 89.5023 222.561 90.1754 220.879C93.0924 213.25 88.8852 204.555 90.6803 196.589C91.0168 195.018 91.6339 193.223 90.7364 191.821C90.1193 190.811 88.9413 190.363 87.8194 190.082C81.5928 188.343 74.8613 188.96 68.6347 190.755C67.1762 191.204 65.6055 191.765 64.7641 192.999C63.9787 194.121 63.9226 195.636 63.9226 196.982C63.8665 200.348 63.9226 203.769 63.5861 207.135C63.1934 211.118 62.2959 215.045 62.2398 219.027C62.1837 223.01 63.0812 227.217 65.8299 230.19C65.4372 229.069 65.1006 227.778 64.7641 226.488Z" fill="#80391E"/>
<path d="M97.0745 193.448C94.6063 197.767 91.2966 197.767 89.2211 197.374C89.1089 197.374 88.9967 197.318 88.8845 197.318C86.5846 197.374 81.1994 200.908 73.0095 200.123C64.4268 199.282 53.7126 191.148 53.376 190.026L56.0125 187.894C56.0125 187.894 53.3199 183.014 57.4149 177.012C61.5098 171.009 72.0558 169.102 72.0558 169.102L75.0289 165.4C75.0289 165.4 81.5921 163.549 91.2406 167.812C100.833 172.075 99.5427 189.128 97.0745 193.448Z" fill="#A5683F"/>
<path d="M97.0188 193.448C94.5505 197.767 91.2409 197.767 89.1654 197.374C89.0532 197.374 88.941 197.318 88.8288 197.318C89.3897 196.869 98.4772 194.906 96.9627 182.846C96.1212 176.114 84.4533 175.273 84.4533 175.273L69.588 178.47L55.9567 187.894C55.9567 187.894 53.2641 183.014 57.3591 177.012C61.4541 171.009 72.0001 169.102 72.0001 169.102L74.9732 165.4C74.9732 165.4 81.5364 163.549 91.1848 167.812C100.777 172.075 99.487 189.128 97.0188 193.448Z" fill="#9B623B"/>
<path d="M67.5684 181.836L68.1293 169.831H85.7434L86.9775 181.051C86.9775 181.051 84.1166 184.304 76.4876 184.248C68.8586 184.192 67.5684 181.836 67.5684 181.836Z" fill="#AB6E41"/>
<path d="M85.7439 169.831C85.7439 172.299 83.2757 175.104 78.3954 175.104C73.5151 175.104 68.1299 172.299 68.1299 169.831C68.1299 167.363 72.3932 166.073 77.2735 166.073C82.1538 166.073 85.7439 167.363 85.7439 169.831Z" fill="#C18761"/>
<path d="M149.969 284.457C149.969 284.957 148.256 285.386 146.042 285.386C143.9 285.386 142.115 284.957 142.115 284.457C142.115 283.958 143.829 283.529 146.042 283.529C148.184 283.601 149.969 283.958 149.969 284.457Z" fill="#D7B370"/>
</g>
</svg>
