<svg width="36" height="59" viewBox="0 0 36 59" fill="none" xmlns="http://www.w3.org/2000/svg">
<path fill-rule="evenodd" clip-rule="evenodd" d="M17.7156 52.7965C17.7156 52.7965 18.2534 55.2507 17.1779 54.7735C16.7074 54.569 16.8418 55.5234 16.909 55.8642C17.0435 56.2051 18.4551 56.955 18.7239 56.8868C18.9928 56.8868 19.1272 56.7505 19.3961 57.0232C19.665 57.2959 19.5978 57.5686 20.0011 57.9094C20.3372 58.1821 21.9504 58.932 23.4292 58.2503C24.1014 57.9776 24.3031 57.7049 24.0342 57.0232C23.967 56.8187 22.2865 55.9324 21.816 55.6597C20.5388 55.0462 20.0011 53.6827 19.8666 53.3419C19.7322 53.0692 19.3289 52.1147 19.3289 52.1147C19.3961 52.2511 18.7911 52.0466 17.7156 52.7965Z" fill="#DCCF71"/>
<path fill-rule="evenodd" clip-rule="evenodd" d="M17.8506 54.3643C17.5145 54.9097 16.7079 54.5007 16.9096 55.3869C16.9768 55.7278 18.3884 56.614 18.6573 56.5458C19.3294 56.5458 19.5311 57.2957 20.0016 57.6366C20.741 58.2502 22.4887 58.7274 23.9675 57.7048C24.3036 57.4321 24.0347 56.9549 23.8331 56.7504C23.497 56.3413 22.287 56.1368 21.8165 55.8641C19.5983 54.7734 20.741 52.3873 17.8506 54.3643Z" fill="#F4E58F"/>
<path fill-rule="evenodd" clip-rule="evenodd" d="M3.80218 51.5011C3.80218 51.5011 3.26444 53.9553 2.52503 53.1372C2.18894 52.7964 1.92007 53.6826 1.85285 54.0235C1.85285 54.3643 2.79391 55.6596 3.06278 55.7278C3.33166 55.8641 3.53331 55.796 3.66775 56.1368C3.80219 56.4777 3.60053 56.7504 3.8694 57.2276C4.07106 57.6366 5.21377 59.0001 6.89423 59.0001C7.63364 59.0001 7.96973 58.8637 7.96973 58.182C7.96973 57.9775 6.82701 56.4777 6.4237 56.0005C5.54986 54.9097 5.54986 53.4099 5.61708 53.1372C5.61708 52.7964 5.6843 51.7738 5.6843 51.7738C5.54986 51.7056 5.07933 51.2966 3.80218 51.5011Z" fill="#DCCF71"/>
<path fill-rule="evenodd" clip-rule="evenodd" d="M2.99458 53.3418C2.65849 53.2736 2.32239 52.6601 2.05352 53.4782C2.05352 53.819 2.65849 55.0461 3.19623 55.3188C3.8012 55.5915 3.66676 56.3414 3.93564 56.8186C4.33895 57.7049 5.68332 58.8638 7.49821 58.5229C7.96874 58.3866 7.90152 57.9094 7.83431 57.6367C7.69987 57.0913 6.75881 56.4096 6.3555 55.9324C2.12074 51.0921 8.57371 52.4556 2.99458 53.3418Z" fill="#F4E58F"/>
<path fill-rule="evenodd" clip-rule="evenodd" d="M3.8016 51.5011C3.26385 51.842 2.45723 52.4555 2.18835 53.4781C2.18835 53.819 2.99498 55.1143 3.26385 55.2506C3.86881 55.5233 3.8016 56.205 4.07047 56.6822C4.47378 57.5685 5.75093 58.7956 7.56583 58.4547C7.96914 58.3184 8.03636 57.773 7.90192 57.5003C7.76748 56.9549 6.75921 56.3414 6.42312 55.9323C5.34762 54.7052 5.75093 52.9327 5.75093 52.5919C5.75093 52.251 5.61649 51.7056 5.61649 51.7056C5.54928 51.7056 5.07875 51.2966 3.8016 51.5011Z" fill="#5A556E"/>
<path d="M5.41523 56.2732V56.3414C5.41523 56.3414 5.48245 56.4096 5.48245 56.3414C5.6841 56.1368 5.88576 56.0685 6.08742 56.0003C6.28907 56.0003 6.49073 56.0003 6.62516 56.1368H6.69238C6.69238 56.0686 6.69238 56.0685 6.62516 56.0685C6.42351 55.9321 6.22185 55.9321 6.0202 55.9321C5.88576 56.0003 5.61689 56.0685 5.41523 56.2732Z" fill="#FFCC00"/>
<path d="M5.21373 55.9325V56.0007C5.21373 56.0007 5.28095 56.0689 5.28095 56.0007C5.4826 55.8643 5.61704 55.7279 5.8187 55.7279C5.95313 55.7279 6.15479 55.7279 6.28923 55.8643H6.35645V55.7961C6.15479 55.7279 6.02035 55.6597 5.8187 55.6597C5.61704 55.6597 5.41539 55.7279 5.21373 55.9325Z" fill="#FFCC00"/>
<path d="M5.07994 55.5233V55.5915C5.07994 55.5915 5.14716 55.6597 5.14716 55.5915C5.34882 55.4551 5.48325 55.3187 5.68491 55.3187C5.81935 55.3187 6.021 55.3187 6.15544 55.4551H6.22266V55.3869C6.021 55.3187 5.88656 55.2505 5.68491 55.2505C5.48325 55.2505 5.2816 55.3187 5.07994 55.5233Z" fill="#FFCC00"/>
<path d="M4.87779 55.1141V55.1824C4.87779 55.1824 4.94501 55.2506 4.94501 55.1824C5.14667 55.0459 5.2811 54.9095 5.48276 54.9095C5.6172 54.9095 5.81885 54.9095 5.95329 55.0459H6.02051V54.9777C5.81885 54.9095 5.68441 54.8413 5.48276 54.8413C5.2811 54.8413 5.07945 54.9777 4.87779 55.1141Z" fill="#FFCC00"/>
<path d="M4.67565 54.7732V54.8415C4.67565 54.8415 4.74287 54.9097 4.74287 54.8415C4.94452 54.705 5.07896 54.5686 5.28061 54.5686C5.41505 54.5686 5.61671 54.5686 5.75114 54.705H5.81836V54.6368C5.6167 54.5686 5.48227 54.5004 5.28061 54.5004C5.07896 54.4322 4.8773 54.5686 4.67565 54.7732Z" fill="#FFCC00"/>
<path d="M4.54186 54.3644V54.4326C4.54186 54.4326 4.60907 54.5008 4.60907 54.4326C4.81073 54.2962 4.94517 54.1598 5.14682 54.1598C5.28126 54.1598 5.48291 54.1598 5.61735 54.2962H5.68457V54.228C5.48291 54.1598 5.34848 54.0916 5.14682 54.0916C4.94517 54.0916 4.74351 54.1598 4.54186 54.3644Z" fill="#FFCC00"/>
<path d="M4.33971 53.9552V54.0234C4.33971 54.0234 4.40693 54.0916 4.40693 54.0234C4.60858 53.887 4.74302 53.7506 4.94467 53.7506C5.07911 53.7506 5.28077 53.7506 5.4152 53.887H5.48242V53.8188C5.28077 53.7506 5.14633 53.6824 4.94467 53.6824C4.74302 53.6824 4.54137 53.7506 4.33971 53.9552Z" fill="#FFCC00"/>
<path fill-rule="evenodd" clip-rule="evenodd" d="M2.38982 12.3016C2.38982 8.21122 9.38054 4.32538 11.4643 5.48431L16.4385 8.41574L12.2709 24.1636V27.0269L8.84279 28.4585L7.63286 34.5941C6.01962 34.5259 4.27194 33.1624 3.26366 32.2762C2.79313 31.799 2.38982 31.3899 2.38982 30.7082V12.3016Z" fill="#677D27"/>
<path fill-rule="evenodd" clip-rule="evenodd" d="M8.1709 31.6628L7.56593 34.6624C5.95269 34.5942 4.20501 33.2308 3.19674 32.3445C2.79343 31.7992 2.39011 31.3901 2.39011 30.7084V28.7996C4.07057 30.0948 6.55766 31.8673 7.90203 31.6628C7.96924 31.6628 8.10368 31.6628 8.1709 31.6628Z" fill="#56321A"/>
<path fill-rule="evenodd" clip-rule="evenodd" d="M2.45704 11.7565C2.99479 7.87062 9.51498 4.32564 11.4643 5.48457L16.4385 8.416C14.0186 17.6193 3.80141 14.4152 2.45704 11.7565Z" fill="#8CB020"/>
<path fill-rule="evenodd" clip-rule="evenodd" d="M7.22924 15.0287C7.22924 10.0521 17.1104 5.41633 17.1104 9.84756V29.0723C17.1104 29.5495 16.9087 29.8903 16.5726 30.163C14.1527 31.8673 11.464 33.3671 7.90143 34.5943C7.76699 34.6624 7.63255 34.6624 7.49811 34.5943C7.36368 34.5261 7.29646 34.3897 7.29646 34.1852V15.0287H7.22924Z" fill="#A25E33"/>
<path fill-rule="evenodd" clip-rule="evenodd" d="M7.22924 15.0287C7.22924 10.0521 17.1104 5.41633 17.1104 9.84756V28.3224C17.0431 28.3905 16.9759 28.4587 16.9087 28.5269C13.615 31.4583 10.3213 33.3671 7.22924 32.8899V15.0287Z" fill="#789422"/>
<path fill-rule="evenodd" clip-rule="evenodd" d="M17.1104 27.2317V28.3225C17.0431 28.3906 16.9759 28.4588 16.9087 28.527C13.615 31.4584 10.3213 33.3672 7.22924 32.89V31.6629C7.4309 31.7311 7.63255 31.7311 7.83421 31.6629C10.3885 31.3902 14.3544 28.936 17.1104 27.2317Z" fill="#A25E33"/>
<path d="M5.68364 21.6417C5.75086 21.6417 5.8853 21.5735 5.8853 21.4372L5.95252 14.0064C5.95252 12.5747 6.96079 10.9386 8.77569 9.43879C10.6578 7.87082 13.0105 6.98457 14.2876 7.25726C14.3548 7.25726 14.4893 7.18909 14.4893 7.12092C14.4893 7.05274 14.422 6.9164 14.3548 6.9164C12.9432 6.57554 10.5906 7.52995 8.57404 9.1661C6.69192 10.6659 5.61642 12.4384 5.61642 14.0064L5.54921 21.4372C5.54921 21.5054 5.61643 21.6417 5.68364 21.6417Z" fill="#677D27"/>
<path fill-rule="evenodd" clip-rule="evenodd" d="M7.22966 26.4818C5.5492 25.9364 3.86874 25.1865 2.38993 23.7549C2.38993 24.3684 2.38993 24.982 2.38993 25.6637C3.86874 26.959 5.5492 27.7771 7.29688 28.4588C7.22966 27.7771 7.22966 27.1635 7.22966 26.4818Z" fill="#706F6F"/>
<path fill-rule="evenodd" clip-rule="evenodd" d="M7.22966 29.4813C5.5492 28.9359 3.86874 28.186 2.38993 26.7544C2.38993 27.3679 2.38993 27.9815 2.38993 28.6632C3.86874 29.9585 5.5492 30.7766 7.29688 31.4583C7.22966 30.7766 7.22966 30.163 7.22966 29.4813Z" fill="#706F6F"/>
<path fill-rule="evenodd" clip-rule="evenodd" d="M6.82635 25.0501L2.32271 22.6641L1.11278 23.3458L2.18827 26.1409V29.2768L5.34754 31.0493L6.08694 32.4809L7.16244 31.8674C7.29687 31.7992 7.29688 31.731 7.29688 31.5947V25.8682C7.29687 25.5273 7.09522 25.1865 6.82635 25.0501Z" fill="#789422"/>
<path fill-rule="evenodd" clip-rule="evenodd" d="M5.61638 25.7316C4.00314 25.1181 2.59155 24.3 1.44884 23.3456C1.38162 23.2774 1.24719 23.2774 1.11275 23.3456C1.04553 23.4137 0.978314 23.4819 0.978314 23.6183V29.3448C0.978314 29.6856 1.17997 29.9583 1.44884 30.1628C2.59155 31.1173 4.07036 31.8672 5.61638 32.5489C5.75082 32.6171 5.81804 32.6171 5.95248 32.5489C6.0197 32.4807 6.08691 32.4125 6.08691 32.2762V26.5497C6.08691 26.2088 5.88526 25.868 5.61638 25.7316Z" fill="#677D27"/>
<path fill-rule="evenodd" clip-rule="evenodd" d="M7.69973 25.3911C7.83417 26.0732 6.82589 26.7553 6.15371 26.1414C6.01927 25.7321 6.01927 25.4593 5.88483 25.1183C6.28814 25.1183 6.69145 25.1183 7.09477 25.05C7.36364 25.1865 7.49808 25.2547 7.69973 25.3911Z" fill="#495C11"/>
<path fill-rule="evenodd" clip-rule="evenodd" d="M7.29705 24.6411C5.95268 23.5503 2.86063 22.1868 2.52454 22.3232C0.776862 22.9367 0.507988 22.9367 0.642425 25.3228C1.58348 25.8682 2.92785 27.1635 4.9444 27.6407C5.81824 27.8452 5.54937 25.8682 7.76758 25.391C7.70036 25.1183 7.56592 24.8456 7.29705 24.6411Z" fill="#8BAF20"/>
<path fill-rule="evenodd" clip-rule="evenodd" d="M3.39844 26.1409C3.19678 26.0727 2.92791 25.9364 2.72625 25.8L2.65904 25.8682C2.65904 26.7545 2.72625 27.7089 2.72625 28.5951C2.72625 29.2769 3.39844 29.7541 3.39844 28.936C3.39844 28.0497 3.39844 27.0953 3.39844 26.1409Z" fill="#56321A"/>
<path fill-rule="evenodd" clip-rule="evenodd" d="M3.33105 26.2093C3.1294 26.1411 2.86053 26.0048 2.65887 25.8684C2.65887 26.7547 2.65887 27.7091 2.65887 28.5953C2.65887 29.277 3.33105 29.7543 3.33105 28.9362C3.33105 28.1181 3.33105 27.0955 3.33105 26.2093Z" fill="#A25E33"/>
<path fill-rule="evenodd" clip-rule="evenodd" d="M6.82635 16.6649L2.32271 14.2788L1.11278 14.9605L2.18827 17.6874V20.8234L5.34754 22.5959L6.08694 24.0275L7.16244 23.414C7.29687 23.3458 7.29688 23.2776 7.29688 23.1413V17.4148C7.29687 17.1421 7.09522 16.8012 6.82635 16.6649Z" fill="#789422"/>
<path fill-rule="evenodd" clip-rule="evenodd" d="M5.61638 17.3466C4.00314 16.733 2.59155 15.915 1.44884 14.9606C1.38162 14.8924 1.24719 14.8924 1.11275 14.9606C1.04553 15.0287 0.978314 15.0969 0.978314 15.2332V20.9598C0.978314 21.3006 1.17997 21.5733 1.44884 21.7778C2.59155 22.7322 4.07036 23.4821 5.61638 24.1639C5.75082 24.232 5.81804 24.232 5.95248 24.1639C6.0197 24.0957 6.08691 24.0275 6.08691 23.8912V18.1647C6.08691 17.8238 5.88526 17.4829 5.61638 17.3466Z" fill="#677D27"/>
<path fill-rule="evenodd" clip-rule="evenodd" d="M7.56594 17.2104C7.70038 17.8925 6.6921 18.5746 6.01992 17.9607C5.88548 17.5515 5.88548 17.2786 5.75104 16.9376C6.15436 16.9376 6.55767 16.9376 6.96098 16.8694C7.16263 17.0058 7.36429 17.074 7.56594 17.2104Z" fill="#495C11"/>
<path fill-rule="evenodd" clip-rule="evenodd" d="M7.16326 16.4604C5.81889 15.3696 2.72684 14.0062 2.39075 14.1425C0.643073 14.7561 0.374199 14.7561 0.508636 17.1421C1.44969 17.6875 2.79406 18.9828 4.81061 19.46C5.68445 19.6645 5.41558 17.6875 7.63379 17.2103C7.56657 16.9376 7.36491 16.6649 7.16326 16.4604Z" fill="#8BAF20"/>
<path fill-rule="evenodd" clip-rule="evenodd" d="M3.19727 17.9602C2.99561 17.8921 2.72674 17.7557 2.52508 17.6194L2.45786 17.6876C2.45786 18.5738 2.52508 19.5282 2.52508 20.4145C2.52508 21.0962 3.19727 21.5734 3.19727 20.7553C3.19727 19.8691 3.19727 18.9147 3.19727 17.9602Z" fill="#56321A"/>
<path fill-rule="evenodd" clip-rule="evenodd" d="M3.12891 18.0284C2.92725 17.9602 2.65838 17.8238 2.45672 17.6875C2.45672 18.5737 2.45672 19.5282 2.45672 20.4144C2.45672 21.0961 3.12891 21.5733 3.12891 20.7553C3.12891 19.869 3.12891 18.9146 3.12891 18.0284Z" fill="#A25E33"/>
<path fill-rule="evenodd" clip-rule="evenodd" d="M17.7154 52.7967C17.3793 53.342 16.9088 54.2283 17.0432 55.2509C17.1777 55.5917 18.4548 56.4098 18.7237 56.4098C19.3959 56.4098 19.5975 57.0234 20.0681 57.4324C20.8075 58.046 22.4879 58.6595 23.9667 57.5688C24.3028 57.2961 24.1012 56.7507 23.8995 56.5462C23.5634 56.1371 22.3535 56.0008 21.883 55.7281C20.4041 55.0464 20.0681 53.2739 19.9336 52.933C19.7992 52.6603 19.4631 52.1831 19.4631 52.1831C19.3959 52.2513 18.7909 52.0468 17.7154 52.7967Z" fill="#5A556E"/>
<path d="M21.1434 56.4781C21.1434 56.4781 21.1434 56.5463 21.2106 56.5463C21.2779 56.5463 21.2779 56.5463 21.2779 56.5463C21.4123 56.2735 21.5467 56.0688 21.6812 56.0006C21.8156 55.8642 22.0173 55.8642 22.2189 55.8642C22.2861 55.8642 22.2861 55.8642 22.2861 55.796C22.2861 55.7278 22.2189 55.7278 22.2189 55.7278C22.0173 55.7278 21.7484 55.7278 21.6139 55.8642C21.4123 56.0006 21.2779 56.2053 21.1434 56.4781Z" fill="#FFCC00"/>
<path d="M20.8081 56.2053V56.2735H20.8753C21.0098 56.0689 21.077 55.8642 21.2787 55.796C21.4131 55.7278 21.5475 55.6596 21.7492 55.6596C21.7492 55.6596 21.8164 55.6596 21.8164 55.5914C21.8164 55.5914 21.8164 55.5232 21.7492 55.5232C21.5475 55.5232 21.3459 55.5232 21.2114 55.6596C21.077 55.796 20.9426 56.0007 20.8081 56.2053Z" fill="#FFCC00"/>
<path d="M20.4712 55.9326V56.0008H20.5384C20.6729 55.7962 20.7401 55.5915 20.9417 55.5233C21.0762 55.4551 21.2106 55.3869 21.4123 55.3869C21.4123 55.3869 21.4795 55.3869 21.4795 55.3187C21.4795 55.3187 21.4795 55.2505 21.4123 55.2505C21.2106 55.2505 21.009 55.2505 20.8745 55.3869C20.7401 55.5233 20.6057 55.6597 20.4712 55.9326Z" fill="#FFCC00"/>
<path d="M20.2027 55.6599V55.7281H20.2699C20.4043 55.5235 20.4715 55.3188 20.6732 55.2506C20.8076 55.1824 20.9421 55.1142 21.1437 55.1142C21.1437 55.1142 21.2109 55.1142 21.2109 55.046C21.2109 55.046 21.2109 54.9778 21.1437 54.9778C20.9421 54.9778 20.7404 54.9778 20.606 55.1142C20.4043 55.2506 20.2699 55.387 20.2027 55.6599Z" fill="#FFCC00"/>
<path d="M19.8667 55.3872V55.4554H19.9339C20.0684 55.2508 20.1356 55.0461 20.3373 54.9779C20.4717 54.9097 20.6061 54.8415 20.8078 54.8415C20.8078 54.8415 20.875 54.8415 20.875 54.7733C20.875 54.7733 20.875 54.7051 20.8078 54.7051C20.6061 54.7051 20.4045 54.7051 20.27 54.8415C20.0684 54.9779 19.9339 55.1143 19.8667 55.3872Z" fill="#FFCC00"/>
<path d="M19.5308 55.1147V55.1829H19.598C19.7324 54.9783 19.7997 54.7737 20.0013 54.7055C20.1358 54.569 20.3374 54.569 20.4718 54.569C20.4718 54.569 20.5391 54.569 20.5391 54.5008C20.5391 54.5008 20.5391 54.4326 20.4718 54.4326C20.2702 54.4326 20.0685 54.4326 19.9341 54.569C19.7997 54.6372 19.6652 54.8419 19.5308 55.1147Z" fill="#FFCC00"/>
<path d="M19.1939 54.7736V54.8419H19.2611C19.3955 54.6372 19.4627 54.4326 19.6644 54.3644C19.7988 54.2962 19.9333 54.228 20.1349 54.228C20.1349 54.228 20.2021 54.228 20.2021 54.1598C20.2021 54.1598 20.2021 54.0916 20.1349 54.0916C19.9333 54.0916 19.7316 54.0916 19.5972 54.228C19.4627 54.3644 19.3283 54.569 19.1939 54.7736Z" fill="#FFCC00"/>
<path fill-rule="evenodd" clip-rule="evenodd" d="M12.9437 30.8448C13.4815 32.481 12.4732 33.3672 12.8765 35.0034C13.4815 37.0485 15.7669 40.9344 15.498 43.3886C15.0947 47.8198 16.5735 50.274 16.4391 54.1599C17.5818 55.0461 21.0772 54.3644 20.4722 52.9328C20.1361 48.297 20.405 42.775 20.2705 41.3434C20.2705 41.1389 20.1361 39.98 20.1361 39.2982C20.2033 35.276 19.6656 27.0271 19.1951 25.5273C19.1951 25.5273 17.3802 26.8226 14.557 27.4362C14.557 27.9816 12.8093 30.6403 12.9437 30.8448Z" fill="#7C7187"/>
<path fill-rule="evenodd" clip-rule="evenodd" d="M8.1035 45.0247C6.55747 46.32 4.33926 49.1151 2.38993 51.842C1.9194 53.0009 4.07039 55.5233 5.81807 54.5689C6.69191 53.3418 10.4561 49.9332 12.2038 48.1607C12.3383 48.0243 13.2793 46.8654 13.3465 46.6609C14.6237 42.366 15.9681 40.8662 16.4386 33.4354C18.7912 33.0945 17.5813 29.5495 17.7157 26.4136C13.7498 29.1405 10.725 28.0497 9.78396 27.2998C8.43959 29.4132 8.91012 33.5035 9.64952 34.0489C9.24621 37.7984 9.44787 41.2752 9.11177 44.0703C8.50681 45.0929 8.64124 44.6157 8.1035 45.0247Z" fill="#A096AB"/>
<path fill-rule="evenodd" clip-rule="evenodd" d="M12.2043 44.4113C12.2043 42.5024 12.4059 40.5254 13.0781 38.6166C11.5321 38.2757 10.3894 37.7304 9.44833 36.7078C8.9778 39.162 8.2384 42.3661 9.11224 42.9797C10.2549 43.7977 11.0616 44.2749 12.2043 44.4113Z" fill="#7C7187"/>
<path fill-rule="evenodd" clip-rule="evenodd" d="M12.6738 38.7528C11.0606 38.2074 10.1867 37.662 9.38013 36.9121C9.17847 37.3893 8.97681 37.8665 8.77516 38.4119C9.649 39.2982 10.7245 40.0481 12.0689 40.3207C12.3377 39.8435 12.6066 39.2982 12.6738 38.7528Z" fill="#A096AB"/>
<path fill-rule="evenodd" clip-rule="evenodd" d="M15.4972 29.1404C15.6317 32.14 15.2284 34.7306 14.7578 37.0485C13.1446 37.253 11.3969 36.7076 10.2542 35.9577C10.3886 34.7988 10.4558 34.0489 10.6575 32.7536C12.7413 32.0037 13.3462 30.5721 13.5479 29.0723C14.1529 29.2086 14.9595 29.2086 15.4972 29.1404Z" fill="#7C7187"/>
<path fill-rule="evenodd" clip-rule="evenodd" d="M9.64921 38.7532C9.71642 38.685 9.71643 38.4804 9.58199 38.2757C9.44755 38.1393 9.2459 38.0711 9.17868 38.1393C9.11146 38.2075 9.11146 38.4121 9.2459 38.6168C9.44755 38.8214 9.58199 38.8896 9.64921 38.7532Z" fill="#7C7187"/>
<path fill-rule="evenodd" clip-rule="evenodd" d="M12.0017 39.9802C12.069 39.912 12.069 39.7074 11.9345 39.5028C11.8001 39.3664 11.5984 39.2981 11.5312 39.3664C11.464 39.4346 11.464 39.6392 11.5984 39.8438C11.7329 40.0485 11.8673 40.1167 12.0017 39.9802Z" fill="#7C7187"/>
<path fill-rule="evenodd" clip-rule="evenodd" d="M5.48115 31.1857C5.68281 30.913 6.69109 30.7767 6.69109 31.2539C6.75831 31.6629 6.95996 33.2309 6.95996 33.3672C6.95996 33.5717 6.95996 33.7081 6.89274 33.8444C6.82553 34.1171 6.82552 34.1853 6.62387 34.3898C6.48943 34.5943 6.08612 35.0715 5.95168 35.2079C5.68281 35.4806 5.34672 35.8214 5.01063 35.9578C4.94341 35.8896 4.87619 35.7533 4.87619 35.6851C4.74175 35.7533 4.60732 35.8896 4.5401 35.8214C4.40566 35.6169 4.5401 35.3442 4.5401 35.3442L4.40566 35.4124C4.20401 35.2079 4.27122 35.0034 4.33844 34.867C4.40566 34.7307 4.67453 34.3216 4.74175 34.1853C4.94341 33.8444 5.2795 33.0945 4.87619 33.8444C4.67454 34.1853 4.33844 34.5943 4.27122 34.3898C4.13679 34.0489 4.47288 33.9126 4.60732 33.5717C4.74175 33.299 5.01063 32.5491 5.01063 32.2083C5.07785 31.5947 5.21228 31.5266 5.48115 31.1857Z" fill="#F2B387"/>
<path fill-rule="evenodd" clip-rule="evenodd" d="M7.90263 9.91562C7.29767 11.5518 8.57482 12.029 8.77647 14.2105C9.31422 19.4598 21.7496 18.3009 15.9016 8.07495C15.4983 7.25688 10.5242 7.32505 7.90263 9.91562Z" fill="#7C7187"/>
<path fill-rule="evenodd" clip-rule="evenodd" d="M16.5059 9.43859C14.5565 10.7339 17.178 14.347 18.8585 15.3696C18.9929 15.4378 21.2784 18.4374 25.1098 19.5963C27.4625 20.2099 27.7313 16.5967 26.2525 15.2333C24.7737 13.8016 23.0933 11.6201 22.5555 10.9384C21.7489 9.71128 18.3208 7.6661 16.5059 9.43859Z" fill="#BF3523"/>
<path fill-rule="evenodd" clip-rule="evenodd" d="M28.3364 19.0509C30.6219 17.892 32.0334 16.5967 32.9745 16.0513C33.3106 14.8242 32.1679 12.8472 31.5629 13.1881C30.8907 13.3926 28.4709 14.6197 26.2527 15.1651C24.6394 15.9832 24.4378 18.2329 24.9083 18.9828C25.1772 19.3918 25.5805 20.6189 28.3364 19.0509Z" fill="#EF7D00"/>
<path fill-rule="evenodd" clip-rule="evenodd" d="M13.0781 17.0738C13.0781 18.5736 12.1371 21.0278 10.5238 20.0734C9.38111 19.3917 8.10396 16.3921 8.64171 15.0968C8.84336 14.5514 9.44833 13.3925 10.0533 13.188C12.5404 12.3699 13.0781 15.0286 13.0781 17.0738Z" fill="#DB9669"/>
<path fill-rule="evenodd" clip-rule="evenodd" d="M12.0694 9.77913C10.3889 10.3927 8.77566 11.7561 8.17069 12.4379C7.36407 13.3241 8.17069 15.3693 8.17069 15.642C8.50678 21.7775 8.30513 24.2999 8.17069 30.1628C8.50678 32.208 13.8843 33.7759 20.3372 30.2991C20.5389 25.8679 22.0177 15.9147 19.9339 10.12C19.4634 8.82472 13.2793 11.2108 12.0694 9.77913Z" fill="#CC4D1C"/>
<path fill-rule="evenodd" clip-rule="evenodd" d="M10.5906 12.6426C8.30515 10.8701 6.35582 14.0742 5.5492 15.574C5.2131 16.1875 3.53264 19.2553 3.26377 22.7321C3.19655 24.8455 6.2886 24.5728 7.16244 23.073C8.23793 21.7777 10.3889 18.8463 10.8595 18.3009C11.6661 17.4147 12.5399 14.1424 10.5906 12.6426Z" fill="#EF7D00"/>
<path fill-rule="evenodd" clip-rule="evenodd" d="M3.26376 22.5278C2.72602 25.1866 4.00317 29.9587 4.20482 31.1176C4.80979 31.5948 7.29687 31.2539 7.22965 30.5722C7.29687 29.8223 6.82634 25.3911 7.16243 23.0732C7.028 22.5278 5.75085 21.7098 4.87701 21.7779C4.4737 21.9143 3.93595 19.3919 3.26376 22.5278Z" fill="#EF7D00"/>
<path fill-rule="evenodd" clip-rule="evenodd" d="M4.67518 30.9815C4.67518 31.2544 4.67518 31.5272 4.7424 31.8001C5.41459 31.5272 6.08677 31.3908 6.82617 31.459C6.82617 31.1862 6.75895 30.9133 6.75895 30.6405C6.15399 30.0948 5.41459 30.2312 4.67518 30.9815Z" fill="#7C7187"/>
<path fill-rule="evenodd" clip-rule="evenodd" d="M32.8403 15.6422C33.042 15.5059 33.3109 15.4377 33.4453 15.2332C33.4453 14.2106 33.042 13.5289 32.1009 13.188C31.8993 13.3243 31.7649 13.4607 31.5632 13.597C31.5632 14.4151 31.8321 15.2332 32.8403 15.6422Z" fill="#7C7187"/>
<path fill-rule="evenodd" clip-rule="evenodd" d="M32.3698 13.529C32.3698 13.0518 32.5043 12.5064 32.8404 12.3019C33.5125 11.961 35.2602 11.0066 35.3947 11.0066C35.5963 10.9385 35.3947 11.0066 35.5963 10.9385C35.8652 10.8703 35.9324 11.0748 35.798 11.4838C35.9996 11.961 35.798 12.0974 35.5291 12.3019C35.7307 12.5064 35.7307 12.7109 35.0586 13.1882C35.1258 13.4608 35.5291 13.3245 35.3947 13.4608C34.9913 13.8017 34.0503 14.7561 33.5125 14.6198C33.3109 14.6198 33.3109 14.5516 32.9748 14.7561C32.5715 14.688 32.1009 14.0062 32.3698 13.529Z" fill="#DB9669"/>
<path d="M34.1841 8.68882C34.2513 8.41613 34.7891 8.27979 35.058 8.27979C35.3268 8.34796 35.5957 8.89334 35.5957 9.16603C34.8563 13.12 34.1169 18.9147 32.9742 23.0733C29.8821 33.9809 28.7394 45.3657 26.5884 56.4779C26.5212 56.7506 26.3196 56.8869 26.0507 56.8869C25.7818 56.8188 25.6474 56.6142 25.6474 56.3416C27.1262 48.1608 28.2689 39.9119 30.0166 31.7994C31.5626 24.6412 32.907 15.7106 34.1841 8.68882Z" fill="#6F3927"/>
<path fill-rule="evenodd" clip-rule="evenodd" d="M10.2545 11.0745C11.5988 11.1426 14.4892 15.642 14.8925 17.3464C16.5058 24.2318 9.58229 28.0495 8.23792 27.5723C8.23792 27.1632 8.30514 25.8679 8.30514 25.7316C19.2617 22.2548 11.1283 12.0289 8.10348 12.4379C8.03626 11.8244 9.11176 11.0745 10.2545 11.0745Z" fill="#3C3C3B"/>
<path fill-rule="evenodd" clip-rule="evenodd" d="M17.4464 8.00682C20.8745 11.8927 18.9924 16.0512 20.9417 21.3005C20.9417 21.5732 21.0762 22.5276 21.0762 23.0048C21.0762 23.2093 20.8073 23.2093 20.8073 23.2093C18.9924 20.8233 17.5808 8.75672 17.5808 9.09759C17.5808 8.55221 16.6398 7.18875 17.4464 8.00682Z" fill="#3C3C3B"/>
<path fill-rule="evenodd" clip-rule="evenodd" d="M19.3285 15.9834C17.7824 16.9378 16.1692 17.415 14.2871 17.415C14.4215 18.0286 14.5559 18.7103 14.6904 19.3239C16.5053 19.3239 18.0513 18.8467 19.4629 17.8922C19.4629 17.3469 19.3957 16.6651 19.3285 15.9834Z" fill="#3C3C3B"/>
<path fill-rule="evenodd" clip-rule="evenodd" d="M34.1164 12.8474L34.1836 12.9156C34.1164 12.9156 34.1164 12.9156 34.1164 12.8474Z" fill="#221F1F"/>
<path fill-rule="evenodd" clip-rule="evenodd" d="M35.5959 10.9382L34.5204 11.4839C34.1843 11.6203 34.3859 12.0296 34.722 11.8931L35.7975 11.4839C36.2008 11.2793 35.932 10.7336 35.5959 10.9382Z" fill="#F2B387"/>
<path fill-rule="evenodd" clip-rule="evenodd" d="M35.5288 11.5521L34.3189 12.0978C33.9828 12.3024 34.1845 12.7117 34.5878 12.5753L35.7977 12.0978C36.1338 11.9614 35.8649 11.3475 35.5288 11.5521Z" fill="#F2B387"/>
<path fill-rule="evenodd" clip-rule="evenodd" d="M35.327 12.3018L34.3188 12.7793C33.9827 12.9157 34.1843 13.2568 34.5204 13.1886L35.5287 12.7793C35.8648 12.6429 35.5959 12.1654 35.327 12.3018Z" fill="#F2B387"/>
<path fill-rule="evenodd" clip-rule="evenodd" d="M35.2597 13.12L34.3186 13.2564C34.0497 13.3246 34.117 13.6656 34.3858 13.5974L35.3269 13.5292C35.5958 13.5292 35.5285 13.0517 35.2597 13.12Z" fill="#F2B387"/>
<path fill-rule="evenodd" clip-rule="evenodd" d="M33.1087 11.9609C33.3104 11.7563 33.9153 11.211 34.1842 11.0746C34.5203 10.8701 34.7219 10.8019 35.058 10.5974C35.1925 10.8701 35.1252 11.1428 34.5203 11.4837C33.7137 12.1654 33.9153 12.9835 33.0415 12.9835C32.5709 12.9835 32.3693 12.7789 33.1087 11.9609Z" fill="#F2B387"/>
<path fill-rule="evenodd" clip-rule="evenodd" d="M10.1196 10.8019C11.464 10.5973 14.6233 15.7103 15.0266 17.4146C16.6398 24.3001 10.5229 27.845 8.17029 27.7087C8.17029 27.2997 8.23751 26.0726 8.23751 25.9362C19.3958 22.4594 11.2623 11.8926 8.10307 12.3017C8.10307 11.6881 8.97691 10.9382 10.1196 10.8019Z" fill="#706F6F"/>
<path fill-rule="evenodd" clip-rule="evenodd" d="M17.6492 8.00682C21.0773 11.8927 19.1952 16.0512 21.1445 21.3005C21.1445 21.7095 21.0101 23.1412 21.0101 23.0048C19.1952 20.6188 17.7836 8.75672 17.7836 9.09759C17.7836 8.55221 16.9098 7.18875 17.6492 8.00682Z" fill="#706F6F"/>
<path fill-rule="evenodd" clip-rule="evenodd" d="M19.6644 16.1194C18.1184 17.0738 16.5051 17.551 14.623 17.551C14.7574 18.1646 14.8919 18.8463 15.0263 19.4598C16.8412 19.4598 18.3872 18.9826 19.7988 18.0282C19.7988 17.4828 19.7316 16.8011 19.6644 16.1194Z" fill="#706F6F"/>
<path fill-rule="evenodd" clip-rule="evenodd" d="M11.061 10.1885C13.0104 9.16593 15.363 8.68872 18.0518 8.68872C17.9845 10.2567 17.9845 11.8247 17.514 13.5972C17.3796 13.8017 17.3124 14.0062 16.9763 14.0062C15.5647 12.4382 13.4809 11.2111 11.061 10.1885Z" fill="#EDEDED"/>
<path fill-rule="evenodd" clip-rule="evenodd" d="M11.0609 6.30276L12.002 6.23455V6.09813L10.1198 5.75708L11.0609 6.30276Z" fill="#56321A"/>
<path fill-rule="evenodd" clip-rule="evenodd" d="M6.95996 7.93865L6.0189 9.03L5.14506 8.55253L5.07785 8.41612L6.08612 7.46118L6.95996 7.93865Z" fill="#56321A"/>
<path fill-rule="evenodd" clip-rule="evenodd" d="M6.82617 7.80281L5.88512 8.89416L5.07849 8.4167L5.95233 7.39355L6.82617 7.80281Z" fill="#A25E33"/>
<path fill-rule="evenodd" clip-rule="evenodd" d="M11.0609 6.16653L12.002 6.09832L11.0609 5.62085L10.1198 5.68906L11.0609 6.16653Z" fill="#A25E33"/>
<path fill-rule="evenodd" clip-rule="evenodd" d="M10.2544 5.75744C10.5905 5.96207 10.8594 6.09849 11.2627 6.23491C11.2627 6.03028 11.2627 5.82565 10.8594 5.4846C10.5233 5.27997 10.3216 5.14355 9.85111 5.14355C9.98554 5.41639 10.1872 5.34818 10.2544 5.75744Z" fill="#56321A"/>
<path fill-rule="evenodd" clip-rule="evenodd" d="M10.1194 5.75744C10.4555 5.96207 10.7243 6.09849 11.1276 6.30312C11.1276 6.09849 11.1949 5.89386 10.7915 5.62102C10.4555 5.41639 9.98492 5.27997 9.64883 5.14355C9.78327 5.34818 10.0521 5.34818 10.1194 5.75744Z" fill="#3C3C3B"/>
<path fill-rule="evenodd" clip-rule="evenodd" d="M6.08589 7.46143C6.35476 7.59778 6.69086 7.8023 6.95973 7.93864C7.16138 5.48442 9.71568 5.00721 10.8584 5.62077C10.5223 5.48442 10.2534 5.27991 9.91734 5.14356C9.11072 4.53001 6.15311 5.27991 6.08589 7.46143Z" fill="#56321A"/>
<path fill-rule="evenodd" clip-rule="evenodd" d="M5.9521 7.3931C6.22097 7.52945 6.55706 7.73396 6.82594 7.87031C7.02759 5.34792 9.78355 4.73436 10.7246 5.48426C10.4557 5.27975 9.91799 5.00706 9.51468 4.87071C8.57362 4.52985 6.01932 5.1434 5.9521 7.3931Z" fill="#A25E33"/>
<path fill-rule="evenodd" clip-rule="evenodd" d="M17.5145 13.3924C17.4473 14.415 18.9933 11.2791 18.6572 9.91563C17.3128 3.78008 17.5817 11.9608 17.5145 13.3924Z" fill="#EF7D00"/>
<path fill-rule="evenodd" clip-rule="evenodd" d="M13.4132 6.64331L12.741 9.84743C12.2705 10.8018 16.6397 12.847 17.4463 11.3472L16.5724 7.73407L13.4132 6.64331Z" fill="#D39064"/>
<path fill-rule="evenodd" clip-rule="evenodd" d="M18.7236 2.55314C18.7236 3.09852 18.9253 3.57573 19.0597 4.12111C19.3286 4.73466 18.5892 4.93918 19.1269 5.75725C19.2614 6.37081 19.1269 7.32523 18.9925 7.93878C18.9253 8.41599 18.8581 9.02955 18.1859 9.50675C17.1776 10.2567 16.0349 9.23406 14.9594 8.96137C13.8839 8.62051 14.2872 7.32523 13.9511 6.43898C13.2789 4.87101 13.2789 2.75765 14.9594 1.93958C15.6988 1.59872 16.9759 1.3942 17.7826 1.66689C18.1187 1.73506 18.7236 1.93958 18.7236 2.55314Z" fill="#F2B387"/>
<path fill-rule="evenodd" clip-rule="evenodd" d="M15.2965 5.07528C15.0276 5.21163 14.9604 5.2798 14.8932 5.62066C14.826 5.96153 14.6243 5.96153 14.6915 6.64326C14.6915 6.7796 13.616 6.30239 13.28 7.5295C11.9356 6.43874 11.5323 2.96193 12.4733 2.07568C14.4227 2.14386 15.0949 2.14386 15.8343 3.16645C16.0359 3.71183 15.6998 4.87076 15.2965 5.07528Z" fill="#4F2B0C"/>
<path fill-rule="evenodd" clip-rule="evenodd" d="M15.7665 0.576183C18.5224 0.985219 19.5979 2.14416 18.9257 3.0304C18.5896 3.43944 17.6486 3.64396 15.9009 3.37126C15.2959 2.55319 14.6238 2.14416 12.4728 2.07598C12.9433 0.50801 15.0271 0.50801 15.7665 0.576183Z" fill="#4F2B0C"/>
<path fill-rule="evenodd" clip-rule="evenodd" d="M13.2794 6.439C13.5483 6.98438 13.8843 7.39342 14.1532 7.25707C14.4221 7.12073 14.4893 6.57535 14.2204 6.02997C13.9516 5.48458 13.5483 5.14372 13.2794 5.28006C13.0777 5.34824 13.0777 5.89362 13.2794 6.439Z" fill="#F2B387"/>
<path fill-rule="evenodd" clip-rule="evenodd" d="M18.2533 7.25702C17.7828 7.46154 17.0434 7.93875 16.8417 8.34779C16.4384 9.02951 15.6318 8.48413 15.1612 7.73423C14.8924 7.3252 14.8251 6.91616 14.6907 6.37078L14.3546 6.16626C14.153 7.18885 13.9513 7.93875 14.153 8.41596C14.2202 10.802 16.3712 12.0973 18.2533 11.4156V8.34779C18.1189 8.48413 17.9172 8.68865 17.9172 8.68865C17.6483 8.89317 17.4467 8.62048 17.7155 8.41596C17.9844 8.21144 18.0516 8.14327 18.2533 8.00692V7.25702ZM19.1271 7.39337C18.9927 7.18885 18.9255 7.0525 18.5222 7.12068C18.4549 7.12068 18.3205 7.18885 18.1861 7.25702V8.00692C18.2533 7.93875 18.3205 7.93875 18.3877 7.87058C18.791 7.93875 18.9927 8.21144 18.6566 8.34779C18.5894 8.34779 18.5894 8.34779 18.5222 8.41596C18.4549 8.41596 18.4549 8.41596 18.3877 8.27961C18.3877 8.21144 18.2533 8.27961 18.1861 8.34779V11.4156C18.3205 11.3474 18.4549 11.2792 18.5894 11.211C19.3288 10.802 19.5977 10.1885 19.5977 9.50672V9.30221C19.5977 8.41596 19.2616 7.66606 19.1271 7.39337Z" fill="#4F2B0C"/>
<path fill-rule="evenodd" clip-rule="evenodd" d="M17.0429 14.0744C16.1691 14.0744 14.4886 10.6658 9.31279 11.4157C7.63233 11.6884 6.55684 10.1886 7.96843 9.84773C12.9426 8.6888 17.7151 14.0744 17.0429 14.0744Z" fill="#EF7D00"/>
<path fill-rule="evenodd" clip-rule="evenodd" d="M19.0596 2.00772C18.0513 -0.310156 14.8248 -0.446502 13.0771 0.712434C11.4639 1.8032 11.6655 3.84838 11.9344 5.34818C14.2198 4.25742 16.7741 3.16665 19.0596 2.00772Z" fill="#6666CC"/>
<path fill-rule="evenodd" clip-rule="evenodd" d="M19.0599 4.12105C16.4384 4.46191 13.884 5.7572 12.8758 7.12065C12.4725 7.59786 11.3297 5.96171 11.8675 5.34816C13.4135 3.64384 15.4973 2.34856 18.791 1.87135C20.0681 1.73501 19.7993 4.12105 19.0599 4.12105Z" fill="#6699FF"/>
</svg>
