<svg width="154" height="84" viewBox="0 0 154 84" fill="none" xmlns="http://www.w3.org/2000/svg">
<path d="M24 12C24 18.637 18.637 24 12 24C5.36296 24 0 18.637 0 12C0 5.36296 5.36296 0 12 0C18.637 0 24 5.36296 24 12Z" fill="url(#paint0_linear_276_4957)"/>
<path d="M112.504 179.007C161.383 179.007 201.007 139.383 201.007 90.5037C201.007 41.6244 161.383 2 112.504 2C63.6244 2 24 41.6244 24 90.5037C24 139.383 63.6244 179.007 112.504 179.007Z" fill="#7DCBDF"/>
<path d="M116.697 70.8465C116.603 70.8465 116.603 70.8465 116.697 70.8465C116.045 70.7534 115.579 71.2192 115.299 71.5918C115.206 71.685 115.206 71.7781 115.206 71.8713C115.206 72.0576 115.299 72.3371 115.486 72.7098C115.579 72.8961 115.765 73.4551 116.045 73.4551C116.138 73.4551 116.324 73.4551 116.603 72.244C116.79 71.685 116.883 71.0328 116.697 70.8465Z" fill="#3CAA2C"/>
<path d="M103.28 68.6107C103.187 68.6107 103.094 68.6107 103.094 68.7038C103.094 68.7038 103.001 68.797 102.628 68.797C102.069 68.797 101.51 68.5175 100.858 68.6107C100.486 68.7038 100.206 68.9833 100.299 69.1697C100.392 69.5423 101.51 69.5423 101.604 69.5423C101.883 69.5423 102.163 69.6355 102.349 69.6355C102.442 69.5423 102.628 69.6355 103.094 69.915C103.467 70.1944 103.653 70.2876 103.839 70.1944C104.026 70.0081 103.839 69.6355 103.56 69.2628C103.187 68.7038 103.187 68.7038 103.28 68.6107C103.187 68.6107 103.187 68.6107 103.28 68.6107Z" fill="#3CAA2C"/>
<path d="M116.696 72.7098C116.696 72.8029 116.696 72.8029 116.789 72.9892C116.883 72.7097 116.976 72.4303 116.976 72.0576C116.976 72.2439 116.883 72.3371 116.696 72.7098Z" fill="#3CAA2C"/>
<path d="M116.604 73.7346C117.069 73.8278 117.069 74.2936 117.162 74.8526C117.256 75.5047 117.349 75.8774 117.721 75.9705C117.815 75.9705 117.908 75.9705 118.094 75.9705C118.187 75.5979 118.374 74.9457 118.56 75.1321C118.467 74.9457 118.374 74.8526 118.28 74.7594C118.467 74.8526 118.56 74.8526 118.653 74.9457C118.653 74.7594 118.746 74.4799 118.653 74.3868C118.653 74.3868 118.653 74.3868 118.653 74.4799C118.374 74.6662 118.187 74.6662 117.815 74.6662C118.187 74.5731 118.374 73.9209 118.374 73.9209C118.374 73.9209 118.094 71.8714 117.628 71.4987C117.256 71.2193 116.976 71.9646 116.976 71.9646C116.883 72.244 116.79 72.5235 116.79 72.8962C116.883 73.2688 116.883 73.362 116.604 73.7346Z" fill="#3CAA2C"/>
<path d="M50.2715 61.9962C50.6441 61.9962 50.8305 61.9962 52.1347 61.5304C54.6501 60.5056 55.0227 60.7851 53.7185 62.3689C53.998 62.6483 54.3706 62.9278 55.3022 62.5552C56.6065 61.9962 57.5381 60.9714 58.7492 60.3193C60.4261 59.3877 62.1962 60.2261 63.8731 59.7603C64.6184 59.4808 64.8979 59.1082 64.991 58.9219C65.0842 58.7355 65.0842 58.6424 65.1774 58.4561C64.8047 58.5492 63.7799 58.7355 63.5936 58.6424C62.9415 58.8287 62.2894 58.9219 59.8671 59.015C53.6253 59.3877 51.4826 60.0398 50.7373 60.5056C51.2031 60.5056 51.3894 60.5056 51.7621 60.7851C51.4826 61.3441 50.4578 61.2509 50.2715 61.9962Z" fill="#3CAA2C"/>
<path d="M48.5941 72.803C48.5941 72.803 48.501 72.8962 48.5941 72.9893C48.6873 72.9893 48.7805 72.8962 48.7805 72.803C48.7805 72.7099 48.5941 72.7099 48.5941 72.803Z" fill="#3CAA2C"/>
<path d="M47.8494 72.4303C47.9425 72.4303 47.9425 72.5235 47.9425 72.5235C47.9425 72.5235 47.9425 72.5235 47.9425 72.4303C47.8494 72.244 47.8494 72.0577 47.7562 71.9645L47.8494 71.8713C47.3835 71.9645 47.3835 72.1508 47.8494 72.4303Z" fill="#3CAA2C"/>
<path d="M49.0605 72.896C49.0605 72.9892 49.0605 72.9892 49.0605 73.0824C49.0605 73.0824 49.1537 72.9892 49.2469 72.896C49.0605 72.7097 49.0605 72.8029 49.0605 72.896Z" fill="#3CAA2C"/>
<path d="M50.7375 73.4551C50.6443 73.4551 50.5512 73.4551 50.458 73.6414C50.458 73.6414 50.458 73.7346 50.5512 73.7346C50.6443 73.7346 51.017 73.7346 51.1101 73.5482C51.1101 73.4551 50.8307 73.4551 50.7375 73.4551Z" fill="#3CAA2C"/>
<path d="M45.0537 46.4381H45.1469C45.1469 46.345 45.1469 46.4381 45.0537 46.4381Z" fill="#3CAA2C"/>
<path d="M44.7747 61.7166C43.9362 64.791 44.3089 66.5611 44.4952 67.0269C44.961 66.6542 44.961 65.9089 45.7063 65.7226C45.52 66.0021 45.52 66.2816 46.0789 66.8405C45.9858 67.3995 45.9858 67.3995 46.2653 67.9585C46.5447 68.5175 46.5447 68.5175 46.6379 68.8901C46.6379 67.2132 46.6379 67.2132 46.5447 67.0269H46.4516C46.4516 66.9337 46.3584 66.8405 46.2653 66.8405C46.2653 66.6542 46.4516 66.0952 46.2653 65.7226C46.3584 65.7226 46.4516 65.7226 46.5447 65.7226C46.0789 64.6978 47.5695 63.2072 50.0849 60.785C49.9917 60.785 49.8054 60.8782 49.7122 60.8782C48.9669 60.785 48.408 60.3192 47.6627 60.2261C47.4764 60.2261 47.1969 60.5055 47.1037 60.6919C47.1969 60.2261 47.29 59.6671 47.29 59.2944C47.1969 59.2013 47.1037 59.2013 47.0105 59.1081C45.6131 59.3876 44.8678 60.8782 44.8678 61.2508C44.8678 61.344 44.8678 61.344 44.8678 61.344C44.6815 61.4372 44.5883 61.4372 44.3089 61.6235C44.2157 61.5303 44.2157 61.5303 43.9362 61.6235C44.3089 61.2508 44.5883 60.8782 44.961 60.5055C42.073 62.4619 41.1414 59.7602 41.3277 58.7355C41.4208 58.2697 42.073 57.9902 41.7003 57.338C41.6072 57.1517 41.2345 56.7791 40.3029 56.8722C42.4456 54.0774 42.8183 49.5124 42.8183 48.5808C42.8183 48.0219 42.7251 47.9287 42.2593 48.3013C41.8867 48.5808 41.7935 48.5808 41.7003 48.5808C41.7003 48.8603 41.7003 48.8603 41.6072 48.9535C41.3277 49.1398 41.0482 49.233 40.7687 49.4193C40.2097 49.7919 39.7439 50.1646 39.4644 50.4441C39.185 50.7236 38.9055 51.2825 39.185 51.562C39.4644 51.7483 40.4892 51.7483 41.6072 50.7236C41.8867 50.4441 41.8867 50.4441 42.073 50.1646C41.9798 51.0962 40.2097 55.568 39.3713 56.3133C39.5576 55.568 39.6508 55.2885 39.6508 54.2637C39.7439 53.2389 39.8371 52.68 40.3029 51.7483C39.7439 52.68 39.185 53.2389 38.626 53.7979C38.626 54.1705 38.8123 54.45 38.7192 54.8227C38.626 55.1022 38.3465 55.4748 38.1602 55.6611C38.2533 55.7543 38.3465 55.8474 38.5328 56.1269C38.5328 56.1269 38.5328 56.1269 38.626 56.2201C38.7192 56.3133 38.7192 56.3133 38.8123 56.4064C38.8123 56.4996 38.8123 56.4996 38.4397 56.6859C38.2533 56.7791 37.7875 57.0586 37.8807 57.9902C37.9739 58.7355 38.1602 58.9218 38.2533 59.015C38.067 59.2944 37.9739 59.4808 37.7875 59.9466C37.6012 60.4124 37.508 60.5987 37.4149 60.8782C37.8807 60.8782 37.7875 61.2508 37.6012 61.5303C37.6012 61.4372 37.6012 61.344 37.508 61.2508C36.9491 61.6235 36.9491 61.6235 37.508 62.2756C37.508 62.4619 37.508 62.4619 37.2286 62.7414C37.3217 62.7414 37.508 62.7414 37.6012 62.7414C37.6012 62.8346 37.6012 62.9277 37.6012 62.9277C37.3217 63.1141 36.9491 63.0209 36.7628 63.2072C36.5764 63.3935 36.5764 63.4867 36.6696 63.8594C37.4149 64.232 38.7192 63.5799 38.8123 63.4867C38.7192 63.4867 38.626 63.3936 38.626 63.4867C43.5636 62.6483 43.5636 62.6483 44.7747 61.7166Z" fill="#3CAA2C"/>
<path d="M49.992 73.4551C50.0851 73.4551 50.0851 73.4551 50.0851 73.4551C50.0851 73.362 49.992 73.2688 49.8057 73.2688C49.8057 73.2688 49.8988 73.362 49.992 73.4551Z" fill="#3CAA2C"/>
<path d="M46.5449 69.9149C46.5449 70.1944 46.5449 70.6602 47.0107 70.8465C47.0107 70.7534 47.0107 70.7534 47.1039 70.6602C47.1039 70.4739 47.1039 70.2876 47.0107 70.1012C47.0107 70.1012 47.0107 70.1012 47.1039 70.1012C47.0107 70.1012 47.0107 70.1012 46.5449 69.9149Z" fill="#3CAA2C"/>
<path d="M125.826 81.3738C126.012 81.3738 126.012 81.3738 126.105 81.467C126.478 81.0012 126.385 80.8148 125.826 80.8148C125.919 80.8148 125.919 80.8149 126.012 80.7217C126.012 80.6285 126.012 80.6285 125.919 80.6285C126.105 80.5354 126.478 80.1627 126.105 80.1627C126.012 80.1627 125.919 80.1627 125.826 80.1627C125.733 80.4422 125.733 80.5354 126.012 80.5354C125.919 80.5354 125.826 80.5354 125.733 80.6285V80.7217C125.546 80.7217 125.36 80.7217 125.174 80.7217C124.801 81.0943 124.522 81.5601 124.801 81.8396C124.894 81.9328 125.174 82.1191 126.105 81.8396C126.105 81.7465 126.105 81.6533 126.105 81.6533C126.012 81.6533 125.733 81.5601 125.639 81.2807C125.826 81.467 125.826 81.467 125.826 81.3738Z" fill="#3CAA2C"/>
<path d="M133.465 67.4927C133.185 68.4243 132.999 69.4491 132.626 70.4738C132.067 70.3807 131.136 71.0328 130.39 72.0576C130.39 71.4986 129.645 71.9644 128.62 72.5234C127.502 73.1755 127.223 73.0824 126.664 72.8029C126.385 72.7097 126.105 72.5234 125.732 72.7097C125.639 72.7097 125.453 72.8029 125.267 72.896C125.732 73.8277 126.198 74.1071 126.291 74.2003C126.478 74.2935 126.664 74.3866 126.757 74.3866C126.85 74.3866 126.85 74.3866 126.944 74.3866C127.223 74.2935 127.409 74.014 127.689 73.9208C128.434 73.7345 129.086 73.9208 129.832 73.7345C130.018 73.2687 130.018 73.2687 130.856 72.896C131.229 72.8029 131.415 72.4302 131.695 72.2439C131.788 72.2439 131.881 72.2439 131.881 72.1508C131.881 72.1508 133.651 71.4986 134.21 70.9396C134.583 70.6602 134.117 70.2875 134.21 69.9149C134.396 69.9149 134.862 69.9149 134.676 69.2627C134.396 69.4491 134.396 69.7285 134.117 69.9149C134.955 67.7721 134.676 66.9337 133.465 67.4927Z" fill="#3CAA2C"/>
<path d="M122.379 80.3491C122.565 80.3491 122.752 80.1627 123.031 80.2559C123.031 80.2559 123.217 79.8832 123.124 79.8832C123.311 79.8832 123.404 79.7901 123.59 79.7901C123.683 79.7901 123.683 79.8832 124.242 79.7901C124.242 79.6969 124.335 79.6969 124.335 79.6038C124.335 79.6969 124.335 79.7901 124.428 79.7901C124.242 79.8832 124.149 79.8832 123.963 79.9764C123.963 80.2559 123.963 80.3491 124.056 80.5354C123.963 80.5354 123.776 80.5354 123.59 80.6285C123.59 80.2559 123.59 80.1627 123.404 80.2559C123.404 80.2559 123.217 80.4422 123.217 80.5354C123.217 80.6285 123.311 80.6285 123.311 80.7217C123.311 80.7217 123.311 80.8149 123.311 80.908C123.217 81.2807 123.217 81.3738 123.217 81.3738C123.311 81.3738 123.311 81.3738 123.497 81.0012C123.59 81.0012 123.683 81.0012 124.149 80.8149C124.242 80.908 124.335 81.0012 124.335 81.0012L124.428 80.908C124.615 80.7217 124.615 80.6285 124.615 80.6285C124.615 80.6285 124.615 80.7217 124.615 80.8149C124.708 80.7217 124.708 80.7217 124.801 80.5354C124.801 80.7217 124.801 80.8149 124.987 80.908C125.174 80.7217 125.267 80.6285 125.36 80.4422C125.267 80.3491 125.174 80.2559 124.987 80.1627C124.987 80.1627 124.987 80.1627 124.987 80.0696C125.081 79.9764 124.894 79.7901 124.894 79.7901C125.081 79.4174 124.801 79.4174 124.801 79.4174C124.708 79.5106 124.708 79.6038 124.615 79.6969H124.522C124.522 79.5106 124.615 79.0448 124.335 79.3243L124.242 79.4174C124.149 79.4174 124.056 79.4174 123.683 79.6038C123.869 79.2311 124.056 78.9516 123.683 79.0448C123.311 79.138 123.031 79.3243 122.658 79.5106C122.752 79.4174 122.752 79.3243 122.845 79.3243C123.031 79.138 123.124 79.0448 123.124 79.0448C123.124 79.0448 123.031 79.0448 123.031 79.138C123.031 79.138 123.031 79.0448 122.938 79.138L122.752 79.3243V79.4174C122.565 79.6969 122.472 79.7901 122.472 79.8832C122.379 80.1627 122.472 80.1627 122.658 80.2559C122.658 80.0696 122.472 80.1627 122.379 80.3491C122.379 80.2559 122.379 80.2559 122.379 80.3491Z" fill="#3CAA2C"/>
<path d="M179.486 32.6502C181.815 35.5382 184.61 43.2706 184.703 45.1339C184.517 45.3202 184.331 45.5065 184.144 45.6928C183.958 45.5997 183.678 45.5065 183.585 45.4134C183.678 44.3886 183.678 44.1091 182.84 41.78C182.654 41.8732 182.374 42.0595 182.281 42.1527C182.002 42.0595 181.722 41.8732 181.536 41.6869C182.747 39.7305 179.207 32.557 175.76 28.5511C170.263 22.9614 164.021 18.117 157.22 14.111L156.196 13.552C152.842 11.782 150.699 10.7572 148.65 10.4777C150.233 11.9683 152.842 12.1546 153.494 14.5768C156.941 14.67 161.692 18.5828 161.692 18.6759C162.81 19.6076 163.462 20.7255 164.114 21.9366C163.928 21.7503 163.835 21.7503 163.835 21.7503C163.835 21.7503 163.928 21.8434 164.021 21.9366C164.114 21.9366 164.114 22.0298 164.114 22.0298C164.673 23.1477 165.232 24.1725 166.164 25.1041C161.04 22.3092 157.5 17.6512 152.749 14.3905C150.513 12.8067 150.513 12.8067 133.93 5.91277C133.837 6.00593 133.557 5.81961 133.464 5.72645C131.974 5.16748 130.763 4.88799 129.179 4.60851C129.645 4.60851 129.924 4.60851 131.228 4.88799C128.154 4.1427 128.154 4.1427 123.869 3.3974C124.148 3.3974 124.614 3.3974 124.893 3.3974C124.428 3.21108 123.775 2.83843 123.31 2.74527C120.328 2.37262 117.254 2.1863 114.18 2.09314C111.012 1.99998 107.938 2.1863 104.864 2.37262C101.789 2.65211 98.0628 3.02476 81.3868 7.68284C79.8031 8.33498 78.1262 8.98711 76.6356 9.63924C76.4492 9.7324 76.1698 9.82557 75.9834 9.91873C70.4869 12.4341 65.363 15.5084 60.5186 18.9554C61.5434 18.2101 61.8228 18.117 62.2886 17.8375C61.8228 18.7691 56.8853 22.3092 56.7921 22.3092C56.8853 22.0298 56.8853 22.0298 57.8169 21.1913C57.7237 21.1913 57.6306 21.2845 57.5374 21.2845C57.6306 21.1913 57.8169 21.005 57.91 20.9118C56.2331 22.2161 55.8605 22.5887 55.4878 22.9614C55.7673 22.8682 56.0468 22.6819 56.3263 22.4956C53.4383 27.0605 47.3828 29.0169 46.1717 34.9792C46.2648 34.7929 46.2648 34.7929 46.2648 34.7929C47.2896 35.5382 46.358 36.6562 46.2648 36.8425C46.358 36.9356 46.5443 37.122 46.6375 37.2151C46.6375 37.3083 46.6375 37.4946 46.6375 37.5878C47.2896 37.5878 47.2896 37.5878 48.7802 35.9109C48.687 36.004 48.5939 36.1903 48.5939 36.2835C48.7802 36.3767 48.9665 36.4698 49.0597 36.563C49.805 36.2835 49.9913 36.1903 50.2708 36.004C49.7118 36.3767 49.1528 36.7493 48.687 37.3083C52.5067 35.2587 52.5067 35.2587 53.0656 35.0724C54.6494 34.5134 54.6494 34.5134 55.3947 34.7929C55.3015 35.7245 54.9289 36.6562 54.6494 37.5878C54.7425 37.6809 54.8357 37.8673 54.9289 37.9604C60.5186 32.8365 60.5186 32.8365 61.8228 32.8365C62.0092 34.1408 60.7049 37.9604 58.9348 37.8673C58.8417 37.7741 58.7485 37.5878 58.6553 37.4946C58.7485 37.3083 58.7485 37.0288 58.8417 36.8425C58.7485 36.9356 58.5622 37.0288 58.3759 37.122C58.2827 37.0288 58.0964 36.9356 57.91 36.8425C57.8169 36.8425 57.5374 36.9356 57.4442 37.0288C56.6058 37.8673 56.8853 39.2647 56.14 40.1031C55.3947 40.9416 54.1836 40.8484 53.3451 41.5937C53.4383 41.5006 53.4383 41.3142 53.5314 41.1279C53.4383 41.0348 53.3451 40.8484 53.252 40.7553C52.0409 42.1527 51.3887 42.7117 51.0161 43.0843C51.0161 43.0843 51.0161 43.0843 51.1092 43.0843L51.0161 43.1775V43.0843C50.7366 43.2706 50.3639 43.5501 50.0845 43.7364C49.8981 43.6433 49.7118 43.6433 49.6186 43.5501C49.7118 43.457 49.8981 43.3638 49.9913 43.2706C49.9913 43.1775 49.8981 42.9911 49.8981 42.8048C48.9665 42.7117 47.7554 42.7117 47.1033 43.2706C46.1717 44.0159 46.2648 45.3202 45.5195 46.2518C46.2648 46.2518 46.7306 46.9971 47.4759 46.9039C49.0597 46.5313 49.805 44.3886 51.7614 44.8544C52.0409 44.9475 52.2272 45.786 52.4135 46.6245C52.693 47.6492 52.8793 47.7424 53.3451 48.0219C53.5314 47.9287 53.8109 47.8356 53.9041 47.8356C53.8109 47.9287 53.6246 48.115 53.5314 48.3014C53.6246 48.5809 53.6246 48.9535 53.6246 49.3261C49.5255 51.9347 54.5562 56.9654 58.5622 57.8039C61.1707 58.3628 62.6613 57.8039 64.1519 57.2449C64.0587 57.3381 63.8724 57.5244 63.7792 57.6175C64.4314 57.7107 66.2014 57.8039 67.692 55.4748C67.4125 55.3817 67.1331 55.2885 66.8536 55.2885C66.9467 55.1022 67.1331 54.7295 67.1331 54.45C67.4125 54.5432 67.7852 54.45 68.0647 54.45C68.3442 54.6364 68.81 54.9159 70.1142 54.6364C69.7416 54.2637 69.7416 54.2637 67.9715 54.0774C71.9775 49.4193 73.9339 57.4312 74.1202 58.7355C74.3997 60.8782 71.3253 61.2509 71.5117 63.3936C71.0459 63.8594 71.0459 63.8594 70.58 64.5115V64.6047C70.3937 64.8842 70.2074 65.1637 70.0211 65.4431C69.9279 65.4431 69.9279 65.4431 69.9279 65.4431C69.9279 65.2568 70.0211 65.0705 70.0211 64.8842C69.9279 64.791 69.8348 64.6047 69.7416 64.5115C69.3689 64.6047 68.1578 64.9773 68.6237 67.4927C74.027 67.679 73.4681 69.0764 72.6296 70.0081C72.1638 70.4739 70.7664 70.7534 69.4621 70.9397C70.58 71.8713 70.58 72.0576 70.58 72.5234C71.7911 72.4303 71.7911 72.4303 72.257 72.3371C72.1638 72.5234 72.0706 72.8029 71.9775 72.9892C71.0459 73.1756 70.0211 72.9892 69.0895 73.455C67.8784 72.1508 65.1767 72.1508 65.4562 69.6354C60.7981 69.8217 57.4442 73.3619 53.0656 74.3867C52.9725 74.1072 52.8793 73.7345 52.7861 73.5482C52.7861 73.5482 52.7861 73.5482 52.693 73.5482C52.5067 73.6414 52.3203 73.6414 52.2272 73.7345C52.5067 74.014 52.7861 74.3867 53.1588 74.6662C53.9973 74.9456 54.8357 75.0388 55.581 75.5046C55.581 75.7841 55.6742 76.0636 55.6742 76.2499C56.9784 75.8773 56.9784 75.8773 57.6306 75.9704C57.7237 76.2499 57.91 76.6226 58.0032 76.902C61.357 76.9952 63.2203 72.8029 66.9467 74.014C67.4125 74.2003 67.4125 74.2003 65.5493 79.4174C66.7604 80.7217 67.7852 80.6285 68.1578 80.6285C68.251 82.2123 68.9963 82.3054 69.5553 82.3054C69.0895 82.9575 68.9031 83.7028 68.4373 84.355C70.3006 83.6097 71.4185 81.8396 73.0954 80.908C73.1886 81.1875 73.3749 81.5601 73.4681 81.8396C73.9339 81.9328 73.9339 81.9328 74.9587 81.6533C73.8407 83.8892 70.0211 85.0071 71.5117 88.2678C72.4433 87.9883 73.2817 87.243 73.5612 86.8703C73.5612 87.1498 73.5612 87.6156 73.4681 87.8951C75.5176 87.9883 76.5424 86.7772 76.4492 84.355C83.809 77.1815 83.809 77.1815 84.7406 74.9456C84.6475 74.7593 84.5543 74.573 84.4612 74.3867C83.7159 74.2935 83.7159 74.2935 82.6911 74.7593C83.5295 73.5482 84.5543 73.7345 84.8338 73.8277C88.0945 69.9149 88.0945 69.9149 91.262 67.12C92.7525 65.8158 94.15 67.3064 94.2431 67.3064C95.3611 69.9149 98.8081 65.6295 98.8081 65.5363C98.3423 65.1636 98.3423 65.1637 97.4106 64.6978C97.6901 64.6047 98.0628 64.5115 98.2491 64.3252C98.1559 64.232 98.0628 64.0457 98.0628 63.8594C97.6901 63.8594 97.6901 63.8594 97.6901 63.8594C98.6217 63.6731 99.6465 64.232 100.392 63.3004C100.299 62.9278 100.205 62.462 100.019 62.1825C100.764 62.0893 100.858 62.0893 106.168 64.3252C105.982 62.9278 105.982 62.9278 105.982 62.8346C106.54 62.6483 107.099 62.462 108.683 63.6731C109.522 64.232 110.453 64.6047 111.199 65.35C112.037 66.0953 111.571 67.3064 112.317 68.1448C113.248 69.0764 114.832 68.797 115.577 70.0081C115.67 70.0081 115.764 70.0081 115.857 70.1012C116.416 69.6354 116.509 69.6354 116.509 68.6106C116.602 68.6106 116.788 68.6106 116.975 68.6106C116.975 68.4243 116.975 68.238 116.975 68.1448C117.254 68.0517 117.627 67.9585 117.906 67.8653C117.999 67.9585 118.186 68.4243 118.186 68.5175H118.372C118.652 68.3312 119.024 68.0517 119.304 67.7722C121.353 68.9833 121.54 66.2816 121.54 66.1884C121.54 66.0021 121.446 65.8158 121.353 65.7226C121.446 65.6295 121.633 65.4431 121.726 65.2568C123.496 65.6295 123.496 65.6295 123.962 65.4431C123.403 64.6047 123.403 64.6047 123.31 63.1141C123.496 63.1141 123.682 63.1141 123.869 63.1141C124.148 63.7662 124.148 63.7662 125.173 64.0457C125.173 64.232 125.266 64.4184 125.359 64.5115C125.266 64.232 125.359 63.7662 125.545 63.4867C125.639 63.5799 125.825 63.7662 125.918 63.8594C125.825 63.2073 125.452 62.5551 125.452 61.903C125.732 62.0893 126.198 62.2756 126.477 62.462C126.85 63.6731 126.011 64.6978 126.011 65.8158C126.663 64.6978 127.129 63.8594 127.409 63.1141C127.222 64.0457 127.036 65.1636 126.85 66.4679C127.036 66.9337 127.036 66.9337 127.036 66.9337C127.129 67.12 127.222 67.3064 127.222 67.4927C131.415 64.6047 131.228 61.4372 130.949 60.2261C131.135 60.3192 131.415 60.3192 131.601 60.4124C132.346 62.462 133.278 64.3252 133.93 66.3748C134.023 65.4431 133.744 64.4184 134.21 63.4867C135.234 63.8594 136.259 64.3252 137.377 65.0705C137.284 65.35 136.911 65.7226 136.632 65.8158C138.122 67.7722 140.358 66.0953 142.128 66.8406C142.128 67.0269 142.128 67.2132 142.221 67.3995C141.942 67.679 141.569 67.9585 141.29 68.0517C141.197 67.9585 141.01 67.7722 140.917 67.679C140.451 67.9585 139.706 68.5175 140.172 69.8217C140.358 69.9149 140.545 69.9149 140.731 70.0081C143.06 67.3995 143.06 67.3995 143.712 66.6542C143.153 68.7038 145.389 68.1448 145.389 68.1448C145.855 67.9585 146.321 67.4927 146.6 67.2132C146.6 68.238 147.438 68.8901 147.811 69.7286C147.997 69.1696 147.997 68.5175 148.184 67.9585C148.37 67.9585 148.556 68.0517 148.743 68.0517C149.488 70.7534 146.507 71.7781 146.227 74.014C144.923 67.7722 144.923 67.7722 142.967 69.7286C142.035 70.7534 142.128 71.5918 142.687 75.5978C142.501 75.6909 142.315 75.8773 142.221 76.0636C142.221 76.7157 142.221 76.7157 142.594 77.7405C142.408 77.7405 142.128 77.7405 141.942 77.7405C141.849 77.6473 141.756 77.461 141.662 77.3678C141.569 77.5542 141.476 77.7405 141.383 77.9268C141.476 78.2063 141.849 78.5789 142.128 78.7653C141.942 78.7653 141.756 78.8584 141.569 78.8584C141.849 79.1379 142.315 79.3242 142.687 79.3242C142.501 79.4174 142.315 79.5106 142.221 79.5106C142.501 79.6037 142.967 79.79 143.339 79.8832C142.967 79.9764 142.408 79.9764 142.035 79.9764C141.942 80.1627 141.942 80.349 141.849 80.5353C142.594 81.0012 142.78 81.0943 143.898 80.6285C143.898 80.8148 143.898 81.0012 143.898 81.1875C144.085 81.1875 144.271 81.1875 144.457 81.1875C144.55 81.467 144.923 81.8396 145.203 82.0259C144.923 82.2123 144.55 82.4917 144.271 82.6781C144.55 82.7712 144.923 82.8644 145.296 82.8644C145.482 83.1439 145.668 83.5165 145.855 83.796C145.948 83.7028 146.041 83.5165 146.134 83.3302C146.321 83.4234 146.507 83.5165 146.6 83.6097C146.6 83.796 146.507 83.9823 146.414 84.1686C146.227 84.1686 146.041 84.1686 145.855 84.1686C146.786 84.4481 147.439 85.1934 148.37 85.4729C148.277 85.1003 148.091 84.7276 147.904 84.355C147.997 84.1687 148.091 83.9823 148.184 83.8892C148.556 84.1687 148.556 84.1686 149.954 84.6345C151.258 85.1934 156.196 87.802 156.475 88.0814C157.127 88.8267 157.22 89.0131 157.779 89.7584C158.245 90.4105 158.245 90.4105 162.251 90.2242C162.251 90.0378 162.344 89.8515 162.344 89.6652C162.531 89.6652 162.717 89.7584 162.81 89.7584C163.742 88.8267 165.419 87.243 161.599 85.4729C165.139 82.7712 165.885 82.3054 167.375 83.5165C167.282 83.6097 167.096 83.796 167.002 83.8892C167.096 83.9823 167.189 84.1687 167.282 84.355C167.561 84.1687 167.841 83.8892 168.027 83.6097C168.214 83.7028 168.4 83.796 168.586 83.796C168.679 83.9823 168.679 84.1687 168.773 84.2618C169.238 83.1439 169.052 83.1439 167.002 82.6781C168.4 81.3738 166.444 79.0448 164.021 79.0448C162.531 79.0448 161.133 78.4858 159.736 78.2995C158.618 79.9764 157.314 82.1191 152.469 78.3926C151.631 79.2311 151.631 79.2311 150.792 79.1379C150.606 78.6721 150.233 77.7405 150.979 76.5294C154.332 77.7405 154.332 77.7405 158.338 76.0636C158.245 74.1072 155.73 73.0824 156.103 70.9397C156.196 70.9397 156.196 70.9397 156.289 70.9397C156.289 70.567 156.289 70.0081 156.475 69.6354C156.662 69.6354 156.848 69.7286 157.034 69.7286C158.432 73.1756 158.432 73.1756 159.084 73.5482C160.574 74.2935 161.226 72.4303 162.531 72.4303C162.903 73.1756 162.438 73.8277 162.531 74.573C162.903 74.7593 163.742 75.132 167.282 74.2935C167.561 74.4798 167.841 74.8525 167.934 75.2251L169.518 81.6533C169.332 81.6533 169.145 81.5601 168.959 81.467C170.636 84.6345 169.145 85.4729 168.586 85.8456C168.866 85.6592 169.052 85.1934 169.052 84.9139C168.773 84.8208 168.307 84.6345 168.027 84.6345C167.934 84.7276 167.841 84.9139 167.748 85.1003C167.841 85.2866 167.934 85.4729 167.934 85.5661C167.655 85.2866 167.282 84.9139 166.909 84.7276C165.512 85.1934 165.512 85.1934 164.58 85.1934C165.139 86.2182 165.326 86.4045 165.978 86.8703V86.9635C166.164 87.0567 166.444 87.1498 166.63 87.243C169.052 87.5225 169.984 87.0567 170.356 86.7772C170.543 86.8703 170.729 86.8703 170.822 86.9635C170.263 87.9883 169.984 88.3609 173.058 92.3669C175.387 95.3481 176.412 97.025 175.853 99.7267C175.946 99.8198 176.039 100.006 176.132 100.192C176.505 100.192 176.971 100.006 177.25 99.913C177.157 103.546 177.157 103.546 177.25 104.385C178.555 101.31 181.908 97.5839 183.213 101.776C183.865 103.733 182.933 105.782 182.374 107.273C181.349 109.788 180.418 113.98 185.728 114.167C186.194 114.446 186.194 114.446 187.498 115.005C187.498 110.533 191.504 106.807 190.107 101.963C189.082 98.1429 184.61 96.2797 184.517 91.9942C184.517 91.5284 184.517 91.5284 184.517 91.5284C184.89 78.5789 184.983 75.132 188.243 74.6662C188.895 75.6909 189.082 76.9952 189.548 78.1131C190.386 77.3678 190.013 76.3431 188.616 73.0824C188.057 72.9892 187.684 72.8961 186.473 74.014C186.194 73.0824 186.194 72.0576 186.007 71.126C184.144 74.1072 186.194 78.5789 182.56 80.908C181.722 80.2559 181.722 79.9764 181.256 77.6473C181.443 77.3678 181.815 77.1815 182.095 76.9952L186.007 65.5363C186.194 65.5363 186.473 65.6295 186.566 65.6295C186.939 64.8842 187.219 64.232 186.66 62.1825C186.473 62.462 186.194 62.8346 186.007 63.2073C185.914 63.0209 185.821 62.7414 185.728 62.6483C185.542 62.5551 185.355 62.5551 185.169 62.462C185.169 62.2756 185.076 62.0893 185.076 61.903C184.89 61.9962 184.703 62.0893 184.61 62.1825C184.61 61.8098 184.61 61.344 184.61 61.0645C183.865 62.1825 184.051 63.4867 183.585 64.6047C183.399 64.6047 183.213 64.5115 183.026 64.5115C183.213 64.232 183.399 63.6731 183.492 63.3004C183.213 63.1141 182.933 62.8346 182.747 62.462C182.654 62.6483 182.654 62.9278 182.56 63.2073C181.163 62.7414 180.697 59.4808 181.349 59.015C182.56 58.0834 182.56 58.0834 182.467 57.5244C182.747 57.3381 183.119 56.9654 183.399 56.6859C182.002 50.8167 177.809 45.8792 177.809 45.786C175.573 43.2706 177.064 42.7117 178.648 42.7117C182.933 43.0843 186.38 50.5373 188.057 54.9159C195.789 75.2251 196.069 76.0636 193.647 82.3054C192.808 82.9575 192.249 81.7464 191.504 81.5601C190.479 81.2806 190.572 82.3986 190.759 84.355C190.945 86.5909 191.783 102.801 191.411 104.944C191.131 106.807 190.2 108.577 190.013 110.533C189.92 111.279 189.92 111.279 190.293 114.912C190.572 118.359 190.572 118.359 191.97 119.384C191.97 119.384 191.318 125.719 188.989 133.731C189.361 133.358 189.92 132.892 190.2 132.52C196.907 120.874 200.82 106.807 201.1 91.9011C201.379 69.3559 193.274 48.5809 179.486 32.6502ZM127.595 61.1577C127.595 60.785 127.502 60.4124 127.316 59.9466C126.943 59.8534 126.477 59.8534 126.104 59.7603C126.011 59.6671 126.011 59.6671 125.918 57.1517C125.732 56.8723 125.732 56.8723 125.732 56.8723C126.198 57.3381 126.198 57.3381 126.384 59.4808C126.663 59.5739 127.129 59.6671 127.409 59.5739C129.086 56.4996 129.086 56.4996 130.669 57.1517C130.11 57.1517 128.713 57.3381 127.595 61.1577ZM160.202 37.7741C160.574 37.9604 160.947 38.2399 160.761 38.6125C160.481 39.2647 159.643 39.451 159.363 40.1031C159.27 39.8237 159.177 39.6373 158.991 39.451C157.593 38.5194 155.823 39.3578 154.519 38.1467C152.935 36.8425 153.308 36.2835 153.68 35.9109C154.053 35.3519 154.053 35.2587 153.774 34.7929C155.73 35.8177 155.73 35.8177 155.916 35.8177C156.009 35.6314 156.009 35.3519 156.009 35.1656C156.289 35.3519 156.662 35.5382 156.941 35.445C157.034 35.0724 157.034 34.6066 156.009 32.557C155.73 31.9981 155.264 30.9733 155.078 29.4827C154.985 27.9921 155.264 26.8742 155.73 24.7314C156.941 25.6631 158.618 25.9426 159.55 27.1537C159.55 27.2468 159.55 27.2468 159.829 27.5263C160.388 28.1784 161.599 29.5759 161.599 30.4143C161.599 31.8117 160.295 31.9049 159.736 31.7186C159.55 31.6254 159.27 31.4391 159.084 31.2528C159.27 33.4887 163.183 36.9356 160.202 37.7741ZM169.797 53.2389L169.611 53.1458C169.611 53.2389 169.704 53.2389 169.797 53.2389C169.611 53.2389 169.238 53.0526 169.238 53.0526C169.238 53.0526 169.238 53.0526 169.332 53.0526C167.841 52.4005 166.071 50.9099 165.512 49.4193C165.605 49.4193 165.698 49.4193 165.698 49.5125C166.257 49.6988 166.723 50.0714 167.096 50.7236C167.375 50.2578 166.816 49.792 167.002 49.3261C167.375 50.0714 167.934 49.6988 168.307 49.5125C169.425 51.0962 170.543 53.0526 169.797 53.2389ZM177.809 55.1022C178.461 56.4996 178.089 57.9902 178.275 59.4808C177.157 58.7355 176.971 58.7355 175.201 59.015C173.617 59.2945 172.965 58.7355 172.685 58.5492V58.6423V58.8287V58.456C171.661 57.6175 171.381 56.4064 170.822 54.3569C172.22 54.8227 172.22 54.8227 172.406 54.7295C172.499 54.3569 172.22 53.2389 170.543 51.562C167.841 48.8603 166.816 42.1527 168.027 42.0595C168.027 42.0595 169.797 42.0595 171.195 44.5749C172.406 46.6245 172.965 49.0467 174.176 51.0962C175.201 52.5868 177.064 53.4253 177.809 55.1022Z" fill="#3CAA2C"/>
<path d="M98.3433 70.4739C98.4365 70.8466 99.2749 71.2192 99.2749 71.2192C99.7407 71.4056 99.9271 71.3124 100.113 71.1261C100.3 70.9398 100.393 70.7534 100.486 70.3808C100.486 70.4739 100.3 70.3808 99.8339 70.1945C99.4613 70.0081 98.0638 69.356 98.3433 70.4739Z" fill="#3CAA2C"/>
<path d="M51.6684 27.1537L51.5752 27.2468C51.6684 27.2468 51.6684 27.2468 51.6684 27.1537Z" fill="#3CAA2C"/>
<path d="M43.1916 36.563C43.0984 36.6562 43.0053 36.7493 42.9121 36.8425C43.0053 36.8425 43.0984 36.6562 43.1916 36.563Z" fill="#3CAA2C"/>
<path d="M43.1912 37.2151C43.098 37.5877 42.9117 38.0535 43.0049 38.2399C43.098 38.333 43.1912 38.2399 43.2844 38.2399C43.2844 38.1467 43.3775 37.8672 43.7502 37.0287C44.216 36.0971 44.3091 35.8176 44.216 35.7245C44.1228 35.7245 44.0297 35.8176 43.8433 36.004C43.8433 36.004 43.8433 36.004 43.9365 35.9108C43.657 36.2835 43.657 36.2835 43.2844 36.5629C43.3775 36.4698 43.3775 36.6561 43.1912 37.2151Z" fill="#3CAA2C"/>
<path d="M41.887 37.3083C41.7939 37.3083 41.7939 37.3083 41.887 37.3083C41.7939 37.3083 41.7939 37.3083 41.887 37.1219C40.8623 38.4262 39.9306 39.7305 38.999 41.1279L39.0922 41.0347C40.3033 39.3578 41.6076 37.5878 41.887 37.3083Z" fill="#3CAA2C"/>
<path d="M59.5879 19.6076C59.8674 19.4212 60.0537 19.2349 60.3332 19.0486L59.5879 19.6076Z" fill="#3CAA2C"/>
<path fill-rule="evenodd" clip-rule="evenodd" d="M120.837 30.0413C120.402 29.8868 119.924 30.1142 119.77 30.5492C119.615 30.9842 119.843 31.462 120.278 31.6164C120.713 31.7708 121.19 31.5435 121.345 31.1085C121.499 30.6734 121.272 30.1957 120.837 30.0413ZM120.091 32.1415C119.366 31.8841 118.987 31.0879 119.245 30.3628C119.502 29.6377 120.298 29.2589 121.023 29.5162C121.748 29.7736 122.127 30.5698 121.87 31.2949C121.612 32.02 120.816 32.3988 120.091 32.1415ZM121.676 27.6785C119.936 27.0609 118.025 27.9706 117.407 29.7104C116.939 31.0277 118.168 35.8963 118.693 36.0793C119.208 36.2653 123.246 33.2468 123.708 31.9473C124.325 30.2076 123.415 28.2962 121.676 27.6785Z" fill="#FF4545"/>
<path fill-rule="evenodd" clip-rule="evenodd" d="M90.676 18.4615C90.2634 18.5567 90.0062 18.9683 90.1014 19.3809C90.1966 19.7935 90.6082 20.0507 91.0208 19.9555C91.4334 19.8603 91.6906 19.4487 91.5954 19.0361C91.5002 18.6235 91.0886 18.3663 90.676 18.4615ZM91.1357 20.4535C90.4483 20.6121 89.7622 20.1835 89.6034 19.4958C89.4447 18.8081 89.8736 18.1222 90.5611 17.9635C91.2486 17.8049 91.9347 18.2334 92.0934 18.9212C92.2521 19.6089 91.8232 20.2948 91.1357 20.4535ZM90.1588 16.2206C88.5087 16.6014 87.4797 18.248 87.8605 19.8981C88.1488 21.1475 91.5016 24.3058 91.9977 24.1884C92.4874 24.0783 94.1208 19.7514 93.8363 18.5189C93.4555 16.8688 91.8089 15.8397 90.1588 16.2206Z" fill="#FF4545"/>
<path d="M65.4584 54.5389L63.8517 53.1099L69.6271 46.8752L71.227 48.3054L65.4584 54.5389Z" fill="#F0F0F0"/>
<path d="M59.0931 63.4465C58.2628 64.347 56.7714 64.3454 55.7679 63.4565C54.7633 62.5609 54.6228 61.1104 55.4531 60.21L64.3741 50.5703C65.2045 49.6698 66.6959 49.6713 67.7005 50.5669C68.7052 51.4625 68.8457 52.913 68.0153 53.8135L59.0931 63.4465Z" fill="#F0F0F0"/>
<path d="M85.0197 47.9496C80.8893 52.4138 73.8767 52.7677 69.357 48.7443C64.8374 44.7208 64.5251 37.8398 68.6555 33.3757C72.7859 28.9115 79.7985 28.5576 84.3181 32.581C88.8378 36.6045 89.15 43.4855 85.0197 47.9496Z" fill="#F0F0F0"/>
<path d="M83.0324 33.9695L70.6332 47.3565C74.3754 50.6919 80.1883 50.3944 83.6055 46.6994C87.0363 43.002 86.7813 37.3037 83.0324 33.9695Z" fill="#2F6E24"/>
<path d="M70.0604 34.6264C66.6364 38.3226 66.8994 44.0264 70.6415 47.3618L83.0326 33.9694C79.2905 30.634 73.4832 30.9236 70.0604 34.6264Z" fill="#3A8A2B"/>
<path fill-rule="evenodd" clip-rule="evenodd" d="M77.5 37.875C77.1548 37.875 76.875 38.1548 76.875 38.5C76.875 38.8452 77.1548 39.125 77.5 39.125C77.8452 39.125 78.125 38.8452 78.125 38.5C78.125 38.1548 77.8452 37.875 77.5 37.875ZM77.5 39.5417C76.9248 39.5417 76.4583 39.0754 76.4583 38.5C76.4583 37.9246 76.9248 37.4583 77.5 37.4583C78.0752 37.4583 78.5417 37.9246 78.5417 38.5C78.5417 39.0754 78.0752 39.5417 77.5 39.5417ZM77.5 36C76.1194 36 75 37.1194 75 38.5C75 39.5454 77.0844 42.669 77.5 42.6667C77.9092 42.669 80 39.5313 80 38.5C80 37.1194 78.8806 36 77.5 36Z" fill="#FF4545"/>
<defs>
<linearGradient id="paint0_linear_276_4957" x1="12.0048" y1="0.368622" x2="12.0048" y2="24.1112" gradientUnits="userSpaceOnUse">
<stop stop-color="#FFF2D6"/>
<stop offset="0.0996365" stop-color="#FFEEBE"/>
<stop offset="0.3053" stop-color="#FFE692"/>
<stop offset="0.5039" stop-color="#FFE06F"/>
<stop offset="0.6906" stop-color="#FFDC56"/>
<stop offset="0.861" stop-color="#FFD947"/>
<stop offset="1" stop-color="#FFD842"/>
</linearGradient>
</defs>
</svg>
