<svg width="46" height="50" viewBox="0 0 46 50" fill="none" xmlns="http://www.w3.org/2000/svg">
<path d="M32.2835 18.1189C34.487 18.6528 36.1095 20.6612 36.2305 23.051L36.5695 30.3474C38.0951 30.4746 38.6278 31.8474 40.1292 31.9491V33.6016L39.2574 35.1778L35.3104 35.4829C33.7848 35.61 32.4288 34.4151 32.2593 32.8135L31.4844 25.517L32.2835 18.1189Z" fill="#EBA58E"/>
<path d="M31.7992 28.4661L31.4844 25.4916L32.2835 18.1189C34.487 18.6528 36.1095 20.6612 36.2305 23.051L36.4485 27.6526C36.0368 27.9068 35.5767 28.0594 35.0924 28.1865C34.0027 28.4407 32.8889 28.5424 31.7992 28.4661Z" fill="#DE7274"/>
<path d="M36.571 30.3219C35.1181 30.627 34.1495 32.1524 34.1495 32.1524C34.0768 29.9152 35.9898 29.6864 36.5468 29.9914L36.571 30.3219Z" fill="#E78882"/>
<path d="M32.285 18.1187L32.9146 18.2712C34.8518 18.7288 36.3289 20.4576 36.5468 22.5423L36.9827 26.5083C34.537 27.5506 31.1953 27.3473 31.1953 27.3473L32.285 18.1187Z" fill="#65B2FF"/>
<path d="M33.3505 27.2964C32.1155 27.3981 31.1953 27.3218 31.1953 27.3218L31.9944 20.6355C32.5514 21.3728 32.963 22.2372 33.2294 23.127C33.5926 24.4744 33.641 25.9235 33.3505 27.2964Z" fill="#4987E5"/>
<path d="M14.1953 18.1189C11.9917 18.6528 10.3693 20.6612 10.2482 23.051L9.90923 30.3474C8.38368 30.4746 7.85094 31.8474 6.34961 31.9491V33.6016L7.22135 35.1778L11.1684 35.4829C12.694 35.61 14.05 34.4151 14.2195 32.8135L14.9944 25.517L14.1953 18.1189Z" fill="#EBA58E"/>
<path d="M14.703 28.4661L15.0178 25.4916L14.2187 18.1189C12.0151 18.6528 10.3927 20.6612 10.2716 23.051L10.0537 27.6526C10.4654 27.9068 10.9255 28.0594 11.4098 28.1865C12.4752 28.4407 13.5891 28.5424 14.703 28.4661Z" fill="#DE7274"/>
<path d="M9.93359 30.3222C11.3865 30.6273 12.3551 32.1526 12.3551 32.1526C12.4277 29.9154 10.5148 29.6866 9.95781 29.9917L9.93359 30.3222Z" fill="#E78882"/>
<path d="M14.1958 18.1187L13.5662 18.2712C11.629 18.7288 10.1519 20.4576 9.93392 22.5423L9.49805 26.5083C11.9438 27.5506 15.2855 27.3473 15.2855 27.3473L14.1958 18.1187Z" fill="#65B2FF"/>
<path d="M13.1529 27.2966C14.3879 27.3983 15.3081 27.322 15.3081 27.322L14.509 20.6357C13.952 21.373 13.5404 22.2374 13.274 23.1272C12.8866 24.4746 12.8381 25.9238 13.1529 27.2966Z" fill="#4987E5"/>
<path d="M18.3105 41.5845L23.2262 44.2793L27.5849 41.915C24.5096 42.1946 21.3859 42.0929 18.3105 41.5845Z" fill="#35618E"/>
<path d="M30.8797 32.0002C31.0008 30.8308 31.3156 29.7121 31.7757 28.6444C32.5021 27.0173 33.1075 23.9665 32.26 18.1192L27.417 16.9497C26.6421 18.5768 25.0681 19.6954 23.2278 19.6954C21.3874 19.6954 19.8134 18.5768 19.0385 16.9497L14.1955 18.1192C13.348 23.9919 13.9776 27.0173 14.6798 28.6444C15.1399 29.7121 15.4789 30.8308 15.5758 32.0002L16.3991 40.5424L18.3121 41.5848C21.3874 42.0932 24.5112 42.1949 27.5865 41.8898L30.0564 40.5424L30.8797 32.0002Z" fill="#65B2FF"/>
<path d="M27.395 18.5256C26.9349 19.0594 26.3295 19.5933 25.5789 19.9747C24.8282 20.356 23.9807 20.5848 23.1089 20.5594C22.2372 20.534 21.3897 20.2798 20.6632 19.8984C19.9368 19.4916 19.3314 18.9577 18.8955 18.3984C19.2345 19.0086 19.8157 19.6442 20.5421 20.1272C21.2686 20.6103 22.1888 20.8899 23.1089 20.9153C24.0291 20.9408 24.9493 20.6611 25.6999 20.2035C26.4506 19.7459 27.0318 19.1357 27.395 18.5256Z" fill="#4987E5"/>
<path d="M30.1307 29.7625C29.3316 29.3811 28.3388 29.0506 27.2734 28.8218C26.2079 28.593 25.0213 28.4913 23.859 28.5168C22.6967 28.5422 21.5344 28.6947 20.4689 28.9744C19.4034 29.2286 18.4348 29.6099 17.6357 30.0167C19.3792 29.7371 21.607 29.432 23.859 29.3811C26.111 29.3557 28.363 29.5845 30.1307 29.7625Z" fill="#4987E5"/>
<path d="M28.5087 34.7961C27.7096 34.8978 26.7894 34.9486 25.8208 34.9486C24.8522 34.9486 23.8109 34.8723 22.7939 34.6944C21.7769 34.5164 20.7598 34.2622 19.8397 33.9571C18.9195 33.652 18.0477 33.2961 17.3213 32.9402C17.9993 33.3978 18.8226 33.8554 19.7428 34.2368C20.663 34.6181 21.7042 34.8978 22.7455 35.0757C23.7867 35.2537 24.8522 35.3045 25.845 35.2283C26.8136 35.1774 27.7338 34.9995 28.5087 34.7961Z" fill="#4987E5"/>
<path d="M29.4036 32.9656C28.3865 33.2961 27.0789 33.6266 25.7229 33.8045C24.3668 34.0079 23.0108 34.0079 21.9453 33.9825C22.9866 34.1859 24.3668 34.2622 25.7471 34.0588C27.1273 33.9062 28.4592 33.4486 29.4036 32.9656Z" fill="#4987E5"/>
<path d="M29.9861 37.6943C29.2355 38.0248 28.3395 38.3808 27.3709 38.6604C26.4023 38.9655 25.3611 39.1943 24.3198 39.3468C23.2786 39.4994 22.2131 39.5756 21.1961 39.5756C20.2032 39.5756 19.2589 39.4994 18.4355 39.3977C19.2346 39.6265 20.179 39.8045 21.1961 39.8807C22.2131 39.957 23.3028 39.9061 24.3682 39.7536C25.4337 39.6011 26.4992 39.3214 27.4678 38.9401C28.4364 38.6096 29.2839 38.152 29.9861 37.6943Z" fill="#4987E5"/>
<path d="M25.6277 38.5078C24.9013 38.6349 24.0053 38.7875 23.0609 38.8129C22.1408 38.8383 21.2206 38.762 20.4941 38.6858C21.1479 38.9909 22.1166 39.2197 23.0852 39.1688C24.0538 39.1434 24.9981 38.8637 25.6277 38.5078Z" fill="#4987E5"/>
<path d="M23.2517 19.6952C25.0921 19.6952 26.666 18.5766 27.4409 16.9495L26.6418 16.7461C26.206 16.6444 25.9154 16.2631 25.8912 15.8055L25.7216 11.9412H23.2517H20.7818L20.6123 15.8055C20.5881 16.2631 20.2733 16.6444 19.8616 16.7461L19.0625 16.9495C19.8132 18.5766 21.4114 19.6952 23.2517 19.6952Z" fill="#EBA58E"/>
<path d="M25.6973 11.9666H23.2516H20.7816L20.709 13.6445C21.2659 15.6021 22.5978 15.958 23.2274 15.958C23.8569 15.958 25.1888 15.6021 25.7457 13.6445L25.6973 11.9666Z" fill="#DE7274"/>
<path d="M23.252 44.2795V47.9404C28.7246 50.6353 36.3039 45.1947 41.0985 39.7287C42.0671 38.6356 42.1397 36.983 41.3164 35.7882C40.4931 34.5678 38.9675 34.1357 37.6841 34.7458C33.3496 36.8051 26.2304 41.7372 23.252 44.2795Z" fill="#35618E"/>
<path d="M37.3936 37.0343L41.607 38.941C41.4859 39.2207 41.3164 39.5003 41.0985 39.7545C36.3039 45.1951 28.7003 50.6611 23.252 47.9662V45.6019C26.2062 45.5764 32.5505 36.0682 37.3936 37.0343Z" fill="#1F3A70"/>
<path d="M20.9282 47.5847C18.4583 46.7203 16.061 46.0338 14.9955 45.7542C14.6807 45.6779 14.3659 45.8559 14.2449 46.161C14.148 46.4152 14.2207 46.7203 14.4144 46.8982L14.705 47.1779L15.044 49.0338C15.1408 49.5422 15.5767 49.9236 16.061 49.9236H20.7829C20.2502 48.805 20.9282 47.5847 20.9282 47.5847Z" fill="#DE7274"/>
<path d="M37.3948 37.0337C30.7115 37.8981 28.9438 45.0166 20.9286 47.5843C20.9286 47.5843 20.2506 48.7792 20.8075 49.9487C30.9052 49.9487 37.9276 44.864 41.6083 38.915L37.3948 37.0337Z" fill="#35618E"/>
<path d="M23.253 44.2795V47.9404C17.7804 50.6353 10.201 45.1947 5.40645 39.7287C4.43784 38.6356 4.3652 36.983 5.18851 35.7882C6.01183 34.5678 7.53738 34.1357 8.82078 34.7458C13.1553 36.8051 20.2503 41.7372 23.253 44.2795Z" fill="#35618E"/>
<path d="M9.11089 37.0343L4.89746 38.941C5.01854 39.2207 5.18804 39.5003 5.40598 39.7545C10.2006 45.1951 17.8041 50.6611 23.2525 47.9662V45.6019C20.274 45.5764 13.9297 36.0682 9.11089 37.0343Z" fill="#1F3A70"/>
<path d="M32.6003 47.229C32.6245 46.8985 32.576 46.4155 32.455 45.9833C32.3097 45.4748 31.8012 45.1952 31.3169 45.3477L25.5295 47.1273C25.0209 46.8477 24.4882 46.568 23.9797 46.2884C23.0595 46.7968 22.0667 47.2545 20.9286 47.6358C20.9286 47.6358 20.2506 48.8307 20.8075 50.0002C25.3599 49.9493 29.307 48.907 32.6003 47.229Z" fill="#1F3A70"/>
<path d="M32.2381 46.1868C32.117 45.8818 31.8022 45.7038 31.4874 45.7801C30.4461 46.0597 28.0246 46.7207 25.5547 47.6105C25.5547 47.6105 26.2327 48.8054 25.6758 49.9749H30.3977C30.9062 49.9749 31.3421 49.5935 31.4147 49.0851L31.7537 47.2292L32.0443 46.9495C32.2623 46.7461 32.3349 46.4411 32.2381 46.1868Z" fill="#EBA58E"/>
<path d="M25.5537 47.585C17.5385 45.0173 15.7708 37.8734 9.08745 37.0344L4.87402 38.9412C8.55472 44.8648 15.6013 49.9748 25.6748 49.9748C26.2317 48.8054 25.5537 47.585 25.5537 47.585Z" fill="#35618E"/>
<path d="M19.0904 9.577C18.8482 9.39904 18.5334 9.29735 18.2671 9.39904C17.928 9.55158 17.7585 9.98377 17.807 10.3651C17.8554 10.7465 18.0491 11.077 18.2428 11.4075C18.4366 11.6871 18.6303 11.9668 18.9209 12.1447C19.2114 12.3227 19.5747 12.3481 19.841 12.1447C20.1074 11.9414 20.18 11.56 20.1074 11.2295C19.9863 10.6448 19.502 9.9075 19.0904 9.577Z" fill="#E78882"/>
<path d="M18.0723 10.2128C18.1691 10.0348 18.3871 9.95855 18.5808 10.0348C18.7745 10.0857 18.8956 10.2636 19.0167 10.4162C19.1862 10.6704 19.3072 10.9755 19.3799 11.2806C19.4041 11.4077 19.4041 11.5602 19.283 11.6111C19.1862 11.6619 19.0651 11.5602 18.9924 11.4585C18.8471 11.2297 18.8471 10.9246 18.944 10.6704C18.8471 10.5179 18.7261 10.3399 18.5808 10.2382C18.4355 10.1365 18.2176 10.1111 18.0723 10.2128Z" fill="#DE7274"/>
<path d="M27.4195 9.57652C27.6617 9.39855 27.9765 9.29686 28.2429 9.39855C28.5819 9.55109 28.7514 9.98329 28.7029 10.3646C28.6545 10.746 28.4608 11.0765 28.2671 11.407C28.0733 11.6866 27.8796 11.9663 27.589 12.1443C27.2985 12.3222 26.9352 12.3476 26.6689 12.1443C26.4025 11.9409 26.3299 11.5595 26.4025 11.229C26.4994 10.6443 26.9837 9.90702 27.4195 9.57652Z" fill="#E78882"/>
<path d="M28.4121 10.2123C28.3152 10.0343 28.0973 9.95806 27.9035 10.0343C27.7098 10.0852 27.5888 10.2631 27.4677 10.4157C27.2982 10.6699 27.1771 10.975 27.1045 11.2801C27.0802 11.4072 27.0802 11.5597 27.2013 11.6106C27.2982 11.6614 27.4192 11.5597 27.4919 11.458C27.6372 11.2292 27.6372 10.9241 27.5403 10.6699C27.6372 10.5174 27.7583 10.3394 27.9035 10.2377C28.0488 10.136 28.2668 10.1106 28.4121 10.2123Z" fill="#DE7274"/>
<path d="M23.2533 2.89062C20.9044 2.89062 19.0398 5.00075 19.2336 7.4668L19.4515 10.3905C19.5484 11.7633 20.1295 13.0599 21.0497 14.0514L21.2192 14.2294C21.5582 14.5853 22.0425 14.7887 22.5268 14.7887H23.2291H23.9313C24.4156 14.7887 24.8999 14.5853 25.2389 14.2294L25.4084 14.0514C26.3528 13.0599 26.9098 11.7887 27.0066 10.3905L27.2245 7.4668C27.4425 5.00075 25.6021 2.89062 23.2533 2.89062Z" fill="#EBA58E"/>
<path d="M21.3176 6.90778C20.906 7.00948 20.567 7.28913 20.3975 7.67048L22.4557 7.23829C22.1409 6.95863 21.7293 6.83152 21.3176 6.90778Z" fill="#654059"/>
<path d="M22.2132 8.53452C21.9469 8.58537 21.6563 8.63621 21.3899 8.61079C21.1236 8.61079 20.8572 8.53452 20.5908 8.45825C20.6877 8.71248 21.0025 8.99214 21.3899 8.99214C21.7774 9.04299 22.0922 8.78875 22.2132 8.53452Z" fill="#422C4F"/>
<path d="M25.1449 6.9073C25.5566 7.00899 25.8956 7.28864 26.0651 7.66999L24.0068 7.2378C24.3216 6.95814 24.7333 6.83103 25.1449 6.9073Z" fill="#654059"/>
<path d="M24.2471 8.53477C24.5134 8.58561 24.804 8.63646 25.0704 8.61104C25.3367 8.61104 25.6031 8.53477 25.8695 8.4585C25.7726 8.71273 25.4578 8.99238 25.0704 8.99238C24.7072 9.04323 24.3681 8.789 24.2471 8.53477Z" fill="#422C4F"/>
<path d="M22.5273 11.0005C22.6484 11.3818 22.939 11.6615 23.2538 11.6615C23.5928 11.6615 23.8592 11.3818 23.9802 11.0005C23.7623 11.0513 23.5202 11.0768 23.2538 11.0768C22.9874 11.1022 22.7453 11.0513 22.5273 11.0005Z" fill="#E78882"/>
<path d="M24.6096 12.6017C23.8589 12.4238 22.6481 12.4238 21.8975 12.6017C22.6481 12.8051 23.8589 12.8051 24.6096 12.6017Z" fill="#DE7274"/>
<path d="M23.761 13.2123C23.4704 13.0852 23.0103 13.0852 22.7197 13.2123C23.0103 13.314 23.4704 13.314 23.761 13.2123Z" fill="#E78882"/>
<path d="M27.54 4.08542C27.5158 4.03458 27.4916 4.00916 27.4674 3.95831C27.5158 3.50069 27.5158 3.04308 27.4674 2.58546C27.4189 2.28038 27.3463 2.00073 27.1768 1.74649C27.0073 1.49226 26.7409 1.3143 26.4746 1.3143C26.184 1.3143 25.8934 1.56853 25.8934 1.87361C25.4575 1.33972 24.949 0.83126 24.4163 0.424489C24.1741 0.246527 23.932 0.0685647 23.6656 0.0177184C23.375 -0.033128 23.0602 0.0177184 22.8907 0.27195C22.7212 0.500759 22.7212 0.958376 22.9634 1.08549C22.358 0.75499 21.7042 0.424489 21.0262 0.373643C20.3481 0.322796 19.5733 0.678721 19.3311 1.36515C19.21 1.74649 19.2585 2.17869 19.428 2.53461C19.5248 2.71257 19.6459 2.89054 19.767 3.01765C19.4522 3.32273 19.21 3.67865 19.0163 4.06C18.5562 5.00066 18.4836 6.11928 18.6289 7.16163C18.7742 8.20398 19.1132 9.2209 19.4764 10.2124L19.4038 7.51755L19.8396 7.13621C19.9607 7.03451 20.0576 6.85655 20.0818 6.70401L20.2997 5.02608C20.2997 5.02608 21.8979 4.8227 23.3024 4.8227C24.7311 4.8227 26.3051 5.02608 26.3051 5.02608L26.523 6.70401C26.5472 6.88197 26.6198 7.03451 26.7651 7.13621L27.201 7.51755L27.0557 10.2378C27.4189 9.24633 27.758 8.2294 27.9032 7.18705C28.0485 6.1447 28.0001 5.02608 27.54 4.08542Z" fill="#654059"/>
<path d="M2.20979 32.8647C2.25822 33.0935 2.47616 33.2206 2.69409 33.1952C2.91203 33.1698 3.08153 33.0426 3.25104 32.9155C3.42055 32.7884 3.59005 32.6359 3.78377 32.5596C3.97749 32.4833 4.24386 32.5088 4.36493 32.6867C4.46179 32.8138 4.48601 32.9918 4.43758 33.1443C4.38915 33.2969 4.29229 33.424 4.17121 33.5511C3.75956 34.0087 3.15418 34.3138 2.5488 34.3392C2.59723 34.1104 2.62145 33.8816 2.57302 33.6528C2.5488 33.5257 2.52459 33.424 2.45194 33.3223C2.33087 33.1698 2.13715 33.1443 1.96764 33.2206C1.87078 33.6528 1.77392 34.085 1.65284 34.5172C1.62863 34.6697 1.5802 34.8223 1.65284 34.9494C1.72549 35.0765 1.895 35.1273 2.0645 35.1273C2.33087 35.1273 2.62145 35.1019 2.88781 35.0256C2.23401 35.585 1.5802 36.1951 0.926391 36.7544C0.756886 36.907 0.563165 37.1103 0.63581 37.3392C0.684241 37.4917 0.877961 37.568 1.02325 37.6188C1.48334 37.7713 1.99186 37.8476 2.47616 37.7968C4.00171 37.6442 5.21246 36.7544 6.399 35.89C6.68958 35.6866 6.98016 35.4578 7.1981 35.1782C7.41604 34.8985 7.58554 34.5426 7.58554 34.1867C7.58554 33.8308 7.36761 33.4494 7.02859 33.3223C7.02859 32.7884 6.73801 32.2545 6.32636 31.9494C5.9147 31.6444 5.4304 31.4918 4.9461 31.4156C4.65552 31.3647 4.34072 31.3393 4.05014 31.3647C3.51741 31.3647 3.00889 31.6444 2.66988 32.0766C2.52459 32.3054 2.35508 32.585 2.20979 32.8647Z" fill="#EBA58E"/>
<path d="M6.52099 33.3734C6.2062 33.3988 5.84297 33.3988 5.50396 33.3225C5.16495 33.2462 4.85015 33.0937 4.55957 32.9412C4.65643 33.2462 4.99544 33.5767 5.43131 33.6784C5.86719 33.7801 6.30306 33.6276 6.52099 33.3734Z" fill="#E78882"/>
<path d="M44.2713 32.8647C44.2228 33.0935 44.0049 33.2206 43.787 33.1952C43.569 33.1698 43.3995 33.0426 43.23 32.9155C43.0605 32.7884 42.891 32.6359 42.6973 32.5596C42.5036 32.4833 42.2372 32.5088 42.1161 32.6867C42.0193 32.8138 41.995 32.9918 42.0435 33.1443C42.0919 33.2969 42.1888 33.424 42.3098 33.5511C42.7215 34.0087 43.3269 34.3138 43.9322 34.3392C43.8838 34.1104 43.8596 33.8816 43.908 33.6528C43.9323 33.5257 43.9565 33.424 44.0291 33.3223C44.1502 33.1698 44.3439 33.1443 44.5134 33.2206C44.6103 33.6528 44.7071 34.085 44.8282 34.5172C44.8524 34.6697 44.9009 34.8223 44.8282 34.9494C44.7556 35.0765 44.5861 35.1273 44.4165 35.1273C44.1502 35.1273 43.8596 35.1019 43.5932 35.0256C44.247 35.585 44.9009 36.1951 45.5547 36.7544C45.7242 36.907 45.9179 37.1103 45.8452 37.3392C45.7968 37.4917 45.6031 37.568 45.4578 37.6188C44.9977 37.7713 44.4892 37.8476 44.0049 37.7968C42.4793 37.6442 41.2686 36.7544 40.082 35.89C39.7915 35.6866 39.5009 35.4578 39.283 35.1782C39.065 34.8985 38.8955 34.5426 38.8955 34.1867C38.8955 33.8308 39.1134 33.4494 39.4525 33.3223C39.4525 32.7884 39.743 32.2545 40.1547 31.9494C40.5664 31.6444 41.0507 31.4918 41.535 31.4156C41.8255 31.3647 42.1403 31.3393 42.4309 31.3647C42.9636 31.3647 43.4722 31.6444 43.8112 32.0766C43.9807 32.3054 44.1502 32.585 44.2713 32.8647Z" fill="#EBA58E"/>
<path d="M39.9863 33.3729C40.3011 33.3983 40.6644 33.3983 41.0034 33.322C41.3424 33.2458 41.6572 33.0932 41.9478 32.9407C41.8509 33.2458 41.5119 33.5763 41.076 33.6779C40.6401 33.7796 40.18 33.6271 39.9863 33.3729Z" fill="#E78882"/>
</svg>
