<svg width="165" height="122" viewBox="0 0 165 122" fill="none" xmlns="http://www.w3.org/2000/svg">
<path d="M-41.9224 114.531C-41.9224 114.531 -13.7682 114.127 -2.07544 113.965C9.61732 113.804 10.8567 116.094 20.3941 116.255C29.9315 116.417 35.9665 116.175 39.8461 116.686C43.7527 117.198 51.8622 119.758 66.761 120.431C81.6598 121.105 118.435 122.668 145.135 120.431C171.834 118.195 153.595 116.255 165.314 115.663C177.034 115.07 188.888 116.363 191.933 115.609C194.977 114.854 234.151 114.531 234.151 114.531L235.579 112.16H-43.2695L-41.9224 114.531Z" fill="#F2C18B"/>
<path d="M23.6279 57.7639H14.6562V112.16H23.6279V57.7639Z" fill="#A0D9EA"/>
<path d="M29.204 84.1676H21.4717V112.942H29.204V84.1676Z" fill="#42C6EA"/>
<path d="M20.5587 85.0948H22.3369V84.1519H20.5587V85.0948Z" fill="#42C6EA"/>
<path d="M20.5587 88.1873H22.3369V87.2443H20.5587V88.1873Z" fill="#42C6EA"/>
<path d="M20.5587 91.2803H22.3369V90.3373H20.5587V91.2803Z" fill="#42C6EA"/>
<path d="M20.5587 94.3727H22.3369V93.4297H20.5587V94.3727Z" fill="#42C6EA"/>
<path d="M20.5587 97.4921H22.3369V96.5491H20.5587V97.4921Z" fill="#42C6EA"/>
<path d="M20.5587 100.585H22.3369V99.6417H20.5587V100.585Z" fill="#42C6EA"/>
<path d="M20.5587 103.677H22.3369V102.734H20.5587V103.677Z" fill="#42C6EA"/>
<path d="M158.069 78.8997H172.537V72.4605H158.069V78.8997Z" fill="#A4999C"/>
<path d="M169.626 76.8127H156.963V113.292H169.626V76.8127Z" fill="#56A0C1"/>
<path d="M169.625 76.8127H159.36V113.292H169.625V76.8127Z" fill="#13748E"/>
<path d="M174.448 74.4415H160.627V113.292H174.448V74.4415Z" fill="#68D1EA"/>
<path d="M156.962 78.2922H159.817V78.0767H156.962V78.2922Z" fill="#13748E"/>
<path d="M156.962 79.5275H159.817V79.3119H156.962V79.5275Z" fill="#13748E"/>
<path d="M156.962 80.736H159.817V80.5204H156.962V80.736Z" fill="#13748E"/>
<path d="M156.962 81.9712H159.817V81.7557H156.962V81.9712Z" fill="#13748E"/>
<path d="M156.962 83.179H159.817V82.9634H156.962V83.179Z" fill="#13748E"/>
<path d="M156.962 84.4139H159.817V84.1984H156.962V84.4139Z" fill="#13748E"/>
<path d="M156.962 85.6492H159.817V85.4336H156.962V85.6492Z" fill="#13748E"/>
<path d="M156.962 86.8574H159.817V86.6419H156.962V86.8574Z" fill="#13748E"/>
<path d="M156.962 88.0924H159.817V87.8769H156.962V88.0924Z" fill="#13748E"/>
<path d="M156.962 89.3007H159.817V89.0851H156.962V89.3007Z" fill="#13748E"/>
<path d="M156.962 90.5359H159.817V90.3203H156.962V90.5359Z" fill="#13748E"/>
<path d="M156.962 91.7441H159.817V91.5286H156.962V91.7441Z" fill="#13748E"/>
<path d="M156.962 92.9791H159.817V92.7636H156.962V92.9791Z" fill="#13748E"/>
<path d="M156.962 94.2141H159.817V93.9986H156.962V94.2141Z" fill="#13748E"/>
<path d="M156.962 95.4221H159.817V95.2066H156.962V95.4221Z" fill="#13748E"/>
<path d="M156.962 96.6573H159.817V96.4418H156.962V96.6573Z" fill="#13748E"/>
<path d="M156.962 97.8658H159.817V97.6503H156.962V97.8658Z" fill="#13748E"/>
<path d="M156.962 99.1008H159.817V98.8853H156.962V99.1008Z" fill="#13748E"/>
<path d="M156.962 100.309H159.817V100.093H156.962V100.309Z" fill="#13748E"/>
<path d="M156.962 101.544H159.817V101.329H156.962V101.544Z" fill="#13748E"/>
<path d="M156.962 102.779H159.817V102.564H156.962V102.779Z" fill="#13748E"/>
<path d="M156.962 103.987H159.817V103.772H156.962V103.987Z" fill="#13748E"/>
<path d="M156.962 105.223H159.817V105.007H156.962V105.223Z" fill="#13748E"/>
<path d="M156.962 106.431H159.817V106.215H156.962V106.431Z" fill="#13748E"/>
<path d="M156.962 107.666H159.817V107.45H156.962V107.666Z" fill="#13748E"/>
<path d="M156.962 108.901H159.817V108.685H156.962V108.901Z" fill="#13748E"/>
<path d="M156.962 110.109H159.817V109.893H156.962V110.109Z" fill="#13748E"/>
<path d="M156.962 111.344H159.817V111.129H156.962V111.344Z" fill="#13748E"/>
<path d="M156.962 112.553H159.817V112.337H156.962V112.553Z" fill="#13748E"/>
<path d="M20.3928 112.941V73.6059L5.87109 65.3616V112.941H20.3928Z" fill="#42C6EA"/>
<mask id="mask0_173_15593" style="mask-type:luminance" maskUnits="userSpaceOnUse" x="5" y="65" width="16" height="50">
<path d="M20.3918 114.8H5.87012V65.3616L20.3918 73.6059V114.8Z" fill="white"/>
</mask>
<g mask="url(#mask0_173_15593)">
<path d="M7.97105 64.6071H7.86328V112.941H7.97105V64.6071Z" fill="#A0D9EA"/>
<path d="M9.75035 64.6071H9.64258V112.941H9.75035V64.6071Z" fill="#A0D9EA"/>
<path d="M11.5541 64.6071H11.4463V112.941H11.5541V64.6071Z" fill="#A0D9EA"/>
<path d="M13.3314 64.6071H13.2236V112.941H13.3314V64.6071Z" fill="#A0D9EA"/>
<path d="M15.1371 64.6072H15.0293V112.941H15.1371V64.6072Z" fill="#A0D9EA"/>
<path d="M16.9173 64.6073H16.8096V112.941H16.9173V64.6073Z" fill="#A0D9EA"/>
<path d="M18.7211 64.6073H18.6133V112.941H18.7211V64.6073Z" fill="#A0D9EA"/>
<path d="M20.4177 112.295H5.86914V112.376H20.4177V112.295Z" fill="#A0D9EA"/>
<path d="M20.4177 109.897H5.86914V109.978H20.4177V109.897Z" fill="#A0D9EA"/>
<path d="M20.4177 107.499H5.86914V107.58H20.4177V107.499Z" fill="#A0D9EA"/>
<path d="M20.4177 105.101H5.86914V105.182H20.4177V105.101Z" fill="#A0D9EA"/>
<path d="M20.4177 102.676H5.86914V102.757H20.4177V102.676Z" fill="#A0D9EA"/>
<path d="M20.4177 100.279H5.86914V100.359H20.4177V100.279Z" fill="#A0D9EA"/>
<path d="M20.4177 97.8805H5.86914V97.9613H20.4177V97.8805Z" fill="#A0D9EA"/>
<path d="M20.4177 95.4829H5.86914V95.5637H20.4177V95.4829Z" fill="#A0D9EA"/>
<path d="M20.4177 93.058H5.86914V93.1388H20.4177V93.058Z" fill="#A0D9EA"/>
<path d="M20.4177 90.6603H5.86914V90.7411H20.4177V90.6603Z" fill="#A0D9EA"/>
<path d="M20.4177 88.2627H5.86914V88.3435H20.4177V88.2627Z" fill="#A0D9EA"/>
<path d="M20.4177 85.8644H5.86914V85.9452H20.4177V85.8644Z" fill="#A0D9EA"/>
<path d="M20.4177 83.4402H5.86914V83.521H20.4177V83.4402Z" fill="#A0D9EA"/>
<path d="M20.4177 81.042H5.86914V81.1228H20.4177V81.042Z" fill="#A0D9EA"/>
<path d="M20.4177 78.6439H5.86914V78.7247H20.4177V78.6439Z" fill="#A0D9EA"/>
<path d="M20.4177 76.2465H5.86914V76.3273H20.4177V76.2465Z" fill="#A0D9EA"/>
<path d="M20.4177 73.8212H5.86914V73.902H20.4177V73.8212Z" fill="#A0D9EA"/>
<path d="M20.4177 71.4235H5.86914V71.5043H20.4177V71.4235Z" fill="#A0D9EA"/>
<path d="M20.4177 69.0259H5.86914V69.1067H20.4177V69.0259Z" fill="#A0D9EA"/>
<path d="M20.4177 66.6277H5.86914V66.7085H20.4177V66.6277Z" fill="#A0D9EA"/>
</g>
<path d="M12.847 74.8448H4.22559V76.3536H12.847V74.8448Z" fill="#56A0C1"/>
<path d="M12.847 82.0387H4.22559V83.5474H12.847V82.0387Z" fill="#56A0C1"/>
<path d="M12.847 89.2589H4.22559V90.7677H12.847V89.2589Z" fill="#56A0C1"/>
<path d="M12.847 96.5063H4.22559V98.0151H12.847V96.5063Z" fill="#56A0C1"/>
<path d="M12.847 104.32H4.22559V105.829H12.847V104.32Z" fill="#56A0C1"/>
<path d="M48.4404 51.5943L57.7084 44.8319V39.0393L48.4404 44.778V51.5943Z" fill="#42C6EA"/>
<path d="M46.4199 109.439H59.7292V43.1344L46.4199 49.9238V109.439Z" fill="#56A0C1"/>
<path d="M60.8343 48.5231L49.4648 53.9115L60.8343 92.0346V48.5231Z" fill="#42C6EA"/>
<path d="M45.7461 60.5658L60.8335 110.624H45.9077L45.7461 60.5658Z" fill="#42C6EA"/>
<path d="M137.322 46.9875H124.013V95.5373H137.322V46.9875Z" fill="#7AC3DD"/>
<path d="M123.339 53.3728L138.426 96.561H123.501L123.339 53.3728Z" fill="#42C6EA"/>
<path d="M44.1031 66.4937H28.6924V113.669H44.1031V66.4937Z" fill="#56A0C1"/>
<path d="M32.3703 67.2711H40.3721V58.7843H32.3703V67.2711Z" fill="#56A0C1"/>
<path d="M33.3535 113.669H39.4424V65.4426C39.4424 63.1256 38.0683 61.2396 36.398 61.2396C34.7006 61.2396 33.3535 63.1256 33.3535 65.4426V113.669Z" fill="#42C6EA"/>
<path d="M43.5349 67.9211H42.5381V70.4806H43.5349V67.9211Z" fill="#42C6EA"/>
<path d="M42.1873 67.9213H41.1904V70.4808H42.1873V67.9213Z" fill="#42C6EA"/>
<path d="M40.8689 67.9213H39.8721V70.4808H40.8689V67.9213Z" fill="#42C6EA"/>
<path d="M32.866 67.9213H31.8691V70.4808H32.866V67.9213Z" fill="#42C6EA"/>
<path d="M31.5437 67.9213H30.5469V70.4808H31.5437V67.9213Z" fill="#42C6EA"/>
<path d="M30.197 67.9213H29.2002V70.4808H30.197V67.9213Z" fill="#42C6EA"/>
<path d="M43.5349 70.9929H42.5381V73.5524H43.5349V70.9929Z" fill="#42C6EA"/>
<path d="M42.1873 70.9929H41.1904V73.5524H42.1873V70.9929Z" fill="#42C6EA"/>
<path d="M40.8689 70.9929H39.8721V73.5524H40.8689V70.9929Z" fill="#42C6EA"/>
<path d="M32.866 70.9932H31.8691V73.5527H32.866V70.9932Z" fill="#42C6EA"/>
<path d="M31.5437 70.9929H30.5469V73.5524H31.5437V70.9929Z" fill="#42C6EA"/>
<path d="M30.197 70.9929H29.2002V73.5524H30.197V70.9929Z" fill="#42C6EA"/>
<path d="M43.5349 74.0369H42.5381V76.5964H43.5349V74.0369Z" fill="#42C6EA"/>
<path d="M42.1873 74.0366H41.1904V76.5961H42.1873V74.0366Z" fill="#42C6EA"/>
<path d="M40.8689 74.0366H39.8721V76.5961H40.8689V74.0366Z" fill="#42C6EA"/>
<path d="M32.866 74.0366H31.8691V76.5961H32.866V74.0366Z" fill="#42C6EA"/>
<path d="M31.5437 74.0366H30.5469V76.5961H31.5437V74.0366Z" fill="#42C6EA"/>
<path d="M30.197 74.0367H29.2002V76.5962H30.197V74.0367Z" fill="#42C6EA"/>
<path d="M43.5349 77.1086H42.5381V79.6681H43.5349V77.1086Z" fill="#42C6EA"/>
<path d="M42.1873 77.1083H41.1904V79.6678H42.1873V77.1083Z" fill="#42C6EA"/>
<path d="M40.8689 77.1083H39.8721V79.6678H40.8689V77.1083Z" fill="#42C6EA"/>
<path d="M32.866 77.1083H31.8691V79.6678H32.866V77.1083Z" fill="#42C6EA"/>
<path d="M31.5437 77.1083H30.5469V79.6678H31.5437V77.1083Z" fill="#42C6EA"/>
<path d="M30.197 77.1082H29.2002V79.6677H30.197V77.1082Z" fill="#42C6EA"/>
<path d="M43.5349 80.1803H42.5381V82.7398H43.5349V80.1803Z" fill="#42C6EA"/>
<path d="M42.1873 80.1805H41.1904V82.74H42.1873V80.1805Z" fill="#42C6EA"/>
<path d="M40.8689 80.1805H39.8721V82.74H40.8689V80.1805Z" fill="#42C6EA"/>
<path d="M32.866 80.1807H31.8691V82.7402H32.866V80.1807Z" fill="#42C6EA"/>
<path d="M31.5437 80.1805H30.5469V82.74H31.5437V80.1805Z" fill="#42C6EA"/>
<path d="M30.197 80.1807H29.2002V82.7402H30.197V80.1807Z" fill="#42C6EA"/>
<path d="M43.5349 83.2524H42.5381V85.8119H43.5349V83.2524Z" fill="#42C6EA"/>
<path d="M42.1873 83.2524H41.1904V85.8119H42.1873V83.2524Z" fill="#42C6EA"/>
<path d="M40.8689 83.252H39.8721V85.8115H40.8689V83.252Z" fill="#42C6EA"/>
<path d="M32.866 83.2521H31.8691V85.8116H32.866V83.2521Z" fill="#42C6EA"/>
<path d="M31.5437 83.252H30.5469V85.8115H31.5437V83.252Z" fill="#42C6EA"/>
<path d="M30.197 83.2521H29.2002V85.8116H30.197V83.2521Z" fill="#42C6EA"/>
<path d="M43.5349 86.2961H42.5381V88.8556H43.5349V86.2961Z" fill="#42C6EA"/>
<path d="M42.1873 86.296H41.1904V88.8555H42.1873V86.296Z" fill="#42C6EA"/>
<path d="M40.8689 86.2959H39.8721V88.8554H40.8689V86.2959Z" fill="#42C6EA"/>
<path d="M32.866 86.2958H31.8691V88.8553H32.866V86.2958Z" fill="#42C6EA"/>
<path d="M31.5437 86.2958H30.5469V88.8553H31.5437V86.2958Z" fill="#42C6EA"/>
<path d="M30.197 86.2958H29.2002V88.8553H30.197V86.2958Z" fill="#42C6EA"/>
<path d="M43.5349 89.3665H42.5381V91.926H43.5349V89.3665Z" fill="#42C6EA"/>
<path d="M42.1873 89.3666H41.1904V91.9261H42.1873V89.3666Z" fill="#42C6EA"/>
<path d="M40.8689 89.3666H39.8721V91.9261H40.8689V89.3666Z" fill="#42C6EA"/>
<path d="M32.866 89.3666H31.8691V91.9261H32.866V89.3666Z" fill="#42C6EA"/>
<path d="M31.5437 89.3666H30.5469V91.9261H31.5437V89.3666Z" fill="#42C6EA"/>
<path d="M30.197 89.3668H29.2002V91.9263H30.197V89.3668Z" fill="#42C6EA"/>
<path d="M43.5349 92.4388H42.5381V94.9983H43.5349V92.4388Z" fill="#42C6EA"/>
<path d="M42.1873 92.4387H41.1904V94.9982H42.1873V92.4387Z" fill="#42C6EA"/>
<path d="M40.8689 92.4387H39.8721V94.9982H40.8689V92.4387Z" fill="#42C6EA"/>
<path d="M32.866 92.4387H31.8691V94.9982H32.866V92.4387Z" fill="#42C6EA"/>
<path d="M31.5437 92.4387H30.5469V94.9982H31.5437V92.4387Z" fill="#42C6EA"/>
<path d="M30.197 92.4387H29.2002V94.9982H30.197V92.4387Z" fill="#42C6EA"/>
<path d="M43.5349 95.51H42.5381V98.0695H43.5349V95.51Z" fill="#42C6EA"/>
<path d="M42.1873 95.51H41.1904V98.0695H42.1873V95.51Z" fill="#42C6EA"/>
<path d="M40.8689 95.51H39.8721V98.0695H40.8689V95.51Z" fill="#42C6EA"/>
<path d="M32.866 95.5101H31.8691V98.0696H32.866V95.5101Z" fill="#42C6EA"/>
<path d="M31.5437 95.5101H30.5469V98.0696H31.5437V95.5101Z" fill="#42C6EA"/>
<path d="M30.197 95.5099H29.2002V98.0694H30.197V95.5099Z" fill="#42C6EA"/>
<path d="M43.5359 98.5544H42.5391V101.114H43.5359V98.5544Z" fill="#42C6EA"/>
<path d="M42.1883 98.5546H41.1914V101.114H42.1883V98.5546Z" fill="#42C6EA"/>
<path d="M40.8699 98.5547H39.873V101.114H40.8699V98.5547Z" fill="#42C6EA"/>
<path d="M32.866 98.5536H31.8691V101.113H32.866V98.5536Z" fill="#42C6EA"/>
<path d="M31.5437 98.5536H30.5469V101.113H31.5437V98.5536Z" fill="#42C6EA"/>
<path d="M30.197 98.5543H29.2002V101.114H30.197V98.5543Z" fill="#42C6EA"/>
<path d="M43.5349 101.626H42.5381V104.185H43.5349V101.626Z" fill="#42C6EA"/>
<path d="M42.1873 101.626H41.1904V104.185H42.1873V101.626Z" fill="#42C6EA"/>
<path d="M40.8689 101.626H39.8721V104.185H40.8689V101.626Z" fill="#42C6EA"/>
<path d="M32.866 101.626H31.8691V104.185H32.866V101.626Z" fill="#42C6EA"/>
<path d="M31.5437 101.626H30.5469V104.185H31.5437V101.626Z" fill="#42C6EA"/>
<path d="M30.197 101.626H29.2002V104.185H30.197V101.626Z" fill="#42C6EA"/>
<path d="M43.5349 104.697H42.5381V107.257H43.5349V104.697Z" fill="#42C6EA"/>
<path d="M42.1873 104.698H41.1904V107.257H42.1873V104.698Z" fill="#42C6EA"/>
<path d="M40.8689 104.698H39.8721V107.257H40.8689V104.698Z" fill="#42C6EA"/>
<path d="M32.866 104.698H31.8691V107.257H32.866V104.698Z" fill="#42C6EA"/>
<path d="M31.5437 104.698H30.5469V107.257H31.5437V104.698Z" fill="#42C6EA"/>
<path d="M30.197 104.698H29.2002V107.257H30.197V104.698Z" fill="#42C6EA"/>
<path d="M43.5349 107.769H42.5381V110.328H43.5349V107.769Z" fill="#42C6EA"/>
<path d="M42.1873 107.769H41.1904V110.328H42.1873V107.769Z" fill="#42C6EA"/>
<path d="M40.8689 107.769H39.8721V110.328H40.8689V107.769Z" fill="#42C6EA"/>
<path d="M32.866 107.769H31.8691V110.329H32.866V107.769Z" fill="#42C6EA"/>
<path d="M31.5437 107.769H30.5469V110.329H31.5437V107.769Z" fill="#42C6EA"/>
<path d="M30.197 107.769H29.2002V110.328H30.197V107.769Z" fill="#42C6EA"/>
<path d="M43.5349 110.814H42.5381V113.373H43.5349V110.814Z" fill="#42C6EA"/>
<path d="M42.1873 110.813H41.1904V113.373H42.1873V110.813Z" fill="#42C6EA"/>
<path d="M40.8689 110.813H39.8721V113.373H40.8689V110.813Z" fill="#42C6EA"/>
<path d="M32.866 110.813H31.8691V113.373H32.866V110.813Z" fill="#42C6EA"/>
<path d="M31.5437 110.813H30.5469V113.373H31.5437V110.813Z" fill="#42C6EA"/>
<path d="M30.197 110.814H29.2002V113.373H30.197V110.814Z" fill="#42C6EA"/>
<path d="M35.4516 62.6571H37.3105V62.1721H35.4516V62.6571Z" fill="#2788AA"/>
<path d="M34.4058 63.7346H38.3662V63.2497H34.4058V63.7346Z" fill="#2788AA"/>
<path d="M34.0192 64.8121H38.8418V64.3272H34.0192V64.8121Z" fill="#2788AA"/>
<path d="M33.8555 65.8899H39.0283V65.4049H33.8555V65.8899Z" fill="#2788AA"/>
<path d="M33.8555 66.967H39.0283V66.4821H33.8555V66.967Z" fill="#2788AA"/>
<path d="M33.8555 68.0446H39.0283V67.5596H33.8555V68.0446Z" fill="#2788AA"/>
<path d="M33.8555 69.1229H39.0283V68.638H33.8555V69.1229Z" fill="#2788AA"/>
<path d="M33.8555 70.1998H39.0283V69.7149H33.8555V70.1998Z" fill="#2788AA"/>
<path d="M33.8555 71.2777H39.0283V70.7928H33.8555V71.2777Z" fill="#2788AA"/>
<path d="M33.8555 72.3552H39.0283V71.8703H33.8555V72.3552Z" fill="#2788AA"/>
<path d="M33.8555 73.4332H39.0283V72.9483H33.8555V73.4332Z" fill="#2788AA"/>
<path d="M33.8555 74.5105H39.0283V74.0255H33.8555V74.5105Z" fill="#2788AA"/>
<path d="M33.8555 75.5883H39.0283V75.1033H33.8555V75.5883Z" fill="#2788AA"/>
<path d="M33.8555 76.6664H39.0283V76.1814H33.8555V76.6664Z" fill="#2788AA"/>
<path d="M33.8555 77.7433H39.0283V77.2583H33.8555V77.7433Z" fill="#2788AA"/>
<path d="M33.8555 78.8208H39.0283V78.3358H33.8555V78.8208Z" fill="#2788AA"/>
<path d="M33.8555 79.8992H39.0283V79.4142H33.8555V79.8992Z" fill="#2788AA"/>
<path d="M33.8555 80.9763H39.0283V80.4914H33.8555V80.9763Z" fill="#2788AA"/>
<path d="M33.8555 82.0538H39.0283V81.5689H33.8555V82.0538Z" fill="#2788AA"/>
<path d="M33.8555 83.1313H39.0283V82.6464H33.8555V83.1313Z" fill="#2788AA"/>
<path d="M33.8555 84.2092H39.0283V83.7243H33.8555V84.2092Z" fill="#2788AA"/>
<path d="M33.8555 85.2866H39.0283V84.8017H33.8555V85.2866Z" fill="#2788AA"/>
<path d="M33.8555 86.3647H39.0283V85.8798H33.8555V86.3647Z" fill="#2788AA"/>
<path d="M33.8555 87.4425H39.0283V86.9575H33.8555V87.4425Z" fill="#2788AA"/>
<path d="M33.8555 88.5195H39.0283V88.0346H33.8555V88.5195Z" fill="#2788AA"/>
<path d="M33.8555 89.5973H39.0283V89.1123H33.8555V89.5973Z" fill="#2788AA"/>
<path d="M33.8555 90.6748H39.0283V90.1898H33.8555V90.6748Z" fill="#2788AA"/>
<path d="M33.8555 91.7523H39.0283V91.2674H33.8555V91.7523Z" fill="#2788AA"/>
<path d="M33.8555 92.8301H39.0283V92.3451H33.8555V92.8301Z" fill="#2788AA"/>
<path d="M33.8555 93.9078H39.0283V93.4229H33.8555V93.9078Z" fill="#2788AA"/>
<path d="M33.8555 94.9854H39.0283V94.5004H33.8555V94.9854Z" fill="#2788AA"/>
<path d="M33.8555 96.0629H39.0283V95.5779H33.8555V96.0629Z" fill="#2788AA"/>
<path d="M33.8555 97.1407H39.0283V96.6558H33.8555V97.1407Z" fill="#2788AA"/>
<path d="M33.8555 98.2181H39.0283V97.7332H33.8555V98.2181Z" fill="#2788AA"/>
<path d="M33.8555 99.2957H39.0283V98.8107H33.8555V99.2957Z" fill="#2788AA"/>
<path d="M33.8555 100.373H39.0283V99.8885H33.8555V100.373Z" fill="#2788AA"/>
<path d="M33.8555 101.451H39.0283V100.966H33.8555V101.451Z" fill="#2788AA"/>
<path d="M33.8555 102.529H39.0283V102.044H33.8555V102.529Z" fill="#2788AA"/>
<path d="M33.8555 103.606H39.0283V103.121H33.8555V103.606Z" fill="#2788AA"/>
<path d="M33.8555 104.684H39.0283V104.199H33.8555V104.684Z" fill="#2788AA"/>
<path d="M33.8555 105.761H39.0283V105.276H33.8555V105.761Z" fill="#2788AA"/>
<path d="M33.8555 106.84H39.0283V106.355H33.8555V106.84Z" fill="#2788AA"/>
<path d="M33.8555 107.917H39.0283V107.432H33.8555V107.917Z" fill="#2788AA"/>
<path d="M33.8555 108.995H39.0283V108.51H33.8555V108.995Z" fill="#2788AA"/>
<path d="M33.8555 110.072H39.0283V109.587H33.8555V110.072Z" fill="#2788AA"/>
<path d="M33.8555 111.15H39.0283V110.665H33.8555V111.15Z" fill="#2788AA"/>
<path d="M33.8555 112.227H39.0283V111.742H33.8555V112.227Z" fill="#2788AA"/>
<path d="M33.8555 113.305H39.0283V112.82H33.8555V113.305Z" fill="#2788AA"/>
<path d="M106.015 53.6686H90.6045V97.9076H106.015V53.6686Z" fill="#56A0C1"/>
<path d="M94.2766 54.3804H102.278V46.4324H94.2766V54.3804Z" fill="#56A0C1"/>
<path d="M95.2656 97.8809H101.354V52.672C101.354 50.4897 99.9804 48.7115 98.3101 48.7115C96.6127 48.7115 95.2656 50.4897 95.2656 52.672V97.8809Z" fill="#42C6EA"/>
<path d="M105.422 54.988H104.425V57.3859H105.422V54.988Z" fill="#42C6EA"/>
<path d="M104.103 54.988H103.106V57.3859H104.103V54.988Z" fill="#42C6EA"/>
<path d="M102.783 54.9879H101.786V57.3858H102.783V54.9879Z" fill="#42C6EA"/>
<path d="M94.783 54.9885H93.7861V57.3864H94.783V54.9885Z" fill="#42C6EA"/>
<path d="M93.4334 54.9884H92.4365V57.3863H93.4334V54.9884Z" fill="#42C6EA"/>
<path d="M92.116 54.9888H91.1191V57.3866H92.116V54.9888Z" fill="#42C6EA"/>
<path d="M105.424 57.8447H104.427V60.2426H105.424V57.8447Z" fill="#42C6EA"/>
<path d="M104.104 57.8447H103.107V60.2426H104.104V57.8447Z" fill="#42C6EA"/>
<path d="M102.785 57.8447H101.788V60.2426H102.785V57.8447Z" fill="#42C6EA"/>
<path d="M94.783 57.8447H93.7861V60.2426H94.783V57.8447Z" fill="#42C6EA"/>
<path d="M93.4334 57.8447H92.4365V60.2426H93.4334V57.8447Z" fill="#42C6EA"/>
<path d="M92.116 57.8448H91.1191V60.2427H92.116V57.8448Z" fill="#42C6EA"/>
<path d="M105.424 60.7273H104.427V63.1251H105.424V60.7273Z" fill="#42C6EA"/>
<path d="M104.104 60.7273H103.107V63.1251H104.104V60.7273Z" fill="#42C6EA"/>
<path d="M102.785 60.7273H101.788V63.1251H102.785V60.7273Z" fill="#42C6EA"/>
<path d="M94.783 60.7273H93.7861V63.1251H94.783V60.7273Z" fill="#42C6EA"/>
<path d="M93.4334 60.7273H92.4365V63.1251H93.4334V60.7273Z" fill="#42C6EA"/>
<path d="M92.116 60.7274H91.1191V63.1253H92.116V60.7274Z" fill="#42C6EA"/>
<path d="M105.424 63.6105H104.427V66.0083H105.424V63.6105Z" fill="#42C6EA"/>
<path d="M104.104 63.6105H103.107V66.0083H104.104V63.6105Z" fill="#42C6EA"/>
<path d="M102.785 63.6105H101.788V66.0083H102.785V63.6105Z" fill="#42C6EA"/>
<path d="M94.783 63.6106H93.7861V66.0084H94.783V63.6106Z" fill="#42C6EA"/>
<path d="M93.4334 63.6106H92.4365V66.0084H93.4334V63.6106Z" fill="#42C6EA"/>
<path d="M92.116 63.6107H91.1191V66.0086H92.116V63.6107Z" fill="#42C6EA"/>
<path d="M105.424 66.467H104.427V68.8649H105.424V66.467Z" fill="#42C6EA"/>
<path d="M104.104 66.467H103.107V68.8649H104.104V66.467Z" fill="#42C6EA"/>
<path d="M102.785 66.467H101.788V68.8649H102.785V66.467Z" fill="#42C6EA"/>
<path d="M94.783 66.4663H93.7861V68.8642H94.783V66.4663Z" fill="#42C6EA"/>
<path d="M93.4334 66.4664H92.4365V68.8643H93.4334V66.4664Z" fill="#42C6EA"/>
<path d="M92.116 66.4663H91.1191V68.8642H92.116V66.4663Z" fill="#42C6EA"/>
<path d="M105.424 69.3494H104.427V71.7472H105.424V69.3494Z" fill="#42C6EA"/>
<path d="M104.104 69.3494H103.107V71.7472H104.104V69.3494Z" fill="#42C6EA"/>
<path d="M102.785 69.3495H101.788V71.7473H102.785V69.3495Z" fill="#42C6EA"/>
<path d="M94.783 69.3494H93.7861V71.7472H94.783V69.3494Z" fill="#42C6EA"/>
<path d="M93.4334 69.3494H92.4365V71.7472H93.4334V69.3494Z" fill="#42C6EA"/>
<path d="M92.116 69.3494H91.1191V71.7472H92.116V69.3494Z" fill="#42C6EA"/>
<path d="M105.424 72.2321H104.427V74.6299H105.424V72.2321Z" fill="#42C6EA"/>
<path d="M104.104 72.2321H103.107V74.6299H104.104V72.2321Z" fill="#42C6EA"/>
<path d="M102.785 72.2322H101.788V74.63H102.785V72.2322Z" fill="#42C6EA"/>
<path d="M94.783 72.2319H93.7861V74.6298H94.783V72.2319Z" fill="#42C6EA"/>
<path d="M93.4334 72.2321H92.4365V74.6299H93.4334V72.2321Z" fill="#42C6EA"/>
<path d="M92.116 72.2319H91.1191V74.6298H92.116V72.2319Z" fill="#42C6EA"/>
<path d="M105.424 75.088H104.427V77.4859H105.424V75.088Z" fill="#42C6EA"/>
<path d="M104.104 75.088H103.107V77.4859H104.104V75.088Z" fill="#42C6EA"/>
<path d="M102.785 75.0879H101.788V77.4857H102.785V75.0879Z" fill="#42C6EA"/>
<path d="M94.783 75.0879H93.7861V77.4857H94.783V75.0879Z" fill="#42C6EA"/>
<path d="M93.4334 75.0878H92.4365V77.4856H93.4334V75.0878Z" fill="#42C6EA"/>
<path d="M92.116 75.0879H91.1191V77.4857H92.116V75.0879Z" fill="#42C6EA"/>
<path d="M105.424 77.9708H104.427V80.3687H105.424V77.9708Z" fill="#42C6EA"/>
<path d="M104.104 77.9708H103.107V80.3687H104.104V77.9708Z" fill="#42C6EA"/>
<path d="M102.785 77.9707H101.788V80.3686H102.785V77.9707Z" fill="#42C6EA"/>
<path d="M94.783 77.9705H93.7861V80.3683H94.783V77.9705Z" fill="#42C6EA"/>
<path d="M93.4334 77.9703H92.4365V80.3682H93.4334V77.9703Z" fill="#42C6EA"/>
<path d="M92.116 77.9705H91.1191V80.3683H92.116V77.9705Z" fill="#42C6EA"/>
<path d="M105.424 80.8536H104.427V83.2515H105.424V80.8536Z" fill="#42C6EA"/>
<path d="M104.104 80.8536H103.107V83.2515H104.104V80.8536Z" fill="#42C6EA"/>
<path d="M102.785 80.8535H101.788V83.2514H102.785V80.8535Z" fill="#42C6EA"/>
<path d="M94.783 80.8533H93.7861V83.2511H94.783V80.8533Z" fill="#42C6EA"/>
<path d="M93.4334 80.8531H92.4365V83.251H93.4334V80.8531Z" fill="#42C6EA"/>
<path d="M92.116 80.8533H91.1191V83.2511H92.116V80.8533Z" fill="#42C6EA"/>
<path d="M105.424 83.7094H104.427V86.1072H105.424V83.7094Z" fill="#42C6EA"/>
<path d="M104.104 83.7094H103.107V86.1072H104.104V83.7094Z" fill="#42C6EA"/>
<path d="M102.785 83.7094H101.788V86.1072H102.785V83.7094Z" fill="#42C6EA"/>
<path d="M94.783 83.7092H93.7861V86.1071H94.783V83.7092Z" fill="#42C6EA"/>
<path d="M93.4334 83.7094H92.4365V86.1072H93.4334V83.7094Z" fill="#42C6EA"/>
<path d="M92.116 83.7092H91.1191V86.1071H92.116V83.7092Z" fill="#42C6EA"/>
<path d="M105.424 86.5925H104.427V88.9904H105.424V86.5925Z" fill="#42C6EA"/>
<path d="M104.104 86.5925H103.107V88.9904H104.104V86.5925Z" fill="#42C6EA"/>
<path d="M102.785 86.5925H101.788V88.9904H102.785V86.5925Z" fill="#42C6EA"/>
<path d="M94.783 86.5923H93.7861V88.9901H94.783V86.5923Z" fill="#42C6EA"/>
<path d="M93.4334 86.5924H92.4365V88.9903H93.4334V86.5924Z" fill="#42C6EA"/>
<path d="M92.116 86.5923H91.1191V88.9901H92.116V86.5923Z" fill="#42C6EA"/>
<path d="M105.424 89.4751H104.427V91.873H105.424V89.4751Z" fill="#42C6EA"/>
<path d="M104.104 89.4751H103.107V91.873H104.104V89.4751Z" fill="#42C6EA"/>
<path d="M102.785 89.4751H101.788V91.873H102.785V89.4751Z" fill="#42C6EA"/>
<path d="M94.783 89.4746H93.7861V91.8725H94.783V89.4746Z" fill="#42C6EA"/>
<path d="M93.4334 89.4746H92.4365V91.8725H93.4334V89.4746Z" fill="#42C6EA"/>
<path d="M92.116 89.4745H91.1191V91.8723H92.116V89.4745Z" fill="#42C6EA"/>
<path d="M105.424 92.3573H104.427V94.7551H105.424V92.3573Z" fill="#42C6EA"/>
<path d="M104.104 92.3573H103.107V94.7551H104.104V92.3573Z" fill="#42C6EA"/>
<path d="M102.785 92.3574H101.788V94.7553H102.785V92.3574Z" fill="#42C6EA"/>
<path d="M94.783 92.3572H93.7861V94.755H94.783V92.3572Z" fill="#42C6EA"/>
<path d="M93.4334 92.3573H92.4365V94.7551H93.4334V92.3573Z" fill="#42C6EA"/>
<path d="M92.116 92.3571H91.1191V94.7549H92.116V92.3571Z" fill="#42C6EA"/>
<path d="M105.424 95.213H104.427V97.6109H105.424V95.213Z" fill="#42C6EA"/>
<path d="M104.104 95.213H103.107V97.6109H104.104V95.213Z" fill="#42C6EA"/>
<path d="M102.785 95.213H101.788V97.6109H102.785V95.213Z" fill="#42C6EA"/>
<path d="M94.783 95.2134H93.7861V97.6112H94.783V95.2134Z" fill="#42C6EA"/>
<path d="M93.4334 95.2134H92.4365V97.6112H93.4334V95.2134Z" fill="#42C6EA"/>
<path d="M92.116 95.2135H91.1191V97.6113H92.116V95.2135Z" fill="#42C6EA"/>
<path d="M97.3559 50.0573H99.2148V49.5992H97.3559V50.0573Z" fill="#2788AA"/>
<path d="M96.3091 51.0546H100.27V50.5966H96.3091V51.0546Z" fill="#2788AA"/>
<path d="M95.9215 52.0787H100.744V51.6207H95.9215V52.0787Z" fill="#2788AA"/>
<path d="M95.7578 53.0758H100.931V52.6178H95.7578V53.0758Z" fill="#2788AA"/>
<path d="M95.7578 54.0997H100.931V53.6417H95.7578V54.0997Z" fill="#2788AA"/>
<path d="M95.7578 55.0969H100.931V54.6389H95.7578V55.0969Z" fill="#2788AA"/>
<path d="M95.7578 56.1211H100.931V55.6631H95.7578V56.1211Z" fill="#2788AA"/>
<path d="M95.7578 57.1182H100.931V56.6601H95.7578V57.1182Z" fill="#2788AA"/>
<path d="M95.7578 58.1421H100.931V57.6841H95.7578V58.1421Z" fill="#2788AA"/>
<path d="M95.7578 59.1396H100.931V58.6816H95.7578V59.1396Z" fill="#2788AA"/>
<path d="M95.7578 60.1638H100.931V59.7058H95.7578V60.1638Z" fill="#2788AA"/>
<path d="M95.7578 61.1606H100.931V60.7026H95.7578V61.1606Z" fill="#2788AA"/>
<path d="M95.7578 62.1847H100.931V61.7267H95.7578V62.1847Z" fill="#2788AA"/>
<path d="M95.7578 63.1824H100.931V62.7244H95.7578V63.1824Z" fill="#2788AA"/>
<path d="M95.7578 64.2063H100.931V63.7483H95.7578V64.2063Z" fill="#2788AA"/>
<path d="M95.7578 65.2032H100.931V64.7452H95.7578V65.2032Z" fill="#2788AA"/>
<path d="M95.7578 66.2274H100.931V65.7694H95.7578V66.2274Z" fill="#2788AA"/>
<path d="M95.7578 67.2247H100.931V66.7667H95.7578V67.2247Z" fill="#2788AA"/>
<path d="M95.7578 68.2484H100.931V67.7904H95.7578V68.2484Z" fill="#2788AA"/>
<path d="M95.7578 69.2456H100.931V68.7876H95.7578V69.2456Z" fill="#2788AA"/>
<path d="M95.7578 70.2698H100.931V69.8118H95.7578V70.2698Z" fill="#2788AA"/>
<path d="M95.7578 71.2668H100.931V70.8088H95.7578V71.2668Z" fill="#2788AA"/>
<path d="M95.7578 72.2914H100.931V71.8334H95.7578V72.2914Z" fill="#2788AA"/>
<path d="M95.7578 73.2881H100.931V72.8301H95.7578V73.2881Z" fill="#2788AA"/>
<path d="M95.7578 74.3123H100.931V73.8542H95.7578V74.3123Z" fill="#2788AA"/>
<path d="M95.7578 75.3098H100.931V74.8518H95.7578V75.3098Z" fill="#2788AA"/>
<path d="M95.7578 76.3337H100.931V75.8757H95.7578V76.3337Z" fill="#2788AA"/>
<path d="M95.7578 77.3307H100.931V76.8727H95.7578V77.3307Z" fill="#2788AA"/>
<path d="M95.7578 78.3549H100.931V77.8968H95.7578V78.3549Z" fill="#2788AA"/>
<path d="M95.7578 79.3522H100.931V78.8942H95.7578V79.3522Z" fill="#2788AA"/>
<path d="M95.7578 80.3763H100.931V79.9183H95.7578V80.3763Z" fill="#2788AA"/>
<path d="M95.7578 81.3734H100.931V80.9154H95.7578V81.3734Z" fill="#2788AA"/>
<path d="M95.7578 82.3973H100.931V81.9393H95.7578V82.3973Z" fill="#2788AA"/>
<path d="M95.7578 83.3949H100.931V82.9369H95.7578V83.3949Z" fill="#2788AA"/>
<path d="M95.7578 84.4182H100.931V83.9602H95.7578V84.4182Z" fill="#2788AA"/>
<path d="M95.7578 85.4153H100.931V84.9573H95.7578V85.4153Z" fill="#2788AA"/>
<path d="M95.7578 86.4397H100.931V85.9817H95.7578V86.4397Z" fill="#2788AA"/>
<path d="M95.7578 87.4373H100.931V86.9792H95.7578V87.4373Z" fill="#2788AA"/>
<path d="M95.7578 88.4612H100.931V88.0032H95.7578V88.4612Z" fill="#2788AA"/>
<path d="M95.7578 89.4585H100.931V89.0005H95.7578V89.4585Z" fill="#2788AA"/>
<path d="M95.7578 90.4827H100.931V90.0246H95.7578V90.4827Z" fill="#2788AA"/>
<path d="M95.7578 91.4797H100.931V91.0217H95.7578V91.4797Z" fill="#2788AA"/>
<path d="M95.7578 92.5039H100.931V92.0459H95.7578V92.5039Z" fill="#2788AA"/>
<path d="M95.7578 93.501H100.931V93.043H95.7578V93.501Z" fill="#2788AA"/>
<path d="M95.7578 94.525H100.931V94.067H95.7578V94.525Z" fill="#2788AA"/>
<path d="M95.7578 95.5223H100.931V95.0643H95.7578V95.5223Z" fill="#2788AA"/>
<path d="M95.7578 96.546H100.931V96.088H95.7578V96.546Z" fill="#2788AA"/>
<path d="M95.7578 97.5432H100.931V97.0852H95.7578V97.5432Z" fill="#2788AA"/>
<path d="M158.443 54.9346H146.508V114.261H158.443V54.9346Z" fill="#F6CAA4"/>
<path d="M158.443 54.9352H152.893V114.262H158.443V54.9352Z" fill="#CC8C52"/>
<path d="M159.17 54.0728H145.834V56.4437H159.17V54.0728Z" fill="#EFB284"/>
<path d="M159.169 54.0728H152.487V56.4437H159.169V54.0728Z" fill="#CC8C52"/>
<path d="M147.773 57.2247H147.207V60.7272H147.773V57.2247Z" fill="#FFDFCA"/>
<path d="M148.878 57.2247H148.312V60.7272H148.878V57.2247Z" fill="#FFDFCA"/>
<path d="M149.955 57.2247H149.39V60.7272H149.955V57.2247Z" fill="#FFDFCA"/>
<path d="M151.061 57.2247H150.495V60.7272H151.061V57.2247Z" fill="#FFDFCA"/>
<path d="M152.137 57.2247H151.571V60.7272H152.137V57.2247Z" fill="#FFDFCA"/>
<path d="M147.773 61.3198H147.207V64.8223H147.773V61.3198Z" fill="#FFDFCA"/>
<path d="M148.878 61.3198H148.312V64.8223H148.878V61.3198Z" fill="#FFDFCA"/>
<path d="M149.955 61.3198H149.39V64.8223H149.955V61.3198Z" fill="#FFDFCA"/>
<path d="M151.061 61.3198H150.495V64.8223H151.061V61.3198Z" fill="#FFDFCA"/>
<path d="M152.137 61.3198H151.571V64.8223H152.137V61.3198Z" fill="#FFDFCA"/>
<path d="M147.773 65.4153H147.207V68.9178H147.773V65.4153Z" fill="#FFDFCA"/>
<path d="M148.878 65.4153H148.312V68.9178H148.878V65.4153Z" fill="#FFDFCA"/>
<path d="M149.955 65.4153H149.39V68.9178H149.955V65.4153Z" fill="#FFDFCA"/>
<path d="M151.061 65.4153H150.495V68.9178H151.061V65.4153Z" fill="#FFDFCA"/>
<path d="M152.137 65.4153H151.571V68.9178H152.137V65.4153Z" fill="#FFDFCA"/>
<path d="M147.773 69.5104H147.207V73.0129H147.773V69.5104Z" fill="#FFDFCA"/>
<path d="M148.878 69.5104H148.312V73.0129H148.878V69.5104Z" fill="#FFDFCA"/>
<path d="M149.955 69.5104H149.39V73.0129H149.955V69.5104Z" fill="#FFDFCA"/>
<path d="M151.061 69.5104H150.495V73.0129H151.061V69.5104Z" fill="#FFDFCA"/>
<path d="M152.137 69.5104H151.571V73.0129H152.137V69.5104Z" fill="#FFDFCA"/>
<path d="M147.773 73.6053H147.207V77.1078H147.773V73.6053Z" fill="#FFDFCA"/>
<path d="M148.878 73.6053H148.312V77.1078H148.878V73.6053Z" fill="#FFDFCA"/>
<path d="M149.955 73.6053H149.39V77.1078H149.955V73.6053Z" fill="#FFDFCA"/>
<path d="M151.061 73.6053H150.495V77.1078H151.061V73.6053Z" fill="#FFDFCA"/>
<path d="M152.137 73.6053H151.571V77.1078H152.137V73.6053Z" fill="#FFDFCA"/>
<path d="M147.773 77.7007H147.207V81.2032H147.773V77.7007Z" fill="#FFDFCA"/>
<path d="M148.878 77.7007H148.312V81.2032H148.878V77.7007Z" fill="#FFDFCA"/>
<path d="M149.955 77.7007H149.39V81.2032H149.955V77.7007Z" fill="#FFDFCA"/>
<path d="M151.061 77.7007H150.495V81.2032H151.061V77.7007Z" fill="#FFDFCA"/>
<path d="M152.137 77.7007H151.571V81.2032H152.137V77.7007Z" fill="#FFDFCA"/>
<path d="M147.773 81.796H147.207V85.2985H147.773V81.796Z" fill="#FFDFCA"/>
<path d="M148.878 81.796H148.312V85.2985H148.878V81.796Z" fill="#FFDFCA"/>
<path d="M149.955 81.796H149.39V85.2985H149.955V81.796Z" fill="#FFDFCA"/>
<path d="M151.061 81.796H150.495V85.2985H151.061V81.796Z" fill="#FFDFCA"/>
<path d="M152.137 81.796H151.571V85.2985H152.137V81.796Z" fill="#FFDFCA"/>
<path d="M147.773 85.8641H147.207V89.3666H147.773V85.8641Z" fill="#FFDFCA"/>
<path d="M148.878 85.8641H148.312V89.3666H148.878V85.8641Z" fill="#FFDFCA"/>
<path d="M149.955 85.8641H149.39V89.3666H149.955V85.8641Z" fill="#FFDFCA"/>
<path d="M151.061 85.8641H150.495V89.3666H151.061V85.8641Z" fill="#FFDFCA"/>
<path d="M152.137 85.8641H151.571V89.3666H152.137V85.8641Z" fill="#FFDFCA"/>
<path d="M147.773 89.9595H147.207V93.4619H147.773V89.9595Z" fill="#FFDFCA"/>
<path d="M148.878 89.9595H148.312V93.4619H148.878V89.9595Z" fill="#FFDFCA"/>
<path d="M149.955 89.9595H149.39V93.4619H149.955V89.9595Z" fill="#FFDFCA"/>
<path d="M151.061 89.9595H150.495V93.4619H151.061V89.9595Z" fill="#FFDFCA"/>
<path d="M152.137 89.9595H151.571V93.4619H152.137V89.9595Z" fill="#FFDFCA"/>
<path d="M147.773 94.0547H147.207V97.5572H147.773V94.0547Z" fill="#FFDFCA"/>
<path d="M148.878 94.0547H148.312V97.5572H148.878V94.0547Z" fill="#FFDFCA"/>
<path d="M149.955 94.0547H149.39V97.5572H149.955V94.0547Z" fill="#FFDFCA"/>
<path d="M151.061 94.0547H150.495V97.5572H151.061V94.0547Z" fill="#FFDFCA"/>
<path d="M152.137 94.0547H151.571V97.5572H152.137V94.0547Z" fill="#FFDFCA"/>
<path d="M147.773 98.1498H147.207V101.652H147.773V98.1498Z" fill="#FFDFCA"/>
<path d="M148.878 98.1498H148.312V101.652H148.878V98.1498Z" fill="#FFDFCA"/>
<path d="M149.955 98.1498H149.39V101.652H149.955V98.1498Z" fill="#FFDFCA"/>
<path d="M151.061 98.1498H150.495V101.652H151.061V98.1498Z" fill="#FFDFCA"/>
<path d="M152.137 98.1498H151.571V101.652H152.137V98.1498Z" fill="#FFDFCA"/>
<path d="M147.773 102.245H147.207V105.748H147.773V102.245Z" fill="#FFDFCA"/>
<path d="M148.878 102.245H148.312V105.748H148.878V102.245Z" fill="#FFDFCA"/>
<path d="M149.955 102.245H149.39V105.748H149.955V102.245Z" fill="#FFDFCA"/>
<path d="M151.061 102.245H150.495V105.748H151.061V102.245Z" fill="#FFDFCA"/>
<path d="M152.137 102.245H151.571V105.748H152.137V102.245Z" fill="#FFDFCA"/>
<path d="M147.773 106.34H147.207V109.843H147.773V106.34Z" fill="#FFDFCA"/>
<path d="M148.878 106.34H148.312V109.843H148.878V106.34Z" fill="#FFDFCA"/>
<path d="M149.955 106.34H149.39V109.843H149.955V106.34Z" fill="#FFDFCA"/>
<path d="M151.061 106.34H150.495V109.843H151.061V106.34Z" fill="#FFDFCA"/>
<path d="M152.137 106.34H151.571V109.843H152.137V106.34Z" fill="#FFDFCA"/>
<path d="M147.773 110.436H147.207V113.938H147.773V110.436Z" fill="#FFDFCA"/>
<path d="M148.878 110.436H148.312V113.938H148.878V110.436Z" fill="#FFDFCA"/>
<path d="M149.955 110.436H149.39V113.938H149.955V110.436Z" fill="#FFDFCA"/>
<path d="M151.061 110.436H150.495V113.938H151.061V110.436Z" fill="#FFDFCA"/>
<path d="M152.137 110.436H151.571V113.938H152.137V110.436Z" fill="#FFDFCA"/>
<path d="M154.161 57.2247H153.676V60.7272H154.161V57.2247Z" fill="#F6CAA4"/>
<path d="M155.104 57.2247H154.619V60.7272H155.104V57.2247Z" fill="#F6CAA4"/>
<path d="M156.021 57.2247H155.536V60.7272H156.021V57.2247Z" fill="#F6CAA4"/>
<path d="M156.962 57.2247H156.478V60.7272H156.962V57.2247Z" fill="#F6CAA4"/>
<path d="M157.879 57.2247H157.395V60.7272H157.879V57.2247Z" fill="#F6CAA4"/>
<path d="M154.161 61.3202H153.676V64.8227H154.161V61.3202Z" fill="#F6CAA4"/>
<path d="M155.104 61.3202H154.619V64.8227H155.104V61.3202Z" fill="#F6CAA4"/>
<path d="M156.021 61.3202H155.536V64.8227H156.021V61.3202Z" fill="#F6CAA4"/>
<path d="M156.962 61.3202H156.478V64.8227H156.962V61.3202Z" fill="#F6CAA4"/>
<path d="M157.879 61.3202H157.395V64.8227H157.879V61.3202Z" fill="#F6CAA4"/>
<path d="M154.161 65.4153H153.676V68.9178H154.161V65.4153Z" fill="#F6CAA4"/>
<path d="M155.104 65.4153H154.619V68.9178H155.104V65.4153Z" fill="#F6CAA4"/>
<path d="M156.021 65.4153H155.536V68.9178H156.021V65.4153Z" fill="#F6CAA4"/>
<path d="M156.962 65.4153H156.478V68.9178H156.962V65.4153Z" fill="#F6CAA4"/>
<path d="M157.879 65.4153H157.395V68.9178H157.879V65.4153Z" fill="#F6CAA4"/>
<path d="M154.161 69.5106H153.676V73.0131H154.161V69.5106Z" fill="#F6CAA4"/>
<path d="M155.104 69.5106H154.619V73.0131H155.104V69.5106Z" fill="#F6CAA4"/>
<path d="M156.021 69.5106H155.536V73.0131H156.021V69.5106Z" fill="#F6CAA4"/>
<path d="M156.962 69.5106H156.478V73.0131H156.962V69.5106Z" fill="#F6CAA4"/>
<path d="M157.879 69.5106H157.395V73.0131H157.879V69.5106Z" fill="#F6CAA4"/>
<path d="M154.161 73.6053H153.676V77.1078H154.161V73.6053Z" fill="#F6CAA4"/>
<path d="M155.104 73.6053H154.619V77.1078H155.104V73.6053Z" fill="#F6CAA4"/>
<path d="M156.021 73.6053H155.536V77.1078H156.021V73.6053Z" fill="#F6CAA4"/>
<path d="M156.962 73.6053H156.478V77.1078H156.962V73.6053Z" fill="#F6CAA4"/>
<path d="M157.879 73.6053H157.395V77.1078H157.879V73.6053Z" fill="#F6CAA4"/>
<path d="M154.161 77.7004H153.676V81.2029H154.161V77.7004Z" fill="#F6CAA4"/>
<path d="M155.104 77.7004H154.619V81.2029H155.104V77.7004Z" fill="#F6CAA4"/>
<path d="M156.021 77.7004H155.536V81.2029H156.021V77.7004Z" fill="#F6CAA4"/>
<path d="M156.962 77.7004H156.478V81.2029H156.962V77.7004Z" fill="#F6CAA4"/>
<path d="M157.879 77.7004H157.395V81.2029H157.879V77.7004Z" fill="#F6CAA4"/>
<path d="M154.161 81.796H153.676V85.2985H154.161V81.796Z" fill="#F6CAA4"/>
<path d="M155.104 81.796H154.619V85.2985H155.104V81.796Z" fill="#F6CAA4"/>
<path d="M156.021 81.796H155.536V85.2985H156.021V81.796Z" fill="#F6CAA4"/>
<path d="M156.962 81.796H156.478V85.2985H156.962V81.796Z" fill="#F6CAA4"/>
<path d="M157.879 81.796H157.395V85.2985H157.879V81.796Z" fill="#F6CAA4"/>
<path d="M154.161 85.8641H153.676V89.3666H154.161V85.8641Z" fill="#F6CAA4"/>
<path d="M155.104 85.8641H154.619V89.3666H155.104V85.8641Z" fill="#F6CAA4"/>
<path d="M156.021 85.8641H155.536V89.3666H156.021V85.8641Z" fill="#F6CAA4"/>
<path d="M156.962 85.8641H156.478V89.3666H156.962V85.8641Z" fill="#F6CAA4"/>
<path d="M157.879 85.8641H157.395V89.3666H157.879V85.8641Z" fill="#F6CAA4"/>
<path d="M154.161 89.959H153.676V93.4615H154.161V89.959Z" fill="#F6CAA4"/>
<path d="M155.104 89.959H154.619V93.4615H155.104V89.959Z" fill="#F6CAA4"/>
<path d="M156.021 89.959H155.536V93.4615H156.021V89.959Z" fill="#F6CAA4"/>
<path d="M156.962 89.959H156.478V93.4615H156.962V89.959Z" fill="#F6CAA4"/>
<path d="M157.879 89.959H157.395V93.4615H157.879V89.959Z" fill="#F6CAA4"/>
<path d="M154.161 94.0547H153.676V97.5572H154.161V94.0547Z" fill="#F6CAA4"/>
<path d="M155.104 94.0547H154.619V97.5572H155.104V94.0547Z" fill="#F6CAA4"/>
<path d="M156.021 94.0547H155.536V97.5572H156.021V94.0547Z" fill="#F6CAA4"/>
<path d="M156.962 94.0547H156.478V97.5572H156.962V94.0547Z" fill="#F6CAA4"/>
<path d="M157.879 94.0547H157.395V97.5572H157.879V94.0547Z" fill="#F6CAA4"/>
<path d="M154.161 98.15H153.676V101.653H154.161V98.15Z" fill="#F6CAA4"/>
<path d="M155.104 98.15H154.619V101.653H155.104V98.15Z" fill="#F6CAA4"/>
<path d="M156.021 98.15H155.536V101.653H156.021V98.15Z" fill="#F6CAA4"/>
<path d="M156.962 98.15H156.478V101.653H156.962V98.15Z" fill="#F6CAA4"/>
<path d="M157.879 98.15H157.395V101.653H157.879V98.15Z" fill="#F6CAA4"/>
<path d="M154.161 102.245H153.676V105.747H154.161V102.245Z" fill="#F6CAA4"/>
<path d="M155.104 102.245H154.619V105.747H155.104V102.245Z" fill="#F6CAA4"/>
<path d="M156.021 102.245H155.536V105.747H156.021V102.245Z" fill="#F6CAA4"/>
<path d="M156.962 102.245H156.478V105.747H156.962V102.245Z" fill="#F6CAA4"/>
<path d="M157.879 102.245H157.395V105.747H157.879V102.245Z" fill="#F6CAA4"/>
<path d="M154.161 106.34H153.676V109.843H154.161V106.34Z" fill="#F6CAA4"/>
<path d="M155.104 106.34H154.619V109.843H155.104V106.34Z" fill="#F6CAA4"/>
<path d="M156.021 106.34H155.536V109.843H156.021V106.34Z" fill="#F6CAA4"/>
<path d="M156.962 106.34H156.478V109.843H156.962V106.34Z" fill="#F6CAA4"/>
<path d="M157.879 106.34H157.395V109.843H157.879V106.34Z" fill="#F6CAA4"/>
<path d="M154.161 110.435H153.676V113.938H154.161V110.435Z" fill="#F6CAA4"/>
<path d="M155.104 110.435H154.619V113.938H155.104V110.435Z" fill="#F6CAA4"/>
<path d="M156.021 110.435H155.536V113.938H156.021V110.435Z" fill="#F6CAA4"/>
<path d="M156.962 110.435H156.478V113.938H156.962V110.435Z" fill="#F6CAA4"/>
<path d="M157.879 110.435H157.395V113.938H157.879V110.435Z" fill="#F6CAA4"/>
<path d="M159.17 75.896H145.834V78.2669H159.17V75.896Z" fill="#EFB284"/>
<path d="M159.169 75.896H152.487V78.2669H159.169V75.896Z" fill="#CC8C52"/>
<path d="M159.17 100.979H145.834V103.35H159.17V100.979Z" fill="#EFB284"/>
<path d="M159.169 100.979H152.487V103.35H159.169V100.979Z" fill="#CC8C52"/>
<path d="M146.857 65.6842H140.849V112.941H146.857V65.6842Z" fill="#CC8C52"/>
<path d="M140.846 65.6844H125.624V112.941H140.846V65.6844Z" fill="#F6CAA4"/>
<path d="M126.703 65.6842H126.461V113.075H126.703V65.6842Z" fill="#B29883"/>
<path d="M127.809 65.6847H127.566V113.076H127.809V65.6847Z" fill="#B29883"/>
<path d="M128.912 65.6842H128.67V113.075H128.912V65.6842Z" fill="#B29883"/>
<path d="M130.019 65.6847H129.776V113.076H130.019V65.6847Z" fill="#B29883"/>
<path d="M131.12 65.6842H130.878V113.075H131.12V65.6842Z" fill="#B29883"/>
<path d="M132.226 65.6847H131.983V113.076H132.226V65.6847Z" fill="#B29883"/>
<path d="M133.331 65.6842H133.089V113.075H133.331V65.6842Z" fill="#B29883"/>
<path d="M134.438 65.6847H134.195V113.076H134.438V65.6847Z" fill="#B29883"/>
<path d="M135.567 65.6849H135.324V113.076H135.567V65.6849Z" fill="#B29883"/>
<path d="M136.673 65.6847H136.431V113.076H136.673V65.6847Z" fill="#B29883"/>
<path d="M137.776 65.6852H137.533V113.076H137.776V65.6852Z" fill="#B29883"/>
<path d="M138.881 65.6849H138.639V113.076H138.881V65.6849Z" fill="#B29883"/>
<path d="M139.986 65.6847H139.743V113.076H139.986V65.6847Z" fill="#B29883"/>
<path d="M142.248 65.6847H142.006V113.076H142.248V65.6847Z" fill="#B29883"/>
<path d="M143.191 65.6842H142.948V113.075H143.191V65.6842Z" fill="#B29883"/>
<path d="M144.16 65.6842H143.918V113.075H144.16V65.6842Z" fill="#B29883"/>
<path d="M145.13 65.6847H144.888V113.076H145.13V65.6847Z" fill="#B29883"/>
<path d="M146.074 65.6842H145.831V113.075H146.074V65.6842Z" fill="#B29883"/>
<path d="M146.854 67.8671H125.624V68.1365H146.854V67.8671Z" fill="#B29883"/>
<path d="M146.854 71.9357H125.624V72.2051H146.854V71.9357Z" fill="#B29883"/>
<path d="M146.854 76.0037H125.624V76.2731H146.854V76.0037Z" fill="#B29883"/>
<path d="M146.854 80.0988H125.624V80.3682H146.854V80.0988Z" fill="#B29883"/>
<path d="M146.854 84.1669H125.624V84.4363H146.854V84.1669Z" fill="#B29883"/>
<path d="M146.854 88.2355H125.624V88.5049H146.854V88.2355Z" fill="#B29883"/>
<path d="M146.854 92.3035H125.624V92.5729H146.854V92.3035Z" fill="#B29883"/>
<path d="M146.854 96.3984H125.624V96.6679H146.854V96.3984Z" fill="#B29883"/>
<path d="M146.854 100.467H125.624V100.736H146.854V100.467Z" fill="#B29883"/>
<path d="M146.854 104.535H125.624V104.805H146.854V104.535Z" fill="#B29883"/>
<path d="M146.854 108.63H125.624V108.9H146.854V108.63Z" fill="#B29883"/>
<path d="M147.693 64.7958H124.9V66.2237H147.693V64.7958Z" fill="#CC8C52"/>
<path d="M91.4653 16.6236H91.0342V0.323569C91.0342 0.188858 91.1419 0.108032 91.2497 0.108032C91.3844 0.108032 91.4653 0.215801 91.4653 0.323569V16.6236Z" fill="#567F91"/>
<path d="M96.2597 15.2766H86.2373V17.9708H96.2597V15.2766Z" fill="#06667C"/>
<path d="M98.9819 109.655H81.9277L84.9452 17.5129H97.4732L98.9819 109.655Z" fill="#42C6EA"/>
<path d="M90.4414 17.5129H84.9452L81.9277 109.655H90.5761L90.4414 17.5129Z" fill="#56A0C1"/>
<path d="M98.5778 85.3802L90.4414 17.5129L81.9277 109.655H98.9819L98.5778 85.3802Z" fill="#59D9F7"/>
<path d="M98.9819 109.655L90.4414 17.5129L81.9277 109.655H98.9819Z" fill="#13748E"/>
<path d="M77.5912 46.2599H62.5576V109.547H77.5912V46.2599Z" fill="#56A0C1"/>
<path d="M77.5918 46.26H70.5869V109.547H77.5918V46.26Z" fill="#42C6EA"/>
<path d="M64.4156 66.278H63.3379V68.568H64.4156V66.278Z" fill="#2788AA"/>
<path d="M66.1128 66.2781H65.0352V68.5682H66.1128V66.2781Z" fill="#2788AA"/>
<path d="M67.8365 66.2778H66.7588V68.5679H67.8365V66.2778Z" fill="#2788AA"/>
<path d="M69.5611 66.2778H68.4834V68.5679H69.5611V66.2778Z" fill="#2788AA"/>
<path d="M64.4156 63.4489H63.3379V65.7389H64.4156V63.4489Z" fill="#2788AA"/>
<path d="M66.1119 63.4495H65.0342V65.7395H66.1119V63.4495Z" fill="#2788AA"/>
<path d="M67.8365 63.449H66.7588V65.7391H67.8365V63.449Z" fill="#2788AA"/>
<path d="M69.5611 63.4492H68.4834V65.7393H69.5611V63.4492Z" fill="#2788AA"/>
<path d="M64.4156 60.62H63.3379V62.9101H64.4156V60.62Z" fill="#2788AA"/>
<path d="M66.1119 60.6199H65.0342V62.91H66.1119V60.6199Z" fill="#2788AA"/>
<path d="M67.8365 60.6204H66.7588V62.9104H67.8365V60.6204Z" fill="#2788AA"/>
<path d="M69.5611 60.6204H68.4834V62.9104H69.5611V60.6204Z" fill="#2788AA"/>
<path d="M64.4156 57.7644H63.3379V60.0545H64.4156V57.7644Z" fill="#2788AA"/>
<path d="M66.1128 57.7639H65.0352V60.054H66.1128V57.7639Z" fill="#2788AA"/>
<path d="M67.8365 57.7639H66.7588V60.054H67.8365V57.7639Z" fill="#2788AA"/>
<path d="M69.5611 57.764H68.4834V60.0541H69.5611V57.764Z" fill="#2788AA"/>
<path d="M64.4156 54.9351H63.3379V57.2251H64.4156V54.9351Z" fill="#2788AA"/>
<path d="M66.1119 54.9353H65.0342V57.2254H66.1119V54.9353Z" fill="#2788AA"/>
<path d="M67.8365 54.9352H66.7588V57.2253H67.8365V54.9352Z" fill="#2788AA"/>
<path d="M69.5611 54.9353H68.4834V57.2254H69.5611V54.9353Z" fill="#2788AA"/>
<path d="M64.4156 52.1061H63.3379V54.3962H64.4156V52.1061Z" fill="#2788AA"/>
<path d="M66.1119 52.1064H65.0342V54.3965H66.1119V52.1064Z" fill="#2788AA"/>
<path d="M67.8365 52.1062H66.7588V54.3963H67.8365V52.1062Z" fill="#2788AA"/>
<path d="M69.5611 52.1066H68.4834V54.3966H69.5611V52.1066Z" fill="#2788AA"/>
<path d="M64.4156 49.2773H63.3379V51.5674H64.4156V49.2773Z" fill="#2788AA"/>
<path d="M66.1119 49.2771H65.0342V51.5672H66.1119V49.2771Z" fill="#2788AA"/>
<path d="M67.8365 49.2771H66.7588V51.5672H67.8365V49.2771Z" fill="#2788AA"/>
<path d="M69.5611 49.277H68.4834V51.5671H69.5611V49.277Z" fill="#2788AA"/>
<path d="M76.8349 49.2767H71.5273V51.5668H76.8349V49.2767Z" fill="#2788AA"/>
<path d="M76.8349 52.1063H71.5273V54.3964H76.8349V52.1063Z" fill="#2788AA"/>
<path d="M76.8349 54.9353H71.5273V57.2254H76.8349V54.9353Z" fill="#2788AA"/>
<path d="M76.8349 57.7639H71.5273V60.054H76.8349V57.7639Z" fill="#2788AA"/>
<path d="M76.8349 60.6196H71.5273V62.9097H76.8349V60.6196Z" fill="#2788AA"/>
<path d="M76.8349 63.4493H71.5273V65.7394H76.8349V63.4493Z" fill="#2788AA"/>
<path d="M76.8349 66.2781H71.5273V68.5682H76.8349V66.2781Z" fill="#2788AA"/>
<path d="M76.8349 69.1064H71.5273V71.3965H76.8349V69.1064Z" fill="#2788AA"/>
<path d="M76.8349 71.9358H71.5273V74.2259H76.8349V71.9358Z" fill="#2788AA"/>
<path d="M76.8349 74.7646H71.5273V77.0547H76.8349V74.7646Z" fill="#2788AA"/>
<path d="M76.8349 77.593H71.5273V79.8831H76.8349V77.593Z" fill="#2788AA"/>
<path d="M76.8349 80.4495H71.5273V82.7395H76.8349V80.4495Z" fill="#2788AA"/>
<path d="M76.8349 83.2784H71.5273V85.5685H76.8349V83.2784Z" fill="#2788AA"/>
<path d="M76.8349 86.1068H71.5273V88.3969H76.8349V86.1068Z" fill="#2788AA"/>
<path d="M76.8349 88.9359H71.5273V91.226H76.8349V88.9359Z" fill="#2788AA"/>
<path d="M76.8349 91.7649H71.5273V94.055H76.8349V91.7649Z" fill="#2788AA"/>
<path d="M76.8349 94.594H71.5273V96.8841H76.8349V94.594Z" fill="#2788AA"/>
<path d="M76.8349 97.423H71.5273V99.7131H76.8349V97.423Z" fill="#2788AA"/>
<path d="M76.8349 100.252H71.5273V102.542H76.8349V100.252Z" fill="#2788AA"/>
<path d="M76.8349 103.107H71.5273V105.397H76.8349V103.107Z" fill="#2788AA"/>
<path d="M76.8349 105.936H71.5273V108.226H76.8349V105.936Z" fill="#2788AA"/>
<path d="M64.4156 69.1608H63.3379V71.4508H64.4156V69.1608Z" fill="#2788AA"/>
<path d="M66.1119 69.1609H65.0342V71.451H66.1119V69.1609Z" fill="#2788AA"/>
<path d="M67.8365 69.1611H66.7588V71.4512H67.8365V69.1611Z" fill="#2788AA"/>
<path d="M69.5611 69.161H68.4834V71.4511H69.5611V69.161Z" fill="#2788AA"/>
<path d="M64.4156 72.0441H63.3379V74.3341H64.4156V72.0441Z" fill="#2788AA"/>
<path d="M66.1119 72.0438H65.0342V74.3339H66.1119V72.0438Z" fill="#2788AA"/>
<path d="M67.8365 72.0441H66.7588V74.3341H67.8365V72.0441Z" fill="#2788AA"/>
<path d="M69.5611 72.0439H68.4834V74.334H69.5611V72.0439Z" fill="#2788AA"/>
<path d="M64.4156 74.9269H63.3379V77.217H64.4156V74.9269Z" fill="#2788AA"/>
<path d="M66.1119 74.9265H65.0342V77.2166H66.1119V74.9265Z" fill="#2788AA"/>
<path d="M67.8365 74.9261H66.7588V77.2162H67.8365V74.9261Z" fill="#2788AA"/>
<path d="M69.5611 74.9263H68.4834V77.2163H69.5611V74.9263Z" fill="#2788AA"/>
<path d="M64.4156 77.8093H63.3379V80.0994H64.4156V77.8093Z" fill="#2788AA"/>
<path d="M66.1119 77.8087H65.0342V80.0988H66.1119V77.8087Z" fill="#2788AA"/>
<path d="M67.8365 77.8091H66.7588V80.0992H67.8365V77.8091Z" fill="#2788AA"/>
<path d="M69.5611 77.8092H68.4834V80.0993H69.5611V77.8092Z" fill="#2788AA"/>
<path d="M64.4156 80.6917H63.3379V82.9817H64.4156V80.6917Z" fill="#2788AA"/>
<path d="M66.1119 80.6919H65.0342V82.982H66.1119V80.6919Z" fill="#2788AA"/>
<path d="M67.8365 80.6919H66.7588V82.982H67.8365V80.6919Z" fill="#2788AA"/>
<path d="M69.5611 80.692H68.4834V82.9821H69.5611V80.692Z" fill="#2788AA"/>
<path d="M64.4156 83.5746H63.3379V85.8647H64.4156V83.5746Z" fill="#2788AA"/>
<path d="M66.1119 83.5747H65.0342V85.8648H66.1119V83.5747Z" fill="#2788AA"/>
<path d="M67.8365 83.5746H66.7588V85.8647H67.8365V83.5746Z" fill="#2788AA"/>
<path d="M69.5611 83.5748H68.4834V85.8649H69.5611V83.5748Z" fill="#2788AA"/>
<path d="M64.4156 86.4576H63.3379V88.7477H64.4156V86.4576Z" fill="#2788AA"/>
<path d="M66.1119 86.4573H65.0342V88.7474H66.1119V86.4573Z" fill="#2788AA"/>
<path d="M67.8365 86.4573H66.7588V88.7474H67.8365V86.4573Z" fill="#2788AA"/>
<path d="M69.5611 86.4574H68.4834V88.7475H69.5611V86.4574Z" fill="#2788AA"/>
<path d="M64.4156 89.3403H63.3379V91.6304H64.4156V89.3403Z" fill="#2788AA"/>
<path d="M66.1119 89.3406H65.0342V91.6307H66.1119V89.3406Z" fill="#2788AA"/>
<path d="M67.8365 89.3408H66.7588V91.6309H67.8365V89.3408Z" fill="#2788AA"/>
<path d="M69.5611 89.3407H68.4834V91.6308H69.5611V89.3407Z" fill="#2788AA"/>
<path d="M64.4156 92.2234H63.3379V94.5135H64.4156V92.2234Z" fill="#2788AA"/>
<path d="M66.1119 92.2234H65.0342V94.5135H66.1119V92.2234Z" fill="#2788AA"/>
<path d="M67.8365 92.2231H66.7588V94.5132H67.8365V92.2231Z" fill="#2788AA"/>
<path d="M69.5611 92.2235H68.4834V94.5136H69.5611V92.2235Z" fill="#2788AA"/>
<path d="M64.4156 95.1058H63.3379V97.3959H64.4156V95.1058Z" fill="#2788AA"/>
<path d="M66.1119 95.1056H65.0342V97.3957H66.1119V95.1056Z" fill="#2788AA"/>
<path d="M67.8365 95.106H66.7588V97.396H67.8365V95.106Z" fill="#2788AA"/>
<path d="M69.5611 95.1061H68.4834V97.3962H69.5611V95.1061Z" fill="#2788AA"/>
<path d="M64.4156 97.9894H63.3379V100.279H64.4156V97.9894Z" fill="#2788AA"/>
<path d="M66.1128 97.9885H65.0352V100.279H66.1128V97.9885Z" fill="#2788AA"/>
<path d="M67.8365 97.9889H66.7588V100.279H67.8365V97.9889Z" fill="#2788AA"/>
<path d="M69.5611 97.989H68.4834V100.279H69.5611V97.989Z" fill="#2788AA"/>
<path d="M64.4156 100.871H63.3379V103.162H64.4156V100.871Z" fill="#2788AA"/>
<path d="M66.1119 100.872H65.0342V103.162H66.1119V100.872Z" fill="#2788AA"/>
<path d="M67.8365 100.871H66.7588V103.162H67.8365V100.871Z" fill="#2788AA"/>
<path d="M69.5611 100.872H68.4834V103.162H69.5611V100.872Z" fill="#2788AA"/>
<path d="M64.4156 103.755H63.3379V106.045H64.4156V103.755Z" fill="#2788AA"/>
<path d="M66.1119 103.755H65.0342V106.045H66.1119V103.755Z" fill="#2788AA"/>
<path d="M67.8365 103.754H66.7588V106.044H67.8365V103.754Z" fill="#2788AA"/>
<path d="M69.5611 103.755H68.4834V106.045H69.5611V103.755Z" fill="#2788AA"/>
<path d="M64.4156 106.664H63.3379V108.954H64.4156V106.664Z" fill="#2788AA"/>
<path d="M66.1128 106.664H65.0352V108.954H66.1128V106.664Z" fill="#2788AA"/>
<path d="M67.8365 106.664H66.7588V108.954H67.8365V106.664Z" fill="#2788AA"/>
<path d="M69.5611 106.664H68.4834V108.954H69.5611V106.664Z" fill="#2788AA"/>
<path d="M78.4801 45.3165H61.6953V47.8491H78.4801V45.3165Z" fill="#13748E"/>
<path d="M78.4801 45.3165H70.0742V47.8491H78.4801V45.3165Z" fill="#06667C"/>
<path d="M123.175 34.2163H104.585V46.2325H123.175V34.2163Z" fill="#A4999C"/>
<path d="M124.63 42.3796H108.33V114.369H124.63V42.3796Z" fill="#56A0C1"/>
<path d="M121.532 42.3796H108.33V114.369H121.532V42.3796Z" fill="#13748E"/>
<path d="M119.914 37.9611H102.133V114.369H119.914V37.9611Z" fill="#42C6EA"/>
<path d="M124.63 44.7238H120.966V45.1279H124.63V44.7238Z" fill="#13748E"/>
<path d="M124.63 47.0139H120.966V47.418H124.63V47.0139Z" fill="#13748E"/>
<path d="M124.63 49.3041H120.966V49.7082H124.63V49.3041Z" fill="#13748E"/>
<path d="M124.63 51.594H120.966V51.9981H124.63V51.594Z" fill="#13748E"/>
<path d="M124.63 53.884H120.966V54.2882H124.63V53.884Z" fill="#13748E"/>
<path d="M124.63 56.147H120.966V56.5511H124.63V56.147Z" fill="#13748E"/>
<path d="M124.63 58.4374H120.966V58.8415H124.63V58.4374Z" fill="#13748E"/>
<path d="M124.63 60.7273H120.966V61.1314H124.63V60.7273Z" fill="#13748E"/>
<path d="M124.63 63.0175H120.966V63.4216H124.63V63.0175Z" fill="#13748E"/>
<path d="M124.63 65.3076H120.966V65.7117H124.63V65.3076Z" fill="#13748E"/>
<path d="M124.63 67.5978H120.966V68.0019H124.63V67.5978Z" fill="#13748E"/>
<path d="M124.63 69.8608H120.966V70.265H124.63V69.8608Z" fill="#13748E"/>
<path d="M124.63 72.1509H120.966V72.555H124.63V72.1509Z" fill="#13748E"/>
<path d="M124.63 74.4409H120.966V74.845H124.63V74.4409Z" fill="#13748E"/>
<path d="M124.63 76.7313H120.966V77.1355H124.63V76.7313Z" fill="#13748E"/>
<path d="M124.63 79.0212H120.966V79.4254H124.63V79.0212Z" fill="#13748E"/>
<path d="M124.63 81.3112H120.966V81.7153H124.63V81.3112Z" fill="#13748E"/>
<path d="M124.63 83.5743H120.966V83.9785H124.63V83.5743Z" fill="#13748E"/>
<path d="M124.63 85.8643H120.966V86.2684H124.63V85.8643Z" fill="#13748E"/>
<path d="M124.63 88.1547H120.966V88.5588H124.63V88.1547Z" fill="#13748E"/>
<path d="M124.63 90.4446H120.966V90.8487H124.63V90.4446Z" fill="#13748E"/>
<path d="M124.63 92.7347H120.966V93.1389H124.63V92.7347Z" fill="#13748E"/>
<path d="M124.63 95.0248H120.966V95.4289H124.63V95.0248Z" fill="#13748E"/>
<path d="M124.63 97.288H120.966V97.6921H124.63V97.288Z" fill="#13748E"/>
<path d="M124.63 99.5781H120.966V99.9823H124.63V99.5781Z" fill="#13748E"/>
<path d="M124.63 101.868H120.966V102.272H124.63V101.868Z" fill="#13748E"/>
<path d="M124.63 104.158H120.966V104.562H124.63V104.158Z" fill="#13748E"/>
<path d="M124.63 106.448H120.966V106.852H124.63V106.448Z" fill="#13748E"/>
<path d="M124.63 108.739H120.966V109.143H124.63V108.739Z" fill="#13748E"/>
<path d="M63.4205 73.6068H57.7627V115.637H63.4205V73.6068Z" fill="#CC8C52"/>
<path d="M57.7621 73.6066H42.7285V115.636H57.7621V73.6066Z" fill="#F6CAA4"/>
<path d="M46.2325 73.6068H45.1279V115.637H46.2325V73.6068Z" fill="#CC8C52"/>
<path d="M49.2755 73.6068H48.1709V115.637H49.2755V73.6068Z" fill="#CC8C52"/>
<path d="M52.3214 73.6067H51.2168V115.636H52.3214V73.6067Z" fill="#CC8C52"/>
<path d="M55.3654 73.6072H54.2607V115.637H55.3654V73.6072Z" fill="#CC8C52"/>
<path d="M44.6411 74.8184H43.4287V78.5903H44.6411V74.8184Z" fill="#FFDFCA"/>
<path d="M47.7934 74.8184H46.5811V78.5903H47.7934V74.8184Z" fill="#FFDFCA"/>
<path d="M50.8647 74.8184H49.6523V78.5903H50.8647V74.8184Z" fill="#FFDFCA"/>
<path d="M53.9106 74.8184H52.6982V78.5903H53.9106V74.8184Z" fill="#FFDFCA"/>
<path d="M56.9546 74.8184H55.7422V78.5903H56.9546V74.8184Z" fill="#FFDFCA"/>
<path d="M59.4864 74.8191H58.8398V78.591H59.4864V74.8191Z" fill="#F6CAA4"/>
<path d="M61.13 74.819H60.4834V78.5909H61.13V74.819Z" fill="#F6CAA4"/>
<path d="M62.7462 74.819H62.0996V78.5909H62.7462V74.819Z" fill="#F6CAA4"/>
<path d="M59.4864 79.3452H58.8398V83.1171H59.4864V79.3452Z" fill="#F6CAA4"/>
<path d="M61.13 79.3455H60.4834V83.1174H61.13V79.3455Z" fill="#F6CAA4"/>
<path d="M62.7462 79.3452H62.0996V83.1171H62.7462V79.3452Z" fill="#F6CAA4"/>
<path d="M59.4864 83.8444H58.8398V87.6163H59.4864V83.8444Z" fill="#F6CAA4"/>
<path d="M61.13 83.8444H60.4834V87.6163H61.13V83.8444Z" fill="#F6CAA4"/>
<path d="M62.7462 83.8441H62.0996V87.616H62.7462V83.8441Z" fill="#F6CAA4"/>
<path d="M59.4864 88.344H58.8398V92.1159H59.4864V88.344Z" fill="#F6CAA4"/>
<path d="M61.13 88.344H60.4834V92.1159H61.13V88.344Z" fill="#F6CAA4"/>
<path d="M62.7462 88.3435H62.0996V92.1154H62.7462V88.3435Z" fill="#F6CAA4"/>
<path d="M59.4864 92.8701H58.8398V96.642H59.4864V92.8701Z" fill="#F6CAA4"/>
<path d="M61.13 92.8702H60.4834V96.6421H61.13V92.8702Z" fill="#F6CAA4"/>
<path d="M62.7462 92.87H62.0996V96.6419H62.7462V92.87Z" fill="#F6CAA4"/>
<path d="M59.4864 97.3696H58.8398V101.142H59.4864V97.3696Z" fill="#F6CAA4"/>
<path d="M61.13 97.3696H60.4834V101.142H61.13V97.3696Z" fill="#F6CAA4"/>
<path d="M62.7462 97.3694H62.0996V101.141H62.7462V97.3694Z" fill="#F6CAA4"/>
<path d="M59.4864 101.896H58.8398V105.668H59.4864V101.896Z" fill="#F6CAA4"/>
<path d="M61.13 101.896H60.4834V105.668H61.13V101.896Z" fill="#F6CAA4"/>
<path d="M62.7462 101.896H62.0996V105.668H62.7462V101.896Z" fill="#F6CAA4"/>
<path d="M59.4864 106.395H58.8398V110.167H59.4864V106.395Z" fill="#F6CAA4"/>
<path d="M61.13 106.395H60.4834V110.166H61.13V106.395Z" fill="#F6CAA4"/>
<path d="M62.7462 106.395H62.0996V110.167H62.7462V106.395Z" fill="#F6CAA4"/>
<path d="M59.4864 110.921H58.8398V114.693H59.4864V110.921Z" fill="#F6CAA4"/>
<path d="M61.13 110.921H60.4834V114.693H61.13V110.921Z" fill="#F6CAA4"/>
<path d="M62.7462 110.921H62.0996V114.693H62.7462V110.921Z" fill="#F6CAA4"/>
<path d="M44.6411 79.3451H43.4287V83.117H44.6411V79.3451Z" fill="#FFDFCA"/>
<path d="M47.7934 79.3451H46.5811V83.117H47.7934V79.3451Z" fill="#FFDFCA"/>
<path d="M50.8647 79.3452H49.6523V83.1171H50.8647V79.3452Z" fill="#FFDFCA"/>
<path d="M53.9106 79.3452H52.6982V83.1171H53.9106V79.3452Z" fill="#FFDFCA"/>
<path d="M56.9546 79.3452H55.7422V83.1171H56.9546V79.3452Z" fill="#FFDFCA"/>
<path d="M44.6411 83.8441H43.4287V87.616H44.6411V83.8441Z" fill="#FFDFCA"/>
<path d="M47.7934 83.8444H46.5811V87.6163H47.7934V83.8444Z" fill="#FFDFCA"/>
<path d="M50.8647 83.8441H49.6523V87.616H50.8647V83.8441Z" fill="#FFDFCA"/>
<path d="M53.9106 83.8444H52.6982V87.6163H53.9106V83.8444Z" fill="#FFDFCA"/>
<path d="M56.9546 83.8444H55.7422V87.6163H56.9546V83.8444Z" fill="#FFDFCA"/>
<path d="M44.6411 88.344H43.4287V92.1159H44.6411V88.344Z" fill="#FFDFCA"/>
<path d="M47.7934 88.3436H46.5811V92.1155H47.7934V88.3436Z" fill="#FFDFCA"/>
<path d="M50.8647 88.344H49.6523V92.1159H50.8647V88.344Z" fill="#FFDFCA"/>
<path d="M53.9106 88.3435H52.6982V92.1154H53.9106V88.3435Z" fill="#FFDFCA"/>
<path d="M56.9546 88.3435H55.7422V92.1154H56.9546V88.3435Z" fill="#FFDFCA"/>
<path d="M44.6411 92.8702H43.4287V96.6421H44.6411V92.8702Z" fill="#FFDFCA"/>
<path d="M47.7934 92.87H46.5811V96.6419H47.7934V92.87Z" fill="#FFDFCA"/>
<path d="M50.8647 92.8702H49.6523V96.6421H50.8647V92.8702Z" fill="#FFDFCA"/>
<path d="M53.9106 92.87H52.6982V96.6419H53.9106V92.87Z" fill="#FFDFCA"/>
<path d="M56.9546 92.87H55.7422V96.6419H56.9546V92.87Z" fill="#FFDFCA"/>
<path d="M44.6411 97.3695H43.4287V101.141H44.6411V97.3695Z" fill="#FFDFCA"/>
<path d="M47.7934 97.3695H46.5811V101.141H47.7934V97.3695Z" fill="#FFDFCA"/>
<path d="M50.8647 97.3695H49.6523V101.141H50.8647V97.3695Z" fill="#FFDFCA"/>
<path d="M53.9106 97.3695H52.6982V101.141H53.9106V97.3695Z" fill="#FFDFCA"/>
<path d="M56.9546 97.3695H55.7422V101.141H56.9546V97.3695Z" fill="#FFDFCA"/>
<path d="M44.6411 101.895H43.4287V105.667H44.6411V101.895Z" fill="#FFDFCA"/>
<path d="M47.7934 101.895H46.5811V105.667H47.7934V101.895Z" fill="#FFDFCA"/>
<path d="M50.8647 101.895H49.6523V105.667H50.8647V101.895Z" fill="#FFDFCA"/>
<path d="M53.9106 101.895H52.6982V105.667H53.9106V101.895Z" fill="#FFDFCA"/>
<path d="M56.9546 101.895H55.7422V105.667H56.9546V101.895Z" fill="#FFDFCA"/>
<path d="M44.6411 106.395H43.4287V110.167H44.6411V106.395Z" fill="#FFDFCA"/>
<path d="M47.7934 106.395H46.5811V110.167H47.7934V106.395Z" fill="#FFDFCA"/>
<path d="M50.8647 106.395H49.6523V110.167H50.8647V106.395Z" fill="#FFDFCA"/>
<path d="M53.9106 106.395H52.6982V110.167H53.9106V106.395Z" fill="#FFDFCA"/>
<path d="M56.9546 106.395H55.7422V110.167H56.9546V106.395Z" fill="#FFDFCA"/>
<path d="M44.6411 110.921H43.4287V114.693H44.6411V110.921Z" fill="#FFDFCA"/>
<path d="M47.7934 110.922H46.5811V114.693H47.7934V110.922Z" fill="#FFDFCA"/>
<path d="M50.8647 110.921H49.6523V114.693H50.8647V110.921Z" fill="#FFDFCA"/>
<path d="M53.9106 110.922H52.6982V114.694H53.9106V110.922Z" fill="#FFDFCA"/>
<path d="M56.9546 110.922H55.7422V114.694H56.9546V110.922Z" fill="#FFDFCA"/>
<path d="M79.746 55.2583H77.1865V62.2902H79.746V55.2583Z" fill="#E0995F"/>
<path d="M82.1711 61.2932H74.7891V70.9116H82.1711V61.2932Z" fill="#EFA66F"/>
<path d="M83.5998 66.8973H73.335V76.0577H83.5998V66.8973Z" fill="#E0995F"/>
<path d="M85.5665 73.3635H71.3682V111.379H85.5665V73.3635Z" fill="#D38346"/>
<path d="M80.8529 73.3635H76.165V111.379H80.8529V73.3635Z" fill="#C66D32"/>
<path d="M73.0153 75.0065H72.207V76.5691H73.0153V75.0065Z" fill="#F6CAA4"/>
<path d="M74.7936 75.0066H73.9854V76.5692H74.7936V75.0066Z" fill="#F6CAA4"/>
<path d="M73.0153 77.162H72.207V78.7246H73.0153V77.162Z" fill="#F6CAA4"/>
<path d="M74.7936 77.162H73.9854V78.7246H74.7936V77.162Z" fill="#F6CAA4"/>
<path d="M73.0153 79.2904H72.207V80.853H73.0153V79.2904Z" fill="#F6CAA4"/>
<path d="M74.7936 79.2904H73.9854V80.853H74.7936V79.2904Z" fill="#F6CAA4"/>
<path d="M73.0153 81.4186H72.207V82.9812H73.0153V81.4186Z" fill="#F6CAA4"/>
<path d="M74.7936 81.4186H73.9854V82.9812H74.7936V81.4186Z" fill="#F6CAA4"/>
<path d="M73.0153 83.5742H72.207V85.1369H73.0153V83.5742Z" fill="#F6CAA4"/>
<path d="M74.7936 83.5741H73.9854V85.1367H74.7936V83.5741Z" fill="#F6CAA4"/>
<path d="M73.0153 85.7024H72.207V87.265H73.0153V85.7024Z" fill="#F6CAA4"/>
<path d="M74.7936 85.7023H73.9854V87.2649H74.7936V85.7023Z" fill="#F6CAA4"/>
<path d="M73.0153 87.8583H72.207V89.4209H73.0153V87.8583Z" fill="#F6CAA4"/>
<path d="M74.7936 87.8583H73.9854V89.4209H74.7936V87.8583Z" fill="#F6CAA4"/>
<path d="M73.0153 89.9861H72.207V91.5487H73.0153V89.9861Z" fill="#F6CAA4"/>
<path d="M74.7936 89.9862H73.9854V91.5488H74.7936V89.9862Z" fill="#F6CAA4"/>
<path d="M73.0153 92.1145H72.207V93.6771H73.0153V92.1145Z" fill="#F6CAA4"/>
<path d="M74.7936 92.1146H73.9854V93.6773H74.7936V92.1146Z" fill="#F6CAA4"/>
<path d="M73.0153 94.2699H72.207V95.8325H73.0153V94.2699Z" fill="#F6CAA4"/>
<path d="M74.7936 94.2699H73.9854V95.8325H74.7936V94.2699Z" fill="#F6CAA4"/>
<path d="M73.0153 96.3988H72.207V97.9614H73.0153V96.3988Z" fill="#F6CAA4"/>
<path d="M74.7936 96.3988H73.9854V97.9614H74.7936V96.3988Z" fill="#F6CAA4"/>
<path d="M73.0153 98.5542H72.207V100.117H73.0153V98.5542Z" fill="#F6CAA4"/>
<path d="M74.7936 98.5543H73.9854V100.117H74.7936V98.5543Z" fill="#F6CAA4"/>
<path d="M73.0153 100.682H72.207V102.245H73.0153V100.682Z" fill="#F6CAA4"/>
<path d="M74.7936 100.682H73.9854V102.245H74.7936V100.682Z" fill="#F6CAA4"/>
<path d="M73.0153 102.811H72.207V104.373H73.0153V102.811Z" fill="#F6CAA4"/>
<path d="M74.7936 102.811H73.9854V104.373H74.7936V102.811Z" fill="#F6CAA4"/>
<path d="M73.0153 104.966H72.207V106.529H73.0153V104.966Z" fill="#F6CAA4"/>
<path d="M74.7936 104.966H73.9854V106.529H74.7936V104.966Z" fill="#F6CAA4"/>
<path d="M73.0153 107.095H72.207V108.657H73.0153V107.095Z" fill="#F6CAA4"/>
<path d="M74.7936 107.095H73.9854V108.657H74.7936V107.095Z" fill="#F6CAA4"/>
<path d="M73.0153 109.25H72.207V110.813H73.0153V109.25Z" fill="#F6CAA4"/>
<path d="M74.7936 109.25H73.9854V110.813H74.7936V109.25Z" fill="#F6CAA4"/>
<path d="M73.0153 111.379H72.207V112.941H73.0153V111.379Z" fill="#F6CAA4"/>
<path d="M74.7936 111.379H73.9854V112.941H74.7936V111.379Z" fill="#F6CAA4"/>
<path d="M73.0153 113.507H72.207V115.069H73.0153V113.507Z" fill="#F6CAA4"/>
<path d="M74.7936 113.507H73.9854V115.069H74.7936V113.507Z" fill="#F6CAA4"/>
<path d="M82.9811 75.0071H82.1729V76.5697H82.9811V75.0071Z" fill="#F6CAA4"/>
<path d="M84.7321 75.0071H83.9238V76.5697H84.7321V75.0071Z" fill="#F6CAA4"/>
<path d="M82.9811 77.162H82.1729V78.7246H82.9811V77.162Z" fill="#F6CAA4"/>
<path d="M84.7321 77.162H83.9238V78.7246H84.7321V77.162Z" fill="#F6CAA4"/>
<path d="M82.9811 79.2904H82.1729V80.853H82.9811V79.2904Z" fill="#F6CAA4"/>
<path d="M84.7321 79.2904H83.9238V80.853H84.7321V79.2904Z" fill="#F6CAA4"/>
<path d="M82.9811 81.4188H82.1729V82.9815H82.9811V81.4188Z" fill="#F6CAA4"/>
<path d="M84.7321 81.4188H83.9238V82.9815H84.7321V81.4188Z" fill="#F6CAA4"/>
<path d="M82.9811 83.5742H82.1729V85.1369H82.9811V83.5742Z" fill="#F6CAA4"/>
<path d="M84.7321 83.5742H83.9238V85.1369H84.7321V83.5742Z" fill="#F6CAA4"/>
<path d="M82.9811 85.703H82.1729V87.2657H82.9811V85.703Z" fill="#F6CAA4"/>
<path d="M84.7321 85.703H83.9238V87.2657H84.7321V85.703Z" fill="#F6CAA4"/>
<path d="M82.9811 87.8579H82.1729V89.4206H82.9811V87.8579Z" fill="#F6CAA4"/>
<path d="M84.7321 87.8579H83.9238V89.4206H84.7321V87.8579Z" fill="#F6CAA4"/>
<path d="M82.9811 89.9865H82.1729V91.5491H82.9811V89.9865Z" fill="#F6CAA4"/>
<path d="M84.7321 89.9865H83.9238V91.5491H84.7321V89.9865Z" fill="#F6CAA4"/>
<path d="M82.9811 92.1149H82.1729V93.6775H82.9811V92.1149Z" fill="#F6CAA4"/>
<path d="M84.7321 92.1146H83.9238V93.6773H84.7321V92.1146Z" fill="#F6CAA4"/>
<path d="M82.9811 94.2704H82.1729V95.833H82.9811V94.2704Z" fill="#F6CAA4"/>
<path d="M84.7321 94.2704H83.9238V95.833H84.7321V94.2704Z" fill="#F6CAA4"/>
<path d="M82.9811 96.3988H82.1729V97.9614H82.9811V96.3988Z" fill="#F6CAA4"/>
<path d="M84.7321 96.3988H83.9238V97.9614H84.7321V96.3988Z" fill="#F6CAA4"/>
<path d="M82.9811 98.5537H82.1729V100.116H82.9811V98.5537Z" fill="#F6CAA4"/>
<path d="M84.7321 98.5537H83.9238V100.116H84.7321V98.5537Z" fill="#F6CAA4"/>
<path d="M82.9811 100.682H82.1729V102.245H82.9811V100.682Z" fill="#F6CAA4"/>
<path d="M84.7321 100.682H83.9238V102.245H84.7321V100.682Z" fill="#F6CAA4"/>
<path d="M82.9811 102.811H82.1729V104.374H82.9811V102.811Z" fill="#F6CAA4"/>
<path d="M84.7321 102.811H83.9238V104.374H84.7321V102.811Z" fill="#F6CAA4"/>
<path d="M82.9811 104.966H82.1729V106.529H82.9811V104.966Z" fill="#F6CAA4"/>
<path d="M84.7321 104.966H83.9238V106.529H84.7321V104.966Z" fill="#F6CAA4"/>
<path d="M82.9811 107.095H82.1729V108.657H82.9811V107.095Z" fill="#F6CAA4"/>
<path d="M84.7321 107.095H83.9238V108.657H84.7321V107.095Z" fill="#F6CAA4"/>
<path d="M82.9811 109.25H82.1729V110.813H82.9811V109.25Z" fill="#F6CAA4"/>
<path d="M84.7321 109.25H83.9238V110.813H84.7321V109.25Z" fill="#F6CAA4"/>
<path d="M82.9811 111.379H82.1729V112.941H82.9811V111.379Z" fill="#F6CAA4"/>
<path d="M84.7321 111.379H83.9238V112.941H84.7321V111.379Z" fill="#F6CAA4"/>
<path d="M82.9811 113.507H82.1729V115.07H82.9811V113.507Z" fill="#F6CAA4"/>
<path d="M84.7321 113.507H83.9238V115.07H84.7321V113.507Z" fill="#F6CAA4"/>
<path d="M75.193 67.6249H74.3848V68.945H75.193V67.6249Z" fill="#F6CAA4"/>
<path d="M76.9713 67.6249H76.1631V68.945H76.9713V67.6249Z" fill="#F6CAA4"/>
<path d="M75.193 69.4565H74.3848V70.7767H75.193V69.4565Z" fill="#F6CAA4"/>
<path d="M76.9713 69.4565H76.1631V70.7767H76.9713V69.4565Z" fill="#F6CAA4"/>
<path d="M75.193 71.2886H74.3848V72.6087H75.193V71.2886Z" fill="#F6CAA4"/>
<path d="M76.9713 71.2886H76.1631V72.6087H76.9713V71.2886Z" fill="#F6CAA4"/>
<path d="M80.7985 67.6249H79.9902V68.945H80.7985V67.6249Z" fill="#F6CAA4"/>
<path d="M82.5768 67.6249H81.7686V68.945H82.5768V67.6249Z" fill="#F6CAA4"/>
<path d="M80.7985 69.4567H79.9902V70.7768H80.7985V69.4567Z" fill="#F6CAA4"/>
<path d="M82.5768 69.4567H81.7686V70.7768H82.5768V69.4567Z" fill="#F6CAA4"/>
<path d="M80.7985 71.2891H79.9902V72.6092H80.7985V71.2891Z" fill="#F6CAA4"/>
<path d="M82.5768 71.2892H81.7686V72.6094H82.5768V71.2892Z" fill="#F6CAA4"/>
<path d="M127.569 115.501H137.78V78.7786L131.126 77.5393L127.569 115.501Z" fill="#CC8C52"/>
<path d="M118.921 77.5394V87.1847H103.86V115.501H131.126V77.5394H118.921Z" fill="#EFB284"/>
<path d="M130.613 78.8054H119.917V79.6945H130.613V78.8054Z" fill="#C66D32"/>
<path d="M130.613 81.2841H119.917V82.1732H130.613V81.2841Z" fill="#C66D32"/>
<path d="M130.613 83.7899H119.917V84.679H130.613V83.7899Z" fill="#C66D32"/>
<path d="M130.613 86.2686H119.917V87.1576H130.613V86.2686Z" fill="#C66D32"/>
<path d="M130.586 88.7742H104.371V89.6633H130.586V88.7742Z" fill="#C66D32"/>
<path d="M130.586 91.2531H104.371V92.1421H130.586V91.2531Z" fill="#C66D32"/>
<path d="M130.586 93.7584H104.371V94.6475H130.586V93.7584Z" fill="#C66D32"/>
<path d="M130.586 96.2371H104.371V97.1262H130.586V96.2371Z" fill="#C66D32"/>
<path d="M130.586 98.7427H104.371V99.6318H130.586V98.7427Z" fill="#C66D32"/>
<path d="M130.586 101.222H104.371V102.111H130.586V101.222Z" fill="#C66D32"/>
<path d="M130.586 103.727H104.371V104.616H130.586V103.727Z" fill="#C66D32"/>
<path d="M130.586 106.206H104.371V107.095H130.586V106.206Z" fill="#C66D32"/>
<path d="M130.586 108.711H104.371V109.601H130.586V108.711Z" fill="#C66D32"/>
<path d="M130.586 111.19H104.371V112.079H130.586V111.19Z" fill="#C66D32"/>
<path d="M130.586 113.696H104.371V114.585H130.586V113.696Z" fill="#C66D32"/>
<path d="M97.6052 76.4353H85.6699V113.993H97.6052V76.4353Z" fill="#F6CAA4"/>
<path d="M97.6057 76.4349H92.0557V113.992H97.6057V76.4349Z" fill="#CC8C52"/>
<path d="M86.9369 77.432H86.3711V80.9345H86.9369V77.432Z" fill="#FFDFCA"/>
<path d="M88.015 77.4321H87.4492V80.9346H88.015V77.4321Z" fill="#FFDFCA"/>
<path d="M89.1195 77.4321H88.5537V80.9346H89.1195V77.4321Z" fill="#FFDFCA"/>
<path d="M90.1966 77.4321H89.6309V80.9346H90.1966V77.4321Z" fill="#FFDFCA"/>
<path d="M91.3011 77.4321H90.7354V80.9346H91.3011V77.4321Z" fill="#FFDFCA"/>
<path d="M86.9369 81.5272H86.3711V85.0297H86.9369V81.5272Z" fill="#FFDFCA"/>
<path d="M88.015 81.5272H87.4492V85.0297H88.015V81.5272Z" fill="#FFDFCA"/>
<path d="M89.1195 81.5272H88.5537V85.0297H89.1195V81.5272Z" fill="#FFDFCA"/>
<path d="M90.1966 81.5272H89.6309V85.0297H90.1966V81.5272Z" fill="#FFDFCA"/>
<path d="M91.3011 81.5272H90.7354V85.0297H91.3011V81.5272Z" fill="#FFDFCA"/>
<path d="M86.9369 85.6226H86.3711V89.125H86.9369V85.6226Z" fill="#FFDFCA"/>
<path d="M88.015 85.6224H87.4492V89.1249H88.015V85.6224Z" fill="#FFDFCA"/>
<path d="M89.1195 85.6224H88.5537V89.1249H89.1195V85.6224Z" fill="#FFDFCA"/>
<path d="M90.1966 85.6224H89.6309V89.1249H90.1966V85.6224Z" fill="#FFDFCA"/>
<path d="M91.3011 85.6224H90.7354V89.1249H91.3011V85.6224Z" fill="#FFDFCA"/>
<path d="M86.9369 89.7175H86.3711V93.22H86.9369V89.7175Z" fill="#FFDFCA"/>
<path d="M88.015 89.7177H87.4492V93.2201H88.015V89.7177Z" fill="#FFDFCA"/>
<path d="M89.1195 89.7177H88.5537V93.2201H89.1195V89.7177Z" fill="#FFDFCA"/>
<path d="M90.1966 89.7177H89.6309V93.2201H90.1966V89.7177Z" fill="#FFDFCA"/>
<path d="M91.3011 89.7177H90.7354V93.2201H91.3011V89.7177Z" fill="#FFDFCA"/>
<path d="M86.9369 93.8129H86.3711V97.3153H86.9369V93.8129Z" fill="#FFDFCA"/>
<path d="M88.015 93.8129H87.4492V97.3153H88.015V93.8129Z" fill="#FFDFCA"/>
<path d="M89.1195 93.8129H88.5537V97.3153H89.1195V93.8129Z" fill="#FFDFCA"/>
<path d="M90.1966 93.8129H89.6309V97.3153H90.1966V93.8129Z" fill="#FFDFCA"/>
<path d="M91.3011 93.8129H90.7354V97.3153H91.3011V93.8129Z" fill="#FFDFCA"/>
<path d="M86.9369 97.908H86.3711V101.41H86.9369V97.908Z" fill="#FFDFCA"/>
<path d="M88.015 97.9078H87.4492V101.41H88.015V97.9078Z" fill="#FFDFCA"/>
<path d="M89.1195 97.9078H88.5537V101.41H89.1195V97.9078Z" fill="#FFDFCA"/>
<path d="M90.1966 97.9078H89.6309V101.41H90.1966V97.9078Z" fill="#FFDFCA"/>
<path d="M91.3011 97.9078H90.7354V101.41H91.3011V97.9078Z" fill="#FFDFCA"/>
<path d="M86.9369 102.003H86.3711V105.505H86.9369V102.003Z" fill="#FFDFCA"/>
<path d="M88.015 102.003H87.4492V105.506H88.015V102.003Z" fill="#FFDFCA"/>
<path d="M89.1195 102.003H88.5537V105.506H89.1195V102.003Z" fill="#FFDFCA"/>
<path d="M90.1966 102.003H89.6309V105.506H90.1966V102.003Z" fill="#FFDFCA"/>
<path d="M91.3011 102.003H90.7354V105.506H91.3011V102.003Z" fill="#FFDFCA"/>
<path d="M86.9369 106.099H86.3711V109.601H86.9369V106.099Z" fill="#FFDFCA"/>
<path d="M88.015 106.099H87.4492V109.601H88.015V106.099Z" fill="#FFDFCA"/>
<path d="M89.1195 106.099H88.5537V109.601H89.1195V106.099Z" fill="#FFDFCA"/>
<path d="M90.1966 106.099H89.6309V109.601H90.1966V106.099Z" fill="#FFDFCA"/>
<path d="M91.3011 106.099H90.7354V109.601H91.3011V106.099Z" fill="#FFDFCA"/>
<path d="M86.9369 110.166H86.3711V113.669H86.9369V110.166Z" fill="#FFDFCA"/>
<path d="M88.015 110.166H87.4492V113.669H88.015V110.166Z" fill="#FFDFCA"/>
<path d="M89.1195 110.166H88.5537V113.669H89.1195V110.166Z" fill="#FFDFCA"/>
<path d="M90.1966 110.166H89.6309V113.669H90.1966V110.166Z" fill="#FFDFCA"/>
<path d="M91.3011 110.166H90.7354V113.669H91.3011V110.166Z" fill="#FFDFCA"/>
<path d="M93.3219 77.4319H92.8369V80.9344H93.3219V77.4319Z" fill="#F6CAA4"/>
<path d="M94.2369 77.4319H93.752V80.9344H94.2369V77.4319Z" fill="#F6CAA4"/>
<path d="M95.1822 77.4319H94.6973V80.9344H95.1822V77.4319Z" fill="#F6CAA4"/>
<path d="M96.0973 77.4319H95.6123V80.9344H96.0973V77.4319Z" fill="#F6CAA4"/>
<path d="M97.0406 77.4319H96.5557V80.9344H97.0406V77.4319Z" fill="#F6CAA4"/>
<path d="M93.3219 81.5271H92.8369V85.0296H93.3219V81.5271Z" fill="#F6CAA4"/>
<path d="M94.2369 81.5271H93.752V85.0296H94.2369V81.5271Z" fill="#F6CAA4"/>
<path d="M95.1822 81.5271H94.6973V85.0296H95.1822V81.5271Z" fill="#F6CAA4"/>
<path d="M96.0973 81.5271H95.6123V85.0296H96.0973V81.5271Z" fill="#F6CAA4"/>
<path d="M97.0406 81.5271H96.5557V85.0296H97.0406V81.5271Z" fill="#F6CAA4"/>
<path d="M93.3219 85.6224H92.8369V89.1249H93.3219V85.6224Z" fill="#F6CAA4"/>
<path d="M94.2369 85.6224H93.752V89.1249H94.2369V85.6224Z" fill="#F6CAA4"/>
<path d="M95.1822 85.6224H94.6973V89.1249H95.1822V85.6224Z" fill="#F6CAA4"/>
<path d="M96.0973 85.6224H95.6123V89.1249H96.0973V85.6224Z" fill="#F6CAA4"/>
<path d="M97.0406 85.6224H96.5557V89.1249H97.0406V85.6224Z" fill="#F6CAA4"/>
<path d="M93.3219 89.7175H92.8369V93.22H93.3219V89.7175Z" fill="#F6CAA4"/>
<path d="M94.2369 89.7175H93.752V93.22H94.2369V89.7175Z" fill="#F6CAA4"/>
<path d="M95.1822 89.7175H94.6973V93.22H95.1822V89.7175Z" fill="#F6CAA4"/>
<path d="M96.0973 89.7175H95.6123V93.22H96.0973V89.7175Z" fill="#F6CAA4"/>
<path d="M97.0406 89.7175H96.5557V93.22H97.0406V89.7175Z" fill="#F6CAA4"/>
<path d="M93.3219 93.8127H92.8369V97.3152H93.3219V93.8127Z" fill="#F6CAA4"/>
<path d="M94.2369 93.8127H93.752V97.3152H94.2369V93.8127Z" fill="#F6CAA4"/>
<path d="M95.1822 93.8127H94.6973V97.3152H95.1822V93.8127Z" fill="#F6CAA4"/>
<path d="M96.0973 93.8127H95.6123V97.3152H96.0973V93.8127Z" fill="#F6CAA4"/>
<path d="M97.0406 93.8127H96.5557V97.3152H97.0406V93.8127Z" fill="#F6CAA4"/>
<path d="M93.3219 97.9073H92.8369V101.41H93.3219V97.9073Z" fill="#F6CAA4"/>
<path d="M94.2369 97.9073H93.752V101.41H94.2369V97.9073Z" fill="#F6CAA4"/>
<path d="M95.1822 97.9073H94.6973V101.41H95.1822V97.9073Z" fill="#F6CAA4"/>
<path d="M96.0973 97.9073H95.6123V101.41H96.0973V97.9073Z" fill="#F6CAA4"/>
<path d="M97.0406 97.9073H96.5557V101.41H97.0406V97.9073Z" fill="#F6CAA4"/>
<path d="M93.3219 102.003H92.8369V105.506H93.3219V102.003Z" fill="#F6CAA4"/>
<path d="M94.2369 102.003H93.752V105.506H94.2369V102.003Z" fill="#F6CAA4"/>
<path d="M95.1822 102.003H94.6973V105.506H95.1822V102.003Z" fill="#F6CAA4"/>
<path d="M96.0973 102.003H95.6123V105.506H96.0973V102.003Z" fill="#F6CAA4"/>
<path d="M97.0406 102.003H96.5557V105.506H97.0406V102.003Z" fill="#F6CAA4"/>
<path d="M93.3219 106.098H92.8369V109.6H93.3219V106.098Z" fill="#F6CAA4"/>
<path d="M94.2369 106.098H93.752V109.6H94.2369V106.098Z" fill="#F6CAA4"/>
<path d="M95.1822 106.098H94.6973V109.6H95.1822V106.098Z" fill="#F6CAA4"/>
<path d="M96.0973 106.098H95.6123V109.6H96.0973V106.098Z" fill="#F6CAA4"/>
<path d="M97.0406 106.098H96.5557V109.6H97.0406V106.098Z" fill="#F6CAA4"/>
<path d="M93.3219 110.167H92.8369V113.669H93.3219V110.167Z" fill="#F6CAA4"/>
<path d="M94.2369 110.166H93.752V113.669H94.2369V110.166Z" fill="#F6CAA4"/>
<path d="M95.1822 110.166H94.6973V113.669H95.1822V110.166Z" fill="#F6CAA4"/>
<path d="M96.0973 110.166H95.6123V113.669H96.0973V110.166Z" fill="#F6CAA4"/>
<path d="M97.0406 110.166H96.5557V113.669H97.0406V110.166Z" fill="#F6CAA4"/>
<path d="M98.3079 75.5459H84.9717V78.0515H98.3079V75.5459Z" fill="#EFB284"/>
<path d="M98.3076 75.5458H91.626V78.0514H98.3076V75.5458Z" fill="#CC8C52"/>
<path d="M98.3079 100.71H84.9717V103.08H98.3079V100.71Z" fill="#CC8C52"/>
<path d="M98.3076 100.71H91.626V103.081H98.3076V100.71Z" fill="#AF723F"/>
<path d="M122.125 117.225H87.8545V98.5541L91.0875 94.6475H118.892L122.125 98.5541V117.225Z" fill="#FFD1B8"/>
<path d="M87.8545 98.5541L91.0875 94.6475H118.892L122.125 98.5541H87.8545Z" fill="#FFDFCA"/>
<path d="M96.3675 97.1258H93.377V93.8388L94.8588 93.1653L96.3675 93.8388V97.1258Z" fill="#FFD1B8"/>
<path d="M95.8289 94.2704H93.916V95.1595H95.8289V94.2704Z" fill="#CC8C52"/>
<path d="M106.499 97.1258H103.481V93.8388L104.99 93.1653L106.499 93.8388V97.1258Z" fill="#FFD1B8"/>
<path d="M105.96 94.27H104.047V95.1591H105.96V94.27Z" fill="#CC8C52"/>
<path d="M116.602 97.1265H113.611V93.8396L115.12 93.166L116.602 93.8396V97.1265Z" fill="#FFD1B8"/>
<path d="M116.063 94.2706H114.15V95.1597H116.063V94.2706Z" fill="#CC8C52"/>
<path d="M90.1991 99.9011H89.0137V102.757H90.1991V99.9011Z" fill="#CC8C52"/>
<path d="M92.5702 99.9011H91.3848V102.757H92.5702V99.9011Z" fill="#CC8C52"/>
<path d="M94.9413 99.9011H93.7559V102.757H94.9413V99.9011Z" fill="#CC8C52"/>
<path d="M97.3104 99.9011H96.125V102.757H97.3104V99.9011Z" fill="#CC8C52"/>
<path d="M99.7099 99.9011H98.5244V102.757H99.7099V99.9011Z" fill="#CC8C52"/>
<path d="M102.081 99.9011H100.896V102.757H102.081V99.9011Z" fill="#CC8C52"/>
<path d="M104.451 99.9011H103.266V102.757H104.451V99.9011Z" fill="#CC8C52"/>
<path d="M106.823 99.9011H105.638V102.757H106.823V99.9011Z" fill="#CC8C52"/>
<path d="M109.193 99.9011H108.008V102.757H109.193V99.9011Z" fill="#CC8C52"/>
<path d="M111.563 99.9011H110.378V102.757H111.563V99.9011Z" fill="#CC8C52"/>
<path d="M113.935 99.9011H112.75V102.757H113.935V99.9011Z" fill="#CC8C52"/>
<path d="M116.306 99.9011H115.12V102.757H116.306V99.9011Z" fill="#CC8C52"/>
<path d="M118.704 99.9011H117.519V102.757H118.704V99.9011Z" fill="#CC8C52"/>
<path d="M121.075 99.9011H119.89V102.757H121.075V99.9011Z" fill="#CC8C52"/>
<path d="M90.1991 103.62H89.0137V106.475H90.1991V103.62Z" fill="#CC8C52"/>
<path d="M92.5702 103.62H91.3848V106.475H92.5702V103.62Z" fill="#CC8C52"/>
<path d="M94.9413 103.62H93.7559V106.475H94.9413V103.62Z" fill="#CC8C52"/>
<path d="M97.3104 103.62H96.125V106.475H97.3104V103.62Z" fill="#CC8C52"/>
<path d="M99.7099 103.62H98.5244V106.475H99.7099V103.62Z" fill="#CC8C52"/>
<path d="M102.081 103.62H100.896V106.475H102.081V103.62Z" fill="#CC8C52"/>
<path d="M104.451 103.62H103.266V106.475H104.451V103.62Z" fill="#CC8C52"/>
<path d="M106.823 103.62H105.638V106.475H106.823V103.62Z" fill="#CC8C52"/>
<path d="M109.193 103.62H108.008V106.475H109.193V103.62Z" fill="#CC8C52"/>
<path d="M111.563 103.62H110.378V106.475H111.563V103.62Z" fill="#CC8C52"/>
<path d="M113.935 103.62H112.75V106.475H113.935V103.62Z" fill="#CC8C52"/>
<path d="M116.306 103.62H115.12V106.475H116.306V103.62Z" fill="#CC8C52"/>
<path d="M118.704 103.62H117.519V106.475H118.704V103.62Z" fill="#CC8C52"/>
<path d="M121.075 103.62H119.89V106.475H121.075V103.62Z" fill="#CC8C52"/>
<path d="M90.1991 108.765H89.0137V111.621H90.1991V108.765Z" fill="#CC8C52"/>
<path d="M92.5702 108.765H91.3848V111.621H92.5702V108.765Z" fill="#CC8C52"/>
<path d="M94.9413 108.765H93.7559V111.621H94.9413V108.765Z" fill="#CC8C52"/>
<path d="M97.3104 108.765H96.125V111.621H97.3104V108.765Z" fill="#CC8C52"/>
<path d="M99.7099 108.765H98.5244V111.621H99.7099V108.765Z" fill="#CC8C52"/>
<path d="M102.081 108.765H100.896V111.621H102.081V108.765Z" fill="#CC8C52"/>
<path d="M104.451 108.765H103.266V111.621H104.451V108.765Z" fill="#CC8C52"/>
<path d="M106.823 108.765H105.638V111.621H106.823V108.765Z" fill="#CC8C52"/>
<path d="M109.193 108.765H108.008V111.621H109.193V108.765Z" fill="#CC8C52"/>
<path d="M111.563 108.765H110.378V111.621H111.563V108.765Z" fill="#CC8C52"/>
<path d="M113.935 108.765H112.75V111.621H113.935V108.765Z" fill="#CC8C52"/>
<path d="M116.306 108.765H115.12V111.621H116.306V108.765Z" fill="#CC8C52"/>
<path d="M118.704 108.765H117.519V111.621H118.704V108.765Z" fill="#CC8C52"/>
<path d="M121.075 108.765H119.89V111.621H121.075V108.765Z" fill="#CC8C52"/>
<path d="M90.1991 112.375H89.0137V115.231H90.1991V112.375Z" fill="#CC8C52"/>
<path d="M92.5702 112.375H91.3848V115.231H92.5702V112.375Z" fill="#CC8C52"/>
<path d="M94.9413 112.375H93.7559V115.231H94.9413V112.375Z" fill="#CC8C52"/>
<path d="M97.3104 112.375H96.125V115.231H97.3104V112.375Z" fill="#CC8C52"/>
<path d="M99.7099 112.375H98.5244V115.231H99.7099V112.375Z" fill="#CC8C52"/>
<path d="M102.081 112.375H100.896V115.231H102.081V112.375Z" fill="#CC8C52"/>
<path d="M104.451 112.375H103.266V115.231H104.451V112.375Z" fill="#CC8C52"/>
<path d="M106.823 112.375H105.638V115.231H106.823V112.375Z" fill="#CC8C52"/>
<path d="M109.193 112.375H108.008V115.231H109.193V112.375Z" fill="#CC8C52"/>
<path d="M111.563 112.375H110.378V115.231H111.563V112.375Z" fill="#CC8C52"/>
<path d="M113.935 112.375H112.75V115.231H113.935V112.375Z" fill="#CC8C52"/>
<path d="M116.306 112.375H115.12V115.231H116.306V112.375Z" fill="#CC8C52"/>
<path d="M118.704 112.375H117.519V115.231H118.704V112.375Z" fill="#CC8C52"/>
<path d="M121.075 112.375H119.89V115.231H121.075V112.375Z" fill="#CC8C52"/>
<path d="M86.6415 116.714V95.942L82.1152 92.709V116.714H86.6415Z" fill="#CC8C52"/>
<path d="M82.1427 92.7089H59.5654V116.714H82.1427V92.7089Z" fill="#F6CAA4"/>
<path d="M82.4657 94.8103H59.2148V95.6186H82.4657V94.8103Z" fill="#CC8C52"/>
<path d="M61.7478 96.2111H60.293V99.6866H61.7478V96.2111Z" fill="#CC8C52"/>
<path d="M63.7146 96.2109H62.2598V99.6865H63.7146V96.2109Z" fill="#CC8C52"/>
<path d="M65.6804 96.2109H64.2256V99.6865H65.6804V96.2109Z" fill="#CC8C52"/>
<path d="M67.6482 96.2109H66.1934V99.6865H67.6482V96.2109Z" fill="#CC8C52"/>
<path d="M69.615 96.2109H68.1602V99.6865H69.615V96.2109Z" fill="#CC8C52"/>
<path d="M71.5818 96.2109H70.127V99.6865H71.5818V96.2109Z" fill="#CC8C52"/>
<path d="M73.5486 96.2109H72.0938V99.6865H73.5486V96.2109Z" fill="#CC8C52"/>
<path d="M75.4871 96.2109H74.0322V99.6865H75.4871V96.2109Z" fill="#CC8C52"/>
<path d="M77.4558 96.2109H76.001V99.6865H77.4558V96.2109Z" fill="#CC8C52"/>
<path d="M79.4217 96.2109H77.9668V99.6865H79.4217V96.2109Z" fill="#CC8C52"/>
<path d="M81.3875 96.2109H79.9326V99.6865H81.3875V96.2109Z" fill="#CC8C52"/>
<path d="M61.7478 100.387H60.293V103.863H61.7478V100.387Z" fill="#CC8C52"/>
<path d="M63.7146 100.387H62.2598V103.863H63.7146V100.387Z" fill="#CC8C52"/>
<path d="M65.6804 100.387H64.2256V103.863H65.6804V100.387Z" fill="#CC8C52"/>
<path d="M67.6482 100.387H66.1934V103.863H67.6482V100.387Z" fill="#CC8C52"/>
<path d="M69.615 100.387H68.1602V103.863H69.615V100.387Z" fill="#CC8C52"/>
<path d="M71.5818 100.387H70.127V103.863H71.5818V100.387Z" fill="#CC8C52"/>
<path d="M73.5486 100.387H72.0938V103.863H73.5486V100.387Z" fill="#CC8C52"/>
<path d="M75.4871 100.387H74.0322V103.863H75.4871V100.387Z" fill="#CC8C52"/>
<path d="M77.4558 100.387H76.001V103.863H77.4558V100.387Z" fill="#CC8C52"/>
<path d="M79.4217 100.387H77.9668V103.863H79.4217V100.387Z" fill="#CC8C52"/>
<path d="M81.3875 100.387H79.9326V103.863H81.3875V100.387Z" fill="#CC8C52"/>
<path d="M61.7478 104.536H60.293V108.012H61.7478V104.536Z" fill="#CC8C52"/>
<path d="M63.7146 104.536H62.2598V108.012H63.7146V104.536Z" fill="#CC8C52"/>
<path d="M65.6804 104.536H64.2256V108.012H65.6804V104.536Z" fill="#CC8C52"/>
<path d="M67.6482 104.536H66.1934V108.012H67.6482V104.536Z" fill="#CC8C52"/>
<path d="M69.615 104.536H68.1602V108.012H69.615V104.536Z" fill="#CC8C52"/>
<path d="M71.5818 104.536H70.127V108.012H71.5818V104.536Z" fill="#CC8C52"/>
<path d="M73.5486 104.536H72.0938V108.012H73.5486V104.536Z" fill="#CC8C52"/>
<path d="M75.4871 104.536H74.0322V108.012H75.4871V104.536Z" fill="#CC8C52"/>
<path d="M77.4558 104.536H76.001V108.012H77.4558V104.536Z" fill="#CC8C52"/>
<path d="M79.4217 104.536H77.9668V108.012H79.4217V104.536Z" fill="#CC8C52"/>
<path d="M81.3875 104.536H79.9326V108.012H81.3875V104.536Z" fill="#CC8C52"/>
<path d="M61.7478 108.712H60.293V112.188H61.7478V108.712Z" fill="#CC8C52"/>
<path d="M63.7146 108.712H62.2598V112.188H63.7146V108.712Z" fill="#CC8C52"/>
<path d="M65.6804 108.712H64.2256V112.188H65.6804V108.712Z" fill="#CC8C52"/>
<path d="M67.6482 108.712H66.1934V112.188H67.6482V108.712Z" fill="#CC8C52"/>
<path d="M69.615 108.712H68.1602V112.188H69.615V108.712Z" fill="#CC8C52"/>
<path d="M71.5818 108.712H70.127V112.188H71.5818V108.712Z" fill="#CC8C52"/>
<path d="M73.5486 108.712H72.0938V112.188H73.5486V108.712Z" fill="#CC8C52"/>
<path d="M75.4871 108.712H74.0322V112.188H75.4871V108.712Z" fill="#CC8C52"/>
<path d="M77.4558 108.712H76.001V112.188H77.4558V108.712Z" fill="#CC8C52"/>
<path d="M79.4217 108.712H77.9668V112.188H79.4217V108.712Z" fill="#CC8C52"/>
<path d="M81.3875 108.712H79.9326V112.188H81.3875V108.712Z" fill="#CC8C52"/>
<path d="M61.7478 112.888H60.293V116.363H61.7478V112.888Z" fill="#CC8C52"/>
<path d="M63.7146 112.888H62.2598V116.363H63.7146V112.888Z" fill="#CC8C52"/>
<path d="M65.6804 112.888H64.2256V116.363H65.6804V112.888Z" fill="#CC8C52"/>
<path d="M67.6482 112.888H66.1934V116.363H67.6482V112.888Z" fill="#CC8C52"/>
<path d="M69.615 112.888H68.1602V116.363H69.615V112.888Z" fill="#CC8C52"/>
<path d="M71.5818 112.888H70.127V116.363H71.5818V112.888Z" fill="#CC8C52"/>
<path d="M73.5486 112.888H72.0938V116.363H73.5486V112.888Z" fill="#CC8C52"/>
<path d="M75.4871 112.888H74.0322V116.363H75.4871V112.888Z" fill="#CC8C52"/>
<path d="M77.4558 112.888H76.001V116.363H77.4558V112.888Z" fill="#CC8C52"/>
<path d="M79.4217 112.888H77.9668V116.363H79.4217V112.888Z" fill="#CC8C52"/>
<path d="M81.3875 112.888H79.9326V116.363H81.3875V112.888Z" fill="#CC8C52"/>
<path d="M5.65286 93.1927H-1.51367V112.78H5.65286V93.1927Z" fill="#52BDE8"/>
<path d="M6.19245 93.085H-2.05176V93.7585H6.19245V93.085Z" fill="#A0D9EA"/>
<path d="M6.19245 96.2642H-2.05176V96.9377H6.19245V96.2642Z" fill="#A0D9EA"/>
<path d="M6.19245 99.4429H-2.05176V100.116H6.19245V99.4429Z" fill="#A0D9EA"/>
<path d="M6.19245 102.622H-2.05176V103.296H6.19245V102.622Z" fill="#A0D9EA"/>
<path d="M6.19245 105.802H-2.05176V106.475H6.19245V105.802Z" fill="#A0D9EA"/>
<path d="M6.19245 108.98H-2.05176V109.654H6.19245V108.98Z" fill="#A0D9EA"/>
<path d="M4.41579 93.408H4.33496V112.752H4.41579V93.408Z" fill="#A0D9EA"/>
<path d="M3.15016 93.408H3.06934V112.752H3.15016V93.408Z" fill="#A0D9EA"/>
<path d="M1.90993 93.408H1.8291V112.752H1.90993V93.408Z" fill="#A0D9EA"/>
<path d="M0.64235 93.4081H0.561523V112.753H0.64235V93.4081Z" fill="#A0D9EA"/>
<path d="M38.2296 114.504C38.2296 114.504 41.8667 116.336 47.7939 117.226C53.7211 118.115 53.5595 117.603 56.55 118.142C59.5406 118.707 60.726 118.384 63.3124 118.384C65.8989 118.384 67.5154 119.004 70.0479 118.869C72.5804 118.734 75.2746 118.627 77.4569 118.896C79.6392 119.138 92.2749 119.947 97.3131 119.489C102.351 119.031 103.321 120.055 106.473 119.623C109.625 119.219 120.241 120.513 123.985 119.731C127.73 118.95 133.712 119.408 137.295 119.138C140.878 118.869 151.655 117.899 153.675 117.226C155.696 116.579 159.468 115.717 161.623 114.801C163.779 113.885 159.71 111.217 158.794 112.268C157.878 113.319 156.962 113.319 156.962 113.319C156.962 113.319 153.648 110.301 152.894 112.107C152.14 113.939 148.934 110.598 146.859 113.696C142.953 110.867 139.558 112.915 138.615 113.939C136.756 112.538 135.49 112.511 134.439 114.262C130.963 110.786 127.003 112.026 127.057 114.37C125.09 114.612 125.602 117.037 125.629 117.522C122.207 115.825 121.965 117.306 121.507 117.872C119.89 114.397 116.55 115.798 115.714 116.525C113.936 113.346 109.033 111.756 108.602 114.046C105.638 111.244 104.291 112.457 103.267 113.588C100.896 113.238 99.6031 115.825 99.7109 117.253C97.6094 114.046 95.5349 116.39 94.3764 117.737C92.8407 113.696 87.8565 112.565 85.5934 114.612C83.2494 111.81 79.9086 112.78 79.9625 114.316C77.5108 114.154 76.5948 114.855 76.1906 115.771C74.0622 111.837 72.2033 115.798 71.395 116.525C69.6438 114.019 68.2159 114.477 67.677 115.771C65.7103 113.103 60.9416 114.181 60.3219 115.771C58.5437 113.265 57.3044 114.962 57.3044 115.097C56.6309 112.78 54.5294 113.265 54.2869 114.046C52.3471 112.834 50.1648 114.073 49.3027 115.097C48.4405 116.148 47.5784 113.184 46.2582 114.747C36.182 111.514 38.2296 114.504 38.2296 114.504Z" fill="#629B0A"/>
<path d="M1.29108 112.726C0.752247 112.133 0.18647 111.541 -0.540958 111.19C-1.26839 110.84 -2.18441 110.813 -2.80408 111.325C-3.01961 111.514 -3.18126 111.729 -3.42374 111.864C-3.96258 112.133 -4.58224 111.81 -5.17496 111.81C-6.14487 111.837 -7.08783 112.78 -7.97691 112.376C-8.48881 112.16 -8.70434 111.568 -9.0007 111.083C-9.29706 110.598 -9.80896 110.14 -10.3478 110.355C-10.7789 110.517 -10.9136 111.056 -11.1022 111.46C-11.2908 111.891 -11.7488 112.322 -12.1529 112.08C-12.3145 111.972 -12.4223 111.81 -12.557 111.675C-13.0689 111.244 -13.8233 111.675 -14.3352 112.106C-14.8471 111.621 -15.1973 111.029 -15.7092 110.544C-16.1942 110.059 -16.8677 109.682 -17.5413 109.789C-18.1609 109.897 -18.6728 110.544 -18.5381 111.11C-18.7537 110.544 -18.9961 109.978 -19.4811 109.628C-20.0199 109.251 -20.909 109.278 -21.1784 109.87C-21.5287 108.981 -21.5825 107.742 -22.9835 107.742C-23.8726 107.93 -23.711 108.954 -24.169 109.52C-24.6 110.086 -25.4891 110.463 -26.001 109.978C-26.1088 109.87 -26.2165 109.736 -26.3513 109.709C-26.5129 109.682 -26.6746 109.816 -26.7823 109.951C-27.2134 110.517 -27.5098 111.163 -27.6175 111.864C-28.3988 111.945 -29.2071 111.648 -29.7729 111.11C-30.0153 110.867 -30.2309 110.571 -30.5542 110.409C-30.8775 110.274 -31.3624 110.382 -31.4163 110.732C-32.1707 110.247 -32.952 109.762 -33.7064 109.278C-34.2722 109.439 -34.2722 110.113 -34.6763 110.436C-35.3229 110.975 -36.0773 110.652 -36.8586 110.49C-37.7477 110.328 -37.9093 109.978 -38.2057 111.137C-38.6906 112.915 -38.1518 112.807 -36.0234 112.753C-33.9219 112.699 -26.8093 113.049 -24.7347 112.78C-23.8726 112.672 -22.9835 112.538 -22.1483 112.753C-21.8789 112.807 -21.6095 112.915 -21.3401 112.942C-21.0168 112.969 -20.6935 112.942 -20.3432 112.888C-18.5651 112.645 -16.733 112.699 -14.9549 113.022C-13.7964 113.238 -11.6949 113.265 -10.5094 113.292C-9.99755 113.319 -9.45871 113.265 -8.94682 113.238C-5.22884 112.942 -1.53781 113.022 1.66827 112.942C1.69521 112.969 1.29108 112.861 1.29108 112.726Z" fill="#7EB51F"/>
<path d="M38.7403 112.996C38.2015 112.403 37.6357 111.81 36.9083 111.46C36.1808 111.11 35.2648 111.083 34.6451 111.595C34.4296 111.783 34.268 111.999 34.0255 112.133C33.4866 112.403 32.867 112.079 32.2743 112.079C31.3043 112.106 30.3614 113.049 29.4723 112.645C28.9604 112.43 28.7449 111.837 28.4485 111.352C28.1522 110.867 27.6403 110.409 27.1014 110.625C26.6704 110.786 26.5356 111.325 26.347 111.729C26.1585 112.16 25.7004 112.591 25.2963 112.349C25.1347 112.241 25.0269 112.079 24.8922 111.945C24.3803 111.514 23.6259 111.945 23.114 112.376C22.6021 111.891 22.2519 111.298 21.74 110.813C21.255 110.328 20.5815 109.951 19.9079 110.059C19.2883 110.167 18.7764 110.813 18.9111 111.379C18.6956 110.813 18.4531 110.247 17.9681 109.897C17.4293 109.52 16.5402 109.547 16.2708 110.14C15.9206 109.251 15.8667 108.011 14.4657 108.011C13.5766 108.2 13.7383 109.224 13.2803 109.789C12.8492 110.355 11.9601 110.732 11.4482 110.247C11.3404 110.14 11.2327 110.005 11.098 109.978C10.9363 109.951 10.7747 110.086 10.6669 110.22C10.2358 110.786 9.93946 111.433 9.8317 112.133C9.05038 112.214 8.24213 111.918 7.67635 111.379C7.43387 111.137 7.21834 110.84 6.89503 110.678C6.57173 110.544 6.08678 110.652 6.03289 111.002C5.27852 110.517 4.49721 110.032 3.74284 109.547C3.17706 109.709 3.17706 110.382 2.77293 110.705C2.12632 111.244 1.37195 110.921 0.590641 110.759C-0.29844 110.598 -0.460091 110.247 -0.756451 111.406C-1.2414 113.184 -0.70257 113.076 1.42584 113.022C3.5273 112.969 11.6099 114.073 13.6844 113.804C14.5465 113.696 14.9237 113.912 15.7858 114.127C16.0553 114.181 16.7827 114.1 17.0521 114.127C17.3754 114.154 18.7764 114.423 19.0997 114.397C20.8779 114.154 21.3089 114.423 23.0871 114.747C24.2456 114.962 26.2932 114.72 27.4517 114.774C27.9636 114.801 31.2774 114.881 31.7893 114.855C35.5073 114.558 38.6056 114.935 41.3267 115.609C41.4075 115.609 38.7672 113.13 38.7403 112.996Z" fill="#7EB51F"/>
</svg>
