<svg width="57" height="51" viewBox="0 0 57 51" fill="none" xmlns="http://www.w3.org/2000/svg">
<g clip-path="url(#clip0_250_4301)">
<path d="M57 47.8691H0V51.0001H57V47.8691Z" fill="#95A5A6"/>
<path d="M54.0873 45.0164H2.91211V48.1473H54.0873V45.0164Z" fill="#95A5A6"/>
<path d="M51.1756 42.1638H5.75586V45.2948H51.1756V42.1638Z" fill="#95A5A6"/>
<path d="M51.1756 17.0464H5.75586V20.1774H51.1756V17.0464Z" fill="#ECF0F1"/>
<path d="M56.1681 48.6343H6.93457V50.9999H56.1681V48.6343Z" fill="white"/>
<path d="M53.2555 45.7817H9.77734V48.1474H53.2555V45.7817Z" fill="white"/>
<path d="M50.4131 42.9985H12.6904V45.3642H50.4131V42.9985Z" fill="white"/>
<path d="M15.8795 20.1772H10.0547V42.2332H15.8795V20.1772Z" fill="white"/>
<path d="M26.2115 20.1772H20.3867V42.2332H26.2115V20.1772Z" fill="white"/>
<path d="M36.5436 20.1772H30.7188V42.2332H36.5436V20.1772Z" fill="white"/>
<path d="M46.9449 20.1772H41.1201V42.2332H46.9449V20.1772Z" fill="white"/>
<path d="M8.66797 40.7722C8.66797 40.0068 9.29206 39.3806 10.0548 39.3806C10.8176 39.3806 11.4417 40.0068 11.4417 40.7722C11.4417 41.5375 10.8176 42.1637 10.0548 42.1637C9.29206 42.1637 8.66797 41.5375 8.66797 40.7722Z" fill="white"/>
<path d="M10.0548 41.3984C9.70804 41.3984 9.43066 41.1201 9.43066 40.7722C9.43066 40.4243 9.70804 40.146 10.0548 40.146C10.4015 40.146 10.6788 40.4243 10.6788 40.7722C10.6788 41.1201 10.4015 41.3984 10.0548 41.3984Z" fill="#BDC3C7"/>
<path d="M14.4238 40.7722C14.4238 40.0068 15.0479 39.3806 15.8107 39.3806C16.5735 39.3806 17.1976 40.0068 17.1976 40.7722C17.1976 41.5375 16.5735 42.1637 15.8107 42.1637C15.1173 42.1637 14.4238 41.5375 14.4238 40.7722Z" fill="white"/>
<path d="M15.8799 41.3984C15.5332 41.3984 15.2559 41.1201 15.2559 40.7722C15.2559 40.4243 15.5332 40.146 15.8799 40.146C16.2267 40.146 16.504 40.4243 16.504 40.7722C16.504 41.1201 16.2267 41.3984 15.8799 41.3984Z" fill="#BDC3C7"/>
<path d="M8.66797 21.5688C8.66797 20.8034 9.29206 20.1772 10.0548 20.1772C10.8176 20.1772 11.4417 20.8034 11.4417 21.5688C11.4417 22.3341 10.8176 22.9603 10.0548 22.9603C9.29206 22.9603 8.66797 22.3341 8.66797 21.5688Z" fill="white"/>
<path d="M10.0548 22.195C9.70804 22.195 9.43066 21.9167 9.43066 21.5688C9.43066 21.2209 9.70804 20.9426 10.0548 20.9426C10.4015 20.9426 10.6788 21.2209 10.6788 21.5688C10.6788 21.9167 10.4015 22.195 10.0548 22.195Z" fill="#BDC3C7"/>
<path d="M14.4238 21.5688C14.4238 20.8034 15.0479 20.1772 15.8107 20.1772C16.5735 20.1772 17.1976 20.8034 17.1976 21.5688C17.1976 22.3341 16.5735 22.9603 15.8107 22.9603C15.1173 23.0299 14.4238 22.3341 14.4238 21.5688Z" fill="white"/>
<path d="M15.8799 22.195C15.5332 22.195 15.2559 21.9167 15.2559 21.5688C15.2559 21.2209 15.5332 20.9426 15.8799 20.9426C16.2267 20.9426 16.504 21.2209 16.504 21.5688C16.504 21.9167 16.2267 22.195 15.8799 22.195Z" fill="#BDC3C7"/>
<path d="M19 40.7722C19 40.0068 19.6241 39.3806 20.3869 39.3806C21.1496 39.3806 21.7737 40.0068 21.7737 40.7722C21.7737 41.5375 21.1496 42.1637 20.3869 42.1637C19.6241 42.1637 19 41.5375 19 40.7722Z" fill="white"/>
<path d="M20.3868 41.3984C20.0401 41.3984 19.7627 41.1201 19.7627 40.7722C19.7627 40.4243 20.0401 40.146 20.3868 40.146C20.7335 40.146 21.0109 40.4243 21.0109 40.7722C21.0109 41.1201 20.7335 41.3984 20.3868 41.3984Z" fill="#BDC3C7"/>
<path d="M24.8252 40.7722C24.8252 40.0068 25.4493 39.3806 26.2121 39.3806C26.9748 39.3806 27.5989 40.0068 27.5989 40.7722C27.5989 41.5375 26.9748 42.1637 26.2121 42.1637C25.4493 42.1637 24.8252 41.5375 24.8252 40.7722Z" fill="white"/>
<path d="M26.212 41.3984C25.8653 41.3984 25.5879 41.1201 25.5879 40.7722C25.5879 40.4243 25.8653 40.146 26.212 40.146C26.5587 40.146 26.8361 40.4243 26.8361 40.7722C26.8361 41.1201 26.5587 41.3984 26.212 41.3984Z" fill="#BDC3C7"/>
<path d="M19 21.5688C19 20.8034 19.6241 20.1772 20.3869 20.1772C21.1496 20.1772 21.7737 20.8034 21.7737 21.5688C21.7737 22.3341 21.1496 22.9603 20.3869 22.9603C19.6241 23.0299 19 22.3341 19 21.5688Z" fill="white"/>
<path d="M20.3868 22.195C20.0401 22.195 19.7627 21.9167 19.7627 21.5688C19.7627 21.2209 20.0401 20.9426 20.3868 20.9426C20.7335 20.9426 21.0109 21.2209 21.0109 21.5688C21.0109 21.9167 20.7335 22.195 20.3868 22.195Z" fill="#BDC3C7"/>
<path d="M24.8252 21.5688C24.8252 20.8034 25.4493 20.1772 26.2121 20.1772C26.9748 20.1772 27.5989 20.8034 27.5989 21.5688C27.5989 22.3341 26.9748 22.9603 26.2121 22.9603C25.4493 23.0299 24.8252 22.3341 24.8252 21.5688Z" fill="white"/>
<path d="M26.212 22.195C25.8653 22.195 25.5879 21.9167 25.5879 21.5688C25.5879 21.2209 25.8653 20.9426 26.212 20.9426C26.5587 20.9426 26.8361 21.2209 26.8361 21.5688C26.8361 21.9167 26.5587 22.195 26.212 22.195Z" fill="#BDC3C7"/>
<path d="M29.332 40.7722C29.332 40.0068 29.9561 39.3806 30.7189 39.3806C31.4817 39.3806 32.1058 40.0068 32.1058 40.7722C32.1058 41.5375 31.4817 42.1637 30.7189 42.1637C29.9561 42.1637 29.332 41.5375 29.332 40.7722Z" fill="white"/>
<path d="M30.7188 41.3984C30.3721 41.3984 30.0947 41.1201 30.0947 40.7722C30.0947 40.4243 30.3721 40.146 30.7188 40.146C31.0655 40.146 31.3429 40.4243 31.3429 40.7722C31.4122 41.1201 31.1349 41.3984 30.7188 41.3984Z" fill="#BDC3C7"/>
<path d="M35.1572 40.7722C35.1572 40.0068 35.7813 39.3806 36.5441 39.3806C37.3069 39.3806 37.9309 40.0068 37.9309 40.7722C37.9309 41.5375 37.3069 42.1637 36.5441 42.1637C35.7813 42.1637 35.1572 41.5375 35.1572 40.7722Z" fill="white"/>
<path d="M36.544 41.3984C36.1973 41.3984 35.9199 41.1201 35.9199 40.7722C35.9199 40.4243 36.1973 40.146 36.544 40.146C36.8907 40.146 37.1681 40.4243 37.1681 40.7722C37.1681 41.1201 36.8907 41.3984 36.544 41.3984Z" fill="#BDC3C7"/>
<path d="M29.332 21.5688C29.332 20.8034 29.9561 20.1772 30.7189 20.1772C31.4817 20.1772 32.1058 20.8034 32.1058 21.5688C32.1058 22.3341 31.4817 22.9603 30.7189 22.9603C29.9561 23.0299 29.332 22.3341 29.332 21.5688Z" fill="white"/>
<path d="M30.7188 22.195C30.3721 22.195 30.0947 21.9167 30.0947 21.5688C30.0947 21.2209 30.3721 20.9426 30.7188 20.9426C31.0655 20.9426 31.3429 21.2209 31.3429 21.5688C31.4122 21.9167 31.1349 22.195 30.7188 22.195Z" fill="#BDC3C7"/>
<path d="M35.1572 21.5688C35.1572 20.8034 35.7813 20.1772 36.5441 20.1772C37.3069 20.1772 37.9309 20.8034 37.9309 21.5688C37.9309 22.3341 37.3069 22.9603 36.5441 22.9603C35.7813 23.0299 35.1572 22.3341 35.1572 21.5688Z" fill="white"/>
<path d="M36.544 22.195C36.1973 22.195 35.9199 21.9167 35.9199 21.5688C35.9199 21.2209 36.1973 20.9426 36.544 20.9426C36.8907 20.9426 37.1681 21.2209 37.1681 21.5688C37.1681 21.9167 36.8907 22.195 36.544 22.195Z" fill="#BDC3C7"/>
<path d="M39.6641 40.7722C39.6641 40.0068 40.2882 39.3806 41.0509 39.3806C41.8137 39.3806 42.4378 40.0068 42.4378 40.7722C42.4378 41.5375 41.8137 42.1637 41.0509 42.1637C40.2882 42.1637 39.6641 41.5375 39.6641 40.7722Z" fill="white"/>
<path d="M41.1202 41.3984C40.7735 41.3984 40.4961 41.1201 40.4961 40.7722C40.4961 40.4243 40.7735 40.146 41.1202 40.146C41.4669 40.146 41.7443 40.4243 41.7443 40.7722C41.7443 41.1201 41.4669 41.3984 41.1202 41.3984Z" fill="#BDC3C7"/>
<path d="M45.4893 40.7722C45.4893 40.0068 46.1133 39.3806 46.8761 39.3806C47.6389 39.3806 48.263 40.0068 48.263 40.7722C48.263 41.5375 47.6389 42.1637 46.8761 42.1637C46.1133 42.1637 45.4893 41.5375 45.4893 40.7722Z" fill="white"/>
<path d="M46.9454 41.3984C46.5987 41.3984 46.3213 41.1201 46.3213 40.7722C46.3213 40.4243 46.5987 40.146 46.9454 40.146C47.2921 40.146 47.5695 40.4243 47.5695 40.7722C47.5695 41.1201 47.2921 41.3984 46.9454 41.3984Z" fill="#BDC3C7"/>
<path d="M39.6641 21.5688C39.6641 20.8034 40.2882 20.1772 41.0509 20.1772C41.8137 20.1772 42.4378 20.8034 42.4378 21.5688C42.4378 22.3341 41.8137 22.9603 41.0509 22.9603C40.2882 23.0299 39.6641 22.3341 39.6641 21.5688Z" fill="white"/>
<path d="M41.1202 22.195C40.7735 22.195 40.4961 21.9167 40.4961 21.5688C40.4961 21.2209 40.7735 20.9426 41.1202 20.9426C41.4669 20.9426 41.7443 21.2209 41.7443 21.5688C41.7443 21.9167 41.4669 22.195 41.1202 22.195Z" fill="#BDC3C7"/>
<path d="M45.4893 21.5688C45.4893 20.8034 46.1133 20.1772 46.8761 20.1772C47.6389 20.1772 48.263 20.8034 48.263 21.5688C48.263 22.3341 47.6389 22.9603 46.8761 22.9603C46.1133 22.9603 45.4893 22.3341 45.4893 21.5688Z" fill="white"/>
<path d="M46.9454 22.195C46.5987 22.195 46.3213 21.9167 46.3213 21.5688C46.3213 21.2209 46.5987 20.9426 46.9454 20.9426C47.2921 20.9426 47.5695 21.2209 47.5695 21.5688C47.5695 21.9167 47.2921 22.195 46.9454 22.195Z" fill="#BDC3C7"/>
<path d="M55.1275 17.0464H1.87207L28.4998 0L55.1275 17.0464Z" fill="#C0392B"/>
<path d="M51.7304 17.0465H5.20117L28.5004 2.15698L51.7304 17.0465Z" fill="white"/>
<path d="M18.3761 15.0286L17.6134 12.2456C17.6827 12.7326 17.6827 13.0805 17.6827 13.3588V15.0286H16.7812V11.2019H18.1681L18.9309 13.9154L19.6937 11.2019H21.0805V15.0286H20.1097V13.3588C20.1097 13.2892 20.1097 13.1501 20.1097 13.0805C20.1097 12.9413 20.1097 12.7326 20.1791 12.3151L19.4163 15.0982H18.3761V15.0286Z" fill="#C0392B"/>
<path d="M25.1029 11.2019V13.4979C25.1029 13.985 24.9642 14.4024 24.6868 14.6808C24.4094 14.9591 23.9934 15.0982 23.4386 15.0982C22.8839 15.0982 22.5372 14.9591 22.2598 14.6808C21.9824 14.4024 21.8438 14.0546 21.8438 13.4979V11.2019H22.8839V13.4284C22.8839 13.7067 22.9532 13.9154 23.0226 13.985C23.0919 14.1241 23.3 14.1937 23.4386 14.1937C23.6467 14.1937 23.7854 14.1241 23.924 13.985C23.9934 13.8458 24.0627 13.6371 24.0627 13.3588V11.1323H25.1029V11.2019Z" fill="#C0392B"/>
<path d="M28.3616 13.8458C28.3616 14.0546 28.2923 14.2633 28.1536 14.472C28.0149 14.6808 27.8762 14.8199 27.6682 14.8895C27.4601 14.9591 27.1828 15.0286 26.9054 15.0286C26.628 15.0286 26.42 15.0286 26.2813 14.9591C26.1426 14.8895 25.9346 14.8895 25.7266 14.7503V13.9154C25.9346 13.985 26.1426 14.1241 26.3507 14.1241C26.5587 14.1937 26.7667 14.1937 26.9054 14.1937C27.0441 14.1937 27.1828 14.1937 27.2521 14.1241C27.3215 14.0546 27.3908 13.985 27.3908 13.9154C27.3908 13.8458 27.3908 13.8458 27.3215 13.7762C27.3215 13.7067 27.2521 13.7067 27.1828 13.6371C27.1134 13.5675 26.9747 13.4979 26.6974 13.3588C26.42 13.2196 26.2813 13.1501 26.1426 13.0109C26.0039 12.8717 25.9346 12.8022 25.8652 12.663C25.7959 12.5239 25.7959 12.3847 25.7959 12.176C25.7959 11.8281 25.9346 11.5498 26.212 11.3411C26.4893 11.1323 26.8361 11.0627 27.2521 11.0627C27.6682 11.0627 28.0149 11.1323 28.4309 11.3411L28.0842 12.1064C27.7375 11.9672 27.3908 11.8281 27.1828 11.8281C27.0441 11.8281 26.9747 11.8281 26.9054 11.8977C26.8361 11.9672 26.8361 12.0368 26.8361 12.1064C26.8361 12.176 26.9054 12.2456 26.9747 12.3151C27.0441 12.3847 27.2521 12.4543 27.5988 12.663C27.9455 12.8022 28.1536 12.9413 28.2923 13.1501C28.2923 13.3588 28.3616 13.5675 28.3616 13.8458Z" fill="#C0392B"/>
<path d="M31.2043 15.0286H28.916V11.2019H31.2043V12.0368H29.9562V12.663H31.0656V13.4979H29.9562V14.1937H31.2043V15.0286Z" fill="#C0392B"/>
<path d="M35.1576 11.2019V13.4979C35.1576 13.985 35.0189 14.4024 34.7415 14.6808C34.4641 14.9591 34.0481 15.0982 33.4933 15.0982C32.9386 15.0982 32.5919 14.9591 32.3145 14.6808C32.0371 14.4024 31.8984 14.0546 31.8984 13.4979V11.2019H32.9386V13.4284C32.9386 13.7067 33.0079 13.9154 33.0773 13.985C33.1466 14.1241 33.3546 14.1937 33.4933 14.1937C33.7014 14.1937 33.84 14.1241 33.9787 13.985C34.0481 13.8458 34.1174 13.6371 34.1174 13.3588V11.1323H35.1576V11.2019Z" fill="#C0392B"/>
<path d="M37.5841 15.0286L36.8214 12.2456C36.8907 12.7326 36.8907 13.0805 36.8907 13.3588V15.0286H35.9893V11.2019H37.3761L38.1389 13.9154L38.9017 11.2019H40.2885V15.0286H39.3177V13.3588C39.3177 13.2892 39.3177 13.1501 39.3177 13.0805C39.3177 12.9413 39.3177 12.7326 39.3871 12.3151L38.6243 15.0982H37.5841V15.0286Z" fill="#C0392B"/>
<path d="M15.8795 20.9426H10.0547V21.5688H15.8795V20.9426Z" fill="#BDC3C7"/>
<path d="M15.8795 40.7722H10.0547V41.3984H15.8795V40.7722Z" fill="#BDC3C7"/>
<path d="M26.2115 20.9426H20.3867V21.5688H26.2115V20.9426Z" fill="#BDC3C7"/>
<path d="M26.2115 40.7722H20.3867V41.3984H26.2115V40.7722Z" fill="#BDC3C7"/>
<path d="M36.5436 20.9426H30.7188V21.5688H36.5436V20.9426Z" fill="#BDC3C7"/>
<path d="M36.5436 40.7722H30.7188V41.3984H36.5436V40.7722Z" fill="#BDC3C7"/>
<path d="M46.9449 20.9426H41.1201V21.5688H46.9449V20.9426Z" fill="#BDC3C7"/>
<path d="M46.9449 40.7722H41.1201V41.3984H46.9449V40.7722Z" fill="#BDC3C7"/>
<path d="M12.8282 23.03H12.2734V39.3806H12.8282V23.03Z" fill="#BDC3C7"/>
<path d="M14.0762 23.03H13.5215V39.3806H14.0762V23.03Z" fill="#BDC3C7"/>
<path d="M23.1602 23.03H22.6055V39.3806H23.1602V23.03Z" fill="#BDC3C7"/>
<path d="M24.4786 23.03H23.9238V39.3806H24.4786V23.03Z" fill="#BDC3C7"/>
<path d="M33.5616 23.03H33.0068V39.3806H33.5616V23.03Z" fill="#BDC3C7"/>
<path d="M34.8106 23.03H34.2559V39.3806H34.8106V23.03Z" fill="#BDC3C7"/>
<path d="M43.8946 23.03H43.3398V39.3806H43.8946V23.03Z" fill="#BDC3C7"/>
<path d="M45.1426 23.03H44.5879V39.3806H45.1426V23.03Z" fill="#BDC3C7"/>
<path d="M5.54792 16.2114C5.54792 16.4201 5.40924 16.5593 5.20121 16.5593C4.99318 16.5593 4.85449 16.4201 4.85449 16.2114C4.85449 16.0027 4.99318 15.8635 5.20121 15.8635C5.40924 15.8635 5.54792 16.0027 5.54792 16.2114Z" fill="#F1C40F"/>
<path d="M6.17194 15.7939C6.17194 16.0027 6.03325 16.1418 5.82522 16.1418C5.68654 16.1418 5.54785 16.0027 5.54785 15.7939C5.54785 15.5852 5.68654 15.446 5.89457 15.446C6.03325 15.5156 6.17194 15.6548 6.17194 15.7939Z" fill="#F1C40F"/>
<path d="M6.86531 15.3767C6.86531 15.5854 6.72662 15.7246 6.51859 15.7246C6.31056 15.7246 6.17188 15.5854 6.17188 15.3767C6.17188 15.168 6.31056 15.0288 6.51859 15.0288C6.72662 15.0984 6.86531 15.2375 6.86531 15.3767Z" fill="#F1C40F"/>
<path d="M7.48933 14.9592C7.48933 15.1679 7.35064 15.3071 7.14261 15.3071C6.93458 15.3071 6.7959 15.1679 6.7959 14.9592C6.7959 14.7505 6.93458 14.6113 7.14261 14.6113C7.35064 14.6809 7.48933 14.8201 7.48933 14.9592Z" fill="#F1C40F"/>
<path d="M8.11335 14.6113C8.11335 14.82 7.97467 14.9592 7.76664 14.9592C7.55861 14.9592 7.41992 14.82 7.41992 14.6113C7.41992 14.4026 7.55861 14.2634 7.76664 14.2634C7.97467 14.2634 8.11335 14.4026 8.11335 14.6113Z" fill="#F1C40F"/>
<path d="M8.80671 14.1938C8.80671 14.4026 8.66803 14.5417 8.46 14.5417C8.25197 14.5417 8.11328 14.4026 8.11328 14.1938C8.11328 13.9851 8.25197 13.8459 8.46 13.8459C8.66803 13.8459 8.80671 13.9851 8.80671 14.1938Z" fill="#F1C40F"/>
<path d="M9.43074 13.7764C9.43074 13.9851 9.29205 14.1242 9.08402 14.1242C8.87599 14.1242 8.7373 13.9851 8.7373 13.7764C8.7373 13.5676 8.87599 13.4285 9.08402 13.4285C9.29205 13.4285 9.43074 13.5676 9.43074 13.7764Z" fill="#F1C40F"/>
<path d="M10.0548 13.3589C10.0548 13.5676 9.91607 13.7068 9.70804 13.7068C9.50001 13.7068 9.36133 13.5676 9.36133 13.3589C9.36133 13.1501 9.50001 13.011 9.70804 13.011C9.91607 13.011 10.0548 13.1501 10.0548 13.3589Z" fill="#F1C40F"/>
<path d="M10.7491 12.9414C10.7491 13.1501 10.6104 13.2893 10.4024 13.2893C10.1944 13.2893 10.0557 13.1501 10.0557 12.9414C10.0557 12.7327 10.1944 12.5935 10.4024 12.5935C10.5411 12.6631 10.7491 12.8022 10.7491 12.9414Z" fill="#F1C40F"/>
<path d="M11.3731 12.5239C11.3731 12.7326 11.2344 12.8718 11.0264 12.8718C10.8184 12.8718 10.6797 12.7326 10.6797 12.5239C10.6797 12.3152 10.8184 12.176 11.0264 12.176C11.2344 12.2456 11.3731 12.3848 11.3731 12.5239Z" fill="#F1C40F"/>
<path d="M11.9971 12.1064C11.9971 12.3152 11.8585 12.4543 11.6504 12.4543C11.4424 12.4543 11.3037 12.3152 11.3037 12.1064C11.3037 11.8977 11.4424 11.7585 11.6504 11.7585C11.8585 11.8281 11.9971 11.9673 11.9971 12.1064Z" fill="#F1C40F"/>
<path d="M12.6212 11.7585C12.6212 11.9673 12.4825 12.1064 12.2744 12.1064C12.0664 12.1064 11.9277 11.9673 11.9277 11.7585C11.9277 11.5498 12.0664 11.4106 12.2744 11.4106C12.4825 11.4106 12.6212 11.5498 12.6212 11.7585Z" fill="#F1C40F"/>
<path d="M13.3145 11.341C13.3145 11.5498 13.1758 11.6889 12.9678 11.6889C12.7598 11.6889 12.6211 11.5498 12.6211 11.341C12.6211 11.1323 12.7598 10.9932 12.9678 10.9932C13.1758 10.9932 13.3145 11.1323 13.3145 11.341Z" fill="#F1C40F"/>
<path d="M13.9385 10.9236C13.9385 11.1323 13.7999 11.2715 13.5918 11.2715C13.3838 11.2715 13.2451 11.1323 13.2451 10.9236C13.2451 10.7148 13.3838 10.5757 13.5918 10.5757C13.7999 10.5757 13.9385 10.7148 13.9385 10.9236Z" fill="#F1C40F"/>
<path d="M14.5626 10.5061C14.5626 10.7148 14.4239 10.854 14.2159 10.854C14.0078 10.854 13.8691 10.7148 13.8691 10.5061C13.8691 10.2974 14.0078 10.1582 14.2159 10.1582C14.4239 10.1582 14.5626 10.2974 14.5626 10.5061Z" fill="#F1C40F"/>
<path d="M15.2559 10.0886C15.2559 10.2973 15.1172 10.4365 14.9092 10.4365C14.7012 10.4365 14.5625 10.2973 14.5625 10.0886C14.5625 9.87988 14.7012 9.74072 14.9092 9.74072C15.1172 9.74072 15.2559 9.94945 15.2559 10.0886Z" fill="#F1C40F"/>
<path d="M15.88 9.67137C15.88 9.8801 15.7413 10.0193 15.5332 10.0193C15.3252 10.0193 15.1865 9.8801 15.1865 9.67137C15.1865 9.46264 15.3252 9.32349 15.5332 9.32349C15.7413 9.39306 15.88 9.53222 15.88 9.67137Z" fill="#F1C40F"/>
<path d="M16.504 9.25389C16.504 9.46262 16.3653 9.60178 16.1573 9.60178C15.9492 9.60178 15.8105 9.46262 15.8105 9.25389C15.8105 9.04516 15.9492 8.90601 16.1573 8.90601C16.3653 8.97558 16.504 9.11474 16.504 9.25389Z" fill="#F1C40F"/>
<path d="M17.1973 8.90599C17.1973 9.11472 17.0587 9.25388 16.8506 9.25388C16.6426 9.25388 16.5039 9.11472 16.5039 8.90599C16.5039 8.69726 16.6426 8.55811 16.8506 8.55811C17.0587 8.55811 17.1973 8.69726 17.1973 8.90599Z" fill="#F1C40F"/>
<path d="M17.8214 8.48851C17.8214 8.69724 17.6827 8.8364 17.4746 8.8364C17.2666 8.8364 17.1279 8.69724 17.1279 8.48851C17.1279 8.27978 17.2666 8.14062 17.4746 8.14062C17.6827 8.14062 17.8214 8.27978 17.8214 8.48851Z" fill="#F1C40F"/>
<path d="M18.4454 8.07103C18.4454 8.27976 18.3067 8.41892 18.0987 8.41892C17.8906 8.41892 17.752 8.27976 17.752 8.07103C17.752 7.8623 17.8906 7.72314 18.0987 7.72314C18.3067 7.72314 18.4454 7.8623 18.4454 8.07103Z" fill="#F1C40F"/>
<path d="M19.1387 7.65355C19.1387 7.86228 19.0001 8.00143 18.792 8.00143C18.584 8.00143 18.4453 7.86228 18.4453 7.65355C18.4453 7.44482 18.584 7.30566 18.792 7.30566C19.0001 7.30566 19.1387 7.44482 19.1387 7.65355Z" fill="#F1C40F"/>
<path d="M19.7628 7.23607C19.7628 7.4448 19.6241 7.58395 19.4161 7.58395C19.208 7.58395 19.0693 7.4448 19.0693 7.23607C19.0693 7.02734 19.208 6.88818 19.4161 6.88818C19.6241 6.88818 19.7628 7.09691 19.7628 7.23607Z" fill="#F1C40F"/>
<path d="M20.3878 6.81859C20.3878 7.02732 20.2491 7.16647 20.0411 7.16647C19.833 7.16647 19.6943 7.02732 19.6943 6.81859C19.6943 6.60986 19.833 6.4707 20.0411 6.4707C20.2491 6.54028 20.3878 6.67943 20.3878 6.81859Z" fill="#F1C40F"/>
<path d="M21.0811 6.40111C21.0811 6.60984 20.9424 6.74899 20.7344 6.74899C20.5264 6.74899 20.3877 6.60984 20.3877 6.40111C20.3877 6.19238 20.5264 6.05322 20.7344 6.05322C20.9424 6.1228 21.0811 6.26195 21.0811 6.40111Z" fill="#F1C40F"/>
<path d="M21.7051 5.98363C21.7051 6.19236 21.5665 6.33151 21.3584 6.33151C21.1504 6.33151 21.0117 6.19236 21.0117 5.98363C21.0117 5.7749 21.1504 5.63574 21.3584 5.63574C21.5665 5.70532 21.7051 5.84447 21.7051 5.98363Z" fill="#F1C40F"/>
<path d="M22.3292 5.63573C22.3292 5.84446 22.1905 5.98361 21.9825 5.98361C21.7744 5.98361 21.6357 5.84446 21.6357 5.63573C21.6357 5.427 21.7744 5.28784 21.9825 5.28784C22.1905 5.28784 22.3292 5.427 22.3292 5.63573Z" fill="#F1C40F"/>
<path d="M23.0225 5.21825C23.0225 5.42698 22.8838 5.56613 22.6758 5.56613C22.4678 5.56613 22.3291 5.42698 22.3291 5.21825C22.3291 5.00952 22.4678 4.87036 22.6758 4.87036C22.8145 4.87036 23.0225 5.00952 23.0225 5.21825Z" fill="#F1C40F"/>
<path d="M23.6466 4.80077C23.6466 5.0095 23.5079 5.14865 23.2998 5.14865C23.0918 5.14865 22.9531 5.0095 22.9531 4.80077C22.9531 4.59204 23.0918 4.45288 23.2998 4.45288C23.5079 4.45288 23.6466 4.59204 23.6466 4.80077Z" fill="#F1C40F"/>
<path d="M24.2706 4.38329C24.2706 4.59202 24.1319 4.73117 23.9239 4.73117C23.7158 4.73117 23.5771 4.59202 23.5771 4.38329C23.5771 4.17455 23.7158 4.0354 23.9239 4.0354C24.1319 4.0354 24.2706 4.17455 24.2706 4.38329Z" fill="#F1C40F"/>
<path d="M24.9639 3.96605C24.9639 4.17478 24.8253 4.31393 24.6172 4.31393C24.4092 4.31393 24.2705 4.17478 24.2705 3.96605C24.2705 3.75732 24.4092 3.61816 24.6172 3.61816C24.7559 3.68774 24.9639 3.8269 24.9639 3.96605Z" fill="#F1C40F"/>
<path d="M25.588 3.54857C25.588 3.7573 25.4493 3.89645 25.2412 3.89645C25.0332 3.89645 24.8945 3.7573 24.8945 3.54857C24.8945 3.33984 25.0332 3.20068 25.2412 3.20068C25.4493 3.27026 25.588 3.40941 25.588 3.54857Z" fill="#F1C40F"/>
<path d="M26.212 3.13109C26.212 3.33982 26.0733 3.47897 25.8653 3.47897C25.6572 3.47897 25.5186 3.33982 25.5186 3.13109C25.5186 2.92236 25.6572 2.7832 25.8653 2.7832C26.0733 2.85278 26.212 2.99193 26.212 3.13109Z" fill="#F1C40F"/>
<path d="M26.836 2.78319C26.836 2.99192 26.6973 3.13107 26.4893 3.13107C26.2813 3.13107 26.1426 2.99192 26.1426 2.78319C26.1426 2.57446 26.2813 2.4353 26.4893 2.4353C26.6973 2.4353 26.836 2.57446 26.836 2.78319Z" fill="#F1C40F"/>
<path d="M27.5294 2.36571C27.5294 2.57444 27.3907 2.71359 27.1827 2.71359C26.9746 2.71359 26.8359 2.57444 26.8359 2.36571C26.8359 2.15698 26.9746 2.01782 27.1827 2.01782C27.3907 2.01782 27.5294 2.15698 27.5294 2.36571Z" fill="#F1C40F"/>
<path d="M28.1534 1.94823C28.1534 2.15696 28.0147 2.29611 27.8067 2.29611C27.5986 2.29611 27.46 2.15696 27.46 1.94823C27.46 1.7395 27.5986 1.60034 27.8067 1.60034C28.0147 1.60034 28.1534 1.7395 28.1534 1.94823Z" fill="#F1C40F"/>
<path d="M28.7774 1.53075C28.7774 1.73948 28.6387 1.87863 28.4307 1.87863C28.2227 1.87863 28.084 1.73948 28.084 1.53075C28.084 1.32202 28.2227 1.18286 28.4307 1.18286C28.6387 1.18286 28.7774 1.32202 28.7774 1.53075Z" fill="#F1C40F"/>
<path d="M51.4521 16.2114C51.4521 16.4201 51.5908 16.5593 51.7989 16.5593C52.0069 16.5593 52.1456 16.4201 52.1456 16.2114C52.1456 16.0027 52.0069 15.8635 51.7989 15.8635C51.5908 15.8635 51.4521 16.0027 51.4521 16.2114Z" fill="#F1C40F"/>
<path d="M50.7588 15.7939C50.7588 16.0027 50.8975 16.1418 51.1055 16.1418C51.3135 16.1418 51.4522 16.0027 51.4522 15.7939C51.4522 15.5852 51.3135 15.446 51.1055 15.446C50.8975 15.5156 50.7588 15.6548 50.7588 15.7939Z" fill="#F1C40F"/>
<path d="M50.1348 15.3767C50.1348 15.5854 50.2735 15.7246 50.4815 15.7246C50.6895 15.7246 50.8282 15.5854 50.8282 15.3767C50.8282 15.168 50.6895 15.0288 50.4815 15.0288C50.2735 15.0984 50.1348 15.2375 50.1348 15.3767Z" fill="#F1C40F"/>
<path d="M49.5107 14.9592C49.5107 15.1679 49.6494 15.3071 49.8575 15.3071C50.0655 15.3071 50.2042 15.1679 50.2042 14.9592C50.2042 14.7505 50.0655 14.6113 49.8575 14.6113C49.6494 14.6809 49.5107 14.8201 49.5107 14.9592Z" fill="#F1C40F"/>
<path d="M48.8174 14.6113C48.8174 14.82 48.9561 14.9592 49.1641 14.9592C49.3721 14.9592 49.5108 14.82 49.5108 14.6113C49.5108 14.4026 49.3721 14.2634 49.1641 14.2634C48.9561 14.2634 48.8174 14.4026 48.8174 14.6113Z" fill="#F1C40F"/>
<path d="M48.1934 14.1938C48.1934 14.4026 48.332 14.5417 48.5401 14.5417C48.7481 14.5417 48.8868 14.4026 48.8868 14.1938C48.8868 13.9851 48.7481 13.8459 48.5401 13.8459C48.332 13.8459 48.1934 13.9851 48.1934 14.1938Z" fill="#F1C40F"/>
<path d="M47.5693 13.7764C47.5693 13.9851 47.708 14.1242 47.9161 14.1242C48.1241 14.1242 48.2628 13.9851 48.2628 13.7764C48.2628 13.5676 48.1241 13.4285 47.9161 13.4285C47.708 13.4285 47.5693 13.5676 47.5693 13.7764Z" fill="#F1C40F"/>
<path d="M46.876 13.3589C46.876 13.5676 47.0147 13.7068 47.2227 13.7068C47.4307 13.7068 47.5694 13.5676 47.5694 13.3589C47.5694 13.1501 47.4307 13.011 47.2227 13.011C47.0147 13.011 46.876 13.1501 46.876 13.3589Z" fill="#F1C40F"/>
<path d="M46.252 12.9414C46.252 13.1501 46.3906 13.2893 46.5987 13.2893C46.8067 13.2893 46.9454 13.1501 46.9454 12.9414C46.9454 12.7327 46.8067 12.5935 46.5987 12.5935C46.3906 12.6631 46.252 12.8022 46.252 12.9414Z" fill="#F1C40F"/>
<path d="M45.6279 12.5239C45.6279 12.7326 45.7666 12.8718 45.9746 12.8718C46.1827 12.8718 46.3214 12.7326 46.3214 12.5239C46.3214 12.3152 46.1827 12.176 45.9746 12.176C45.7666 12.2456 45.6279 12.3848 45.6279 12.5239Z" fill="#F1C40F"/>
<path d="M44.9346 12.1064C44.9346 12.3152 45.0733 12.4543 45.2813 12.4543C45.4893 12.4543 45.628 12.3152 45.628 12.1064C45.628 11.8977 45.4893 11.7585 45.2813 11.7585C45.0733 11.8281 44.9346 11.9673 44.9346 12.1064Z" fill="#F1C40F"/>
<path d="M44.3105 11.7585C44.3105 11.9673 44.4492 12.1064 44.6573 12.1064C44.8653 12.1064 45.004 11.9673 45.004 11.7585C45.004 11.5498 44.8653 11.4106 44.6573 11.4106C44.4492 11.4106 44.3105 11.5498 44.3105 11.7585Z" fill="#F1C40F"/>
<path d="M43.6865 11.341C43.6865 11.5498 43.8252 11.6889 44.0332 11.6889C44.2413 11.6889 44.38 11.5498 44.38 11.341C44.38 11.1323 44.2413 10.9932 44.0332 10.9932C43.8252 10.9932 43.6865 11.1323 43.6865 11.341Z" fill="#F1C40F"/>
<path d="M42.9932 10.9236C42.9932 11.1323 43.1319 11.2715 43.3399 11.2715C43.5479 11.2715 43.6866 11.1323 43.6866 10.9236C43.6866 10.7148 43.5479 10.5757 43.3399 10.5757C43.2012 10.5757 42.9932 10.7148 42.9932 10.9236Z" fill="#F1C40F"/>
<path d="M42.3682 10.5061C42.3682 10.7148 42.5069 10.854 42.7149 10.854C42.9229 10.854 43.0616 10.7148 43.0616 10.5061C43.0616 10.2974 42.9229 10.1582 42.7149 10.1582C42.5069 10.1582 42.3682 10.2974 42.3682 10.5061Z" fill="#F1C40F"/>
<path d="M41.7441 10.0886C41.7441 10.2973 41.8828 10.4365 42.0909 10.4365C42.2989 10.4365 42.4376 10.2973 42.4376 10.0886C42.4376 9.87988 42.2989 9.74072 42.0909 9.74072C41.8828 9.74072 41.7441 9.94945 41.7441 10.0886Z" fill="#F1C40F"/>
<path d="M41.1201 9.67137C41.1201 9.8801 41.2588 10.0193 41.4668 10.0193C41.6749 10.0193 41.8135 9.8801 41.8135 9.67137C41.8135 9.46264 41.6749 9.32349 41.4668 9.32349C41.2588 9.39306 41.1201 9.53222 41.1201 9.67137Z" fill="#F1C40F"/>
<path d="M40.4268 9.25389C40.4268 9.46262 40.5654 9.60178 40.7735 9.60178C40.9815 9.60178 41.1202 9.46262 41.1202 9.25389C41.1202 9.04516 40.9815 8.90601 40.7735 8.90601C40.5654 8.97558 40.4268 9.11474 40.4268 9.25389Z" fill="#F1C40F"/>
<path d="M39.8027 8.90599C39.8027 9.11472 39.9414 9.25388 40.1494 9.25388C40.3575 9.25388 40.4962 9.11472 40.4962 8.90599C40.4962 8.69726 40.3575 8.55811 40.1494 8.55811C39.9414 8.55811 39.8027 8.69726 39.8027 8.90599Z" fill="#F1C40F"/>
<path d="M39.1787 8.48851C39.1787 8.69724 39.3174 8.8364 39.5254 8.8364C39.7335 8.8364 39.8721 8.69724 39.8721 8.48851C39.8721 8.27978 39.7335 8.14062 39.5254 8.14062C39.3174 8.14062 39.1787 8.27978 39.1787 8.48851Z" fill="#F1C40F"/>
<path d="M38.4854 8.07103C38.4854 8.27976 38.624 8.41892 38.8321 8.41892C39.0401 8.41892 39.1788 8.27976 39.1788 8.07103C39.1788 7.8623 39.0401 7.72314 38.8321 7.72314C38.624 7.72314 38.4854 7.8623 38.4854 8.07103Z" fill="#F1C40F"/>
<path d="M37.8613 7.65355C37.8613 7.86228 38 8.00143 38.208 8.00143C38.4161 8.00143 38.5548 7.86228 38.5548 7.65355C38.5548 7.44482 38.4161 7.30566 38.208 7.30566C38 7.30566 37.8613 7.44482 37.8613 7.65355Z" fill="#F1C40F"/>
<path d="M37.2373 7.23607C37.2373 7.4448 37.376 7.58395 37.584 7.58395C37.792 7.58395 37.9307 7.4448 37.9307 7.23607C37.9307 7.02734 37.792 6.88818 37.584 6.88818C37.376 6.88818 37.2373 7.09691 37.2373 7.23607Z" fill="#F1C40F"/>
<path d="M36.5439 6.81859C36.5439 7.02732 36.6826 7.16647 36.8907 7.16647C37.0987 7.16647 37.2374 7.02732 37.2374 6.81859C37.2374 6.60986 37.0987 6.4707 36.8907 6.4707C36.6826 6.54028 36.5439 6.67943 36.5439 6.81859Z" fill="#F1C40F"/>
<path d="M35.9199 6.40111C35.9199 6.60984 36.0586 6.74899 36.2666 6.74899C36.4747 6.74899 36.6134 6.60984 36.6134 6.40111C36.6134 6.19238 36.4747 6.05322 36.2666 6.05322C36.0586 6.1228 35.9199 6.26195 35.9199 6.40111Z" fill="#F1C40F"/>
<path d="M35.2959 5.98363C35.2959 6.19236 35.4346 6.33151 35.6426 6.33151C35.8506 6.33151 35.9893 6.19236 35.9893 5.98363C35.9893 5.7749 35.8506 5.63574 35.6426 5.63574C35.4346 5.70532 35.2959 5.84447 35.2959 5.98363Z" fill="#F1C40F"/>
<path d="M34.6025 5.63573C34.6025 5.84446 34.7412 5.98361 34.9493 5.98361C35.1573 5.98361 35.296 5.84446 35.296 5.63573C35.296 5.427 35.1573 5.28784 34.9493 5.28784C34.7412 5.28784 34.6025 5.427 34.6025 5.63573Z" fill="#F1C40F"/>
<path d="M33.9785 5.21825C33.9785 5.42698 34.1172 5.56613 34.3252 5.56613C34.5333 5.56613 34.6719 5.42698 34.6719 5.21825C34.6719 5.00952 34.5333 4.87036 34.3252 4.87036C34.1172 4.87036 33.9785 5.00952 33.9785 5.21825Z" fill="#F1C40F"/>
<path d="M33.3545 4.80077C33.3545 5.0095 33.4932 5.14865 33.7012 5.14865C33.9092 5.14865 34.0479 5.0095 34.0479 4.80077C34.0479 4.59204 33.9092 4.45288 33.7012 4.45288C33.4932 4.45288 33.3545 4.59204 33.3545 4.80077Z" fill="#F1C40F"/>
<path d="M32.6602 4.38329C32.6602 4.59202 32.7988 4.73117 33.0069 4.73117C33.2149 4.73117 33.3536 4.59202 33.3536 4.38329C33.3536 4.17455 33.2149 4.0354 33.0069 4.0354C32.7988 4.0354 32.6602 4.17455 32.6602 4.38329Z" fill="#F1C40F"/>
<path d="M32.0361 3.96605C32.0361 4.17478 32.1748 4.31393 32.3828 4.31393C32.5909 4.31393 32.7296 4.17478 32.7296 3.96605C32.7296 3.75732 32.5909 3.61816 32.3828 3.61816C32.1748 3.68774 32.0361 3.8269 32.0361 3.96605Z" fill="#F1C40F"/>
<path d="M31.4121 3.54857C31.4121 3.7573 31.5508 3.89645 31.7588 3.89645C31.9669 3.89645 32.1055 3.7573 32.1055 3.54857C32.1055 3.33984 31.9669 3.20068 31.7588 3.20068C31.5508 3.27026 31.4121 3.40941 31.4121 3.54857Z" fill="#F1C40F"/>
<path d="M30.7188 3.13109C30.7188 3.33982 30.8574 3.47897 31.0655 3.47897C31.2735 3.47897 31.4122 3.33982 31.4122 3.13109C31.4122 2.92236 31.2735 2.7832 31.0655 2.7832C30.9268 2.85278 30.7188 2.99193 30.7188 3.13109Z" fill="#F1C40F"/>
<path d="M30.0947 2.78319C30.0947 2.99192 30.2334 3.13107 30.4414 3.13107C30.6495 3.13107 30.7882 2.99192 30.7882 2.78319C30.7882 2.57446 30.6495 2.4353 30.4414 2.4353C30.2334 2.4353 30.0947 2.57446 30.0947 2.78319Z" fill="#F1C40F"/>
<path d="M29.4707 2.36571C29.4707 2.57444 29.6094 2.71359 29.8174 2.71359C30.0254 2.71359 30.1641 2.57444 30.1641 2.36571C30.1641 2.15698 30.0254 2.01782 29.8174 2.01782C29.6094 2.01782 29.4707 2.15698 29.4707 2.36571Z" fill="#F1C40F"/>
<path d="M28.8467 1.94823C28.8467 2.15696 28.9854 2.29611 29.1934 2.29611C29.4014 2.29611 29.5401 2.15696 29.5401 1.94823C29.5401 1.7395 29.4014 1.60034 29.1934 1.60034C28.9854 1.60034 28.8467 1.7395 28.8467 1.94823Z" fill="#F1C40F"/>
<path d="M28.1533 1.53075C28.1533 1.73948 28.292 1.87863 28.5 1.87863C28.7081 1.87863 28.8468 1.73948 28.8468 1.53075C28.8468 1.32202 28.7081 1.18286 28.5 1.18286C28.292 1.18286 28.1533 1.32202 28.1533 1.53075Z" fill="#F1C40F"/>
<path d="M10.4708 21.5688C10.4708 21.7776 10.2628 21.9863 10.0547 21.9863C9.8467 21.9863 9.63867 21.7776 9.63867 21.5688C9.63867 21.3601 9.8467 21.1514 10.0547 21.1514C10.2628 21.1514 10.4708 21.3601 10.4708 21.5688Z" fill="#F1C40F"/>
<path d="M16.296 21.5688C16.296 21.7776 16.088 21.9863 15.8799 21.9863C15.6719 21.9863 15.4639 21.7776 15.4639 21.5688C15.4639 21.3601 15.6719 21.1514 15.8799 21.1514C16.088 21.1514 16.296 21.3601 16.296 21.5688Z" fill="#F1C40F"/>
<path d="M15.8795 21.1514H10.0547V21.3601H15.8795V21.1514Z" fill="#F1C40F"/>
<path d="M10.4708 40.7722C10.4708 40.5635 10.2628 40.3547 10.0547 40.3547C9.8467 40.3547 9.63867 40.5635 9.63867 40.7722C9.63867 40.9809 9.8467 41.1897 10.0547 41.1897C10.2628 41.1897 10.4708 40.9809 10.4708 40.7722Z" fill="#F1C40F"/>
<path d="M16.296 40.7722C16.296 40.5635 16.088 40.3547 15.8799 40.3547C15.6719 40.3547 15.4639 40.5635 15.4639 40.7722C15.4639 40.9809 15.6719 41.1897 15.8799 41.1897C16.088 41.1897 16.296 40.9809 16.296 40.7722Z" fill="#F1C40F"/>
<path d="M15.8795 40.9114H10.0547V41.1201H15.8795V40.9114Z" fill="#F1C40F"/>
<path d="M20.8028 21.5688C20.8028 21.7776 20.5948 21.9863 20.3868 21.9863C20.1787 21.9863 19.9707 21.7776 19.9707 21.5688C19.9707 21.3601 20.1787 21.1514 20.3868 21.1514C20.5948 21.1514 20.8028 21.3601 20.8028 21.5688Z" fill="#F1C40F"/>
<path d="M26.628 21.5688C26.628 21.7776 26.42 21.9863 26.212 21.9863C26.0039 21.9863 25.7959 21.7776 25.7959 21.5688C25.7959 21.3601 26.0039 21.1514 26.212 21.1514C26.42 21.1514 26.628 21.3601 26.628 21.5688Z" fill="#F1C40F"/>
<path d="M26.2115 21.1514H20.3867V21.3601H26.2115V21.1514Z" fill="#F1C40F"/>
<path d="M20.8028 40.7722C20.8028 40.5635 20.5948 40.3547 20.3868 40.3547C20.1787 40.3547 19.9707 40.5635 19.9707 40.7722C19.9707 40.9809 20.1787 41.1897 20.3868 41.1897C20.5948 41.1897 20.8028 40.9809 20.8028 40.7722Z" fill="#F1C40F"/>
<path d="M26.628 40.7722C26.628 40.5635 26.42 40.3547 26.212 40.3547C26.0039 40.3547 25.7959 40.5635 25.7959 40.7722C25.7959 40.9809 26.0039 41.1897 26.212 41.1897C26.42 41.1897 26.628 40.9809 26.628 40.7722Z" fill="#F1C40F"/>
<path d="M26.2115 40.9114H20.3867V41.1201H26.2115V40.9114Z" fill="#F1C40F"/>
<path d="M31.1349 21.5688C31.1349 21.7776 30.9268 21.9863 30.7188 21.9863C30.5108 21.9863 30.3027 21.7776 30.3027 21.5688C30.3027 21.3601 30.5108 21.1514 30.7188 21.1514C30.9962 21.1514 31.1349 21.3601 31.1349 21.5688Z" fill="#F1C40F"/>
<path d="M36.96 21.5688C36.96 21.7776 36.752 21.9863 36.544 21.9863C36.336 21.9863 36.1279 21.7776 36.1279 21.5688C36.1279 21.3601 36.336 21.1514 36.544 21.1514C36.752 21.1514 36.96 21.3601 36.96 21.5688Z" fill="#F1C40F"/>
<path d="M36.5436 21.1514H30.7188V21.3601H36.5436V21.1514Z" fill="#F1C40F"/>
<path d="M31.1349 40.7722C31.1349 40.5635 30.9268 40.3547 30.7188 40.3547C30.5108 40.3547 30.3027 40.5635 30.3027 40.7722C30.3027 40.9809 30.5108 41.1897 30.7188 41.1897C30.9962 41.1897 31.1349 40.9809 31.1349 40.7722Z" fill="#F1C40F"/>
<path d="M36.96 40.7722C36.96 40.5635 36.752 40.3547 36.544 40.3547C36.336 40.3547 36.1279 40.5635 36.1279 40.7722C36.1279 40.9809 36.336 41.1897 36.544 41.1897C36.752 41.1897 36.96 40.9809 36.96 40.7722Z" fill="#F1C40F"/>
<path d="M36.5436 40.9114H30.7188V41.1201H36.5436V40.9114Z" fill="#F1C40F"/>
<path d="M41.4669 21.5688C41.4669 21.7776 41.2589 21.9863 41.0508 21.9863C40.8428 21.9863 40.6348 21.7776 40.6348 21.5688C40.6348 21.3601 40.8428 21.1514 41.0508 21.1514C41.3282 21.1514 41.4669 21.3601 41.4669 21.5688Z" fill="#F1C40F"/>
<path d="M47.2921 21.5688C47.2921 21.7776 47.084 21.9863 46.876 21.9863C46.668 21.9863 46.46 21.7776 46.46 21.5688C46.46 21.3601 46.668 21.1514 46.876 21.1514C47.1534 21.1514 47.2921 21.3601 47.2921 21.5688Z" fill="#F1C40F"/>
<path d="M46.9449 21.1514H41.1201V21.3601H46.9449V21.1514Z" fill="#F1C40F"/>
<path d="M41.4669 40.7722C41.4669 40.5635 41.2589 40.3547 41.0508 40.3547C40.8428 40.3547 40.6348 40.5635 40.6348 40.7722C40.6348 40.9809 40.8428 41.1897 41.0508 41.1897C41.3282 41.1897 41.4669 40.9809 41.4669 40.7722Z" fill="#F1C40F"/>
<path d="M47.2921 40.7722C47.2921 40.5635 47.084 40.3547 46.876 40.3547C46.668 40.3547 46.46 40.5635 46.46 40.7722C46.46 40.9809 46.668 41.1897 46.876 41.1897C47.1534 41.1897 47.2921 40.9809 47.2921 40.7722Z" fill="#F1C40F"/>
<path d="M46.9449 40.9114H41.1201V41.1201H46.9449V40.9114Z" fill="#F1C40F"/>
<path d="M51.1756 19.4121H5.75586V19.8296H51.1756V19.4121Z" fill="#F1C40F"/>
<path d="M51.1756 18.925H5.75586V19.3425H51.1756V18.925Z" fill="#E67E22"/>
<path d="M51.1756 17.4639H5.75586V17.8813H51.1756V17.4639Z" fill="#F1C40F"/>
<path d="M51.1756 17.8813H5.75586V18.2988H51.1756V17.8813Z" fill="#E67E22"/>
<path d="M6.37995 18.6467C6.37995 18.8554 6.24127 18.9946 6.03324 18.9946C5.82521 18.9946 5.68652 18.8554 5.68652 18.6467C5.68652 18.438 5.82521 18.2988 6.03324 18.2988C6.24127 18.2988 6.37995 18.438 6.37995 18.6467Z" fill="#F1C40F"/>
<path d="M7.07331 18.6467C7.07331 18.8554 6.93463 18.9946 6.7266 18.9946C6.51857 18.9946 6.37988 18.8554 6.37988 18.6467C6.37988 18.438 6.51857 18.2988 6.7266 18.2988C6.86528 18.2988 7.07331 18.438 7.07331 18.6467Z" fill="#F1C40F"/>
<path d="M7.69734 18.6467C7.69734 18.8554 7.55865 18.9946 7.35062 18.9946C7.14259 18.9946 7.00391 18.8554 7.00391 18.6467C7.00391 18.438 7.14259 18.2988 7.35062 18.2988C7.55865 18.2988 7.69734 18.438 7.69734 18.6467Z" fill="#F1C40F"/>
<path d="M8.32136 18.6467C8.32136 18.8554 8.18267 18.9946 7.97465 18.9946C7.76662 18.9946 7.62793 18.8554 7.62793 18.6467C7.62793 18.438 7.76662 18.2988 7.97465 18.2988C8.18267 18.2988 8.32136 18.438 8.32136 18.6467Z" fill="#F1C40F"/>
<path d="M8.94538 18.6467C8.94538 18.8554 8.8067 18.9946 8.59867 18.9946C8.39064 18.9946 8.25195 18.8554 8.25195 18.6467C8.25195 18.438 8.39064 18.2988 8.59867 18.2988C8.8067 18.2988 8.94538 18.438 8.94538 18.6467Z" fill="#F1C40F"/>
<path d="M9.56941 18.6467C9.56941 18.8554 9.43072 18.9946 9.22269 18.9946C9.01466 18.9946 8.87598 18.8554 8.87598 18.6467C8.87598 18.438 9.01466 18.2988 9.22269 18.2988C9.43072 18.2988 9.56941 18.438 9.56941 18.6467Z" fill="#F1C40F"/>
<path d="M10.2628 18.6467C10.2628 18.8554 10.1241 18.9946 9.91605 18.9946C9.70802 18.9946 9.56934 18.8554 9.56934 18.6467C9.56934 18.438 9.70802 18.2988 9.91605 18.2988C10.1241 18.2988 10.2628 18.438 10.2628 18.6467Z" fill="#F1C40F"/>
<path d="M10.8868 18.6467C10.8868 18.8554 10.7481 18.9946 10.5401 18.9946C10.332 18.9946 10.1934 18.8554 10.1934 18.6467C10.1934 18.438 10.332 18.2988 10.5401 18.2988C10.7481 18.2988 10.8868 18.438 10.8868 18.6467Z" fill="#F1C40F"/>
<path d="M11.5118 18.6467C11.5118 18.8554 11.3731 18.9946 11.1651 18.9946C10.957 18.9946 10.8184 18.8554 10.8184 18.6467C10.8184 18.438 10.957 18.2988 11.1651 18.2988C11.3731 18.2988 11.5118 18.438 11.5118 18.6467Z" fill="#F1C40F"/>
<path d="M12.1358 18.6467C12.1358 18.8554 11.9971 18.9946 11.7891 18.9946C11.5811 18.9946 11.4424 18.8554 11.4424 18.6467C11.4424 18.438 11.5811 18.2988 11.7891 18.2988C11.9971 18.2988 12.1358 18.438 12.1358 18.6467Z" fill="#F1C40F"/>
<path d="M12.8292 18.6467C12.8292 18.8554 12.6905 18.9946 12.4825 18.9946C12.2744 18.9946 12.1357 18.8554 12.1357 18.6467C12.1357 18.438 12.2744 18.2988 12.4825 18.2988C12.6905 18.2988 12.8292 18.438 12.8292 18.6467Z" fill="#F1C40F"/>
<path d="M13.4532 18.6467C13.4532 18.8554 13.3145 18.9946 13.1065 18.9946C12.8985 18.9946 12.7598 18.8554 12.7598 18.6467C12.7598 18.438 12.8985 18.2988 13.1065 18.2988C13.3145 18.2988 13.4532 18.438 13.4532 18.6467Z" fill="#F1C40F"/>
<path d="M14.0772 18.6467C14.0772 18.8554 13.9385 18.9946 13.7305 18.9946C13.5225 18.9946 13.3838 18.8554 13.3838 18.6467C13.3838 18.438 13.5225 18.2988 13.7305 18.2988C13.9385 18.2988 14.0772 18.438 14.0772 18.6467Z" fill="#F1C40F"/>
<path d="M14.7012 18.6467C14.7012 18.8554 14.5626 18.9946 14.3545 18.9946C14.1465 18.9946 14.0078 18.8554 14.0078 18.6467C14.0078 18.438 14.1465 18.2988 14.3545 18.2988C14.5626 18.2988 14.7012 18.438 14.7012 18.6467Z" fill="#F1C40F"/>
<path d="M15.3946 18.6467C15.3946 18.8554 15.2559 18.9946 15.0479 18.9946C14.8399 18.9946 14.7012 18.8554 14.7012 18.6467C14.7012 18.438 14.8399 18.2988 15.0479 18.2988C15.1866 18.2988 15.3946 18.438 15.3946 18.6467Z" fill="#F1C40F"/>
<path d="M16.0186 18.6467C16.0186 18.8554 15.8799 18.9946 15.6719 18.9946C15.4639 18.9946 15.3252 18.8554 15.3252 18.6467C15.3252 18.438 15.4639 18.2988 15.6719 18.2988C15.8799 18.2988 16.0186 18.438 16.0186 18.6467Z" fill="#F1C40F"/>
<path d="M16.6426 18.6467C16.6426 18.8554 16.504 18.9946 16.2959 18.9946C16.0879 18.9946 15.9492 18.8554 15.9492 18.6467C15.9492 18.438 16.0879 18.2988 16.2959 18.2988C16.504 18.2988 16.6426 18.438 16.6426 18.6467Z" fill="#F1C40F"/>
<path d="M17.2667 18.6467C17.2667 18.8554 17.128 18.9946 16.92 18.9946C16.7119 18.9946 16.5732 18.8554 16.5732 18.6467C16.5732 18.438 16.7119 18.2988 16.92 18.2988C17.128 18.2988 17.2667 18.438 17.2667 18.6467Z" fill="#F1C40F"/>
<path d="M17.8907 18.6467C17.8907 18.8554 17.752 18.9946 17.544 18.9946C17.336 18.9946 17.1973 18.8554 17.1973 18.6467C17.1973 18.438 17.336 18.2988 17.544 18.2988C17.752 18.2988 17.8907 18.438 17.8907 18.6467Z" fill="#F1C40F"/>
<path d="M18.5841 18.6467C18.5841 18.8554 18.4454 18.9946 18.2373 18.9946C18.0293 18.9946 17.8906 18.8554 17.8906 18.6467C17.8906 18.438 18.0293 18.2988 18.2373 18.2988C18.4454 18.2988 18.5841 18.438 18.5841 18.6467Z" fill="#F1C40F"/>
<path d="M19.2081 18.6467C19.2081 18.8554 19.0694 18.9946 18.8614 18.9946C18.6533 18.9946 18.5146 18.8554 18.5146 18.6467C18.5146 18.438 18.6533 18.2988 18.8614 18.2988C19.0694 18.2988 19.2081 18.438 19.2081 18.6467Z" fill="#F1C40F"/>
<path d="M19.8321 18.6467C19.8321 18.8554 19.6934 18.9946 19.4854 18.9946C19.2774 18.9946 19.1387 18.8554 19.1387 18.6467C19.1387 18.438 19.2774 18.2988 19.4854 18.2988C19.6934 18.2988 19.8321 18.438 19.8321 18.6467Z" fill="#F1C40F"/>
<path d="M20.4561 18.6467C20.4561 18.8554 20.3174 18.9946 20.1094 18.9946C19.9014 18.9946 19.7627 18.8554 19.7627 18.6467C19.7627 18.438 19.9014 18.2988 20.1094 18.2988C20.3174 18.2988 20.4561 18.438 20.4561 18.6467Z" fill="#F1C40F"/>
<path d="M21.1505 18.6467C21.1505 18.8554 21.0118 18.9946 20.8037 18.9946C20.5957 18.9946 20.457 18.8554 20.457 18.6467C20.457 18.438 20.5957 18.2988 20.8037 18.2988C21.0118 18.2988 21.1505 18.438 21.1505 18.6467Z" fill="#F1C40F"/>
<path d="M21.7745 18.6467C21.7745 18.8554 21.6358 18.9946 21.4278 18.9946C21.2197 18.9946 21.0811 18.8554 21.0811 18.6467C21.0811 18.438 21.2197 18.2988 21.4278 18.2988C21.6358 18.2988 21.7745 18.438 21.7745 18.6467Z" fill="#F1C40F"/>
<path d="M22.3985 18.6467C22.3985 18.8554 22.2598 18.9946 22.0518 18.9946C21.8438 18.9946 21.7051 18.8554 21.7051 18.6467C21.7051 18.438 21.8438 18.2988 22.0518 18.2988C22.2598 18.2988 22.3985 18.438 22.3985 18.6467Z" fill="#F1C40F"/>
<path d="M23.0225 18.6467C23.0225 18.8554 22.8838 18.9946 22.6758 18.9946C22.4678 18.9946 22.3291 18.8554 22.3291 18.6467C22.3291 18.438 22.4678 18.2988 22.6758 18.2988C22.8838 18.2988 23.0225 18.438 23.0225 18.6467Z" fill="#F1C40F"/>
<path d="M23.7159 18.6467C23.7159 18.8554 23.5772 18.9946 23.3692 18.9946C23.1611 18.9946 23.0225 18.8554 23.0225 18.6467C23.0225 18.438 23.1611 18.2988 23.3692 18.2988C23.5079 18.2988 23.7159 18.438 23.7159 18.6467Z" fill="#F1C40F"/>
<path d="M24.3399 18.6467C24.3399 18.8554 24.2012 18.9946 23.9932 18.9946C23.7852 18.9946 23.6465 18.8554 23.6465 18.6467C23.6465 18.438 23.7852 18.2988 23.9932 18.2988C24.2012 18.2988 24.3399 18.438 24.3399 18.6467Z" fill="#F1C40F"/>
<path d="M24.9639 18.6467C24.9639 18.8554 24.8253 18.9946 24.6172 18.9946C24.4092 18.9946 24.2705 18.8554 24.2705 18.6467C24.2705 18.438 24.4092 18.2988 24.6172 18.2988C24.8253 18.2988 24.9639 18.438 24.9639 18.6467Z" fill="#F1C40F"/>
<path d="M25.588 18.6467C25.588 18.8554 25.4493 18.9946 25.2412 18.9946C25.0332 18.9946 24.8945 18.8554 24.8945 18.6467C24.8945 18.438 25.0332 18.2988 25.2412 18.2988C25.4493 18.2988 25.588 18.438 25.588 18.6467Z" fill="#F1C40F"/>
<path d="M26.212 18.6467C26.212 18.8554 26.0733 18.9946 25.8653 18.9946C25.6572 18.9946 25.5186 18.8554 25.5186 18.6467C25.5186 18.438 25.6572 18.2988 25.8653 18.2988C26.0733 18.2988 26.212 18.438 26.212 18.6467Z" fill="#F1C40F"/>
<path d="M26.9053 18.6467C26.9053 18.8554 26.7667 18.9946 26.5586 18.9946C26.3506 18.9946 26.2119 18.8554 26.2119 18.6467C26.2119 18.438 26.3506 18.2988 26.5586 18.2988C26.7667 18.2988 26.9053 18.438 26.9053 18.6467Z" fill="#F1C40F"/>
<path d="M27.5294 18.6467C27.5294 18.8554 27.3907 18.9946 27.1827 18.9946C26.9746 18.9946 26.8359 18.8554 26.8359 18.6467C26.8359 18.438 26.9746 18.2988 27.1827 18.2988C27.3907 18.2988 27.5294 18.438 27.5294 18.6467Z" fill="#F1C40F"/>
<path d="M28.1534 18.6467C28.1534 18.8554 28.0147 18.9946 27.8067 18.9946C27.5986 18.9946 27.46 18.8554 27.46 18.6467C27.46 18.438 27.5986 18.2988 27.8067 18.2988C28.0147 18.2988 28.1534 18.438 28.1534 18.6467Z" fill="#F1C40F"/>
<path d="M28.7774 18.6467C28.7774 18.8554 28.6387 18.9946 28.4307 18.9946C28.2227 18.9946 28.084 18.8554 28.084 18.6467C28.084 18.438 28.2227 18.2988 28.4307 18.2988C28.6387 18.2988 28.7774 18.438 28.7774 18.6467Z" fill="#F1C40F"/>
<path d="M29.4708 18.6467C29.4708 18.8554 29.3321 18.9946 29.1241 18.9946C28.916 18.9946 28.7773 18.8554 28.7773 18.6467C28.7773 18.438 28.916 18.2988 29.1241 18.2988C29.3321 18.2988 29.4708 18.438 29.4708 18.6467Z" fill="#F1C40F"/>
<path d="M30.0948 18.6467C30.0948 18.8554 29.9561 18.9946 29.7481 18.9946C29.5401 18.9946 29.4014 18.8554 29.4014 18.6467C29.4014 18.438 29.5401 18.2988 29.7481 18.2988C29.9561 18.2988 30.0948 18.438 30.0948 18.6467Z" fill="#F1C40F"/>
<path d="M30.7198 18.6467C30.7198 18.8554 30.5811 18.9946 30.3731 18.9946C30.1651 18.9946 30.0264 18.8554 30.0264 18.6467C30.0264 18.438 30.1651 18.2988 30.3731 18.2988C30.5811 18.2988 30.7198 18.438 30.7198 18.6467Z" fill="#F1C40F"/>
<path d="M31.3438 18.6467C31.3438 18.8554 31.2051 18.9946 30.9971 18.9946C30.7891 18.9946 30.6504 18.8554 30.6504 18.6467C30.6504 18.438 30.7891 18.2988 30.9971 18.2988C31.2051 18.2988 31.3438 18.438 31.3438 18.6467Z" fill="#F1C40F"/>
<path d="M32.0372 18.6467C32.0372 18.8554 31.8985 18.9946 31.6905 18.9946C31.4824 18.9946 31.3438 18.8554 31.3438 18.6467C31.3438 18.438 31.4824 18.2988 31.6905 18.2988C31.8292 18.2988 32.0372 18.438 32.0372 18.6467Z" fill="#F1C40F"/>
<path d="M32.6612 18.6467C32.6612 18.8554 32.5225 18.9946 32.3145 18.9946C32.1065 18.9946 31.9678 18.8554 31.9678 18.6467C31.9678 18.438 32.1065 18.2988 32.3145 18.2988C32.5225 18.2988 32.6612 18.438 32.6612 18.6467Z" fill="#F1C40F"/>
<path d="M33.2852 18.6467C33.2852 18.8554 33.1465 18.9946 32.9385 18.9946C32.7305 18.9946 32.5918 18.8554 32.5918 18.6467C32.5918 18.438 32.7305 18.2988 32.9385 18.2988C33.1465 18.2988 33.2852 18.438 33.2852 18.6467Z" fill="#F1C40F"/>
<path d="M33.9093 18.6467C33.9093 18.8554 33.7706 18.9946 33.5625 18.9946C33.3545 18.9946 33.2158 18.8554 33.2158 18.6467C33.2158 18.438 33.3545 18.2988 33.5625 18.2988C33.7706 18.2988 33.9093 18.438 33.9093 18.6467Z" fill="#F1C40F"/>
<path d="M34.5333 18.6467C34.5333 18.8554 34.3946 18.9946 34.1866 18.9946C33.9785 18.9946 33.8398 18.8554 33.8398 18.6467C33.8398 18.438 33.9785 18.2988 34.1866 18.2988C34.3946 18.2988 34.5333 18.438 34.5333 18.6467Z" fill="#F1C40F"/>
<path d="M35.2266 18.6467C35.2266 18.8554 35.0879 18.9946 34.8799 18.9946C34.6719 18.9946 34.5332 18.8554 34.5332 18.6467C34.5332 18.438 34.6719 18.2988 34.8799 18.2988C35.0879 18.2988 35.2266 18.438 35.2266 18.6467Z" fill="#F1C40F"/>
<path d="M35.8507 18.6467C35.8507 18.8554 35.712 18.9946 35.5039 18.9946C35.2959 18.9946 35.1572 18.8554 35.1572 18.6467C35.1572 18.438 35.2959 18.2988 35.5039 18.2988C35.712 18.2988 35.8507 18.438 35.8507 18.6467Z" fill="#F1C40F"/>
<path d="M36.4747 18.6467C36.4747 18.8554 36.336 18.9946 36.128 18.9946C35.9199 18.9946 35.7812 18.8554 35.7812 18.6467C35.7812 18.438 35.9199 18.2988 36.128 18.2988C36.336 18.2988 36.4747 18.438 36.4747 18.6467Z" fill="#F1C40F"/>
<path d="M37.0987 18.6467C37.0987 18.8554 36.96 18.9946 36.752 18.9946C36.544 18.9946 36.4053 18.8554 36.4053 18.6467C36.4053 18.438 36.544 18.2988 36.752 18.2988C36.96 18.2988 37.0987 18.438 37.0987 18.6467Z" fill="#F1C40F"/>
<path d="M37.7921 18.6467C37.7921 18.8554 37.6534 18.9946 37.4453 18.9946C37.2373 18.9946 37.0986 18.8554 37.0986 18.6467C37.0986 18.438 37.2373 18.2988 37.4453 18.2988C37.6534 18.2988 37.7921 18.438 37.7921 18.6467Z" fill="#F1C40F"/>
<path d="M38.4161 18.6467C38.4161 18.8554 38.2774 18.9946 38.0694 18.9946C37.8613 18.9946 37.7227 18.8554 37.7227 18.6467C37.7227 18.438 37.8613 18.2988 38.0694 18.2988C38.2774 18.2988 38.4161 18.438 38.4161 18.6467Z" fill="#F1C40F"/>
<path d="M39.0401 18.6467C39.0401 18.8554 38.9014 18.9946 38.6934 18.9946C38.4854 18.9946 38.3467 18.8554 38.3467 18.6467C38.3467 18.438 38.4854 18.2988 38.6934 18.2988C38.9014 18.2988 39.0401 18.438 39.0401 18.6467Z" fill="#F1C40F"/>
<path d="M39.6651 18.6467C39.6651 18.8554 39.5264 18.9946 39.3184 18.9946C39.1104 18.9946 38.9717 18.8554 38.9717 18.6467C38.9717 18.438 39.1104 18.2988 39.3184 18.2988C39.5264 18.2988 39.6651 18.438 39.6651 18.6467Z" fill="#F1C40F"/>
<path d="M40.3585 18.6467C40.3585 18.8554 40.2198 18.9946 40.0118 18.9946C39.8037 18.9946 39.665 18.8554 39.665 18.6467C39.665 18.438 39.8037 18.2988 40.0118 18.2988C40.1504 18.2988 40.3585 18.438 40.3585 18.6467Z" fill="#F1C40F"/>
<path d="M40.9825 18.6467C40.9825 18.8554 40.8438 18.9946 40.6358 18.9946C40.4277 18.9946 40.2891 18.8554 40.2891 18.6467C40.2891 18.438 40.4277 18.2988 40.6358 18.2988C40.8438 18.2988 40.9825 18.438 40.9825 18.6467Z" fill="#F1C40F"/>
<path d="M41.6065 18.6467C41.6065 18.8554 41.4678 18.9946 41.2598 18.9946C41.0518 18.9946 40.9131 18.8554 40.9131 18.6467C40.9131 18.438 41.0518 18.2988 41.2598 18.2988C41.4678 18.2988 41.6065 18.438 41.6065 18.6467Z" fill="#F1C40F"/>
<path d="M42.2305 18.6467C42.2305 18.8554 42.0919 18.9946 41.8838 18.9946C41.6758 18.9946 41.5371 18.8554 41.5371 18.6467C41.5371 18.438 41.6758 18.2988 41.8838 18.2988C42.0919 18.2988 42.2305 18.438 42.2305 18.6467Z" fill="#F1C40F"/>
<path d="M42.8546 18.6467C42.8546 18.8554 42.7159 18.9946 42.5078 18.9946C42.2998 18.9946 42.1611 18.8554 42.1611 18.6467C42.1611 18.438 42.2998 18.2988 42.5078 18.2988C42.7159 18.2988 42.8546 18.438 42.8546 18.6467Z" fill="#F1C40F"/>
<path d="M43.5479 18.6467C43.5479 18.8554 43.4092 18.9946 43.2012 18.9946C42.9932 18.9946 42.8545 18.8554 42.8545 18.6467C42.8545 18.438 42.9932 18.2988 43.2012 18.2988C43.4092 18.2988 43.5479 18.438 43.5479 18.6467Z" fill="#F1C40F"/>
<path d="M44.1719 18.6467C44.1719 18.8554 44.0333 18.9946 43.8252 18.9946C43.6172 18.9946 43.4785 18.8554 43.4785 18.6467C43.4785 18.438 43.6172 18.2988 43.8252 18.2988C44.0333 18.2988 44.1719 18.438 44.1719 18.6467Z" fill="#F1C40F"/>
<path d="M44.796 18.6467C44.796 18.8554 44.6573 18.9946 44.4493 18.9946C44.2412 18.9946 44.1025 18.8554 44.1025 18.6467C44.1025 18.438 44.2412 18.2988 44.4493 18.2988C44.6573 18.2988 44.796 18.438 44.796 18.6467Z" fill="#F1C40F"/>
<path d="M45.42 18.6467C45.42 18.8554 45.2813 18.9946 45.0733 18.9946C44.8652 18.9946 44.7266 18.8554 44.7266 18.6467C44.7266 18.438 44.8652 18.2988 45.0733 18.2988C45.2813 18.2988 45.42 18.438 45.42 18.6467Z" fill="#F1C40F"/>
<path d="M46.1134 18.6467C46.1134 18.8554 45.9747 18.9946 45.7666 18.9946C45.5586 18.9946 45.4199 18.8554 45.4199 18.6467C45.4199 18.438 45.5586 18.2988 45.7666 18.2988C45.9747 18.2988 46.1134 18.438 46.1134 18.6467Z" fill="#F1C40F"/>
<path d="M46.7374 18.6467C46.7374 18.8554 46.5987 18.9946 46.3907 18.9946C46.1826 18.9946 46.0439 18.8554 46.0439 18.6467C46.0439 18.438 46.1826 18.2988 46.3907 18.2988C46.5987 18.2988 46.7374 18.438 46.7374 18.6467Z" fill="#F1C40F"/>
<path d="M47.3614 18.6467C47.3614 18.8554 47.2227 18.9946 47.0147 18.9946C46.8067 18.9946 46.668 18.8554 46.668 18.6467C46.668 18.438 46.8067 18.2988 47.0147 18.2988C47.2227 18.2988 47.3614 18.438 47.3614 18.6467Z" fill="#F1C40F"/>
<path d="M47.9854 18.6467C47.9854 18.8554 47.8467 18.9946 47.6387 18.9946C47.4307 18.9946 47.292 18.8554 47.292 18.6467C47.292 18.438 47.4307 18.2988 47.6387 18.2988C47.8467 18.2988 47.9854 18.438 47.9854 18.6467Z" fill="#F1C40F"/>
<path d="M48.6788 18.6467C48.6788 18.8554 48.5401 18.9946 48.3321 18.9946C48.124 18.9946 47.9854 18.8554 47.9854 18.6467C47.9854 18.438 48.124 18.2988 48.3321 18.2988C48.4708 18.2988 48.6788 18.438 48.6788 18.6467Z" fill="#F1C40F"/>
<path d="M49.3038 18.6467C49.3038 18.8554 49.1651 18.9946 48.9571 18.9946C48.749 18.9946 48.6104 18.8554 48.6104 18.6467C48.6104 18.438 48.749 18.2988 48.9571 18.2988C49.1651 18.2988 49.3038 18.438 49.3038 18.6467Z" fill="#F1C40F"/>
<path d="M49.9278 18.6467C49.9278 18.8554 49.7891 18.9946 49.5811 18.9946C49.3731 18.9946 49.2344 18.8554 49.2344 18.6467C49.2344 18.438 49.3731 18.2988 49.5811 18.2988C49.7891 18.2988 49.9278 18.438 49.9278 18.6467Z" fill="#F1C40F"/>
<path d="M50.5518 18.6467C50.5518 18.8554 50.4131 18.9946 50.2051 18.9946C49.9971 18.9946 49.8584 18.8554 49.8584 18.6467C49.8584 18.438 49.9971 18.2988 50.2051 18.2988C50.4131 18.2988 50.5518 18.438 50.5518 18.6467Z" fill="#F1C40F"/>
<path d="M51.1759 18.6467C51.1759 18.8554 51.0372 18.9946 50.8291 18.9946C50.6211 18.9946 50.4824 18.8554 50.4824 18.6467C50.4824 18.438 50.6211 18.2988 50.8291 18.2988C51.0372 18.2988 51.1759 18.438 51.1759 18.6467Z" fill="#F1C40F"/>
</g>
<defs>
<clipPath id="clip0_250_4301">
<rect width="57" height="51" fill="white"/>
</clipPath>
</defs>
</svg>
