<svg width="69" height="42" viewBox="0 0 69 42" fill="none" xmlns="http://www.w3.org/2000/svg">
<g clip-path="url(#clip0_250_4679)">
<path d="M58.7373 40.6341L61.8244 35.6829V40.6341H58.7373Z" fill="#B8B824"/>
<path d="M64.9947 40.6341L61.8242 35.6829V40.6341H64.9947Z" fill="#93932F"/>
<path d="M59.5713 38.2441L61.824 34.6587V38.2441H59.5713Z" fill="#A4AB18"/>
<path d="M64.1604 38.2441L61.8242 34.6587V38.2441H64.1604Z" fill="#76770B"/>
<path d="M60.1553 36.4513L61.824 33.8049V36.4513H60.1553Z" fill="#B8B824"/>
<path d="M63.5763 36.4513L61.8242 33.8049V36.4513H63.5763Z" fill="#93932F"/>
<path d="M16.5195 41.2317L37.7118 0L63.1592 41.2317H16.5195Z" fill="#50C8E7"/>
<path d="M55.3171 41.0611H32.623L38.8806 21.8538L44.3038 18.3538L55.3171 41.0611Z" fill="#45B4D0"/>
<path d="M38.8799 39.0974L42.551 33.3779V39.0974H38.8799Z" fill="#B8B824"/>
<path d="M46.1384 39.0974L42.5508 33.3779V39.0974H46.1384Z" fill="#93932F"/>
<path d="M39.8809 36.3658L42.5508 32.1829V36.3658H39.8809Z" fill="#A4AB18"/>
<path d="M45.2207 36.3658L42.5508 32.1829V36.3658H45.2207Z" fill="#76770B"/>
<path d="M40.6318 34.2317L42.5508 31.2439V34.2317H40.6318Z" fill="#B8B824"/>
<path d="M44.4698 34.2317L42.5508 31.2439V34.2317H44.4698Z" fill="#93932F"/>
<path d="M4.42188 41.2318L23.6952 7.34155L44.2199 41.2318H4.42188Z" fill="#6CDFF1"/>
<path d="M24.2789 30.6464L16.5195 41.2318H39.7976L31.1205 28.0854L24.2789 30.6464Z" fill="#4EBFDA"/>
<path d="M2.91992 40.6342L7.25849 33.8049V40.6342H2.91992Z" fill="#B8B824"/>
<path d="M11.5974 40.6342L7.25879 33.8049V40.6342H11.5974Z" fill="#93932F"/>
<path d="M4.08789 37.3903L7.25839 32.3538V37.3903H4.08789Z" fill="#A4AB18"/>
<path d="M10.4293 37.3903L7.25879 32.3538V37.3903H10.4293Z" fill="#76770B"/>
<path d="M4.92188 34.8293L7.25803 31.2439V34.8293H4.92188Z" fill="#B8B824"/>
<path d="M9.59494 34.8293L7.25879 31.2439V34.8293H9.59494Z" fill="#93932F"/>
<path d="M8.84375 40.6341L14.6007 31.6707V40.6341H8.84375Z" fill="#B8B824"/>
<path d="M20.3575 40.6341L14.6006 31.6707V40.6341H20.3575Z" fill="#93932F"/>
<path d="M10.4287 36.2804L14.6004 29.7073V36.2804H10.4287Z" fill="#A4AB18"/>
<path d="M18.8557 36.2804L14.6006 29.7073V36.2804H18.8557Z" fill="#76770B"/>
<path d="M11.5137 33.0365L14.6007 28.1707V33.0365H11.5137Z" fill="#B8B824"/>
<path d="M17.6876 33.0365L14.6006 28.1707V33.0365H17.6876Z" fill="#93932F"/>
<path d="M17.5215 40.6341L20.4417 35.939V40.6341H17.5215Z" fill="#B8B824"/>
<path d="M23.445 40.6341L20.4414 35.939V40.6341H23.445Z" fill="#93932F"/>
<path d="M18.2725 38.4146L20.4417 35V38.4146H18.2725Z" fill="#A4AB18"/>
<path d="M22.6941 38.4146L20.4414 35V38.4146H22.6941Z" fill="#76770B"/>
<path d="M18.8564 36.7072L20.4417 34.1462V36.7072H18.8564Z" fill="#B8B824"/>
<path d="M22.1101 36.7072L20.4414 34.1462V36.7072H22.1101Z" fill="#93932F"/>
<path d="M42.1338 40.6342L46.4724 33.8049V40.6342H42.1338Z" fill="#B8B824"/>
<path d="M50.8112 40.6342L46.4727 33.8049V40.6342H50.8112Z" fill="#93932F"/>
<path d="M43.3018 37.3903L46.4723 32.3538V37.3903H43.3018Z" fill="#A4AB18"/>
<path d="M49.6432 37.3903L46.4727 32.3538V37.3903H49.6432Z" fill="#76770B"/>
<path d="M44.1357 34.8293L46.4719 31.2439V34.8293H44.1357Z" fill="#B8B824"/>
<path d="M48.8088 34.8293L46.4727 31.2439V34.8293H48.8088Z" fill="#93932F"/>
<path d="M11.0137 29.7074L19.3571 21.8537L24.2797 30.6464L31.1213 28.0855L37.8795 30.8172L23.6957 7.34155L11.0137 29.7074Z" fill="#74F8FD"/>
<path d="M23.695 7.34155L19.3564 21.8537L24.2791 30.6464L23.695 7.34155Z" fill="#9AF8FD"/>
<path d="M31.1211 28.0853L33.3738 23.3901L37.8793 30.817L31.1211 28.0853Z" fill="#9AF8FD"/>
<path d="M30.1201 14.8537L38.8807 21.8537L44.3039 18.3537L50.3946 20.6585L37.7126 0L30.1201 14.8537Z" fill="#6CDFF1"/>
<path d="M37.7119 0L38.88 21.8537L44.3032 18.3537L45.6382 12.8902L37.7119 0Z" fill="#74F8FD"/>
<path d="M68.2491 41.9999H0.667473C0.250302 41.9999 0 41.6584 0 41.317C0 40.9755 0.333736 40.634 0.667473 40.634H68.2491C68.6663 40.634 68.9166 40.9755 68.9166 41.317C68.9166 41.6584 68.6663 41.9999 68.2491 41.9999Z" fill="#614D44"/>
</g>
<defs>
<clipPath id="clip0_250_4679">
<rect width="69" height="42" fill="white"/>
</clipPath>
</defs>
</svg>
