<svg width="38" height="49" viewBox="0 0 38 49" fill="none" xmlns="http://www.w3.org/2000/svg">
<g clip-path="url(#clip0_250_4741)">
<path d="M17.2004 40.3279H16.4053V47.0349H17.2004V40.3279Z" fill="#1C1C1C"/>
<path d="M21.553 40.3279H20.7578V47.0349H21.553V40.3279Z" fill="#595858"/>
<path d="M19 45.1125H16.4053V49.0001H19V45.1125Z" fill="#595858"/>
<path d="M21.5947 45.1125H19V49.0001H21.5947V45.1125Z" fill="#1C1C1C"/>
<path d="M5.56608 15.1229C5.56608 6.7925 11.5925 0 19 0C8.49559 0 0 6.7925 0 15.1229C0 26.0593 12.4295 38.1918 17.1586 42.4211H17.7026C14.3546 38.1918 5.56608 26.102 5.56608 15.1229Z" fill="#FFDF5A"/>
<path d="M5.56641 15.1229C5.56641 26.0593 14.3131 38.1918 17.6611 42.4211H18.2889C16.6149 38.1918 12.2624 26.0593 12.2624 15.1229C12.2624 6.74978 15.2757 0 18.9585 0C11.5928 0 5.56641 6.7925 5.56641 15.1229Z" fill="#E54B42"/>
<path d="M12.3037 15.1229C12.3037 26.0593 16.6561 38.1918 18.3301 42.4211H18.9579V0C15.3169 0 12.3037 6.7925 12.3037 15.1229Z" fill="#FFDF5A"/>
<path d="M38 15.1229C37.9581 6.7925 29.4626 0 19 0C26.4075 0 32.3921 6.7925 32.3921 15.1229C32.3921 26.0593 23.6454 38.1918 20.2974 42.4211H20.8414C25.5705 38.1918 38 26.102 38 15.1229Z" fill="#B7281D"/>
<path d="M25.6542 15.1229C25.6542 26.0593 21.3018 38.1918 19.6278 42.4211H20.2555C23.6035 38.1918 32.3502 26.0593 32.3502 15.1229C32.3921 6.7925 26.4075 0 19 0C22.6828 0 25.6542 6.7925 25.6542 15.1229Z" fill="#EAB828"/>
<path d="M19.6276 42.4211C21.3016 38.1918 25.654 26.0593 25.654 15.1229C25.654 6.74978 22.6408 0 18.958 0V42.4211H19.6276Z" fill="#B7281D"/>
</g>
<defs>
<clipPath id="clip0_250_4741">
<rect width="38" height="49" fill="white"/>
</clipPath>
</defs>
</svg>
