<svg width="46" height="54" viewBox="0 0 46 54" fill="none" xmlns="http://www.w3.org/2000/svg">
<g clip-path="url(#clip0_276_5131)">
<path d="M32.1191 22.4999L30.8019 23.0454L30.498 24.4772L29.5523 23.3863L28.1338 23.5227L28.8768 22.2954L28.3027 20.9658L29.6874 21.3068L30.7681 20.3181L30.8695 21.784L32.1191 22.4999Z" fill="#EFB706"/>
<path opacity="0.65" d="M24.1816 52.7386C24.1816 52.7727 24.1816 52.8068 24.1816 52.8068C24.2492 52.9772 24.5869 53.1477 25.026 53.1818C25.0935 53.1818 25.1611 53.1818 25.2286 53.1818C25.769 53.2159 26.2081 53.0795 26.3094 52.875C26.3094 52.8409 26.3432 52.8068 26.3432 52.7727C26.3432 52.6363 26.1743 52.4659 25.8703 52.3977C25.7015 52.3295 25.4988 52.2954 25.2624 52.2954C25.1273 52.2954 24.9922 52.2954 24.8909 52.2954C24.7896 52.2954 24.722 52.3295 24.6207 52.3295C24.3505 52.4659 24.1816 52.5681 24.1816 52.7386Z" fill="#A3C0D6"/>
<path opacity="0.65" d="M20.6016 53.216C20.6016 53.5228 22.628 53.8637 25.1273 53.9319H25.3299C27.7616 54.0001 29.6867 53.8296 29.6867 53.5228C29.6867 53.2842 28.5722 53.0455 26.951 52.9092C26.7484 52.8751 26.5458 52.8751 26.3431 52.8751C25.9716 52.841 25.5663 52.841 25.161 52.8069H24.9922C24.722 52.8069 24.4518 52.8069 24.2154 52.8069C22.1552 52.8069 20.6016 52.9433 20.6016 53.216Z" fill="#A3C0D6"/>
<path opacity="0.65" d="M21.1421 34.0568C21.0408 37.2273 21.4461 39.375 23.5738 40.9773C24.5195 41.6932 24.9923 42.8864 24.9585 44.1136L24.7897 48.4091C24.7897 48.4773 24.7897 48.5455 24.7897 48.6136V49.0227C24.7897 49.0568 24.7897 49.125 24.7897 49.1591L24.6546 52.5C24.6546 52.6023 24.7897 52.6705 24.9585 52.6705C25.33 52.7045 25.8704 52.6023 25.8704 52.3977L26.1744 44.1136C26.2082 42.8864 26.8499 41.7273 27.8631 41.0795C28.4372 40.7045 28.9439 40.2955 29.3829 39.8182C30.3286 38.7614 30.9703 37.3295 31.0378 35.2841C31.1392 32.7273 30.9365 30.1023 30.2273 28.0568L22.2229 27.75C22.2229 27.75 22.1891 27.75 22.1891 27.7841C21.5811 29.9318 21.2096 32.2841 21.1421 34.0568Z" fill="#A3C0D6"/>
<path d="M30.869 33.2385C31.0717 34.3976 30.9028 40.5681 25.6341 40.5681C20.8044 40.5681 21.2097 33.7499 21.3786 33.2385C25.1275 33.9203 28.64 33.6135 30.869 33.2385Z" fill="#EFB706"/>
<path d="M21.3779 33.2385C21.3779 33.443 23.4719 33.6476 26.0725 33.7499C28.7069 33.8521 30.8346 33.443 30.8346 33.2385C30.8346 33.034 28.7069 33.068 26.0725 32.9999C23.4719 32.8976 21.3779 33.034 21.3779 33.2385Z" fill="#FFE36C"/>
<path opacity="0.71" d="M22.7291 36.0001C22.9993 36.0342 22.4927 32.591 23.0331 31.091C23.5735 29.591 23.8775 28.841 23.8775 28.841C23.9788 28.2615 23.6748 28.2956 23.2358 28.2956C22.898 28.2615 22.594 28.5683 22.4927 29.0115L22.155 30.5456C22.0874 30.8524 21.8172 32.1819 21.9523 33.6137C21.9523 33.6819 21.9861 33.7501 21.9861 33.8183C22.0874 34.2274 22.459 35.966 22.7291 36.0001Z" fill="white"/>
<path opacity="0.46" d="M27.4236 40.6022C26.174 41.3181 25.9038 42.5795 25.9038 42.5795L25.566 51.8863C25.566 52.159 25.3634 52.3636 25.127 52.3636C24.9243 52.3636 24.7893 52.159 24.7893 51.9545L25.127 42.5454C25.0932 41.4204 23.9111 40.4658 23.9111 40.4658C25.4985 41.3522 27.4236 40.6022 27.4236 40.6022Z" fill="white"/>
<path opacity="0.46" d="M24.2832 52.7045C24.2832 52.875 24.6547 53.0113 25.0938 53.0454C25.5328 53.0454 25.9381 52.9431 25.9381 52.7727C25.9381 52.6022 25.5666 52.4659 25.1275 52.4318C24.6885 52.3977 24.317 52.534 24.2832 52.7045Z" fill="white"/>
<path opacity="0.5" d="M26.4442 40.4999C30.4633 36.6135 28.0653 27.9885 28.0653 27.9885L30.1255 28.0567C30.801 30.1022 30.9699 32.7272 30.9023 35.284C30.8348 37.3294 30.2268 38.7613 29.2812 39.8181C29.2136 39.8863 29.1461 39.9885 29.0785 40.0567C29.0448 40.0908 29.0448 40.0908 29.011 40.1249C28.8759 40.2613 28.707 40.3976 28.5382 40.534C28.3017 40.7385 28.0653 40.909 27.8289 41.0794C26.8495 41.7272 26.2415 42.8863 26.2078 44.1135L25.9038 52.3976C26.174 52.4999 26.3766 52.6363 26.3428 52.7726C26.3428 52.8067 26.3428 52.8408 26.3091 52.8749C26.5117 52.8749 26.7144 52.909 26.917 52.909C28.4706 53.0453 29.5514 53.284 29.5514 53.5226C29.5176 53.9999 25.7011 53.9317 25.7011 53.9317C25.5323 53.7272 25.6674 53.3522 25.6674 53.0794C25.6336 42.2044 26.4442 40.4999 26.4442 40.4999Z" fill="#B4C6D6"/>
<path opacity="0.65" d="M22.1885 27.7841C22.1885 27.9204 23.9785 28.0909 26.2076 28.1591C28.4366 28.2273 30.2267 28.1932 30.2267 28.0568C30.2267 27.9204 28.4366 27.75 26.2076 27.6818C24.0123 27.6136 22.1885 27.6477 22.1885 27.7841Z" fill="#A3C0D6"/>
<path opacity="0.65" d="M40.5276 51.8182C40.5276 51.8523 40.5614 51.8523 40.5614 51.8864C40.6965 52.0227 41.068 52.0568 41.507 51.9886C41.5746 51.9886 41.6421 51.9545 41.7097 51.9545C42.2163 51.8182 42.5878 51.5455 42.6216 51.3068C42.6216 51.2727 42.6216 51.2386 42.6216 51.2045C42.5878 51.0682 42.3514 51 42.0474 51C41.8786 51 41.6759 51.0341 41.4395 51.1023C41.3044 51.1364 41.2031 51.1705 41.1018 51.2386C41.0004 51.2727 40.9329 51.3068 40.8653 51.375C40.6289 51.4773 40.4938 51.6818 40.5276 51.8182Z" fill="#A3C0D6"/>
<path opacity="0.65" d="M37.2856 53.4545C37.3869 53.7613 39.3796 53.4204 41.8113 52.6704L41.9801 52.6022C44.3105 51.8863 46.0668 51.1022 45.9992 50.7954C45.9317 50.5568 44.7834 50.6931 43.196 51.1022C42.9934 51.1363 42.7907 51.2045 42.5881 51.2727C42.2166 51.3749 41.845 51.4772 41.4735 51.5795L41.3047 51.6477C41.0345 51.7159 40.7981 51.8181 40.5616 51.8863C38.6028 52.534 37.218 53.1818 37.2856 53.4545Z" fill="#A3C0D6"/>
<path opacity="0.65" d="M31.7128 35.1135C32.6247 38.1817 33.7055 40.0567 36.2048 40.909C37.3193 41.284 38.1636 42.2726 38.5352 43.4317L39.751 47.5226C39.751 47.5908 39.7848 47.659 39.8186 47.6931L39.9199 48.1022C39.9199 48.1363 39.9537 48.2044 39.9537 48.2385L40.8993 51.4431C40.9331 51.5453 41.0682 51.5453 41.2371 51.5113C41.5748 51.4431 42.0814 51.1703 42.0139 50.9658L39.6835 43.0226C39.3457 41.8294 39.5484 40.5681 40.3252 39.6135C40.7305 39.0681 41.102 38.5226 41.3722 37.909C41.9463 36.5794 42.0814 35.0453 41.5073 33.0681C40.7642 30.6135 39.751 28.1931 38.4338 26.4885L30.7672 28.8067C30.7672 28.8067 30.7672 28.8408 30.7334 28.8408C30.8009 31.0567 31.2062 33.409 31.7128 35.1135Z" fill="#A3C0D6"/>
<path d="M40.6626 31.1931C41.2367 32.2158 43.0267 38.1136 38.0282 39.8181C33.435 41.3863 31.6787 34.7727 31.6787 34.2613C35.4276 33.6818 38.6699 32.2499 40.6626 31.1931Z" fill="#EFB706"/>
<path d="M31.6794 34.2613C31.747 34.4658 33.7734 33.9545 36.3064 33.2045C38.8057 32.4545 40.7308 31.3976 40.6633 31.1931C40.5957 30.9885 38.6031 31.7385 36.07 32.4885C33.5708 33.2385 31.6119 34.0567 31.6794 34.2613Z" fill="#FFE36C"/>
<path opacity="0.71" d="M33.8407 36.4091C34.1109 36.3409 32.5236 33.2386 32.5573 31.6363C32.5911 30.0341 32.6249 29.2159 32.6249 29.2159C32.5573 28.6363 32.2534 28.7727 31.8481 28.9091C31.5103 29.0113 31.3077 29.3863 31.3752 29.8295L31.5441 31.3636C31.5779 31.6704 31.7468 33.0341 32.3209 34.3295C32.3547 34.3977 32.3885 34.4659 32.4222 34.5341C32.6587 34.9432 33.5705 36.5113 33.8407 36.4091Z" fill="white"/>
<path opacity="0.46" d="M39.7508 39.2727C38.8052 40.3636 38.9403 41.625 38.9403 41.625L41.5746 50.5568C41.6422 50.7954 41.5409 51.0682 41.3044 51.1363C41.1356 51.2045 40.9329 51.0682 40.8654 50.8636L38.1972 41.8295C37.8257 40.7727 36.4072 40.2613 36.4072 40.2613C38.1297 40.6023 39.7508 39.2727 39.7508 39.2727Z" fill="white"/>
<path opacity="0.46" d="M40.6295 51.75C40.6633 51.9205 41.0686 51.9205 41.5076 51.8182C41.9467 51.6818 42.2507 51.4432 42.2169 51.2727C42.1831 51.1023 41.7778 51.1023 41.3388 51.2046C40.8997 51.3409 40.5957 51.5796 40.6295 51.75Z" fill="white"/>
<path opacity="0.5" d="M38.7716 39.5113C41.3384 34.5341 36.3398 27.1363 36.3398 27.1363L38.3325 26.5227C39.6159 28.2613 40.6291 30.6477 41.3384 33.1363C41.9125 35.1136 41.8112 36.6477 41.2708 37.9432C41.2371 38.0454 41.1695 38.1477 41.1357 38.25C41.1357 38.2841 41.102 38.3182 41.102 38.3522C41.0006 38.5227 40.8993 38.7272 40.798 38.8977C40.6291 39.1704 40.4603 39.4091 40.2914 39.6477C39.5821 40.5682 39.3795 41.8636 39.7172 43.0227L42.0476 50.9659C42.3516 50.9659 42.5542 51.0341 42.588 51.1704C42.588 51.2045 42.588 51.2386 42.588 51.2727C42.7907 51.2045 42.9933 51.1704 43.1622 51.1363C44.682 50.7613 45.7965 50.6591 45.8641 50.8636C45.9992 51.3068 42.3516 52.5 42.3516 52.5C42.1152 52.3636 42.1489 51.9886 42.0476 51.7159C38.5351 41.3863 38.7716 39.5113 38.7716 39.5113Z" fill="#B4C6D6"/>
<path opacity="0.65" d="M30.6997 28.8409C30.7335 28.9772 32.4897 28.534 34.6175 27.8863C36.7452 27.2386 38.4339 26.6249 38.4002 26.4886C38.3664 26.3522 36.6101 26.7954 34.4824 27.4431C32.3546 28.0909 30.6659 28.7045 30.6997 28.8409Z" fill="#A3C0D6"/>
<path d="M17.7988 27.3408C17.2922 26.2158 13.1718 16.4999 12.7327 14.8635C12.0235 12.3408 12.0235 6.34082 12.0235 6.34082H7.0587C7.0587 6.34082 7.02493 12.3408 6.34945 14.8635C5.91039 16.4999 1.7562 26.2158 1.28337 27.3408C-0.168907 30.6135 -0.0338117 32.5567 0.101284 35.1135C0.303927 39.409 1.41846 47.9999 1.72243 49.8408C1.92507 51.2385 2.43168 52.909 4.18792 53.1135C6.01171 53.3181 6.31567 53.4545 9.59174 53.4545C12.8678 53.4545 13.1718 53.3181 14.9956 53.1135C16.7518 52.909 17.2246 51.2385 17.4611 49.8408C17.765 47.9658 18.8796 39.409 19.0822 35.1135C19.116 32.5567 19.2511 30.6135 17.7988 27.3408Z" fill="#6EB246"/>
<path opacity="0.7" d="M15.266 41.7954H3.85041C2.66832 41.7954 1.72266 40.8408 1.72266 39.6476L1.75643 32.4885C1.75643 31.2954 2.7021 30.3408 3.88418 30.3408H15.2997C16.4818 30.3408 17.4275 31.2954 17.4275 32.4885L17.3937 39.6476C17.3937 40.8408 16.4481 41.7954 15.266 41.7954Z" fill="white"/>
<path d="M9.55794 17.4886L10.0645 6.375H7.09245C7.09245 6.375 7.12622 11.0114 6.58584 13.5341C6.14678 15.5455 5.23488 17.8295 4.62695 19.4318C5.36998 19.2273 6.51829 18.9886 7.15999 18.9205C7.56528 18.0682 8.47717 17.4886 9.55794 17.4886Z" fill="#EFB706"/>
<path d="M9.52419 17.4886L9.01758 6.375H11.9897C11.9897 6.375 11.9559 11.0114 12.4963 13.5341C12.9353 15.5455 13.8472 17.8295 14.4552 19.4318C13.7121 19.2273 12.5638 18.9886 11.9221 18.9205C11.5168 18.0682 10.6049 17.4886 9.52419 17.4886Z" fill="#EFB706"/>
<path d="M11.9559 0.715909V1.09091L11.9897 2.31818V2.89773L12.1585 6L6.82227 5.96591L7.12623 2.31818L7.16 1.09091V0.647727C7.16 0.306818 7.46397 -2.45869e-07 7.80171 0.0340907H8.57851H8.81492L11.2804 0.102272C11.6857 0.102272 11.9559 0.375 11.9559 0.715909Z" fill="#EFB706"/>
<path opacity="0.5" d="M11.9894 2.86364V2.28409L11.9557 1.05682V0.681818C11.9557 0.340909 11.6855 0.0681818 11.3139 0.0340909L9.99677 0C10.7398 0.0681818 11.3815 0.443182 11.3477 1.09091C11.2802 2.65909 10.7398 5.42045 9.32129 5.93182H12.1583L11.9894 2.86364Z" fill="#B4C6D6"/>
<path opacity="0.61" d="M7.66669 0.750054C7.90311 0.272781 8.6799 0.409145 8.6799 0.409145C8.6799 0.409145 8.54481 10.091 8.30839 12.6137C8.07197 15.2046 6.31573 18.5796 6.18064 18.4091C6.01177 18.1364 6.99121 15.341 7.12631 14.5228C7.86933 10.6364 7.3965 1.19324 7.66669 0.750054Z" fill="white"/>
<path opacity="0.5" d="M11.9894 5.45466L8.81467 5.42057L7.12598 5.38647C7.19352 5.76147 7.12598 6.37511 7.12598 6.64784L8.71335 6.68193L11.9894 6.71602V5.45466Z" fill="#B4C6D6"/>
<path d="M12.3272 5.62491V5.96582C12.3272 6.17037 12.1921 6.34082 11.9894 6.409C11.9557 6.409 11.9219 6.409 11.8543 6.44309H11.5166H11.1789H9.62526H8.64581H7.4975H7.19354C7.15976 6.44309 7.12599 6.44309 7.09222 6.44309C7.09222 6.44309 7.09222 6.44309 7.05844 6.44309C6.8558 6.37491 6.7207 6.20446 6.7207 5.99991V5.659C6.7207 5.45446 6.8558 5.284 7.05844 5.21582C7.09222 5.21582 7.09222 5.21582 7.12599 5.21582C7.15976 5.21582 7.15976 5.21582 7.19354 5.21582H8.74713H11.8543C11.8881 5.21582 11.9219 5.21582 11.9557 5.21582C12.1583 5.21582 12.3272 5.42037 12.3272 5.62491Z" fill="#EFB706"/>
<path opacity="0.61" d="M11.1118 5.35217C11.078 5.35217 7.59931 5.2158 7.22779 5.28398C7.0927 5.28398 6.99138 5.38626 6.92383 5.42035C8.78139 5.55671 11.2131 5.38626 11.1118 5.35217Z" fill="white"/>
<path opacity="0.5" d="M17.7987 27.3409C17.2921 26.2159 13.2054 16.5682 12.7326 14.5227C12.1585 11.9659 11.9896 6.375 11.9896 6.375H10.3009C10.3347 6.44318 10.3684 6.54545 10.3684 6.61364C11.9558 10.6023 10.0307 16.1591 12.0571 19.9091C16.11 28.4318 14.3538 40.0227 13.2392 47.5227C12.3949 51.7159 3.88385 51.1364 1.85742 50.9659C2.16139 52.0227 2.76932 52.9773 4.05272 53.1136C5.87651 53.3182 6.18048 53.4545 9.45654 53.4545C12.7326 53.4545 13.0366 53.3182 14.8604 53.1136C16.6166 52.9091 17.0894 51.2386 17.3259 49.8409C17.6298 47.9659 18.7444 39.4091 18.947 35.1136C19.1159 32.5568 19.251 30.6136 17.7987 27.3409Z" fill="#B4C6D6"/>
<path opacity="0.61" d="M3.24227 47.0796C3.24227 47.0796 1.28338 35.7614 1.99263 30.6478C2.60056 26.3523 4.18794 24.341 4.28926 24.0001C4.42435 23.5228 5.53889 21.8182 5.77531 22.6705C5.94418 23.3182 3.64755 26.5569 3.17472 31.4319C2.76943 35.966 3.24227 47.0796 3.24227 47.0796Z" fill="white"/>
</g>
<defs>
<clipPath id="clip0_276_5131">
<rect width="46" height="54" fill="white"/>
</clipPath>
</defs>
</svg>
