<svg width="41" height="45" viewBox="0 0 41 45" fill="none" xmlns="http://www.w3.org/2000/svg">
<g clip-path="url(#clip0_250_4753)">
<path d="M0 23.3977V41.285C0 42.1199 0.673805 42.7878 1.47012 42.7878H39.5095C40.3262 42.7878 40.9796 42.099 40.9796 41.285V23.3977H0Z" fill="#04828B"/>
<path d="M41 22.1453H0V23.3976H41V22.1453Z" fill="#5CADB3"/>
<path d="M39.5299 16.0505H1.47012C0.653386 16.0505 0 16.7393 0 17.5533V22.1452H41V17.5533C41 16.7184 40.3262 16.0505 39.5299 16.0505Z" fill="#FEFEFE"/>
<path d="M33.8536 31.6838C33.8536 39.0307 28.0344 45.0001 20.8267 45.0001C13.6394 45.0001 7.7998 39.0516 7.7998 31.6838C7.7998 24.3368 13.619 18.3674 20.8267 18.3674C28.0139 18.3883 33.8536 24.3368 33.8536 31.6838Z" fill="#4E5368"/>
<path d="M32.4247 31.6837C32.4247 38.2166 27.2385 43.5389 20.8271 43.5389C14.4157 43.5389 9.22949 38.2375 9.22949 31.6837C9.22949 25.1299 14.4157 19.8284 20.8271 19.8284C27.2385 19.8492 32.4247 25.1507 32.4247 31.6837Z" fill="#020927"/>
<path d="M30.3212 31.6836C30.3212 37.0269 26.0742 41.3682 20.8266 41.3682C15.5996 41.3682 11.3525 37.0269 11.3525 31.6836C11.3525 26.3195 15.5996 21.999 20.8266 21.999C26.0742 21.999 30.3212 26.3404 30.3212 31.6836Z" fill="#4E5368"/>
<path d="M26.32 31.6837C26.32 34.7727 23.8698 37.2982 20.8275 37.2982C17.8056 37.2982 15.335 34.7936 15.335 31.6837C15.335 28.5737 17.7852 26.0691 20.8275 26.0691C23.8698 26.09 26.32 28.5946 26.32 31.6837Z" fill="#020927"/>
<path d="M25.4825 26.0902C25.4825 27.092 24.6862 27.906 23.7061 27.906C22.726 27.906 21.9297 27.092 21.9297 26.0902C21.9297 25.0883 22.726 24.2743 23.7061 24.2743C24.6657 24.2534 25.4825 25.0675 25.4825 26.0902Z" fill="white"/>
<path d="M27.8915 29.367C27.8915 29.8053 27.5443 30.181 27.0951 30.181C26.6664 30.181 26.2988 29.8262 26.2988 29.367C26.2988 28.9287 26.6459 28.553 27.0951 28.553C27.5443 28.553 27.8915 28.9287 27.8915 29.367Z" fill="white"/>
<path d="M19.0715 16.1131H20.9092H21.2359H23.0531L24.3394 14.2346H21.2359H20.9092H17.7852L19.0715 16.1131Z" fill="#EBF1F8"/>
<path d="M28.1572 12.4606C28.1572 13.5042 27.32 14.3599 26.2991 14.3599H15.9674C14.9465 14.3599 14.1094 13.5042 14.1094 12.4606V1.89935C14.1094 0.855751 14.9465 0 15.9674 0H26.2991C27.32 0 28.1572 0.855751 28.1572 1.89935V12.4606Z" fill="#EBF1F8"/>
<path d="M27.0748 11.6467C27.0748 12.5233 26.3601 13.2538 25.5026 13.2538H16.7431C15.8855 13.2538 15.1709 12.5233 15.1709 11.6467V2.69259C15.1709 1.81597 15.8855 1.08545 16.7431 1.08545H25.523C26.3806 1.08545 27.0952 1.81597 27.0952 2.69259V11.6467H27.0748Z" fill="#FAFCFF"/>
<path d="M27.0748 2.69259C27.0748 1.81597 26.3601 1.08545 25.5026 1.08545H24.89C23.032 5.25985 16.9269 9.95604 15.1709 11.2501V11.6467C15.1709 12.5233 15.8855 13.2538 16.7431 13.2538H17.1923C19.1933 9.18378 24.6858 5.36421 27.0748 3.84055V2.69259Z" fill="#B6C2D0"/>
<path d="M15.1709 2.69259C15.1709 1.81597 15.8855 1.08545 16.7431 1.08545H17.3557C19.2137 5.25985 25.3188 9.95604 27.0748 11.2501V11.6467C27.0748 12.5233 26.3601 13.2538 25.5026 13.2538H25.0534C23.0728 9.18378 17.5598 5.36421 15.1709 3.84055V2.69259Z" fill="#B6C2D0"/>
<path d="M24.2576 7.17997C24.2576 8.95408 22.8487 10.3943 21.1132 10.3943C19.3776 10.3943 17.9688 8.95408 17.9688 7.17997C17.9688 5.40585 19.3776 3.98655 21.1132 3.98655C22.8691 3.96568 24.2576 5.40585 24.2576 7.17997Z" fill="#EBF1F8"/>
<path d="M10.6174 14.3809H4.20605V16.0506H10.6174V14.3809Z" fill="#5CADB3"/>
<path d="M5.06373 14.7148H4.67578V15.6958H5.06373V14.7148Z" fill="#04828B"/>
<path d="M5.92115 14.7148H5.5332V15.6958H5.92115V14.7148Z" fill="#04828B"/>
<path d="M6.75806 14.7148H6.37012V15.6958H6.75806V14.7148Z" fill="#04828B"/>
<path d="M7.61549 14.7148H7.22754V15.6958H7.61549V14.7148Z" fill="#04828B"/>
<path d="M8.45338 14.7148H8.06543V15.6958H8.45338V14.7148Z" fill="#04828B"/>
<path d="M9.3108 14.7148H8.92285V15.6958H9.3108V14.7148Z" fill="#04828B"/>
<path d="M10.1477 14.7148H9.75977V15.6958H10.1477V14.7148Z" fill="#04828B"/>
<path d="M33.8336 13.9634H28.8516V16.0506H33.8336V13.9634Z" fill="#DA495E"/>
<path d="M37.5906 14.9861H35.0996V16.0714H37.5906V14.9861Z" fill="#DA495E"/>
</g>
<defs>
<clipPath id="clip0_250_4753">
<rect width="41" height="45" fill="white"/>
</clipPath>
</defs>
</svg>
