<svg width="57" height="44" viewBox="0 0 57 44" fill="none" xmlns="http://www.w3.org/2000/svg">
<path d="M38.5253 10.1491C38.5253 10.7568 38.0428 11.3038 37.3794 11.3038C36.7762 11.3038 36.2334 10.8176 36.2334 10.1491C36.2334 9.54135 36.7159 8.99438 37.3794 8.99438C38.0428 8.99438 38.5253 9.54135 38.5253 10.1491Z" fill="#4799AF"/>
<path d="M37.4399 9.23755C36.9574 9.23755 36.5352 9.66296 36.5352 10.1492H36.897C36.897 9.84529 37.1383 9.60219 37.4399 9.60219C37.7414 9.60219 37.9827 9.84529 37.9827 10.1492H38.2843C38.2843 9.66296 37.9224 9.23755 37.4399 9.23755Z" fill="#4799AF"/>
<path d="M37.4399 10.6961C37.1383 10.6961 36.897 10.453 36.897 10.1492H36.5352C36.5352 10.6354 36.9574 11.0608 37.4399 11.0608C37.9224 11.0608 38.3446 10.6354 38.3446 10.1492H37.9827C37.9827 10.453 37.7414 10.6961 37.4399 10.6961Z" fill="#4799AF"/>
<path d="M44.7383 10.1491C44.7383 10.7568 45.2208 11.3038 45.8843 11.3038C46.4874 11.3038 47.0302 10.8176 47.0302 10.1491C47.0302 9.54135 46.5477 8.99438 45.8843 8.99438C45.2208 8.99438 44.7383 9.54135 44.7383 10.1491Z" fill="#4799AF"/>
<path d="M45.8227 9.23755C46.3052 9.23755 46.7274 9.66296 46.7274 10.1492H46.3655C46.3655 9.84529 46.1243 9.60219 45.8227 9.60219C45.5211 9.60219 45.2799 9.84529 45.2799 10.1492H44.918C44.9783 9.66296 45.3402 9.23755 45.8227 9.23755Z" fill="#4799AF"/>
<path d="M41.6613 0C37.0171 0 36.8965 9.66301 36.8965 10.7569H37.9821C37.9821 8.08289 38.6456 1.09393 41.6613 1.09393C44.677 1.09393 45.3405 8.08289 45.3405 10.7569H46.4261C46.4261 9.66301 46.2452 0 41.6613 0Z" fill="#D23733"/>
<path d="M45.8227 10.6959C46.1243 10.6959 46.3655 10.4528 46.3655 10.1489H46.7274C46.7274 10.6351 46.3052 11.0605 45.8227 11.0605C45.3402 11.0605 44.918 10.6351 44.918 10.1489H45.2799C45.2799 10.4528 45.5211 10.6959 45.8227 10.6959Z" fill="#4799AF"/>
<path d="M48.9596 7.96143H24.0498V44.0002H48.9596V7.96143Z" fill="#F2C537"/>
<path d="M52.1557 7.96118H47.4512V43.9999H52.1557V7.96118Z" fill="#DCAB14"/>
<path d="M56.8608 7.96118H52.1562V43.9999H56.8608V7.96118Z" fill="#EEBF1B"/>
<path d="M33.4589 10.3925C33.4589 11.0002 32.9764 11.5472 32.313 11.5472C31.7098 11.5472 31.167 11.061 31.167 10.3925C31.167 9.78476 31.6495 9.23779 32.313 9.23779C32.9161 9.29857 33.4589 9.78476 33.4589 10.3925Z" fill="#D23733"/>
<path d="M32.3129 9.5415C31.8304 9.5415 31.4082 9.96692 31.4082 10.4531H31.7701C31.7701 10.1492 32.0113 9.90615 32.3129 9.90615C32.6145 9.90615 32.8557 10.1492 32.8557 10.4531H33.2176C33.2176 9.90615 32.7954 9.5415 32.3129 9.5415Z" fill="#D23733"/>
<path d="M32.8562 11.0609H31.7705C31.7705 9.96696 31.8911 0.303955 36.5353 0.303955V1.39788C33.5196 1.33711 32.8562 8.32607 32.8562 11.0609Z" fill="#E7473D"/>
<path d="M32.3129 10.9998C32.0113 10.9998 31.7701 10.7567 31.7701 10.4529H31.4082C31.4082 10.9391 31.8304 11.3645 32.3129 11.3645C32.7954 11.3645 33.2176 10.9391 33.2176 10.4529H32.8557C32.8557 10.696 32.6145 10.9998 32.3129 10.9998Z" fill="#D23733"/>
<path d="M39.6104 10.3925C39.6104 11.0002 40.0929 11.5472 40.7563 11.5472C41.3595 11.5472 41.9023 11.061 41.9023 10.3925C41.9023 9.78476 41.4198 9.23779 40.7563 9.23779C40.0929 9.29857 39.6104 9.78476 39.6104 10.3925Z" fill="#D23733"/>
<path d="M40.7573 9.54175C41.2398 9.54175 41.662 9.96716 41.662 10.4534H41.3001C41.3001 10.1495 41.0588 9.90639 40.7573 9.90639C40.4557 9.90639 40.2144 10.1495 40.2144 10.4534H39.8525C39.8525 9.90639 40.2747 9.54175 40.7573 9.54175Z" fill="#D23733"/>
<path d="M40.2133 11.0609H41.299C41.299 9.96696 41.1784 0.303955 36.5342 0.303955V1.39788C39.5499 1.33711 40.2133 8.32607 40.2133 11.0609Z" fill="#E7473D"/>
<path d="M40.7573 11.0001C41.0588 11.0001 41.3001 10.757 41.3001 10.4531H41.662C41.662 10.9393 41.2398 11.3647 40.7573 11.3647C40.2747 11.3647 39.8525 10.9393 39.8525 10.4531H40.2144C40.2144 10.6962 40.4557 11.0001 40.7573 11.0001Z" fill="#D23733"/>
<path d="M13.6147 21.9998C14.2476 21.9998 14.7607 21.4829 14.7607 20.8451C14.7607 20.2074 14.2476 19.6904 13.6147 19.6904C12.9818 19.6904 12.4688 20.2074 12.4688 20.8451C12.4688 21.4829 12.9818 21.9998 13.6147 21.9998Z" fill="#4799AF"/>
<path d="M13.6147 19.9333C13.1322 19.9333 12.71 20.3588 12.71 20.845H13.0718C13.0718 20.5411 13.3131 20.298 13.6147 20.298C13.9162 20.298 14.1575 20.5411 14.1575 20.845H14.5194C14.5194 20.3588 14.1575 19.9333 13.6147 19.9333Z" fill="#4799AF"/>
<path d="M13.6147 21.3922C13.3131 21.3922 13.0718 21.1491 13.0718 20.8452H12.71C12.71 21.3314 13.1322 21.7568 13.6147 21.7568C14.0972 21.7568 14.5194 21.3314 14.5194 20.8452H14.1575C14.2178 21.1491 13.9766 21.3922 13.6147 21.3922Z" fill="#4799AF"/>
<path d="M20.9736 20.8449C20.9736 21.4526 21.4561 21.9996 22.1196 21.9996C22.7227 21.9996 23.2656 21.5134 23.2656 20.8449C23.2656 20.2371 22.7831 19.6902 22.1196 19.6902C21.4561 19.6902 20.9736 20.1764 20.9736 20.8449Z" fill="#4799AF"/>
<path d="M22.059 19.9331C22.5415 19.9331 22.9637 20.3585 22.9637 20.8447H22.6018C22.6018 20.5408 22.3606 20.2977 22.059 20.2977C21.7574 20.2977 21.5162 20.5408 21.5162 20.8447H21.1543C21.2146 20.3585 21.5765 19.9331 22.059 19.9331Z" fill="#4799AF"/>
<path d="M17.8371 10.6958C13.1929 10.6958 13.0723 20.3588 13.0723 21.4527H14.1579C14.1579 18.7787 14.8214 11.7897 17.8371 11.7897C20.8528 11.7897 21.5163 18.7787 21.5163 21.4527H22.6019C22.6019 20.3588 22.4813 10.6958 17.8371 10.6958Z" fill="#77AEB7"/>
<path d="M22.059 21.3917C22.3606 21.3917 22.6018 21.1486 22.6018 20.8447H22.9637C22.9637 21.3309 22.5415 21.7563 22.059 21.7563C21.5765 21.7563 21.1543 21.3309 21.1543 20.8447H21.5162C21.5162 21.1486 21.7574 21.3917 22.059 21.3917Z" fill="#4799AF"/>
<path d="M25.1949 18.6572H0.285156V43.9998H25.1949V18.6572Z" fill="#5EBFD2"/>
<path d="M28.391 18.6572H23.6865V43.9998H28.391V18.6572Z" fill="#479DA7"/>
<path d="M33.0961 18.6572H28.3916V43.9998H33.0961V18.6572Z" fill="#56AEBF"/>
<path d="M23.6865 43.939L28.391 38.1655L33.0955 43.939H23.6865Z" fill="#5EBFD2"/>
<path d="M9.69526 21.0883C9.69526 21.696 9.21275 22.243 8.54929 22.243C7.94615 22.243 7.40332 21.7568 7.40332 21.0883C7.40332 20.4806 7.88583 19.9336 8.54929 19.9336C9.15243 19.9336 9.69526 20.4806 9.69526 21.0883Z" fill="#4799AF"/>
<path d="M8.54925 20.1765C8.06673 20.1765 7.64453 20.6019 7.64453 21.0881H8.00642C8.00642 20.7843 8.24767 20.5412 8.54925 20.5412C8.85082 20.5412 9.09207 20.7843 9.09207 21.0881H9.45396C9.45396 20.6019 9.03176 20.1765 8.54925 20.1765Z" fill="#4799AF"/>
<path d="M9.09249 21.6959H8.00684C8.00684 20.602 8.12746 10.939 12.7717 10.939V12.0329C9.75595 12.0329 9.09249 19.0219 9.09249 21.6959Z" fill="#66BECC"/>
<path d="M8.54925 21.6351C8.24767 21.6351 8.00642 21.392 8.00642 21.0881H7.64453C7.64453 21.5743 8.06673 21.9997 8.54925 21.9997C9.03176 21.9997 9.45396 21.5743 9.45396 21.0881H9.09207C9.09207 21.392 8.85082 21.6351 8.54925 21.6351Z" fill="#4799AF"/>
<path d="M15.8467 21.088C15.8467 21.6958 16.3292 22.2427 16.9927 22.2427C17.5958 22.2427 18.1386 21.7566 18.1386 21.088C18.1386 20.4803 17.6561 19.9333 16.9927 19.9333C16.3292 19.9333 15.8467 20.4803 15.8467 21.088Z" fill="#4799AF"/>
<path d="M16.9936 20.1768C17.4761 20.1768 17.8983 20.6022 17.8983 21.0884H17.5364C17.5364 20.7845 17.2952 20.5414 16.9936 20.5414C16.692 20.5414 16.4508 20.7845 16.4508 21.0884H16.0889C16.0889 20.6022 16.5111 20.1768 16.9936 20.1768Z" fill="#4799AF"/>
<path d="M16.4497 21.6961H17.5353C17.5353 20.6022 17.4147 10.9392 12.7705 10.9392V12.0331C15.7862 12.0331 16.4497 19.0221 16.4497 21.6961Z" fill="#66BECC"/>
<path d="M16.9936 21.6351C17.2952 21.6351 17.5364 21.392 17.5364 21.0881H17.8983C17.8983 21.5743 17.4761 21.9997 16.9936 21.9997C16.5111 21.9997 16.0889 21.5743 16.0889 21.0881H16.4508C16.3904 21.392 16.692 21.6351 16.9936 21.6351Z" fill="#4799AF"/>
<path d="M47.4512 43.9394L52.1557 38.5913L56.8602 43.9394H47.4512Z" fill="#F2C537"/>
</svg>
