<svg width="47" height="148" viewBox="0 0 47 148" fill="none" xmlns="http://www.w3.org/2000/svg">
<g clip-path="url(#clip0_173_15414)">
<path d="M34.9061 102.402C34.9061 102.402 35.415 131.45 35.6545 132.156C20.6863 132.801 4.19141 133.077 4.19141 133.077C4.19141 133.077 10.508 122.515 10.9869 121.01C11.4659 119.475 28.9787 102.464 34.9061 102.402Z" fill="#56A0C1"/>
<path d="M12.8729 121.071C13.292 119.69 27.8411 105.473 34.9061 102.894C34.9061 102.587 34.9061 102.402 34.9061 102.402C28.9787 102.464 11.4659 119.475 10.9869 121.01C10.508 122.545 4.19141 133.077 4.19141 133.077C4.19141 133.077 4.87994 133.077 6.13727 133.046C6.8258 131.941 12.4239 122.514 12.8729 121.071Z" fill="#13748E"/>
<path d="M33.4388 103.723C33.4388 103.723 33.8579 126.598 34.0974 132.217C34.6362 132.187 35.1452 132.187 35.684 132.156C35.4445 131.45 34.9356 102.402 34.9356 102.402C31.6127 102.433 24.7273 107.745 19.1592 112.689C24.398 108.175 30.4152 103.753 33.4388 103.723Z" fill="#59D9F7"/>
<path d="M36.2828 104.736L36.7618 118.646C36.7618 118.646 37.63 119.782 35.2949 121.747C34.816 114.132 34.5166 104.736 34.5166 104.736H36.2828Z" fill="#13748E"/>
<path d="M33.6787 78.9128L36.343 106.333C36.343 106.333 28.9188 107.162 26.7035 108.114C24.4882 109.066 24.3086 110.14 24.3086 110.14L26.2844 83.6415L33.6787 78.9128Z" fill="#13748E"/>
<path d="M33.6783 78.9128L35.8038 103.6C35.8038 103.6 28.9184 107.193 26.6732 108.114C24.428 109.035 24.2783 110.14 24.2783 110.14L26.2541 83.6415L33.6783 78.9128Z" fill="#56A0C1"/>
<path d="M28.4099 104.736L27.0029 86.712V104.736C27.0029 104.736 28.4398 110.11 27.7214 113.088C27.0029 116.066 20.7462 116.773 17.4233 118.185C14.0704 119.598 16.2558 121.563 15.2379 122.699C14.2201 123.835 13.1723 122.914 10.957 126.23C13.1723 122.914 13.5914 125.616 14.5793 124.449C15.5972 123.313 15.1481 121.256 18.471 119.843C21.8239 118.431 27.5417 115.913 28.2602 112.934C28.9787 109.956 28.4099 104.736 28.4099 104.736Z" fill="#13748E"/>
<path d="M36.8822 94.6954L37.6905 106.302C37.6905 106.302 38.1396 107.346 36.8822 108.574C36.9421 107.561 36.4332 105.227 32.0625 104.89C32.2721 101.88 33.1402 88.4929 33.1402 88.4929L36.8822 94.6954Z" fill="#13748E"/>
<path d="M36.8823 94.6954L37.6906 106.302C37.6906 106.302 38.1397 107.346 36.8823 108.574C36.9422 107.561 37.4511 104.429 33.1104 104.091C33.3199 101.082 33.1403 88.4929 33.1403 88.4929L36.8823 94.6954Z" fill="#56A0C1"/>
<path d="M33.1104 103.876C33.1104 103.938 33.1104 103.999 33.1104 104.061C33.3798 104.091 33.6193 104.122 33.8288 104.153C33.6193 104.061 33.3798 103.968 33.1104 103.876Z" fill="#94C0D1"/>
<path d="M37.6909 106.271L36.8827 94.6648L33.1406 88.4623C33.1406 88.4623 33.1406 89.2299 33.1706 90.3967L35.4757 94.2042L36.254 105.381C37.1521 106.456 36.9425 107.929 36.8827 108.544C38.14 107.346 37.6909 106.271 37.6909 106.271Z" fill="#59D9F7"/>
<path d="M20.8659 93.6207L10.957 126.23C13.1723 122.914 14.25 123.835 15.2379 122.699C16.2558 121.563 14.0704 119.597 17.4233 118.185C20.7761 116.773 27.0328 116.066 27.7214 113.088C28.4398 110.11 27.0029 104.736 27.0029 104.736L27.5417 85.7601L23.3507 86.712L20.8659 93.6207Z" fill="#59D9F7"/>
<path d="M20.8659 93.6207L10.957 126.23C13.1723 122.914 14.25 123.835 15.2379 122.699C16.2558 121.563 14.0704 119.597 17.4233 118.185C20.7761 116.773 25.6258 114.5 26.3443 111.553C27.0628 108.574 25.1768 104.306 25.1768 104.306L27.5717 85.7601L23.3806 86.712L20.8659 93.6207Z" fill="#56A0C1"/>
<path d="M10.6281 103.262C10.6281 103.262 8.56253 112.996 8.92177 116.68C9.28101 120.365 9.61031 124.787 8.65234 127.059C10.5084 125.8 13.6218 120.734 14.5498 118.4C15.4778 116.066 22.2434 96.2613 22.2434 95.9543C22.2434 95.6165 17.6632 91.1949 17.6632 91.1949L10.6281 103.262Z" fill="#56A0C1"/>
<path d="M12.6332 116.773C12.274 113.088 14.3396 103.354 14.3396 103.354L20.0275 93.5593C18.86 92.3925 17.6625 91.2257 17.6625 91.2257L10.6574 103.262C10.6574 103.262 8.59183 112.996 8.95107 116.68C9.3103 120.365 9.6396 124.787 8.68164 127.059C9.90903 126.23 11.6453 123.773 12.9925 121.501C12.9326 119.966 12.7829 118.308 12.6332 116.773Z" fill="#13748E"/>
<path d="M27.0031 85.2689C27.0031 85.2689 25.2668 90.7651 21.4051 94.5112C17.5433 98.2573 17.9624 99.3012 15.8369 101.911C13.7114 104.521 10.3286 106.363 8.77194 106.333C7.24518 106.302 9.87958 104.122 9.78977 101.481C9.67003 98.81 9.52034 94.6954 9.31079 92.4232C9.10124 90.1817 8.95155 85.1153 10.0592 83.9178C11.1668 82.7203 27.0031 85.2689 27.0031 85.2689Z" fill="#13748E"/>
<path d="M27.362 87.1419C27.362 87.1419 24.578 90.6424 20.7162 94.3884C16.8544 98.1345 17.2436 98.4722 15.1181 101.082C12.9926 103.692 10.2984 106.364 8.74166 106.333C7.21491 106.302 9.8493 104.122 9.7595 101.481C9.63975 98.81 9.49007 94.6955 9.28052 92.4233C9.07096 90.1818 8.92128 85.1154 10.0289 83.9179C11.1665 82.7204 27.362 87.1419 27.362 87.1419Z" fill="#59D9F7"/>
<path d="M27.3617 87.1419C27.3617 87.1419 24.4879 89.4141 20.6261 93.1602C16.7643 96.9062 16.5847 96.722 14.4891 99.332C12.3637 101.942 10.328 106.394 8.80123 106.364C7.27448 106.333 9.90888 104.153 9.81907 101.512C9.69932 98.8407 9.54964 94.7262 9.34009 92.454C9.13053 90.2125 8.98085 85.1461 10.0885 83.9486C11.1662 82.7204 27.3617 87.1419 27.3617 87.1419Z" fill="#56A0C1"/>
<path d="M12.7229 101.727C12.6032 99.0556 12.4535 94.9411 12.244 92.6689C12.0344 90.4274 11.8847 85.361 12.9924 84.1635C13.0822 84.0713 13.2917 84.0099 13.5911 83.9792C11.735 83.6722 10.358 83.6108 10.0586 83.9178C8.95097 85.1153 9.10065 90.1817 9.3102 92.4232C9.51976 94.6647 9.66944 98.8099 9.78919 101.481C9.90893 104.153 7.2446 106.333 8.77135 106.333C9.87899 106.363 11.2561 104.061 12.7229 101.788C12.7229 101.788 12.7229 101.758 12.7229 101.727Z" fill="#13748E"/>
<path d="M14.2804 114.04C13.6517 115.636 11.2867 119.198 9.28101 121.655C9.34088 123.804 9.1912 125.8 8.65234 127.09C10.5084 125.831 13.6218 120.764 14.5498 118.431C15.4778 116.097 22.2434 96.292 22.2434 95.985C22.2434 96.3227 15.2084 111.706 14.2804 114.04Z" fill="#13748E"/>
<path d="M36.5825 84.1635C36.5825 84.1635 37.8698 96.1386 37.9297 97.5511C37.9895 98.9635 37.4207 100.008 37.4207 100.008C37.4507 97.7967 37.0615 96.2307 34.4271 94.9718C34.2176 90.6117 33.6787 82.4747 33.6787 82.4747L36.5825 84.1635Z" fill="#56A0C1"/>
<path d="M33.4695 105.995C33.4695 105.995 32.6313 127.612 33.8287 132.524C32.4816 134.275 32.0625 133.476 32.0625 133.476C32.0625 133.476 32.0924 113.303 33.4695 105.995Z" fill="#13748E"/>
<path d="M31.6428 106.486C31.6428 106.486 30.8046 127.458 30.0562 133.077C29.1581 133.845 28.8887 133.077 28.8887 133.077C28.8887 133.077 31.3434 111.89 31.6428 106.486Z" fill="#13748E"/>
<path d="M30.0564 106.855C30.0564 106.855 28.6793 119.321 25.8353 133.63C25.2067 133.875 24.3086 133.968 24.3086 133.968C24.3086 133.968 27.9908 121.593 30.0564 106.855Z" fill="#13748E"/>
<path d="M21.4648 117.755C21.4648 117.755 18.561 131.45 15.8069 134.275C13.0527 134.858 13.0527 134.858 13.0527 134.858C13.0527 134.858 18.3515 128.778 20.7464 118.4C20.9559 118.031 21.4648 117.755 21.4648 117.755Z" fill="#13748E"/>
<path d="M25.5957 115.851C25.5957 115.851 24.069 128.901 21.4645 133.968C20.2371 133.814 19.7881 133.968 19.7881 133.968C19.7881 133.968 23.8894 124.91 24.7276 116.312C24.7874 116.22 25.5957 115.851 25.5957 115.851Z" fill="#13748E"/>
<path d="M17.6332 119.598C17.6332 119.598 15.1785 128.41 9.75999 134.398C9.28101 134.336 8.65234 134.398 8.65234 134.398C8.65234 134.398 16.1065 125.032 17.6332 119.598Z" fill="#13748E"/>
<path d="M7.06511 133.415C7.06511 133.415 10.3581 131.02 13.1422 124.234C11.7651 126.783 9.87912 129.577 5.38867 133.661C5.86765 133.753 7.06511 133.415 7.06511 133.415Z" fill="#13748E"/>
<path d="M14.25 49.3743C14.25 49.3743 13.0226 51.5236 12.0946 53.1203C11.1666 54.717 9.07104 57.5112 9.07104 57.6033C9.07104 57.6954 8.0532 55.761 7.24492 55.0241C6.43664 54.2871 7.3048 52.3527 7.42454 51.5851C7.51435 50.8174 7.6341 49.6813 7.66403 49.6199C7.69397 49.5585 14.25 49.3743 14.25 49.3743Z" fill="#56A0C1"/>
<path d="M8.44213 54.7784C7.63385 54.0415 8.502 52.107 8.62175 51.3394C8.68162 50.7253 8.80136 49.8962 8.8313 49.5585C8.14277 49.5892 7.69372 49.6199 7.69372 49.6199C7.66379 49.6813 7.54404 50.8174 7.45423 51.585C7.36442 52.3527 6.49627 54.2871 7.27461 55.024C8.08289 55.761 9.10073 57.6954 9.10073 57.6033C9.10073 57.5726 9.40009 57.1734 9.78926 56.59C9.40009 55.9759 8.89117 55.1776 8.44213 54.7784Z" fill="#13748E"/>
<path d="M15.2378 57.3577C15.2378 57.3577 12.7831 56.1909 11.1066 58.0946C9.4302 59.9983 8.41237 60.9195 8.47224 63.1303C8.56205 65.3411 8.20281 65.8631 8.32256 68.0124C8.4423 70.1618 11.7952 71.1751 12.9926 69.21C14.22 67.2448 15.2378 57.3577 15.2378 57.3577Z" fill="#13748E"/>
<path d="M35.1758 82.0755L38.2592 83.6415L41.7318 77.3162L46.5815 68.5958L46.1923 67.7975L47.0006 67.2755L46.5815 66.4772H43.8573L35.1758 82.0755Z" fill="#13748E"/>
<path d="M24.4883 47.6855C24.4883 47.6855 24.3686 49.8349 24.3387 51.2781C24.3087 52.7212 25.1469 53.2432 26.6437 53.888C26.1348 54.6864 22.6922 54.4407 21.6743 53.1818C20.6565 51.9229 19.01 49.927 18.8304 49.5893C18.6508 49.2515 17.9023 47.532 17.9023 47.532L18.3514 45.3519L24.4883 47.6855Z" fill="#56A0C1"/>
<path d="M25.446 42.9875C25.446 42.9875 26.0747 46.6722 26.4339 47.5319C26.7932 48.3917 26.1046 48.9444 26.1046 48.9444L26.8231 54.195L24.6677 53.7958C24.6677 53.7958 24.9671 51.1552 24.2486 50.8788C24.069 48.8523 25.446 42.9875 25.446 42.9875Z" fill="#015968"/>
<path d="M26.4342 41.6365C26.4342 41.6365 27.0629 41.5751 26.9731 42.7726C26.8833 43.9701 26.7935 44.1851 26.4342 44.1544C26.075 44.1237 25.5361 43.4481 25.5361 43.4481C25.5361 43.4481 26.0451 41.9436 26.4342 41.6365Z" fill="#13748E"/>
<path d="M26.5843 39.6406L32.9008 40.7767L26.4346 41.0224L26.5843 39.6406Z" fill="#56A0C1"/>
<path d="M26.5244 37.522L33.6193 36.2938L26.6442 38.8731L26.5244 37.522Z" fill="#56A0C1"/>
<path d="M25.207 35.7718L31.6433 31.8722L26.0752 36.8465L25.207 35.7718Z" fill="#56A0C1"/>
<path d="M22.2734 35.3419L25.4467 29.0166L23.8601 35.649L22.2734 35.3419Z" fill="#56A0C1"/>
<path d="M20.5068 35.649L17.124 30.951L19.0399 36.4473L20.5068 35.649Z" fill="#56A0C1"/>
<path d="M17.8724 37.2149L12.0947 36.8464L16.7947 38.3817L17.8724 37.2149Z" fill="#56A0C1"/>
<path d="M16.3157 39.2108L12.0947 39.395L15.9864 40.3469L16.3157 39.2108Z" fill="#56A0C1"/>
<path d="M16.2854 41.2681C16.2854 41.2681 15.5071 40.1013 16.495 38.3818C17.4829 36.6623 19.9676 34.9735 22.602 34.8507C25.2065 34.7278 27.5116 36.4473 26.7931 38.8117C25.0568 39.3337 19.0695 39.3644 16.2854 41.2681Z" fill="#59D9F7"/>
<path d="M15.9866 41.5443C15.9866 41.5443 15.2083 40.3775 16.1962 38.658C17.1841 36.9385 19.6688 35.2497 22.3032 35.1269C24.9076 35.0041 27.2127 36.7236 26.4943 39.0879C24.758 39.6099 18.7408 39.6406 15.9866 41.5443Z" fill="#56A0C1"/>
<path d="M25.925 41.268C25.925 41.268 25.8951 42.2506 25.8053 42.9875C25.6856 43.7245 25.5359 46.3958 24.9372 47.4091C24.3684 48.4224 23.4104 48.668 22.8117 48.7601C22.2129 48.8523 19.0696 47.7162 18.5008 45.7817C17.4231 45.8124 16.7945 44.5228 17.3034 43.4481C17.8422 42.3427 18.3512 41.0531 20.0875 39.9784C21.8238 38.9037 23.6499 38.3817 23.6499 38.3817L25.925 41.268Z" fill="#13748E"/>
<path d="M19.1598 50.6946C19.1598 50.6946 18.9502 49.0058 19.1598 48.2996C19.3693 47.5934 19.3693 47.4091 20.4171 48.2075C21.4649 49.0058 23.9196 51.1552 24.1591 52.5983C24.3986 54.0415 26.9731 53.7037 26.9731 53.7037C26.9731 53.7037 25.6559 53.366 25.177 52.3834C24.668 51.4008 24.5782 48.4224 24.7878 47.2249C24.9973 46.0581 22.2731 48.2382 20.6865 47.5012C19.0999 46.7643 18.2617 44.922 18.2617 44.922C18.2617 44.922 17.8725 46.3652 17.8126 46.6108C17.7228 46.8871 19.1598 50.6946 19.1598 50.6946Z" fill="#13748E"/>
<path d="M23.9195 38.9958C23.9195 38.9958 23.9794 40.2548 22.8119 40.5004C21.6444 40.7461 19.9979 41.6672 20.0278 42.4656C19.4291 42.5884 19.4889 42.4963 19.4291 43.2332C19.3393 43.9701 19.3393 46.7336 19.5488 46.9793C19.7284 47.2249 21.4947 47.4091 22.8119 47.5319C24.159 47.6548 24.638 46.9793 24.5182 46.6722C24.3985 46.3651 23.0514 46.4573 22.8119 46.2423C23.7998 46.1809 24.3087 46.3037 24.3686 46.1502C24.4284 45.9967 23.7698 45.6589 23.4705 45.6282C23.1711 45.5975 22.752 45.8739 22.4227 45.8432C22.752 45.5054 23.3807 45.229 23.4705 45.229C23.5603 45.229 23.8297 45.444 23.8297 45.444C23.8297 45.444 23.8896 45.3212 24.0393 45.2905C24.1889 45.2905 24.7278 45.5668 24.8775 45.7817C24.9673 45.8739 25.2667 45.1983 25.3265 44.7992C25.3864 44.3693 25.596 43.6017 25.4463 43.4481C25.7756 43.6324 26.4342 42.2813 26.2546 40.8996C26.0151 39.4871 23.9195 38.9958 23.9195 38.9958Z" fill="#56A0C1"/>
<path d="M23.2308 46.3345C23.2308 46.3345 23.8296 46.3959 23.9194 46.6722C24.0391 46.9486 23.5003 47.532 22.4824 47.5013C23.5003 47.6548 23.9493 47.5934 24.3684 47.1942C24.9073 46.7029 24.3684 46.4573 24.1289 46.4573C23.9194 46.4573 23.2308 46.3345 23.2308 46.3345Z" fill="#59D9F7"/>
<path d="M24.2783 42.8954C24.2783 42.8954 25.4458 42.8954 25.0267 45.5668C25.5656 44.4921 25.5955 43.3253 25.4758 43.2024C25.356 43.0796 24.2783 42.8954 24.2783 42.8954Z" fill="#59D9F7"/>
<path d="M17.2737 44.2464C17.2737 44.2464 16.3756 43.2946 16.4954 42.1585C16.645 41.0224 18.9801 37.2763 23.6801 37.8904C26.0151 38.1975 27.2126 40.0091 26.7935 41.3294C26.3743 42.6498 25.8954 42.312 25.8954 42.312L25.8056 41.4829C25.8056 41.4829 24.0992 40.3775 23.5903 39.2722C22.4228 40.5311 20.1476 41.5444 19.0998 41.5751C18.7406 42.6805 17.9024 44.0008 17.2737 44.2464Z" fill="#13748E"/>
<path d="M17.2737 44.2464C17.2737 44.2464 16.3756 43.2946 16.4954 42.1585C16.645 41.0224 18.9801 37.2763 23.6801 37.8904C26.0151 38.1975 27.2126 40.0091 26.7935 41.3294C26.3743 42.6498 25.8954 42.312 25.8954 42.312L26.075 41.2987C26.075 41.2987 24.0992 40.4083 23.5903 39.3029C22.4228 40.5618 20.1476 41.5751 19.0998 41.6058C18.7406 42.6805 17.9024 44.0008 17.2737 44.2464Z" fill="#56A0C1"/>
<path d="M23.6798 39.1494C23.6798 39.1494 24.6976 40.8075 26.7632 41.5137C26.2843 41.2988 25.1766 40.5312 24.5779 39.7021C25.476 40.5312 26.404 41.0839 26.6734 41.176C26.1645 40.8075 25.446 40.2855 25.3263 39.7942C25.955 40.4391 26.7034 40.9918 26.8231 40.9918C26.5836 40.7768 25.925 40.0706 25.8053 39.4565C24.997 38.9345 23.5601 38.6274 23.5601 38.6274C23.5601 38.6274 23.5301 38.9652 23.6798 39.1494Z" fill="#59D9F7"/>
<path d="M23.2609 39.2108C23.2609 39.2108 21.8539 40.961 19.3691 41.4523C19.9379 41.2681 21.3449 40.5926 22.1532 39.7328C20.9857 40.5619 19.8481 41.0532 19.5188 41.1146C20.1774 40.7768 21.0456 40.2855 21.2851 39.7328C20.4768 40.3776 19.5188 40.8689 19.3991 40.8689C19.6984 40.654 20.5965 39.9478 20.8061 39.2722C21.8239 38.8117 23.5004 38.6888 23.5004 38.6888C23.5004 38.6888 23.4704 38.9959 23.2609 39.2108Z" fill="#59D9F7"/>
<path d="M16.4958 42.1585C16.3461 43.2946 17.2742 44.2465 17.2742 44.2465C17.8729 44.0008 18.6512 42.8033 19.0704 41.7286C18.7111 40.961 18.5914 40.1013 18.5016 39.2722C17.2442 40.2855 16.5856 41.5751 16.4958 42.1585Z" fill="#13748E"/>
<path d="M26.6135 40.2855C26.6135 40.2855 27.811 37.7983 25.925 36.478C24.039 35.1577 21.1951 35.5568 19.3091 36.5701C17.4231 37.5834 16.1059 39.7635 16.046 41.1452C15.9861 42.527 16.6148 42.3427 16.6148 42.3427C16.6148 42.3427 20.6562 38.2896 23.5301 38.9037C26.374 39.5178 26.6135 40.2855 26.6135 40.2855Z" fill="#13748E"/>
<path d="M25.836 41.7593C25.836 41.7593 25.5366 41.2987 24.878 41.1452C24.1296 40.961 23.8003 41.7593 23.95 42.5576C24.0697 43.356 24.1296 44.0008 24.0697 44.2464C24.0099 44.4921 23.6806 44.4921 23.4111 44.4307C23.5309 44.6456 23.8901 44.922 24.2494 44.7684C24.6086 44.6456 24.5487 44.4307 24.429 43.3867C24.3092 42.3427 24.1895 42.2506 24.2494 41.9128C24.2793 41.5444 25.0876 41.2373 25.836 41.7593Z" fill="#59D9F7"/>
<path d="M25.895 41.8208C25.895 41.8208 24.6975 40.8689 24.1886 41.8208C23.9791 42.3427 24.2784 43.356 24.3084 43.9087C24.3383 44.4614 24.2485 44.6457 23.8893 44.6149C23.53 44.5535 23.53 44.4307 23.2606 44.4307C22.9912 44.4307 22.8116 44.5842 22.7816 44.7378C22.7517 44.8913 23.2307 44.5842 23.4701 44.8913C23.7096 45.1984 23.6198 45.1676 24.0988 45.2291C24.5778 45.2905 24.8472 45.9353 24.8472 45.9353C24.8472 45.9353 24.6077 44.6764 24.5778 44.093C24.5179 43.5096 24.4281 43.049 24.4281 43.049C24.4281 43.049 25.6256 43.2025 25.6854 43.8473C25.8651 43.5096 25.895 41.8208 25.895 41.8208Z" fill="#13748E"/>
<path d="M20.8662 41.5137C20.8662 41.5137 22.6624 41.2374 22.9618 41.7287C23.1115 42.0664 22.9019 42.9569 22.2732 42.8034C21.6446 42.6805 21.7344 42.3121 20.986 42.5577C20.2675 42.8034 20.2376 42.6805 20.0879 42.5577C20.4771 42.0971 21.1057 41.6059 21.8242 41.8515C22.5427 42.0664 22.0038 41.3909 20.8662 41.5137Z" fill="#13748E"/>
<path d="M23.6208 37.7063C23.6208 37.522 23.5909 37.1843 23.6208 36.8465C23.6508 36.3245 23.8005 35.9254 23.4712 35.8025C23.1419 35.6797 22.9922 35.9868 22.9922 36.5702C22.9922 36.9693 22.9922 37.4299 22.9922 37.6756C23.2017 37.6756 23.4113 37.6756 23.6208 37.7063Z" fill="#015968"/>
<path d="M24.5187 37C24.5187 36.7237 24.848 36.2017 24.6683 36.0789C24.339 35.8025 24.0696 36.2324 24.0397 36.5701C24.0097 36.8465 24.0397 37.5527 24.0397 37.7369C24.1894 37.7676 24.369 37.7984 24.5187 37.8291C24.5187 37.7676 24.5187 37.2457 24.5187 37Z" fill="#015968"/>
<path d="M25.3269 37.1843C25.3568 36.8466 25.746 36.6009 25.4167 36.386C25.1174 36.1711 24.8479 36.6009 24.818 36.9387C24.7881 37.1843 24.818 37.737 24.818 37.952C24.9677 38.0134 25.1174 38.0748 25.2371 38.1362C25.267 37.9827 25.297 37.4607 25.3269 37.1843Z" fill="#015968"/>
<path d="M25.926 37.6756C25.926 37.3071 26.3451 36.9693 26.1056 36.8158C25.8661 36.6623 25.6266 37.0615 25.5667 37.3378C25.5068 37.5527 25.5368 38.0133 25.5368 38.2283C25.6565 38.2897 25.7463 38.3511 25.8661 38.4432C25.8661 38.2897 25.926 37.9519 25.926 37.6756Z" fill="#015968"/>
<path d="M26.2851 38.3818C26.3449 38.044 26.7042 37.8598 26.6742 37.7063C26.4946 37.3071 26.2551 37.6141 26.1054 37.9519C26.0156 38.1668 26.0156 38.3818 26.0156 38.5046C26.1054 38.566 26.1952 38.6581 26.2851 38.7195C26.2551 38.6581 26.2551 38.5353 26.2851 38.3818Z" fill="#015968"/>
<path d="M26.7941 38.3819C26.7941 38.1669 26.5247 38.2283 26.4049 38.5661C26.375 38.6582 26.375 38.781 26.375 38.8731C26.4648 38.9653 26.5247 39.0574 26.6145 39.1495C26.6444 38.9038 26.7941 38.5354 26.7941 38.3819Z" fill="#015968"/>
<path d="M22.5125 36.2938C22.4526 35.956 22.3628 35.7718 22.0335 35.8946C21.7042 36.0481 21.7641 36.2017 21.8539 36.6623C21.9437 37.0307 22.0036 37.522 22.0335 37.7062C22.2131 37.6755 22.4227 37.6755 22.6323 37.6448C22.6023 37.3685 22.5724 36.5701 22.5125 36.2938Z" fill="#015968"/>
<path d="M21.4652 36.3246C21.3754 36.1404 20.7467 35.9254 20.7168 36.2325C20.6869 36.5395 20.7767 36.5395 20.8665 37.1843C20.9264 37.5835 20.9563 37.8292 20.9563 37.952C21.1659 37.8906 21.3754 37.8599 21.585 37.7985C21.585 37.4914 21.5251 36.4781 21.4652 36.3246Z" fill="#015968"/>
<path d="M20.3576 37.0615C20.2379 36.693 20.0583 36.4166 19.7889 36.5395C19.5194 36.6623 19.3697 36.7237 19.6392 37.1843C19.8787 37.5527 20.0283 38.044 20.0583 38.2283C20.2379 38.1361 20.4475 38.0747 20.657 38.0133C20.6271 37.8598 20.4475 37.3685 20.3576 37.0615Z" fill="#015968"/>
<path d="M19.3694 37.3071C19.2197 37.0922 19.0701 37.0615 18.8306 37.1229C18.5911 37.215 18.5611 37.43 18.9204 37.8598C19.1299 38.1055 19.3096 38.3818 19.3994 38.5354C19.549 38.4432 19.7287 38.3818 19.8783 38.3204C19.7885 38.1055 19.4892 37.4914 19.3694 37.3071Z" fill="#015968"/>
<path d="M18.6507 37.9212C18.4112 37.6448 18.2017 37.5527 17.9622 37.7984C17.7227 38.044 18.0819 38.1975 18.2915 38.4432C18.4412 38.6274 18.5609 38.873 18.6208 38.9959C18.7705 38.9038 18.9201 38.7809 19.0698 38.6888C19.0099 38.5353 18.8303 38.1361 18.6507 37.9212Z" fill="#015968"/>
<path d="M17.933 38.5046C17.7534 38.3204 17.2744 38.2897 17.3342 38.566C17.3642 38.8424 17.6635 38.8424 17.8132 39.0573C17.903 39.2109 18.0228 39.3644 18.0827 39.4565C18.2024 39.3644 18.2922 39.2723 18.412 39.1801C18.2922 38.9959 18.0527 38.6275 17.933 38.5046Z" fill="#015968"/>
<path d="M17.2437 39.1188C17.094 38.996 16.6449 39.1188 16.8844 39.3951C17.064 39.5794 17.3335 39.9171 17.5131 40.1014C17.6029 39.9785 17.6927 39.8864 17.8124 39.7943C17.6328 39.5794 17.3335 39.2109 17.2437 39.1188Z" fill="#015968"/>
<path d="M17.0044 39.8864C16.8247 39.7943 16.256 39.7943 16.4954 40.0706C16.6751 40.2856 16.9445 40.4698 17.0942 40.6233C17.184 40.5005 17.2738 40.3777 17.3636 40.2856C17.2738 40.132 17.1241 39.9478 17.0044 39.8864Z" fill="#015968"/>
<path d="M16.4957 40.4698C16.3461 40.4391 16.0467 40.5312 16.4359 40.8383C16.6155 40.9611 16.7352 41.0225 16.7951 41.0839C16.855 40.9918 16.9148 40.8997 16.9747 40.8076C16.825 40.6541 16.5855 40.5005 16.4957 40.4698Z" fill="#015968"/>
<path d="M11.3464 38.658C11.3464 38.658 8.35273 39.6713 7.6642 42.3733C7.0056 45.0754 5.95783 46.3036 6.52662 47.5318C7.09541 48.7908 7.78394 52.5675 9.04127 53.0895C10.3285 53.6115 12.9629 52.8132 14.1604 50.3567C15.1782 48.2688 16.5553 45.2596 17.1241 44.5841C17.6929 43.9086 16.6152 43.3866 16.4355 42.8339C16.8247 41.8513 15.9566 40.3468 15.5374 39.4563C15.1483 38.5659 12.2744 38.2281 11.3464 38.658Z" fill="#13748E"/>
<path d="M11.3464 38.658C11.3464 38.658 8.35273 39.6713 7.6642 42.3733C7.0056 45.0754 5.95783 46.3036 6.52662 47.5318C7.09541 48.7908 7.57439 51.0937 8.83171 51.6157C10.119 52.1376 12.6636 52.1069 14.1604 50.3567C15.6871 48.6065 16.5553 45.2596 17.1241 44.5841C17.6929 43.9086 16.6152 43.3866 16.4355 42.8339C16.8247 41.8513 15.9566 40.3468 15.5374 39.4563C15.1483 38.5659 12.2744 38.2281 11.3464 38.658Z" fill="#56A0C1"/>
<path d="M16.4954 42.8339C16.8845 41.8513 16.0164 40.3468 15.5973 39.4563C15.1482 38.5659 12.2743 38.2281 11.3763 38.658C11.3763 38.658 10.5081 38.965 9.58008 39.6406C10.0291 39.3949 10.3584 39.3028 10.3584 39.3028C11.2864 38.8729 14.1603 39.2107 14.5794 40.1011C15.0285 40.9916 15.8667 42.4962 15.4775 43.4787C15.6571 44.0314 16.7049 44.5534 16.1661 45.2289C15.5973 45.9045 14.7291 49.2513 13.2024 51.0015C13.0527 51.1551 12.9329 51.3086 12.7533 51.4314C13.2922 51.1858 13.7712 50.848 14.1903 50.3567C15.717 48.6065 16.5852 45.2596 17.154 44.5841C17.7228 43.9086 16.675 43.3866 16.4954 42.8339Z" fill="#59D9F7"/>
<path d="M10.1489 39.4871C10.1489 39.4871 8.68206 41.2373 8.44257 42.5269C8.95149 41.79 10.1489 40.7153 10.1489 40.7153L9.90945 41.6364C9.90945 41.6364 8.23302 43.5095 7.78397 44.3999C8.77187 43.3866 10.1489 42.8954 10.1489 42.8954C10.1489 42.8954 9.37059 43.9086 8.53238 44.8298C7.7241 45.7203 7.30499 45.8124 7.24512 46.9178C7.87378 45.9659 8.92155 44.9833 8.92155 44.9833C8.92155 44.9833 8.35276 47.0099 8.47251 48.2074C8.59225 49.4049 8.86168 49.8962 8.86168 49.8962C8.86168 49.8962 8.56231 46.9792 8.86168 46.3958C9.16104 45.8124 9.43047 45.2904 9.55021 44.7377C9.66996 44.2157 10.3585 43.2024 10.4483 43.0182C10.5381 42.8032 10.5082 39.702 10.1489 39.4871Z" fill="#13748E"/>
<path d="M8.98145 47.9311C8.98145 47.9311 10.2388 48.3609 11.1069 47.3477C10.598 48.2381 9.46043 48.7908 8.98145 47.9311Z" fill="#13748E"/>
<path d="M9.4007 45.6282C9.4007 45.6282 9.67013 47.4091 11.2867 47.0714C12.8733 46.7336 13.1727 45.9046 14.0408 44.1544C14.909 42.4349 15.837 39.8556 15.3281 38.873C14.8192 37.8905 10.0593 38.6274 9.73 39.5486C9.55038 39.9784 8.59242 43.2946 9.4007 45.6282Z" fill="#13748E"/>
<path d="M16.0464 42.834C16.0464 42.834 15.2681 49.1286 11.556 49.5585C9.75979 49.8655 8.98145 49.0672 8.98145 49.0672C8.98145 49.0672 11.8254 49.7427 13.4719 47.5319C15.1483 45.3211 16.0464 42.834 16.0464 42.834Z" fill="#13748E"/>
<path d="M16.3156 44.9526C16.3156 44.9526 17.8124 50.2033 17.3334 52.2912C16.8544 54.4099 15.0283 58.8929 12.5137 60.0597C9.96907 61.2265 8.47225 62.117 8.47225 63.1302C8.47225 64.1435 7.90346 58.6472 8.98117 57.0506C10.0289 55.4539 16.0461 47.5626 16.3156 44.9526Z" fill="#13748E"/>
<path d="M16.3159 44.9526C16.3159 44.9526 17.8127 50.2033 17.3338 52.2912C16.8548 54.4099 15.0287 58.8929 12.514 60.0597C9.96943 61.2265 8.47262 64.6962 8.47262 64.6962C8.47262 65.7095 7.69427 61.1344 9.58026 57.5726C10.4784 55.8838 16.0465 47.5626 16.3159 44.9526Z" fill="#56A0C1"/>
<path d="M11.4063 59.1386C11.4063 59.1386 8.74192 65.4332 11.8553 70.1311C17.7228 65.6481 25.3865 56.3751 25.626 53.4888C23.7101 53.4888 20.6566 51.4008 19.9082 49.8655C19.1598 48.3303 17.3636 46.1502 16.5553 45.8431C15.8069 50.9095 12.1247 57.4191 11.4063 59.1386Z" fill="#13748E"/>
<path d="M12.095 59.0464C12.095 59.0464 8.74212 65.4638 11.8555 70.1311C17.723 65.6481 25.5963 56.4364 25.8358 53.5194C24.0396 54.3792 20.3574 52.8746 19.609 51.3393C18.8606 49.8041 17.3638 46.1501 16.5555 45.8124C17.1542 49.6813 12.6638 57.7568 12.095 59.0464Z" fill="#56A0C1"/>
<path d="M33.0801 70.1311L36.4329 63.9286L37.5406 64.3892V62.7925L46.5814 66.4771L45.2342 67.3676L46.1922 67.7975L38.2291 82.4746L33.6788 80.6016L33.0801 70.1311Z" fill="#56A0C1"/>
<path d="M36.6122 75.3203C36.0135 72.8024 35.1154 70.4995 34.1574 68.1045L33.0498 70.131L33.6785 80.5709L37.9893 82.9352L38.4683 81.9833C37.9594 80.6016 37.4205 79.2198 37.211 77.746C37.1211 76.8555 36.8517 76.0879 36.6122 75.3203Z" fill="#13748E"/>
<path d="M13.5617 9.58002H10.6279V7.21571V6.35596H13.5617V9.58002Z" fill="#015968"/>
<path d="M10.6274 7.09289C10.6274 7.09289 11.1363 6.78584 12.0044 6.81654C12.8726 6.84725 13.4414 6.97007 13.5611 7.06219C13.8305 6.81654 15.2675 5.58833 15.1178 4.54434C14.9681 3.46966 13.2019 2.5792 13.2618 -5.38905e-05C12.3936 -0.0307593 11.7649 2.21073 11.9446 3.1319C11.6153 3.00907 11.6751 1.50451 11.6751 1.16675C10.7172 2.14932 10.2382 3.22401 10.5974 4.14517C10.2981 4.268 10.0586 3.80742 9.9987 3.56177C9.63947 4.36011 9.51972 5.4348 9.81908 6.04891C10.1184 6.66302 10.5675 7.09289 10.6274 7.09289Z" fill="#56A0C1"/>
<path d="M7.72387 11.3916C7.72387 11.3916 8.14297 9.73353 7.48438 9.18083C8.14297 9.27295 8.11304 9.11942 8.05316 8.75096C8.44234 8.56673 8.89138 8.87378 9.13087 8.81237C9.37036 8.75096 9.25062 8.32108 9.37036 8.25967C9.75953 8.56673 9.87928 8.53602 10.2685 8.56673C10.6576 8.59743 10.8073 8.56673 10.8073 8.56673C10.8073 8.56673 11.0767 8.22897 11.2863 8.10614C11.5557 8.47461 12.0347 8.62814 12.364 8.47461C12.6933 8.35179 12.9627 8.10614 13.1723 8.07544C13.292 8.4439 13.6213 8.68955 14.1302 8.50532C14.6392 8.35179 14.9385 8.32108 14.9385 8.32108C14.9385 8.32108 14.729 8.68955 14.9685 8.72025C15.2079 8.75096 16.136 8.50532 16.4653 8.65884C16.2856 8.81237 16.2258 9.11942 16.4353 9.11942C16.6449 9.11942 17.0341 9.05801 17.0341 9.05801C17.0341 9.05801 16.7946 9.30366 16.9442 9.39577C17.1239 9.48789 17.3334 9.5493 17.3334 9.5493C17.3334 9.5493 16.7347 9.73353 16.7347 10.0713C16.7646 10.4398 16.9143 11.0232 16.8844 11.4837C16.9742 11.975 7.72387 11.3916 7.72387 11.3916Z" fill="#56A0C1"/>
<path d="M12.6941 10.3476H11.9756V9.42645C11.9756 9.21151 12.1253 9.05798 12.3348 9.05798C12.5444 9.05798 12.6941 9.21151 12.6941 9.42645V10.3476Z" fill="#015968"/>
<path d="M11.3464 10.3783L10.6279 10.4397V9.51856C10.6279 9.30362 10.7776 9.1501 10.9872 9.11939C11.1967 9.08869 11.3464 9.24221 11.3464 9.45715V10.3783Z" fill="#015968"/>
<path d="M10.0896 10.4705L9.46094 10.5626V9.67214C9.46094 9.48791 9.61062 9.30368 9.79024 9.27297C9.96985 9.24227 10.1195 9.3958 10.1195 9.58003V10.4705H10.0896Z" fill="#015968"/>
<path d="M9.04148 10.6547L8.5625 10.7775V9.91779C8.5625 9.73356 8.68225 9.54932 8.80199 9.51862C8.95167 9.48791 9.04148 9.61073 9.04148 9.79497V10.6547Z" fill="#015968"/>
<path d="M8.23326 10.9004L7.87402 11.0846V10.2555C7.87402 10.0713 7.96383 9.88708 8.05364 9.82567C8.14345 9.76426 8.23326 9.88708 8.23326 10.0713V10.9004Z" fill="#015968"/>
<path d="M13.293 10.3783L14.0114 10.4397V9.51856C14.0114 9.30362 13.8618 9.1501 13.6522 9.11939C13.4426 9.08869 13.293 9.24221 13.293 9.45715V10.3783Z" fill="#015968"/>
<path d="M14.5504 10.4705L15.1791 10.5626V9.67214C15.1791 9.48791 15.0294 9.30368 14.8498 9.27297C14.6702 9.24227 14.5205 9.3958 14.5205 9.58003V10.4705H14.5504Z" fill="#015968"/>
<path d="M15.5977 10.6547L16.0766 10.7775V9.91779C16.0766 9.73356 15.9569 9.54932 15.8371 9.51862C15.6875 9.48791 15.5977 9.61073 15.5977 9.79497V10.6547Z" fill="#015968"/>
<path d="M16.4062 10.9004L16.7655 11.0846V10.2555C16.7655 10.0713 16.6757 9.88708 16.5859 9.82567C16.4961 9.76426 16.4062 9.88708 16.4062 10.0713V10.9004Z" fill="#015968"/>
<path d="M14.1905 16.3046H10.2988V21.1867H14.1905V16.3046Z" fill="#546D74"/>
<path d="M14.8782 38.5352C14.8184 37.7983 14.7585 36.9692 14.7585 36.0788C14.7884 32.4862 14.0999 27.2663 13.7706 25.5468C13.4413 23.8273 13.7706 23.2439 13.7706 23.2439L11.6152 21.9236L10.4776 22.6912C10.4776 22.6912 9.42983 30.736 9.54957 32.9161C9.66932 35.0962 10.0884 37.2763 9.96868 38.3817C9.96868 38.4738 9.93875 38.6273 9.93875 38.8423C9.819 40.3468 9.66932 44.3692 9.57951 46.1501C9.78906 46.6414 10.4477 47.5933 11.4356 47.3477C13.0222 47.0099 13.2317 46.5493 14.0999 44.8298C14.5789 43.9086 14.968 42.0049 15.2375 40.9609C15.1177 40.3775 14.968 39.5485 14.8782 38.5352Z" fill="#13748E"/>
<path d="M14.8782 38.5352C14.8184 37.7983 14.7585 36.9692 14.7585 36.0788C14.7884 32.4862 14.0999 27.2663 13.7706 25.5468C13.4413 23.8273 13.7706 23.2439 13.7706 23.2439L11.6152 21.9236L10.4776 22.6912C10.4776 22.6912 9.42983 30.736 9.54957 32.9161C9.66932 35.0962 10.0884 37.2763 9.96868 38.3817C9.96868 38.4738 9.93875 38.6273 9.93875 38.8423C9.819 40.3468 9.66932 44.3692 9.57951 46.1501C9.78906 46.6414 10.298 47.2555 11.2859 47.0406C12.8725 46.7028 13.1719 45.8738 14.04 44.1236C14.519 43.2024 14.998 42.0049 15.2674 40.9609C15.1177 40.3775 14.968 39.5485 14.8782 38.5352Z" fill="#56A0C1"/>
<path d="M11.0166 47.0099C11.0166 45.1676 11.0765 40.9916 11.1364 39.4257C11.1364 39.2107 11.1663 39.0572 11.1663 38.9344C11.2861 37.7676 10.6574 35.5568 10.388 33.2846C10.1186 31.0431 11.1065 22.6605 11.1065 22.6605L11.9447 22.1385L11.6154 21.9236L10.4778 22.6912C10.4778 22.6912 9.43002 30.736 9.54977 32.9161C9.66951 35.0962 10.0886 37.2763 9.96888 38.3817C9.96888 38.4738 9.93894 38.6273 9.93894 38.8423C9.8192 40.3468 9.54977 44.0315 9.45996 45.8124C9.66952 46.273 10.2084 47.1634 11.0466 47.0713C11.0466 47.0406 11.0166 47.0099 11.0166 47.0099Z" fill="#13748E"/>
<path d="M17.094 11.5452C17.094 12.1286 14.9685 12.5892 12.3341 12.5892C9.6997 12.5892 7.57422 12.1286 7.57422 11.5452C7.57422 10.9618 9.6997 10.5012 12.3341 10.5012C14.9685 10.5012 17.094 10.9618 17.094 11.5452Z" fill="#13748E"/>
<path d="M16.6747 12.405C16.6747 12.9269 14.7288 13.3568 12.3339 13.3568C9.93902 13.3568 7.99316 12.9269 7.99316 12.405C7.99316 11.883 9.93902 11.4531 12.3339 11.4531C14.7288 11.4224 16.6747 11.8523 16.6747 12.405Z" fill="#015968"/>
<path d="M10.6281 15.2298C10.6281 15.2298 10.4186 14.8614 10.239 14.5236C10.0593 14.1859 10.2689 13.4182 10.239 13.1419C10.209 12.8655 9.73004 12.4664 9.55042 12.6199C9.3708 12.7734 9.43067 13.2954 9.22112 13.6946C9.01156 14.0937 9.0415 15.5062 9.67016 15.8133C10.2988 16.1203 10.6281 15.2298 10.6281 15.2298Z" fill="#56A0C1"/>
<path d="M9.90965 15.4754C9.28099 15.1684 9.22112 13.7252 9.46061 13.3567C9.61029 13.1111 9.61029 12.8348 9.67016 12.5891C9.64023 12.5891 9.58035 12.5891 9.55042 12.6198C9.3708 12.7733 9.43067 13.2953 9.22112 13.6945C9.01156 14.0937 9.0415 15.5061 9.67016 15.8132C10.1491 16.0588 10.4485 15.5982 10.5683 15.3833C10.4186 15.5061 10.1791 15.5982 9.90965 15.4754Z" fill="#567F91"/>
<path d="M10.7178 14.2473L11.2566 23.1826H13.6515L13.9509 14.2473H10.7178Z" fill="#4D7684"/>
<path d="M13.9204 23.3668C13.9204 23.3361 13.9504 23.3361 13.9504 23.3054C13.9504 23.0597 13.2918 22.8755 12.4835 22.8755C11.6752 22.8755 11.0166 23.0597 11.0166 23.3054C11.0166 23.3361 11.0166 23.3361 11.0465 23.3668L11.7949 26.0996C11.8548 26.3452 12.1242 26.5601 12.4835 26.5601C12.8427 26.5601 13.1421 26.3759 13.172 26.0996L13.9204 23.3668Z" fill="#13748E"/>
<path d="M12.3341 12.5585C11.1067 12.5585 10.0889 12.8655 10.0889 13.234V14.063L14.5494 14.0016V13.234C14.5793 12.8348 13.5615 12.5585 12.3341 12.5585Z" fill="#13748E"/>
<path d="M14.5793 14.0323C14.5793 14.4008 13.5914 14.7078 12.3341 14.7078C11.1067 14.7078 10.0889 14.4008 10.0889 14.0323C10.0889 13.6639 11.0768 13.3568 12.3341 13.3568C13.5615 13.3568 14.5793 13.6639 14.5793 14.0323Z" fill="#13748E"/>
<path d="M14.1899 15.0763C14.1899 15.0763 13.7708 14.6464 13.3816 15.1991C12.9925 15.7518 13.5613 16.8879 13.8606 17.3485C14.0103 17.6555 13.8007 19.375 13.7708 19.9584C13.7409 20.5418 13.681 23.029 13.681 23.029L13.9205 23.1825C13.9205 23.1825 14.2797 21.8315 14.8186 20.6032C15.3574 19.375 15.0281 17.1335 14.9383 16.5501C14.8485 15.936 14.3097 15.8132 14.1899 15.0763Z" fill="#56A0C1"/>
<path d="M10.0594 17.5635C10.0594 17.5635 9.40077 16.3045 9.55045 15.844C9.70013 15.3834 10.3587 14.9228 11.2269 15.107C12.095 15.322 13.2326 15.4448 13.2326 15.4448C13.2326 15.4448 13.4721 16.0896 12.7237 16.2738C11.9753 16.4888 11.2868 16.2124 11.0473 16.2738C10.7778 16.3352 10.688 16.7651 10.3887 17.2257C10.0594 17.6863 10.0594 17.5635 10.0594 17.5635Z" fill="#56A0C1"/>
<path d="M13.2321 15.4754C13.2321 15.4754 12.0945 15.3219 11.2264 15.1377C11.0467 15.107 10.8671 15.0763 10.6875 15.107C10.7773 15.107 10.8671 15.1377 10.9869 15.1377C11.855 15.3526 12.9926 15.4754 12.9926 15.4754C12.9926 15.4754 13.2321 16.1202 12.4837 16.3045C12.3041 16.3659 12.1544 16.3659 11.9748 16.3659C12.2143 16.3659 12.4537 16.3659 12.7232 16.3045C13.4716 16.0895 13.2321 15.4754 13.2321 15.4754Z" fill="#59D9F7"/>
<path d="M9.96956 16.0281C10.1192 15.5676 10.7778 15.107 11.646 15.2912C12.2148 15.414 12.8734 15.5368 13.2626 15.5983C13.2626 15.5061 13.2326 15.4447 13.2326 15.4447C13.2326 15.4447 12.095 15.2912 11.2269 15.107C10.3587 14.892 9.70013 15.3526 9.55045 15.8439C9.40077 16.3045 10.0594 17.5634 10.0594 17.5634C10.0594 17.5634 10.0594 17.6555 10.2989 17.3792C10.1192 16.9493 9.87975 16.3352 9.96956 16.0281Z" fill="#567F91"/>
<path d="M9.69943 18.7303C9.69943 18.7303 9.57969 18.0547 9.87905 17.4713C10.1784 16.9186 10.0886 16.5502 10.5676 16.5502C11.0765 16.5502 12.3338 16.6423 12.723 16.7651C13.1122 16.8879 14.0402 17.2871 14.1599 17.502C14.2797 17.717 13.8606 18.6688 13.0224 18.3004C12.2141 17.9319 11.2262 17.8398 11.0166 17.8398C10.8071 17.8398 10.4478 18.239 10.4478 18.239L9.69943 18.7303Z" fill="#59D9F7"/>
<path d="M9.69943 18.7303C9.69943 18.7303 9.57969 18.0547 9.87905 17.4713C10.1784 16.9186 10.0886 16.5502 10.5676 16.5502C11.0765 16.5502 12.3338 16.6423 12.723 16.7651C13.1122 16.8879 13.8306 17.195 13.9205 17.4099C14.0402 17.6249 13.3517 18.4539 12.5134 18.1469C11.7052 17.8398 11.1962 17.8705 10.9568 17.8705C10.7472 17.8705 10.4179 18.2083 10.4179 18.2083L9.69943 18.7303Z" fill="#56A0C1"/>
<path d="M10.2985 17.6862C10.5979 17.1335 10.5081 16.7651 10.987 16.7651C11.496 16.7651 12.7533 16.8572 13.1424 16.98C13.352 17.0414 13.6813 17.1949 13.9807 17.3178C13.6514 17.1028 13.0526 16.8572 12.7533 16.7343C12.3641 16.6115 11.1068 16.5194 10.5979 16.5194C10.0889 16.5194 10.2087 16.8572 9.90933 17.4406C9.60996 17.9933 9.72971 18.6995 9.72971 18.6995L10.1189 18.4538C10.0889 18.2389 10.1488 17.9626 10.2985 17.6862Z" fill="#567F91"/>
<path d="M10.5381 23.1825C10.5381 23.1825 10.3585 22.3228 10.0591 21.3709C9.75977 20.4191 9.3706 19.3444 9.46041 18.8838C9.55022 18.4232 9.93939 18.1162 10.2986 18.0547C10.6279 17.9933 11.4961 18.024 12.1247 18.0547C12.7235 18.0854 13.5916 18.4539 13.5916 18.5767C13.5617 18.6996 13.5317 19.3751 12.6935 19.1601C11.8553 18.9759 10.6579 19.3444 10.6579 19.3444C10.6579 19.3444 11.2865 20.3576 11.2566 21.2788C11.1967 22.2 11.3464 22.6913 10.5381 23.1825Z" fill="#59D9F7"/>
<path d="M10.5381 23.1825C10.5381 23.1825 10.3585 22.3228 10.0591 21.3709C9.75977 20.4191 9.3706 19.3444 9.46041 18.8838C9.55022 18.4232 9.93939 18.1162 10.2986 18.0547C10.6279 17.9933 11.4961 18.024 12.1247 18.0547C12.7235 18.0854 13.412 18.3618 13.3821 18.4846C13.3521 18.6074 13.1126 19.1601 12.2445 19.1294C11.4661 19.0987 10.6279 19.3751 10.6279 19.3751C10.6279 19.3751 11.2566 20.3884 11.2266 21.3095C11.1967 22.2 11.3464 22.6913 10.5381 23.1825Z" fill="#56A0C1"/>
<path d="M10.7776 21.3709C10.4782 20.4191 10.0891 19.3444 10.1789 18.8838C10.2687 18.4232 10.6579 18.1162 11.0171 18.0548C11.1069 18.0548 11.2266 18.024 11.4063 18.024C10.9572 18.024 10.5082 18.024 10.2986 18.0548C9.96933 18.1162 9.55022 18.4232 9.46041 18.8838C9.3706 19.3444 9.75977 20.4191 10.0591 21.3709C10.3585 22.3228 10.5381 23.1826 10.5381 23.1826C10.8674 22.9676 11.047 22.7834 11.1368 22.5377C11.047 22.2307 10.9273 21.8315 10.7776 21.3709Z" fill="#13748E"/>
<path d="M45.0848 73.4165C45.0848 73.4165 46.2224 73.0174 46.3421 72.5568C46.4619 72.0962 45.923 70.7452 45.5937 70.346C45.2644 69.9468 44.3663 69.517 44.1268 69.2406C43.8873 68.995 43.2287 69.8854 44.1268 70.6224C45.0249 71.3593 44.965 71.9427 44.8154 72.3111C44.6657 72.7103 45.0848 73.4165 45.0848 73.4165Z" fill="#13748E"/>
<path d="M45.5937 70.3461C45.2644 69.9469 44.3663 69.517 44.1268 69.2407C44.007 69.0871 43.7077 69.3328 43.6777 69.732C44.037 69.9776 44.6956 70.3154 44.9351 70.6531C45.2644 71.0523 45.8032 72.4033 45.6835 72.8639C45.6236 73.0481 45.414 73.2324 45.2045 73.3552C45.4739 73.2324 46.2523 72.9253 46.3421 72.5261C46.4618 72.0963 45.923 70.7759 45.5937 70.3461Z" fill="#59D9F7"/>
<path d="M26.2845 53.0896C26.2845 53.0896 29.1285 54.2871 30.0565 56.6821C31.6731 58.7087 33.11 64.2357 33.6189 68.4116C34.1278 72.5875 36.4329 84.0713 36.4329 85.7601C21.2552 88.3394 9.58008 85.2382 9.58008 85.2382C9.58008 85.2382 12.424 78.6672 12.903 77.8074C13.382 76.9477 8.1132 81.0622 7.63422 78.5751C7.1253 76.0879 10.8075 67.6133 10.8075 67.6133C10.8075 67.6133 11.047 69.4863 13.4119 68.2274C15.747 66.9991 23.9495 56.1294 26.2845 53.0896Z" fill="#13748E"/>
<path d="M26.2842 53.0896C26.2842 53.0896 29.1281 54.2871 30.0562 56.6821C31.6727 58.7087 33.1097 64.2357 33.6186 68.4116C34.1275 72.5875 36.9116 83.8257 36.9116 87.2647C21.7339 89.844 9.5498 85.2689 9.5498 85.2689C9.5498 85.2689 12.1243 79.4041 12.8727 77.8382C12.8727 77.8382 8.08293 81.0929 7.60394 78.6058C7.09503 76.1186 10.7772 67.644 10.7772 67.644C10.7772 67.644 11.0167 72.2498 13.3817 70.9908C15.7466 69.7319 24.3683 58.4016 26.2842 53.0896Z" fill="#56A0C1"/>
<path d="M34.427 94.9718C34.2174 90.6116 33.3792 75.5353 33.3792 75.5353C33.3792 75.5353 32.9301 91.8091 33.1397 96.1693C35.804 97.4282 37.4505 97.8274 37.4206 100.038C37.4805 97.7967 37.0913 96.2307 34.427 94.9718Z" fill="#13748E"/>
<path d="M27.7211 56.8663C27.7211 56.8663 23.8594 77.7153 16.495 89.107C11.316 96.8755 9.5498 96.1385 9.5498 96.1385C9.5498 96.1385 17.4231 83.6414 21.7039 73.785C25.9848 63.9286 27.7511 56.5286 27.7511 56.5286" fill="#13748E"/>
<path d="M28.4396 56.5286L23.7695 89.3526C30.146 69.7012 28.4396 56.5286 28.4396 56.5286Z" fill="#13748E"/>
<path d="M26.6734 55.5767C26.6734 55.5767 19.5485 70.4995 16.046 74.1534C12.5434 77.8074 6.82561 79.8953 10.0587 70.9908" fill="#13748E"/>
<path d="M9.22078 79.4655C9.22078 79.4655 7.39466 83.3958 7.06536 84.9003C6.49657 87.5103 9.43033 93.6514 9.43033 93.6514C9.43033 93.6514 21.5545 72.8945 25.6259 58.9236C19.5787 71.2364 16.9443 74.7062 13.801 76.9784C10.6877 79.2198 9.22078 79.4655 9.22078 79.4655Z" fill="#13748E"/>
<path d="M34.0377 70.9908C34.0377 70.9908 34.7861 74.2763 33.6185 74.8597C32.4211 75.4431 31.3134 75.0747 31.2536 77.2855C31.1937 79.4962 29.5771 82.0448 28.2001 82.751C26.823 83.4572 27.3918 102.188 27.3918 102.188C27.3918 102.188 27.302 83.7643 29.0682 83.3344C30.8045 82.9045 32.2714 81.1543 32.002 77.2855C32.002 76.2722 34.0077 77.0398 34.6963 75.566C35.3549 74.1228 34.1574 71.605 34.0377 70.9908Z" fill="#13748E"/>
<path d="M44.5161 74.1535C44.5161 74.1535 45.2346 74.1228 45.3543 73.4166C45.474 72.7103 45.0549 72.3419 44.8154 72.0962C44.576 71.8506 44.1269 71.39 43.7377 71.3286C43.3486 71.2672 42.5403 71.0215 42.3607 70.9908C42.1811 70.9601 41.6721 71.4207 42.1511 71.7278C42.6301 72.0348 44.2467 73.0788 44.4263 73.4473C44.6059 73.785 44.5161 74.1535 44.5161 74.1535Z" fill="#13748E"/>
<path d="M44.8156 72.0962C44.5761 71.8506 44.1271 71.39 43.7379 71.3286C43.3488 71.2672 42.5405 71.0216 42.3609 70.9908C42.2411 70.9908 42.0316 71.1137 41.9717 71.2979H42.0016C42.1812 71.3286 42.9895 71.5742 43.3787 71.6357C43.7679 71.6971 44.2169 72.1577 44.4564 72.4033C44.6959 72.6489 45.1449 73.0174 44.9952 73.7236C44.9653 73.8464 44.9354 73.9386 44.8755 74.0307C45.0851 73.9386 45.2946 73.7543 45.3545 73.3859C45.4742 72.7103 45.0551 72.3419 44.8156 72.0962Z" fill="#59D9F7"/>
<path d="M43.7379 75.136C43.7379 75.136 44.3067 74.9518 44.636 74.4605C44.9354 73.9692 44.8156 73.4472 44.4564 72.9866C44.0972 72.526 42.8099 71.7891 42.3908 71.7584C41.9717 71.7277 41.3131 71.697 41.373 72.1269C41.4328 72.5567 41.8819 72.9252 42.5405 73.1402C43.1991 73.3551 43.5882 73.9692 43.3787 74.3991C43.1392 74.7982 43.7379 75.136 43.7379 75.136Z" fill="#13748E"/>
<path d="M44.4564 72.9866C44.0972 72.526 42.8099 71.7891 42.3908 71.7584C41.9717 71.7277 41.3131 71.697 41.373 72.1269C41.373 72.1883 41.4029 72.2497 41.4328 72.3111C41.6424 72.2804 41.8519 72.3111 42.0615 72.3111C42.4806 72.3418 43.7679 73.0787 44.1271 73.5393C44.4265 73.9078 44.5462 74.3377 44.4265 74.7368C44.5163 74.6447 44.5761 74.5833 44.6659 74.4605C44.9354 73.9692 44.8156 73.4472 44.4564 72.9866Z" fill="#59D9F7"/>
<path d="M41.9411 76.9477C41.9411 76.9477 43.5577 76.395 43.8271 75.351C43.9768 74.8597 43.4379 74.5527 43.1984 74.1535C42.959 73.7543 42.2704 72.9253 42.0309 72.8946C41.7914 72.8639 41.4921 73.1709 41.6418 73.478C41.7914 73.785 42.1207 74.5527 42.3602 74.8597C42.5997 75.1668 41.9411 76.9477 41.9411 76.9477Z" fill="#13748E"/>
<path d="M43.2282 74.1535C42.9887 73.7543 42.3002 72.9253 42.0607 72.8946C41.8811 72.8639 41.6715 73.0481 41.6416 73.2631C41.8811 73.3245 42.5397 74.1228 42.7792 74.522C43.0187 74.9212 43.5575 75.2282 43.4078 75.7195C43.348 75.9958 43.1684 76.2108 42.9887 76.4257C43.3779 76.1494 43.7371 75.8116 43.8569 75.351C43.9766 74.8597 43.4677 74.5527 43.2282 74.1535Z" fill="#59D9F7"/>
<path d="M13.0829 0.153442C13.0829 0.153442 11.8555 1.87294 13.2625 3.43892C14.6695 5.00489 13.8313 5.95676 13.3523 6.57087C14.2803 5.89535 14.7593 5.28124 14.6395 4.32938C14.5198 3.40821 14.0109 3.37751 13.472 2.67128C12.9631 1.96506 12.8134 1.35095 13.0829 0.153442Z" fill="#59D9F7"/>
<path d="M11.4962 1.53516C11.4962 1.53516 10.6879 2.3642 10.9573 3.65383C11.2268 4.94345 12.4242 5.55756 12.0051 6.57084C12.4841 5.98744 12.6338 5.06628 12.0949 4.45217C11.586 3.83806 11.0471 2.67126 11.4962 1.53516Z" fill="#59D9F7"/>
<path d="M22.5127 45.8738C22.5127 45.8738 22.9617 45.6281 23.3808 45.6895C23.77 45.751 23.9796 45.8124 24.2789 46.0273C24.3388 46.1194 23.8898 46.2729 23.5605 46.0887C23.2312 45.9045 22.9617 45.7817 22.5127 45.8738Z" fill="#59D9F7"/>
<path d="M14.9385 16.5501C14.8487 15.936 14.3398 15.7825 14.1901 15.0455C14.1901 15.0455 14.1601 15.0148 14.1302 14.9841C14.0105 14.9841 13.8907 15.0148 13.8009 15.2605C13.6812 15.6904 14.0404 16.1816 14.3697 16.5194C14.699 16.8572 14.7589 17.7476 14.6391 18.7916C14.5493 19.6514 14.0404 21.3709 14.4894 21.3401C14.5792 21.0945 14.699 20.8489 14.7888 20.5725C15.3576 19.375 15.0283 17.1642 14.9385 16.5501Z" fill="#59D9F7"/>
<path d="M14.8793 38.5352C14.8194 37.7983 14.7595 36.9693 14.7595 36.0788C14.7894 33.346 14.4003 29.6921 14.041 27.3585C13.6818 26.7444 13.0831 26.0996 12.2449 26.5294C10.8379 27.2971 12.9633 31.1659 13.2328 33.6838C13.5022 36.2016 14.1308 39.9477 13.9213 42.3427C13.7417 44.3079 14.7595 42.7419 15.1487 40.5925C15.0589 40.0398 14.9691 39.3643 14.8793 38.5352Z" fill="#59D9F7"/>
<path d="M26.2844 53.0896C26.2844 53.0896 17.8125 65.8016 13.4118 68.2581C12.3341 68.8415 11.1666 68.1352 11.3762 67.0913C12.394 67.8282 13.4118 66.7228 15.0583 65.0647C16.645 63.3759 26.2844 53.0896 26.2844 53.0896Z" fill="#59D9F7"/>
<path d="M27.183 54.7477C27.183 54.7477 22.6626 63.0074 19.8486 67.3062C17.0346 71.5742 14.969 75.2896 11.3467 75.9958C14.3702 73.5701 22.6626 61.2265 27.183 54.7477Z" fill="#59D9F7"/>
<path d="M14.9389 44.2465C14.9389 44.2465 14.0109 49.19 10.209 49.0058C11.8854 48.2996 13.9211 46.9178 14.9389 44.2465Z" fill="#59D9F7"/>
<path d="M7.78418 48.361C7.78418 48.361 10.7179 52.0456 14.2504 48.5759C13.2625 51.7386 9.75998 52.629 7.78418 48.361Z" fill="#59D9F7"/>
<path d="M16.2261 46.1809C16.2261 46.1809 15.777 50.1112 13.2025 54.9012C10.628 59.6913 9.28084 62.1784 9.07129 62.7925C10.2687 57.849 12.2445 55.2083 13.442 53.0589C14.6394 50.9402 16.2859 46.795 16.2261 46.1809Z" fill="#59D9F7"/>
<path d="M28.0803 54.5021C28.0803 54.5021 28.1701 66.5386 16.0459 84.5012C22.4523 72.0656 26.4637 61.9635 28.0803 54.5021Z" fill="#59D9F7"/>
<path d="M26.2842 53.0896C26.2842 53.0896 29.1281 54.0415 30.9542 61.6257C32.7804 69.1792 33.1097 71.912 32.4211 72.9253C31.7326 73.9386 30.2358 73.785 30.3555 76.0265C30.4753 78.268 28.9485 81.7684 28.2001 82.8124C29.667 81.4614 30.7746 81.0929 31.2835 78.5751C31.7925 76.0572 32.0319 75.7809 33.1097 75.3203C34.1874 74.8597 34.6663 74.2456 34.4269 72.1269C34.1874 69.9469 34.1574 55.9452 26.2842 53.0896Z" fill="#59D9F7"/>
<path d="M39.2163 137.161H2.30487C1.64628 137.161 1.10742 136.608 1.10742 135.933V133.446C1.10742 132.77 1.64628 132.217 2.30487 132.217H39.2163C39.8749 132.217 40.4138 132.77 40.4138 133.446V135.933C40.4138 136.608 39.8749 137.161 39.2163 137.161Z" fill="#13748E"/>
<path d="M39.2162 132.217H19.9971V137.161H39.2162C39.8748 137.161 40.4136 136.608 40.4136 135.933V133.446C40.4136 132.77 39.8748 132.217 39.2162 132.217Z" fill="#6197AF"/>
<path d="M41.4019 137.161H0V148H41.4019V137.161Z" fill="#D5A16A"/>
<path d="M19.1293 137.161H0V148H19.1293V137.161Z" fill="#CC8C52"/>
</g>
<defs>
<clipPath id="clip0_173_15414">
<rect width="47" height="148" fill="white"/>
</clipPath>
</defs>
</svg>
