<svg width="150" height="335" viewBox="0 0 150 335" fill="none" xmlns="http://www.w3.org/2000/svg">
<mask id="mask0_152_6143" style="mask-type:alpha" maskUnits="userSpaceOnUse" x="0" y="0" width="150" height="335">
<rect width="150" height="335" rx="20" fill="#D9D9D9"/>
</mask>
<g mask="url(#mask0_152_6143)">
<g clip-path="url(#clip0_152_6143)">
<path d="M-90.9346 221.569V335H238.129V221.569C132.565 223.914 30.2924 227.264 -90.9346 221.569Z" fill="#B3ECDF"/>
<path d="M238.13 0H-90.9336V335H238.13V0Z" fill="#B3ECDF"/>
<path opacity="0.5" d="M-90.9346 209.576V25.594C-87.9072 17.018 -75.5344 11.859 -65.3992 14.539C-55.2641 17.219 -49.0777 27.537 -52.4341 35.979C-43.1545 30.418 -29.9262 28.877 -20.1859 33.902C-10.4456 38.927 -6.23361 51.054 -13.0123 58.826C-2.81136 59.429 6.46823 66.129 8.70586 74.504C26.6069 73.968 43.8499 85.961 46.5482 100.902C50.5627 100.433 53.7218 100.031 57.8022 100.299C65.7655 100.902 73.334 104.721 77.6118 110.416C81.9554 116.111 82.8768 123.481 80.1785 129.779V209.643H-90.9346" fill="white"/>
<path opacity="0.3" d="M238.064 209.576V47.704C235.695 40.2 225.954 35.577 217.925 37.989C209.962 40.334 205.026 49.379 207.724 56.816C200.419 51.925 190.021 50.585 182.32 54.94C174.62 59.362 171.33 70.015 176.661 76.849C168.631 77.385 161.326 83.281 159.549 90.651C145.465 90.182 131.842 100.768 129.736 113.833C126.577 113.431 124.076 113.029 120.851 113.297C114.533 113.833 108.61 117.25 105.254 122.208C101.832 127.166 101.108 133.665 103.214 139.226V209.442H238.064" fill="white"/>
<path d="M-15.3809 111.555C-15.5784 111.689 -11.0373 114.57 -10.5766 114.771C-8.86547 115.441 -7.08852 115.977 -5.24577 116.111C-0.243999 116.513 5.74495 114.637 9.49628 111.354C8.77234 111.957 14.8271 114.302 15.2878 114.369C17.9203 114.838 20.3554 114.436 22.9221 113.498C26.1469 112.359 28.9768 109.88 30.3589 106.731L12.063 91.857C4.4287 85.626 -6.29877 85.291 -14.3279 90.986L-36.1777 106.53C-35.4538 108.071 -34.4666 109.478 -33.282 110.617C-28.0828 115.575 -21.1724 114.972 -15.3809 111.555Z" fill="#FAFFFA"/>
<path d="M30.3586 106.798C28.9766 109.947 26.1466 112.426 22.9218 113.565C20.3551 114.436 17.92 114.905 15.2875 114.436C14.8268 114.369 8.77206 112.024 9.496 111.421C5.67886 114.704 -0.310089 116.58 -5.24604 116.178C-7.0888 116.044 -8.86575 115.508 -10.5769 114.838C-11.0376 114.637 -15.5786 111.756 -15.3812 111.622C-21.1727 115.039 -28.0831 115.642 -33.2823 110.684C-34.4669 109.545 -35.4541 108.138 -36.178 106.597L-91 145.524V209.576H51.6819V124.151L30.3586 106.798Z" fill="#84C2BD"/>
<path d="M231.877 98.959C230.693 101.371 228.455 103.314 225.888 104.185C224.045 104.855 221.939 105.056 219.965 104.721C218.912 104.587 217.925 104.252 216.938 103.85C216.74 103.716 214.503 102.443 214.568 102.376C212.791 103.85 211.146 104.855 208.909 105.525C206.934 106.128 204.762 106.463 202.656 106.262C201.143 106.128 199.695 105.726 198.313 105.123C197.918 104.989 194.232 102.577 194.364 102.51C189.625 105.324 183.965 105.793 179.688 101.773C178.635 100.768 177.779 99.562 177.187 98.222L-23.2129 209.576H238.064V103.381L231.877 98.959Z" fill="#93D9D3"/>
<path d="M137.383 38.7234C143.12 32.8833 143.12 23.4146 137.383 17.5744C131.646 11.7343 122.345 11.7343 116.609 17.5744C110.872 23.4146 110.872 32.8833 116.609 38.7234C122.345 44.5635 131.646 44.5635 137.383 38.7234Z" fill="#FFD640"/>
<path d="M92.025 101.84C91.7617 101.974 98.0797 106.061 98.7379 106.396C101.107 107.401 103.608 108.071 106.175 108.272C113.151 108.808 121.641 106.195 126.972 101.572C125.919 102.443 134.474 105.726 135.132 105.86C138.884 106.53 142.24 105.927 145.86 104.654C150.072 103.18 153.823 100.031 155.929 96.0781L127.827 74.7721C116.968 66.5311 102.292 66.4641 91.301 74.5711L63.0674 95.4751C64.0546 97.3511 65.305 99.0261 66.8187 100.5C74.1239 107.468 83.8642 106.597 92.025 101.84Z" fill="#FAFFFA"/>
<path d="M155.929 96.0781C153.823 100.031 150.072 103.18 145.86 104.654C142.24 105.927 138.818 106.53 135.132 105.86C134.474 105.726 125.919 102.51 126.972 101.572C121.641 106.195 113.217 108.808 106.175 108.272C103.608 108.071 101.107 107.334 98.738 106.396C98.0799 106.128 91.7619 102.041 92.0251 101.84C83.8643 106.597 74.1241 107.468 66.8847 100.5C65.371 99.0261 64.1205 97.3511 63.1333 95.4751L-91 209.576H238.129V158.321L155.929 96.0781Z" fill="#15ABA8"/>
<path d="M-79.6144 180.163C-79.5486 177.416 -77.9033 174.87 -75.6656 173.798C-73.428 172.726 -70.6639 173.329 -68.8211 175.138C-67.1758 170.783 -62.5031 168.438 -58.2911 168.84C-54.0791 169.242 -50.1961 171.855 -47.0371 175.004C-45.2602 172.324 -42.2328 170.716 -39.2054 170.917C-36.178 171.118 -33.3481 173.128 -31.8344 176.009C-30.3865 169.711 -24.1343 165.691 -18.3428 166.361C-12.5513 167.098 -7.61531 171.855 -5.18024 177.751C-1.56055 172.391 6.66605 172.056 10.6148 177.148C11.1413 171.855 16.1431 167.969 20.8816 168.237C25.6201 168.505 29.8979 172.324 32.0697 177.081C35.6895 171.587 40.2305 168.773 46.2853 170.381C48.5887 170.984 58.7897 176.478 57.4076 180.498C58.7239 176.545 61.8829 173.463 65.5684 172.592C69.2539 171.654 73.2685 172.927 76.0326 175.808C78.6651 171.118 83.7985 168.438 88.6687 169.108C93.5388 169.778 97.9483 173.865 99.462 179.091C101.041 176.277 104.332 175.071 107.294 175.272C110.255 175.473 111.242 176.88 113.941 178.287C115.849 173.262 120.917 169.912 125.787 170.448C130.657 170.984 135.001 175.406 135.988 180.766C138.423 175.607 143.688 172.324 148.887 172.592C154.087 172.86 159.022 176.679 161.063 182.039C166.13 176.009 175.541 175.607 181.004 181.235C181.662 176.545 184.821 172.391 188.836 170.984C192.85 169.51 197.589 170.783 200.616 174.133C201.274 167.299 207.921 162.408 214.042 163.078C220.162 163.748 225.427 168.84 228.257 174.87C226.744 171.721 235.431 171.386 236.352 171.587C236.945 171.721 237.603 171.922 238.195 172.123V197.516H-91V172.726C-86.7222 173.999 -82.7076 176.612 -79.6144 180.163Z" fill="#0F7A85"/>
<path d="M226.744 193.831C226.678 191.352 225.033 189.007 222.795 188.069C220.557 187.131 217.793 187.6 215.95 189.275C214.305 185.322 209.632 183.178 205.42 183.513C201.208 183.848 197.325 186.26 194.166 189.141C192.389 186.662 189.362 185.188 186.335 185.389C183.307 185.59 180.477 187.399 178.964 190.012C177.516 184.317 171.264 180.632 165.472 181.235C159.681 181.905 154.745 186.26 152.31 191.62C148.69 186.729 140.463 186.461 136.515 191.084C135.988 186.26 130.986 182.709 126.248 182.977C121.509 183.245 117.231 186.729 115.06 191.017C111.44 185.992 106.899 183.446 100.844 184.92C98.5406 185.456 88.3396 190.481 89.7217 194.166C88.4054 190.615 85.2464 187.801 81.5609 186.93C77.8754 186.059 73.8608 187.198 71.1625 189.878C68.53 185.657 63.3966 183.111 58.5265 183.781C53.6563 184.384 49.2469 188.136 47.7332 192.893C46.1537 190.28 42.863 189.208 39.9015 189.409C36.9399 189.61 35.9527 190.883 33.2544 192.156C31.3458 187.533 26.2782 184.518 21.4081 184.987C16.538 185.456 12.1943 189.476 11.2071 194.367C8.77206 189.677 3.50704 186.662 -1.69216 186.93C-6.89137 187.198 -11.8273 190.682 -13.8675 195.506C-18.9351 190.012 -28.3463 189.677 -33.8088 194.769C-34.4669 190.481 -37.6259 186.729 -41.6405 185.389C-45.655 184.049 -50.3936 185.255 -53.4209 188.27C-54.0791 182.039 -60.7262 177.617 -66.8467 178.22C-72.9673 178.823 -78.2323 183.446 -81.0623 189.007C-79.5486 186.126 -88.2359 185.858 -89.1572 185.992C-89.7496 186.126 -90.4077 186.26 -91 186.461V209.576H238.064V186.997C233.786 188.203 229.771 190.548 226.744 193.831Z" fill="#006164"/>
<g opacity="0.3">
<path d="M22.9875 291.115C20.4208 290.311 17.9857 289.976 15.3532 290.378C14.8925 290.445 8.83777 292.455 9.56171 293.058C5.74457 290.177 -0.244392 288.502 -5.18034 288.904C-7.0231 289.038 -8.80004 289.507 -10.5112 290.11C-10.9719 290.311 -15.5129 292.857 -15.3155 292.924C-21.107 289.909 -28.0173 289.44 -33.2165 293.728C-34.4012 294.733 -35.3884 295.939 -36.1123 297.279L-14.2625 310.88C-6.23334 315.905 4.49413 315.57 12.1284 310.076L30.4243 297.011C29.0423 294.264 26.2123 292.053 22.9875 291.115Z" fill="#FAFFFA"/>
<path d="M-57.5017 240.329C-61.7137 240.664 -66.3864 238.788 -68.0317 235.304C-69.8087 236.778 -72.5728 237.247 -74.8763 236.376C-77.1139 235.572 -78.7592 233.495 -78.825 231.284C-81.9182 234.165 -85.867 236.242 -90.2106 237.247V227.331C-90.4081 227.264 -90.6713 227.197 -90.8688 227.13V206.896H-90.9346V263.042L-36.1126 297.212C-35.3886 295.872 -34.4015 294.666 -33.2168 293.661C-28.0176 289.306 -21.1073 289.842 -15.3158 292.857C-15.5132 292.79 -10.9721 290.177 -10.5114 290.043C-8.80032 289.44 -7.02338 288.971 -5.18063 288.837C-0.178864 288.502 5.8101 290.11 9.56142 292.991C8.83748 292.455 14.8923 290.378 15.3529 290.311C17.9855 289.909 20.4205 290.244 22.9872 291.048C26.212 292.053 29.042 294.197 30.424 296.944L38.7164 290.981L-46.5768 235.639C-49.7358 238.051 -53.4213 240.061 -57.5017 240.329Z" fill="#84C1C2"/>
<path d="M145.86 298.887C142.241 297.815 138.818 297.279 135.133 297.882C134.475 298.016 125.919 300.83 126.972 301.634C121.641 297.547 113.217 295.269 106.175 295.738C103.609 295.939 101.108 296.542 98.7385 297.413C98.0803 297.681 91.7623 301.232 92.0256 301.366C83.8648 297.145 74.1245 296.475 66.8851 302.505C65.3714 303.778 64.121 305.252 63.1338 306.927L91.3674 325.285C102.292 332.387 117.034 332.32 127.828 325.084L155.864 306.458C153.89 302.974 150.138 300.227 145.86 298.887Z" fill="#FAFFFA"/>
<path d="M228.85 235.505C225.954 240.396 220.755 244.416 214.634 244.952C208.514 245.488 201.867 241.602 201.208 236.108C198.247 238.788 193.508 239.793 189.428 238.654C185.413 237.515 182.254 234.165 181.596 230.413C176.858 234.299 169.092 234.567 163.827 231.418C162.905 231.217 162.05 230.949 161.194 230.614C158.957 234.433 154.35 237.113 149.48 237.314C144.28 237.515 139.081 234.902 136.58 230.748C135.593 235.036 131.25 238.52 126.379 238.989C121.509 239.391 116.442 236.778 114.533 232.758C111.835 233.897 110.848 234.969 107.886 235.17C104.924 235.371 101.634 234.366 100.054 232.155C98.5406 236.376 94.1312 239.592 89.261 240.128C84.3909 240.664 79.2575 238.52 76.625 234.768C73.9267 237.113 69.8463 238.051 66.2266 237.314C62.5411 236.577 59.3821 234.098 58.0658 230.949C59.4479 234.165 49.1811 238.52 46.9435 239.056C40.8887 240.329 36.3476 238.118 32.7279 233.696C30.5561 237.515 26.3441 240.53 21.5398 240.731C16.8013 240.999 11.7995 237.85 11.273 233.629C7.32422 237.716 -0.90237 237.448 -4.52207 233.16C-6.95714 237.85 -11.8931 241.669 -17.6846 242.272C-23.4761 242.808 -29.6625 239.592 -31.1762 234.567C-32.6899 236.912 -35.5199 238.453 -38.5472 238.654C-41.5746 238.788 -44.602 237.515 -46.3789 235.371C-46.5106 235.438 -46.5764 235.572 -46.708 235.639L38.5853 291.048L63.0018 306.927C63.989 305.319 65.2394 303.778 66.7531 302.505C74.0583 296.408 83.7328 297.145 91.8935 301.366C91.6303 301.232 97.9483 297.614 98.6064 297.413C100.976 296.542 103.477 295.939 106.043 295.738C113.019 295.269 121.509 297.547 126.84 301.634C125.787 300.83 134.343 298.016 135.001 297.882C138.752 297.279 142.109 297.815 145.728 298.887C149.94 300.16 153.692 302.907 155.798 306.391L166.459 299.289L237.932 251.786V237.85C237.537 237.917 237.142 238.051 236.747 238.118C236.023 238.319 227.402 238.051 228.85 235.505Z" fill="#159FAB"/>
<path d="M152.376 222.641C148.756 226.929 140.529 227.197 136.581 223.11C136.054 227.331 131.052 230.413 126.314 230.212C121.575 229.944 117.297 226.929 115.126 223.177C111.506 227.599 106.965 229.81 100.91 228.537C98.6067 228.068 88.4057 223.646 89.7878 220.43C88.4715 223.579 85.3125 226.058 81.627 226.795C77.9415 227.532 73.9269 226.527 71.2286 224.249C68.5961 228.001 63.4627 230.145 58.5926 229.609C53.7224 229.073 49.313 225.79 47.7993 221.636C46.2198 223.914 42.9291 224.852 39.9676 224.651C37.006 224.45 36.0188 223.378 33.3205 222.239C31.4119 226.259 26.3443 228.939 21.4742 228.47C16.604 228.068 12.2604 224.517 11.2732 220.229C8.83815 224.316 3.57314 226.996 -1.62606 226.795C-6.82526 226.594 -11.7612 223.512 -13.8014 219.224C-18.869 224.048 -28.2802 224.316 -33.7427 219.894C-34.4008 223.646 -37.5598 226.929 -41.5744 228.135C-45.5889 229.274 -50.3275 228.269 -53.3548 225.589C-54.013 231.083 -60.6601 234.969 -66.7806 234.433C-72.9012 233.897 -78.1662 229.877 -80.9962 224.986C-79.4825 227.532 -88.1698 227.733 -89.0911 227.599C-89.486 227.532 -89.8809 227.465 -90.21 227.331V237.247C-85.9321 236.242 -81.9176 234.165 -78.8244 231.284C-78.7586 233.428 -77.1132 235.505 -74.8756 236.376C-72.638 237.18 -69.8738 236.778 -68.0311 235.304C-66.3858 238.788 -61.7131 240.664 -57.501 240.329C-53.4207 239.994 -49.6693 238.051 -46.5761 235.639C-46.4445 235.572 -46.3787 235.438 -46.2471 235.371C-44.4701 237.515 -41.4427 238.788 -38.4154 238.654C-35.388 238.52 -32.558 236.912 -31.0443 234.567C-29.5965 239.592 -23.3443 242.808 -17.5527 242.272C-11.7612 241.736 -6.82526 237.917 -4.39019 233.16C-0.770493 237.448 7.45609 237.716 11.4049 233.629C11.9314 237.85 16.9331 240.932 21.6716 240.731C26.4101 240.463 30.688 237.448 32.8598 233.696C36.4795 238.118 41.0206 240.329 47.0753 239.056C49.3788 238.587 59.5797 234.165 58.1977 230.949C59.5139 234.098 62.6729 236.577 66.3585 237.314C70.044 238.051 74.0585 237.046 76.7569 234.768C79.3894 238.52 84.5228 240.664 89.3929 240.128C94.263 239.592 98.6725 236.309 100.186 232.155C101.766 234.433 105.056 235.371 108.018 235.17C110.979 234.969 111.967 233.897 114.665 232.758C116.574 236.778 121.641 239.458 126.511 238.989C131.381 238.587 135.725 235.036 136.712 230.748C139.147 234.835 144.412 237.515 149.612 237.314C154.482 237.113 159.089 234.433 161.326 230.614C157.377 229.14 154.153 226.125 152.376 222.641Z" fill="#0F7A85"/>
<path d="M-90.2106 227.331C-89.8158 227.398 -89.4209 227.532 -89.0918 227.599C-88.1704 227.733 -79.549 227.465 -80.9969 224.986C-78.1011 229.877 -72.9019 233.897 -66.7813 234.433C-60.6607 234.969 -54.0136 231.083 -53.3555 225.589C-50.3939 228.269 -45.6554 229.274 -41.575 228.135C-37.5605 226.996 -34.4015 223.646 -33.7433 219.894C-28.3467 224.383 -18.8697 224.048 -13.8021 219.224C-11.7619 223.512 -6.82594 226.527 -1.62674 226.795C3.57246 227.063 8.77167 224.383 11.2725 220.229C12.2597 224.517 16.6034 228.001 21.4735 228.47C26.3437 228.872 31.4112 226.259 33.3198 222.239C36.0181 223.378 37.0053 224.45 39.9669 224.651C42.9285 224.852 46.2191 223.847 47.7986 221.636C49.3123 225.857 53.7217 229.073 58.5919 229.609C63.462 230.145 68.5954 228.001 71.2279 224.249C73.9262 226.594 78.0066 227.532 81.6263 226.795C85.3118 226.058 88.4709 223.579 89.7871 220.43C88.405 223.646 98.6718 228.001 100.909 228.537C106.964 229.81 111.505 227.599 115.125 223.177C117.297 226.996 121.509 230.011 126.313 230.212C131.052 230.48 136.053 227.331 136.58 223.11C140.529 227.197 148.755 226.929 152.375 222.641C154.152 226.125 157.377 229.14 161.26 230.681C162.115 231.016 162.971 231.284 163.892 231.485C164.419 231.619 164.945 231.686 165.538 231.753C171.329 232.289 177.515 229.073 179.029 224.048C180.543 226.393 183.373 227.934 186.4 228.135C189.428 228.269 192.455 226.996 194.232 224.852C197.391 227.398 201.274 229.475 205.486 229.743C209.698 230.078 214.371 228.202 216.016 224.718C217.793 226.192 220.557 226.661 222.86 225.79C225.098 224.986 226.743 222.909 226.809 220.698C229.902 223.579 233.851 225.656 238.195 226.661V217.415V206.829H-23.1475H-90.9346V227.13C-90.6713 227.197 -90.4739 227.264 -90.2106 227.331Z" fill="#006164"/>
</g>
<path d="M-90.9346 209.576V221.569C30.3583 227.264 132.631 223.914 238.129 221.569V209.576H-90.9346Z" fill="#97AD60"/>
<path d="M13.5761 66.1291C11.9966 65.2581 10.0881 64.9901 8.44277 65.6601C7.25814 61.9081 5.94187 59.6971 2.05892 58.2231C-2.28471 56.5481 -7.54973 57.8211 -10.7087 61.2381C-12.4857 56.8831 -14.1968 52.3941 -18.9353 50.7861C-22.9499 49.3791 -27.6884 50.5181 -30.65 53.5331C-32.6902 48.4411 -35.1253 42.6121 -40.851 41.0711C-45.3262 39.8651 -50.3938 41.3391 -53.9477 44.1531C-55.9221 45.7611 -57.3699 47.5701 -58.4229 49.8481C-58.6204 50.3171 -60.5948 54.0021 -59.8708 54.4041C-62.3717 53.0641 -65.3991 53.0641 -68.0316 54.0691C-75.2052 56.7491 -79.5488 65.1911 -77.9693 72.6281H17.9198C17.5249 69.8811 15.9454 67.4021 13.5761 66.1291Z" fill="white"/>
<path d="M-90.9346 335C-90.9346 335 -29.7946 307.664 70.7672 307.664C171.329 307.664 238.129 335 238.129 335H-90.9346Z" fill="#658A3F"/>
<g opacity="0.6">
<path d="M14.5983 48.2987L-103.371 86.1524L1.64723 43.2629L14.5983 48.2987Z" fill="#EBEBEB"/>
</g>
<path d="M17.7449 48.9526C17.5197 48.7012 14.0446 46.7145 13.7594 46.5371L14.2843 46.4185C14.2843 46.4185 17.5197 48.7012 17.7449 48.9526Z" fill="#FFC727"/>
<path opacity="0.5" d="M17.7449 48.9526C17.5197 48.7012 14.0446 46.7145 13.7594 46.5371L14.2843 46.4185C14.2843 46.4185 17.5197 48.7012 17.7449 48.9526Z" fill="white"/>
<path d="M17.7448 48.9525C17.7513 49.0201 17.4921 49.1132 17.2928 49.1323C16.9672 49.2317 16.6351 49.2636 16.6286 49.196C16.5557 49.1347 14.1207 48.2082 12.5881 47.6046L12.5217 47.6109C12.4488 47.5497 12.3823 47.5561 12.3094 47.4948C12.0308 47.3851 11.825 47.3366 11.6857 47.2817C11.5464 47.2268 11.4735 47.1656 11.4735 47.1656L13.8258 46.5306C13.9651 46.5855 15.1057 47.295 16.1668 47.8755L16.2398 47.9368C16.3127 47.998 16.452 48.0529 16.5249 48.1142C17.1017 48.5365 17.6719 48.8912 17.7448 48.9525Z" fill="#FFC727"/>
<g opacity="0.1">
<path d="M17.7446 48.9526C17.7511 49.0202 17.4919 49.1133 17.2926 49.1324C16.967 49.2319 16.6349 49.2637 16.6284 49.1961C16.5555 49.1349 14.0476 48.1471 12.5879 47.6047C12.8665 47.7145 16.0646 48.909 16.5911 48.108C17.1015 48.5367 17.6717 48.8914 17.7446 48.9526Z" fill="#282A3A"/>
</g>
<path d="M49.6206 48.6259C49.653 48.964 47.8661 49.2036 47.6603 49.1551C47.3882 49.1129 27.4529 43.2456 27.4529 43.2456L34.2879 39.7245C34.3608 39.7857 34.4272 39.7793 34.5001 39.8406L34.5731 39.9018C35.9923 40.721 40.1041 43.0561 43.7915 45.159C43.8644 45.2203 43.9308 45.2139 44.0037 45.2752C44.0766 45.3364 44.2159 45.3913 44.2888 45.4525C46.7093 46.9263 48.911 48.2163 49.6206 48.6259Z" fill="#FFC727"/>
<path d="M49.621 48.6259C47.7708 47.5068 35.7804 40.6048 34.2219 39.7308L35.0529 39.3099C35.0529 39.3099 49.1106 48.1972 49.5481 48.5646L49.621 48.6259Z" fill="#FFC727"/>
<path opacity="0.5" d="M49.621 48.6259C47.7708 47.5068 35.7804 40.6048 34.2219 39.7308L35.0529 39.3099C35.0529 39.3099 49.1106 48.1972 49.5481 48.5646L49.621 48.6259Z" fill="white"/>
<g opacity="0.5">
<path opacity="0.1" d="M49.6206 48.6259C49.653 48.964 47.8661 49.2036 47.6603 49.1551C47.3882 49.1129 27.4529 43.2456 27.4529 43.2456L34.2879 39.7245C34.2879 39.7245 32.7554 41.9184 37.1718 44.6337C40.2354 46.5235 43.2634 46.6426 44.2888 45.4525C46.7093 46.9263 48.911 48.2163 49.6206 48.6259Z" fill="#282A3A"/>
</g>
<path d="M33.0789 45.2987C32.5735 45.6201 31.9951 45.8803 31.8768 45.3458C31.8574 45.1429 31.9643 44.8597 32.8553 44.3649C33.0481 44.2782 33.5535 43.9568 33.7318 44.4173C33.9035 44.8103 33.2652 45.1444 33.0789 45.2987Z" fill="#FFC727"/>
<path opacity="0.1" d="M33.0789 45.2987C32.5735 45.6201 31.9951 45.8803 31.8768 45.3458C31.8574 45.1429 31.9643 44.8597 32.8553 44.3649C33.0481 44.2782 33.5535 43.9568 33.7318 44.4173C33.9035 44.8103 33.2652 45.1444 33.0789 45.2987Z" fill="#282A3A"/>
<path d="M37.7049 46.6978C37.1994 47.0192 36.6211 47.2793 36.5028 46.7448C36.4833 46.542 36.5903 46.2588 37.4813 45.764C37.6741 45.6772 38.1795 45.3558 38.3577 45.8164C38.5295 46.2093 37.8977 46.6111 37.7049 46.6978Z" fill="#FFC727"/>
<path opacity="0.1" d="M37.7049 46.6978C37.1994 47.0192 36.6211 47.2793 36.5028 46.7448C36.4833 46.542 36.5903 46.2588 37.4813 45.764C37.6741 45.6772 38.1795 45.3558 38.3577 45.8164C38.5295 46.2093 37.8977 46.6111 37.7049 46.6978Z" fill="#282A3A"/>
<path d="M42.4031 48.158C41.8977 48.4794 41.3193 48.7396 41.201 48.205C41.1816 48.0022 41.2885 47.719 42.1795 47.2242C42.3723 47.1374 42.8778 46.816 43.056 47.2766C43.1613 47.6759 42.5894 48.0037 42.4031 48.158Z" fill="#FFC727"/>
<path opacity="0.1" d="M42.4031 48.158C41.8977 48.4794 41.3193 48.7396 41.201 48.205C41.1816 48.0022 41.2885 47.719 42.1795 47.2242C42.3723 47.1374 42.8778 46.816 43.056 47.2766C43.1613 47.6759 42.5894 48.0037 42.4031 48.158Z" fill="#282A3A"/>
<path d="M40.4687 43.3621C40.028 44.3596 38.8713 44.8799 38.1002 45.2268C36.1189 46.2356 34.7029 46.8489 33.7908 45.0259C33.6984 44.7618 33.6125 44.5653 33.5931 44.3625C33.3241 42.9553 34.7141 42.0715 35.4059 41.5958C36.224 41.0397 36.8558 40.6379 37.3013 40.3905C38.066 39.976 38.3981 39.9442 38.7237 39.8447C39.1223 39.8065 40.0587 39.785 40.5593 41.5111C40.71 42.3837 40.629 42.9373 40.4687 43.3621Z" fill="#FFC727"/>
<path d="M40.3381 42.0099C40.4419 43.0917 39.8619 44.0343 39.0648 44.1108C38.2678 44.1872 37.5193 43.3719 37.4155 42.2901C37.3118 41.2083 37.8918 40.2657 38.6888 40.1892C39.4924 40.1804 40.2409 40.9957 40.3381 42.0099Z" fill="#263238"/>
<path d="M40.1393 42.0291C40.23 42.9757 39.7035 43.7767 39.0393 43.8404C38.3086 43.9105 37.7059 43.2177 37.6152 42.2711C37.5244 41.3245 38.0509 40.5235 38.7152 40.4598C39.4458 40.3898 40.0485 41.0825 40.1393 42.0291Z" fill="#282A3A"/>
<path d="M9.67329 44.4725L9.35415 44.6396L8.64942 44.9801C7.95926 44.7733 6.98396 44.3892 5.8823 44.0854C3.24803 43.178 0.0694022 42.1863 -0.547852 42.0408L-0.481425 42.0344L-0.414998 42.028L-0.348581 42.0217C-0.348581 42.0217 -0.348577 42.0217 -0.282154 42.0153C-0.215731 42.0089 -0.142823 42.0702 -0.0764005 42.0638C-0.00997765 42.0574 0.0629197 42.1187 0.129343 42.1123C0.335094 42.1608 0.540851 42.2093 0.746602 42.2578C0.813025 42.2515 0.885933 42.3127 0.952356 42.3063C1.01878 42.3 1.09168 42.3612 1.1581 42.3548C1.22452 42.3485 1.22453 42.3485 1.29095 42.3421C1.43028 42.397 1.4967 42.3906 1.63603 42.4455C1.70246 42.4391 1.77535 42.5004 1.84178 42.494C2.66478 42.688 3.69354 42.9306 4.65587 43.1795L4.92804 43.2216C5.27312 43.325 5.61172 43.3608 5.9568 43.4641C6.57405 43.6097 7.19131 43.7552 7.74214 43.9071C7.80857 43.9007 7.88147 43.9619 8.01431 43.9492C8.28649 43.9913 8.56515 44.1011 8.7709 44.1496C8.83732 44.1432 8.91023 44.2045 8.97665 44.1981L9.04307 44.1917C9.04307 44.1917 9.04307 44.1917 9.1095 44.1854C9.46754 44.424 9.67329 44.4725 9.67329 44.4725Z" fill="#FFC727"/>
<path opacity="0.5" d="M9.67329 44.4725L9.35415 44.6396L8.64942 44.9801C7.95926 44.7733 6.98396 44.3892 5.8823 44.0854C3.24803 43.178 0.0694022 42.1863 -0.547852 42.0408L-0.481425 42.0344L-0.414998 42.028L-0.348581 42.0217C-0.348581 42.0217 -0.348577 42.0217 -0.282154 42.0153C-0.215731 42.0089 -0.142823 42.0702 -0.0764005 42.0638C-0.00997765 42.0574 0.0629197 42.1187 0.129343 42.1123C0.335094 42.1608 0.540851 42.2093 0.746602 42.2578C0.813025 42.2515 0.885933 42.3127 0.952356 42.3063C1.01878 42.3 1.09168 42.3612 1.1581 42.3548C1.22452 42.3485 1.22453 42.3485 1.29095 42.3421C1.43028 42.397 1.4967 42.3906 1.63603 42.4455C1.70246 42.4391 1.77535 42.5004 1.84178 42.494C2.66478 42.688 3.69354 42.9306 4.65587 43.1795L4.92804 43.2216C5.27312 43.325 5.61172 43.3608 5.9568 43.4641C6.57405 43.6097 7.19131 43.7552 7.74214 43.9071C7.80857 43.9007 7.88147 43.9619 8.01431 43.9492C8.28649 43.9913 8.56515 44.1011 8.7709 44.1496C8.83732 44.1432 8.91023 44.2045 8.97665 44.1981L9.04307 44.1917C9.04307 44.1917 9.04307 44.1917 9.1095 44.1854C9.46754 44.424 9.67329 44.4725 9.67329 44.4725Z" fill="white"/>
<path d="M8.58225 44.9864L6.59444 45.9276C6.59444 45.9276 1.80382 44.2034 -1.04917 43.1123C-1.04917 43.1123 -1.04917 43.1123 -1.11559 43.1186C-1.39425 43.0089 -1.67291 42.8991 -1.95156 42.7894C-2.71463 42.5214 -3.13909 42.2891 -3.13909 42.2891C-3.08564 42.1476 -1.36512 41.9144 -0.681448 42.0535C-0.681448 42.0535 -0.681444 42.0535 -0.615021 42.0471C-0.06419 42.199 2.90868 43.1422 5.53647 43.982L5.6029 43.9756C5.66932 43.9693 5.74222 44.0305 5.80865 44.0241C6.91679 44.3955 7.88561 44.7121 8.58225 44.9864Z" fill="#FFC727"/>
<g opacity="0.1">
<path d="M8.58161 44.9865L6.59381 45.9276C6.59381 45.9276 1.80319 44.2034 -1.0498 43.1123C-0.565397 43.2706 4.21874 44.9271 5.31552 44.4808C5.57473 44.3877 5.69461 44.2397 5.74159 44.0305C6.91615 44.3956 7.88497 44.7121 8.58161 44.9865Z" fill="#282A3A"/>
</g>
<path d="M13.5437 41.5084L8.79533 44.4201C8.79533 44.4201 8.44688 40.0865 8.14868 36.9764C8.13571 36.8411 8.12923 36.7735 8.11627 36.6383C8.10978 36.5707 8.09682 36.4355 8.09034 36.3679C7.98662 35.2861 7.90883 34.4747 7.86993 34.069C7.74676 32.7844 7.86016 32.5688 8.21172 32.7398C8.56328 32.9108 10.1478 34.0553 10.5982 34.558C10.9756 34.9995 12.045 37.7628 12.7644 39.6726C12.7644 39.6726 12.7644 39.6726 12.7708 39.7402C12.7838 39.8754 12.8567 39.9367 12.8697 40.0719C13.3525 40.9126 13.5437 41.5084 13.5437 41.5084Z" fill="#FFC727"/>
<g opacity="0.1">
<path d="M13.5444 41.5087L8.79609 44.4204C8.79609 44.4204 8.44763 40.0868 8.14943 36.9767C9.04215 38.5969 10.7174 40.688 13.0033 40.0595C13.3532 40.9129 13.5444 41.5087 13.5444 41.5087Z" fill="#282A3A"/>
</g>
<path d="M5.59622 47.388C4.94167 46.1543 7.01694 44.7271 9.37087 43.4097C11.7183 42.0246 34.919 28.8145 38.3486 27.5304C41.7783 26.2463 46.0197 27.1361 46.8849 29.1684C48.2394 32.1091 44.1018 35.0986 28.9948 43.234C27.02 44.3104 18.0011 47.4268 12.8202 47.9236C7.37348 48.4458 5.92026 47.971 5.59622 47.388Z" fill="#FDE039"/>
<path opacity="0.5" d="M5.59622 47.388C4.94167 46.1543 7.01694 44.7271 9.37087 43.4097C11.7183 42.0246 34.919 28.8145 38.3486 27.5304C41.7783 26.2463 46.0197 27.1361 46.8849 29.1684C48.2394 32.1091 44.1018 35.0986 28.9948 43.234C27.02 44.3104 18.0011 47.4268 12.8202 47.9236C7.37348 48.4458 5.92026 47.971 5.59622 47.388Z" fill="white"/>
<path opacity="0.1" d="M29.061 43.2274C27.0862 44.3038 18.0674 47.4202 12.8864 47.917C7.37326 48.4455 5.92004 47.9708 5.596 47.3877C5.26548 46.7371 5.66561 46.0164 6.47077 45.3251C6.48373 45.4603 6.4967 45.5955 6.57609 45.7244C6.8337 46.3138 8.1476 46.7337 13.1893 46.1821C17.9053 45.7299 24.238 41.1652 26.093 40.2367C39.7969 32.85 45.2647 31.8481 44.0625 29.0976C43.5473 27.9188 41.7295 27.1378 39.6445 27.0647C42.7939 26.3534 46.1053 27.3323 46.8717 29.0329C48.2391 32.1088 44.1016 35.0984 29.061 43.2274Z" fill="#282A3A"/>
<path d="M12.8912 42.39L13.463 42.0622L13.5408 42.8735L12.969 43.2013L12.8912 42.39Z" fill="#282A3A"/>
<path d="M13.8433 41.8211L14.4152 41.4933L14.493 42.3047L13.9211 42.6325L13.8433 41.8211Z" fill="#282A3A"/>
<path d="M14.8599 41.2458L15.4318 40.918L15.5161 41.797L14.9377 42.0571L14.8599 41.2458Z" fill="#282A3A"/>
<path d="M15.8775 40.6707L16.4494 40.343L16.5336 41.2219L15.9618 41.5497L15.8775 40.6707Z" fill="#282A3A"/>
<path d="M16.8941 40.0955L17.466 39.7678L17.5502 40.6467L16.9784 40.9745L16.8941 40.0955Z" fill="#282A3A"/>
<path d="M17.913 39.5202L18.4914 39.2601L18.5691 40.0714L17.9973 40.3992L17.913 39.5202Z" fill="#282A3A"/>
<path d="M18.9361 39.0128L19.508 38.685L19.5858 39.4963L19.0139 39.8241L18.9361 39.0128Z" fill="#282A3A"/>
<path d="M19.9537 38.4374L20.5255 38.1097L20.6033 38.921L20.0315 39.2488L19.9537 38.4374Z" fill="#282A3A"/>
<path d="M20.9712 37.8625L21.5431 37.5347L21.6209 38.3461L21.049 38.6738L20.9712 37.8625Z" fill="#282A3A"/>
<path d="M21.9224 37.2936L22.4943 36.9659L22.5721 37.7772L22.0002 38.105L21.9224 37.2936Z" fill="#282A3A"/>
<path d="M22.939 36.7183L23.5109 36.3906L23.5952 37.2695L23.0168 37.5297L22.939 36.7183Z" fill="#282A3A"/>
<path d="M23.9566 36.1431L24.5285 35.8154L24.6127 36.6943L24.0409 37.0221L23.9566 36.1431Z" fill="#282A3A"/>
<path d="M24.9735 35.5682L25.5519 35.308L25.6297 36.1194L25.0578 36.4472L24.9735 35.5682Z" fill="#282A3A"/>
<path d="M25.9976 35.0604L26.5695 34.7326L26.6473 35.544L26.0754 35.8717L25.9976 35.0604Z" fill="#282A3A"/>
<path d="M27.0142 34.4853L27.5861 34.1575L27.6639 34.9689L27.092 35.2966L27.0142 34.4853Z" fill="#282A3A"/>
<path d="M28.0328 33.9101L28.6046 33.5823L28.6824 34.3937L28.1106 34.7214L28.0328 33.9101Z" fill="#282A3A"/>
<path d="M29.0494 33.335L29.5548 33.0136L29.6326 33.825L29.1272 34.1464L29.0494 33.335Z" fill="#282A3A"/>
<path d="M30.0005 32.7659L30.5724 32.4382L30.6567 33.3171L30.0783 33.5773L30.0005 32.7659Z" fill="#282A3A"/>
<path d="M31.0181 32.1909L31.59 31.8631L31.6743 32.7421L31.1024 33.0698L31.0181 32.1909Z" fill="#282A3A"/>
<path d="M32.0357 31.6159L32.6076 31.2881L32.6918 32.1671L32.12 32.4949L32.0357 31.6159Z" fill="#282A3A"/>
<path d="M33.0527 31.0407L33.631 30.7806L33.7088 31.5919L33.1369 31.9197L33.0527 31.0407Z" fill="#282A3A"/>
<path d="M34.6496 30.2051L34.7274 31.0165L34.1555 31.3443L34.0777 30.5329L34.6496 30.2051Z" fill="#282A3A"/>
<path d="M35.6662 29.6303L35.744 30.4417L35.1721 30.7694L35.0943 29.9581L35.6662 29.6303Z" fill="#282A3A"/>
<path d="M36.6837 29.0549L36.7615 29.8662L36.1897 30.194L36.1119 29.3826L36.6837 29.0549Z" fill="#282A3A"/>
<path d="M37.6349 28.4862L37.7127 29.2975L37.2072 29.6189L37.1294 28.8076L37.6349 28.4862Z" fill="#282A3A"/>
<path d="M40.3927 27.88C40.6989 27.5777 41.0844 27.4043 41.47 27.2308L41.5219 27.7717C41.1233 27.81 40.7912 27.8418 40.3927 27.88Z" fill="#455A64"/>
<path d="M42.7199 26.9746L42.7913 27.7183C42.5256 27.7438 42.2534 27.7017 41.9213 27.7335L41.8564 27.0574C42.1886 27.0255 42.4543 27.0001 42.7199 26.9746Z" fill="#455A64"/>
<path d="M45.4806 27.8016C45.2149 27.827 45.0092 27.7785 44.8099 27.7976C44.6106 27.8167 44.4049 27.7682 44.1392 27.7937C43.8006 27.7579 43.5349 27.7834 43.1963 27.7476L43.125 27.0039C43.4636 27.0397 43.8686 27.0691 44.2137 27.1725C44.4195 27.221 44.6317 27.3371 44.8439 27.4532C44.9168 27.5144 45.0562 27.5693 45.1291 27.6306C45.2684 27.6854 45.4077 27.7403 45.4806 27.8016Z" fill="#455A64"/>
<path d="M27.2026 36.4456L20.5588 40.5625C20.5588 40.5625 8.88275 35.5409 0.490634 31.9103C-3.98732 29.9515 -7.41707 28.438 -7.35713 28.364C-7.24373 28.1484 -5.11172 28.0123 -4.24174 27.9971C-4.10889 27.9843 -4.04246 27.978 -3.96956 28.0392C-3.63096 28.075 9.44965 31.6655 18.5351 34.1378C23.4132 35.376 27.2026 36.4456 27.2026 36.4456Z" fill="#FFC727"/>
<g opacity="0.1">
<path d="M27.2032 36.4456L20.5594 40.5626C20.5594 40.5626 8.88332 35.541 0.491211 31.9104C1.12143 32.1911 16.1689 38.1177 17.925 36.8576C18.6168 36.3818 18.6459 35.2873 18.5292 34.0703C23.4138 35.376 27.2032 36.4456 27.2032 36.4456Z" fill="#282A3A"/>
</g>
<path d="M28.1541 35.8766L26.1922 37.0882C20.6645 35.3665 -2.24362 28.556 -4.17477 27.9906L-4.2412 27.9969C-4.2412 27.9969 -4.24119 27.9969 -4.30762 28.0033C-4.17477 27.9906 -4.10835 27.9842 -4.03545 28.0454C-3.49758 28.0621 28.1541 35.8766 28.1541 35.8766Z" fill="#FFC727"/>
<path opacity="0.5" d="M28.1541 35.8766L26.1922 37.0882C20.6645 35.3665 -2.24362 28.556 -4.17477 27.9906L-4.2412 27.9969C-4.2412 27.9969 -4.24119 27.9969 -4.30762 28.0033C-4.17477 27.9906 -4.10835 27.9842 -4.03545 28.0454C-3.49758 28.0621 28.1541 35.8766 28.1541 35.8766Z" fill="white"/>
<path d="M13.222 37.445C12.5902 37.8468 11.8855 38.1873 11.7542 37.5175C11.7283 37.2471 11.8952 36.8899 12.9061 36.2471C13.1588 36.0864 13.7307 35.7586 13.9883 36.3481C14.2394 36.8698 13.4747 37.2843 13.222 37.445Z" fill="#FFC727"/>
<path opacity="0.1" d="M13.222 37.445C12.5902 37.8468 11.8855 38.1873 11.7542 37.5175C11.7283 37.2471 11.8952 36.8899 12.9061 36.2471C13.1588 36.0864 13.7307 35.7586 13.9883 36.3481C14.2394 36.8698 13.4747 37.2843 13.222 37.445Z" fill="#282A3A"/>
<path d="M7.01889 34.9691C6.38707 35.3708 5.68235 35.7113 5.5511 35.0416C5.52517 34.7711 5.69202 34.414 6.70293 33.7712C6.95566 33.6105 7.52754 33.2827 7.78515 33.8721C8.03628 34.3939 7.27161 34.8084 7.01889 34.9691Z" fill="#FFC727"/>
<path opacity="0.1" d="M7.01889 34.9691C6.38707 35.3708 5.68235 35.7113 5.5511 35.0416C5.52517 34.7711 5.69202 34.414 6.70293 33.7712C6.95566 33.6105 7.52754 33.2827 7.78515 33.8721C8.03628 34.3939 7.27161 34.8084 7.01889 34.9691Z" fill="#282A3A"/>
<path d="M0.748724 32.4998C0.116908 32.9016 -0.527868 33.1681 -0.652633 32.5659C-0.678564 32.2955 -0.505233 32.0059 0.43925 31.3695C0.691977 31.2088 1.19743 30.8874 1.44856 31.4092C1.69969 31.931 1.00145 32.3391 0.748724 32.4998Z" fill="#FFC727"/>
<path opacity="0.1" d="M0.748724 32.4998C0.116908 32.9016 -0.527868 33.1681 -0.652633 32.5659C-0.678564 32.2955 -0.505233 32.0059 0.43925 31.3695C0.691977 31.2088 1.19743 30.8874 1.44856 31.4092C1.69969 31.931 1.00145 32.3391 0.748724 32.4998Z" fill="#282A3A"/>
<path d="M21.9911 35.9218C21.5505 36.9193 20.3938 37.4396 19.6226 37.7865C17.6413 38.7952 16.2254 39.4086 15.3132 37.5855C15.2209 37.3215 15.135 37.125 15.1156 36.9222C14.8466 35.515 16.2366 34.6312 16.9283 34.1555C17.7465 33.5994 18.3783 33.1976 18.8238 32.9502C19.5884 32.5357 19.9206 32.5039 20.2462 32.4044C20.6447 32.3662 21.5811 32.3447 22.0818 34.0708C22.2325 34.9434 22.1515 35.497 21.9911 35.9218Z" fill="#FFC727"/>
<path d="M20.5873 36.6703C21.3943 36.593 21.9644 35.6524 21.8606 34.5695C21.7568 33.4866 21.0184 32.6714 20.2113 32.7488C19.4042 32.8262 18.8342 33.7668 18.938 34.8497C19.0418 35.9326 19.7802 36.7477 20.5873 36.6703Z" fill="#263238"/>
<path d="M21.6617 34.5887C21.7525 35.5353 21.226 36.3363 20.5617 36.4C19.8311 36.4701 19.2284 35.7773 19.1376 34.8307C19.0469 33.8841 19.5734 33.0831 20.2376 33.0194C20.9683 32.9493 21.571 33.6421 21.6617 34.5887Z" fill="#282A3A"/>
</g>
<path d="M133 318C133 320.742 106.853 323 74.5 323C42.2241 323 16 320.742 16 318C16 315.258 42.1465 313 74.5 313C106.853 313 133 315.177 133 318Z" fill="#1B1B1B" fill-opacity="0.26"/>
<path d="M32.1546 317.393C32.1546 318.701 31.1105 319.845 29.7453 319.845C28.38 319.845 27.3359 318.783 27.3359 317.393C27.3359 316.085 28.38 314.941 29.7453 314.941C31.1105 314.941 32.1546 316.085 32.1546 317.393Z" fill="#1D1E1E"/>
<path d="M55.5257 317.393C55.5257 318.701 54.4816 319.845 53.1164 319.845C51.8314 319.845 50.707 318.783 50.707 317.393C50.707 316.085 51.7511 314.941 53.1164 314.941C54.4816 315.022 55.5257 316.085 55.5257 317.393Z" fill="#1D1E1E"/>
<path d="M54.7243 315.513H26.8564L34.9678 260.251H69.0999L61.8719 309.218C61.3097 312.897 58.2579 315.513 54.7243 315.513Z" fill="#FDE039"/>
<path d="M69.0183 260.333H40.1065C38.5003 260.333 37.0547 260.987 35.9303 262.049C34.9666 262.949 34.3241 264.175 34.1635 265.565L26.7749 315.595L21.0728 310.445C19.2257 308.81 18.3423 306.276 18.7438 303.823L25.8112 257.145C26.1324 255.183 27.0961 253.548 28.5417 252.403C29.7464 251.422 31.2723 250.85 32.9588 250.85H57.6142C59.7023 250.85 61.71 251.749 63.0753 253.384L69.0183 260.333Z" fill="#F9CA35"/>
<path d="M24.0986 292.551L22.7529 301.191L24.2601 301.434L25.6058 292.795L24.0986 292.551Z" fill="#432918"/>
<path d="M27.5762 270.59L26.2305 279.23L27.7376 279.473L29.0833 270.834L27.5762 270.59Z" fill="#432918"/>
<path d="M69.0186 260.332H40.1067C38.5005 260.332 37.0549 260.986 35.9306 262.049L28.542 252.32C29.7467 251.339 31.2726 250.767 32.9591 250.767H57.6145C59.7026 250.767 61.7103 251.666 63.0756 253.301L69.0186 260.332Z" fill="#F9CA35"/>
<path d="M51.1862 234.5L45.5645 265.728L46.7691 265.891L52.4712 234.5H51.1862Z" fill="#432918"/>
<path d="M61.3884 234.499L55.7666 265.727L56.9713 265.891L62.593 234.499H61.3884Z" fill="#432918"/>
<path d="M57.8569 266.627H43.8828L44.6859 264.992H58.66L57.8569 266.627Z" fill="#432918"/>
<path d="M62.6744 235.48H51.5113C50.6278 235.48 49.9854 234.744 49.9854 233.927C49.9854 233.028 50.7081 232.374 51.5113 232.374H62.6744C63.5579 232.374 64.2003 233.11 64.2003 233.927C64.2003 234.744 63.4775 235.48 62.6744 235.48Z" fill="#1D1E1E"/>
<path d="M100.338 258.124L89.8176 273.738L71.5871 300.715L64.1182 296.464L83.3124 261.884L88.372 252.892L100.338 258.124Z" fill="#E79E80"/>
<path d="M100.339 258.124L89.8186 273.738L83.3135 261.884L88.373 252.892L100.339 258.124Z" fill="#E27C6F"/>
<path d="M78.2537 317.31C78.4947 316.901 78.6553 316.329 78.334 315.757C77.4506 314.122 73.7563 308.481 73.1942 306.356C72.7926 304.721 73.1942 302.187 73.4351 301.124L63.7175 294.666C61.3885 296.709 57.5336 301.124 56.7305 302.023L78.2537 317.31Z" fill="#1D1E1E"/>
<path d="M76.7276 319.518L55.124 304.313L56.6499 302.105L78.2535 317.311L76.7276 319.518Z" fill="white"/>
<path d="M70.9467 305.783C70.9467 305.783 70.8664 305.783 70.8664 305.865C70.6255 305.947 70.3845 306.192 70.5452 306.519C70.6255 306.683 70.7861 306.764 70.9467 306.846C71.5089 307.091 72.0711 307.173 72.6333 307.255C73.2757 307.337 73.9182 307.418 74.5607 307.173C75.2032 306.928 75.0426 306.192 74.4804 305.947C73.4364 305.375 71.9908 305.293 70.9467 305.783Z" fill="white"/>
<path d="M71.7495 308.073C71.7495 308.073 71.6692 308.073 71.6692 308.155C71.4282 308.237 71.1873 308.482 71.3479 308.809C71.4282 308.972 71.5888 309.054 71.7495 309.136C72.3116 309.381 72.8738 309.463 73.436 309.545C74.0785 309.626 74.721 309.708 75.3634 309.463C76.0059 309.218 75.8453 308.482 75.2831 308.237C74.2391 307.664 72.7935 307.583 71.7495 308.073Z" fill="white"/>
<path d="M73.1957 310.198C73.1957 310.198 73.1154 310.198 73.1154 310.28C72.8745 310.362 72.6336 310.607 72.7942 310.934C72.8745 311.097 73.0351 311.179 73.1957 311.261C73.7579 311.506 74.3201 311.588 74.8823 311.67C75.5248 311.751 76.1672 311.833 76.8097 311.588C77.4522 311.343 77.2916 310.607 76.7294 310.362C75.6854 309.871 74.2398 309.789 73.1957 310.198Z" fill="white"/>
<path d="M106.684 228.286C106.684 227.959 106.684 227.632 106.684 227.387C106.684 226.733 106.684 226.079 106.604 225.425C106.604 225.016 106.604 224.607 106.604 224.198C106.524 222.236 106.523 220.356 106.443 218.721H88.4536C89.337 228.531 90.7826 246.352 89.2567 250.113C89.1764 250.195 88.8551 250.849 88.293 251.748L102.99 259.187C105.239 255.181 106.845 252.157 106.925 251.176C107.086 248.968 106.925 238.096 106.684 228.286Z" fill="#282A3A"/>
<path d="M106.603 225.343C105.88 224.771 105.238 224.035 104.997 223.708C103.712 222.237 102.829 220.438 102.347 218.558H103.15C103.471 219.866 104.033 221.011 104.756 222.155C104.836 222.319 105.72 223.3 106.523 224.117C106.603 224.526 106.603 224.935 106.603 225.343Z" fill="#3A5377"/>
<path d="M106.684 228.286C102.83 226.406 99.9383 222.809 98.9746 218.558H99.7777C100.661 222.318 103.231 225.588 106.604 227.305C106.684 227.632 106.684 227.959 106.684 228.286Z" fill="#3A5377"/>
<path d="M107.326 306.519L99.3752 307.745L92.7897 271.939C92.3078 270.059 90.0591 263.601 88.1317 258.124C86.5254 253.709 85.1602 249.949 85.1602 249.949L100.178 245.534C100.178 245.534 100.901 249.05 101.865 253.382C103.31 260.167 105.158 269.078 105.559 270.795C106.041 273.165 107.326 306.519 107.326 306.519Z" fill="#E79E80"/>
<path d="M101.784 253.382C100.499 254.608 96.8045 256.979 88.0506 258.205C86.4444 253.791 85.0791 250.03 85.0791 250.03L100.097 245.616C100.097 245.534 100.82 248.968 101.784 253.382Z" fill="#E27C6F"/>
<path d="M123.949 313.959C123.868 313.468 123.547 312.978 122.985 312.814C121.218 312.242 114.713 310.443 112.866 309.299C111.42 308.4 110.055 306.192 109.493 305.293L97.9279 307.01C97.5264 310.116 97.687 315.921 97.687 317.147L123.949 313.959Z" fill="#1D1E1E"/>
<path d="M124.27 316.574L98.0888 319.844L97.7676 317.228L123.949 313.958L124.27 316.574Z" fill="white"/>
<path d="M110.778 310.279C110.778 310.279 110.778 310.361 110.698 310.361C110.618 310.606 110.537 310.933 110.858 311.096C111.019 311.178 111.18 311.096 111.34 311.015C111.902 310.851 112.384 310.524 112.866 310.197C113.348 309.789 113.91 309.38 114.231 308.808C114.553 308.235 113.991 307.745 113.348 307.99C112.384 308.399 111.26 309.298 110.778 310.279Z" fill="white"/>
<path d="M112.947 311.505C112.947 311.505 112.947 311.587 112.867 311.587C112.786 311.832 112.706 312.159 113.027 312.323C113.188 312.405 113.349 312.323 113.509 312.241C114.071 312.078 114.553 311.751 115.035 311.424C115.517 311.015 116.079 310.606 116.4 310.034C116.722 309.462 116.16 308.971 115.517 309.216C114.553 309.543 113.429 310.443 112.947 311.505Z" fill="white"/>
<path d="M115.436 312.078C115.436 312.078 115.436 312.16 115.356 312.16C115.276 312.405 115.195 312.732 115.517 312.896C115.677 312.977 115.838 312.896 115.998 312.814C116.561 312.65 117.043 312.323 117.524 311.996C118.006 311.588 118.568 311.179 118.89 310.607C119.211 310.034 118.649 309.544 118.006 309.789C117.043 310.198 115.918 311.097 115.436 312.078Z" fill="white"/>
<path d="M93.9133 219.457L83.232 219.538H82.4289H80.0999H79.2164H75.5221H71.5869C71.5869 219.538 72.7113 222.4 74.3978 226.732C74.4781 226.978 74.5584 227.223 74.719 227.55C75.1206 228.531 75.5221 229.512 75.9237 230.575C76.004 230.82 76.1646 231.147 76.2449 231.392C78.6543 237.687 83.5532 250.358 86.0428 257.061L103.47 251.829C99.6957 239.158 93.9133 219.457 93.9133 219.457Z" fill="#282A3A"/>
<path d="M75.5221 219.539H71.5869C71.5869 219.539 72.7113 222.4 74.3978 226.733C74.4781 226.978 74.5584 227.223 74.719 227.55C75.1206 228.531 75.5221 229.512 75.9237 230.575C76.004 230.82 76.1646 231.147 76.2449 231.392C78.6543 237.687 83.5532 250.358 86.0428 257.062L88.6128 256.244C84.5972 244.636 77.5299 224.934 75.5221 219.539Z" fill="#1B2B44"/>
<path d="M83.2314 219.539C82.6692 224.28 80.0992 228.695 76.164 231.392C76.0837 231.147 75.9231 230.82 75.8428 230.575C79.4568 228.041 81.8661 223.953 82.3479 219.539H83.2314Z" fill="#3A5377"/>
<path d="M80.0986 219.538C79.6167 222.89 77.6089 225.833 74.7177 227.55C74.6374 227.304 74.4768 227.059 74.3965 226.732C76.9664 225.179 78.8136 222.563 79.2954 219.538H80.0986Z" fill="#3A5377"/>
<path d="M109.334 235.315C109.897 236.541 112.145 236.95 112.145 236.95C112.145 236.95 113.671 233.026 114.635 230.819C114.876 230.247 115.037 229.756 115.197 229.593C115.759 228.53 115.518 221.581 115.518 221.581L109.656 222.562C109.013 223.952 110.298 227.712 110.298 227.712C110.138 228.285 110.218 230.165 110.218 230.901C110.218 231.064 110.218 231.228 110.218 231.228L110.138 231.146C109.736 230.655 109.174 230.982 109.174 230.982L109.334 235.315Z" fill="#E27C6F"/>
<path d="M115.518 221.581L115.357 220.191L111.984 196.076C111.663 193.95 109.012 187.819 109.012 187.819L108.611 185.939L107.727 179.481C107.647 178.663 107.406 177.764 107.246 176.946H98.3311C99.857 183.159 101.704 190.844 101.624 192.233C101.624 193.133 102.828 197.465 104.354 202.697C106.362 209.401 108.932 217.412 110.056 221.009L109.575 222.562C108.932 223.952 110.217 227.712 110.217 227.712C110.137 228.121 110.137 229.102 110.137 230.001V230.574C110.137 230.737 110.137 230.901 110.137 230.982C110.137 231.064 110.137 231.146 110.137 231.228C110.137 231.309 110.137 231.309 110.137 231.309L110.056 231.228C109.655 230.737 109.093 231.064 109.093 231.064L109.173 235.397C109.655 236.541 111.582 236.95 111.904 237.032C111.984 237.032 111.984 237.032 111.984 237.032C111.984 237.032 112.145 236.705 112.305 236.214C112.466 235.806 112.707 235.315 112.867 234.743C113.349 233.517 113.992 231.963 114.393 230.901C114.634 230.328 114.795 229.838 114.955 229.674C115.036 229.511 115.116 229.266 115.116 228.939C115.598 226.731 115.518 221.581 115.518 221.581ZM113.028 230.41C112.546 231.064 112.145 231.882 111.823 232.699C111.663 233.026 111.582 233.353 111.502 233.68C111.422 233.925 111.341 234.252 111.261 234.498C111.02 234.416 110.779 234.498 110.538 234.416C110.699 233.762 110.699 233.026 110.619 232.372C110.86 232.372 111.1 232.372 111.261 232.29C111.422 232.209 111.502 232.127 111.582 232.045C111.663 231.963 111.663 231.963 111.743 231.882C112.144 231.391 112.225 230.737 112.305 230.083C112.305 229.429 111.984 228.612 112.305 228.121C112.707 227.549 113.028 226.895 113.269 226.241C113.028 227.631 112.948 229.02 113.028 230.41Z" fill="#E79E80"/>
<path d="M97.207 168.69C97.207 168.771 97.2873 168.853 97.2873 168.935C97.6086 169.425 98.1708 169.671 98.6526 169.916C102.186 171.469 104.596 172.041 105.8 176.047C107.005 180.053 107.406 187.819 109.173 191.579C109.655 192.724 110.298 193.787 110.699 194.931C111.101 196.157 111.261 197.465 111.422 198.692C112.145 204.005 112.787 209.237 113.51 214.551C114.072 218.965 113.992 224.442 115.277 228.775C115.598 226.65 115.438 221.5 115.438 221.5L115.277 220.11L111.904 195.994C111.583 193.868 108.932 187.737 108.932 187.737L108.531 185.857L107.647 179.399C107.246 176.538 106.282 173.84 104.676 171.551C103.23 169.017 100.098 168.69 97.207 168.69Z" fill="#EEBD90"/>
<path d="M107.566 189.045C107.566 189.045 107.566 189.127 107.486 189.29C107.486 189.372 107.405 189.454 107.405 189.536C107.325 189.617 107.325 189.781 107.245 189.863C107.164 189.944 107.084 190.108 107.004 190.271C106.924 190.435 106.763 190.517 106.683 190.68C106.442 190.925 106.12 191.171 105.719 191.334C105.317 191.498 104.916 191.579 104.594 191.498C104.434 191.498 104.273 191.498 104.113 191.416C103.952 191.416 103.791 191.334 103.711 191.334C103.55 191.334 103.47 191.252 103.39 191.171C103.31 191.089 103.229 191.089 103.149 191.007C102.988 190.925 102.988 190.844 102.988 190.844C102.988 190.844 103.069 190.844 103.229 190.844C103.31 190.844 103.39 190.844 103.47 190.844C103.55 190.844 103.711 190.844 103.791 190.844C103.872 190.844 104.032 190.844 104.193 190.844C104.354 190.844 104.434 190.844 104.594 190.762C104.916 190.68 105.237 190.598 105.558 190.517C105.879 190.353 106.201 190.271 106.442 190.108C106.602 190.026 106.683 189.944 106.843 189.863C106.923 189.781 107.084 189.699 107.164 189.617C107.245 189.536 107.325 189.454 107.405 189.372C107.486 189.29 107.566 189.209 107.566 189.209C107.486 189.127 107.566 189.045 107.566 189.045Z" fill="#D87B71"/>
<path d="M109.013 221.009L69.5001 222.644C69.5001 222.644 67.1711 203.596 67.412 185.612C67.5726 171.96 69.1788 158.961 74.399 155.201C74.9612 154.792 76.4068 153.893 77.8524 153.157C79.0571 152.503 80.1814 152.013 80.7436 152.013C80.7436 152.013 88.5337 152.095 94.798 156.1C96.4845 157.163 98.0104 158.553 99.2954 160.188C102.106 163.866 105.399 189.045 107.326 205.885C108.37 214.551 109.013 221.009 109.013 221.009Z" fill="#2B92D5"/>
<path opacity="0.5" d="M109.013 221.009L69.5001 222.644C69.5001 222.644 67.1711 203.597 67.412 185.612C67.412 185.612 67.412 185.612 67.412 185.694C68.9379 193.542 73.1141 202.289 80.1814 206.376C85.5622 209.401 92.0674 209.483 98.0907 208.42C101.223 207.848 104.355 207.03 107.326 205.967C108.37 214.551 109.013 221.009 109.013 221.009Z" fill="#13548A"/>
<path d="M111.661 182.751L109.734 183.487L99.5342 187.247L94.7959 174.331V156.019C95.1975 156.265 108.368 166.81 111.661 182.751Z" fill="#2B92D5"/>
<path d="M89.8208 173.268L92.8726 179.563L99.6991 180.625L94.8001 185.53L95.9245 192.479L89.8208 189.209L83.6369 192.479L84.8416 185.53L79.8623 180.625L86.769 179.563L89.8208 173.268Z" fill="white"/>
<path d="M111.661 182.751L109.734 183.487C104.032 167.628 95.0368 156.346 94.7959 156.019C95.1975 156.265 108.368 166.81 111.661 182.751Z" fill="#37C9EE"/>
<path d="M94.7974 156.018C93.9942 158.389 92.3077 161.005 88.6937 161.577C83.2326 162.394 79.2171 155.854 77.7715 153.075C78.9761 152.421 80.1005 151.93 80.6627 151.93C80.743 151.93 88.5331 151.93 94.7974 156.018Z" fill="#E79E80"/>
<path d="M80.7396 151.93C80.9806 152.175 89.8951 158.879 89.8951 158.879C89.8951 158.879 89.6541 154.71 89.5738 152.584C89.5738 151.93 89.4935 151.44 89.4935 151.358C89.4935 150.459 90.2163 146.698 90.2163 146.698L81.1412 142.447C81.1412 142.447 80.9806 144.327 80.8199 146.453C80.7396 148.987 80.579 151.767 80.7396 151.93Z" fill="#E79E80"/>
<path d="M80.9023 146.453C83.392 148.334 88.9334 152.339 89.4956 152.503C89.4956 152.503 89.4956 152.503 89.5759 152.503C89.5759 151.849 89.4956 151.358 89.4956 151.277C89.4956 150.377 90.2184 146.617 90.2184 146.617L81.1433 142.366C81.2236 142.448 81.063 144.328 80.9023 146.453Z" fill="#E27C6F"/>
<path d="M79.9323 142.774C79.9323 142.774 80.1732 143.428 81.1369 144.327C81.3779 144.491 81.6188 144.736 81.8597 144.899C82.9038 145.635 92.8623 150.049 94.3882 149.804C95.9141 149.559 97.3597 144.245 97.44 143.673C97.9219 140.24 99.2872 129.53 99.2872 129.53C95.5126 117.922 82.0204 123.89 80.4945 125.034C79.0489 126.26 79.9323 142.774 79.9323 142.774Z" fill="#E79E80"/>
<path d="M81.2168 144.326C81.4577 144.49 81.6987 144.735 81.9396 144.899C82.9836 145.634 92.9422 150.049 94.4681 149.804C95.994 149.558 97.4396 144.245 97.5199 143.672C96.5561 146.043 95.5121 149.313 94.3877 149.15C92.7815 149.068 82.4215 144.98 81.2168 144.326Z" fill="#EEBD90"/>
<path d="M98.5673 133.127C98.5673 133.127 96.7202 130.593 95.6761 131.656C94.6321 132.637 95.114 132.719 95.114 132.719L98.5673 133.127Z" fill="#4A0E2F"/>
<path d="M84.752 131.41C84.752 131.41 89.4903 129.285 90.1328 131.165C90.5343 132.228 89.8115 132.555 89.8115 132.555L84.752 131.41Z" fill="#4A0E2F"/>
<path d="M86.8404 137.215C87.5057 137.215 88.0451 136.336 88.0451 135.253C88.0451 134.169 87.5057 133.291 86.8404 133.291C86.1751 133.291 85.6357 134.169 85.6357 135.253C85.6357 136.336 86.1751 137.215 86.8404 137.215Z" fill="#1D1E1E"/>
<path d="M84.5107 134.189C84.5107 134.189 84.9123 134.843 85.6351 135.17C86.3579 135.497 87.0807 135.252 87.0807 135.252C87.0807 135.252 86.6791 134.598 85.9563 134.271C85.3138 134.026 84.5107 134.189 84.5107 134.189Z" fill="#FAEFE6"/>
<path d="M96.9602 135.988C96.9602 136.806 96.5586 137.46 96.0768 137.46C95.5949 137.46 95.1934 136.806 95.1934 135.988C95.1934 135.171 95.5949 134.517 96.0768 134.517C96.5586 134.517 96.9602 135.171 96.9602 135.988Z" fill="#1D1E1E"/>
<path d="M97.6811 135.335C97.6811 135.335 97.3599 135.744 96.878 135.989C96.3962 136.234 95.834 136.152 95.834 136.152C95.834 136.152 96.1552 135.744 96.6371 135.498C97.1993 135.171 97.6811 135.335 97.6811 135.335Z" fill="#FAEFE6"/>
<path d="M91.4205 140.076C91.0993 139.994 90.8584 139.831 90.5371 139.831C90.8584 140.566 91.4205 141.139 92.1433 141.466C92.2236 141.466 92.2236 141.547 92.3039 141.547C92.3843 141.547 92.4646 141.547 92.5449 141.466C92.9464 141.22 93.2677 140.893 93.5889 140.566C93.6692 140.485 93.6692 140.403 93.7495 140.321C93.8298 139.994 93.5889 140.076 93.4283 140.158C93.1874 140.239 93.0267 140.321 92.7858 140.321C92.3039 140.321 91.9024 140.239 91.4205 140.076Z" fill="#E27C6F"/>
<path d="M92.2255 141.302C92.3862 141.139 92.6271 140.975 92.7877 140.812C93.0286 140.648 93.2696 140.403 93.4302 140.158C92.4665 139.504 92.4665 138.441 92.5468 137.215C92.5468 136.642 92.7074 136.152 92.9483 135.661C93.109 135.416 93.2696 135.171 93.4302 135.007C93.5105 134.926 93.5908 134.844 93.7514 134.68C93.8318 134.599 93.9924 134.517 94.0727 134.517C93.9924 134.599 93.9924 134.68 93.9121 134.762C93.7514 134.926 93.5908 135.089 93.5105 135.334C93.3499 135.498 93.2696 135.743 93.1893 135.988C93.0286 136.397 92.9483 136.888 92.868 137.378C92.868 137.869 92.9483 138.359 93.109 138.768C93.2696 139.258 93.6711 139.749 94.0727 140.076C94.0727 140.076 93.4302 140.893 93.3499 140.893C93.1893 141.057 93.0286 141.22 92.7877 141.302C92.6271 141.466 92.3862 141.547 92.1452 141.547C92.0649 141.547 91.9846 141.547 91.9043 141.466C91.9846 141.466 91.9846 141.384 91.9846 141.384C91.9846 141.384 91.9846 141.384 92.0649 141.302C92.1452 141.384 92.2255 141.302 92.2255 141.302Z" fill="#DB5B67"/>
<path d="M90.2939 144.817C91.1774 145.308 92.3017 145.308 93.2654 144.899C92.9442 145.389 92.4623 145.635 91.9002 145.635C91.338 145.553 90.6955 145.226 90.2939 144.817Z" fill="#DB5B67"/>
<path d="M86.8408 142.201C89.1698 143.918 92.302 144.327 94.9522 143.346C93.5066 143.673 91.9807 143.509 90.5351 143.346C89.4108 143.101 87.8045 142.774 86.8408 142.201Z" fill="#DB5B67"/>
<path d="M96.0754 140.485C96.236 140.894 97.1194 140.975 98.0831 140.567C99.0469 140.24 99.6894 139.586 99.5287 139.095C99.3681 138.686 98.4847 138.605 97.521 139.013C96.5572 139.422 95.9148 140.076 96.0754 140.485Z" fill="#E27C6F"/>
<path d="M84.03 138.522C83.8694 139.176 84.9134 139.994 86.359 140.403C87.8046 140.811 89.0896 140.566 89.2502 139.912C89.4108 139.258 88.3668 138.441 86.9212 138.032C85.4756 137.623 84.1906 137.868 84.03 138.522Z" fill="#E27C6F"/>
<path d="M81.4673 143.184C79.3792 143.02 77.9336 141.794 77.1305 140.731C76.9699 140.486 76.8093 140.241 76.729 140.077C76.1668 139.015 76.0062 135.254 77.4518 134.355C78.4958 133.783 79.2989 134.6 79.6202 135.254C79.7808 135.499 79.8611 135.663 79.8611 135.663L81.4673 143.184Z" fill="#EEBD90"/>
<path d="M81.4686 143.184C79.3805 143.021 77.9349 141.794 77.1318 140.732C77.0515 140.65 76.9712 140.486 76.9712 140.405C76.409 139.342 76.2484 135.581 77.694 134.682C78.5774 134.192 79.2199 134.682 79.6214 135.173C79.782 135.418 79.8624 135.581 79.8624 135.581L81.4686 143.184Z" fill="#E79E80"/>
<path d="M76.9717 137.38C76.8914 137.707 76.9717 137.952 77.0521 138.279C77.4536 139.506 78.6583 140.487 79.8629 141.386C79.5417 140.814 79.3811 140.078 79.4614 139.424C79.4614 139.179 79.5417 138.933 79.5417 138.688C79.5417 137.789 77.3733 135.582 76.9717 137.38Z" fill="#E27C6F"/>
<path d="M80.4202 141.712C80.3399 141.63 80.2596 141.63 80.1793 141.549C80.0186 141.467 79.7777 141.303 79.6171 140.976C79.3762 140.731 79.2155 140.404 79.1352 139.995C79.0549 139.587 79.0549 139.096 79.2959 138.687C79.2959 138.606 79.3762 138.606 79.3762 138.524V138.442C79.3762 138.36 79.2959 138.36 79.2959 138.279C79.2155 138.115 79.0549 137.952 78.9746 137.788C78.814 137.625 78.7337 137.461 78.5731 137.379C78.4124 137.216 78.3321 137.134 78.1715 137.052C78.0109 136.971 77.9306 136.889 77.7699 136.889C77.6093 136.889 77.529 136.889 77.4487 136.971C77.3684 137.052 77.2881 137.052 77.2881 137.134V137.216C77.2881 137.216 77.2881 137.216 77.2881 137.134C77.2881 137.052 77.3684 137.052 77.4487 136.971C77.529 136.889 77.6896 136.889 77.8503 136.889C78.0109 136.889 78.1715 136.971 78.3321 137.052C78.4927 137.134 78.6534 137.298 78.814 137.379C78.9746 137.543 79.1352 137.625 79.2959 137.788C79.4565 137.952 79.6171 138.115 79.6974 138.279C79.6974 138.36 79.7777 138.36 79.7777 138.442L79.858 138.524L79.9383 138.606L80.0186 138.687C80.0186 138.687 80.0186 138.769 79.9383 138.769L79.858 138.851C79.858 138.933 79.7777 138.933 79.7777 139.014C79.6171 139.423 79.5368 139.832 79.6171 140.159C79.6974 140.486 79.7777 140.813 79.9383 141.14C80.099 141.385 80.2596 141.63 80.4202 141.712C80.3399 141.63 80.2596 141.63 80.4202 141.712Z" fill="#B34B57"/>
<path d="M66.4485 190.272C66.5288 191.253 65.4044 196.24 63.9589 202.126C63.1557 205.314 62.2723 208.747 61.4692 211.936C60.5858 215.206 59.863 218.149 59.2205 220.519L58.6583 226.732C58.6583 226.732 61.3889 227.958 61.3086 228.449C61.2283 228.939 62.6739 232.863 63.1557 233.354C63.6376 233.844 62.0314 234.989 62.0314 234.989C62.0314 234.989 60.3449 234.253 59.863 234.253C59.4614 234.335 58.6583 236.133 57.9355 237.033C57.6946 237.278 57.4537 237.441 57.2128 237.523C56.249 237.605 55.0444 237.687 54.8034 237.033C54.5625 236.379 54.1609 235.234 53.5988 234.989C53.0366 234.744 51.1895 233.354 51.1895 232.536C51.1895 231.719 51.7516 229.021 51.8319 228.367C51.9122 227.631 52.0729 225.343 52.0729 225.343L52.876 221.092L55.205 195.014C55.4459 192.561 58.0962 185.613 58.0962 185.613L58.4174 183.487L59.0599 176.13C59.3008 172.941 60.3449 169.835 61.9511 167.137C63.3164 164.767 65.7257 163.949 68.2956 163.622C69.0184 163.54 69.7412 163.459 70.464 163.459C70.8656 163.459 71.1868 163.377 71.5884 163.377C71.2671 163.622 66.2076 187.656 66.4485 190.272Z" fill="#E79E80"/>
<path d="M67.9727 163.868C65.724 165.83 63.3147 167.792 61.7887 170.326C58.7369 175.558 59.7007 182.179 58.0945 188.065C57.6126 189.618 56.9701 191.172 56.6489 192.807C56.2473 194.36 56.0867 195.995 55.9261 197.63C55.6048 201.309 55.123 204.906 54.7214 208.502C54.6411 209.483 54.4805 210.464 54.4002 211.527C53.9183 215.369 53.5167 219.13 53.1152 222.972C52.7939 225.833 52.4727 228.776 53.2758 231.556C53.9183 234.008 55.6048 236.297 57.8535 237.196C57.6126 237.442 57.3717 237.605 57.1307 237.687C56.167 237.769 54.9623 237.85 54.7214 237.196C54.4805 236.542 54.0789 235.398 53.5167 235.153C52.9546 234.907 51.1074 233.518 51.1074 232.7C51.1074 231.883 51.6696 229.185 51.7499 228.531C51.8302 227.795 51.9908 225.506 51.9908 225.506L52.794 221.255L55.123 195.177C55.3639 192.725 58.0141 185.776 58.0141 185.776L58.3354 183.651L58.9779 176.293C59.2188 173.105 60.2628 169.999 61.8691 167.301C62.9934 165.012 65.483 164.195 67.9727 163.868Z" fill="#EEBD90"/>
<path d="M59.54 187.084C59.54 187.084 59.54 187.166 59.6204 187.329C59.6204 187.411 59.7007 187.493 59.781 187.656C59.8613 187.738 59.8613 187.902 60.0219 188.065C60.1022 188.229 60.1825 188.31 60.3431 188.474C60.4235 188.637 60.5841 188.719 60.7447 188.883C61.0659 189.128 61.4675 189.373 61.869 189.537C62.2706 189.7 62.7525 189.7 63.154 189.7C63.3146 189.7 63.5556 189.7 63.7162 189.618C63.8768 189.618 64.0374 189.537 64.1981 189.455C64.3587 189.373 64.439 189.291 64.5193 189.291C64.5996 189.21 64.6799 189.21 64.7602 189.128C64.9209 189.046 65.0012 188.964 65.0012 188.964C65.0012 188.964 64.9209 188.964 64.7602 188.964C64.6799 188.964 64.5996 188.964 64.5193 188.964C64.439 188.964 64.2784 188.964 64.1177 188.964C63.9571 188.964 63.8768 188.964 63.7162 188.964C63.5556 188.964 63.395 188.964 63.2343 188.883C62.9131 188.801 62.5115 188.719 62.1903 188.637C61.7887 188.474 61.4675 188.392 61.1463 188.229C60.9856 188.147 60.825 188.065 60.7447 187.983C60.5841 187.902 60.5038 187.82 60.3431 187.738C60.2628 187.656 60.1022 187.575 60.0219 187.493C59.9416 187.411 59.8613 187.329 59.781 187.329C59.6204 187.084 59.54 187.084 59.54 187.084Z" fill="#D87B71"/>
<path d="M78.9752 162.477L72.5504 187.247L56.0867 185.694L54.4805 185.531C58.0141 169.017 64.5193 160.842 69.8198 156.837C74.3172 153.403 77.8509 152.995 77.8509 152.995L78.9752 162.477Z" fill="#2B92D5"/>
<path d="M69.7407 156.837C62.7537 164.766 57.0516 182.342 56.0076 185.694L54.4014 185.53C57.935 169.017 64.5205 160.842 69.7407 156.837Z" fill="#37C9EE"/>
<path d="M96.9657 127.326C94.1548 129.942 85.8828 128.797 85.8828 128.797C88.2921 128.552 91.3439 126.835 92.6289 126.018C88.774 128.143 81.7067 127.244 81.7067 127.244C82.0279 128.143 80.0201 136.727 80.0201 136.727C79.0564 134.765 77.2093 134.602 77.2093 134.602C77.2093 134.602 76.5668 132.231 76.0849 130.432C75.9243 129.697 75.7637 129.124 75.7637 128.797C75.603 127.653 76.4865 126.754 76.4865 126.754C75.5227 114.246 94.6367 116.862 96.8051 118.579C97.2869 118.987 97.8491 119.478 98.2507 120.132C99.5356 121.849 99.8569 124.628 96.9657 127.326Z" fill="#38102B"/>
<path d="M98.1704 119.968C98.09 120.131 98.0097 120.295 97.9294 120.458C97.046 122.012 95.5201 123.074 93.8336 123.401C93.9942 122.666 93.9942 121.848 93.7533 121.194C91.8258 123.156 89.3362 124.546 86.6056 125.036C87.2481 124.464 87.6496 123.647 87.8103 122.829C85.4813 124.709 82.3491 125.445 79.5383 124.791C79.2973 126.671 77.9321 129.042 76.0849 130.35C75.9243 129.614 75.7637 129.042 75.7637 128.715C75.603 127.571 76.4865 126.671 76.4865 126.671C76.3258 124.873 76.6471 123.483 77.1289 122.257C79.8595 116.289 89.818 116.534 94.4761 117.597C95.6004 117.842 96.4035 118.169 96.7248 118.415C97.2869 118.823 97.7688 119.396 98.1704 119.968Z" fill="#4A0E2F"/>
<path d="M94.5573 117.598C94.3967 117.761 94.2361 117.843 94.0755 118.006C92.7102 119.069 91.1843 119.968 89.578 120.459C89.819 119.968 89.9796 119.478 90.2205 118.987C87.9718 120.377 85.3216 121.195 82.6713 121.44C83.4744 120.786 84.1972 119.968 84.6791 118.987C82.591 120.132 79.6998 121.603 77.1299 122.094C79.9408 116.29 89.819 116.535 94.5573 117.598Z" fill="#5F1234"/>
<path d="M98.5716 122.829C98.5716 122.829 102.667 127.734 102.266 128.715C101.945 129.696 98.5716 135.828 98.5716 135.828C98.5716 135.828 99.2944 128.552 97.5276 126.181C95.7607 123.892 98.5716 122.829 98.5716 122.829Z" fill="#38102B"/>
<path d="M87.8118 138.117C87.4103 138.036 87.0891 138.036 86.8481 137.954C86.6072 137.872 86.4466 137.79 86.2859 137.709C85.4828 137.3 85.001 136.728 84.76 136.074C84.1979 134.684 84.5191 133.131 84.5191 133.131H86.045H88.2937H88.9362H89.9802H92.0683C91.8274 133.131 92.0683 138.526 87.8118 138.117Z" fill="#1D1E1E"/>
<path d="M88.1321 133.049L86.2046 137.627C85.4015 137.218 84.9196 136.646 84.6787 135.992L85.8834 133.049H88.1321Z" fill="#FAEFE6"/>
<path d="M89.8184 133.13L87.8106 138.199C87.8106 138.199 87.8107 138.199 87.7303 138.199C87.4091 138.199 87.0878 138.117 86.7666 138.035L88.6941 133.212L89.8184 133.13Z" fill="#FAEFE6"/>
<path d="M96.9651 137.953C96.8848 137.953 96.8848 137.953 96.9651 137.953C96.5636 137.953 96.3226 137.872 96.0817 137.79C93.1102 136.891 93.9133 133.294 93.9133 133.294H97.9289H98.8926H100.82C100.659 133.294 100.82 138.28 96.9651 137.953Z" fill="#1D1E1E"/>
<path d="M98.7337 133.294L96.8866 137.872C96.8866 137.872 96.8866 137.872 96.8063 137.872C96.485 137.872 96.1638 137.79 95.9229 137.708L97.6897 133.294H98.7337Z" fill="#FAEFE6"/>
<path d="M94.397 134.193H91.1846V135.256H94.397V134.193Z" fill="#1D1E1E"/>
<path d="M84.4389 134.111L77.2109 134.52L78.9778 135.338H84.4389V134.111Z" fill="#1D1E1E"/>
</g>
<defs>
<clipPath id="clip0_152_6143">
<rect width="329.129" height="335" fill="white" transform="translate(-91)"/>
</clipPath>
</defs>
</svg>
