<svg width="29" height="46" viewBox="0 0 29 46" fill="none" xmlns="http://www.w3.org/2000/svg">
<g clip-path="url(#clip0_249_4142)">
<path d="M4.91069 23.8821C4.34877 23.8821 4.2144 23.8101 4.16554 23.7381C3.49367 22.898 2.67522 16.5615 2.91954 15.1454C3.23714 13.3572 3.68912 12.2771 3.78685 12.0731C3.57918 11.8211 2.17438 10.1409 2.47977 9.52887C2.88289 8.7128 5.20387 6.74463 5.53369 6.4686L4.58087 4.58444L4.6053 4.56044C5.75357 2.76028 12.6676 -0.0119629 15.9659 -0.0119629C16.3934 -0.0119629 16.7599 0.0360413 17.0531 0.120049C19.7527 0.93612 22.3302 3.60035 22.6967 4.50043C23.0265 5.3045 22.5257 6.07257 22.4157 6.22858C22.6356 6.63662 24.7123 10.549 25.2009 12.4691C25.7018 14.4853 24.9566 20.4498 24.92 20.7018V20.7498L24.8711 20.7618C24.6879 20.7978 8.52653 23.8821 4.91069 23.8821ZM4.71524 4.60844L5.68028 6.51661L5.64363 6.55261C5.6192 6.56461 2.99283 8.7608 2.58971 9.60087C2.35762 10.0689 3.46924 11.521 3.90901 12.0371L3.93344 12.0611L3.92122 12.0971C3.92122 12.1091 3.39595 13.2012 3.05391 15.1694C2.8096 16.5615 3.61583 22.838 4.27548 23.6661C4.29991 23.6901 4.40985 23.7621 4.92291 23.7621C8.4288 23.7621 23.845 20.8339 24.7856 20.6538C24.8589 20.1018 25.543 14.4133 25.0665 12.5171C24.5657 10.525 22.3058 6.31259 22.2814 6.27658L22.2569 6.24058L22.2814 6.20458C22.2936 6.19258 22.9044 5.38851 22.5746 4.56044C22.2081 3.67236 19.6672 1.04413 17.0042 0.25206C16.7232 0.168053 16.369 0.120049 15.9537 0.120049C12.6921 0.120049 5.90016 2.83228 4.71524 4.60844Z" fill="#E2C9AF"/>
<path d="M9.38145 28.5026C9.38145 28.5026 8.02551 27.9866 7.36587 27.4345C6.22981 26.4744 4.99603 24.8903 4.33638 24.0622C3.67673 23.2462 2.72391 16.6096 2.98044 15.1695C3.3347 13.1653 3.84775 12.0732 3.84775 12.0732C3.84775 12.0732 2.22307 10.189 2.52846 9.57697C2.95601 8.7129 5.59459 6.50471 5.59459 6.50471L4.64177 4.60854C5.89999 2.65237 14.2922 -0.635916 17.0162 0.192156C19.7526 1.02023 22.269 3.67246 22.6232 4.53653C22.9775 5.41261 22.3178 6.24068 22.3178 6.24068C22.3178 6.24068 24.6022 10.4651 25.1152 12.4932C25.6283 14.5214 24.8831 20.7859 24.8831 20.7859C24.8831 20.7859 24.0403 23.5342 23.2585 24.8903C22.4767 26.2464 20.3267 28.0466 20.3267 28.0466L9.38145 28.5026Z" fill="#F4E5D4"/>
<path d="M9.38145 28.5026C9.38145 28.5026 8.02551 27.9866 7.36587 27.4345C6.22981 26.4744 4.99603 24.8903 4.33638 24.0622C3.67673 23.2462 2.72391 16.6096 2.98044 15.1695C3.3347 13.1653 3.84775 12.0732 3.84775 12.0732C3.84775 12.0732 2.22307 10.189 2.52846 9.57697C2.95601 8.7129 5.59459 6.50471 5.59459 6.50471L4.64177 4.60854C5.89999 2.65237 14.2922 -0.635916 17.0162 0.192156C19.7526 1.02023 22.269 3.67246 22.6232 4.53653C22.9775 5.41261 22.3178 6.24068 22.3178 6.24068C22.3178 6.24068 24.6022 10.4651 25.1152 12.4932C25.6283 14.5214 24.8831 20.7859 24.8831 20.7859C24.8831 20.7859 24.0403 23.5342 23.2585 24.8903C22.4767 26.2464 20.2534 28.0466 20.2534 28.0466L9.38145 28.5026Z" fill="#F4E5D4"/>
<path opacity="0.7" d="M25.018 19.4778C24.9447 20.2699 24.8836 20.7859 24.8836 20.7859C24.8836 20.7859 24.0407 23.5341 23.2589 24.8903C22.4771 26.2464 20.0828 28.1665 20.0828 28.1665L9.3697 28.4906C9.3697 28.4906 8.01377 27.9745 7.35412 27.4225C6.21806 26.4624 4.98428 24.8783 4.32463 24.0502C4.1414 23.8222 3.93373 23.1381 3.73828 22.238L25.018 19.4778Z" fill="#AFA09A"/>
<path d="M6.37695 24.9622C7.0366 26.4383 9.89507 29.0665 7.48858 25.3342C7.25648 24.9982 6.75564 25.1662 6.37695 24.9622Z" fill="#845B41"/>
<path d="M22.3177 24.9623C22.1101 25.8504 21.4015 27.1465 20.4609 27.3265C21.1328 25.1663 22.5254 24.5903 22.3177 24.9623Z" fill="#845B41"/>
<path d="M27.2289 39.5316C25.9218 38.6075 20.9012 37.2754 19.0199 36.1833C17.1387 35.0912 17.2975 30.9749 17.2975 30.9749H14.4879H11.6783C11.6783 30.9749 11.8371 35.0912 9.95592 36.1833C8.07471 37.2754 3.05407 38.6075 1.74699 39.5316C0.439913 40.4557 -0.183086 41.9438 0.0245802 46.0002H14.4879H28.9513C29.159 41.9438 28.536 40.4557 27.2289 39.5316Z" fill="#DDAE7E"/>
<path d="M7.65904 24.1462C7.65904 24.1462 7.62239 24.1822 7.56131 24.2302C7.50023 24.2902 7.41472 24.3742 7.30478 24.4822C7.19484 24.5902 7.07268 24.7343 6.9261 24.9023C6.79172 25.0703 6.64514 25.2623 6.51076 25.4903C6.37639 25.7183 6.24202 25.9704 6.14429 26.2584C6.04657 26.5464 5.97327 26.8464 5.97327 27.1825C5.97327 27.2305 5.97327 27.2665 5.97327 27.3025C5.97327 27.3385 5.98549 27.3745 5.98549 27.4105C5.99771 27.4825 6.02214 27.5665 6.05878 27.6265C6.13208 27.7705 6.25423 27.8785 6.40082 27.9625C6.54741 28.0465 6.71843 28.0946 6.87723 28.1066C6.96274 28.1066 7.04825 28.1066 7.13376 28.0946C7.17041 28.0826 7.20706 28.0706 7.21927 28.0586C7.23149 28.0465 7.21927 28.0465 7.21927 28.0465C7.21927 28.0465 7.21927 28.0345 7.20706 28.0225C7.15819 27.9745 7.07268 27.9385 7.01161 27.9385C6.9261 27.9385 6.84059 27.9625 6.76729 27.9865C6.60849 28.0465 6.44969 28.1306 6.31531 28.2386C6.18094 28.3466 6.071 28.4906 6.04657 28.6466C6.03435 28.6826 6.03435 28.7306 6.03435 28.7666C6.03435 28.8146 6.04657 28.8506 6.04657 28.8866C6.071 28.9586 6.10765 29.0306 6.15651 29.1026C6.25423 29.2347 6.38861 29.3307 6.51076 29.4387C6.64514 29.5347 6.76729 29.6307 6.88945 29.7267C7.01161 29.8227 7.12155 29.9307 7.19484 30.0627C7.23149 30.1347 7.2437 30.2067 7.2437 30.2787C7.23149 30.3508 7.20706 30.4228 7.18263 30.4828C7.07268 30.7348 6.90166 30.9148 6.77951 31.1068C6.65735 31.2868 6.58406 31.4668 6.57184 31.6229C6.55963 31.7789 6.58406 31.8989 6.59627 31.9829C6.60849 32.0189 6.6207 32.0549 6.6207 32.0789C6.60849 32.0549 6.60849 32.0309 6.59627 31.9829C6.57184 31.8989 6.54741 31.7789 6.55963 31.6229C6.57184 31.4668 6.64514 31.2868 6.76729 31.0948C6.87723 30.9148 7.04825 30.7228 7.15819 30.4708C7.18262 30.4108 7.20706 30.3387 7.20706 30.2787C7.20706 30.2067 7.19484 30.1467 7.15819 30.0867C7.09712 29.9667 6.97496 29.8587 6.8528 29.7747C6.73065 29.6787 6.59627 29.5947 6.4619 29.4987C6.32753 29.4027 6.19316 29.2947 6.08321 29.1626C5.97327 29.0306 5.89998 28.8386 5.94884 28.6586C5.98549 28.4786 6.10765 28.3226 6.24202 28.2026C6.37639 28.0826 6.54741 27.9865 6.71843 27.9145C6.80394 27.8785 6.90166 27.8545 6.99939 27.8545C7.10933 27.8545 7.20706 27.8785 7.29257 27.9625C7.317 27.9865 7.32921 28.0105 7.34143 28.0465C7.35364 28.0826 7.32921 28.1306 7.30478 28.1546C7.25592 28.2026 7.20706 28.2146 7.15819 28.2386C7.06047 28.2626 6.96274 28.2626 6.86502 28.2626C6.66957 28.2506 6.48633 28.2026 6.31531 28.1066C6.14429 28.0225 5.99771 27.8785 5.9122 27.7225C5.86333 27.6385 5.8389 27.5545 5.81447 27.4585C5.80225 27.4105 5.80225 27.3625 5.79004 27.3145C5.79004 27.2785 5.79004 27.2305 5.79004 27.1825C5.79004 26.8344 5.85112 26.5104 5.94884 26.2104C6.04657 25.9104 6.18094 25.6463 6.31531 25.4063C6.44969 25.1663 6.59627 24.9623 6.74286 24.7823C6.87723 24.6022 7.01161 24.4582 7.12155 24.3502C7.23149 24.2302 7.317 24.1462 7.37808 24.0862C7.43915 24.0262 7.4758 24.0022 7.4758 24.0022L7.65904 24.1462Z" fill="#845B41"/>
<path d="M23.5639 22.586C23.3807 24.1222 22.0981 25.3823 21.4384 25.3823C20.7788 25.3823 21.1697 24.1342 21.1697 22.586C21.1697 21.0379 22.1469 19.7898 22.8066 19.7898C23.4662 19.7898 23.7594 20.9779 23.5639 22.586Z" fill="#E7BD90"/>
<path d="M23.5642 22.1781C23.381 23.7142 22.0983 24.9743 21.4387 24.9743C21.1822 24.9743 21.0844 24.7823 21.06 24.4583C21.0356 25.0223 21.0844 25.3823 21.4387 25.3823C22.0983 25.3823 23.381 24.1222 23.5642 22.5861C23.6131 22.1781 23.6253 21.794 23.6131 21.458C23.6131 21.686 23.6009 21.926 23.5642 22.1781Z" fill="#DDAE7E"/>
<path d="M5.11824 22.586C5.30148 24.1222 6.58412 25.3823 7.24377 25.3823C7.90342 25.3823 7.51252 24.1342 7.51252 22.586C7.51252 21.0379 6.53526 19.7898 5.87562 19.7898C5.21597 19.7898 4.92279 20.9779 5.11824 22.586Z" fill="#E7BD90"/>
<path d="M5.1187 22.1781C5.30193 23.7142 6.58458 24.9743 7.24423 24.9743C7.50075 24.9743 7.59848 24.7823 7.62291 24.4583C7.64734 25.0223 7.59848 25.3823 7.24423 25.3823C6.58458 25.3823 5.30193 24.1222 5.1187 22.5861C5.06984 22.1781 5.05762 21.794 5.06984 21.458C5.06984 21.686 5.08205 21.926 5.1187 22.1781Z" fill="#DDAE7E"/>
<path d="M14.4753 32.6909C18.8065 32.6909 22.3177 27.8767 22.3177 21.938C22.3177 15.9993 18.8065 11.1851 14.4753 11.1851C10.144 11.1851 6.63281 15.9993 6.63281 21.938C6.63281 27.8767 10.144 32.6909 14.4753 32.6909Z" fill="#E7BD90"/>
<path d="M14.4758 32.3308C12.1792 32.3308 6.70659 27.3864 6.64551 21.5059C6.64551 21.6499 6.64551 21.7939 6.64551 21.9499C6.64551 27.8904 12.5335 32.7028 14.488 32.7028C16.4425 32.7028 22.3304 27.8904 22.3304 21.9499C22.3304 21.8059 22.3304 21.6499 22.3304 21.5059C22.2449 27.3864 16.7112 32.3308 14.4758 32.3308Z" fill="#DDAE7E"/>
<path d="M28.9518 46C29.1472 42.2917 28.6342 40.7316 27.5347 39.7835C24.5053 39.3755 16.8094 38.3434 16.2841 38.4874C15.6245 38.6674 15.1114 39.4355 14.5128 39.4355C13.9021 39.4355 13.4501 38.6194 12.7904 38.4874C12.1308 38.3554 2.57813 39.0994 2.57813 39.0994C2.2361 39.2554 1.95514 39.3995 1.75968 39.5435C0.452608 40.4675 -0.170391 41.9557 0.0372755 46.012H14.5006H28.9518V46Z" fill="#E7BD90"/>
<path d="M4.36106 44.2478L4.05566 46H5.05735L4.36106 44.2478Z" fill="#DDAE7E"/>
<path d="M24.5898 44.2478L24.8952 46H23.8936L24.5898 44.2478Z" fill="#DDAE7E"/>
<path d="M4.36133 44.2479C4.36133 44.2479 5.93715 43.7318 14.5003 45.268C14.5003 45.268 19.0323 44.1879 24.6027 44.2479V45.988H4.36133V44.2479Z" fill="#F4E5D4"/>
<path d="M22.4765 20.8218C22.4765 20.8218 22.501 21.8059 22.3177 22.514C22.3177 22.514 21.878 21.7939 21.8291 19.8137L22.4765 20.8218Z" fill="#845B41"/>
<path d="M6.33984 21.4938C6.33984 21.4938 6.49865 22.5739 6.73074 23.1859C6.73074 23.1859 7.19494 21.5538 6.93841 19.2976L6.33984 21.4938Z" fill="#845B41"/>
<path d="M17.5907 13.4891C20.4491 15.1333 19.7895 20.8218 22.6235 20.8218C22.4158 20.6657 19.1176 10.7409 17.9938 11.881C17.8228 12.193 17.4441 13.4051 17.5907 13.4891Z" fill="#845B41"/>
<path d="M21.5487 20.8099C21.5487 20.8099 20.4738 20.0659 20.1806 18.6377C19.9485 17.5456 19.2278 15.9615 18.6781 15.0134C18.3971 15.6255 17.9573 16.1415 17.2732 16.3095C15.1722 16.8616 11.6052 17.0296 10.9333 17.9897C10.2615 18.9498 10.6157 19.2978 10.6157 19.2978C10.6157 19.2978 9.38193 19.2978 9.11318 18.7698C9.11318 18.7698 8.51461 20.8819 6.99987 21.314C6.62119 27.0865 12.1793 32.0789 14.4759 32.0789C16.9556 32.0789 21.6098 27.0985 21.9885 22.3461C21.8053 21.998 21.622 21.506 21.5487 20.8099Z" fill="#FFF6E9"/>
<path d="M18.6906 12.709C17.2614 17.6895 10.3961 11.3889 6.73145 21.5778C7.04905 16.4774 12.0453 11.4609 16.6139 11.4609C17.0048 11.4609 17.4079 11.4969 17.8233 11.5809C18.1287 11.629 18.5806 12.349 18.6906 12.709Z" fill="#845B41"/>
<path d="M4.18995 23.7862C4.18995 23.7862 6.01009 22.7421 7.08507 19.9699C8.16005 17.1976 11.6904 11.7251 17.4684 12.1452C17.4684 12.1452 18.9587 13.5013 19.8993 15.4815C20.8399 17.4616 21.6339 22.7421 24.8833 20.7979L24.9199 20.4859C24.358 18.7578 21.072 9.64896 17.9326 9.58896C14.4511 9.51695 10.4322 10.273 8.84412 11.4731C6.84075 12.9612 1.85676 17.8337 4.18995 23.7862Z" fill="#F4E5D4"/>
<path d="M12.6921 18.2295C12.8386 18.7216 11.4705 18.6496 10.0901 18.8176C8.70974 18.9856 7.63477 19.5376 7.63477 19.5376C7.63477 19.5376 8.78304 18.4695 10.1634 18.3015C11.556 18.1215 12.6432 18.0495 12.6921 18.2295Z" fill="#845B41"/>
<path d="M13.4882 22.6822C13.8839 21.1466 12.9375 19.5866 11.3744 19.1978C9.81137 18.8091 8.22347 19.7388 7.82778 21.2745C7.4321 22.8101 8.37846 24.3701 9.94154 24.7588C11.5046 25.1475 13.0925 24.2178 13.4882 22.6822Z" fill="#F4E5D4"/>
<path d="M9.65096 16.7896C9.55323 16.8136 9.50437 16.8976 9.46772 16.9456C8.71035 18.4337 8.52711 20.5099 6.78027 21.0979C7.51321 19.5258 8.00184 17.6056 9.65096 16.7896Z" fill="#845B41"/>
<path d="M18.2502 13.8132C17.9693 15.9134 8.69759 16.4175 9.71149 18.5896C9.77257 18.7097 10.0657 18.9377 10.0657 18.9377C10.0657 18.9377 8.92969 18.9497 8.92969 17.7616C8.92969 14.5693 14.3657 15.3374 17.4562 13.9452C17.6517 13.8492 18.0426 13.8852 18.2502 13.8132Z" fill="#845B41"/>
<path d="M18.2991 13.9571C17.7738 16.7054 14.8665 15.6973 11.043 16.9934C13.3762 15.3253 17.9204 16.3694 18.1403 13.9211C18.1769 13.9211 18.2136 13.9691 18.238 13.9691C18.2624 13.9811 18.2869 13.9331 18.2991 13.9571Z" fill="#845B41"/>
<g opacity="0.2">
<path d="M18.1528 13.5132C17.4076 15.6854 10.1148 15.5654 9.28418 17.9896C9.16202 14.6173 14.7935 15.0133 18.1528 13.5132Z" fill="#845B41"/>
</g>
<path opacity="0.2" d="M10.5303 15.5293C11.5075 14.6052 17.7253 13.8851 17.8963 13.1531C14.9401 14.1732 12.7657 13.6091 10.5303 15.5293Z" fill="#845B41"/>
<path d="M17.9326 9.57675C14.4511 9.50474 10.4322 10.2608 8.84412 11.4609C6.84075 12.961 1.85676 17.8335 4.18995 23.786C4.18995 23.786 6.01009 22.7419 7.08507 19.9697C8.16005 17.1974 11.6904 11.7249 17.4684 12.145C17.4684 12.145 18.9587 13.5011 19.8993 15.4813C20.8399 17.4614 21.6339 22.7419 24.8833 20.7977L24.9199 20.4857C24.4191 18.9256 21.1209 9.63675 17.9326 9.57675Z" fill="#F4E5D4"/>
<path opacity="0.2" d="M8.92944 17.4375C8.6607 18.5776 8.00105 19.5737 7.20703 20.4138C7.74452 19.4057 8.06213 18.2296 8.92944 17.4375Z" fill="#845B41"/>
<path d="M13.9138 10.0328C15.3309 9.72079 16.7112 9.39676 17.8962 9.07273C17.8962 9.07273 17.7251 7.16457 13.8894 6.68452C11.9105 6.4325 8.06253 6.99655 5.57054 6.46851L5.59497 6.50451C5.59497 6.50451 2.94417 8.7247 2.52883 9.57678C2.5044 9.63678 2.49219 9.70879 2.49219 9.79279C3.65268 9.99681 8.78326 10.7889 13.9138 10.0328Z" fill="#F4E5D4"/>
<path d="M7.48797 17.9896C10.8961 10.981 16.7475 11.797 16.7475 11.797C18.1523 10.4769 17.9079 9.06079 17.9079 9.06079C16.723 9.38482 15.3426 9.70885 13.9256 10.0209C9.60128 10.981 4.8616 11.809 3.79884 12.001C3.83549 12.0491 3.85992 12.0731 3.85992 12.0731C3.85992 12.0731 3.34686 13.1651 2.99261 15.1693C2.78494 16.3574 3.39572 21.0978 3.98208 23.162C6.15646 21.8779 7.48797 17.9896 7.48797 17.9896Z" fill="#F4E5D4"/>
<path d="M21.4631 12.085C22.6847 12.565 24.0772 13.2731 25.2866 14.3052C25.2744 13.5731 25.2255 12.9371 25.1156 12.505C24.6147 10.4768 22.3304 6.24048 22.3304 6.24048C22.3304 6.24048 20.8645 7.93263 18.6901 8.85671C18.6901 8.97672 18.7023 9.64877 18.6901 9.37275C18.6901 9.37275 20.5469 9.16873 22.1594 9.9248C22.1594 9.9248 19.5697 9.20474 18.5924 9.9608C18.5924 9.9608 19.6552 10.3088 19.9361 10.6089L18.4702 10.4648C18.4702 10.4648 19.875 11.4369 20.4003 12.409C20.4003 12.409 19.1421 10.9929 18.2626 11.0169C18.2626 11.0169 17.8961 11.809 17.7373 11.989C20.1071 12.8411 21.3531 17.7495 22.0006 19.3096C22.6847 20.9778 24.3704 20.6537 24.9323 20.4857C25.0178 19.6576 25.2622 17.3054 25.2988 15.2773C23.8574 13.6691 22.5503 12.685 21.4631 12.085Z" fill="#F4E5D4"/>
<path d="M20.9256 2.53223C19.8872 1.59615 18.4824 0.636065 17.0288 0.192026C15.3674 -0.312018 11.5928 0.720072 8.62437 2.02819C9.69935 2.64024 13.5229 3.3003 13.4007 3.3963C13.2908 3.48031 9.06414 2.84426 7.42724 2.59223C6.12016 3.26429 5.09404 3.96035 4.67871 4.5484C8.20904 5.43648 14.2924 4.90844 17.2731 6.8406C17.7373 6.27655 18.287 5.18446 18.287 5.18446C18.2137 5.96453 17.7861 6.69659 17.554 7.03262C17.5785 7.05662 17.6029 7.06862 17.6273 7.09263C18.2503 6.64859 19.1665 5.88052 19.1665 5.88052C18.9833 6.48057 18.2259 7.06862 17.8716 7.29664C17.8961 7.30864 17.9083 7.33265 17.9205 7.34465C18.9955 6.98462 21.0966 5.38848 21.0966 5.38848C20.8278 6.28856 19.0566 7.30864 18.2748 7.72868C18.3603 7.84869 18.4458 7.9687 18.5313 8.08871C21.573 7.15263 24.1261 5.18446 20.9256 2.53223Z" fill="#F4E5D4"/>
<path d="M13.2422 24.6262C14.0118 25.0463 15.0623 25.0463 15.722 24.6262C15.722 24.6262 14.5615 26.5224 13.2422 24.6262Z" fill="#DDB897"/>
<path d="M13.3643 29.9186H15.4898C15.4898 29.9186 15.0012 29.2466 14.4392 29.2466C13.8895 29.2466 13.3643 29.9186 13.3643 29.9186Z" fill="#F4E5D4"/>
<path d="M21.3569 22.4377C21.6171 20.8744 20.5381 19.3998 18.9468 19.1441C17.3555 18.8884 15.8545 19.9485 15.5943 21.5119C15.334 23.0752 16.413 24.5498 18.0043 24.8055C19.5956 25.0611 21.0966 24.0011 21.3569 22.4377Z" fill="#F4E5D4"/>
<path opacity="0.6" d="M4.34918 12.4452C3.61624 12.6852 3.22534 15.3974 3.57959 15.2414C3.94606 15.0854 13.4621 11.137 13.2788 10.861C13.0956 10.573 4.76451 12.3731 4.34918 12.4452Z" fill="#FFF6E9"/>
<path opacity="0.6" d="M3.22461 9.34874C3.49335 8.62868 3.96977 8.36465 4.67827 7.93262C4.67827 7.93262 9.79664 9.24073 9.90658 9.56476C10.0165 9.91279 5.10582 9.86479 3.22461 9.34874Z" fill="#FFF6E9"/>
<path d="M16.2465 18.2536C16.1122 18.7577 17.4681 18.6617 18.8485 18.8177C20.2288 18.9737 21.3038 19.5138 21.3038 19.5138C21.3038 19.5138 20.1433 18.4577 18.763 18.3016C17.3826 18.1456 16.2954 18.0856 16.2465 18.2536Z" fill="#845B41"/>
<path d="M18.4703 24.4462C20.0827 24.4462 21.3899 23.1621 21.3899 21.578C21.3899 19.9939 20.0827 18.7097 18.4703 18.7097C16.8579 18.7097 15.5508 19.9939 15.5508 21.578C15.5508 23.1621 16.8579 24.4462 18.4703 24.4462Z" fill="#E5F9C5"/>
<path d="M18.4703 18.7097C16.8579 18.7097 15.5508 19.9938 15.5508 21.578C15.5508 23.1621 16.8579 24.4462 18.4703 24.4462C20.0828 24.4462 21.3899 23.1621 21.3899 21.578C21.3899 19.9938 20.0828 18.7097 18.4703 18.7097ZM18.4703 24.2422C16.9312 24.2422 15.6974 23.0181 15.6974 21.518C15.6974 20.0058 16.9434 18.7937 18.4703 18.7937C20.0095 18.7937 21.2433 20.0178 21.2433 21.518C21.2433 23.0301 20.0095 24.2422 18.4703 24.2422Z" fill="#AECC80"/>
<path d="M18.4698 19.1179C18.4967 19.1179 18.5186 19.0695 18.5186 19.0099C18.5186 18.9502 18.4967 18.9019 18.4698 18.9019C18.4428 18.9019 18.4209 18.9502 18.4209 19.0099C18.4209 19.0695 18.4428 19.1179 18.4698 19.1179Z" fill="#AECC80"/>
<path d="M16.6627 19.7299C16.6994 19.7659 16.7238 19.8259 16.6994 19.8379C16.675 19.8499 16.6261 19.8379 16.5895 19.8019C16.5528 19.7659 16.5284 19.7059 16.5528 19.6939C16.565 19.6699 16.6139 19.6819 16.6627 19.7299Z" fill="#AECC80"/>
<path d="M15.856 21.53C15.9171 21.53 15.966 21.554 15.966 21.578C15.966 21.602 15.9171 21.626 15.856 21.626C15.795 21.626 15.7461 21.602 15.7461 21.578C15.7461 21.554 15.795 21.53 15.856 21.53Z" fill="#AECC80"/>
<path d="M16.5889 23.3662C16.6255 23.3302 16.6866 23.3062 16.6988 23.3302C16.7111 23.3542 16.6988 23.4022 16.6622 23.4382C16.6255 23.4742 16.5645 23.4982 16.5523 23.4742C16.5278 23.4502 16.54 23.4022 16.5889 23.3662Z" fill="#AECC80"/>
<path d="M18.4698 24.2663C18.4967 24.2663 18.5186 24.218 18.5186 24.1583C18.5186 24.0987 18.4967 24.0503 18.4698 24.0503C18.4428 24.0503 18.4209 24.0987 18.4209 24.1583C18.4209 24.218 18.4428 24.2663 18.4698 24.2663Z" fill="#AECC80"/>
<path d="M20.2906 23.4382C20.254 23.4022 20.2295 23.3422 20.254 23.3302C20.2784 23.3062 20.3273 23.3302 20.3639 23.3662C20.4006 23.4022 20.425 23.4622 20.4006 23.4742C20.3761 23.4862 20.3273 23.4742 20.2906 23.4382Z" fill="#AECC80"/>
<path d="M21.0963 21.626C21.157 21.626 21.2062 21.6045 21.2062 21.578C21.2062 21.5515 21.157 21.53 21.0963 21.53C21.0355 21.53 20.9863 21.5515 20.9863 21.578C20.9863 21.6045 21.0355 21.626 21.0963 21.626Z" fill="#AECC80"/>
<path d="M20.3639 19.802C20.3273 19.838 20.2662 19.862 20.254 19.838C20.2295 19.814 20.254 19.766 20.2906 19.73C20.3273 19.694 20.3883 19.67 20.4006 19.694C20.4128 19.718 20.4006 19.754 20.3639 19.802Z" fill="#AECC80"/>
<path d="M18.4707 22.9462C19.2398 22.9462 19.8633 22.3337 19.8633 21.5781C19.8633 20.8225 19.2398 20.21 18.4707 20.21C17.7016 20.21 17.0781 20.8225 17.0781 21.5781C17.0781 22.3337 17.7016 22.9462 18.4707 22.9462Z" fill="#F0FFD4"/>
<path d="M18.8374 20.606C18.8374 20.774 18.6664 21.314 18.4588 21.314C18.2511 21.314 18.0801 20.774 18.0801 20.606C18.0801 20.438 18.2511 20.2939 18.4588 20.2939C18.6664 20.2939 18.8374 20.438 18.8374 20.606Z" fill="#E5F9C5"/>
<path d="M17.6643 20.942C17.8354 20.99 18.2996 21.326 18.2385 21.518C18.1774 21.7101 17.6033 21.7101 17.4322 21.6621C17.2612 21.6141 17.1757 21.41 17.249 21.206C17.3101 21.002 17.4933 20.882 17.6643 20.942Z" fill="#E5F9C5"/>
<path d="M17.6158 22.142C17.7257 21.998 18.1777 21.662 18.3487 21.782C18.5197 21.902 18.3365 22.4421 18.2388 22.5741C18.1288 22.7181 17.909 22.7301 17.7379 22.6101C17.5669 22.4901 17.5058 22.2741 17.6158 22.142Z" fill="#E5F9C5"/>
<path d="M18.7635 22.5502C18.6535 22.4061 18.4825 21.8781 18.6535 21.7581C18.8245 21.6381 19.2887 21.9741 19.3865 22.1181C19.4964 22.2621 19.4353 22.4661 19.2643 22.5982C19.0933 22.7062 18.8612 22.6942 18.7635 22.5502Z" fill="#E5F9C5"/>
<path d="M19.5207 21.6142C19.3497 21.6622 18.7756 21.6742 18.7145 21.4702C18.6534 21.2662 19.1176 20.9421 19.2886 20.8941C19.4596 20.8461 19.6429 20.9541 19.7162 21.1581C19.7772 21.3502 19.6917 21.5542 19.5207 21.6142Z" fill="#E5F9C5"/>
<g opacity="0.3">
<path d="M18.6415 21.1819C18.7025 21.0499 18.7514 20.8819 18.7514 20.8099C18.7514 20.6779 18.617 20.5579 18.446 20.5579C18.275 20.5579 18.1406 20.6659 18.1406 20.8099C18.1406 20.8939 18.1895 21.0859 18.2628 21.2179C18.3116 21.2899 18.3727 21.3379 18.4338 21.3379C18.5193 21.3379 18.5926 21.2659 18.6415 21.1819Z" fill="#AECC80"/>
<path d="M18.0058 21.158C17.9325 21.11 17.8715 21.074 17.8348 21.062C17.7004 21.014 17.5539 21.11 17.505 21.266C17.4561 21.422 17.5172 21.578 17.6516 21.626C17.7371 21.65 17.9692 21.662 18.128 21.626C18.1769 21.602 18.2135 21.566 18.2257 21.53C18.2624 21.422 18.1402 21.278 18.0058 21.158Z" fill="#AECC80"/>
<path d="M18.3481 21.7939C18.2504 21.7219 18.0671 21.7939 17.9083 21.9019C17.8595 21.9379 17.8106 21.9859 17.7984 22.0099C17.7129 22.1179 17.7618 22.2859 17.8961 22.3819C18.0305 22.4779 18.2015 22.4659 18.287 22.3579C18.3359 22.2979 18.397 22.1419 18.4214 22.0099C18.4092 21.9139 18.397 21.8299 18.3481 21.7939Z" fill="#AECC80"/>
<path d="M18.6414 21.77C18.5681 21.818 18.5681 21.938 18.5803 22.058C18.6169 22.178 18.6536 22.2861 18.6902 22.3341C18.7757 22.4421 18.9467 22.4541 19.0811 22.3581C19.2155 22.2621 19.2644 22.094 19.1788 21.986C19.1422 21.95 19.0811 21.878 18.9956 21.818C18.8612 21.758 18.7146 21.71 18.6414 21.77Z" fill="#AECC80"/>
<path d="M19.1056 21.0379C19.0567 21.0499 18.959 21.1099 18.8735 21.1699C18.7635 21.2779 18.678 21.3859 18.7147 21.4819C18.7391 21.5419 18.788 21.5779 18.8735 21.6019C19.0323 21.6259 19.2155 21.6139 19.301 21.5899C19.4354 21.5419 19.4965 21.3859 19.4476 21.2299C19.3865 21.0859 19.2399 20.9899 19.1056 21.0379Z" fill="#AECC80"/>
</g>
<g opacity="0.5">
<path d="M21.121 20.366C21.2675 20.714 21.3531 21.086 21.3531 21.4821C21.3531 23.0662 20.046 24.3503 18.4335 24.3503C17.2608 24.3503 16.2591 23.6783 15.7949 22.7062C16.2347 23.7383 17.273 24.4583 18.4824 24.4583C20.0948 24.4583 21.4019 23.1742 21.4019 21.5901C21.4019 21.146 21.292 20.738 21.121 20.366Z" fill="#AECC80"/>
</g>
<path d="M10.652 24.4462C12.2644 24.4462 13.5715 23.1621 13.5715 21.578C13.5715 19.9939 12.2644 18.7097 10.652 18.7097C9.03955 18.7097 7.73242 19.9939 7.73242 21.578C7.73242 23.1621 9.03955 24.4462 10.652 24.4462Z" fill="#E5F9C5"/>
<path d="M10.652 18.7097C9.0395 18.7097 7.73242 19.9938 7.73242 21.578C7.73242 23.1621 9.0395 24.4462 10.652 24.4462C12.2644 24.4462 13.5715 23.1621 13.5715 21.578C13.5715 19.9938 12.2644 18.7097 10.652 18.7097ZM10.652 24.2422C9.11279 24.2422 7.87901 23.0181 7.87901 21.518C7.87901 20.0058 9.12501 18.7937 10.652 18.7937C12.1789 18.7937 13.4249 20.0178 13.4249 21.518C13.4371 23.0301 12.1911 24.2422 10.652 24.2422Z" fill="#AECC80"/>
<path d="M10.6514 19.1179C10.6784 19.1179 10.7003 19.0695 10.7003 19.0099C10.7003 18.9502 10.6784 18.9019 10.6514 18.9019C10.6244 18.9019 10.6025 18.9502 10.6025 19.0099C10.6025 19.0695 10.6244 19.1179 10.6514 19.1179Z" fill="#AECC80"/>
<path d="M8.84438 19.7299C8.88103 19.7659 8.90546 19.8259 8.88103 19.8379C8.8566 19.8619 8.80774 19.8379 8.77109 19.8019C8.73444 19.7659 8.71001 19.7059 8.73444 19.6939C8.75888 19.6819 8.79552 19.6819 8.84438 19.7299Z" fill="#AECC80"/>
<path d="M8.03768 21.53C8.09875 21.53 8.14762 21.554 8.14762 21.578C8.14762 21.602 8.09875 21.626 8.03768 21.626C7.9766 21.626 7.92773 21.602 7.92773 21.578C7.92773 21.554 7.9766 21.53 8.03768 21.53Z" fill="#AECC80"/>
<path d="M8.77097 23.3662C8.80762 23.3302 8.8687 23.3062 8.88091 23.3302C8.90534 23.3542 8.88091 23.4022 8.84427 23.4382C8.80762 23.4742 8.74654 23.4982 8.73433 23.4742C8.72211 23.4502 8.72211 23.4022 8.77097 23.3662Z" fill="#AECC80"/>
<path d="M10.6514 24.2663C10.6784 24.2663 10.7003 24.218 10.7003 24.1583C10.7003 24.0987 10.6784 24.0503 10.6514 24.0503C10.6244 24.0503 10.6025 24.0987 10.6025 24.1583C10.6025 24.218 10.6244 24.2663 10.6514 24.2663Z" fill="#AECC80"/>
<path d="M12.5875 23.4772C12.6066 23.4585 12.5872 23.4091 12.5443 23.3669C12.5014 23.3247 12.4511 23.3057 12.432 23.3245C12.4129 23.3432 12.4323 23.3926 12.4752 23.4348C12.5181 23.477 12.5684 23.4959 12.5875 23.4772Z" fill="#AECC80"/>
<path d="M13.2779 21.626C13.3386 21.626 13.3879 21.6045 13.3879 21.578C13.3879 21.5515 13.3386 21.53 13.2779 21.53C13.2172 21.53 13.168 21.5515 13.168 21.578C13.168 21.6045 13.2172 21.626 13.2779 21.626Z" fill="#AECC80"/>
<path d="M12.5452 19.802C12.5085 19.838 12.4475 19.862 12.4352 19.838C12.423 19.814 12.4352 19.766 12.4719 19.73C12.5085 19.694 12.5696 19.67 12.5818 19.694C12.6063 19.706 12.5818 19.754 12.5452 19.802Z" fill="#AECC80"/>
<path d="M10.6524 22.9462C11.4215 22.9462 12.0449 22.3337 12.0449 21.5781C12.0449 20.8225 11.4215 20.21 10.6524 20.21C9.88325 20.21 9.25977 20.8225 9.25977 21.5781C9.25977 22.3337 9.88325 22.9462 10.6524 22.9462Z" fill="#F0FFD4"/>
<path d="M11.0191 20.606C11.0191 20.774 10.8481 21.314 10.6404 21.314C10.4327 21.314 10.2617 20.774 10.2617 20.606C10.2617 20.438 10.4327 20.2939 10.6404 20.2939C10.8481 20.2939 11.0191 20.438 11.0191 20.606Z" fill="#E5F9C5"/>
<path d="M9.84598 20.942C10.017 20.99 10.4812 21.326 10.4201 21.518C10.359 21.7101 9.7849 21.7101 9.61388 21.6621C9.44287 21.6141 9.35736 21.41 9.43065 21.206C9.49173 21.002 9.67496 20.882 9.84598 20.942Z" fill="#E5F9C5"/>
<path d="M9.79688 22.142C9.90682 21.998 10.3588 21.662 10.5298 21.782C10.7008 21.902 10.5176 22.4421 10.4199 22.5741C10.3099 22.7181 10.0901 22.7301 9.91903 22.6101C9.74802 22.4901 9.69915 22.2741 9.79688 22.142Z" fill="#E5F9C5"/>
<path d="M10.9451 22.5502C10.8352 22.4061 10.6641 21.8781 10.8352 21.7581C11.0062 21.6381 11.4704 21.9741 11.5681 22.1181C11.678 22.2621 11.617 22.4661 11.4459 22.5982C11.2749 22.7062 11.055 22.6942 10.9451 22.5502Z" fill="#E5F9C5"/>
<path d="M11.7024 21.6142C11.5313 21.6622 10.9572 21.6742 10.8961 21.4702C10.835 21.2662 11.2992 20.9421 11.4703 20.8941C11.6413 20.8461 11.8245 20.9541 11.8978 21.1581C11.9589 21.3502 11.8734 21.5542 11.7024 21.6142Z" fill="#E5F9C5"/>
<g opacity="0.3">
<path d="M10.8231 21.1819C10.8842 21.0499 10.933 20.8819 10.933 20.8099C10.933 20.6779 10.7987 20.5579 10.6277 20.5579C10.4566 20.5579 10.3223 20.6659 10.3223 20.8099C10.3223 20.8939 10.3711 21.0859 10.4444 21.2179C10.4933 21.2899 10.5544 21.3379 10.6154 21.3379C10.701 21.3379 10.7742 21.2659 10.8231 21.1819Z" fill="#AECC80"/>
<path d="M10.1875 21.158C10.1142 21.11 10.0531 21.074 10.0165 21.062C9.88209 21.014 9.7355 21.11 9.68664 21.266C9.63777 21.422 9.69885 21.578 9.83322 21.626C9.91873 21.65 10.1508 21.662 10.3096 21.626C10.3585 21.602 10.3951 21.566 10.4074 21.53C10.444 21.422 10.3341 21.278 10.1875 21.158Z" fill="#AECC80"/>
<path d="M10.5297 21.7939C10.432 21.7219 10.2488 21.7939 10.09 21.9019C10.0411 21.9379 9.99226 21.9859 9.98004 22.0099C9.89453 22.1179 9.94339 22.2859 10.0778 22.3819C10.2121 22.4779 10.3832 22.4659 10.4687 22.3579C10.5175 22.2979 10.5786 22.1419 10.603 22.0099C10.5908 21.9139 10.5786 21.8299 10.5297 21.7939Z" fill="#AECC80"/>
<path d="M10.823 21.77C10.7497 21.818 10.7497 21.938 10.7619 22.058C10.7986 22.178 10.8352 22.2861 10.8719 22.3341C10.9574 22.4421 11.1284 22.4541 11.2628 22.3581C11.3971 22.2621 11.446 22.094 11.3605 21.986C11.3238 21.95 11.2628 21.878 11.1772 21.818C11.0429 21.758 10.8963 21.71 10.823 21.77Z" fill="#AECC80"/>
<path d="M11.2872 21.0379C11.2383 21.0499 11.1406 21.1099 11.0551 21.1699C10.9452 21.2779 10.8597 21.3859 10.8963 21.4819C10.9207 21.5419 10.9696 21.5779 11.0551 21.6019C11.2139 21.6259 11.3971 21.6139 11.4827 21.5899C11.617 21.5419 11.6781 21.3859 11.6292 21.2299C11.5682 21.0859 11.4216 20.9899 11.2872 21.0379Z" fill="#AECC80"/>
</g>
<g opacity="0.5">
<path d="M13.3026 20.366C13.4492 20.714 13.5347 21.086 13.5347 21.4821C13.5347 23.0662 12.2276 24.3503 10.6151 24.3503C9.44244 24.3503 8.44076 23.6783 7.97656 22.7062C8.41633 23.7383 9.45466 24.4583 10.664 24.4583C12.2765 24.4583 13.5836 23.1742 13.5836 21.5901C13.5836 21.146 13.4736 20.738 13.3026 20.366Z" fill="#AECC80"/>
</g>
<path opacity="0.6" d="M10.4203 1.60819C10.4203 1.60819 14.1216 0.0720593 16.1494 0.31208C16.6991 0.444092 16.0395 2.95231 15.2332 3.20433C14.427 3.45635 9.7484 1.88422 10.4203 1.60819Z" fill="#FFF6E9"/>
<path d="M22.4766 20.8218C22.4766 20.8218 22.4888 21.1938 22.4521 21.6378C22.782 21.8539 23.1729 21.9499 23.6126 21.8779C23.6249 21.6378 23.6249 21.4218 23.6126 21.2058C23.1851 21.2178 22.8064 21.0738 22.4766 20.8218Z" fill="#DDAE7E"/>
<path d="M6.34018 21.494L6.35239 21.458C5.96149 22.1061 5.54616 22.6101 5.17969 22.9701C5.21633 23.1262 5.2652 23.2822 5.32628 23.4382C5.36292 23.4502 5.38735 23.4502 5.424 23.4622C5.74161 23.1382 6.10808 22.7181 6.46233 22.1661C6.38904 21.794 6.34018 21.494 6.34018 21.494Z" fill="#DDAE7E"/>
<path d="M17.0529 27.3863C16.3688 27.2783 15.4648 26.9783 15.2083 26.9423C14.9518 26.8943 14.6953 27.0383 14.4998 27.0743C14.3654 27.0983 14.3044 27.0023 13.9745 26.9543C13.6325 26.9063 13.0706 27.1583 11.9223 27.3623C11.8368 27.3743 11.8001 27.3263 11.9345 27.4224C12.5575 27.8664 12.9362 29.0065 14.4387 29.0065C16.0756 29.0065 16.1001 27.9624 17.1384 27.3984C17.2728 27.3263 17.3216 27.3984 17.0529 27.3863Z" fill="#ED8383"/>
<path d="M17.5046 27.0502L17.8344 27.4103V27.4223H17.8222L17.4191 27.1222C17.3947 27.0982 17.3824 27.0622 17.4069 27.0502C17.4313 27.0262 17.468 27.0262 17.5046 27.0502Z" fill="#A53F3F"/>
<path d="M11.5437 27.1463L11.2139 27.3983C11.2017 27.3983 11.2017 27.3983 11.1895 27.3983V27.3863L11.4704 27.0983C11.4826 27.0743 11.5193 27.0743 11.5437 27.0863C11.5681 27.0983 11.5681 27.1223 11.5437 27.1463Z" fill="#A53F3F"/>
<path opacity="0.5" d="M14.5245 28.2625C14.9886 28.2625 15.3429 28.2865 15.3918 28.3945C15.4651 28.5385 15.1108 28.7905 14.5245 28.7905C13.8526 28.7905 13.4739 28.6345 13.5228 28.4065C13.5472 28.2865 14.329 28.2625 14.5245 28.2625Z" fill="#ED8383"/>
<path opacity="0.5" d="M13.9259 27.0144C14.0236 27.0144 14.2679 27.0744 14.2801 27.1464C14.2923 27.3384 13.7426 27.3984 13.535 27.4104C12.8753 27.4464 13.7548 27.0264 13.9259 27.0144Z" fill="#ED8383"/>
<path d="M12.6191 27.5183C12.6191 27.5183 13.5109 28.1304 14.4148 28.1304C15.3188 28.1304 16.1617 27.5903 16.1617 27.5903L15.331 27.5783L14.4148 27.7703L13.633 27.6023L12.6191 27.5183Z" fill="#FFEEEE"/>
<path opacity="0.5" d="M14.6221 27.1943C14.6221 27.2303 14.6587 27.2663 14.7198 27.2663C14.8786 27.2663 15.0618 27.0623 15.0252 27.0143C14.9885 26.9783 14.6221 27.0743 14.6221 27.1943Z" fill="#ED8383"/>
<path d="M15.3427 27.5783L14.4266 27.7703L13.6448 27.6023L12.6309 27.5183C12.6309 27.5183 12.753 27.6023 12.9485 27.6983H12.9607C12.9607 27.6983 13.5837 27.6863 13.7058 27.7343C13.8402 27.7823 14.28 27.8903 14.4754 27.8903C14.6709 27.8903 15.1961 27.7583 15.355 27.7343C15.4527 27.7223 15.6726 27.7583 15.8802 27.7343C16.0635 27.6383 16.1734 27.5663 16.1734 27.5663L15.3427 27.5783Z" fill="#E5BDD3"/>
<path d="M12.6308 27.5063C12.6308 27.5063 12.8262 27.6384 13.1438 27.7704C13.3026 27.8424 13.4858 27.9144 13.6935 27.9744C13.7912 27.9984 13.9012 28.0344 14.0233 28.0464C14.1333 28.0704 14.2432 28.0824 14.3654 28.0824C14.3898 28.0824 14.4265 28.0824 14.4509 28.0824H14.5364C14.5975 28.0824 14.6463 28.0704 14.7074 28.0704C14.7685 28.0704 14.8174 28.0584 14.8784 28.0464C14.9273 28.0344 14.9884 28.0224 15.0372 28.0224C15.0861 28.0104 15.135 27.9984 15.196 27.9864C15.2449 27.9744 15.2938 27.9624 15.3426 27.9504C15.4404 27.9264 15.5259 27.8904 15.6114 27.8544C15.6969 27.8184 15.758 27.7944 15.8313 27.7584C15.8923 27.7344 15.9534 27.6984 15.9901 27.6744C16.0756 27.6264 16.1244 27.6024 16.1244 27.6024C16.1366 27.6024 16.1366 27.6024 16.1489 27.6024C16.1489 27.6144 16.1489 27.6144 16.1489 27.6264C16.1489 27.6264 16.1 27.6624 16.0145 27.7224C15.929 27.7704 15.7946 27.8544 15.6358 27.9144C15.5503 27.9504 15.4648 27.9864 15.3671 28.0224C15.2693 28.0464 15.1716 28.0944 15.0617 28.1064C15.0006 28.1184 14.9517 28.1304 14.8907 28.1424C14.8296 28.1544 14.7807 28.1664 14.7196 28.1664C14.6586 28.1664 14.6097 28.1784 14.5486 28.1784L14.4631 28.1904C14.4265 28.1904 14.402 28.1904 14.3654 28.1904C14.2432 28.1904 14.1333 28.1784 14.0111 28.1544C13.9012 28.1304 13.779 28.1064 13.6813 28.0824C13.5714 28.0584 13.4736 28.0104 13.3759 27.9744C13.2782 27.9384 13.1927 27.9024 13.1194 27.8544C12.9606 27.7824 12.8384 27.6984 12.7529 27.6504C12.6674 27.5904 12.6185 27.5544 12.6185 27.5544C12.6063 27.5544 12.6063 27.5424 12.6185 27.5303C12.6185 27.5063 12.6308 27.5063 12.6308 27.5063Z" fill="#BF5252"/>
<path d="M11.5191 27.1343C11.5191 27.1343 11.5313 27.1583 11.568 27.1823C11.6046 27.2063 11.6535 27.2423 11.7268 27.2783C11.8734 27.3503 12.1055 27.4103 12.3986 27.4463C12.5452 27.4703 12.704 27.4823 12.8628 27.4943C13.0339 27.5063 13.2049 27.5063 13.3881 27.5183C13.4736 27.5183 13.5714 27.5303 13.6691 27.5423C13.7668 27.5543 13.8645 27.5784 13.95 27.6024C14.0478 27.6264 14.1333 27.6504 14.231 27.6744C14.3165 27.6984 14.4142 27.7224 14.4997 27.7104C14.683 27.6864 14.8662 27.6144 15.0617 27.5784C15.1594 27.5664 15.2571 27.5423 15.3548 27.5423C15.4526 27.5423 15.5381 27.5544 15.6358 27.5544C15.9901 27.5664 16.3321 27.5543 16.6253 27.5063C16.7719 27.4823 16.894 27.4583 17.004 27.4103C17.065 27.3983 17.1139 27.3743 17.1628 27.3503C17.2116 27.3383 17.2483 27.3143 17.2849 27.2903C17.3582 27.2543 17.4193 27.2183 17.4559 27.1943C17.4926 27.1703 17.517 27.1583 17.517 27.1583C17.5414 27.1343 17.5903 27.1343 17.6147 27.1703C17.6392 27.1943 17.6392 27.2423 17.6025 27.2663C17.5903 27.2783 17.5903 27.2783 17.5781 27.2783C17.5781 27.2783 17.5537 27.2903 17.5048 27.3023C17.4559 27.3143 17.3949 27.3383 17.3216 27.3743C17.2361 27.4103 17.1383 27.4343 17.0284 27.4703C16.9184 27.5063 16.7841 27.5423 16.6375 27.5784C16.4909 27.6024 16.3443 27.6384 16.1733 27.6624C16.0023 27.6864 15.8313 27.6984 15.648 27.7104C15.5625 27.7104 15.4648 27.7104 15.3671 27.7104C15.2815 27.7104 15.196 27.7224 15.0983 27.7464C14.9151 27.7824 14.7318 27.8304 14.5242 27.8544C14.4142 27.8664 14.3165 27.8424 14.2188 27.8184C14.1211 27.7944 14.0355 27.7704 13.9378 27.7464C13.8401 27.7224 13.7546 27.6984 13.6691 27.6864C13.5836 27.6744 13.4858 27.6624 13.4003 27.6504C13.2171 27.6384 13.0461 27.6144 12.8751 27.5904C12.704 27.5663 12.5575 27.5423 12.4109 27.5183C12.1177 27.4703 11.8856 27.4103 11.7146 27.3503C11.6291 27.3263 11.568 27.3023 11.5191 27.2783C11.4825 27.2543 11.458 27.2423 11.458 27.2423C11.4214 27.2303 11.4092 27.1823 11.4336 27.1583C11.4458 27.1223 11.4947 27.1103 11.5191 27.1343Z" fill="#A53F3F"/>
</g>
<defs>
<clipPath id="clip0_249_4142">
<rect width="29" height="46" fill="white"/>
</clipPath>
</defs>
</svg>
