<svg width="46" height="46" viewBox="0 0 46 46" fill="none" xmlns="http://www.w3.org/2000/svg">
<g clip-path="url(#clip0_250_4259)">
<path d="M43.7463 32.9262C49.23 21.4685 44.3871 7.73476 32.9294 2.25106C21.4717 -3.23263 7.73799 1.61026 2.2543 13.068C-3.2294 24.5257 1.6135 38.2594 13.0712 43.7431C24.5289 49.2268 38.2626 44.3839 43.7463 32.9262Z" fill="#E8E8E8"/>
<path d="M9.32118 36.5376L9.36802 36.5845L9.32118 36.725L9.27433 36.6782C9.22749 36.6782 4.6837 34.3829 2.9505 29.1364V29.0896L2.99735 29.0427V29.0896C4.77739 34.2423 9.27433 36.5376 9.32118 36.5376ZM23.1399 40.0509H22.9994L22.9525 40.1446L22.9994 40.1914C22.9994 40.1914 22.9994 40.1914 23.0462 40.1914H23.0931C23.9831 40.1914 29.698 40.004 33.8202 35.7882L33.867 35.7413L33.7733 35.6476L33.7265 35.6945C29.6511 39.9572 23.8894 40.0977 23.1399 40.0509ZM7.86904 6.04274L7.91588 5.9959L7.82219 5.90221L7.77535 5.94906C3.23156 10.0713 2.2947 13.725 1.9668 16.114V16.1609H2.10733V16.114C2.43523 13.7719 3.32525 10.1181 7.86904 6.04274ZM11.8039 18.6436H11.8507V18.503H11.8039C9.97698 18.503 5.94847 19.6273 2.76313 21.2199L2.71629 21.2668L2.76313 21.4073L2.80997 21.3605C5.99531 19.7678 10.0238 18.6436 11.8039 18.6436ZM17.5656 25.1548H17.425L16.2071 34.7576V34.8045H16.3477L17.5656 25.2016V25.1548ZM16.4882 11.6171L16.6287 11.5702L14.2397 3.74743V3.70058L14.0992 3.74743L16.4413 11.5702L16.4882 11.6171ZM25.1073 21.7352L25.0605 21.8757L25.1073 21.9226C25.1542 21.9226 30.1195 24.2179 34.4291 28.1996L34.476 28.2464L34.5697 28.1527L34.5228 28.1059C30.1664 24.0774 25.201 21.8289 25.1542 21.782L25.1073 21.7352ZM24.6389 13.2566L24.5921 13.3034L24.6857 13.444L24.7326 13.3971C24.7794 13.3503 31.1501 9.22808 33.258 8.52543H33.3049L33.258 8.33806H33.2112C31.1033 9.08755 24.6857 13.2097 24.6389 13.2566ZM40.0503 13.444C41.924 19.0183 40.9872 23.0468 40.9403 23.0468V23.0937L41.0808 23.1405V23.0937C41.0808 23.0468 41.4088 21.6884 41.3151 19.393C41.2214 17.7535 40.9403 15.7393 40.1908 13.3971V13.3503L40.0503 13.3971V13.444ZM20.1419 0.702621H20.1888C27.4026 0.515248 31.9933 3.279 32.0401 3.32584L32.087 3.37268L32.1806 3.23215L32.1338 3.18531C32.087 3.13847 27.4963 0.374719 20.2356 0.562091H20.1419V0.702621ZM43.9851 29.0896C44.032 29.0896 44.5941 29.277 45.1094 29.3706C45.1094 29.3238 45.1562 29.277 45.1562 29.2301C44.6409 29.1364 44.032 28.9959 44.032 28.9491H43.9851L43.8914 29.0427L43.9851 29.0896ZM11.3354 42.8146C11.3823 42.8615 11.476 42.9083 11.5228 42.9083C12.0849 42.8146 12.5534 42.5804 12.5534 42.5336L12.6002 42.4867L12.5534 42.3462L12.5065 42.393C12.4597 42.4399 11.9444 42.7209 11.3354 42.8146ZM39.0198 37.6619C39.0198 37.6619 39.254 38.5051 39.3008 39.2546C39.3477 39.2077 39.3945 39.1609 39.4413 39.114C39.3477 38.4114 39.1603 37.7087 39.1603 37.6619V37.615L39.0198 37.6619ZM21.2193 44.5478C21.2193 44.5478 21.922 45.3442 22.9057 45.9531C22.9994 45.9531 23.0931 45.9531 23.1868 45.9531C22.0625 45.3442 21.313 44.4541 21.313 44.4541L21.2662 44.4073L21.1725 44.501L21.2193 44.5478Z" fill="#AFAFAF"/>
<path d="M23.8897 40.0976C23.4682 41.8777 22.2502 44.173 21.2665 44.5477C17.6596 44.9693 13.9121 43.4235 12.5069 42.5335C10.7737 41.3624 9.69626 38.7392 8.89993 36.4439C12.3663 36.3033 16.2543 34.8044 16.2543 34.8044C17.6128 36.9123 21.7818 39.4418 23.8897 40.0976ZM0.796056 28.9021C1.21764 29.2769 1.96714 29.6048 3.13822 29.4174C2.95084 27.8247 2.66978 24.2178 4.35614 20.564C3.5598 19.5335 2.43557 16.6292 2.24819 15.0365C1.92029 15.3176 1.4987 15.6923 1.07711 16.1139C0.280781 18.5966 -0.0939647 21.2667 0.0465649 24.0304C0.0934081 25.7168 0.374467 27.3563 0.796056 28.9021ZM32.8368 36.6781C32.8368 36.6781 37.1932 38.0365 38.739 37.7086C41.1749 37.2402 43.9855 29.7921 43.9386 28.9958C43.8918 28.1995 42.4865 25.4357 40.9875 23.0936C39.4885 24.5457 36.1158 26.7473 34.1016 27.731C34.2889 32.5559 32.8368 36.6781 32.8368 36.6781ZM33.3052 2.43573C32.5557 2.38889 31.6189 2.38889 30.6352 2.52941C31.1504 3.04469 32.4621 6.88583 32.7431 8.61903C35.2258 9.36852 39.1606 12.507 40.3317 14.0528C41.8775 12.9286 42.346 11.617 42.4396 10.727C40.238 7.21373 37.0527 4.3563 33.3052 2.43573ZM25.7166 12.6007C23.0466 11.617 17.7064 10.5396 16.1606 10.6333C14.3806 12.6475 11.2421 17.7066 11.3826 18.7372C11.3826 18.7372 13.7716 22.8594 17.3785 25.951C19.7675 25.061 26.2787 22.4378 26.2787 22.4378C26.2787 22.4378 26.3724 17.0976 25.7166 12.6007ZM7.58832 5.94897L7.54147 6.27687C7.54147 6.27687 11.1016 3.74734 14.4274 4.82473C16.1138 3.23206 18.6433 1.21781 21.2197 0.702531C20.8918 0.515158 20.6107 0.327785 20.3297 0.187256C15.458 0.749374 11.0079 2.81047 7.58832 5.94897Z" fill="#3D3D3D"/>
<path opacity="0.8" d="M16.0645 17.2108C20.0654 13.889 21.4198 8.92095 19.0896 6.11435C16.7594 3.30775 11.627 3.72538 7.6261 7.04716C3.62521 10.3689 2.27084 15.337 4.60104 18.1436C6.93124 20.9502 12.0636 20.5325 16.0645 17.2108Z" fill="white"/>
<g opacity="0.3">
<path d="M35.5537 3.74731C36.7247 5.33998 37.7085 7.12002 38.4111 9.08744C42.4865 20.283 36.7247 32.6964 25.5292 36.7718C16.4416 40.0976 6.55774 36.9123 0.983398 29.6047C1.12393 30.0263 1.26446 30.4479 1.40499 30.9164C5.7614 42.8614 18.9712 48.951 30.9162 44.5946C42.8612 40.2382 48.9508 27.0284 44.5944 15.0834C42.8144 10.2585 39.5822 6.37053 35.5537 3.74731ZM30.4009 43.7982C24.9671 45.7656 19.2522 45.5314 14.2869 43.4703C18.9712 44.7819 24.1239 44.6883 29.0893 42.9082C38.7858 39.3481 44.8286 30.2606 44.9223 20.564C45.9529 30.4479 40.1911 40.1913 30.4009 43.7982Z" fill="#494949"/>
</g>
</g>
<defs>
<clipPath id="clip0_250_4259">
<rect width="46" height="46" fill="white"/>
</clipPath>
</defs>
</svg>
