<svg width="41" height="42" viewBox="0 0 41 42" fill="none" xmlns="http://www.w3.org/2000/svg">
<g clip-path="url(#clip0_250_4656)">
<path d="M41.0002 15.6877H1.375V42.083H41.0002V15.6877Z" fill="#29816F"/>
<path d="M38.2721 -0.0266283L-0.00195312 10.4993L1.33748 15.6304L39.6115 5.10448L38.2721 -0.0266283Z" fill="#1B564A"/>
<path d="M27.5757 2.90503L20.5402 4.89712L16.8203 11.3714L23.9367 9.46234L27.5757 2.90503Z" fill="#FFC300"/>
<path d="M2.58789 15.3558L9.70426 13.3637L13.3433 6.8894L6.22694 8.7985L2.58789 15.3558Z" fill="#FFC300"/>
<path d="M39.2214 3.65217L38.2509 0L34.7736 0.996047L31.0537 7.47036L38.1701 5.56126L39.2214 3.65217Z" fill="#FFC300"/>
<path d="M41.0002 15.6877H1.375V21H41.0002V15.6877Z" fill="#1B564A"/>
<path d="M29.9212 21H22.5623L17.3867 15.6877H24.7457L29.9212 21Z" fill="#FFC300"/>
<path d="M2.66895 15.6877H9.94705L15.1226 21H7.84449L2.66895 15.6877Z" fill="#FFC300"/>
<path d="M41 17.1818V21H37.3609L32.1045 15.6877H39.4635L41 17.1818Z" fill="#FFC300"/>
<path d="M35.3397 25.9802H6.95508V26.8103H35.3397V25.9802Z" fill="#FFC300"/>
<path d="M35.3397 31.6245H6.95508V32.4546H35.3397V31.6245Z" fill="#FFC300"/>
<path d="M15.5265 32.0396H14.7178V39.5099H15.5265V32.0396Z" fill="#FFC300"/>
<path d="M27.5763 32.0396H26.7676V39.5099H27.5763V32.0396Z" fill="#FFC300"/>
<path d="M7.27854 18.3439C7.92548 19.0909 7.68288 19.755 6.6316 19.755H3.23515C2.26473 19.755 1.45605 18.9249 1.45605 17.9289V13.2807C1.45605 12.2846 2.02213 12.0356 2.66907 12.8656L7.27854 18.3439Z" fill="#36AC94"/>
<path d="M2.02246 18.51C2.02246 18.178 2.26506 17.929 2.58854 17.929C2.91201 17.929 3.15461 18.178 3.15461 18.51C3.15461 18.842 2.91201 19.091 2.58854 19.091C2.26506 19.091 2.02246 18.842 2.02246 18.51Z" fill="#FFBFA2"/>
<path d="M2.02246 14.2768C2.02246 13.9448 2.26506 13.6958 2.58854 13.6958C2.91201 13.6958 3.15461 13.9448 3.15461 14.2768C3.15461 14.6088 2.91201 14.8579 2.58854 14.8579C2.26506 14.8579 2.02246 14.6088 2.02246 14.2768Z" fill="#FFBFA2"/>
<path d="M5.25684 18.51C5.25684 18.178 5.49944 17.929 5.82291 17.929C6.14638 17.929 6.38899 18.178 6.38899 18.51C6.46985 18.842 6.14638 19.091 5.90378 19.091C5.58031 19.091 5.25684 18.842 5.25684 18.51Z" fill="#FFBFA2"/>
</g>
<defs>
<clipPath id="clip0_250_4656">
<rect width="41" height="42" fill="white"/>
</clipPath>
</defs>
</svg>
