<svg width="47" height="37" viewBox="0 0 47 37" fill="none" xmlns="http://www.w3.org/2000/svg">
<path d="M39.6348 27.3737L32.4943 27.2866L31.6235 27.4608L31.3623 27.6349L31.4494 27.8091L33.6263 34.6012L34.323 36.4299H37.9803L38.3286 34.6883L40.2443 27.8962L40.3314 27.6349L39.6348 27.3737Z" fill="#DBD5D5"/>
<path d="M31.4489 27.809C29.446 30.4213 26.2241 30.7696 25.6146 33.9915L25.4404 36.4297H34.3225L33.7129 34.6011L31.4489 27.809Z" fill="#0C0A0A"/>
<path d="M37.9795 36.4298H46.5132L46.339 33.9916C45.9037 31.8147 43.4654 30.7697 40.2435 27.8961L38.3278 34.7753L37.9795 36.4298Z" fill="#161313"/>
<path d="M38.2415 24.0647H37.5449H33.8005C33.0168 24.0647 32.4072 24.6742 32.4072 25.2838V28.4186C32.4072 29.1153 33.0168 29.6377 33.8005 29.6377H38.2415C38.9381 29.6377 39.4606 29.2023 39.6348 28.6799V28.4186V25.2838C39.6348 24.6742 39.0252 24.0647 38.2415 24.0647Z" fill="#D1AB86"/>
<path d="M42.5081 18.3175C42.3339 18.2304 42.1597 18.4045 41.9856 18.6658C41.9856 18.5787 41.9856 18.4045 41.9856 18.3175C41.9856 14.3989 39.2862 11.177 35.9772 11.177C32.6682 11.177 29.9687 14.3989 29.9687 18.3175C29.9687 18.4045 29.9687 18.5787 29.9687 18.6658C29.7946 18.4045 29.6204 18.3175 29.4463 18.3175C29.0109 18.4916 28.9238 19.5366 29.185 20.7557C29.4463 21.9748 29.9687 22.8455 30.4041 22.7585C30.5783 22.6714 30.6654 22.5843 30.7524 22.3231C31.7974 25.2837 33.7131 27.9832 35.9772 27.9832C38.2412 27.9832 40.244 25.2837 41.2019 22.3231C41.289 22.5843 41.376 22.7585 41.5502 22.7585C41.9856 22.8455 42.5081 21.9748 42.7693 20.7557C43.1176 19.5366 42.9435 18.4045 42.5081 18.3175Z" fill="#FFE2C2"/>
<path d="M32.3195 27.5479C32.3195 27.5479 32.4066 28.6799 34.4965 29.2894C36.4993 29.899 35.1931 31.2922 35.1931 31.2922L33.6257 31.6405L32.6678 29.8119L32.2324 28.4186L32.3195 27.5479Z" fill="#FFF8F8"/>
<path d="M39.6349 27.7219C39.6349 27.7219 39.5478 28.8539 37.4579 29.4635C35.4551 30.073 36.7613 31.4663 36.7613 31.4663L38.3287 31.8146L39.2866 29.986L39.7219 28.5927L39.6349 27.7219Z" fill="#FFF8F8"/>
<path d="M31.7972 27.3737L29.5332 28.6798L33.6259 34.6012L31.7972 27.3737Z" fill="#333030"/>
<path d="M40.2439 27.3737L42.595 29.1152L38.3281 34.6883L40.2439 27.3737Z" fill="#333030"/>
<path d="M35.715 32.163L34.583 36.4298H37.6308L36.4117 32.163H35.715Z" fill="#0C0A0A"/>
<path d="M35.193 29.6377H36.9346L37.2829 30.9439L36.9346 32.3371H35.193L34.8447 31.031L35.193 29.6377Z" fill="#0C0A0A"/>
<path d="M29.6195 23.7164C28.4004 21.7136 27.965 19.5366 28.2262 17.7951C28.7487 15.1827 29.7936 13.0928 31.4481 11.6996C31.7094 9.95799 32.7543 9.00012 34.7571 9.00012C39.8948 9.34844 42.6813 12.3962 43.7262 17.2726C44.0745 19.0142 43.6392 21.1911 42.333 23.1939C40.9397 25.8934 41.8105 27.8962 43.1167 30.6827C39.8077 29.6378 37.6307 28.5057 38.3274 27.1125C40.156 22.9327 42.1588 19.1883 39.5465 15.7052C38.6757 15.7052 34.7571 18.4917 32.406 16.4889C30.0549 19.972 31.9706 23.6293 33.7122 27.635C34.4088 29.0282 32.2318 30.1602 28.9229 31.2052C30.142 28.4187 31.0127 26.4159 29.6195 23.7164Z" fill="#6B4A3B"/>
<path d="M14.3083 34.7276L6.73242 22.6236L10.651 19.663L20.4909 20.3596L24.2352 23.8427L15.7886 35.5113C15.3532 35.3371 14.8307 34.9888 14.3083 34.7276Z" fill="#DBD5D5"/>
<path d="M21.3608 21.1433L24.2344 21.8399C24.2344 21.8399 28.6754 22.5366 29.4591 23.7557C30.9395 24.7135 31.0265 36.295 30.7653 36.3821C30.5041 36.4692 17.0069 36.3821 17.0069 36.3821C16.4844 36.0338 15.9619 35.6854 15.4395 35.4242L21.3608 21.1433Z" fill="#0C0A0A"/>
<path d="M9.51936 21.1434L6.64577 21.8401C6.64577 21.8401 2.20476 22.5367 1.42105 23.7558C-0.0592893 24.7137 -0.146368 36.2951 0.114868 36.3822C0.376104 36.4693 17.7918 36.3822 17.7918 36.3822C18.3143 36.0339 16.4857 35.8597 15.4407 35.4243L9.51936 21.1434Z" fill="#0C0A0A"/>
<path d="M19.7949 14.9608H11V21.84H19.7949V14.9608Z" fill="#D1AB86"/>
<path d="M8.29994 10.6069C8.82241 15.9187 12.828 19.8372 15.4404 19.8372C18.1398 19.8372 21.8842 15.7445 22.5808 10.6069C23.1904 5.55633 19.3589 2.94397 15.4404 2.94397C11.5219 2.94397 7.77747 5.46925 8.29994 10.6069Z" fill="#FFE2C2"/>
<path d="M22.8423 5.3822C22.2328 3.3794 20.3171 1.02827 17.8788 0.418721C15.789 -0.103751 12.1317 -0.713302 8.90975 2.50861C8.47435 2.944 7.60357 6.16591 7.69065 7.12378C8.03896 10.5198 8.38727 11.3906 8.38727 11.3906L9.25806 11.7389C9.25806 11.7389 8.82267 10.6069 9.43222 8.95243C9.60638 8.51704 9.78053 8.08164 10.0418 7.73333C12.1317 8.86535 16.1373 7.64625 18.5755 7.90749C20.317 8.16872 20.6654 10.0845 21.7103 10.1715C21.7974 11.0423 21.6232 11.6519 21.6232 11.6519L22.494 11.3036C22.494 11.3036 22.5811 11.0423 22.7553 10.1715C22.9294 10.1715 23.1036 10.1715 23.1036 10.1715C23.1036 10.1715 23.4519 7.82041 22.8423 5.3822Z" fill="#0C0A0A"/>
<path d="M21.8849 11.3906C21.5366 12.4355 21.1883 13.4805 21.7108 13.6546C22.1462 13.8288 23.104 13.0451 23.5394 12.0001C23.8877 10.9552 23.8877 9.91026 23.4523 9.82318C22.9299 9.64902 22.3203 10.3457 21.8849 11.3906Z" fill="#FFE2C2"/>
<path d="M8.99755 11.3906C9.34587 12.4355 9.69418 13.4805 9.17171 13.6546C8.73632 13.8288 7.77845 13.0451 7.34306 12.0001C6.99474 10.9552 6.99474 9.91026 7.43014 9.82318C7.95261 9.64902 8.56216 10.3457 8.99755 11.3906Z" fill="#FFE2C2"/>
<path d="M13.2646 22.972L15.4416 24.8877L17.6186 22.972L15.4416 21.1433L13.2646 22.972Z" fill="#0C0A0A"/>
<path d="M15.8755 24.4524L17.1817 30.8091L15.5272 36.0339L13.5244 30.8091L15.0047 24.4524H15.8755Z" fill="#0C0A0A"/>
<path d="M20.1417 18.444L15.4395 21.1434L17.0069 24.4524L20.6642 21.0563C20.6642 21.0563 21.622 20.7951 21.2737 20.3597C21.0125 19.9243 20.2288 19.4889 20.1417 18.444Z" fill="#FFF8F8"/>
<path d="M10.7376 18.444L15.4398 21.1434L13.8724 24.4524L10.2151 21.0563C10.2151 21.0563 9.25724 20.7951 9.60556 20.3597C9.86679 19.9243 10.6505 19.576 10.7376 18.444Z" fill="#FFF8F8"/>
<path d="M15.4395 35.3374L20.8383 19.8374L22.667 21.4048L24.4956 22.3627L22.2316 26.2812L21.0996 26.1941L21.7962 28.4582L15.4395 35.3374Z" fill="#333030"/>
<path d="M15.4403 35.3372L10.0414 19.8372L8.21277 21.2304L6.20996 22.3624L8.64816 26.281L9.78019 26.1939L9.08356 28.4579L15.4403 35.3372Z" fill="#333030"/>
</svg>
