<svg width="60" height="38" viewBox="0 0 60 38" fill="none" xmlns="http://www.w3.org/2000/svg">
<path d="M50.3 19.2L59.2 35.9H50.2L41.5 19.5L42.9 16.9C42.9 17.1 42.8 17.3 42.8 17.6C43.4 17.2 44 16.7 44.5 16.2C44.8 16.2 44.9 16.7 44.8 17C44.8 17.5 44.8 18 44.9 18.5C44.9 18.7 45 18.8 45.1 18.9C45.3 18.9999 45.4 18.8 45.6 18.7C45.8 18.5 46 18.3 46.2 18C46.5 19.2 46.9 20.4 47.2 21.6C47.3 22 47.5 22.6 48 22.7C48 21 48 19.4 48 17.7C48.4 19 49.2 20.2 50.3 21.1C50.2 20.5 50.2 19.9 50.3 19.2Z" fill="#7B6A58"/>
<path d="M41.4002 19.5L50.1002 36H32.7002L41.4002 19.5Z" fill="#A48A7B"/>
<path d="M50.2998 19.2C50.1998 19.8 50.1998 20.5 50.2998 21.1C49.1998 20.2 48.3998 19 47.9998 17.7C47.9998 19.4 47.9998 21 47.9998 22.7C47.4998 22.6 47.2998 22.1 47.1998 21.6C46.8998 20.4 46.4998 19.2 46.1998 18C45.9998 18.2 45.7998 18.4 45.5998 18.7C45.4998 18.8 45.2998 19 45.0998 18.9C44.8998 18.9 44.8998 18.7 44.8998 18.5C44.7998 18 44.7998 17.5 44.7998 17C44.7998 16.7 44.7998 16.2 44.4998 16.2C43.9998 16.7 43.3998 17.2 42.7998 17.6C42.7998 17.4 42.8998 17.2 42.8998 16.9L45.9998 11L50.2998 19.2Z" fill="white"/>
<path d="M37.9004 12.9L41.4004 19.5L32.7004 35.9H29.8004L20.9004 19.2L24.1004 13.3C25.9004 12.4 26.8004 10.4 28.5004 9.40005C28.0004 11 27.6004 12.6 27.1004 14.2C27.3004 14.4 27.6004 14.2 27.7004 14C28.3004 13.1 28.9004 12.2 29.5004 11.3C30.2004 12.1 29.6004 13.7 30.6004 14.3C31.0004 13 31.2004 11.7 31.4004 10.4C32.6004 11.9 32.7004 14 33.7004 15.6C33.8004 15.8 33.9004 15.9 34.1004 15.9C34.4004 15.9 34.5004 15.5 34.4004 15.2C34.3004 13.2 34.2004 11.3 34.0004 9.30005C35.0004 10.5 36.0004 11.7 37.0004 12.9C37.2004 13.1 37.6004 13.4 37.8004 13.2C37.8004 13 37.8004 13 37.9004 12.9Z" fill="#A48A7B"/>
<path d="M20.9 19.3L29.7 36H12L20.9 19.3Z" fill="#A48A7B"/>
<path d="M33.6 15.5C32.6 13.9 32.5 11.8 31.3 10.3C31.1 11.6 30.8 13 30.5 14.2C29.6 13.6 30.1 12 29.4 11.2C28.8 12.1 28.2 13 27.6 13.9C27.5 14.1 27.1 14.3 27 14.1C27.5 12.5 27.9 10.9 28.4 9.3C26.7 10.3 25.8 12.4 24 13.2L31 0L37.8 12.8C37.8 12.9 37.8 12.9 37.7 13C37.5 13.2 37.1 13 36.9 12.7C35.9 11.5 34.9 10.3 33.9 9.1C34 11.1 34.1 13 34.3 15C34.3 15.3 34.2 15.7 34 15.7C33.9 15.8 33.7 15.7 33.6 15.5Z" fill="white"/>
<path d="M17.6 15.3C18 15.7 18.5 15.9 19 15.9L20.8 19.3L12 36H0L10.6 16C10.8 15.8 10.9 15.7 11.1 15.6C11.1 16.8 11.1 18.1 11.1 19.3C11.7 18 12.5 16.8 13.3 15.7C13.7 17.2 13.8 18.8 13.5 20.3C13.8 20.4 14.1 20.1 14.2 19.8C14.8 18.5 15.5 17.2 16.2 15.9C16.4 16.5 16.7 17 17 17.5C17.1 17.6 17.2 17.8 17.4 17.8C17.6 17.8 17.7 17.5 17.7 17.3C17.6 16.5 17.6 15.9 17.6 15.3Z" fill="#634E42"/>
<path d="M17.6 15.3C17.6 15.9 17.6 16.6 17.6 17.2C17.6 17.4 17.5 17.7 17.3 17.7C17.1 17.7 17 17.6 16.9 17.4C16.6 16.9 16.3 16.3 16.1 15.8C15.4 17.1 14.8 18.4 14.1 19.7C13.9 20 13.7 20.3 13.4 20.2C13.7 18.7 13.6 17.1 13.2 15.6C12.4 16.7 11.6 18 11 19.2C11 18 11 16.7 11 15.5C10.8 15.6 10.7 15.8 10.5 15.9L14.8 7.90002L19 15.8C18.5 15.9 18 15.7 17.6 15.3Z" fill="white"/>
<g opacity="0.2">
<path d="M24.9 16.5C24.9 16.5 24.9 16.8 24.8 17.3C24.8 17.6 24.7 17.9 24.7 18.3C24.6 18.7 24.6 19.1 24.5 19.5C24.4 19.9 24.2 20.4 24.1 20.9C23.9 21.4 23.8 22 23.5 22.5C23.2 23 23 23.6 22.7 24.1C22.4 24.7 22.1 25.2 21.7 25.7C21.3 26.2 21 26.7 20.6 27.2C20.2 27.7 19.9 28.1 19.5 28.5C19.2 28.9 18.9 29.4 18.6 29.7C18.4 30.2 18.1 30.6 18 31C17.8 31.4 17.6 31.8 17.5 32.1C17.3 32.4 17.2 32.7 17 33C16.7 33.5 16.5 33.7 16.5 33.7C16.5 33.7 16.6 33.4 16.7 32.9C16.8 32.7 16.8 32.3 16.9 32C17 31.6 17.1 31.2 17.2 30.8C17.3 30.3 17.5 29.9 17.6 29.4C17.9 28.8 18.1 28.3 18.4 27.8C18.7 27.3 19 26.8 19.4 26.3C19.7 25.8 20 25.3 20.4 24.8C20.7 24.3 21.1 23.8 21.3 23.3C21.6 22.8 21.9 22.3 22.1 21.8C22.4 21.3 22.6 20.8 22.8 20.4C23 19.9 23.2 19.5 23.4 19.1C23.6 18.7 23.7 18.3 23.9 18C24.1 17.7 24.2 17.4 24.3 17.1C24.7 16.8 24.9 16.5 24.9 16.5Z" fill="white"/>
</g>
<g opacity="0.2">
<path d="M25.8 19.4C25.8 19.4 25.6 20.4 25.2 21.8C25 22.5 24.7 23.3 24.5 24.1C24.4 24.5 24.3 24.9 24.2 25.3C24.2 25.8 24.2 26.2 24.2 26.7V27.1V27.3V27.4V27.5L24 28.2L23.9 28.5L23.7 28.9C23.6 29.1 23.5 29.4 23.4 29.6C23.2 30 22.9 30.4 22.7 30.8C22.5 31.1 22.2 31.5 22.1 31.8C21.9 32.1 21.7 32.4 21.6 32.6C21.4 32.8 21.4 33.1 21.3 33.3C21.2 33.7 21.1 33.9 21.1 33.9C21.1 33.9 21.1 33.8 21.1 33.7C21.1 33.6 21 33.4 21 33.2C21 33 21 32.7 21.1 32.4C21.2 32.1 21.3 31.7 21.4 31.4C21.7 30.7 22 29.9 22.3 29.1C22.4 28.7 22.6 28.4 22.6 27.9L22.7 27.2V27V26.6C22.7 26.1 22.8 25.6 22.8 25.1C22.9 24.6 23.1 24.1 23.3 23.6C23.5 23.1 23.7 22.8 23.9 22.4C24.1 22 24.3 21.7 24.5 21.4C25.2 20.2 25.8 19.4 25.8 19.4Z" fill="white"/>
</g>
<g opacity="0.2">
<path d="M24.7002 29.3L25.3002 27.8L25.8002 26.3L26.7002 23.2L27.2002 21.6C27.4002 21.1 27.6002 20.6 27.8002 20.1C28.0002 19.6 28.3002 19.1 28.6002 18.6L29.6002 17.2L31.2002 15L30.7002 17.8C30.2002 20.4 29.8002 22.9 29.2002 25.5C29.0002 26.8 28.7002 28.1 28.4002 29.3L28.2002 30.1L28.1002 31V31.9L28.3002 32.7H27.0002C27.5002 31.4 28.0002 30.2 28.5002 28.9C29.1002 27.7 29.7002 26.5 30.4002 25.3L31.2002 23.8L31.3002 25.5C31.3002 26.8 31.4002 28 31.4002 29.3C31.4002 30.6 31.4002 31.8 31.4002 33.1C31.2002 31.9 31.0002 30.6 30.9002 29.3C30.7002 28 30.6002 26.8 30.4002 25.5L31.3002 25.7C30.8002 26.9 30.3002 28.1 29.7002 29.3C29.3002 30.6 28.9002 31.8 28.4002 33L27.7002 35.2L27.0002 33.1C26.9002 32.7 26.8002 32.4 26.7002 32C26.7002 31.6 26.7002 31.3 26.7002 30.9L26.8002 29.8L27.0002 28.8C27.3002 27.5 27.5002 26.2 27.8002 25C28.3002 22.4 28.9002 19.9 29.5002 17.4L30.6002 18L29.6002 19.2L28.8002 20.5L28.1002 21.9L27.5002 23.4C27.1002 24.4 26.7002 25.4 26.3002 26.4L25.6002 27.9L24.7002 29.3Z" fill="white"/>
</g>
<g opacity="0.2">
<path d="M32 16.9C32 16.9 32.1 17.2 32.2 17.7C32.3 18.2 32.5 19 32.7 19.8C32.8 20.2 32.9 20.7 33.1 21.2C33.3 21.7 33.4 22.2 33.6 22.7C33.8 23.2 34 23.7 34.2 24.2C34.5 24.7 34.8 25.2 35 25.8C35.3 26.4 35.5 27.1 35.5 27.8C35.5 28 35.5 28.1 35.5 28.3V28.8C35.5 29.2 35.4 29.4 35.4 29.7C35.3 30.3 35.2 30.8 35.1 31.2C35.1 31.4 35.1 31.7 35.1 31.9C35.1 32.1 35.1 32.3 35.2 32.5C35.2 32.6 35.2 32.7 35.3 32.8C35.3 32.9 35.4 33 35.4 33.1C35.5 33.3 35.6 33.4 35.7 33.6C35.9 33.9 36 34.3 36.1 34.5C36.1 34.6 36.1 34.8 36.1 34.9C36.1 35 36.1 35.1 36 35.2C36 35.1 36 35 36 35C36 34.9 35.9 34.8 35.9 34.7C35.8 34.5 35.6 34.3 35.4 34C35.3 33.9 35.1 33.7 35 33.5C34.9 33.4 34.9 33.3 34.8 33.2C34.7 33.1 34.7 33 34.6 32.9C34.5 32.7 34.4 32.4 34.3 32.1C34.2 31.8 34.2 31.5 34.2 31.3C34.2 30.7 34.2 30.2 34.3 29.6C34.3 29.3 34.4 29 34.4 28.8C34.4 28.6 34.4 28.3 34.4 28C34.4 27.5 34.2 27 34 26.5C33.8 26 33.5 25.4 33.2 24.9C33 24.3 32.8 23.7 32.6 23.2C32.4 22.6 32.4 22.1 32.3 21.5C32.2 21 32.2 20.5 32.2 20C32.1 19.1 32.2 18.3 32.2 17.8C32 17.2 32 16.9 32 16.9Z" fill="white"/>
</g>
<g opacity="0.2">
<path d="M34.3998 18.4L34.5998 19.3C34.6998 19.6 34.7998 19.9 34.8998 20.2C34.9998 20.5 35.0998 20.8 35.2998 21L35.6998 21.8L36.1998 22.6C36.3998 22.9 36.4998 23.2 36.5998 23.5C36.8998 24.1 37.1998 24.6 37.3998 25.2L38.1998 26.9C38.4998 27.5 38.6998 28.1 38.8998 28.7C39.3998 29.9 39.7998 31.1 40.1998 32.3L38.7998 32.5L38.6998 31.7L38.5998 30.8C38.4998 30.2 38.2998 29.6 38.1998 29L37.9998 28C37.8998 27.7 37.8998 27.3 37.8998 27C37.8998 26.6 37.8998 26.3 37.8998 25.9C37.9998 25.5 37.9998 25.2 38.0998 24.8L38.4998 22.9L39.2998 24.7C39.9998 26.2 40.6998 27.8 41.2998 29.3C41.8998 30.9 42.5998 32.4 43.0998 34C42.1998 32.6 41.2998 31.1 40.4998 29.7C39.6998 28.2 38.8998 26.8 38.0998 25.3L39.2998 25.2L39.1998 26C39.1998 26.3 39.1998 26.6 39.1998 26.8L39.3998 27.7L39.5998 28.6C39.7998 29.2 39.8998 29.8 40.0998 30.5L40.2998 31.5V32.6L40.4998 37.7L38.7998 32.8C38.3998 31.6 37.9998 30.5 37.5998 29.3C37.3998 28.7 37.1998 28.1 36.9998 27.5L36.2998 25.7C36.0998 25.1 35.8998 24.5 35.5998 23.9C35.4998 23.6 35.3998 23.3 35.2998 23L34.9998 22.1L34.6998 21.2C34.5998 20.9 34.4998 20.6 34.4998 20.3C34.3998 20 34.2998 19.7 34.3998 19.4V18.4Z" fill="white"/>
</g>
<g opacity="0.2">
<path d="M36.5 15.9C36.5 15.9 36.6 16.1 36.8 16.5C36.9 16.7 37 16.9 37.2 17.2C37.3 17.3 37.3 17.5 37.4 17.6C37.5 17.7 37.6 17.9 37.7 18C37.9 18.3 38.1 18.7 38.3 19C38.5 19.3 38.8 19.7 39 20.1C39.2 20.5 39.6 20.8 39.8 21.2C40.1 21.6 40.4 22 40.6 22.4C41.1 23.2 41.7 24.1 42.1 24.9C42.3 25.3 42.5 25.7 42.7 26.1C42.9 26.5 43 26.9 43.1 27.3C43.2 27.7 43.3 28 43.4 28.3C43.5 28.6 43.5 28.9 43.5 29.1C43.6 29.5 43.6 29.8 43.6 29.8C43.6 29.8 43.5 29.6 43.2 29.2C43.1 29 43 28.8 42.8 28.5C42.7 28.2 42.5 28 42.3 27.7C42.1 27.4 41.9 27.1 41.7 26.7C41.5 26.4 41.2 26 41 25.6C40.8 25.2 40.4 24.9 40.2 24.5C39.9 24.1 39.6 23.7 39.4 23.3C39.1 22.9 38.9 22.5 38.6 22.1C38.3 21.7 38.1 21.3 37.9 20.8C37.7 20.4 37.5 20 37.3 19.6C37.1 19.2 37 18.8 36.9 18.5C36.8 18.3 36.8 18.2 36.7 18C36.6 17.8 36.6 17.7 36.6 17.5C36.5 17.2 36.5 16.9 36.5 16.7C36.5 16.1 36.5 15.9 36.5 15.9Z" fill="white"/>
</g>
<g opacity="0.2">
<path d="M44.7002 20.8C44.7002 20.8 44.8002 21 45.0002 21.3C45.2002 21.6 45.4002 22.2 45.7002 22.7C45.8002 23 46.0002 23.3 46.2002 23.6C46.3002 23.9 46.6002 24.3 46.8002 24.6C47.0002 24.9 47.2002 25.3 47.4002 25.6C47.6002 25.9 47.8002 26.3 48.1002 26.6C48.7002 27.3 49.2002 28 49.7002 28.7C50.0002 29.1 50.1002 29.4 50.3002 29.8C50.4002 30.2 50.6002 30.6 50.7002 30.9C50.9002 31.6 50.9002 32.1 51.0002 32.5C51.0002 32.9 51.0002 33.1 51.0002 33.1C51.0002 33.1 50.9002 32.9 50.7002 32.6C50.5002 32.3 50.2002 31.8 49.9002 31.2C49.7002 30.9 49.5002 30.7 49.4002 30.4C49.2002 30.1 48.9002 29.7 48.7002 29.5C48.2002 28.9 47.6002 28.3 47.0002 27.6C46.7002 27.2 46.5002 26.8 46.2002 26.4C45.9002 26 45.8002 25.6 45.6002 25.2C45.5002 24.8 45.3002 24.4 45.2002 24C45.1002 23.8 45.0002 23.4 45.0002 23.1C44.9002 22.4 44.8002 21.9 44.8002 21.5C44.7002 21.1 44.7002 20.8 44.7002 20.8Z" fill="white"/>
</g>
<g opacity="0.2">
<path d="M48.5996 23.4C48.5996 23.4 49.0996 24.1 49.6996 25.1C49.8996 25.4 49.9996 25.7 50.1996 26C50.3996 26.3 50.4996 26.6 50.6996 27C51.0996 27.7 51.3996 28.4 51.6996 29.1C51.8996 29.5 51.9996 29.8 52.1996 30.2C52.3996 30.6 52.4996 31 52.5996 31.4C52.6996 31.8 52.6996 32.3 52.6996 32.7C52.6996 33 52.5996 33.4 52.4996 33.7C52.2996 34.3 52.1996 34.7 52.1996 35.1C52.1996 35.4 52.2996 35.6 52.2996 35.6C52.2996 35.6 52.2996 35.6 52.1996 35.5C52.0996 35.4 51.9996 35.3 51.8996 35.1C51.6996 34.8 51.5996 34.2 51.5996 33.6C51.5996 33.3 51.5996 33 51.5996 32.7V32.6V32.5L51.4996 32.3C51.4996 32.2 51.3996 32 51.3996 31.8C51.2996 31.5 51.0996 31.2 50.9996 30.8C50.7996 30.4 50.5996 30.1 50.4996 29.7C50.1996 28.9 49.8996 28.2 49.5996 27.5C49.2996 26.8 49.1996 26.1 48.9996 25.5C48.6996 24.2 48.5996 23.4 48.5996 23.4Z" fill="white"/>
</g>
<g opacity="0.2">
<path d="M50.2998 22.4C50.5998 23 50.8998 23.6 51.1998 24.1C51.4998 24.7 51.6998 25.3 51.8998 25.9C52.3998 27.1 52.7998 28.3 53.0998 29.5L51.6998 29.7C51.6998 29.2 51.6998 28.7 51.6998 28.2V27L52.6998 27.5C53.0998 27.7 53.3998 28 53.6998 28.3C53.9998 28.6 54.0998 28.9 54.2998 29.2C54.5998 29.8 54.7998 30.4 54.9998 31C55.1998 31.6 55.3998 32.2 55.5998 32.8C55.7998 33.4 55.9998 34 56.0998 34.7C55.6998 34.2 55.2998 33.6 54.9998 33.1C54.6998 32.6 54.2998 32 53.9998 31.5C53.6998 31 53.3998 30.4 53.0998 29.9C52.9998 29.7 52.7998 29.4 52.5998 29.3C52.3998 29.1 52.2998 29 52.0998 28.9L53.0998 28.2C53.0998 28.7 53.0998 29.2 53.0998 29.7L52.9998 35L51.5998 30C51.2998 28.8 50.9998 27.5 50.6998 26.3C50.5998 25.7 50.4998 25 50.3998 24.4C50.3998 23.7 50.3998 23 50.2998 22.4Z" fill="white"/>
</g>
<g opacity="0.2">
<path d="M10.3002 19.6C10.2002 20.4 10.0002 21.2 9.9002 22C9.7002 22.8 9.5002 23.6 9.2002 24.3C8.9002 25.1 8.6002 25.8 8.3002 26.6C7.9002 27.3 7.60019 28.1 7.2002 28.8L6.5002 27.8L6.8002 27.7L7.0002 27.5C7.2002 27.4 7.3002 27.2 7.5002 27C7.8002 26.6 8.0002 26.2 8.3002 25.7C8.5002 25.2 8.8002 24.7 9.1002 24.1C9.3002 23.8 9.5002 23.6 9.7002 23.3C9.9002 23.1 10.2002 22.8 10.5002 22.7L11.5002 22.1L11.6002 23.2C11.6002 23.6 11.7002 23.9 11.6002 24.3C11.6002 24.7 11.5002 25 11.4002 25.3C11.2002 25.9 10.9002 26.5 10.6002 27C9.9002 28 9.3002 29 8.5002 29.9C8.3002 30.1 8.10019 30.4 7.9002 30.6C7.7002 30.8 7.5002 31.1 7.2002 31.2L6.5002 31.8C6.3002 32 6.0002 32.1 5.7002 32.3C5.2002 32.6 4.7002 32.9 4.2002 33.2C4.0002 33.4 3.8002 33.6 3.6002 33.8C3.4002 34 3.3002 34.3 3.2002 34.5C3.2002 34.2 3.3002 33.9 3.5002 33.6C3.6002 33.3 3.8002 33.1 4.0002 32.9C4.4002 32.4 4.9002 32.1 5.3002 31.7C5.5002 31.5 5.8002 31.3 5.9002 31.1L6.5002 30.5C6.7002 30.3 6.8002 30.1 7.0002 29.8C7.2002 29.6 7.4002 29.4 7.5002 29.1C7.8002 28.6 8.10019 28.2 8.4002 27.6C8.7002 27.1 9.0002 26.6 9.3002 26.1C9.6002 25.6 9.8002 25.1 9.9002 24.6C9.9002 24.4 10.0002 24.1 10.0002 23.9C10.0002 23.7 10.0002 23.4 10.0002 23.2L11.1002 23.7C10.9002 23.8 10.8002 23.9 10.6002 24.1C10.5002 24.3 10.3002 24.4 10.2002 24.6C9.9002 25 9.7002 25.5 9.5002 26C9.2002 26.5 8.9002 27.1 8.5002 27.5C8.3002 27.7 8.0002 28 7.8002 28.2C7.7002 28.3 7.5002 28.4 7.3002 28.5L6.8002 29.1L5.2002 29.7L6.1002 28.1C6.5002 27.4 6.9002 26.7 7.3002 26.1C7.7002 25.4 8.0002 24.7 8.4002 24C8.7002 23.3 9.0002 22.6 9.4002 21.8C9.60019 21.1 9.9002 20.3 10.3002 19.6Z" fill="white"/>
</g>
<g opacity="0.2">
<path d="M12.7996 21C12.7996 21 12.7996 21.2 12.8996 21.6C12.8996 21.8 12.8996 22 12.9996 22.2C13.0996 22.4 13.0996 22.7 13.1996 23C13.2996 23.3 13.3996 23.6 13.3996 23.9C13.4996 24.2 13.5996 24.6 13.6996 25C13.7996 25.4 13.7996 25.8 13.7996 26.2C13.7996 26.6 13.7996 27.1 13.6996 27.6C13.5996 28.1 13.4996 28.5 13.1996 28.9V29.1V29.2V29.3L12.9996 29.5C12.8996 29.6 12.6996 29.8 12.5996 30C12.2996 30.3 11.9996 30.5 11.6996 30.7C11.3996 30.9 11.1996 31.1 10.8996 31.3C10.6996 31.5 10.4996 31.6 10.2996 31.8C10.1996 32 9.99961 32.1 9.89961 32.2C9.69961 32.5 9.59961 32.7 9.59961 32.7C9.59961 32.7 9.59961 32.5 9.59961 32.1C9.59961 31.9 9.69961 31.7 9.79961 31.4C9.89961 31.2 10.0996 30.9 10.2996 30.6C10.4996 30.3 10.6996 30.1 10.9996 29.8C11.1996 29.5 11.4996 29.3 11.6996 29C11.7996 28.9 11.8996 28.8 11.9996 28.6L12.1996 28.4V28.3L12.2996 28.2C12.3996 27.9 12.4996 27.6 12.5996 27.3C12.6996 27 12.6996 26.6 12.6996 26.2C12.6996 25.8 12.6996 25.5 12.6996 25.1C12.6996 24.4 12.5996 23.6 12.6996 23C12.6996 22.7 12.7996 22.4 12.7996 22.1C12.7996 21.8 12.8996 21.6 12.9996 21.5C12.7996 21.2 12.7996 21 12.7996 21Z" fill="white"/>
</g>
<g opacity="0.2">
<path d="M17.0004 19.3C17.0004 19.3 17.1004 19.9 17.0004 20.8C16.9004 21.7 16.7004 22.8 16.4004 23.8C16.2004 24.3 16.0004 24.9 15.8004 25.3C15.7004 25.5 15.6004 25.8 15.5004 26C15.4004 26.2 15.3004 26.4 15.2004 26.6C15.0004 27 14.9004 27.3 14.8004 27.5C14.7004 27.7 14.6004 27.9 14.6004 27.9C14.6004 27.9 14.5004 27.8 14.5004 27.5C14.4004 27.2 14.4004 26.9 14.4004 26.4C14.4004 25.9 14.5004 25.5 14.6004 24.9C14.7004 24.4 14.8004 23.8 15.0004 23.3C15.3004 22.2 15.8004 21.2 16.2004 20.5C16.6004 19.7 17.0004 19.3 17.0004 19.3Z" fill="white"/>
</g>
<g opacity="0.2">
<path d="M18.1998 17.8C18.1998 17.8 18.3998 18.2 18.5998 18.8C18.7998 19.4 18.8998 20.2 18.7998 20.9C18.6998 21.7 18.4998 22.4 18.2998 23C18.0998 23.6 17.7998 23.9 17.7998 23.9C17.7998 23.9 17.5998 23.5 17.4998 22.9C17.3998 22.3 17.2998 21.6 17.3998 20.8C17.3998 20 17.5998 19.3 17.7998 18.7C17.8998 18.2 18.1998 17.8 18.1998 17.8Z" fill="white"/>
</g>
<path d="M25.3002 1.89998C25.3002 1.39998 24.9002 0.999976 24.4002 0.899976C24.3002 0.899976 24.1002 0.899976 24.0002 0.899976C23.8002 0.699976 23.5002 0.499976 23.1002 0.499976C22.9002 0.499976 22.6002 0.599976 22.4002 0.699976C22.0002 0.299976 21.5002 0.0999756 20.9002 0.0999756C19.9002 0.0999756 19.0002 0.699976 19.0002 1.49998C18.3002 1.49998 17.7002 1.89998 17.7002 2.39998C17.7002 2.89998 18.3002 3.39998 19.0002 3.39998C19.4002 3.39998 19.8002 3.19998 20.1002 2.99998C20.4002 3.39998 20.9002 3.59998 21.5002 3.59998C22.0002 3.59998 22.4002 3.49998 22.7002 3.19998C22.9002 3.29998 23.1002 3.29998 23.4002 3.29998C23.8002 3.29998 24.1002 3.19998 24.3002 2.99998C24.5002 3.19998 24.8002 3.29998 25.2002 3.29998C25.8002 3.29998 26.4002 2.99998 26.4002 2.49998C26.3002 2.19998 25.9002 1.89998 25.3002 1.89998Z" fill="url(#paint0_linear_155_4322)"/>
<path d="M58.1996 13.4C58.1996 12.9 57.7996 12.5 57.2996 12.4C57.1996 12.4 56.9996 12.4 56.8996 12.4C56.6996 12.2 56.3996 12 55.9996 12C55.7996 12 55.4996 12.1 55.2996 12.2C54.9996 11.9 54.3996 11.7 53.7996 11.7C52.7996 11.7 51.8996 12.3 51.8996 13.1C51.1996 13.1 50.5996 13.5 50.5996 14C50.5996 14.5 51.1996 15 51.8996 15C52.2996 15 52.6996 14.8 52.9996 14.6C53.2996 15 53.7996 15.2 54.3996 15.2C54.8996 15.2 55.2996 15.1 55.5996 14.8C55.7996 14.9 55.9996 14.9 56.2996 14.9C56.6996 14.9 56.9996 14.8 57.1996 14.6C57.3996 14.8 57.6996 14.9 58.0996 14.9C58.6996 14.9 59.2996 14.6 59.2996 14.1C59.1996 13.8 58.7996 13.5 58.1996 13.4Z" fill="url(#paint1_linear_155_4322)"/>
<path d="M47.1996 5.29998C47.0996 4.79998 46.6996 4.39998 46.0996 4.29998C45.7996 4.29998 45.5996 4.29998 45.3996 4.29998C45.1996 4.09998 44.8996 3.89998 44.4996 3.89998C44.1996 3.79998 43.8996 3.89998 43.5996 3.99998C43.2996 3.79998 42.8996 3.59998 42.4996 3.59998C41.7996 3.59998 41.1996 3.99998 40.9996 4.49998C40.7996 4.29998 40.4996 4.19998 40.1996 4.19998C39.5996 4.19998 39.0996 4.59998 39.0996 5.09998H38.9996C38.1996 5.09998 37.5996 5.49998 37.5996 5.89998C37.5996 6.39998 38.1996 6.69998 38.9996 6.69998C39.2996 6.69998 39.4996 6.69998 39.6996 6.59998C39.9996 6.89998 40.4996 7.19998 40.9996 7.19998C41.4996 7.19998 41.9996 6.99998 42.2996 6.69998C42.5996 7.09998 43.1996 7.39998 43.8996 7.39998C44.6996 7.39998 45.2996 7.09998 45.5996 6.59998C45.8996 6.89998 46.2996 7.09998 46.8996 7.09998C47.6996 7.09998 48.3996 6.69998 48.3996 6.09998C48.4996 5.69998 47.8996 5.29998 47.1996 5.29998Z" fill="url(#paint2_linear_155_4322)"/>
<path d="M9.00039 9.79998C9.00039 9.29998 8.60039 8.89998 8.10039 8.79998C8.00039 8.79998 7.80039 8.79998 7.70039 8.79998C7.40039 8.59998 7.10039 8.39998 6.70039 8.39998C6.50039 8.39998 6.20039 8.49998 6.00039 8.59998C5.70039 8.29998 5.20039 8.09998 4.60039 8.09998C3.60039 8.09998 2.70039 8.69998 2.70039 9.49998C2.00039 9.49998 1.40039 9.89998 1.40039 10.4C1.40039 10.9 2.00039 11.4 2.70039 11.4C3.10039 11.4 3.50039 11.2 3.80039 11C4.10039 11.4 4.60039 11.6 5.20039 11.6C5.70039 11.6 6.10039 11.5 6.40039 11.2C6.60039 11.3 6.80039 11.3 7.10039 11.3C7.50039 11.3 7.80039 11.2 8.00039 11C8.20039 11.2 8.50039 11.3 8.90039 11.3C9.50039 11.3 10.1004 11 10.1004 10.5C10.0004 10.2 9.60039 9.89998 9.00039 9.79998Z" fill="url(#paint3_linear_155_4322)"/>
<defs>
<linearGradient id="paint0_linear_155_4322" x1="21.5686" y1="-0.0557791" x2="22.2521" y2="3.89158" gradientUnits="userSpaceOnUse">
<stop offset="0.00510204" stop-color="white"/>
<stop offset="0.2347" stop-color="#FCFCFC"/>
<stop offset="0.375" stop-color="#F4F4F4"/>
<stop offset="0.4913" stop-color="#E6E6E6"/>
<stop offset="0.5946" stop-color="#D1D1D1"/>
<stop offset="0.6892" stop-color="#B7B7B7"/>
<stop offset="0.7775" stop-color="#979796"/>
<stop offset="0.8609" stop-color="#70706F"/>
<stop offset="0.9383" stop-color="#454544"/>
<stop offset="1" stop-color="#1D1D1B"/>
</linearGradient>
<linearGradient id="paint1_linear_155_4322" x1="54.4885" y1="11.4985" x2="55.1719" y2="15.4457" gradientUnits="userSpaceOnUse">
<stop offset="0.00510204" stop-color="white"/>
<stop offset="0.2347" stop-color="#FCFCFC"/>
<stop offset="0.375" stop-color="#F4F4F4"/>
<stop offset="0.4913" stop-color="#E6E6E6"/>
<stop offset="0.5946" stop-color="#D1D1D1"/>
<stop offset="0.6892" stop-color="#B7B7B7"/>
<stop offset="0.7775" stop-color="#979796"/>
<stop offset="0.8609" stop-color="#70706F"/>
<stop offset="0.9383" stop-color="#454544"/>
<stop offset="1" stop-color="#1D1D1B"/>
</linearGradient>
<linearGradient id="paint2_linear_155_4322" x1="42.6187" y1="3.57151" x2="43.3604" y2="7.85585" gradientUnits="userSpaceOnUse">
<stop offset="0.00510204" stop-color="white"/>
<stop offset="0.2347" stop-color="#FCFCFC"/>
<stop offset="0.375" stop-color="#F4F4F4"/>
<stop offset="0.4913" stop-color="#E6E6E6"/>
<stop offset="0.5946" stop-color="#D1D1D1"/>
<stop offset="0.6892" stop-color="#B7B7B7"/>
<stop offset="0.7775" stop-color="#979796"/>
<stop offset="0.8609" stop-color="#70706F"/>
<stop offset="0.9383" stop-color="#454544"/>
<stop offset="1" stop-color="#1D1D1B"/>
</linearGradient>
<linearGradient id="paint3_linear_155_4322" x1="5.23977" y1="7.91578" x2="5.92314" y2="11.8629" gradientUnits="userSpaceOnUse">
<stop offset="0.00510204" stop-color="white"/>
<stop offset="0.2347" stop-color="#FCFCFC"/>
<stop offset="0.375" stop-color="#F4F4F4"/>
<stop offset="0.4913" stop-color="#E6E6E6"/>
<stop offset="0.5946" stop-color="#D1D1D1"/>
<stop offset="0.6892" stop-color="#B7B7B7"/>
<stop offset="0.7775" stop-color="#979796"/>
<stop offset="0.8609" stop-color="#70706F"/>
<stop offset="0.9383" stop-color="#454544"/>
<stop offset="1" stop-color="#1D1D1B"/>
</linearGradient>
</defs>
</svg>
