<svg width="53" height="39" viewBox="0 0 53 39" fill="none" xmlns="http://www.w3.org/2000/svg">
<path d="M16.6006 22.6985L20.8217 23.254L21.192 20.4769C19.1185 20.1807 17.2301 21.1434 16.6006 22.6985Z" fill="#92CEFF"/>
<path d="M21.1554 20.4769L20.7852 23.254L25.0063 23.8094C24.7842 22.1432 23.229 20.7361 21.1554 20.4769Z" fill="#00649E"/>
<path d="M47.2234 21.1434C45.0758 20.4029 41.5211 22.8097 38.707 26.6235L48.7416 30.1412C50.2227 25.9941 48.6675 21.6618 47.2234 21.1434Z" fill="#B7281D"/>
<path d="M11.602 30.03C11.0466 29.956 10.5652 30.3263 10.4911 30.8817L9.8987 34.9918C9.6395 35.2139 9.45437 35.5102 9.41734 35.8434C9.30626 36.584 9.82464 37.2505 10.5652 37.3615C11.3058 37.4726 11.9723 36.9542 12.0833 36.2137C12.1204 35.8804 12.0463 35.5101 11.8612 35.251L12.4166 31.1409C12.4906 30.5855 12.1204 30.1041 11.602 30.03Z" fill="#FFDF5A"/>
<path d="M44.0757 34.6585C44.0387 34.3252 43.8166 34.0661 43.5574 33.955L43.1501 30.8446C43.113 30.5854 42.8538 30.4003 42.5946 30.4373C42.3354 30.4744 42.1503 30.7336 42.1873 30.9928L42.5946 34.1031C42.3725 34.2882 42.2244 34.5844 42.2614 34.9177C42.3354 35.4361 42.7798 35.7693 43.2982 35.6953C43.8166 35.6212 44.1498 35.1769 44.0757 34.6585Z" fill="#FFDF5A"/>
<path d="M14.9722 21.2915L14.3057 26.3643L38.3367 28.2157L48.8896 29.6968L48.9266 29.3265C49.1117 27.9195 26.71 23.4761 14.9722 21.2915Z" fill="#FFDF5A"/>
<path d="M7.86254 20.0326L7.08496 25.8089L14.3054 26.3643L14.9719 21.2915C11.2321 20.588 8.56607 20.1066 8.12174 20.0696C8.04768 20.0326 7.97363 20.0326 7.86254 20.0326Z" fill="#92CEFF"/>
<path d="M14.305 26.3644L13.5645 32.1407C24.2284 32.7332 43.8161 33.0294 48.7778 30.6226L48.8889 29.7339L38.336 28.2528L14.305 26.3644Z" fill="#EAB828"/>
<path d="M7.12223 25.809L6.30762 31.5853C6.38167 31.5853 6.45573 31.6223 6.56681 31.6223C7.04817 31.6964 9.7512 31.8815 13.5651 32.1037L14.3056 26.3273L7.12223 25.809Z" fill="#00649E"/>
<path d="M7.86252 20.0325C6.12222 19.9214 4.64111 20.9582 4.38191 22.6985L3.97461 25.5867L7.08494 25.8459L7.86252 20.0325Z" fill="#595858"/>
<path d="M6.30781 31.5852L7.12242 25.8089L4.01209 25.5497L3.67884 27.8454C3.45667 29.6227 4.60453 31.252 6.30781 31.5852Z" fill="#1C1C1C"/>
<path d="M45.9269 28.0676C40.4097 27.5121 38.5213 27.8454 38.4473 28.4749L52.9992 29.956C53.0362 29.2895 51.444 28.623 45.9269 28.0676Z" fill="#E54B42"/>
<path d="M45.6682 30.3633C51.1853 30.9187 52.8886 30.5854 52.9626 29.956L38.4107 28.4749C38.3737 29.0673 40.151 29.7708 45.6682 30.3633Z" fill="#B7281D"/>
<path d="M4.27122 23.5502L3.56769 23.4391C2.56795 23.291 1.64225 23.9946 1.49414 24.9943L4.01203 25.3276L4.27122 23.5502Z" fill="#E54B42"/>
<path d="M3.08561 27.1049L3.78914 27.216L4.04833 25.4016L1.53044 25.0684C1.38233 26.0311 2.08586 26.9568 3.08561 27.1049Z" fill="#B7281D"/>
<path d="M2.12361 25.1054L3.60472 16.7741C3.64175 16.4038 3.38256 16.0706 3.04931 16.0336C2.67903 15.9965 2.34578 16.2557 2.30875 16.589L1.49414 25.0313L2.12361 25.1054Z" fill="#595858"/>
<path d="M2.12325 25.1054L1.30864 33.5478C1.27161 33.918 0.938359 34.1772 0.568082 34.1032C0.197804 34.0661 -0.0613899 33.7329 0.0126656 33.3626L1.5308 25.0314L2.12325 25.1054Z" fill="#1C1C1C"/>
<path d="M27.5007 20.4802L16.7988 34.9486L17.6919 35.6092L28.3939 21.1408L27.5007 20.4802Z" fill="#E54B42"/>
<path d="M18.4801 18.6147L17.5088 19.1538L26.5655 35.4718L27.5368 34.9328L18.4801 18.6147Z" fill="#B7281D"/>
<path d="M33.7447 22.6615L15.7492 18.9217C15.1197 18.8106 14.7124 18.1812 14.8605 17.5517C14.9716 16.9222 15.6011 16.5149 16.2306 16.663C16.86 16.8111 28.8941 19.292 33.7447 22.6615Z" fill="#595858"/>
<path d="M30.5238 34.9547L16.2681 34.1401C15.7867 34.1031 15.3424 34.4734 15.3424 34.9918C15.3054 35.4731 15.6756 35.9175 16.194 35.9175C16.6754 35.9545 26.2286 36.5099 30.5238 34.9547Z" fill="#1C1C1C"/>
<path d="M11.1578 33.2515C9.60266 33.0293 8.1956 34.1031 7.97344 35.6583C7.75127 37.2135 8.82507 38.6205 10.3802 38.8427C11.9354 39.0649 13.3425 37.9911 13.5646 36.4359C13.7498 34.8807 12.676 33.4367 11.1578 33.2515ZM10.5654 37.3616C9.82482 37.2505 9.30643 36.584 9.41752 35.8435C9.5286 35.1029 10.1951 34.5845 10.9357 34.6956C11.6762 34.8067 12.1946 35.4732 12.0835 36.2137C11.9724 36.9543 11.3059 37.4727 10.5654 37.3616Z" fill="#00649E"/>
<path d="M42.9284 32.8811C41.8916 33.0293 41.151 33.992 41.2991 35.0288C41.4473 36.0655 42.41 36.8061 43.4468 36.658C44.4835 36.5099 45.2241 35.5471 45.076 34.5104C44.9279 33.4736 43.9651 32.7701 42.9284 32.8811ZM43.2986 35.6953C42.7803 35.7693 42.3359 35.399 42.2619 34.9177C42.1878 34.3993 42.5581 33.955 43.0395 33.8809C43.5578 33.8068 44.0022 34.1771 44.0762 34.6585C44.1503 35.1769 43.817 35.6212 43.2986 35.6953Z" fill="#00649E"/>
<path d="M36.5593 7.59077C36.5223 7.40564 36.4482 7.18347 36.3742 6.99833C36.3001 6.81319 36.189 6.62805 36.0779 6.44291C35.7447 5.92453 35.3004 5.48019 34.819 5.18397C34.4487 4.9618 34.0784 4.81369 33.6711 4.70261C33.1157 4.59153 32.5603 4.5545 32.0049 4.66558C32.19 4.73964 32.3381 4.81369 32.4862 4.92478C33.0417 5.25803 33.486 5.70236 33.8563 6.2948C33.9674 6.47994 34.0784 6.70211 34.1525 6.88725C34.2265 7.10941 34.3006 7.33158 34.3747 7.51672C34.5228 8.14619 34.5228 8.81269 34.3747 9.44216C34.2636 9.8865 34.0784 10.2938 33.8563 10.7011C33.523 11.2565 33.0787 11.7009 32.4862 12.0711C32.3381 12.1822 32.153 12.2563 32.0049 12.3303C32.5603 12.4414 33.1157 12.4414 33.6711 12.3303C33.8563 12.2933 34.0784 12.2192 34.2636 12.1452C34.4487 12.0711 34.6339 11.96 34.819 11.849C35.3374 11.5157 35.7817 11.0714 36.0779 10.59C36.3001 10.2197 36.4482 9.84947 36.5593 9.44216C36.7074 8.81269 36.7074 8.22025 36.5593 7.59077Z" fill="#EAB828"/>
<path d="M33.8191 10.7011C34.0413 10.3308 34.2264 9.88644 34.3375 9.44211C34.4856 8.81263 34.4856 8.18316 34.3375 7.51666C34.3005 7.2945 34.2264 7.07233 34.1154 6.88719C34.0413 6.66503 33.9302 6.47989 33.8191 6.29475C33.4859 5.73933 33.0045 5.25797 32.4491 4.92472C32.301 4.81364 32.1159 4.73958 31.9678 4.66553C31.9307 4.66553 31.8937 4.66553 31.8567 4.66553C31.6715 4.70256 31.4494 4.77661 31.2642 4.85067C31.0791 4.92472 30.8939 5.0358 30.7088 5.14689C30.1904 5.48014 29.7461 5.92447 29.4499 6.40583C29.2277 6.77611 29.0796 7.14639 28.9685 7.55369C28.8204 8.14614 28.8204 8.73858 28.9685 9.33102C29.0055 9.51616 29.0796 9.73833 29.1536 9.92347C29.2277 10.1086 29.3388 10.2937 29.4499 10.4789C29.7831 10.9973 30.2274 11.4416 30.7088 11.7378C31.0791 11.96 31.4494 12.1081 31.8567 12.2192C31.8937 12.2192 31.9307 12.2192 31.9678 12.2192C32.1529 12.1451 32.301 12.0711 32.4491 11.96C33.0416 11.7008 33.4859 11.2565 33.8191 10.7011Z" fill="#FFDF5A"/>
<path d="M28.3387 9.40514C28.2276 8.8127 28.2276 8.18322 28.3387 7.62781H27.7092H25.1543C24.6729 7.62781 24.2656 8.03511 24.2656 8.51647C24.2656 8.99783 24.6729 9.40514 25.1543 9.40514H27.7092H28.3387Z" fill="#FFDF5A"/>
<path d="M28.5614 5.59127L29.0057 6.0356C29.3389 5.55424 29.7463 5.10991 30.2646 4.77666L29.8203 4.33232L28.0059 2.55499C27.6727 2.22174 27.0803 2.22174 26.747 2.55499C26.4138 2.88824 26.4138 3.48068 26.747 3.81393L28.5614 5.59127Z" fill="#FFDF5A"/>
<path d="M40.3358 7.5907H37.7808H37.1514C37.2625 8.18314 37.2625 8.81261 37.1514 9.36803H37.7808H40.3358C40.8171 9.36803 41.2244 8.96072 41.2244 8.47936C41.2244 7.998 40.8171 7.5907 40.3358 7.5907Z" fill="#EAB828"/>
<path d="M36.9289 11.4416L36.4845 10.9973C36.1513 11.4787 35.744 11.923 35.2256 12.2563L35.6699 12.7006L37.4843 14.4779C37.8175 14.8112 38.41 14.8112 38.7432 14.4779C39.0765 14.1447 39.0765 13.5522 38.7432 13.219L36.9289 11.4416Z" fill="#EAB828"/>
<path d="M31.8564 12.9227V13.5522V16.1071C31.8564 16.5885 32.2638 16.9958 32.7451 16.9958V12.9968C32.4489 12.9968 32.1527 12.9968 31.8564 12.9227Z" fill="#FFDF5A"/>
<path d="M33.6708 16.0701V13.5152V12.8857C33.3376 12.9968 33.0413 12.9968 32.7451 12.9968V16.9588C33.2635 16.9588 33.6708 16.5515 33.6708 16.0701Z" fill="#EAB828"/>
<path d="M29.0058 10.9973L28.5614 11.4416L26.7841 13.256C26.4509 13.5893 26.4509 14.1817 26.7841 14.515C27.1174 14.8482 27.7098 14.8482 28.0431 14.515L29.8204 12.7006L30.2647 12.2563C29.7834 11.923 29.339 11.5157 29.0058 10.9973Z" fill="#FFDF5A"/>
<path d="M32.7451 0.0371094C32.2638 0.0371094 31.8564 0.444415 31.8564 0.925775V3.48069V4.11016C32.1527 4.03611 32.4489 4.03611 32.7451 4.03611C32.7451 3.99908 32.7451 0.0371094 32.7451 0.0371094Z" fill="#FFDF5A"/>
<path d="M33.6338 4.07305V3.44358V0.888666C33.6338 0.407305 33.2265 0 32.7451 0V3.96197C33.0784 3.999 33.3746 4.03602 33.6338 4.07305Z" fill="#EAB828"/>
<path d="M36.5216 5.99853L36.966 5.5542L38.7433 3.73984C39.0766 3.40659 39.0766 2.81414 38.7433 2.48089C38.4101 2.14764 37.8176 2.14764 37.4844 2.48089L35.707 4.29525L35.2627 4.73959C35.7441 5.07284 36.1884 5.48014 36.5216 5.99853Z" fill="#EAB828"/>
<path d="M31.8566 7.22041C31.8566 7.70177 31.4863 8.07205 31.005 8.07205C30.5236 8.07205 30.1533 7.70177 30.1533 7.22041C30.1533 6.73905 30.5236 6.36877 31.005 6.36877C31.4863 6.4058 31.8566 6.77608 31.8566 7.22041Z" fill="white"/>
</svg>
