<svg width="33" height="41" viewBox="0 0 33 41" fill="none" xmlns="http://www.w3.org/2000/svg">
<path d="M17.3367 37.4748C25.0599 37.4748 31.3209 36.3926 31.3209 35.0578C31.3209 33.7229 25.0599 32.6407 17.3367 32.6407C9.61346 32.6407 3.35254 33.7229 3.35254 35.0578C3.35254 36.3926 9.61346 37.4748 17.3367 37.4748Z" fill="#FFD7B0"/>
<path d="M18.6597 9.6792H20.0408C20.0408 13.8227 21.422 26.1955 17.2785 34.4824H11.7539C17.3361 28.9578 18.6597 20.6709 18.6597 9.6792Z" fill="#D29856"/>
<path d="M8.1281 16.5275C9.16396 6.85939 18.6594 11.0028 18.6594 11.0028C18.6594 2.77349 4.96296 1.39233 8.1281 16.5275Z" fill="#16B200"/>
<path d="M18.6592 11.0605C20.2705 1.39242 35.1755 4.15472 28.3272 17.9662C29.7084 6.91702 18.6592 11.0605 18.6592 11.0605Z" fill="#16B200"/>
<path d="M19.4659 9.33395C15.2649 0.529113 29.0765 -5.80117 31.3208 9.44905C26.1415 -0.391656 19.4659 9.33395 19.4659 9.33395Z" fill="#16B200"/>
<path d="M18.4863 9.67925C24.9892 1.62253 12.2711 -6.54928 6.28613 8.06791C13.9976 -0.794481 18.4863 9.67925 18.4863 9.67925Z" fill="#16B200"/>
<path d="M18.6592 10.9452C20.9611 5.07532 29.248 8.81594 23.263 16.5849C25.68 9.79426 18.6592 10.9452 18.6592 10.9452Z" fill="#16B200"/>
<path d="M21.3065 10.9452C19.0045 5.07532 10.7176 8.81594 16.7026 16.5849C14.2856 9.79426 21.3065 10.9452 21.3065 10.9452Z" fill="#16B200"/>
<path d="M7.61043 22.2823L6.8623 22.5125C7.55288 24.5843 8.81894 31.0296 12.3294 34.4825L15.2068 33.5618C11.4661 31.7202 9.39442 27.807 7.61043 22.2823Z" fill="#D29856"/>
<path d="M14.2859 23.9511C12.1566 19.2897 7.84055 22.9728 7.84055 22.9728C6.4594 18.8293 13.4803 15.7793 14.2859 23.9511Z" fill="#16B200"/>
<path d="M7.84049 22.9729C5.42348 18.4266 -2.00022 22.3398 3.86968 28.0946C1.33757 22.8002 7.84049 22.9729 7.84049 22.9729Z" fill="#16B200"/>
<path d="M7.09315 22.2823C7.89882 17.103 -0.388087 16.2973 0.877969 24.3541C2.02893 18.5417 7.09315 22.2823 7.09315 22.2823Z" fill="#16B200"/>
<path d="M7.72579 22.2245C3.00686 19.2896 8.35882 13.0744 13.8834 19.3471C8.35882 16.2395 7.72579 22.2245 7.72579 22.2245Z" fill="#16B200"/>
<path d="M7.78309 22.9155C5.59626 20.3833 1.85564 23.6636 6.28684 26.541C3.92737 23.5485 7.78309 22.9155 7.78309 22.9155Z" fill="#16B200"/>
<path d="M6.45898 23.3758C6.74672 20.038 11.6959 20.4984 9.79677 25.3899C9.91186 21.5918 6.45898 23.3758 6.45898 23.3758Z" fill="#16B200"/>
<path d="M21.9235 35.4607L19.0461 28.7852C18.931 28.555 19.0461 28.2097 19.3338 28.1521C19.564 28.037 19.9093 28.1521 19.9668 28.4399L22.8442 35.1154C22.9593 35.3456 22.8442 35.6909 22.5565 35.7485C22.3263 35.806 22.0386 35.6909 21.9235 35.4607Z" fill="#6A3B00"/>
<path d="M23.1899 21.4767L32.1098 22.455C32.1098 22.455 32.3975 38.1656 21.003 35.8061C18.1256 35.3458 10.5293 33.9071 10.5293 33.9071C25.5493 37.6477 23.1899 21.4767 23.1899 21.4767Z" fill="white"/>
<path d="M13.4068 34.3674C13.2917 34.3674 13.1766 34.3099 13.119 34.3099C13.0615 34.3099 12.9464 34.3099 12.8888 34.3099C12.6586 34.2523 12.486 34.2523 12.2558 34.1948C11.6803 34.0797 11.1048 33.9646 10.5869 33.8495C11.335 33.9646 12.0256 34.1372 12.7737 34.2523C12.8888 34.2523 13.0039 34.3099 13.1766 34.3099C13.4068 34.3674 13.5219 34.3674 13.7521 34.3674H13.4068Z" fill="#464646"/>
<path d="M16.1115 34.7702C15.536 34.7702 15.7086 34.7702 15.4784 34.7702C14.6728 34.6551 13.8671 34.4249 13.0614 34.3098C13.0039 34.3098 12.8888 34.3098 12.8312 34.3098C12.601 34.2523 12.4284 34.2523 12.1982 34.1947C11.6227 34.0796 11.0472 33.9645 10.5293 33.8494C11.2774 33.9645 11.968 34.1372 12.7161 34.2523C13.0614 34.3098 13.0614 34.3098 13.4642 34.3674C15.7086 34.54 18.0105 34.3098 19.8521 32.8711C21.9813 31.2598 22.9021 28.6126 23.2474 26.0229C23.42 24.5842 23.42 22.8578 23.2474 21.4191L25.0314 21.5917C25.3191 25.2172 24.8587 29.8786 22.154 32.5834C20.9455 33.7919 19.4492 34.3674 17.8379 34.6551C17.4351 34.7127 17.2049 34.7127 16.802 34.7127L16.1115 34.7702Z" fill="#D80005"/>
<path d="M18.5294 35.2883C17.9539 35.2883 18.1266 35.2883 17.8964 35.2883C17.0907 35.1732 16.285 34.943 15.4794 34.8279C15.4218 34.8279 15.3067 34.8279 15.2492 34.8279C15.019 34.7703 14.8463 34.7703 14.6162 34.7128C14.0407 34.5977 13.4652 34.4826 12.9473 34.3675C13.6954 34.4826 14.386 34.6552 15.1341 34.7703C15.4794 34.8279 15.4794 34.8279 15.8822 34.8854C18.1266 35.0581 20.4285 34.8279 22.27 33.3892C24.3993 31.7778 25.3201 29.1306 25.6654 26.541C25.838 25.1023 25.838 23.3758 25.6654 21.9371L27.4494 22.1098C27.7371 25.7353 27.2767 30.3967 24.572 33.1014C23.3635 34.31 21.8672 34.8854 20.2559 35.1732C19.853 35.2307 19.6228 35.2307 19.22 35.2307L18.5294 35.2883Z" fill="#D80005"/>
<path d="M20.7736 35.7486C20.1981 35.7486 20.3707 35.7486 20.1405 35.7486C19.3349 35.6335 18.5292 35.4033 17.7235 35.2882C17.666 35.2882 17.5509 35.2882 17.4933 35.2882C17.2631 35.2307 17.0905 35.2307 16.8603 35.1731C16.2848 35.058 15.7093 34.9429 15.1914 34.8278C15.9395 34.9429 16.6301 35.1156 17.3782 35.2307C17.7235 35.2882 17.7235 35.2882 18.1264 35.3458C20.3707 35.5184 22.6726 35.2882 24.5142 33.8495C26.6435 32.2382 27.5642 29.591 27.9095 27.0013C28.0822 25.5626 28.0822 23.8362 27.9095 22.3975L29.6935 22.5701C29.9812 26.1956 29.5209 30.857 26.8161 33.5618C25.6076 34.7703 24.1113 35.3458 22.5 35.6335C22.0972 35.691 21.867 35.691 21.4641 35.7486H20.7736Z" fill="#D80005"/>
<path d="M23.4207 35.9788H22.4999H22.4424C23.4207 35.9212 24.3415 35.691 25.2047 35.2307C27.2189 34.1948 28.5425 32.2382 29.2906 30.1664C30.2114 27.6919 30.3265 25.0447 30.3265 22.3975H32.0529C32.0529 25.1022 31.5925 27.807 30.6717 30.2815C29.9812 32.0655 28.8302 33.792 27.2189 34.8278C26.5858 35.2307 25.8377 35.5184 25.1471 35.7486C24.8594 35.8061 24.6292 35.8637 24.3415 35.9212L23.4207 35.9788Z" fill="#D80005"/>
<path d="M30.9006 37.1872L20.9448 36.2664C20.657 36.2664 20.4844 35.9787 20.4844 35.7485C20.4844 35.4607 20.7721 35.2881 21.0023 35.2881L31.0157 36.2664C31.3034 36.2664 31.476 36.5541 31.476 36.7843C31.4185 37.0145 31.1883 37.2447 30.9006 37.1872Z" fill="#6A3B00"/>
<path d="M23.2467 40.9854L14.2117 39.0863C13.924 39.0288 13.7513 38.741 13.8089 38.5108C13.8089 38.4533 13.8089 38.3957 13.8664 38.3957L22.7288 21.2464L22.7864 21.1889C22.9015 21.1313 22.8439 21.1313 22.9015 21.0738C23.0166 21.0162 22.959 21.0738 23.0741 21.0162H23.1892L32.1091 21.9946C32.3969 22.0521 32.5695 22.2823 32.5695 22.57C32.5695 22.6276 32.5695 22.6851 32.512 22.7427L23.8222 40.6976C23.7071 40.9278 23.4769 41.0429 23.2467 40.9854ZM15.0749 38.2231L23.0741 39.892L31.3035 22.8002L23.4769 21.937L15.0749 38.2231Z" fill="#6A3B00"/>
<path d="M30.4987 36.8994L27.6213 30.6842C27.5062 30.454 27.6213 30.1087 27.8515 29.9936C28.0817 29.8785 28.427 29.9936 28.5421 30.2238L31.4195 36.439C31.5346 36.6692 31.4195 37.0145 31.1893 37.1296C30.9016 37.2447 30.6138 37.1296 30.4987 36.8994Z" fill="#6A3B00"/>
<path d="M20.8876 36.2089L10.4139 34.3098C10.1261 34.2522 9.95348 34.022 10.011 33.7343C10.0686 33.4466 10.2988 33.2739 10.5865 33.3315L21.0602 35.2305C21.348 35.2881 21.5206 35.5183 21.4631 35.806C21.4055 36.0938 21.1753 36.2664 20.8876 36.2089Z" fill="#6A3B00"/>
</svg>
