<svg width="40" height="41" viewBox="0 0 40 41" fill="none" xmlns="http://www.w3.org/2000/svg">
<path d="M19.5321 0C8.73806 0 0 8.96211 0 20.0329C0 31.1038 8.73806 40.0659 19.5321 40.0659C30.3262 40.0659 39.0643 31.1038 39.0643 20.0329C39 8.96211 30.2619 0 19.5321 0Z" fill="#F2F2F2"/>
<path d="M37.9718 19.8353L33.9883 21.5486L29.4265 14.6953L28.9125 7.11701L33.0245 6.39213L36.3013 9.81882C35.8516 9.02805 35.2733 8.23727 34.6951 7.4465L33.3458 6.19444L33.41 5.99675C30.2618 2.70185 26.0855 0.593121 21.3952 0.131836L21.074 2.76775L13.4924 6.12854H7.58138L8.03114 3.82212C7.77413 4.01981 7.51713 4.2175 7.32438 4.4152L7.06738 6.45803L2.82685 13.1137L0.449587 15.6178C0.385337 15.9473 0.321086 16.2109 0.256836 16.5404L2.7626 13.7068L5.65387 18.9786L5.52537 27.5453L3.59786 29.9177L1.8631 28.4679C2.05585 28.9292 2.31285 29.3905 2.5056 29.7859L3.08385 30.1813L2.95535 30.5107C3.08385 30.7084 3.21235 30.972 3.34086 31.1697C3.34086 31.0379 3.34086 30.8402 3.34086 30.7084L8.22389 36.3098C9.50889 37.2323 10.9867 38.0231 12.4644 38.6162L15.2272 39.1434L20.046 39.9341C20.817 39.9341 21.5237 39.8682 22.2305 39.7364L15.3557 38.4185L14.3919 33.3444L21.7807 29.2587L29.555 30.6425V36.1121L24.4792 39.2093C27.242 38.4185 29.7478 37.1005 31.868 35.2554L30.1333 35.7826V30.3131L34.0526 22.2076L38.0361 20.4943L38.8071 22.9325C38.9356 21.944 38.9998 20.9556 38.9998 19.9671C38.9998 17.8584 38.6786 15.7496 38.0361 13.8386L37.9718 19.8353ZM14.0707 32.8831L6.10362 27.6771L6.23212 19.1104L12.7857 14.5635L21.074 18.8468L21.588 28.7974L14.0707 32.8831ZM21.3952 18.1878L13.1069 13.9045L13.8779 6.52393L21.3952 3.09724L28.27 6.91932L28.784 14.4976L21.3952 18.1878Z" fill="#303030"/>
</svg>
