<svg width="20" height="18" viewBox="0 0 20 18" fill="none" xmlns="http://www.w3.org/2000/svg">
<path d="M19.5 4H0.5V1C0.5 0.734784 0.61121 0.48043 0.809165 0.292893C1.00712 0.105357 1.2756 0 1.55556 0H18.4444C18.7244 0 18.9929 0.105357 19.1908 0.292893C19.3888 0.48043 19.5 0.734784 19.5 1V4ZM0.5 17V6H19.5V17C19.5 17.2652 19.3888 17.5196 19.1908 17.7071C18.9929 17.8946 18.7244 18 18.4444 18H1.55556C1.2756 18 1.00712 17.8946 0.809165 17.7071C0.61121 17.5196 0.5 17.2652 0.5 17ZM3.66667 11H16.3333V9H3.66667V11ZM3.66667 15H10V13H3.66667V15Z" fill="#2B92D5"/>
</svg>
