<svg width="17" height="14" viewBox="0 0 17 14" fill="none" xmlns="http://www.w3.org/2000/svg">
<path d="M8.5 0C4.64022 0 1.5 3.14013 1.5 6.99996C1.5 10.8598 4.64022 14 8.5 14C12.3598 14 15.5 10.8598 15.5 6.99996C15.5 3.14013 12.3598 0 8.5 0ZM12.5195 5.81761L8.12178 10.2153C7.93479 10.4023 7.68622 10.5052 7.4218 10.5052C7.15738 10.5052 6.90881 10.4023 6.72182 10.2153L4.48048 7.974C4.29348 7.78701 4.19049 7.53844 4.19049 7.27402C4.19049 7.00953 4.29348 6.76097 4.48048 6.57397C4.6674 6.38698 4.91596 6.28399 5.18045 6.28399C5.44487 6.28399 5.69351 6.38698 5.88043 6.57405L7.42173 8.11526L11.1194 4.41759C11.3064 4.2306 11.555 4.12768 11.8194 4.12768C12.0838 4.12768 12.3324 4.2306 12.5194 4.41759C12.9055 4.8037 12.9055 5.43165 12.5195 5.81761Z" fill="#19C800"/>
</svg>
