<svg width="17" height="14" viewBox="0 0 17 14" fill="none" xmlns="http://www.w3.org/2000/svg">
<path d="M8.5 0C7.11553 0 5.76216 0.410543 4.61101 1.17971C3.45987 1.94888 2.56266 3.04213 2.03285 4.32121C1.50303 5.6003 1.36441 7.00776 1.63451 8.36563C1.9046 9.7235 2.57129 10.9708 3.55026 11.9497C4.52922 12.9287 5.7765 13.5954 7.13437 13.8655C8.49224 14.1356 9.8997 13.997 11.1788 13.4672C12.4579 12.9373 13.5511 12.0401 14.3203 10.889C15.0895 9.73784 15.5 8.38447 15.5 7C15.5 6.08075 15.3189 5.17049 14.9672 4.32121C14.6154 3.47194 14.0998 2.70026 13.4497 2.05025C12.7997 1.40024 12.0281 0.884626 11.1788 0.532843C10.3295 0.18106 9.41925 0 8.5 0ZM11.097 8.603C11.1626 8.66807 11.2147 8.74549 11.2502 8.83079C11.2858 8.91609 11.3041 9.00759 11.3041 9.1C11.3041 9.19241 11.2858 9.2839 11.2502 9.3692C11.2147 9.4545 11.1626 9.53192 11.097 9.597C11.0319 9.66261 10.9545 9.71468 10.8692 9.75022C10.7839 9.78576 10.6924 9.80406 10.6 9.80406C10.5076 9.80406 10.4161 9.78576 10.3308 9.75022C10.2455 9.71468 10.1681 9.66261 10.103 9.597L8.5 7.994L6.897 9.597C6.83193 9.66261 6.75451 9.71468 6.66921 9.75022C6.5839 9.78576 6.49241 9.80406 6.4 9.80406C6.30759 9.80406 6.2161 9.78576 6.1308 9.75022C6.0455 9.71468 5.96808 9.66261 5.903 9.597C5.83739 9.53192 5.78532 9.4545 5.74978 9.3692C5.71424 9.2839 5.69594 9.19241 5.69594 9.1C5.69594 9.00759 5.71424 8.91609 5.74978 8.83079C5.78532 8.74549 5.83739 8.66807 5.903 8.603L7.506 7L5.903 5.397C5.77119 5.26519 5.69714 5.08641 5.69714 4.9C5.69714 4.71359 5.77119 4.53481 5.903 4.403C6.03481 4.27119 6.21359 4.19713 6.4 4.19713C6.58641 4.19713 6.76519 4.27119 6.897 4.403L8.5 6.006L10.103 4.403C10.2348 4.27119 10.4136 4.19713 10.6 4.19713C10.7864 4.19713 10.9652 4.27119 11.097 4.403C11.2288 4.53481 11.3029 4.71359 11.3029 4.9C11.3029 5.08641 11.2288 5.26519 11.097 5.397L9.494 7L11.097 8.603Z" fill="#FF0000"/>
</svg>
