<svg width="20" height="20" viewBox="0 0 20 20" fill="none" xmlns="http://www.w3.org/2000/svg">
<path d="M10 0C8.02219 0 6.08879 0.58649 4.4443 1.6853C2.79981 2.78412 1.51809 4.3459 0.761209 6.17316C0.00433286 8.00042 -0.1937 10.0111 0.192152 11.9509C0.578004 13.8907 1.53041 15.6725 2.92894 17.0711C4.32746 18.4696 6.10929 19.422 8.0491 19.8078C9.98891 20.1937 11.9996 19.9957 13.8268 19.2388C15.6541 18.4819 17.2159 17.2002 18.3147 15.5557C19.4135 13.9112 20 11.9778 20 10C20 8.68678 19.7413 7.38642 19.2388 6.17316C18.7362 4.95991 17.9997 3.85752 17.0711 2.92893C16.1425 2.00035 15.0401 1.26375 13.8268 0.761204C12.6136 0.258658 11.3132 0 10 0ZM13.71 12.29C13.8037 12.383 13.8781 12.4936 13.9289 12.6154C13.9797 12.7373 14.0058 12.868 14.0058 13C14.0058 13.132 13.9797 13.2627 13.9289 13.3846C13.8781 13.5064 13.8037 13.617 13.71 13.71C13.617 13.8037 13.5064 13.8781 13.3846 13.9289C13.2627 13.9797 13.132 14.0058 13 14.0058C12.868 14.0058 12.7373 13.9797 12.6154 13.9289C12.4936 13.8781 12.383 13.8037 12.29 13.71L10 11.42L7.71 13.71C7.61704 13.8037 7.50644 13.8781 7.38458 13.9289C7.26272 13.9797 7.13201 14.0058 7 14.0058C6.86799 14.0058 6.73729 13.9797 6.61543 13.9289C6.49357 13.8781 6.38297 13.8037 6.29 13.71C6.19627 13.617 6.12188 13.5064 6.07111 13.3846C6.02034 13.2627 5.9942 13.132 5.9942 13C5.9942 12.868 6.02034 12.7373 6.07111 12.6154C6.12188 12.4936 6.19627 12.383 6.29 12.29L8.58 10L6.29 7.71C6.1017 7.52169 5.99591 7.2663 5.99591 7C5.99591 6.7337 6.1017 6.4783 6.29 6.29C6.47831 6.10169 6.7337 5.99591 7 5.99591C7.2663 5.99591 7.5217 6.10169 7.71 6.29L10 8.58L12.29 6.29C12.4783 6.10169 12.7337 5.99591 13 5.99591C13.2663 5.99591 13.5217 6.10169 13.71 6.29C13.8983 6.4783 14.0041 6.7337 14.0041 7C14.0041 7.2663 13.8983 7.52169 13.71 7.71L11.42 10L13.71 12.29Z" fill="#2B92D5"/>
</svg>
