<svg width="20" height="20" viewBox="0 0 20 20" fill="none" xmlns="http://www.w3.org/2000/svg">
<path d="M6.33618 12.4925C6.2512 12.4997 6.16643 12.5034 6.08145 12.5034C5.84898 12.5034 5.62288 12.4695 5.40148 12.418L0.278437 17.5645C0.0269792 17.8167 0.0269792 18.2264 0.278437 18.4787L1.60433 19.8109C1.85579 20.0632 2.26319 20.0632 2.51396 19.8109L8.67117 13.6269L7.5301 12.3901L6.33618 12.4925Z" fill="#2B92D5"/>
<path d="M19.8187 4.24742C19.5783 4.00602 19.1891 4.00602 18.9488 4.24742L15.6288 7.58238C15.3147 7.89762 14.8058 7.89762 14.4917 7.58238C14.1789 7.26739 14.1789 6.75665 14.4917 6.44174L17.7952 3.12388C18.0448 2.87292 18.0448 2.46609 17.7952 2.21455C17.5445 1.96392 17.1396 1.96392 16.8901 2.21455L13.5879 5.53208C13.2737 5.84765 12.7655 5.84765 12.4513 5.53208C12.1378 5.21721 12.1378 4.7061 12.4513 4.39148L15.7706 1.05685C16.0117 0.815076 16.0117 0.423459 15.7706 0.181359C15.5301 -0.0604531 15.1403 -0.0604531 14.8993 0.181359L11.1646 3.93317C10.2667 4.83573 9.98308 6.10263 10.2738 7.25541L12.7773 9.77051C13.9248 10.0615 15.1866 9.77641 16.0835 8.87459L19.8187 5.12299C20.0598 4.88122 20.0598 4.48919 19.8187 4.24742Z" fill="#2B92D5"/>
<path d="M1.67799 0.519912C1.55001 0.391314 1.37696 0.320801 1.19925 0.320801C1.16143 0.320801 1.12342 0.324041 1.0863 0.330276C0.870081 0.36703 0.684571 0.506457 0.589263 0.704911C-0.50469 2.97631 -0.0475081 5.69421 1.7283 7.47816L4.90525 10.6691C5.2187 10.9844 5.64252 11.1589 6.08206 11.1589C6.12906 11.1589 6.17618 11.1569 6.22318 11.153L8.06771 10.9949L16.1109 19.7112C16.2358 19.8467 16.4107 19.9253 16.595 19.929C16.5988 19.929 16.6028 19.929 16.6068 19.929C16.7869 19.929 16.9594 19.8575 17.0874 19.7298L18.4649 18.3458C18.5922 18.2182 18.6633 18.0451 18.6633 17.8646C18.6633 17.6842 18.5922 17.5109 18.4655 17.3834L1.67799 0.519912Z" fill="#2B92D5"/>
</svg>
