<svg width="69" height="61" viewBox="0 0 69 61" fill="none" xmlns="http://www.w3.org/2000/svg">
<mask id="mask0_549_11815" style="mask-type:alpha" maskUnits="userSpaceOnUse" x="0" y="0" width="69" height="61">
<rect width="69" height="61" rx="10" fill="#FFA41B"/>
</mask>
<g mask="url(#mask0_549_11815)">
<path d="M69.098 33.9517C69.098 34.4659 69.098 34.9158 69.098 35.43C69.0338 37.1653 68.841 38.9006 68.4553 40.5716C68.3911 40.893 68.3268 41.1501 68.2625 41.4071C66.2701 50.3408 60.8071 57.989 53.2875 62.745C48.4029 65.8942 42.6185 67.8224 36.5128 68.0794C35.9987 68.0794 35.4202 68.1437 34.9061 68.1437C31.1784 68.1437 27.5792 67.5653 24.2371 66.4727C16.7175 64.0304 10.3547 59.0816 6.17709 52.5902C5.08448 50.9192 4.1847 49.1839 3.34918 47.32C1.61387 43.271 0.649811 38.7078 0.649811 33.9517C0.649811 15.0562 15.9462 -0.240234 34.8418 -0.240234C53.7374 -0.240234 69.098 15.0562 69.098 33.9517Z" fill="#39B8FF"/>
<path d="M79 34.5C79 35.1692 79 35.7547 79 36.4239C78.9164 38.6823 78.6657 40.9408 78.1643 43.1156C78.0807 43.5338 77.9972 43.8684 77.9136 44.203C75.323 55.8299 68.2197 65.7838 58.4423 71.9737C52.0911 76.0724 44.57 78.5818 36.631 78.9164C35.9624 78.9164 35.2103 79 34.5418 79C29.6948 79 25.015 78.2472 20.6695 76.8252C10.892 73.6466 2.61878 67.2058 -2.81315 58.7575C-4.2338 56.5827 -5.40376 54.3242 -6.49014 51.8985C-8.74648 46.6288 -10 40.6898 -10 34.5C-10 9.90789 9.8892 -10 34.4582 -10C59.0272 -10 79 9.90789 79 34.5Z" fill="#D4F9FF"/>
<path d="M56.563 67.7316C50.4181 71.6871 43.1413 74.1088 35.4601 74.4317C34.8133 74.4317 34.0856 74.5125 33.4388 74.5125C28.7493 74.5125 24.2214 73.7859 20.017 72.4136C10.5571 69.2653 2.55258 63.0495 -2.70293 54.8963C-4.07745 52.7974 -5.2094 50.6178 -6.26051 48.2768C5.22076 45.1285 17.5914 45.3707 28.911 49.0841C31.5791 49.972 34.1665 51.0215 36.6729 52.2323C37.0772 52.3938 37.4815 52.636 37.8858 52.8781C38.29 53.1203 38.6943 53.2818 39.0986 53.5239C45.7286 57.1566 51.7118 62.0001 56.563 67.7316Z" fill="#91D194"/>
<path d="M59.0107 45.7859C57.5324 41.7368 55.1544 37.9449 52.1337 34.7956C51.2982 33.8958 50.2699 32.996 48.9844 32.9318C47.442 32.8675 46.1565 34.0244 45.1925 35.2455C43.1358 38.0091 41.9147 41.2869 40.9506 44.5647C39.9866 47.9068 39.2153 51.2489 37.8656 54.3982C41.4005 52.47 44.8711 50.6705 48.5345 49.128C51.9409 47.7783 55.4115 46.4286 59.0107 45.7859Z" fill="#9CCC92"/>
<path d="M68.9727 37.4305C68.9084 39.1658 68.7156 40.9011 68.33 42.5721C68.2657 42.8935 68.2014 43.1506 68.1372 43.4076C63.5097 44.6288 58.8822 45.9142 54.2547 47.1353C54.3832 47.1353 54.4475 47.0068 54.5118 46.8783C54.8331 46.2355 54.8974 44.5645 54.9617 43.9861C54.9617 43.9218 54.9617 43.9218 54.9617 43.8575C55.1545 42.5079 55.4758 41.0939 55.99 39.6799C56.2471 38.9087 56.5684 38.0732 56.9541 37.3662C57.4682 36.2736 58.0467 35.3095 58.7536 34.4098C60.2961 32.4816 62.4813 32.1603 64.538 33.2529C66.2733 34.2812 67.7515 35.7594 68.9727 37.4305Z" fill="#9CCC92"/>
<path d="M48.2686 15.8211C50.4694 15.8211 52.2534 14.0371 52.2534 11.8363C52.2534 9.63561 50.4694 7.85156 48.2686 7.85156C46.0679 7.85156 44.2839 9.63561 44.2839 11.8363C44.2839 14.0371 46.0679 15.8211 48.2686 15.8211Z" fill="#FDFF84"/>
<path d="M26.7245 42.4663C26.7245 40.2153 28.0083 38.0798 29.7201 36.406C31.4318 34.7899 33.5104 33.5778 35.5889 32.4234C32.1043 33.0006 28.8642 34.7321 26.8468 37.4449C26.1743 33.5201 27.6415 29.2489 30.6982 26.4785C28.4363 26.8825 26.5411 28.4986 25.9909 30.6342C24.5237 27.9792 21.895 25.9013 18.8994 25.0933C20.2444 26.0745 21.5893 27.0557 22.6897 28.2677C23.7901 29.4798 24.7071 30.9228 24.9517 32.4811C25.1351 33.7509 24.9517 35.0207 24.7683 36.2905C24.4015 38.4838 24.0958 40.5616 23.729 42.8126C22.2007 40.7925 20.4889 38.8878 18.5938 37.214C17.799 36.5214 16.882 35.7711 15.7816 35.8865C17.1877 36.5214 18.2881 37.5603 19.2051 38.7724C20.061 39.9267 20.7335 41.1965 21.3448 42.4663C19.2662 42.2932 17.1266 42.0623 15.048 41.8892C16.1484 42.3509 17.31 42.7549 18.4715 43.0435C20.1221 43.4475 21.7116 43.4475 22.6286 44.9482C23.729 46.7374 23.7901 49.0462 23.5456 51.0663C23.4233 52.0475 23.2399 53.0287 23.1177 54.0099C23.0565 54.6448 22.6897 57.0112 21.9561 57.2421C21.3448 57.4152 20.978 58.5696 21.4671 59.0313C21.895 59.4354 22.5063 59.3777 23.0565 59.3777C25.6241 59.3199 28.1917 59.7817 30.5759 60.6474C27.8861 56.7226 26.6634 51.9898 27.0302 47.3723C27.1525 45.9871 27.4581 44.5442 28.4974 43.563C29.3533 42.7549 30.5759 42.3509 31.7986 42.0623C32.9601 41.716 34.1217 41.4274 35.2832 41.0811C32.2265 40.0999 29.231 40.7348 26.7245 42.4663Z" fill="#77383D"/>
<path d="M20.3055 43.1006C20.4277 44.3704 19.5719 45.6402 18.3492 46.102C17.1265 46.5637 15.5982 46.102 14.8034 45.1208C14.1921 45.3516 13.5808 45.4671 12.9694 45.4094C12.3581 45.2939 11.7468 44.9476 11.5022 44.3704C11.3188 43.7933 11.6245 43.1006 12.2358 42.9275C11.4411 42.9275 10.6464 42.8121 9.97389 42.408C9.36256 42.004 8.93462 41.1382 9.36256 40.5033C9.66822 39.9262 10.3407 39.6953 10.952 39.753C11.5634 39.8107 12.1136 40.0416 12.6638 40.3302C11.9302 39.6376 11.8079 38.4832 12.4192 37.6752C12.9694 36.8671 14.1921 36.5208 15.1091 36.8671C16.0261 37.2134 16.6374 38.2523 16.5152 39.1758C17.1265 37.9638 19.0828 37.6752 20.0609 38.5987C21.0391 39.5221 20.7334 41.3691 19.4496 41.9463" fill="#579C41"/>
<path d="M16.8209 31.6152C15.965 30.9803 14.5589 31.2112 14.0087 32.077C14.1921 31.1535 13.8253 30.1723 13.0306 29.5951C12.2359 29.0757 11.0743 29.0179 10.2796 29.5951C9.546 30.1723 9.30146 31.3267 9.85166 32.077C9.11806 31.4421 7.65086 31.7884 7.28406 32.7696C6.91725 33.7508 7.83426 34.8474 8.87353 34.7897C7.89539 34.9052 7.16179 35.8864 7.34519 36.8098C7.52859 37.7333 8.44559 38.4259 9.42373 38.4837C10.4019 38.5414 11.38 37.9065 11.7468 37.0407C11.4411 38.2528 12.7249 39.5803 14.0699 39.4071C15.4148 39.234 16.2095 37.6179 15.5371 36.5213C16.1484 36.8098 17.0043 36.579 17.3099 36.0018C17.5545 35.5978 17.4934 35.2515 17.3711 34.8474C17.2488 34.2703 17.2488 34.3857 17.3711 33.8085C17.5545 33.0005 17.6768 32.1924 16.8209 31.6152Z" fill="#579C41"/>
<path d="M17.9825 18.4554C16.393 18.2822 14.7424 19.3211 14.3145 20.7641C13.8865 22.207 14.7424 23.9386 16.2707 24.5158C15.2926 24.6312 14.6813 25.7278 15.0481 26.5936C15.4149 27.4594 16.6987 27.748 17.4934 27.2285C16.3319 27.9211 16.1485 29.7681 17.2489 30.5761C18.3493 31.3842 20.2444 30.8647 20.6723 29.5949C20.2444 30.403 20.7946 31.4996 21.7116 31.615C22.6286 31.7882 23.5456 30.9224 23.4234 30.0567C24.3404 30.5761 25.563 30.4607 26.2966 29.7681C27.0914 29.0755 27.2748 27.9211 26.8468 27.0553C26.3578 26.1896 25.2574 25.6701 24.2792 25.8433C24.8294 25.6124 25.1962 24.9775 24.9517 24.4003C24.7683 23.8809 24.0347 23.5346 23.4234 23.7077C24.2792 23.1305 24.3404 21.8607 23.6679 21.1681C23.24 20.7641 22.6286 20.6487 22.0173 20.7641C21.2226 20.8795 21.2837 21.2836 20.7946 20.6487C19.9387 19.6675 19.5719 18.6285 17.9825 18.4554Z" fill="#579C41"/>
<path d="M26.2354 22.2651C25.5018 21.5725 25.1961 20.4758 25.4407 19.4946C25.7463 18.5134 26.5411 17.7054 27.5803 17.4745C28.6196 17.1859 29.7811 17.4745 30.5147 18.2248C30.8815 17.3591 31.9819 16.7819 32.8989 16.955C33.8771 17.1282 34.6107 17.994 34.6107 18.9174C34.6107 19.8409 33.8771 20.7067 32.8989 20.8798C33.6937 20.7644 34.3662 21.6879 34.3662 22.4382C34.3662 23.1886 33.5714 23.8235 32.7767 23.7657C33.3269 24.3429 33.6326 24.9778 33.5714 25.7281C33.5103 26.4785 32.9601 27.2288 32.2265 27.5174C31.4929 27.806 30.4536 27.5751 30.0257 26.8825C30.1479 27.5751 29.9645 28.21 29.4755 28.7872C29.1698 29.1335 28.803 29.3644 28.3139 29.4798C27.886 29.5375 27.3358 29.4221 27.0301 29.0758C26.7245 28.7295 26.6633 28.21 26.969 27.8637C26.4188 28.3254 25.3795 28.2677 24.7682 27.8637C24.1569 27.4597 23.8512 26.6516 24.0957 25.959C24.3403 25.2664 25.135 24.8047 25.8686 24.9201C25.2573 25.2087 24.4625 24.4584 24.3403 23.8235C24.4014 23.1308 25.5018 22.2074 26.2354 22.2651Z" fill="#579C41"/>
<path d="M29.9644 31.4996C29.292 31.2687 28.4972 31.4419 28.0082 31.9613C27.5191 32.4808 27.4579 33.2311 27.7636 33.8083C28.0693 34.3855 28.8029 34.7895 29.5365 34.6741C28.8029 35.0204 28.5584 36.117 28.864 36.8673C29.1697 37.6177 30.1478 38.0217 31.0037 37.8485C31.8596 37.6754 32.4709 36.9251 32.5932 36.1747C32.7766 36.6365 32.96 37.1559 33.2656 37.5022C33.5713 37.9063 34.0604 38.1948 34.5494 38.1948C35.0385 38.1948 35.5276 37.8485 35.8944 37.5022C36.5057 36.8096 36.8725 36.0016 37.2393 35.1358C37.7284 35.8861 38.8288 36.0593 39.5624 35.5398C40.296 35.0204 40.3571 33.866 39.6847 33.2311C40.8462 33.462 42.13 33.058 42.9247 32.2499C43.6583 31.3841 43.8417 30.0566 43.1081 29.1331C42.3745 28.2097 40.9073 27.9788 39.9903 28.7291C40.4794 28.0942 40.0515 27.113 39.2567 26.8244C38.462 26.5358 37.6061 26.8822 37.0559 27.4593C36.5057 28.0365 36.2612 28.8446 36.1389 29.5949C35.4664 28.556 33.9992 28.0942 32.8377 28.4983C31.4316 28.9023 29.781 30.2875 29.9644 31.4996Z" fill="#579C41"/>
<path d="M30.2701 45.1789C31.1871 45.0634 31.9207 44.3131 32.1653 43.505C32.1653 44.6594 33.5102 45.6406 34.6717 45.2943C35.8333 45.0057 36.5058 43.505 35.8333 42.5238C36.7503 43.1587 38.2175 43.0433 39.0122 42.293C39.807 41.4849 39.9292 40.1574 39.1956 39.2916C38.5232 38.4259 37.1171 38.1373 36.0778 38.6567C36.3224 37.3292 35.0997 36.0017 33.6936 36.0594C32.2875 36.1172 31.1871 37.5601 31.5539 38.8299C31.3094 38.0796 29.4754 38.195 28.9252 38.3681C27.7637 38.8299 27.5191 39.9265 27.5191 41.0232C27.6414 42.5816 28.0693 45.4674 30.2701 45.1789Z" fill="#579C41"/>
<path d="M61.1284 27.396H52.9018C52.8375 26.7533 53.0946 26.2391 53.6088 25.7892C54.1229 25.3393 54.7656 25.2108 55.4083 25.3393C55.2155 24.6324 55.6011 23.8611 56.1796 23.4755C56.758 23.0899 57.5935 23.0899 58.172 23.5398C58.7504 23.9897 59.0075 24.7609 58.7504 25.4679C59.2646 25.1465 59.9715 25.1465 60.4857 25.4679C60.9999 25.8535 61.1927 26.8176 61.1284 27.396Z" fill="white"/>
<path d="M39.2122 8.50072H27.0008C26.9365 7.66521 27.2579 6.70115 28.0291 6.31552C28.7361 5.9299 29.7002 5.99417 30.3429 6.50833C30.2143 5.67282 30.1501 4.70876 30.7285 4.00178C31.3069 3.35907 32.271 3.03772 33.1065 3.2948C33.942 3.55189 34.5848 4.3874 34.5205 5.28719C34.8418 4.90157 35.5488 4.70876 36.063 4.90157C36.5771 5.09438 36.8985 5.67282 36.8342 6.25125C37.3484 5.54428 38.3767 5.28719 39.0837 5.80136C39.8549 6.31552 39.5979 7.72948 39.2122 8.50072Z" fill="white"/>
<path d="M11.7686 25.5325H4.44179C4.31325 24.7612 4.50606 23.9257 5.21304 23.4758C5.92002 23.0902 6.81981 23.1545 7.46251 23.6686C7.2697 22.6403 7.78386 21.5477 8.74792 21.1621C9.71198 20.7765 10.9974 21.1621 11.5758 22.0619C12.1543 22.8974 12.5399 24.7612 11.7686 25.5325Z" fill="white"/>
<path d="M75.2605 40.1442C75.1801 40.5448 75.0996 40.8652 75.0192 41.1857C72.5255 52.3214 65.6878 61.8549 56.276 67.7832C50.1624 71.7088 42.9226 74.1122 35.2805 74.4326C34.637 74.4326 33.913 74.5127 33.2694 74.5127C28.6038 74.5127 24.099 73.7917 19.916 72.4298C21.4444 69.4656 23.2946 66.5815 25.3056 63.9378C28.5233 59.6918 32.3846 55.8464 36.5676 52.5617C37.2111 52.0811 37.8547 51.6004 38.4982 51.1197C39.7049 50.2384 40.9115 49.4373 42.1986 48.7163C47.2665 45.672 52.817 43.4288 58.5284 41.9868C59.7351 41.6663 61.0222 41.426 62.3092 41.1857C66.4923 40.3845 70.8362 39.984 75.2605 40.1442Z" fill="#69B838"/>
<path d="M34.874 72.9367C34.2275 72.9367 33.5002 73.0167 32.8537 73.0167C28.1666 73.0167 23.6412 72.2973 19.439 70.9384C9.98412 67.821 1.98382 61.6662 -3.26891 53.5929C4.40815 53.3531 12.0852 55.1117 18.8733 58.6287C20.9744 59.7478 22.9947 60.9468 24.8534 62.3856C28.7323 65.3431 32.1264 68.8601 34.874 72.9367Z" fill="#66AA39"/>
</g>
</svg>
