<svg width="69" height="61" viewBox="0 0 69 61" fill="none" xmlns="http://www.w3.org/2000/svg">
<mask id="mask0_637_441" style="mask-type:alpha" maskUnits="userSpaceOnUse" x="0" y="0" width="69" height="61">
<rect width="69" height="61" rx="10" fill="#FFA41B"/>
</mask>
<g mask="url(#mask0_637_441)">
<path d="M81 30C81 30.7218 81 31.3534 80.9099 32.0752C80.8197 34.5113 80.5493 36.9474 80.0986 39.2932C80.0084 39.7444 79.9183 40.1053 79.8282 40.4662C77.0338 53.0075 69.3718 63.7444 58.8254 70.4211C51.9746 74.8421 43.862 77.5489 35.2986 77.9098C34.5775 77.9098 33.7662 78 33.0451 78C27.8169 78 22.769 77.188 18.0817 75.6541C7.53521 72.2256 -1.38873 65.2782 -7.24789 56.1654C-8.78028 53.8195 -10.0423 51.3835 -11.2141 48.7669C-13.6479 43.0827 -15 36.6767 -15 30C-15 3.47369 6.45352 -18 32.9549 -18C59.4563 -18 81 3.47369 81 30Z" fill="#AAEBFF"/>
<path d="M46.3427 62.2108C40.8161 65.7741 34.2714 67.9556 27.3632 68.2465C26.7814 68.2465 26.1269 68.3192 25.5452 68.3192C21.3275 68.3192 17.2553 67.6647 13.4739 66.4285C4.96581 63.5925 -2.23333 57.9932 -6.96005 50.6486C-8.19626 48.7579 -9.21433 46.7945 -10.1597 44.6856C0.166382 41.8496 11.2923 42.0678 21.4729 45.4128C23.8727 46.2127 26.1997 47.1581 28.4539 48.2489C28.8175 48.3943 29.1811 48.6125 29.5447 48.8306C29.9083 49.0488 30.2719 49.1942 30.6355 49.4124C36.5984 52.6847 41.9796 57.0478 46.3427 62.2108Z" fill="#56977F"/>
<path d="M63.4039 41.4929C61.7314 36.9116 59.0408 32.6212 55.623 29.058C54.6777 28.04 53.5142 27.0219 52.0598 26.9492C50.3146 26.8765 48.8602 28.1854 47.7694 29.5671C45.4424 32.694 44.0608 36.4026 42.97 40.1113C41.8792 43.8926 41.0066 47.674 39.4795 51.2372C43.479 49.0557 47.4058 47.0195 51.5508 45.2743C55.4049 43.7472 59.3317 42.2201 63.4039 41.4929Z" fill="#83BDBF"/>
<path d="M74.6753 32.0394C74.6025 34.0028 74.3844 35.9663 74.0208 37.8569C73.9481 38.2205 73.8753 38.5114 73.8026 38.8023C68.5669 40.1839 63.3311 41.6383 58.0954 43.02C58.2408 43.02 58.3136 42.8745 58.3863 42.7291C58.7499 42.0019 58.8226 40.1112 58.8953 39.4567C58.8953 39.384 58.8953 39.384 58.8953 39.3113C59.1135 37.7842 59.4771 36.1844 60.0588 34.5846C60.3497 33.712 60.7133 32.7666 61.1496 31.9667C61.7313 30.7305 62.3858 29.6397 63.1857 28.6217C64.931 26.4401 67.4034 26.0765 69.7304 27.3127C71.6211 28.4762 73.2936 30.1488 74.6753 32.0394Z" fill="#83BDBF"/>
<path d="M80.1933 39.3157C80.103 39.7572 80.0127 40.1104 79.9224 40.4635C77.1235 52.7362 69.4491 63.2431 58.8855 69.7767C52.0236 74.1031 43.8978 76.7519 35.3205 77.105C34.5982 77.105 33.7856 77.1933 33.0633 77.1933C27.8266 77.1933 22.7706 76.3987 18.0756 74.8977C19.7911 71.6309 21.7774 68.4523 24.1249 65.5387C27.7364 60.8591 32.0702 56.6211 36.7651 53.0011C37.4874 52.4713 38.2097 51.9416 38.932 51.4118C40.2863 50.4406 41.6406 49.5577 43.0852 48.763C48.7733 45.4079 55.0031 42.9357 61.4135 41.3465C62.7678 40.9933 64.2124 40.7284 65.657 40.4635C70.352 39.5806 75.2275 39.1391 80.1933 39.3157Z" fill="#7CAD6C"/>
<path d="M27.3629 68.2465C26.7811 68.2465 26.1266 68.3192 25.5449 68.3192C21.3272 68.3192 17.255 67.6648 13.4736 66.4285C4.9655 63.5925 -2.23364 57.9932 -6.96036 50.6486C-0.124803 50.4304 6.85619 52.0302 12.9646 55.2299C14.8552 56.2479 16.6005 57.3387 18.3457 58.6476C21.8362 61.3382 24.8904 64.5379 27.3629 68.2465Z" fill="#649754"/>
<path d="M50.8195 13.6055C53.3095 13.6055 55.328 11.5869 55.328 9.09694C55.328 6.60693 53.3095 4.58838 50.8195 4.58838C48.3295 4.58838 46.3109 6.60693 46.3109 9.09694C46.3109 11.5869 48.3295 13.6055 50.8195 13.6055Z" fill="white"/>
<path d="M24.6064 37.8194C24.6064 35.2973 25.9645 32.9045 27.7753 31.029C29.5861 29.2182 31.7849 27.8601 33.9837 26.5667C30.2974 27.2134 26.8699 29.1535 24.7357 32.1931C24.0244 27.7955 25.5765 23.0098 28.81 19.9056C26.4172 20.3583 24.4124 22.1691 23.8304 24.5619C22.2783 21.5871 19.4974 19.2589 16.3285 18.3535C17.7513 19.4529 19.1741 20.5523 20.3381 21.9104C21.5022 23.2685 22.4723 24.8853 22.731 26.6314C22.925 28.0541 22.7309 29.4769 22.5369 30.8997C22.1489 33.3572 21.8256 35.6853 21.4375 38.2075C19.8208 35.944 18.01 33.8098 16.0052 31.9344C15.1645 31.1583 14.1944 30.3176 13.0303 30.447C14.5178 31.1583 15.6818 32.3224 16.6519 33.6805C17.5573 34.9739 18.2687 36.3967 18.9154 37.8194C16.7166 37.6254 14.4531 37.3667 12.2543 37.1727C13.4183 37.6901 14.6471 38.1428 15.8758 38.4661C17.622 38.9188 19.3034 38.9188 20.2735 40.6003C21.4375 42.6051 21.5022 45.1919 21.2435 47.4554C21.1142 48.5548 20.9202 49.6542 20.7908 50.7536C20.7262 51.465 20.3381 54.1165 19.5621 54.3752C18.9154 54.5692 18.5273 55.8626 19.0447 56.38C19.4974 56.8327 20.1441 56.768 20.7262 56.768C23.4423 56.7033 26.1585 57.2207 28.6807 58.1908C25.8351 53.7931 24.5417 48.4901 24.9298 43.3165C25.0591 41.7644 25.3825 40.1476 26.4819 39.0482C27.3873 38.1428 28.6807 37.6901 29.9741 37.3667C31.2028 36.9787 32.4316 36.6554 33.6603 36.2673C30.4268 35.1679 27.2579 35.8793 24.6064 37.8194Z" fill="#77383D"/>
<path d="M26.0293 24.4975C25.9647 23.2687 26.9347 22.04 28.0988 21.7813C29.3275 21.5226 30.621 22.2987 31.0737 23.4627C31.5264 24.6268 31.009 26.0496 29.9096 26.6963C30.815 26.1142 32.2377 26.3729 32.8198 27.2783C33.4018 28.1837 33.2078 29.5418 32.3671 30.2532C31.5264 30.9646 30.2329 30.9646 29.3275 30.3825C30.1683 31.0939 30.4269 32.1933 30.0389 33.228C29.5862 34.2628 28.4868 34.9095 27.3874 34.7801C26.288 34.6508 25.3826 33.7454 25.1886 32.646C24.8653 33.6807 23.5072 34.5861 22.4724 34.3274C21.4377 34.0688 20.6616 33.034 20.791 31.9346C20.9203 30.8999 21.9551 29.9945 22.9898 29.9945C22.2137 30.1238 21.373 29.6065 21.1143 28.8304C20.8557 28.0544 21.179 27.149 21.8904 26.7609C22.6018 26.3729 23.5718 26.5023 24.0892 27.149C23.1838 26.6963 22.5371 25.7909 22.5371 24.8208C22.5371 23.8508 23.3778 22.8807 24.3479 22.816C25.318 22.6867 26.288 23.5274 26.0293 24.4975Z" fill="#1F6456"/>
<path d="M17.8157 39.5652C17.945 40.988 17.0396 42.4107 15.7462 42.9281C14.4528 43.4455 12.836 42.9281 11.9953 41.8287C11.3486 42.0874 10.7019 42.2167 10.0552 42.152C9.40848 42.0227 8.76177 41.6347 8.50309 40.988C8.30907 40.3413 8.63243 39.5652 9.27914 39.3712C8.43842 39.3712 7.59769 39.2419 6.88631 38.7892C6.23961 38.3365 5.78691 37.3664 6.23961 36.655C6.56296 36.073 7.27434 35.8143 7.92105 35.879C8.56776 35.9436 9.14979 36.2023 9.73183 36.5257C8.95578 35.7496 8.82644 34.4562 9.47315 33.5508C10.0552 32.6454 11.3486 32.2574 12.3187 32.6454C13.2887 33.0335 13.9354 34.1975 13.8061 35.2323C14.4528 33.8742 16.5223 33.5508 17.557 34.5856C18.5917 35.6203 18.2684 37.6898 16.9103 38.3365" fill="#178250"/>
<path d="M14.1295 26.6963C13.2241 25.9849 11.7367 26.2436 11.1546 27.2136C11.3486 26.1789 10.9606 25.0795 10.1199 24.4328C9.27918 23.7861 8.05043 23.7861 7.20971 24.4328C6.43366 25.0795 6.17498 26.3729 6.75702 27.2136C5.91629 26.5023 4.36419 26.8903 3.97617 27.9897C3.58814 29.0244 4.55821 30.3178 5.65761 30.2532C4.62288 30.3825 3.84683 31.4819 4.04084 32.5166C4.23485 33.5514 5.20491 34.3274 6.23965 34.3921C7.27438 34.4568 8.30912 33.7454 8.69714 32.7753C8.37379 34.1334 9.73187 35.6208 11.1546 35.4268C12.5774 35.2328 13.4181 33.422 12.7067 32.1933C13.3534 32.5166 14.2588 32.258 14.5822 31.6112C14.8409 31.1586 14.7762 30.7705 14.6469 30.3178C14.5175 29.6711 14.5175 29.8005 14.6469 29.1538C14.9055 28.2484 15.0349 27.343 14.1295 26.6963Z" fill="#19A740"/>
<path d="M15.3587 11.9518C13.6773 11.7578 11.9312 12.9219 11.4785 14.5386C11.0258 16.1554 11.9312 18.0955 13.548 18.7422C12.5132 18.8716 11.8665 20.1003 12.2545 21.0704C12.6426 22.0404 14.0006 22.3638 14.8414 21.7818C13.6126 22.5578 13.4186 24.6273 14.5827 25.5327C15.7468 26.4381 17.7516 25.856 18.2043 24.4333C17.6222 25.3387 18.2689 26.5674 19.239 26.6967C20.209 26.8908 21.1791 25.9207 21.0498 24.9506C22.0198 25.5327 23.3132 25.4033 24.0893 24.6273C24.93 23.8512 25.124 22.5578 24.6713 21.5877C24.154 20.6177 22.9899 20.0356 21.9552 20.2297C22.5372 19.971 22.9252 19.2596 22.6665 18.6129C22.4725 18.0309 21.6965 17.6428 21.0498 17.8368C21.9552 17.1901 22.0198 15.7674 21.3085 14.9913C20.8558 14.5386 20.209 14.4093 19.5623 14.5386C18.7216 14.668 18.7863 15.1207 18.2689 14.4093C17.3635 13.3099 16.9755 12.1458 15.3587 11.9518Z" fill="#178250"/>
<path d="M24.0244 16.2195C23.2484 15.4434 22.925 14.2147 23.1837 13.1153C23.5071 12.0159 24.3478 11.1105 25.4472 10.8518C26.5466 10.5285 27.7753 10.8518 28.5514 11.6925C28.9394 10.7225 30.1035 10.0758 31.0736 10.2698C32.1083 10.4638 32.8843 11.4338 32.8843 12.4686C32.8843 13.5033 32.1083 14.4734 31.0736 14.6674C31.9143 14.538 32.6257 15.5728 32.6257 16.4135C32.6257 17.2542 31.7849 17.9656 30.9442 17.9009C31.5263 18.5476 31.8496 19.259 31.7849 20.0997C31.7203 20.9405 31.1382 21.7812 30.3622 22.1045C29.5861 22.4279 28.4867 22.1692 28.034 21.3932C28.1634 22.1692 27.9694 22.8806 27.452 23.5273C27.1286 23.9153 26.7406 24.174 26.2232 24.3033C25.7706 24.368 25.1885 24.2387 24.8652 23.8506C24.5418 23.4626 24.4771 22.8806 24.8005 22.4926C24.2185 23.0099 23.119 22.9453 22.4723 22.4926C21.8256 22.0399 21.5023 21.1345 21.761 20.3584C22.0196 19.5824 22.8604 19.065 23.6364 19.1943C22.9897 19.5177 22.149 18.677 22.0196 17.9656C22.149 17.1896 23.3131 16.1548 24.0244 16.2195Z" fill="#178250"/>
<path d="M28.0339 26.567C27.3225 26.3083 26.4818 26.5023 25.9644 27.0843C25.447 27.6664 25.3823 28.5071 25.7057 29.1538C26.0291 29.8005 26.8051 30.2532 27.5812 30.1239C26.8051 30.5119 26.5464 31.7406 26.8698 32.5814C27.1931 33.4221 28.2279 33.8748 29.0686 33.6808C29.974 33.4867 30.6207 32.646 30.75 31.8053C30.944 32.3227 31.1381 32.9047 31.4614 33.2927C31.7848 33.7454 32.3021 34.0688 32.8195 34.0688C33.3369 34.0688 33.8542 33.6808 34.2423 33.2927C34.889 32.5167 35.277 31.6113 35.665 30.6412C36.1824 31.4819 37.3465 31.676 38.1225 31.0939C38.8986 30.5119 38.9632 29.2185 38.2518 28.5071C39.4806 28.7658 40.8387 28.3131 41.6794 27.4077C42.4554 26.4376 42.6495 24.9502 41.8734 23.9155C41.0974 22.8807 39.5453 22.622 38.5752 23.4628C39.0926 22.7514 38.6399 21.652 37.7992 21.3286C36.9584 21.0053 36.053 21.3933 35.471 22.04C34.889 22.6867 34.6303 23.5921 34.5009 24.4328C33.7896 23.2688 32.2375 22.7514 31.0087 23.2041C29.5213 23.6568 27.8398 25.2089 28.0339 26.567Z" fill="#19A740"/>
<path d="M28.3569 41.8943C29.327 41.765 30.103 40.9243 30.3617 40.0189C30.3617 41.3123 31.7845 42.4117 33.0132 42.0237C34.242 41.7003 34.9533 40.0189 34.242 38.9195C35.212 39.6309 36.7641 39.5015 37.6048 38.6608C38.4456 37.7554 38.5749 36.268 37.7989 35.2979C37.0875 34.3279 35.6 34.0045 34.5006 34.5865C34.7593 33.0991 33.4659 31.6117 31.9785 31.6764C30.491 31.741 29.327 33.3578 29.715 34.7806C29.4563 33.9398 27.5162 34.0692 26.9341 34.2632C25.7054 34.7806 25.4467 36.0093 25.4467 37.238C25.5761 38.9842 26.0288 42.2177 28.3569 41.8943Z" fill="#178250"/>
<path d="M11.9312 19.3238C11.2198 20.5525 11.4785 22.234 12.5132 23.204C11.2198 22.234 9.021 22.8807 8.50363 24.4975C7.98627 26.0496 9.40902 27.925 11.0905 27.8603C9.99106 28.8304 9.86172 30.6412 10.7671 31.7406C11.6725 32.84 13.548 33.034 14.6474 32.1286C14.2593 32.646 14.324 33.422 14.712 33.9394C15.0354 34.3274 15.6821 34.6508 16.3288 34.7155C17.4929 34.8448 18.657 34.3274 19.3037 33.422C19.9504 32.5166 20.0797 31.2232 19.627 30.1885C20.6618 30.7059 22.1492 30.1885 22.6019 29.0891C23.1192 27.9897 22.5372 26.5669 21.4378 26.1142C22.9252 25.5969 23.6366 23.5274 22.7312 22.234C21.8258 20.9406 19.6917 20.7466 18.5923 21.9753C19.6917 20.7466 17.3635 18.2891 16.3288 17.9657C14.9707 17.4483 12.7719 17.9657 11.9312 19.3238Z" fill="#19A740"/>
<path d="M23.1835 33.3573C23.5068 32.3872 23.0542 31.2232 22.1488 30.7058C21.2434 30.1884 20.0146 30.3178 19.3032 31.0292C18.5919 31.7405 18.3979 32.9693 18.9152 33.8747C17.8805 33.616 16.7164 33.8747 15.9404 34.6507C15.1643 35.4268 14.9703 36.6555 15.4877 37.5609C16.005 38.4663 17.3631 38.8543 18.2685 38.337C17.2984 38.919 16.9751 40.4064 17.6218 41.3118C18.2685 42.2819 19.6913 42.5406 20.6613 41.9585C21.6314 41.3765 22.0841 40.0831 21.6961 38.9837C21.6961 40.0184 22.7308 40.6651 23.7655 40.6651C24.8003 40.7298 25.7057 39.8891 25.835 38.8543C25.9643 37.8843 25.1883 36.8495 24.2182 36.6555C25.253 36.4615 25.9643 35.2974 25.5763 34.3274C25.3176 33.3573 24.0889 32.8399 23.1835 33.3573Z" fill="#19A740"/>
<path d="M29.472 68.101C28.7448 68.1738 28.0176 68.2465 27.2904 68.2465C26.7087 68.2465 26.0542 68.3192 25.4724 68.3192C21.2548 68.3192 17.1825 67.6647 13.4011 66.4285C5.4748 63.8106 -1.36075 58.7203 -6.08746 52.1029C-6.01474 50.8667 -5.28756 49.7032 -4.2695 49.0487C-2.88784 48.1761 -0.997158 48.3943 0.166341 49.4123C1.40256 50.4304 1.76615 52.3211 1.1844 53.7755C2.05703 53.2664 3.29324 53.63 3.80227 54.5026C4.23859 55.2298 4.09315 56.1752 3.5114 56.8296C4.09315 56.466 4.96577 56.5388 5.4748 56.9751C6.12927 57.5568 6.27471 58.6476 5.69296 59.3021C6.49286 58.8658 7.51093 58.8658 8.23811 59.3021C8.9653 59.7384 9.40161 60.611 9.40161 61.4836C9.47433 59.7384 10.6378 58.0659 12.2376 57.4841C13.9102 56.8296 15.9463 57.4841 16.9644 58.9385C17.9824 60.3929 17.7643 62.6471 16.3826 63.8106C17.0371 63.2289 17.9097 62.7199 18.7823 62.6471C19.7277 62.5744 20.673 63.0107 21.0366 63.8834C21.4002 64.5378 21.182 65.4832 20.673 65.9195C21.6183 65.4832 22.8546 65.9195 23.2909 66.8648C24.2362 65.8468 25.836 65.4832 27.145 65.9195C28.3085 66.2831 29.1084 67.083 29.472 68.101Z" fill="#178250"/>
<path d="M42.315 50.4299C42.315 50.139 42.315 49.8481 42.4605 49.5573C42.6059 49.2664 42.8241 49.0482 43.1149 48.9755C43.4058 48.9028 43.7694 48.9755 43.9149 49.1937C44.133 49.4845 44.0603 49.8481 43.9149 50.139C43.7694 50.4299 43.4785 50.648 43.2604 50.8662C43.7694 50.7208 44.3512 50.7935 44.8602 51.0844C45.0056 51.1571 45.1511 51.3025 45.1511 51.4479C45.2238 51.6661 44.9329 51.8843 44.7875 52.0297C44.2784 52.3206 43.624 52.3206 43.0422 52.0297C43.1877 52.2478 43.3331 52.3933 43.4785 52.6114C43.5513 52.8296 43.5513 53.1205 43.4058 53.3386C43.2604 53.5568 42.9695 53.7022 42.6786 53.6295C42.3878 53.6295 42.1696 53.4113 42.0242 53.1932C41.8787 52.975 41.8787 52.6842 41.9514 52.3933C41.806 52.7569 41.4424 53.0478 41.0788 53.1932C40.8607 53.3386 40.5698 53.3386 40.4244 53.1932C40.2789 53.1205 40.2062 52.975 40.2062 52.7569C40.2062 52.6114 40.2789 52.466 40.3516 52.3206C40.5698 51.957 40.8607 51.6661 41.2243 51.5207C40.7152 51.5934 40.2789 51.3752 39.988 50.9389C39.8426 50.7208 39.8426 50.5026 39.988 50.2844C40.1335 50.139 40.3516 50.0663 40.5698 50.0663C41.2243 50.139 41.806 50.2117 42.315 50.4299Z" fill="#D87544"/>
<path d="M41.7336 51.4485C41.8063 51.8848 42.1699 52.1757 42.6062 52.103C43.0426 52.0303 43.3334 51.6667 43.2607 51.2304C43.1153 50.285 41.6609 50.5032 41.7336 51.4485Z" fill="#FFD950"/>
<path d="M52.9324 56.176C52.9324 55.8851 52.9324 55.5942 53.0779 55.3034C53.2233 55.0125 53.4414 54.7943 53.7323 54.7216C54.0232 54.6489 54.3868 54.7216 54.5322 54.9398C54.7504 55.2306 54.6777 55.5942 54.5322 55.8851C54.3868 56.176 54.0959 56.3941 53.8778 56.6123C54.3868 56.4669 54.9685 56.5396 55.4776 56.8304C55.623 56.9032 55.7684 57.0486 55.7684 57.194C55.8412 57.4122 55.5503 57.6304 55.4049 57.7758C54.8958 58.0667 54.2414 58.0667 53.6596 57.7758C53.805 57.9939 53.9505 58.1394 54.0959 58.3575C54.1686 58.5757 54.1686 58.8666 54.0232 59.0847C53.8778 59.3029 53.5869 59.4483 53.296 59.3756C53.0051 59.3756 52.787 59.1574 52.6415 58.9393C52.5688 58.7938 52.5688 58.503 52.6415 58.2121C52.4961 58.5757 52.1325 58.8666 51.7689 59.012C51.5508 59.1574 51.2599 59.1574 51.1145 59.012C50.969 58.9393 50.8963 58.7938 50.8963 58.5757C50.8963 58.4303 50.969 58.2848 51.0417 58.1394C51.2599 57.7758 51.5508 57.4849 51.9144 57.3395C51.4053 57.4122 50.969 57.194 50.6781 56.7577C50.5327 56.5396 50.5327 56.3214 50.6781 56.1033C50.8236 55.9578 51.0417 55.8851 51.2599 55.8851C51.8416 55.8851 52.4234 55.9578 52.9324 56.176Z" fill="#D87544"/>
<path d="M52.3505 57.1937C52.4232 57.63 52.7868 57.9208 53.2231 57.8481C53.6594 57.7754 53.9503 57.4118 53.8776 56.9755C53.7322 56.0302 52.2778 56.2483 52.3505 57.1937Z" fill="#FFD950"/>
<path d="M61.6584 45.1218C61.6584 44.8309 61.6584 44.54 61.8039 44.2492C61.9493 43.9583 62.1675 43.7401 62.4583 43.6674C62.7492 43.5947 63.1128 43.6674 63.2582 43.8856C63.4764 44.1764 63.4037 44.54 63.2582 44.8309C63.1128 45.1218 62.8219 45.3399 62.6038 45.5581C63.1128 45.4127 63.6946 45.4854 64.2036 45.7762C64.349 45.849 64.4945 45.9944 64.4945 46.1398C64.5672 46.358 64.2763 46.5762 64.1309 46.7216C63.6218 47.0125 62.9674 47.0125 62.3856 46.7216C62.5311 46.9397 62.6765 47.0852 62.8219 47.3033C62.8947 47.5215 62.8947 47.8124 62.7492 48.0305C62.6038 48.2487 62.3129 48.3941 62.022 48.3214C61.7312 48.3214 61.513 48.1032 61.3676 47.8851C61.2221 47.6669 61.2221 47.3761 61.2948 47.0852C61.1494 47.4488 60.7858 47.7397 60.4222 47.8851C60.2041 48.0305 59.9132 48.0305 59.7678 47.8851C59.6223 47.8124 59.5496 47.6669 59.5496 47.4488C59.5496 47.3033 59.6223 47.1579 59.695 47.0125C59.9132 46.6489 60.2041 46.358 60.5677 46.2126C60.0586 46.2853 59.6223 46.0671 59.3314 45.6308C59.186 45.4127 59.186 45.1945 59.3314 44.9763C59.4769 44.8309 59.695 44.7582 59.9132 44.7582C60.4949 44.8309 61.1494 44.9036 61.6584 45.1218Z" fill="#D87544"/>
<path d="M61.0037 46.1397C61.0764 46.576 61.44 46.8669 61.8763 46.7942C62.3127 46.7215 62.6035 46.3579 62.5308 45.9216C62.3854 44.9762 60.931 45.1217 61.0037 46.1397Z" fill="#FFD950"/>
<path d="M23.7269 65.1199C24.3087 64.5381 24.5268 63.6655 24.3087 62.9383C24.0905 62.1384 23.4361 61.5567 22.7089 61.3385C23.4361 60.9749 23.7269 60.0296 23.4361 59.3024C23.1452 58.5752 22.1998 58.1389 21.4727 58.357C22.6362 58.2116 23.5088 56.8299 23.1452 55.6664C22.8543 54.5029 21.5454 53.7758 20.3092 53.9212C19.1457 54.0666 18.1276 55.012 17.764 56.1755C18.4912 55.012 17.9822 53.2667 16.7459 52.6123C15.5097 51.9578 13.8372 52.5395 13.2554 53.7758C13.9826 53.1213 13.9099 51.8123 13.11 51.2306C12.3101 50.6488 11.0739 50.9397 10.6376 51.8124C11.5829 51.0852 11.8011 49.6308 11.2193 48.6127C10.6376 47.5947 9.1832 47.1584 8.09242 47.6674C7.00164 48.1764 6.34717 49.4853 6.71077 50.5761C6.27445 49.1218 4.23833 48.4673 3.07483 49.4126C1.91133 50.358 1.98405 52.4668 3.29299 53.2667C9.83767 57.2663 16.9641 61.1931 23.7269 65.1199Z" fill="#1F6456"/>
</g>
</svg>
