<svg width="69" height="61" viewBox="0 0 69 61" fill="none" xmlns="http://www.w3.org/2000/svg">
<mask id="mask0_549_11788" style="mask-type:alpha" maskUnits="userSpaceOnUse" x="0" y="0" width="69" height="61">
<rect width="69" height="61" rx="10" fill="#2B92D5"/>
</mask>
<g mask="url(#mask0_549_11788)">
<path d="M71.4204 32.8828C71.4204 33.4884 71.4204 34.0184 71.3447 34.624C71.269 36.6679 71.0418 38.7118 70.6633 40.68C70.5876 41.0586 70.5119 41.3614 70.4362 41.6642C68.0895 52.1866 61.6549 61.195 52.7979 66.7969C47.0446 70.5063 40.2315 72.7773 33.0399 73.0801C32.4343 73.0801 31.753 73.1558 31.1474 73.1558C26.7567 73.1558 22.5175 72.4745 18.581 71.1876C9.72399 68.3109 2.22958 62.482 -2.69099 54.8361C-3.9779 52.8679 -5.03772 50.824 -6.02183 48.6287C-8.06576 43.8595 -9.20128 38.4847 -9.20128 32.8828C-9.20128 10.6267 8.81557 -7.39014 31.0717 -7.39014C53.3278 -7.39014 71.4204 10.6267 71.4204 32.8828Z" fill="#39B8FF"/>
<path d="M80 31.2486C80 31.9291 80 32.5244 79.9146 33.2049C79.8291 35.5013 79.5728 37.7978 79.1455 40.0092C79.0601 40.4344 78.9746 40.7747 78.8892 41.1149C76.2404 52.9373 68.9775 63.0587 58.9803 69.3527C52.4864 73.5204 44.7962 76.072 36.6789 76.4122C35.9953 76.4122 35.2263 76.4972 34.5427 76.4972C29.5869 76.4972 24.8019 75.7318 20.3587 74.2859C10.3615 71.0538 1.90235 64.5047 -3.65164 55.9142C-5.10422 53.7028 -6.30047 51.4064 -7.41127 48.9398C-9.71831 43.5814 -11 37.5426 -11 31.2486C-11 6.24281 9.33615 -14 34.4573 -14C59.5784 -14 80 6.24281 80 31.2486Z" fill="#FFDBF7"/>
<path d="M50.8362 66.7261C45.083 70.4355 38.2699 72.7065 31.0783 73.0093C30.4727 73.0093 29.7913 73.085 29.1857 73.085C24.7951 73.085 20.5558 72.4037 16.6194 71.1168C7.76233 68.1645 0.267927 62.3355 -4.65264 54.6897C-5.93956 52.7214 -6.99938 50.6775 -7.98349 48.4822C2.76606 45.5298 14.3483 45.7569 24.9465 49.2392C27.4446 50.0719 29.867 51.056 32.2138 52.1915C32.5923 52.3429 32.9708 52.57 33.3493 52.7971C33.7278 53.0242 34.1063 53.1756 34.4848 53.4027C40.6923 56.8093 46.2942 61.3514 50.8362 66.7261Z" fill="#99B94A"/>
<path d="M63.7155 44.7336C61.9744 39.9644 59.1734 35.498 55.6155 31.7887C54.6314 30.7289 53.4202 29.669 51.9061 29.5933C50.0893 29.5176 48.5753 30.8803 47.4398 32.3186C45.0173 35.5737 43.579 39.4345 42.4435 43.2952C41.308 47.2317 40.3996 51.1682 38.8098 54.8775C42.9734 52.6065 47.0613 50.4868 51.3762 48.67C55.3884 47.0803 59.4762 45.4906 63.7155 44.7336Z" fill="#98B799"/>
<path d="M75.4486 34.8916C75.3729 36.9355 75.1458 38.9794 74.7673 40.9477C74.6916 41.3262 74.6159 41.629 74.5402 41.9318C69.0897 43.3701 63.6393 44.8841 58.1888 46.3224C58.3402 46.3224 58.4159 46.171 58.4916 46.0196C58.8701 45.2626 58.9458 43.2944 59.0215 42.6131C59.0215 42.5374 59.0215 42.5374 59.0215 42.4617C59.2486 40.872 59.6271 39.2065 60.2327 37.5411C60.5355 36.6327 60.914 35.6486 61.3682 34.8159C61.9738 33.529 62.6551 32.3934 63.4879 31.3336C65.3047 29.0626 67.8785 28.6841 70.301 29.971C72.2692 31.1822 74.0103 32.9234 75.4486 34.8916Z" fill="#98B799"/>
<path d="M75.7777 40.8343C75.7002 41.2148 75.6227 41.5192 75.5453 41.8236C73.144 52.4014 66.5599 61.4572 57.497 67.0885C51.61 70.8174 44.6385 73.1003 37.2798 73.4047C36.6601 73.4047 35.963 73.4808 35.3433 73.4808C30.8506 73.4808 26.5128 72.7959 22.4848 71.5023C23.9566 68.6866 25.6607 65.947 27.6747 63.4358C30.7731 59.4025 34.4912 55.7498 38.5192 52.6297C39.1389 52.1731 39.7585 51.7165 40.3782 51.2599C41.5401 50.4228 42.702 49.6618 43.9414 48.9769C48.8214 46.0852 54.1662 43.9544 59.6659 42.5846C60.8278 42.2802 62.0672 42.0519 63.3065 41.8236C67.3345 41.0626 71.5173 40.6821 75.7777 40.8343Z" fill="#B6DC62"/>
<path d="M31.1734 72.9427C30.5678 72.9427 29.8865 73.0184 29.2808 73.0184C24.8902 73.0184 20.6509 72.3371 16.7145 71.0502C7.85745 68.0978 0.363043 62.2688 -4.55753 54.623C2.55837 54.3959 9.82568 56.0614 16.1846 59.3922C18.1528 60.452 19.9696 61.5875 21.7864 62.9501C25.4201 65.7511 28.5995 69.0819 31.1734 72.9427Z" fill="#7CA642"/>
<path d="M47.6828 16.8837C49.7653 16.8837 51.4535 15.1955 51.4535 13.113C51.4535 11.0305 49.7653 9.34229 47.6828 9.34229C45.6003 9.34229 43.9121 11.0305 43.9121 13.113C43.9121 15.1955 45.6003 16.8837 47.6828 16.8837Z" fill="white"/>
<path d="M58.9413 43.7917C57.4843 44.3869 56.144 45.1608 55.095 46.3513C54.9784 46.4703 54.8618 46.6489 54.8618 46.887C54.8618 47.3037 55.4446 47.4823 55.8526 47.4823C56.8433 47.4823 57.7757 47.4823 58.7665 47.4823C59.1161 47.4823 59.4658 47.4823 59.6989 47.7799C60.0486 48.1966 59.6989 48.8514 59.291 49.268C58.883 49.6252 58.3585 50.1014 58.4751 50.6371C58.5333 51.1729 59.1744 51.411 59.6406 51.5895C61.4472 52.0658 63.3704 51.8872 65.177 51.2919C65.9929 50.9943 66.8088 50.5776 67.2167 49.8633C67.6247 49.0895 67.4498 47.9585 66.6922 47.6013C66.0512 47.3037 65.177 47.6013 64.7108 47.0656C64.2446 46.5299 64.7108 45.637 65.2936 45.2203C65.8763 44.8036 66.634 44.506 66.9253 43.7917C66.9836 43.6726 66.9836 43.4941 66.9836 43.375C66.9253 43.256 66.8671 43.1964 66.7505 43.0774C64.7108 41.3511 60.9227 42.9583 58.9413 43.7917Z" fill="#FBFBFB"/>
<path d="M35.3867 54.911C33.9484 55.2895 32.5858 56.0465 31.9045 57.3334C31.6774 57.6362 31.526 58.0904 31.6774 58.3932C31.7531 58.6203 31.9045 58.7717 32.1316 58.9231C33.1157 59.6801 34.4026 59.6045 35.6138 59.5287C37.1278 59.3773 38.6419 59.2259 40.0802 58.696C40.7615 58.4689 41.4428 58.1661 41.897 57.5605C42.9568 56.1979 41.8213 54.6839 40.383 54.4568C38.869 54.3054 36.7493 54.6082 35.3867 54.911Z" fill="#FBFBFB"/>
<path d="M17.4789 34.7388C17.4789 32.2084 18.821 29.8078 20.6106 27.9263C22.4002 26.1096 24.5732 24.7471 26.7463 23.4494C23.1032 24.0982 19.7158 26.0447 17.6067 29.0941C16.9036 24.6822 18.4376 19.8809 21.6332 16.7666C19.2684 17.2208 17.2871 19.0375 16.7119 21.4381C15.178 18.4536 12.4297 16.1178 9.29798 15.2095C10.7041 16.3125 12.1102 17.4154 13.2606 18.778C14.411 20.1405 15.3697 21.7625 15.6254 23.5143C15.8171 24.9417 15.6254 26.3691 15.4336 27.7965C15.0502 30.262 14.7306 32.5977 14.3471 35.1281C12.7493 32.8572 10.9597 30.7162 8.97842 28.8346C8.14755 28.056 7.18885 27.2126 6.03841 27.3423C7.50841 28.056 8.65885 29.2239 9.61755 30.5864C10.5123 31.884 11.2154 33.3114 11.8545 34.7388C9.68146 34.5442 7.4445 34.2846 5.27145 34.09C6.42189 34.609 7.63624 35.0632 8.85059 35.3876C10.5762 35.8418 12.238 35.8418 13.1967 37.5287C14.3471 39.54 14.411 42.1353 14.1554 44.4062C14.0276 45.5091 13.8358 46.6121 13.708 47.7151C13.6441 48.4288 13.2606 51.089 12.4936 51.3485C11.8545 51.5431 11.471 52.8408 11.9823 53.3598C12.4297 53.814 13.0689 53.7491 13.6441 53.7491C16.3284 53.6842 19.0128 54.2033 21.5054 55.1765C18.6932 50.7645 17.415 45.4443 17.7984 40.2537C17.9263 38.6966 18.2458 37.0745 19.3323 35.9716C20.2271 35.0632 21.5054 34.609 22.7837 34.2846C23.998 33.8954 25.2124 33.5709 26.4267 33.1817C23.2311 32.0787 20.0993 32.7924 17.4789 34.7388Z" fill="#77383D"/>
<path d="M6.83692 27.7364C5.96319 27.1995 5.3391 26.1929 5.27669 25.1191C5.21428 24.0454 5.71355 22.9717 6.58728 22.3677C7.21138 22.9045 7.58584 23.7099 7.64824 24.5823C7.71065 25.3876 7.46102 27.1324 6.83692 27.7364Z" fill="#478B34"/>
<path d="M11.2364 16.7175C10.527 16.4065 9.68865 16.3029 8.85029 16.5102C8.2054 16.6657 7.68949 16.9767 7.10909 17.2877C6.91563 17.3914 6.72216 17.5469 6.4642 17.6505C7.30256 18.0134 8.26989 18.2725 9.17274 18.1689C10.2046 18.0652 10.9784 17.4432 11.2364 16.7175Z" fill="#478B34"/>
<path d="M4.67473 38.3052C4.67473 37.8264 4.67473 37.2878 4.80956 36.8091C5.14665 35.8515 6.29273 35.1933 7.3714 34.894C7.43881 34.894 7.57365 35.9712 7.64107 36.0311C7.70848 36.6894 7.57365 37.2878 7.10173 37.7666C6.76465 38.1256 6.29273 38.3052 5.82081 38.365C5.61856 38.4248 4.67473 38.6044 4.67473 38.3052Z" fill="#478B34"/>
<path d="M22.1929 33.1053C21.3517 32.9155 20.6399 32.2196 20.3163 31.3971C20.0575 30.5746 20.1869 29.6256 20.6399 28.9297C21.4164 29.3093 22.1282 30.0052 22.3871 30.8277C22.7106 31.5869 22.5812 32.3461 22.1929 33.1053Z" fill="#478B34"/>
<path d="M29.0055 36.0766C28.6258 35.04 27.9929 34.1416 27.1068 33.5887C26.6638 33.3123 26.1575 33.1741 25.7144 33.105C25.4613 33.105 24.5119 33.105 24.3854 33.4505C24.1322 34.0725 25.841 35.3165 26.2208 35.5238C27.1068 36.0075 28.1827 36.2149 29.1321 36.0075" fill="#478B34"/>
<path d="M27.3425 25.4543C26.8187 26.0066 26.2949 26.4899 25.6402 26.766C24.9855 27.1112 24.2653 27.2493 23.5451 27.0422C22.8249 26.9041 22.2357 26.3518 21.9738 25.6614C23.5451 24.4878 25.7057 24.4878 27.3425 25.4543Z" fill="#478B34"/>
<path d="M23.887 24.1574C23.6441 23.5141 23.7656 22.6954 24.1905 22.169C24.6155 21.6427 25.344 21.4087 26.0118 21.1748C26.3154 21.7596 26.0725 22.4029 25.7083 22.9293C25.344 23.4556 24.4941 23.9235 23.887 24.1574Z" fill="#478B34"/>
<path d="M19.8356 17.5954C19.586 17.1275 19.5361 16.4842 19.6359 15.9579C19.7358 15.4315 20.0352 14.9052 20.4845 14.6128C20.784 15.0807 20.8339 15.7824 20.734 16.3673C20.6342 16.8936 20.2848 17.303 19.8356 17.5954Z" fill="#478B34"/>
<path d="M19.5877 19.2369C20.0422 18.7016 20.6671 18.3001 21.2921 18.2332C21.917 18.0994 22.5987 18.3001 23.1669 18.7016C22.826 19.3707 22.2011 19.8391 21.5761 19.9729C20.9512 20.0399 20.0422 19.7053 19.5877 19.2369Z" fill="#478B34"/>
</g>
</svg>
