<svg width="69" height="61" viewBox="0 0 69 61" fill="none" xmlns="http://www.w3.org/2000/svg">
<mask id="mask0_637_362" style="mask-type:alpha" maskUnits="userSpaceOnUse" x="0" y="0" width="69" height="61">
<rect width="69" height="61" rx="10" fill="#2B92D5"/>
</mask>
<g mask="url(#mask0_637_362)">
<path d="M69.1624 30.3754C69.1624 30.9317 69.1624 31.4185 69.0923 31.9749C69.0221 33.8525 68.8116 35.7302 68.4608 37.5383C68.3907 37.886 68.3205 38.1641 68.2504 38.4423C66.0755 48.1087 60.1121 56.3842 51.9036 61.5303C46.5716 64.9379 40.3276 67.0242 33.5925 67.3024C33.0312 67.3024 32.3998 67.3719 31.8385 67.3719C27.7694 67.3719 23.8405 66.746 20.1923 65.5638C11.9839 62.9212 5.03827 57.5664 0.478021 50.5427C-0.71466 48.7346 -1.69687 46.8569 -2.60892 44.8402C-4.50318 40.459 -5.55554 35.5215 -5.55554 30.3754C-5.55554 9.92997 11.142 -6.62109 31.7684 -6.62109C52.3947 -6.62109 69.1624 9.92997 69.1624 30.3754Z" fill="#39B8FF"/>
<path d="M79.6068 28C79.6068 28.7068 79.6068 29.3252 79.5171 30.032C79.4273 32.4173 79.158 34.8026 78.7091 37.0996C78.6193 37.5414 78.5296 37.8947 78.4398 38.2481C75.6569 50.5282 68.0263 61.0414 57.523 67.5789C50.7004 71.9079 42.7107 74.5583 34.0926 74.9117C33.3744 74.9117 32.5665 75 31.8483 75C26.6415 75 21.6143 74.2049 16.9462 72.703C6.44292 69.3459 -2.44448 62.5432 -8.27964 53.6203C-9.80575 51.3233 -11.0626 48.938 -12.2296 46.3759C-14.6534 40.8101 -16 34.5376 -16 28C-16 2.02632 5.36566 -19 31.7585 -19C58.1514 -19 79.6068 2.02632 79.6068 28Z" fill="#D1D1DD"/>
<path d="M56.3077 68.0993C49.9424 72.1249 42.4883 74.5895 34.4479 74.9181C33.7778 74.9181 33.0241 75.0002 32.354 75.0002C27.4963 75.0002 22.8061 74.2608 18.4508 72.8642C8.65162 69.6602 0.359968 63.3344 -5.08405 55.0369C-6.50787 52.9009 -7.68042 50.6828 -8.76923 48.3003C3.12385 45.0964 15.9382 45.3428 27.6638 49.1219C30.4277 50.0256 33.1078 51.0936 35.7042 52.3259C36.123 52.4902 36.5417 52.7366 36.9605 52.9831C37.3793 53.2295 37.798 53.3939 38.2168 53.6403C45.0846 57.3372 51.2824 62.2664 56.3077 68.0993Z" fill="#54987F"/>
<path d="M63.6645 43.6619C61.7509 38.4663 58.6725 33.6005 54.7621 29.5595C53.6805 28.4049 52.3493 27.2503 50.6853 27.1678C48.6885 27.0854 47.0245 28.5698 45.7765 30.1368C43.1141 33.683 41.5333 37.889 40.2853 42.0949C39.0373 46.3834 38.0389 50.6718 36.2917 54.7129C40.8677 52.2388 45.3605 49.9296 50.1029 47.9503C54.5125 46.2184 59.0053 44.4866 63.6645 43.6619Z" fill="#807F7D"/>
<path d="M76.5605 32.9406C76.4773 35.1673 76.2277 37.394 75.8117 39.5382C75.7285 39.9506 75.6453 40.2804 75.5621 40.6103C69.5717 42.1773 63.5813 43.8267 57.5909 45.3936C57.7573 45.3936 57.8405 45.2287 57.9237 45.0637C58.3397 44.239 58.4229 42.0948 58.5061 41.3526C58.5061 41.2701 58.5061 41.2701 58.5061 41.1876C58.7557 39.4557 59.1717 37.6414 59.8373 35.8271C60.1701 34.8374 60.5861 33.7653 61.0853 32.8581C61.7509 31.4561 62.4997 30.2191 63.4149 29.0645C65.4117 26.5904 68.2405 26.178 70.9029 27.58C73.0661 28.8996 74.9797 30.7964 76.5605 32.9406Z" fill="#807F7D"/>
<path d="M75.5897 39.6852C75.5068 40.0968 75.4239 40.4261 75.341 40.7553C72.7708 52.1976 65.7233 61.9935 56.0227 68.0851C49.7215 72.1187 42.3424 74.5882 34.383 74.9175C33.7197 74.9175 32.9735 74.9998 32.3102 74.9998C27.5014 74.9998 22.8584 74.259 18.547 72.8596C20.1223 69.8138 22.0293 66.8503 24.102 64.1338C27.4185 59.7709 31.3982 55.8196 35.7096 52.4446C36.3729 51.9507 37.0361 51.4567 37.6994 50.9628C38.9431 50.0573 40.1868 49.2341 41.5133 48.4933C46.7367 45.3652 52.4576 43.0603 58.3442 41.5785C59.5879 41.2492 60.9145 41.0023 62.2411 40.7553C66.5524 39.9321 71.0296 39.5206 75.5897 39.6852Z" fill="#65A55B"/>
<path d="M55.6959 54.8895L55.1551 55.3325L55.8254 56.1367L56.3663 55.6937L55.6959 54.8895Z" fill="white"/>
<path d="M49.1675 48.1083L47.1329 45.6743L47.6941 45.257L49.7287 47.691L49.1675 48.1083ZM41.0993 38.5114L39.9066 37.051L40.4679 36.6338L41.6606 38.0942L41.0993 38.5114Z" fill="white"/>
<path d="M33.873 29.8885L32.6803 28.4281L33.2416 28.0108L34.4343 29.4712L33.873 29.8885ZM26.7169 21.1957L24.6824 18.7617L25.2436 18.3444L27.2782 20.7784L26.7169 21.1957ZM18.6488 11.5988L17.4561 10.1384L18.0174 9.72119L19.2101 11.1816L18.6488 11.5988Z" fill="white"/>
<path d="M11.3742 1.73901L10.8335 2.18213L11.5041 2.98607L12.0448 2.54295L11.3742 1.73901Z" fill="white"/>
<path d="M13.6678 55.4102L11.4929 52.7676L12.0542 52.3503L14.2291 54.9929L13.6678 55.4102ZM4.89812 44.9093L3.56512 43.3098L4.12639 42.8926L5.45938 44.4921L4.89812 44.9093Z" fill="white"/>
<path d="M62.3752 37.2214L61.8345 37.6646L62.5051 38.4685L63.0458 38.0254L62.3752 37.2214Z" fill="white"/>
<path d="M56.6045 31.4184L54.8505 29.3321L55.4118 28.9149L57.1657 31.0011L56.6045 31.4184ZM49.6589 23.0733L48.6065 21.8216L49.1678 21.4043L50.2201 22.6561L49.6589 23.0733Z" fill="white"/>
<path d="M43.4145 15.5623L42.3622 14.3105L42.9234 13.8932L43.9758 15.145L43.4145 15.5623ZM37.1705 8.05169L35.4165 5.96542L35.9778 5.54816L37.7318 7.63443L37.1705 8.05169ZM30.1547 -0.293387L29.1024 -1.54515L29.6636 -1.9624L30.716 -0.710641L30.1547 -0.293387Z" fill="white"/>
<path d="M66.5862 25.5401L66.0456 25.9834L66.7164 26.7871L67.257 26.3439L66.5862 25.5401Z" fill="white"/>
<path d="M59.4098 17.9963L57.1648 15.3537L57.726 14.9365L59.9711 17.5791L59.4098 17.9963ZM50.57 7.42591L49.237 5.82643L49.7982 5.40918L51.1312 7.00865L50.57 7.42591Z" fill="white"/>
<path d="M48.6072 60.0293L48.0667 60.4727L48.7377 61.2763L49.2782 60.8329L48.6072 60.0293Z" fill="white"/>
<path d="M42.1516 53.3938L40.1872 51.0293L40.7484 50.6121L42.7129 52.9765L42.1516 53.3938ZM34.2238 43.936L33.0311 42.5452L33.5924 42.1279L34.785 43.5188L34.2238 43.936Z" fill="white"/>
<path d="M27.1379 35.3818L25.9452 33.991L26.5065 33.5737L27.6992 34.9646L27.1379 35.3818ZM20.052 26.8977L18.0876 24.5332L18.6488 24.116L20.6132 26.4804L20.052 26.8977ZM12.1242 17.4399L10.9315 16.0491L11.4927 15.6318L12.6854 17.0227L12.1242 17.4399Z" fill="white"/>
<path d="M4.90607 7.67051L4.36551 8.11377L5.03629 8.9175L5.57685 8.47424L4.90607 7.67051Z" fill="white"/>
<path d="M29.9443 58.6786L28.2605 56.6619L28.8218 56.2446L30.5055 58.2613L29.9443 58.6786ZM23.2091 50.6117L22.2269 49.4295L22.7882 49.0122L23.7704 50.1944L23.2091 50.6117Z" fill="white"/>
<path d="M17.1757 43.379L16.1934 42.1968L16.7547 41.7796L17.7369 42.9618L17.1757 43.379ZM11.1421 36.1466L9.45831 34.1299L10.0196 33.7127L11.7034 35.7294L11.1421 36.1466ZM4.40695 28.1493L3.42474 26.9671L3.98601 26.5498L4.96821 27.732L4.40695 28.1493Z" fill="white"/>
<path d="M55.8324 46.7178L54.7098 45.3269L55.2711 44.9097L56.3936 46.3005L55.8324 46.7178Z" fill="white"/>
<path d="M48.9569 38.5118L47.8344 37.121L48.3956 36.7037L49.5181 38.0946L48.9569 38.5118ZM42.1516 30.3058L40.2573 28.0109L40.8186 27.5937L42.7128 29.8886L42.1516 30.3058ZM34.5044 21.1958L33.3819 19.8049L33.9431 19.3877L35.0657 20.7785L34.5044 21.1958Z" fill="white"/>
<path d="M27.5498 11.6976L27.009 12.1406L27.6794 12.9447L28.2201 12.5017L27.5498 11.6976Z" fill="white"/>
<path d="M20.905 39.8349C20.905 37.3711 22.267 35.0336 24.0831 33.2016C25.8991 31.4327 28.1044 30.106 30.3096 28.8425C26.6126 29.4743 23.1751 31.3695 21.0347 34.3387C20.3212 30.0428 21.8779 25.3679 25.1208 22.3355C22.721 22.7778 20.7104 24.5466 20.1267 26.8841C18.57 23.9781 15.7811 21.7038 12.603 20.8193C14.0299 21.8933 15.4568 22.9673 16.6243 24.2939C17.7917 25.6206 18.7646 27.2 19.0241 28.9057C19.2186 30.2955 19.0241 31.6854 18.8295 33.0752C18.4403 35.4759 18.116 37.7501 17.7269 40.214C16.1054 38.0028 14.2893 35.9181 12.2787 34.086C11.4355 33.3279 10.4626 32.5067 9.29516 32.633C10.7869 33.3279 11.9544 34.4651 12.9273 35.7917C13.8353 37.0552 14.5488 38.4451 15.1974 39.8349C12.9921 39.6454 10.7221 39.3927 8.51685 39.2032C9.68431 39.7086 10.9166 40.1508 12.149 40.4667C13.9002 40.9089 15.5865 40.9089 16.5594 42.5514C17.7269 44.5098 17.7917 47.0368 17.5323 49.2479C17.4026 50.3219 17.208 51.3959 17.0783 52.4698C17.0134 53.1648 16.6243 55.7549 15.8459 56.0076C15.1974 56.1972 14.8082 57.4606 15.3271 57.966C15.7811 58.4083 16.4297 58.3451 17.0134 58.3451C19.7375 58.2819 22.4616 58.7873 24.9911 59.7349C22.1373 55.4391 20.8401 50.2587 21.2293 45.2048C21.359 43.6886 21.6833 42.1092 22.7859 41.0352C23.6939 40.1508 24.9911 39.7086 26.2883 39.3927C27.5206 39.0136 28.753 38.6978 29.9853 38.3187C26.7423 37.2448 23.5642 37.9397 20.905 39.8349Z" fill="#77383D"/>
<path d="M23.9194 24.2341C23.8543 23.0629 24.8303 21.8917 26.0015 21.6452C27.2377 21.3986 28.539 22.1383 28.9945 23.2478C29.45 24.3574 28.9294 25.7135 27.8233 26.3299C28.7342 25.7751 30.1657 26.0217 30.7513 26.8847C31.3369 27.7476 31.1417 29.0421 30.2958 29.7201C29.45 30.3982 28.1487 30.3982 27.2377 29.8434C28.0836 30.5215 28.3439 31.5694 27.9535 32.5556C27.498 33.5419 26.3919 34.1583 25.2858 34.035C24.1797 33.9117 23.2687 33.0488 23.0735 32.0009C22.7482 32.9871 21.3818 33.8501 20.3408 33.6035C19.2997 33.357 18.5189 32.3707 18.6491 31.3228C18.7792 30.3366 19.8203 29.4736 20.8613 29.4736C20.0805 29.5969 19.2347 29.1037 18.9744 28.364C18.7141 27.6243 19.0395 26.7614 19.7552 26.3915C20.4709 26.0217 21.4469 26.145 21.9674 26.7614C21.0565 26.3299 20.4058 25.4669 20.4058 24.5423C20.4058 23.6177 21.2517 22.6314 22.2277 22.6314C23.2037 22.4465 24.1797 23.3095 23.9194 24.2341Z" fill="#33593A"/>
<path d="M15.9608 38.9597C16.0855 40.4175 15.2127 41.8754 13.9659 42.4055C12.719 42.9356 11.1605 42.4055 10.35 41.279C9.72663 41.544 9.10321 41.6766 8.47979 41.6103C7.85637 41.4778 7.23295 41.0802 6.98359 40.4175C6.79656 39.7549 7.10827 38.9597 7.73169 38.7609C6.92124 38.7609 6.1108 38.6284 5.42504 38.1645C4.80162 37.7007 4.36523 36.7067 4.80162 35.9778C5.11333 35.3814 5.79909 35.1163 6.42251 35.1826C7.04593 35.2489 7.607 35.5139 8.16808 35.8452C7.41998 35.0501 7.2953 33.7248 7.91871 32.7971C8.47979 31.8693 9.72663 31.4718 10.6618 31.8693C11.5969 32.2669 12.2203 33.4597 12.0956 34.5199C12.719 33.1284 14.714 32.7971 15.7114 33.8573C16.7089 34.9175 16.3972 37.038 15.088 37.7007" fill="#377735"/>
<path d="M12.4675 25.9114C11.5656 25.1915 10.0839 25.4533 9.50407 26.4349C9.69733 25.3879 9.3108 24.2753 8.47332 23.6209C7.63583 23.0319 6.41181 22.9665 5.57432 23.6209C4.80126 24.2753 4.54357 25.5842 5.12337 26.4349C4.28588 25.7151 2.73975 26.1077 2.35322 27.2203C2.03111 28.2673 2.99744 29.5762 4.09262 29.5762C3.06186 29.7071 2.2888 30.8196 2.48206 31.8667C2.67533 32.9138 3.64166 33.6991 4.67241 33.7645C5.70317 33.83 6.73392 33.1101 7.12045 32.1285C6.79834 33.5028 8.1512 35.0079 9.56849 34.8116C10.9858 34.6153 11.8233 32.7829 11.1146 31.5395C11.7588 31.8667 12.6607 31.6049 12.9829 30.9505C13.2405 30.4924 13.1761 30.0997 13.0473 29.6416C12.9184 28.9872 12.9184 29.1181 13.0473 28.4637C13.2405 27.5475 13.3694 26.5658 12.4675 25.9114Z" fill="#579C41"/>
<path d="M13.4132 11.5006C11.6807 11.3066 9.88151 12.4705 9.41506 14.0869C8.94862 15.7033 9.88151 17.643 11.5474 18.2896C10.4812 18.4189 9.81487 19.6474 10.2147 20.6173C10.6145 21.5871 12.0138 21.9104 12.8801 21.3285C11.614 22.1044 11.4141 24.1734 12.6135 25.0786C13.813 25.9838 15.8787 25.4019 16.3451 23.9795C15.8787 24.8847 16.4784 26.1131 17.4779 26.2425C18.4774 26.4364 19.477 25.4666 19.3437 24.4967C20.3432 25.0786 21.6759 24.9493 22.4755 24.1734C23.2752 23.3975 23.5417 22.1044 23.0753 21.1345C22.5422 20.1647 21.3427 19.5828 20.2766 19.7767C20.8763 19.5181 21.2761 18.8069 21.0096 18.1603C20.8097 17.5784 20.01 17.1904 19.3437 17.3844C20.2766 16.7378 20.3432 15.3154 19.6102 14.5395C19.1438 14.0869 18.4774 13.9576 17.8111 14.0869C16.9448 14.2162 17.0115 14.6688 16.4784 13.9576C15.5455 12.8584 15.1457 11.7592 13.4132 11.5006Z" fill="#377735"/>
<path d="M22.4779 15.8653C21.7238 15.0947 21.4095 13.8745 21.6609 12.7827C21.9752 11.691 22.7922 10.7919 23.8606 10.535C24.9289 10.2139 26.123 10.535 26.8772 11.3699C27.2543 10.4066 28.3855 9.76437 29.3282 9.95703C30.3337 10.1497 31.0879 11.113 31.0879 12.1405C31.0879 13.168 30.3337 14.1314 29.3282 14.324C30.1452 14.1956 30.8365 15.2231 30.8365 16.058C30.8365 16.8928 30.0195 17.5992 29.2025 17.535C29.7681 18.1772 30.0824 18.8837 30.0195 19.7185C29.9567 20.5534 29.391 21.3882 28.6369 21.7093C27.8827 22.0304 26.8143 21.7736 26.3744 21.0029C26.5001 21.7736 26.3116 22.48 25.8088 23.1222C25.4946 23.5075 25.1175 23.7644 24.6147 23.8928C24.1119 24.0213 23.6092 23.8286 23.2949 23.4433C22.9807 23.058 22.9179 22.48 23.2321 22.0947C22.6665 22.6084 21.5981 22.5442 20.9696 22.0947C20.3412 21.6451 20.0269 20.746 20.2783 19.9754C20.5297 19.2048 21.3467 18.691 22.1009 18.8194C21.4724 19.1405 20.6554 18.3057 20.5297 17.5992C20.5925 16.8928 21.7238 15.8011 22.4779 15.8653Z" fill="#377735"/>
<path d="M25.87 26.0059C25.1476 25.7553 24.2937 25.9433 23.7682 26.507C23.2428 27.0708 23.1771 27.8851 23.5055 28.5116C23.8339 29.138 24.6221 29.5765 25.4103 29.4512C24.6221 29.827 24.3594 31.0172 24.6878 31.8316C25.0162 32.6459 26.0671 33.0844 26.921 32.8965C27.8405 32.7086 28.4973 31.8942 28.6287 31.0799C28.8257 31.581 29.0228 32.1448 29.3512 32.5206C29.6796 32.9591 30.205 33.2723 30.7305 33.2723C31.2559 33.2723 31.7814 32.8965 32.1755 32.5206C32.8323 31.7689 33.2264 30.8919 33.6205 29.9523C34.1459 30.7667 35.3282 30.9546 36.1164 30.3908C36.9045 29.827 36.9702 28.5742 36.2477 27.8851C37.4957 28.1357 38.875 27.6972 39.7288 26.8202C40.517 25.8806 40.7141 24.4398 39.9259 23.4376C39.1377 22.4353 37.5614 22.1848 36.5761 22.9991C37.1016 22.31 36.6418 21.2451 35.788 20.9319C34.9341 20.6187 34.0146 20.9946 33.4234 21.621C32.8323 22.2474 32.5696 23.1244 32.4382 23.9387C31.7157 22.8112 30.1393 22.31 28.8914 22.7485C27.3807 23.2497 25.673 24.7531 25.87 26.0059Z" fill="#579C41"/>
<path d="M26.2973 40.8534C27.2948 40.7279 28.0927 39.9122 28.3587 39.0337C28.3587 40.2886 29.8217 41.3553 31.0852 40.9788C32.3487 40.6651 33.0802 39.0337 32.3487 37.967C33.3462 38.6572 34.9422 38.5317 35.8067 37.7161C36.6712 36.9004 36.8042 35.3944 36.0062 34.4533C35.2082 33.5121 33.7452 33.1983 32.6147 33.763C32.8807 32.3199 31.5507 30.8767 30.0212 30.9395C28.4917 31.0022 27.2948 32.5709 27.6937 33.9513C27.4278 33.1356 25.4328 33.2611 24.8343 33.4493C23.5708 33.9513 23.3048 35.1435 23.3048 36.3356C23.4378 37.967 23.9033 41.1671 26.2973 40.8534Z" fill="#377735"/>
<path d="M10.3212 19.2007C9.64493 20.3797 9.89085 21.9931 10.8745 22.9239C9.64493 21.9931 7.55458 22.6137 7.06274 24.165C6.57089 25.6543 7.92347 27.4539 9.52197 27.3919C8.47679 28.3227 8.35383 30.0602 9.21456 31.1152C10.0753 32.1701 11.8582 32.3563 12.9034 31.4875C12.5345 31.9839 12.596 32.7286 12.9649 33.225C13.3338 33.7215 13.9486 33.9697 14.5019 34.0317C15.6086 34.1558 16.7152 33.6594 17.33 32.7906C17.9448 31.9219 18.0678 30.6808 17.6374 29.6879C18.6211 30.1843 20.0352 29.6879 20.4656 28.633C20.9574 27.578 20.4041 26.2128 19.3589 25.7785C20.773 25.282 21.4492 23.2963 20.5885 22.0552C19.7278 20.8141 17.6989 20.6279 16.6537 21.807C17.6989 20.6279 15.4856 18.2698 14.5019 17.9596C13.2108 17.339 11.1205 17.8975 10.3212 19.2007Z" fill="#579C41"/>
<path d="M21.385 30.0275C21.7358 28.9844 21.2447 27.7326 20.2625 27.1763C19.2802 26.6199 17.9472 26.759 17.1755 27.524C16.4038 28.289 16.1933 29.6103 16.7546 30.5839C15.632 30.3057 14.3692 30.5839 13.5273 31.4184C12.6854 32.2529 12.4749 33.5742 13.0362 34.5478C13.5975 35.5214 15.0708 35.9386 16.053 35.3823C15.0006 36.0082 14.6498 37.6076 15.3514 38.5812C16.053 39.6244 17.5965 39.9025 18.6488 39.2766C19.7012 38.6508 20.1923 37.2599 19.7713 36.0777C19.7713 37.1904 20.8939 37.8858 22.0164 37.8858C23.1389 37.9553 24.1211 37.0513 24.2614 35.9386C24.4018 34.8955 23.5599 33.7828 22.5075 33.5742C23.63 33.3655 24.4018 32.1138 23.9808 31.0707C23.63 30.0275 22.3672 29.4712 21.385 30.0275Z" fill="#579C41"/>
<path d="M33.812 67.6999C33.1175 67.6999 32.3362 67.7693 31.6417 67.7693C26.6067 67.7693 21.7454 67.1451 17.2313 65.9661C7.07447 63.2612 -1.51973 57.921 -7.16238 50.9162C1.08457 50.7082 9.33153 52.234 16.5368 55.2855C18.7938 56.2565 20.9641 57.2968 22.9607 58.5452C27.2144 61.1113 30.8604 64.1628 33.812 67.6999Z" fill="#409E62"/>
</g>
</svg>
