<svg width="69" height="61" viewBox="0 0 69 61" fill="none" xmlns="http://www.w3.org/2000/svg">
<mask id="mask0_637_685" style="mask-type:alpha" maskUnits="userSpaceOnUse" x="0" y="0" width="69" height="61">
<rect width="69" height="61" rx="10" fill="#FFA41B"/>
</mask>
<g mask="url(#mask0_637_685)">
<path d="M73.5572 29.209C73.5572 29.791 73.5572 30.3004 73.4845 30.8825C73.4117 32.847 73.1934 34.8116 72.8296 36.7034C72.7569 37.0672 72.6841 37.3582 72.6113 37.6493C70.3557 47.7631 64.171 56.4216 55.658 61.806C50.1281 65.3713 43.5796 67.5541 36.6673 67.8451C36.0852 67.8451 35.4304 67.9179 34.8483 67.9179C30.6281 67.9179 26.5535 67.2631 22.7699 66.0261C14.2569 63.2612 7.05352 57.6586 2.32405 50.3097C1.08711 48.4179 0.06845 46.4534 -0.877445 44.3433C-2.842 39.7593 -3.93341 34.5933 -3.93341 29.209C-3.93341 7.81716 13.3837 -9.5 34.7755 -9.5C56.1673 -9.5 73.5572 7.81716 73.5572 29.209Z" fill="#39B8FF"/>
<path d="M81 31C81 31.6015 81 32.1278 80.9117 32.7293C80.8235 34.7594 80.5587 36.7895 80.1174 38.7444C80.0291 39.1203 79.9408 39.4211 79.8526 39.7218C77.1164 50.1729 69.6141 59.1203 59.2873 64.6842C52.5793 68.3684 44.6357 70.6241 36.2507 70.9248C35.5446 70.9248 34.7502 71 34.0441 71C28.9249 71 23.9822 70.3233 19.3925 69.0451C9.06573 66.188 0.327697 60.3985 -5.40939 52.8045C-6.90986 50.8496 -8.14554 48.8195 -9.29296 46.6391C-11.6761 41.9023 -13 36.5639 -13 31C-13 8.89474 8.00657 -9 33.9559 -9C59.9052 -9 81 8.89474 81 31Z" fill="#FFE8B6"/>
<path d="M57.9463 63.9652C51.8385 67.63 44.6056 69.8738 36.9709 70.173C36.328 70.173 35.6047 70.2478 34.9617 70.2478C30.3005 70.2478 25.8001 69.5747 21.6211 68.3032C12.2183 65.3862 4.26216 59.6272 -0.961594 52.0731C-2.32781 50.1284 -3.45292 48.109 -4.49767 45.94C6.91422 43.0231 19.2101 43.2475 30.4613 46.688C33.1133 47.5107 35.685 48.483 38.1764 49.6049C38.5782 49.7545 38.98 49.9789 39.3818 50.2032C39.7837 50.4276 40.1855 50.5772 40.5873 50.8016C47.1773 54.1673 53.1243 58.6549 57.9463 63.9652Z" fill="#D19176"/>
<path d="M64.8661 41.5246C63.0302 36.7627 60.0766 32.3031 56.3249 28.5993C55.2871 27.5411 54.0099 26.4829 52.4134 26.4073C50.4976 26.3317 48.9011 27.6923 47.7038 29.1284C45.1494 32.3786 43.6327 36.2336 42.4353 40.0885C41.2379 44.019 40.28 47.9495 38.6037 51.6532C42.9941 49.3856 47.3046 47.2692 51.8547 45.4551C56.0854 43.8678 60.3959 42.2805 64.8661 41.5246Z" fill="#9B6D5E"/>
<path d="M77.2391 31.698C77.1592 33.7388 76.9198 35.7796 76.5206 37.7449C76.4408 38.1228 76.361 38.4252 76.2812 38.7275C70.5338 40.1637 64.7864 41.6754 59.039 43.1115C59.1986 43.1115 59.2784 42.9604 59.3583 42.8092C59.7574 42.0533 59.8372 40.0881 59.917 39.4078C59.917 39.3322 59.917 39.3322 59.917 39.2566C60.1565 37.6693 60.5556 36.0064 61.1942 34.3435C61.5135 33.4365 61.9127 32.4538 62.3916 31.6224C63.0302 30.3374 63.7486 29.2036 64.6267 28.1454C66.5425 25.8778 69.2566 25.4999 71.811 26.7848C73.8864 27.9942 75.7224 29.7327 77.2391 31.698Z" fill="#9B6D5E"/>
<path d="M76.7547 37.178C76.6748 37.5635 76.595 37.8718 76.5152 38.1801C74.0406 48.8949 69.4905 60.2957 60.1508 66C54.084 69.7771 44.6645 69.8619 37.081 70.1703C36.4423 70.1703 35.7239 70.2473 35.0853 70.2473C30.4554 70.2473 25.9851 69.5536 21.8341 68.2431C23.3508 65.391 25.107 62.616 27.1825 60.0722C30.3755 55.9867 34.2072 52.2866 38.3582 49.1262C38.9968 48.6636 39.6354 48.2011 40.274 47.7386C41.4714 46.8907 42.6688 46.1198 43.946 45.4261C48.9751 42.4969 54.4831 40.3385 60.1508 38.951C61.3482 38.6426 62.6254 38.4114 63.9026 38.1801C68.0536 37.4093 72.3642 37.0239 76.7547 37.178Z" fill="#F7B882"/>
<path d="M23.4821 36.9995C23.4821 34.0939 24.9868 31.3374 26.993 29.1769C28.9992 27.0909 31.4354 25.5263 33.8715 24.0363C29.7874 24.7813 25.9899 27.0163 23.6254 30.5179C22.8372 25.4518 24.5568 19.9388 28.1394 16.3627C25.4883 16.8842 23.2671 18.9703 22.6223 21.7268C20.9026 18.2998 17.8216 15.6177 14.3107 14.5747C15.8871 15.8412 17.4634 17.1077 18.7531 18.6723C20.0428 20.2368 21.1176 22.0993 21.4042 24.1108C21.6192 25.7498 21.4042 27.3889 21.1892 29.0279C20.7593 31.8589 20.4011 34.5409 19.9712 37.4465C18.1799 34.8389 16.1737 32.3804 13.9525 30.2199C13.021 29.3259 11.9463 28.3574 10.6565 28.5064C12.3045 29.3259 13.5942 30.6669 14.669 32.2314C15.6721 33.7214 16.4603 35.3604 17.1768 36.9995C14.7406 36.776 12.2329 36.478 9.79672 36.2545C11.0864 36.8505 12.4478 37.372 13.8092 37.7445C15.7438 38.266 17.6067 38.266 18.6815 40.203C19.9712 42.5125 20.0428 45.4926 19.7562 48.1001C19.6129 49.3666 19.398 50.6331 19.2547 51.8996C19.183 52.7191 18.7531 55.7737 17.8933 56.0717C17.1768 56.2952 16.7469 57.7852 17.3201 58.3812C17.8216 58.9027 18.5382 58.8282 19.183 58.8282C22.1924 58.7537 25.2017 59.3497 27.9961 60.4672C24.8434 55.4012 23.4104 49.2921 23.8403 43.332C23.9836 41.544 24.3419 39.6815 25.56 38.415C26.5631 37.372 27.9961 36.8505 29.4291 36.478C30.7905 36.031 32.1519 35.6584 33.5132 35.2114C29.9307 33.9449 26.4198 34.7644 23.4821 36.9995Z" fill="#77383D"/>
<path d="M34.6168 70.7311C33.9792 70.7311 33.262 70.8084 32.6244 70.8084C28.002 70.8084 23.539 70.1126 19.3948 68.7982C10.0703 65.783 2.18028 59.8297 -3 52.0209C4.49148 51.789 12.1424 53.4899 18.8369 56.8918C20.909 57.9742 22.8217 59.1339 24.7344 60.5255C28.5599 63.3862 31.9071 66.788 34.6168 70.7311Z" fill="#DD8C6F"/>
<path d="M52.0199 10.9467C52.0199 13.4206 49.9826 15.4579 47.5087 15.4579C45.0349 15.4579 42.9976 13.4206 42.9976 10.9467C42.9976 8.4728 45.0349 6.43548 47.5087 6.43548C49.9826 6.36272 52.0199 8.40004 52.0199 10.9467Z" fill="white"/>
<path d="M40.0871 54.4577C39.7233 53.9484 39.3595 53.4391 38.9957 52.9298C39.5778 53.2208 40.0871 53.5846 40.5237 54.0939C40.5964 53.5118 40.5964 52.9298 40.6692 52.2749C40.9602 52.7842 41.2513 53.3663 41.4696 53.8756C41.7606 53.2936 42.3427 52.7842 42.9976 52.6387C42.852 53.0753 42.7065 53.5118 42.561 53.9484C42.9976 53.5118 43.5797 53.3663 44.1617 53.4391C43.7979 53.7301 43.5069 54.0939 43.1431 54.385C42.0517 54.5305 41.1785 54.385 40.0871 54.4577Z" fill="#D19176"/>
<path d="M49.9099 46.09C49.6189 45.508 49.1096 45.0714 48.5275 44.8531C49.1096 45.1442 49.6189 45.3624 50.201 45.6535C50.0555 45.1442 49.8372 44.5621 49.6916 44.0527C50.2737 44.3438 50.7831 44.8531 51.0013 45.4352C51.1469 44.9986 51.3652 44.4893 51.5107 44.0527C51.6562 44.4893 51.729 44.9259 51.729 45.3624C52.02 44.8531 52.7476 44.6348 53.2569 44.8531C52.6749 44.9986 52.2383 45.5807 52.3111 46.1628C51.4379 46.09 50.7831 46.1628 49.9099 46.09Z" fill="#D19176"/>
<path d="M54.4938 52.275C55.0032 52.275 55.5853 52.4933 56.0218 52.7843C55.8763 52.2022 55.5853 51.6929 55.2215 51.3291C55.8763 51.4746 56.4584 51.984 56.6767 52.6388C56.895 52.1295 57.3315 51.6201 57.8409 51.3291C57.6953 51.7657 57.5498 52.2022 57.3315 52.566C57.6953 52.1295 58.2774 51.8384 58.8595 51.8384C58.3502 52.1295 57.9136 52.6388 57.6226 53.1481C57.5498 53.2209 55.9491 53.0754 55.8035 53.0026C55.2942 52.8571 55.1487 52.4205 54.4938 52.275Z" fill="#D19176"/>
<path d="M62.7885 43.7619C62.5703 43.1798 62.0609 42.7432 61.4788 42.4522C62.1337 42.525 62.7158 42.7432 63.1523 43.1798C63.2251 42.7432 63.4434 42.3067 63.7344 41.9429C63.7344 42.3067 63.7344 42.6705 63.6617 43.0343C63.9527 42.6705 64.462 42.4522 64.8986 42.525C64.6076 42.816 64.3893 43.1798 64.3165 43.6164C63.88 43.6891 63.3706 43.6891 62.7885 43.7619Z" fill="#D19176"/>
<path d="M11.9285 26.9201C11.9285 26.7712 11.9285 26.5478 12.0012 26.3989C12.074 26.25 12.2195 26.1011 12.365 26.1011C12.5106 26.1011 12.7288 26.1755 12.8744 26.3245C13.4565 26.8457 13.8203 27.6647 13.8203 28.4838C14.2568 27.6647 15.2027 27.0691 16.0759 27.1435C16.1486 27.1435 15.421 28.4094 15.3483 28.4838C14.9844 28.8561 14.4751 29.154 13.9658 29.3029C12.7288 29.5263 12.0012 27.8881 11.9285 26.9201Z" fill="#CC6B52"/>
<path d="M11.3464 31.6854C11.783 32.1321 12.2923 32.43 12.9472 32.5044C13.4565 32.5789 14.9117 32.1321 14.1113 31.3875C13.4565 30.7918 11.9285 31.3131 11.3464 31.6854Z" fill="#CC6B52"/>
<path d="M17.3127 14.5595C17.3127 14.0383 17.531 13.4426 17.9676 13.0703C18.4769 13.4426 18.768 14.0383 18.768 14.634C18.768 15.0063 18.6224 15.8998 18.1131 15.8998C17.531 15.9743 17.3127 14.9318 17.3127 14.5595Z" fill="#CC6B52"/>
<path d="M19.8595 18.5063C19.714 17.9106 19.714 17.3149 20.005 16.7937C20.2961 16.2724 20.8054 15.8257 21.3147 15.6768C21.6058 16.198 21.533 16.7937 21.3147 17.3149C21.0237 17.8361 20.4416 18.5063 19.8595 18.5063Z" fill="#CC6B52"/>
<path d="M15.6393 19.0273C15.9303 18.5061 16.4397 18.0593 17.0217 17.9104C17.6038 17.7615 18.2587 17.8359 18.768 18.1338C18.6225 18.7295 18.1132 19.1762 17.5311 19.4741C17.0217 19.7719 16.2214 19.2507 15.6393 19.0273Z" fill="#CC6B52"/>
<path d="M26.4081 14.7088C26.4809 14.5598 26.5536 14.4109 26.6991 14.4109C26.9174 14.3365 27.2085 14.5598 27.2085 14.8577C27.2085 15.1555 27.0629 15.3789 26.9902 15.6023C27.354 15.3044 27.7178 15.1555 28.1544 15.0811C28.3726 15.0811 28.6637 15.0811 28.8092 15.3044C28.9547 15.5278 28.8092 15.9001 28.6637 16.1235C28.2999 16.5703 27.354 17.166 26.7719 16.8681C26.0443 16.4958 26.1898 15.3044 26.4081 14.7088Z" fill="#CC6B52"/>
<path d="M28.6635 25.8776C28.2269 25.5798 27.8631 25.133 27.7176 24.5373C27.5721 24.0161 27.7176 23.4204 27.9359 22.9736C28.6635 23.0481 29.1001 23.7927 29.1001 24.6118C29.3184 23.6438 30.1187 22.8992 31.0646 22.8247C31.0646 23.4949 30.7736 24.0905 30.337 24.6118C29.9004 24.9841 29.3184 25.8776 28.6635 25.8776Z" fill="#CC6B52"/>
<path d="M31.4284 25.2072C32.3016 24.4626 33.684 24.4626 34.5572 25.2817C34.1934 25.7284 33.6113 26.0263 33.0292 26.0263C32.4471 26.0263 31.865 25.654 31.4284 25.2072Z" fill="#CC6B52"/>
<path d="M32.2289 24.0155C32.0834 22.8986 32.811 21.7817 33.8296 21.4839C34.0479 22.0796 34.0479 22.8986 33.6841 23.4199C33.3931 24.0155 32.811 24.0155 32.2289 24.0155Z" fill="#CC6B52"/>
<path d="M27.281 28.112C27.7176 27.7397 28.3724 27.5908 28.9545 27.7397C29.5366 27.8886 30.0459 28.4098 30.1915 28.9311C29.7549 29.3034 28.9545 29.4523 28.4452 29.2289C27.8631 29.1544 27.4265 28.7077 27.281 28.112Z" fill="#CC6B52"/>
<path d="M31.283 34.8873C31.3557 34.3661 31.5012 33.7704 31.7923 33.3236C32.0833 32.8769 32.6654 32.5045 33.1747 32.6535C33.5386 33.0258 33.2475 33.6215 32.8837 34.0682C32.5199 34.3661 31.7923 34.6639 31.283 34.8873Z" fill="#CC6B52"/>
<path d="M28.9547 35.4083C29.464 35.3338 30.1189 35.4083 30.5554 35.7806C30.992 36.0784 31.3558 36.5996 31.4286 37.1953C30.9192 37.5676 30.1189 37.5676 29.6095 37.1953C29.0275 36.823 28.8819 36.004 28.9547 35.4083Z" fill="#CC6B52"/>
<path d="M12.9471 39.8757C13.4565 38.5354 14.8389 37.7164 16.2214 37.7908C16.0031 39.0566 14.1841 39.9502 12.9471 39.8757Z" fill="#CC6B52"/>
<path d="M12.2195 36.6743C11.2008 36.302 10.4732 35.2595 10.4005 34.2171C11.4191 34.1426 12.2195 34.8127 12.5105 35.8552C12.7288 35.2595 13.3109 34.7383 13.9658 34.7383C14.0385 35.2595 14.0385 35.7807 13.602 36.2275C13.3109 36.5253 12.7288 36.8232 12.2195 36.6743Z" fill="#CC6B52"/>
<path d="M11.3464 38.3129C11.8557 37.5683 12.8744 37.196 13.7475 37.4194C13.6748 38.015 13.4565 38.3129 13.0199 38.6107C12.6561 38.983 11.8557 38.4618 11.3464 38.3129Z" fill="#CC6B52"/>
</g>
</svg>
