<svg  viewBox="0 0 1024 196" fill="none" xmlns="http://www.w3.org/2000/svg">
<mask id="mask0_1564_135" style="mask-type:alpha" maskUnits="userSpaceOnUse" x="0" y="0" width="700" height="196">
<rect width="700" height="196" fill="#2B92D5"/>
</mask>
<g mask="url(#mask0_1564_135)">
<rect width="700" height="196" fill="#2B92D5"/>
<path d="M111.062 113.802H95.6172V180.123H111.062V113.802Z" fill="#319CE3"/>
<path d="M108.543 109.058H98.1445V136.94H108.543V109.058Z" fill="#319CE3"/>
<path d="M106.21 106.047H100.438V121.514H106.21V106.047Z" fill="#319CE3"/>
<path d="M105.289 113.966H101.352V103.449H102.804H104.181H105.289V113.966Z" fill="#319CE3"/>
<path d="M103.073 109.388H102.652V98.8707H102.805H102.958H103.073V109.388Z" fill="#319CE3"/>
<path d="M104.03 105.759H103.609V95.2001H103.762H103.915H104.03V105.759Z" fill="#319CE3"/>
<path d="M111.485 113.636H95.1992V114.337H111.485V113.636Z" fill="#319CE3"/>
<path d="M108.925 108.687H97.7617V109.347H108.925V108.687Z" fill="#319CE3"/>
<path d="M106.434 105.759H100.012V106.295H106.434V105.759Z" fill="#319CE3"/>
<path opacity="0.29" d="M99.5946 110.172H99.0977V113.1H99.5946V110.172Z" fill="#319CE3"/>
<path opacity="0.29" d="M100.934 110.172H100.438V113.1H100.934V110.172Z" fill="#319CE3"/>
<path opacity="0.29" d="M102.27 110.172H101.773V113.1H102.27V110.172Z" fill="#319CE3"/>
<path opacity="0.29" d="M103.61 110.172H103.113V113.1H103.61V110.172Z" fill="#319CE3"/>
<path opacity="0.29" d="M104.95 110.172H104.453V113.1H104.95V110.172Z" fill="#319CE3"/>
<path opacity="0.29" d="M106.282 110.172H105.785V113.1H106.282V110.172Z" fill="#319CE3"/>
<path opacity="0.29" d="M107.622 110.172H107.125V113.1H107.622V110.172Z" fill="#319CE3"/>
<path d="M98.1422 116.441H96.957V119.906H98.1422V116.441Z" fill="#319CE3"/>
<path opacity="0.29" d="M100.474 116.441H99.2891V119.906H100.474V116.441Z" fill="#319CE3"/>
<path d="M102.767 116.441H101.582V119.906H102.767V116.441Z" fill="#319CE3"/>
<path d="M105.099 116.441H103.914V119.906H105.099V116.441Z" fill="#319CE3"/>
<path d="M107.396 116.441H106.211V119.906H107.396V116.441Z" fill="#319CE3"/>
<path d="M109.724 116.441H108.539V119.906H109.724V116.441Z" fill="#319CE3"/>
<path d="M98.1422 121.844H96.957V125.309H98.1422V121.844Z" fill="#319CE3"/>
<path d="M100.474 121.844H99.2891V125.309H100.474V121.844Z" fill="#319CE3"/>
<path d="M102.767 121.844H101.582V125.309H102.767V121.844Z" fill="#319CE3"/>
<path opacity="0.29" d="M105.099 121.844H103.914V125.309H105.099V121.844Z" fill="#319CE3"/>
<path d="M107.396 121.844H106.211V125.309H107.396V121.844Z" fill="#319CE3"/>
<path d="M109.724 121.844H108.539V125.309H109.724V121.844Z" fill="#319CE3"/>
<path d="M98.1422 127.247H96.957V130.712H98.1422V127.247Z" fill="#319CE3"/>
<path d="M100.474 127.247H99.2891V130.712H100.474V127.247Z" fill="#319CE3"/>
<path d="M102.767 127.247H101.582V130.712H102.767V127.247Z" fill="#319CE3"/>
<path d="M105.099 127.247H103.914V130.712H105.099V127.247Z" fill="#319CE3"/>
<path opacity="0.29" d="M107.396 127.247H106.211V130.712H107.396V127.247Z" fill="#319CE3"/>
<path opacity="0.29" d="M109.724 127.247H108.539V130.712H109.724V127.247Z" fill="#319CE3"/>
<path opacity="0.29" d="M98.1422 132.65H96.957V136.115H98.1422V132.65Z" fill="#319CE3"/>
<path d="M100.474 132.65H99.2891V136.115H100.474V132.65Z" fill="#319CE3"/>
<path d="M102.767 132.65H101.582V136.115H102.767V132.65Z" fill="#319CE3"/>
<path d="M105.099 132.65H103.914V136.115H105.099V132.65Z" fill="#319CE3"/>
<path d="M107.396 132.65H106.211V136.115H107.396V132.65Z" fill="#319CE3"/>
<path d="M109.724 132.65H108.539V136.115H109.724V132.65Z" fill="#319CE3"/>
<path d="M98.1422 138.053H96.957V141.518H98.1422V138.053Z" fill="#319CE3"/>
<path opacity="0.29" d="M100.474 138.053H99.2891V141.518H100.474V138.053Z" fill="#319CE3"/>
<path d="M102.767 138.053H101.582V141.518H102.767V138.053Z" fill="#319CE3"/>
<path opacity="0.29" d="M105.099 138.053H103.914V141.518H105.099V138.053Z" fill="#319CE3"/>
<path d="M107.396 138.053H106.211V141.518H107.396V138.053Z" fill="#319CE3"/>
<path d="M109.724 138.053H108.539V141.518H109.724V138.053Z" fill="#319CE3"/>
<path d="M98.1422 143.456H96.957V146.921H98.1422V143.456Z" fill="#319CE3"/>
<path d="M100.474 143.456H99.2891V146.921H100.474V143.456Z" fill="#319CE3"/>
<path d="M102.767 143.456H101.582V146.921H102.767V143.456Z" fill="#319CE3"/>
<path d="M105.099 143.456H103.914V146.921H105.099V143.456Z" fill="#319CE3"/>
<path d="M107.396 143.456H106.211V146.921H107.396V143.456Z" fill="#319CE3"/>
<path opacity="0.29" d="M109.724 143.456H108.539V146.921H109.724V143.456Z" fill="#319CE3"/>
<path d="M98.1422 148.859H96.957V152.324H98.1422V148.859Z" fill="#319CE3"/>
<path opacity="0.29" d="M100.474 148.859H99.2891V152.324H100.474V148.859Z" fill="#319CE3"/>
<path opacity="0.29" d="M102.767 148.859H101.582V152.324H102.767V148.859Z" fill="#319CE3"/>
<path d="M105.099 148.859H103.914V152.324H105.099V148.859Z" fill="#319CE3"/>
<path d="M107.396 148.859H106.211V152.324H107.396V148.859Z" fill="#319CE3"/>
<path d="M109.724 148.859H108.539V152.324H109.724V148.859Z" fill="#319CE3"/>
<path d="M98.1422 154.263H96.957V157.727H98.1422V154.263Z" fill="#319CE3"/>
<path d="M100.474 154.263H99.2891V157.727H100.474V154.263Z" fill="#319CE3"/>
<path d="M102.767 154.263H101.582V157.727H102.767V154.263Z" fill="#319CE3"/>
<path d="M105.099 154.263H103.914V157.727H105.099V154.263Z" fill="#319CE3"/>
<path opacity="0.29" d="M107.396 154.263H106.211V157.727H107.396V154.263Z" fill="#319CE3"/>
<path d="M109.724 154.263H108.539V157.727H109.724V154.263Z" fill="#319CE3"/>
<path d="M98.1422 159.666H96.957V163.13H98.1422V159.666Z" fill="#319CE3"/>
<path opacity="0.29" d="M100.474 159.666H99.2891V163.13H100.474V159.666Z" fill="#319CE3"/>
<path d="M102.767 159.666H101.582V163.13H102.767V159.666Z" fill="#319CE3"/>
<path d="M105.099 159.666H103.914V163.13H105.099V159.666Z" fill="#319CE3"/>
<path d="M107.396 159.666H106.211V163.13H107.396V159.666Z" fill="#319CE3"/>
<path d="M109.724 159.666H108.539V163.13H109.724V159.666Z" fill="#319CE3"/>
<path d="M98.1422 165.069H96.957V168.533H98.1422V165.069Z" fill="#319CE3"/>
<path d="M100.474 165.069H99.2891V168.533H100.474V165.069Z" fill="#319CE3"/>
<path d="M102.767 165.069H101.582V168.533H102.767V165.069Z" fill="#319CE3"/>
<path opacity="0.29" d="M105.099 165.069H103.914V168.533H105.099V165.069Z" fill="#319CE3"/>
<path d="M107.396 165.069H106.211V168.533H107.396V165.069Z" fill="#319CE3"/>
<path opacity="0.29" d="M109.724 165.069H108.539V168.533H109.724V165.069Z" fill="#319CE3"/>
<path opacity="0.29" d="M98.1422 170.472H96.957V173.936H98.1422V170.472Z" fill="#319CE3"/>
<path d="M100.474 170.472H99.2891V173.936H100.474V170.472Z" fill="#319CE3"/>
<path opacity="0.29" d="M102.767 170.472H101.582V173.936H102.767V170.472Z" fill="#319CE3"/>
<path d="M105.099 170.472H103.914V173.936H105.099V170.472Z" fill="#319CE3"/>
<path d="M107.396 170.472H106.211V173.936H107.396V170.472Z" fill="#319CE3"/>
<path d="M109.724 170.472H108.539V173.936H109.724V170.472Z" fill="#319CE3"/>
<path d="M75.5812 116.317H50.7695V172.204H75.5812V116.317Z" fill="#319CE3"/>
<path d="M76.2731 115.369H50.0469V116.936H76.2731V115.369Z" fill="#319CE3"/>
<path d="M74.7459 113.348H51.5781V120.854H74.7459V113.348Z" fill="#319CE3"/>
<path d="M62.5464 110.254H53.3711V118.462H62.5464V110.254Z" fill="#319CE3"/>
<path d="M58.6852 112.564H53.3711V108.275H57.1559L58.6852 112.564Z" fill="#319CE3"/>
<path d="M56.0087 104.686H55.5117V114.296H56.0087V104.686Z" fill="#319CE3"/>
<path d="M56.2418 104.191C56.2418 104.48 56.0506 104.686 55.783 104.686C55.5154 104.686 55.3242 104.48 55.3242 104.191C55.3242 103.903 55.5154 103.696 55.783 103.696C56.0124 103.696 56.2418 103.903 56.2418 104.191Z" fill="#319CE3"/>
<path d="M281.19 176.452H254.008L250.605 94.2924L281.19 101.139V176.452Z" fill="#319CE3"/>
<path d="M162.597 129.516V102.088H158.353V94.7049H156.824V83.94H148.452V75.9798H147.687V83.94H146.043V74H145.317V83.94H140.003V102.088H137.25V129.516H134.918V179.545H164.279V129.516H162.597Z" fill="#319CE3"/>
<path d="M340.786 175.421H16.0547V183.752H340.786V175.421Z" fill="#319CE3"/>
<path d="M207.214 181.731H192.801L198.421 150.674H207.214V181.731Z" fill="#3487BD"/>
<path d="M345.339 182.928H4.39844V196.085H345.339V182.928Z" fill="#3487BD"/>
<path d="M195.401 124.236V110.46H190.813V105.222H188.328V100.85H187.449V93.3026H187.22V100.85H186.378V105.222H183.893V110.46H179.306V124.236H178.35V149.231H171.277V177.731H178.35H185.461H196.318V124.236H195.401Z" fill="#3487BD"/>
<path d="M221.928 140.033H199.602V140.487H200.596V181.237H220.934V140.487H221.928V140.033Z" fill="#3487BD"/>
<path d="M120.042 150.22H100.238V184.165H120.042V150.22Z" fill="#3487BD"/>
<path d="M97.2237 167.584H63.1602V184.165H97.2237V167.584Z" fill="#3487BD"/>
<path d="M88.9268 130.588H81.4336V171.255H88.9268V130.588Z" fill="#3487BD"/>
<path d="M83.4604 119.741H83.0781V141.848H83.4604V119.741Z" fill="#3487BD"/>
<path d="M84.7222 121.432H84.3398V143.539H84.7222V121.432Z" fill="#3487BD"/>
<path d="M86.5955 128.072H82.0078V133.516H86.5955V128.072Z" fill="#3487BD"/>
<path d="M108.955 156.283H95.918V184.165H108.955V156.283Z" fill="#3487BD"/>
<path d="M147.683 126.793H123.254V184.165H147.683V126.793Z" fill="#3487BD"/>
<path d="M145.319 124.813H125.668V134.382H145.319V124.813Z" fill="#3487BD"/>
<path d="M149.558 127.989H121.344V128.649H149.558V127.989Z" fill="#3487BD"/>
<path d="M130.332 155.17H118.824V184.165H130.332V155.17Z" fill="#3487BD"/>
<path d="M49.5833 154.097H36.3555V184.165H49.5833V154.097Z" fill="#3487BD"/>
<path d="M66.9854 145.89H40.6445V184.165H66.9854V145.89Z" fill="#3487BD"/>
<path d="M67.6716 144.446H39.1133V145.931H67.6716V144.446Z" fill="#3487BD"/>
<path d="M53.369 140.445H41.7852V148.199H53.369V140.445Z" fill="#3487BD"/>
<path d="M59.1099 140.445H57.1602V145.147H59.1099V140.445Z" fill="#3487BD"/>
<path d="M63.1565 140.445H61.0156V145.147H63.1565V140.445Z" fill="#3487BD"/>
<path d="M42.977 172.534H29.1758V184.165H42.977V172.534Z" fill="#3487BD"/>
<path d="M30.5062 167.584H23.9688V184.165H30.5062V167.584Z" fill="#3487BD"/>
<path d="M27.2219 178.349H16.0586V184.165H27.2219V178.349Z" fill="#3487BD"/>
<path d="M282.835 171.255H145.281V184.165H282.835V171.255Z" fill="#3487BD"/>
<path d="M297.131 150.592H275.875V184.165H297.131V150.592Z" fill="#3487BD"/>
<path d="M315.248 163.625H293.992V183.959H315.248V163.625Z" fill="#3487BD"/>
<path d="M223.537 160.655H211.609V177.731H223.537V160.655Z" fill="#3487BD"/>
<path d="M301.529 118.668H286.504V184.165H301.529V118.668Z" fill="#3487BD"/>
<path d="M326.261 184.165H306.457V145.89H321.482L326.261 184.165Z" fill="#3487BD"/>
<path d="M334.939 175.421H317.582V184.165H334.939V175.421Z" fill="#3487BD"/>
<path d="M298.164 104.975H297.629V122.793H298.164V104.975Z" fill="#3487BD"/>
<path d="M299.922 108.769H299.387V126.587H299.922V108.769Z" fill="#3487BD"/>
<path d="M296.598 111.244H296.062V129.062H296.598V111.244Z" fill="#3487BD"/>
<path d="M314.334 142.796H307.223V148.818H314.334V142.796Z" fill="#3487BD"/>
<path d="M313.536 140.652H307.992V144.034H313.536V140.652Z" fill="#3487BD"/>
<path d="M318.501 144.57H317.125V147.003H318.501V144.57Z" fill="#3487BD"/>
<path d="M320.911 142.343H318.961V147.003H320.911V142.343Z" fill="#3487BD"/>
<path d="M229.569 133.434H211.562V196.085H229.569V133.434Z" fill="#1877B5"/>
<path d="M230.909 133.805H210.188V134.424H230.909V133.805Z" fill="#1877B5"/>
<path d="M230.336 142.59H210.762V143.209H230.336V142.59Z" fill="#1877B5"/>
<path d="M230.336 151.128H210.762V151.746H230.336V151.128Z" fill="#1877B5"/>
<path d="M230.336 159.624H210.762V160.243H230.336V159.624Z" fill="#1877B5"/>
<path d="M230.336 168.162H210.762V168.781H230.336V168.162Z" fill="#1877B5"/>
<path d="M230.336 176.7H210.762V177.318H230.336V176.7Z" fill="#1877B5"/>
<path d="M230.336 185.196H210.762V185.815H230.336V185.196Z" fill="#1877B5"/>
<path d="M231.594 132.073H209.535V133.805H231.594V132.073Z" fill="#1877B5"/>
<path opacity="0.29" d="M215.041 136.486H213.168V141.477H215.041V136.486Z" fill="#1877B5"/>
<path d="M219.244 136.486H217.371V141.477H219.244V136.486Z" fill="#1877B5"/>
<path d="M223.412 136.486H221.539V141.477H223.412V136.486Z" fill="#1877B5"/>
<path d="M227.619 136.486H225.746V141.477H227.619V136.486Z" fill="#1877B5"/>
<path d="M215.041 144.652H213.168V149.643H215.041V144.652Z" fill="#1877B5"/>
<path opacity="0.29" d="M219.244 144.652H217.371V149.643H219.244V144.652Z" fill="#1877B5"/>
<path d="M223.412 144.652H221.539V149.643H223.412V144.652Z" fill="#1877B5"/>
<path d="M227.619 144.652H225.746V149.643H227.619V144.652Z" fill="#1877B5"/>
<path d="M215.041 153.19H213.168V158.181H215.041V153.19Z" fill="#1877B5"/>
<path d="M219.244 153.19H217.371V158.181H219.244V153.19Z" fill="#1877B5"/>
<path d="M223.412 153.19H221.539V158.181H223.412V153.19Z" fill="#1877B5"/>
<path opacity="0.29" d="M227.619 153.19H225.746V158.181H227.619V153.19Z" fill="#1877B5"/>
<path d="M215.041 161.728H213.168V166.718H215.041V161.728Z" fill="#1877B5"/>
<path opacity="0.29" d="M219.244 161.728H217.371V166.718H219.244V161.728Z" fill="#1877B5"/>
<path opacity="0.29" d="M223.412 161.728H221.539V166.718H223.412V161.728Z" fill="#1877B5"/>
<path d="M227.619 161.728H225.746V166.718H227.619V161.728Z" fill="#1877B5"/>
<path opacity="0.29" d="M215.041 170.224H213.168V175.215H215.041V170.224Z" fill="#1877B5"/>
<path d="M219.244 170.224H217.371V175.215H219.244V170.224Z" fill="#1877B5"/>
<path d="M223.412 170.224H221.539V175.215H223.412V170.224Z" fill="#1877B5"/>
<path d="M227.619 170.224H225.746V175.215H227.619V170.224Z" fill="#1877B5"/>
<path d="M215.041 178.762H213.168V183.752H215.041V178.762Z" fill="#1877B5"/>
<path d="M219.244 178.762H217.371V183.752H219.244V178.762Z" fill="#1877B5"/>
<path opacity="0.29" d="M223.412 178.762H221.539V183.752H223.412V178.762Z" fill="#1877B5"/>
<path d="M227.619 178.762H225.746V183.752H227.619V178.762Z" fill="#1877B5"/>
<path d="M215.041 187.3H213.168V192.29H215.041V187.3Z" fill="#1877B5"/>
<path opacity="0.29" d="M219.244 187.3H217.371V192.29H219.244V187.3Z" fill="#1877B5"/>
<path d="M223.412 187.3H221.539V192.29H223.412V187.3Z" fill="#1877B5"/>
<path opacity="0.29" d="M227.619 187.3H225.746V192.29H227.619V187.3Z" fill="#1877B5"/>
<path d="M218.785 129.681H212.668V132.939H218.785V129.681Z" fill="#1877B5"/>
<path d="M219.243 129.598H212.285V130.134H219.243V129.598Z" fill="#1877B5"/>
<path d="M185.725 196.085H161.754V136.568L185.725 130.217V196.085Z" fill="#1877B5"/>
<path d="M162.786 135.496H160.684V196.043H162.786V135.496Z" fill="#1877B5"/>
<path d="M168.786 133.805H166.684V196.085H168.786V133.805Z" fill="#1877B5"/>
<path d="M174.79 132.031H172.688V196.085H174.79V132.031Z" fill="#1877B5"/>
<path d="M180.79 130.588H178.688V196.085H180.79V130.588Z" fill="#1877B5"/>
<path d="M186.798 129.062H184.695V196.085H186.798V129.062Z" fill="#1877B5"/>
<path opacity="0.29" d="M166.146 140.569H163.355V145.189H166.146V140.569Z" fill="#1877B5"/>
<path opacity="0.29" d="M172.111 140.569H169.32V145.189H172.111V140.569Z" fill="#1877B5"/>
<path d="M178.115 140.569H175.324V145.189H178.115V140.569Z" fill="#1877B5"/>
<path opacity="0.29" d="M184.119 140.569H181.328V145.189H184.119V140.569Z" fill="#1877B5"/>
<path d="M166.146 148.612H163.355V153.231H166.146V148.612Z" fill="#1877B5"/>
<path d="M172.111 148.612H169.32V153.231H172.111V148.612Z" fill="#1877B5"/>
<path opacity="0.29" d="M178.115 148.612H175.324V153.231H178.115V148.612Z" fill="#1877B5"/>
<path opacity="0.29" d="M184.119 148.612H181.328V153.231H184.119V148.612Z" fill="#1877B5"/>
<path opacity="0.29" d="M166.146 156.614H163.355V161.233H166.146V156.614Z" fill="#1877B5"/>
<path opacity="0.29" d="M172.111 156.614H169.32V161.233H172.111V156.614Z" fill="#1877B5"/>
<path opacity="0.29" d="M178.115 156.614H175.324V161.233H178.115V156.614Z" fill="#1877B5"/>
<path d="M184.119 156.614H181.328V161.233H184.119V156.614Z" fill="#1877B5"/>
<path opacity="0.29" d="M166.146 164.615H163.355V169.234H166.146V164.615Z" fill="#1877B5"/>
<path d="M172.111 164.615H169.32V169.234H172.111V164.615Z" fill="#1877B5"/>
<path opacity="0.29" d="M178.115 164.615H175.324V169.234H178.115V164.615Z" fill="#1877B5"/>
<path opacity="0.29" d="M184.119 164.615H181.328V169.234H184.119V164.615Z" fill="#1877B5"/>
<path opacity="0.29" d="M166.146 172.617H163.355V177.236H166.146V172.617Z" fill="#1877B5"/>
<path opacity="0.29" d="M172.111 172.617H169.32V177.236H172.111V172.617Z" fill="#1877B5"/>
<path d="M178.115 172.617H175.324V177.236H178.115V172.617Z" fill="#1877B5"/>
<path opacity="0.29" d="M184.119 172.617H181.328V177.236H184.119V172.617Z" fill="#1877B5"/>
<path d="M166.146 180.618H163.355V185.237H166.146V180.618Z" fill="#1877B5"/>
<path d="M172.111 180.618H169.32V185.237H172.111V180.618Z" fill="#1877B5"/>
<path opacity="0.29" d="M178.115 180.618H175.324V185.237H178.115V180.618Z" fill="#1877B5"/>
<path opacity="0.29" d="M184.119 180.618H181.328V185.237H184.119V180.618Z" fill="#1877B5"/>
<path opacity="0.29" d="M166.146 188.661H163.355V193.28H166.146V188.661Z" fill="#1877B5"/>
<path d="M172.111 188.661H169.32V193.28H172.111V188.661Z" fill="#1877B5"/>
<path opacity="0.29" d="M178.115 188.661H175.324V193.28H178.115V188.661Z" fill="#1877B5"/>
<path d="M184.119 188.661H181.328V193.28H184.119V188.661Z" fill="#1877B5"/>
<path d="M93.2837 139.414V140.033H92.7102V141.765H102.765V196.085H86.2875V144.611V141.765V140.033H85.6758V139.414H93.2837Z" fill="#1877B5"/>
<path d="M135.459 164.079H121.352V196.085H135.459V164.079Z" fill="#1877B5"/>
<path d="M71.3012 156.737H59.832V196.085H71.3012V156.737Z" fill="#1877B5"/>
<path d="M81.5444 164.904H69.043V196.043H81.5444V164.904Z" fill="#1877B5"/>
<path d="M69.0456 155.129H63.9609V159.83H69.0456V155.129Z" fill="#1877B5"/>
<path d="M83.2292 164.409H69.8867V165.563H83.2292V164.409Z" fill="#1877B5"/>
<path d="M94.2377 178.267H80.207V196.044H94.2377V178.267Z" fill="#1877B5"/>
<path d="M46.2951 163.831H34.9023V196.085H46.2951V163.831Z" fill="#1877B5"/>
<path d="M39.9864 179.875H25V196.043H39.9864V179.875Z" fill="#1877B5"/>
<path d="M17.8548 177.236H8.48828V196.044H17.8548V177.236Z" fill="#1877B5"/>
<path d="M38.2285 190.186H16.0547V196.084H38.2285V190.186Z" fill="#1877B5"/>
<path d="M11.3545 188.248H0V196.043H11.3545V188.248Z" fill="#1877B5"/>
<path d="M63.9594 184.165H46.2969V196.084H63.9594V184.165Z" fill="#1877B5"/>
<path d="M125.663 190.929H98.1367V196.043H125.663V190.929Z" fill="#1877B5"/>
<path d="M174.448 190.929H146.922V196.043H174.448V190.929Z" fill="#1877B5"/>
<path d="M124.597 175.875H114.122L109.688 193.486H124.597V175.875Z" fill="#1877B5"/>
<path d="M129.716 150.262H129.41V169.812H129.716V150.262Z" fill="#1877B5"/>
<path d="M131.249 156.861H130.867V168.41H131.249V156.861Z" fill="#1877B5"/>
<path d="M134.077 158.923H128.801V164.615H134.077V158.923Z" fill="#1877B5"/>
<path d="M134.875 158.469H127.879V158.964H134.875V158.469Z" fill="#1877B5"/>
<path d="M149.98 179.546H132.891V196.044H149.98V179.546Z" fill="#1877B5"/>
<path d="M157.699 161.398H146.727V193.239H157.699V161.398Z" fill="#1877B5"/>
<path d="M207.177 167.378H189.629V196.085H207.177V167.378Z" fill="#1877B5"/>
<path d="M204.112 185.484H184.117V196.043H204.112V185.484Z" fill="#1877B5"/>
<path d="M219.213 192.29H206.215V196.084H219.213V192.29Z" fill="#1877B5"/>
<path d="M247.392 185.484H226.25V196.043H247.392V185.484Z" fill="#1877B5"/>
<path d="M234.675 196.071H261.016V157.796H234.675V196.071Z" fill="#1877B5"/>
<path d="M234.004 157.832H262.562V156.347H234.004V157.832Z" fill="#1877B5"/>
<path d="M248.287 160.115H259.871V152.361H248.287V160.115Z" fill="#1877B5"/>
<path d="M242.546 157.075H244.496V152.373H242.546V157.075Z" fill="#1877B5"/>
<path d="M238.48 157.075H240.621V152.373H238.48V157.075Z" fill="#1877B5"/>
<path d="M279.125 196.068H299.961V140.181H279.125V196.068Z" fill="#1877B5"/>
<path d="M278.518 140.802H300.539V139.235H278.518V140.802Z" fill="#1877B5"/>
<path d="M279.852 144.707H299.273V137.201H279.852V144.707Z" fill="#1877B5"/>
<path d="M290.07 142.353H297.754V134.146H290.07V142.353Z" fill="#1877B5"/>
<path d="M293.301 136.445H297.774V132.155H294.562L293.301 136.445Z" fill="#1877B5"/>
<path d="M295.54 138.158H295.961V128.548H295.54V138.158Z" fill="#1877B5"/>
<path d="M295.363 128.072C295.363 128.361 295.554 128.567 295.746 128.567C295.937 128.567 296.128 128.361 296.128 128.072C296.128 127.783 295.937 127.577 295.746 127.577C295.554 127.577 295.363 127.783 295.363 128.072Z" fill="#1877B5"/>
<path d="M306.461 172.988H297.133V196.044H306.461V172.988Z" fill="#1877B5"/>
<path d="M281.183 161.769H270.555V196.085H281.183V161.769Z" fill="#1877B5"/>
<path d="M275.869 196.085H260.883V177.731L273.537 183.753L275.869 196.085Z" fill="#1877B5"/>
<path d="M326.26 186.103H303.359V196.084H326.26V186.103Z" fill="#1877B5"/>
<path d="M331.113 156.283H317.809V196.085H331.113V156.283Z" fill="#1877B5"/>
<path d="M349.997 188.66H327.977V196.084H349.997V188.66Z" fill="#1877B5"/>
<path d="M331.691 155.541H317.125V156.861H331.691V155.541Z" fill="#1877B5"/>
<path d="M329.318 149.932H329.012V157.933H329.318V149.932Z" fill="#1877B5"/>
<path d="M327.368 150.963H327.062V157.397H327.368V150.963Z" fill="#1877B5"/>
<path d="M336.012 171.255H330.086V189.486H338.535L336.012 171.255Z" fill="#1877B5"/>
</g>
</svg>
