<svg  viewBox="0 0 140 143" fill="none" xmlns="http://www.w3.org/2000/svg">
<mask id="mask0_1051_9943" style="mask-type:alpha" maskUnits="userSpaceOnUse" x="0" y="0" width="140" height="143">
<rect width="140" height="143" rx="10" fill="#F9F9F9"/>
</mask>
<g mask="url(#mask0_1051_9943)">
<path d="M185.365 72.565C190.055 73.422 193.416 77.5363 193.416 82.3042V180.083C193.416 185.606 188.939 190.083 183.416 190.083H-40.9053C-46.4281 190.083 -50.9053 185.606 -50.9053 180.083V82.1136C-50.9053 77.3405 -47.537 73.2231 -42.8403 72.3723C-8.99175 66.2408 29.6489 62.7739 70.7178 62.7739C112.222 62.7739 151.254 66.3324 185.365 72.565Z" fill="#ECCE8C"/>
<path d="M74.5 136C128.348 136 172 128.389 172 119C172 109.611 128.348 102 74.5 102C20.6522 102 -23 109.611 -23 119C-23 128.389 20.6522 136 74.5 136Z" fill="#D7B370"/>
<path d="M153.02 -1.92538C155.775 -1.79304 157.34 0.948221 157.34 3.70636V38.8231C157.34 44.346 152.863 48.8231 147.34 48.8231H78.512C73.7116 48.469 68.9113 48.0794 64.111 47.6545C63.6652 47.6191 63.2195 47.5836 62.7737 47.5128C60.8536 47.3003 58.8992 46.9816 57.0133 47.0878C56.3961 47.1233 51.0472 46.9462 50.9443 47.1587C51.1158 46.6629 51.2872 46.1317 51.5272 45.6359C51.6987 45.2817 51.8358 44.9276 52.0416 44.5734C52.933 42.8381 54.1674 41.2799 55.6075 40.005C56.1218 39.5446 56.7047 39.0842 57.3905 38.9072C57.5984 38.8427 57.8126 38.8044 58.0255 38.796C58.5244 38.7763 59.408 38.2795 59.6535 37.8447C59.7564 37.6677 59.8592 37.4906 59.9964 37.3489C60.0993 37.2427 60.2021 37.1365 60.3393 37.0302C61.1288 36.5002 62.5238 35.415 62.739 34.4888C63.0638 33.0905 63.885 31.8048 65.0367 30.9744C65.2082 30.8681 65.3453 30.7619 65.5168 30.6557C66.3306 30.2083 67.2449 29.9996 68.1578 30.0138C70.1956 30.0455 73.2835 29.3776 75.2203 28.7433C77.1649 28.1499 80.2053 26.94 81.4413 25.3256C82.4807 23.9679 83.9372 22.9838 85.7125 22.6875C87.0213 22.474 88.3689 22.6894 89.584 23.2302C90.6836 23.7197 96.3795 23.7613 97.5831 23.771C98.3365 23.7771 99.1734 23.3385 99.4736 22.6475C99.875 21.7234 100.507 20.9045 101.28 20.2634C103.047 18.7978 105.327 16.0953 106.653 14.2218C107.074 13.6274 107.61 13.124 108.24 12.7715C108.758 12.481 109.326 12.2999 109.91 12.2222C111.517 12.0079 115.702 10.5702 117.161 9.86385C118.374 9.27715 119.862 7.83641 120.012 6.49771C120.428 2.77115 123.02 -0.734156 126.55 -1.78373C129.781 -2.74442 133.396 -1.53937 135.737 0.90379C136.526 1.72765 139.571 1.92278 140.711 1.86393C142.163 1.787 145.189 1.71932 146.264 0.740007C148.113 -0.944046 150.552 -1.94834 153.02 -1.92538Z" fill="#FFC511"/>
<path d="M152.37 6.9636C155.503 6.50143 157.342 9.90104 157.342 13.0672V35.0692C157.342 40.5921 152.865 45.0692 147.342 45.0692H100.218C94.6979 44.361 89.1432 43.6881 83.6228 43.0152C82.4069 42.8725 81.1688 42.7068 79.9442 42.5552C79.5833 42.5105 79.4213 42.0625 79.714 41.8466C82.7313 38.9426 85.7144 36.0386 88.7317 33.1347C89.1775 32.7097 89.6232 32.2493 90.1376 31.8598C90.7547 31.3285 91.4405 30.9036 92.1948 30.6203C92.6373 30.4679 93.1173 30.3893 93.5913 30.3945C94.8761 30.4088 96.9304 30.2093 98.1441 29.7875C99.7285 29.2368 103.904 27.5533 105.124 26.4018C105.729 25.8306 106.436 25.3783 107.213 25.0957C108.015 24.7924 108.869 24.6697 109.714 24.7123C111.256 24.79 115.532 23.3812 116.995 22.8894C118.047 22.5356 119.439 21.5149 120.468 21.0962C120.539 21.067 120.613 21.0425 120.688 21.023C121.034 20.9338 122.572 19.8765 122.583 19.5198C122.714 15.1211 125.514 10.8214 129.569 9.33634C133.591 7.8631 138.35 9.35617 141.138 12.6326C141.484 13.039 143.766 13.2145 144.298 13.2616C144.676 13.2951 145.188 13.1383 145.314 12.7804C146.395 9.7123 149.224 7.35361 152.37 6.9636Z" fill="#DB812F"/>
<path d="M149.627 13.4794C153.371 10.743 157.342 14.8684 157.342 19.5055V33.0148C157.342 38.5377 152.865 43.0148 147.342 43.0148H118.562C112.041 42.4196 105.466 42.2955 98.932 42.667C98.0652 42.7163 97.5024 41.5732 97.9895 40.8545C98.6409 39.8984 99.1896 38.9068 99.8067 37.9152C100.047 37.5256 100.287 37.1006 100.561 36.7465C101.418 35.4716 102.447 34.3029 103.784 33.5592C106.284 32.1652 110.684 31.2487 112.991 29.5552C114.477 28.464 116.192 27.7078 117.979 27.3972C120.037 27.043 122.197 27.2555 124.151 27.9992C125.29 28.4172 126.372 29.0087 127.329 29.7594C127.796 30.1253 128.503 29.9401 128.78 29.4158C129.603 27.7513 130.975 26.4056 132.62 25.6619C133.322 25.3598 134.064 25.1691 134.816 25.0896C136.877 24.8717 139.61 23.1825 141.604 22.6162C142.679 22.283 145.434 20.7515 145.71 19.6597C146.321 17.2328 147.692 15.007 149.627 13.4794Z" fill="#F69F1A"/>
<path d="M95.0394 45.5294C95.2866 46.755 94.4264 47.9815 93.1765 47.9523C88.68 47.8471 84.1671 47.708 79.6783 47.6189C76.901 47.5835 74.1236 47.5126 71.3463 47.5126H-4.0996C-9.62244 47.5126 -14.0996 43.0355 -14.0996 37.5126V-8.27629C-14.0996 -9.22827 -13.3279 -10 -12.3759 -10C-12.0677 -10 -11.7643 -9.91882 -11.5007 -9.75924C-11.1577 -9.55162 -10.8197 -9.33371 -10.4994 -9.07923C-7.24199 -6.494 -5.73332 -1.60684 -7.37914 2.28872C-6.89911 1.04922 -5.28757 0.58884 -4.08749 1.08464C-3.41223 1.36361 -0.643821 1.17436 -0.139188 0.646026C2.0477 -1.64357 5.86508 -2.46983 8.63339 -1.04021C11.2796 0.301489 12.795 3.45612 12.6585 6.47908C12.6207 7.31802 14.4727 9.91438 15.1199 10.4494C15.2669 10.5709 15.4032 10.7047 15.5261 10.8493C15.8705 11.2545 16.9325 11.552 17.4594 11.48C18.0897 11.3939 20.949 10.6635 21.3235 10.1492C23.4444 7.23742 27.4535 5.73116 30.8178 7.03422C33.3649 8.04923 35.1494 10.5545 35.7255 13.2957C35.9041 14.1457 39.6147 17.5066 40.4184 17.8355C40.5757 17.8987 40.729 17.9705 40.8778 18.0504C41.4614 18.3633 47.4053 20.2635 47.9961 20.5624C49.6419 21.4124 50.3963 23.6435 49.9163 25.485C51.0478 21.4478 55.8481 18.9688 59.6541 20.527C62.9021 21.8689 64.7516 25.9159 64.0201 29.3885C63.9116 29.9037 64.6448 30.8264 65.1059 31.0804C65.8602 31.5054 66.3745 32.3554 66.2031 33.2053C66.4431 32.1783 68.6033 32.922 69.0147 33.3115C69.9358 34.161 71.6447 34.7542 72.6983 34.0761C73.7908 33.3731 75.0673 32.9751 76.3524 32.9928C77.8286 33.0131 79.2822 33.582 80.4473 34.5251C81.0573 35.0189 83.7984 34.9911 84.5815 34.9406C86.4254 34.8216 88.5224 36.7074 90.1339 37.6114C90.1461 37.6183 90.1583 37.6251 90.1705 37.6321C91.0962 38.1633 91.9535 38.9424 92.6049 39.7923C93.1535 40.536 93.5993 41.4214 93.9764 42.3776C94.3879 43.4046 94.7308 44.467 95.0394 45.5294Z" fill="#DB812F"/>
<path d="M155.459 33.6881C156.526 33.5385 157.342 34.4772 157.342 35.5544V39.2434C157.342 42.7155 154.527 45.5302 151.055 45.5302H94.532C93.0029 45.5302 92.2561 43.5292 93.5077 42.6507C93.6246 42.5686 93.7426 42.4881 93.8618 42.4093C93.8925 42.389 93.9421 42.3739 93.97 42.3499C93.9813 42.3401 93.9838 42.3389 93.9965 42.3309C95.9488 41.0993 98.5444 40.469 100.561 41.4221C101.02 41.6594 101.625 41.5946 102.064 41.3206C102.421 41.0973 102.817 40.9398 103.229 40.8483C104.895 40.4782 107.826 39.7558 109.493 39.3912C109.612 39.365 109.733 39.3454 109.853 39.3327C110.23 39.2973 113.899 39.616 113.693 40.2534C114.178 38.8519 117.952 36.5119 118.859 35.3387C119.464 34.5564 120.231 33.9025 121.099 33.4539C122.025 32.9935 123.054 32.7456 124.117 32.7102C125.523 32.6748 126.928 33.0644 128.163 33.7727C128.368 33.8789 128.574 34.0206 128.746 34.1622C130.145 35.1438 134.931 35.2614 136.44 34.4588C137.144 34.0842 137.904 33.823 138.689 33.7018C140.833 33.3709 143.083 34.101 144.727 35.5371C145.271 36.012 147.294 35.8975 148.016 35.8975C148.776 35.8975 150.77 36.0653 151.346 35.5688C152.522 34.556 153.964 33.8978 155.459 33.6881Z" fill="#FFC511"/>
<path d="M66.8889 44.609C66.8889 45.1625 66.5125 45.6361 65.959 45.6395C64.5191 45.6484 63.075 45.6714 61.6085 45.6714H-4.0996C-9.62244 45.6714 -14.0996 41.1943 -14.0996 35.6714V9.72809C-14.0996 7.35263 -12.2123 5.21718 -9.98504 6.04298C-7.91095 6.81782 -6.16343 8.5459 -5.28159 10.6232C-4.96218 11.3757 -2.31639 12.6417 -1.51588 12.8071C-0.467376 13.0477 2.22412 13.1721 2.98593 12.4125C3.7343 11.6663 4.59463 11.047 5.54747 10.6114C7.63904 9.65523 10.1421 9.61981 12.1651 10.7531C14.3252 11.9571 15.6625 14.3653 16.2111 16.8089C16.4176 17.7287 16.5318 18.6687 16.5884 19.6173C16.6472 20.6012 19.4174 22.0248 20.3942 22.1564C22.0368 22.3826 25.5205 22.8412 27.0254 22.1452C28.947 21.2564 31.1432 21.3901 33.1151 23.2189C34.0267 24.0681 34.6495 25.2061 34.9348 26.4271C35.1954 27.5424 37.1073 29.3563 38.0579 29.9953C38.905 30.5648 40.7877 31.3318 41.77 31.6093C42.1343 31.7123 42.483 31.8824 42.7843 32.1078C43.0929 32.3557 43.4015 32.639 43.6415 32.9578C44.2872 33.8024 45.7176 33.8582 46.5144 33.1543C46.9986 32.7267 47.536 32.3632 48.099 32.0724C49.642 31.2933 51.3907 31.0454 53.0365 31.5058C54.1337 31.7891 55.1281 32.3911 55.9853 33.1702C57.0648 34.1839 57.8635 35.524 58.2179 36.9829C58.332 37.4525 59.2933 37.7833 59.7227 37.5616C59.8255 37.4908 59.9284 37.4554 60.0655 37.4199C60.8885 37.1012 61.8485 37.1012 62.6714 37.4199C64.1801 37.9512 65.3116 39.3323 65.9631 40.8551C66.0317 41.0322 66.1003 41.2093 66.1688 41.3863C66.546 42.4133 66.7517 43.5112 66.8889 44.609Z" fill="#F69F1A"/>
<path d="M71.5521 44.7509C71.5521 44.5738 68.5004 44.5738 66.8546 44.5738C66.3403 44.5738 65.9288 44.5738 65.8259 44.5738C63.8029 44.5738 61.7457 44.5738 59.7227 44.6093C57.1853 44.6093 54.6137 44.6093 52.0764 44.6093C50.5335 44.6093 49.0248 44.6093 47.4818 44.6093C45.7331 44.6093 43.9844 44.6093 42.2357 44.6093H-4.09961C-9.62245 44.6093 -14.0996 40.1321 -14.0996 34.6093V30.7239C-14.0996 27.1724 -12.1136 23.3223 -8.59517 23.8059C-8.16044 23.8656 -7.73063 23.9643 -7.31057 24.1045C-5.31556 24.7835 -3.6803 26.5617 -3.05887 28.61C-2.91841 29.073 -0.611855 30.5669 -0.144354 30.6915C0.850429 30.9898 3.67867 31.9859 4.69355 32.2063C4.79082 32.2274 4.88726 32.2527 4.98244 32.2819C5.99401 32.5927 8.06014 32.6479 8.8396 31.9322C11.3101 29.6636 14.993 28.8038 17.9598 30.6915C19.6098 31.7236 20.7715 33.5041 21.1994 35.4374C21.2586 35.7049 23.208 36.7869 23.4801 36.8181C23.8351 36.8589 26.0021 36.3212 26.1718 36.0068C27.4567 33.6271 29.9893 31.931 32.6351 31.931C36.201 31.931 39.527 35.0474 39.9041 38.7305C39.5956 36.2161 41.3442 34.0558 43.6073 32.9226C45.0131 32.2143 46.6246 31.8602 48.0647 32.0726C48.3218 32.1091 48.573 32.1632 48.8163 32.2356C50.3298 32.6864 54.0306 33.0627 55.6081 33.1351C55.8385 33.1351 56.0669 33.1824 56.2909 33.2365C57.3507 33.4922 58.2795 34.1894 58.8997 35.1183C59.4484 35.9328 59.6884 36.7119 59.6884 37.5618C59.6884 37.6681 59.6884 37.8097 59.6884 37.916C59.663 38.2304 60.2942 38.6067 60.6014 38.5352C61.0056 38.441 61.4373 38.4735 61.8142 38.6597C61.9572 38.7239 62.0901 38.8079 62.2108 38.9077C62.7466 39.3509 64.2702 40.1892 64.9345 40.395C65.5516 40.572 65.8259 40.9616 66.1345 41.3866C66.3126 41.6317 66.6406 41.7088 66.9183 41.5877C67.8855 41.1657 68.8452 40.9853 69.9062 41.5636C70.9692 42.1303 71.6549 43.476 71.5521 44.7509Z" fill="#FFC511"/>
<path d="M71.6198 74.5694C88.4546 74.5694 102.102 60.4739 102.102 43.0862C102.102 25.6985 88.4546 11.603 71.6198 11.603C54.785 11.603 41.1377 25.6985 41.1377 43.0862C41.1377 60.4739 54.785 74.5694 71.6198 74.5694Z" fill="#F4D168"/>
<path d="M72.1807 70.9168C87.0621 70.5984 98.8758 57.8803 98.5675 42.5103C98.2592 27.1402 85.9455 14.9385 71.0642 15.2569C56.1829 15.5753 44.3691 28.2934 44.6774 43.6635C44.9857 59.0335 57.2994 71.2353 72.1807 70.9168Z" fill="#FFD98D"/>
<path d="M71.6211 66.7074C84.252 66.7074 94.4913 56.1318 94.4913 43.0861C94.4913 30.0404 84.252 19.4648 71.6211 19.4648C58.9903 19.4648 48.751 30.0404 48.751 43.0861C48.751 56.1318 58.9903 66.7074 71.6211 66.7074Z" fill="#FFEAC5"/>
<path d="M154.067 43.0142H-10.8242C-16.3471 43.0142 -20.8242 47.4913 -20.8242 53.0142V96.6688C-20.8242 102.192 -16.3471 106.669 -10.8242 106.669H154.067C159.59 106.669 164.067 102.192 164.067 96.6688V53.0142C164.067 47.4913 159.59 43.0142 154.067 43.0142Z" fill="#F69F1A"/>
<path d="M95.623 43.0869H47.6197C46.4882 43.0869 45.5967 44.0077 45.5967 45.1764C45.5967 46.345 46.4882 47.2658 47.6197 47.2658H54.8545C53.723 47.2658 52.8315 48.1866 52.8315 49.3552C52.8315 50.5239 53.723 51.4447 54.8545 51.4447H60.6834C59.5519 51.4447 58.6604 52.3654 58.6604 53.5341C58.6604 54.7028 59.5519 55.6235 60.6834 55.6235H65.6209C64.4894 55.6235 63.5979 56.5443 63.5979 57.713C63.5979 58.8816 64.4894 59.8024 65.6209 59.8024H68.4668C67.3353 59.8024 66.4438 60.7232 66.4438 61.8918C66.4438 63.0605 67.3353 63.9813 68.4668 63.9813H74.7416C75.8731 63.9813 76.7646 63.0605 76.7646 61.8918C76.7646 60.7232 75.8731 59.8024 74.7416 59.8024H77.5875C78.719 59.8024 79.6105 58.8816 79.6105 57.713C79.6105 56.5443 78.719 55.6235 77.5875 55.6235H82.525C83.6565 55.6235 84.548 54.7028 84.548 53.5341C84.548 52.3654 83.6565 51.4447 82.525 51.4447H88.3539C89.4854 51.4447 90.3769 50.5239 90.3769 49.3552C90.3769 48.1866 89.4854 47.2658 88.3539 47.2658H95.623C96.7545 47.2658 97.646 46.345 97.646 45.1764C97.646 44.0431 96.7545 43.0869 95.623 43.0869Z" fill="#FFC511"/>
<path d="M91.2714 122.312C89.4792 122.484 87.6921 122.063 86.1347 121.16C83.9283 119.88 80.8445 117.997 79.8134 116.902C78.1445 115.13 79.2942 108.635 85.1537 107.564C87.9382 107.073 92.7579 106.941 97.0496 106.937C102.097 106.932 106.602 111.028 105.074 115.839C104.441 117.832 103.371 119.559 101.583 120.224C98.2725 121.468 94.0087 122.05 91.2714 122.312Z" fill="#EDCABB"/>
<path d="M91.352 110.876C90.1704 110.516 89.0619 109.948 88.1039 109.168C87.9982 109.082 87.9128 109.011 87.8612 108.966C87.6729 108.779 87.6525 108.344 87.9166 108.316C90.9605 107.989 97.079 107.408 100.736 107.574C101.492 107.608 102.099 108.166 102.262 108.906C102.502 109.997 102.855 111.601 103.125 112.819C103.376 113.952 102.929 114.381 101.818 114.049C99.1658 113.256 94.0586 111.701 91.352 110.876Z" fill="#E4AE92"/>
<path d="M124.838 125.391C124.838 125.686 122.946 130.447 107.964 129.561C92.9811 128.712 88.0487 124.062 87.752 123.176C87.6778 122.881 87.5295 122.438 87.4182 121.774C87.1586 120.261 86.9361 117.751 87.1586 114.208C87.5295 109.078 90.9785 109.152 92.5732 109.004C93.0553 108.967 94.0195 109.336 95.1321 109.89C96.4524 110.557 97.9612 111.473 99.0854 112.186C100.206 112.897 101.439 113.421 102.74 113.684L118.954 116.966C122.575 117.699 125.641 120.459 125.064 124.108C124.951 124.819 124.838 125.291 124.838 125.391Z" fill="#946A42"/>
<path d="M124.837 125.391C124.837 125.686 122.946 130.447 107.963 129.561C92.9808 128.712 88.0484 124.062 87.7517 123.176C87.6189 122.648 88.1628 122.274 88.6153 122.578L90.0912 123.57C90.2293 123.662 90.4276 123.529 90.4592 123.365C90.514 123.082 91.7955 123.157 91.8944 123.428C92.1002 123.993 92.2961 124.421 92.3808 124.599C92.4092 124.659 92.4555 124.705 92.515 124.734C101.025 128.933 116.134 128.783 119.571 127.9C121.486 127.409 120.394 126.095 118.457 126.486C115.173 127.148 110.481 127.532 105.701 126.461C100.457 125.285 98.1014 122.657 97.0827 120.904C96.8329 120.474 95.9074 121.301 95.8769 121.797C95.8466 122.291 95.2387 121.665 95.082 121.196C94.5648 119.647 94.4391 117.883 94.417 116.785C94.4097 116.422 93.6902 116.671 93.5178 116.991C93.2939 117.407 92.5142 116.827 92.5903 116.362C93.0431 113.589 94.3076 111.568 94.5661 111.176C94.5978 111.129 94.6246 111.081 94.6485 111.029L94.6579 111.008C94.9368 110.398 95.6675 110.141 96.2541 110.468C97.6286 111.232 99.0385 112.125 99.9177 112.697C100.508 113.081 101.161 113.357 101.851 113.497L118.922 116.952C122.58 117.692 125.656 120.498 125.053 124.18C124.943 124.851 124.837 125.295 124.837 125.391Z" fill="#774822"/>
<path d="M126.416 104.145C125.527 107.726 122.577 110.368 118.956 111.076L100.135 114.755C99.9895 114.784 99.8419 114.798 99.6939 114.798C98.8409 114.798 95.7999 114.613 94.4277 111.993C94.2591 111.657 94.1333 111.31 94.0291 110.949C92.6787 106.272 91.8044 88.5213 93.7602 85.9733C95.7999 83.3159 103.328 83.0945 105.257 80.917C106.028 80.0627 106.268 78.2995 106.275 76.4721C106.287 73.6184 108.694 71.1278 111.513 71.577C113.621 71.913 115.087 73.8079 115.286 75.9336C115.4 77.1548 115.641 78.3738 116.123 79.0716C117.347 80.8432 126.507 80.3264 128.287 86.49C129.447 90.3443 127.807 98.5428 126.416 104.145Z" fill="#EDCABB"/>
<path d="M99.8598 113.161C99.7725 114.094 98.9752 114.819 98.0618 114.612C97.5494 114.496 96.983 114.31 96.4337 114.012C95.5219 113.516 96.3954 112.278 97.0969 111.513C97.6502 110.927 97.897 108.49 97.9763 105.436C98.0218 103.682 100.13 103.448 100.175 105.202C100.263 107.979 100.072 110.895 99.8598 113.161Z" fill="#E4AE92"/>
<path d="M125.844 106.015C125.722 106.728 125.663 107.446 125.681 108.168C125.752 110.966 125.921 118.275 125.802 119.227C125.616 120.371 119.868 124.578 110.522 123.656C101.177 122.696 98.0615 119.116 98.0615 117.566C98.0615 116.016 99.137 109.336 99.137 106.235C99.137 103.815 98.8656 100.674 98.7467 99.4132C98.7185 99.114 98.9548 98.8451 99.2483 98.7802C100.472 98.5218 103.402 97.4146 104.366 93.0596C104.939 90.47 104.067 88.1227 102.976 86.3577C101.845 84.5265 101.879 81.7371 103.987 81.302C104.556 81.1846 105.196 81.4454 105.694 81.7449C106.956 82.5043 109.797 83.8415 113.823 83.5744C115.179 83.4754 116.215 83.2384 117.007 82.9364C119.095 82.1406 121.291 79.7283 123.206 80.8801C123.383 80.9926 123.561 81.126 123.729 81.2834C124.191 81.715 124.421 82.3209 124.612 82.9235C125.306 85.1178 126.988 90.878 126.988 95.1264C126.932 99.1948 126.2 103.936 125.844 106.015Z" fill="#529198"/>
<path d="M125.844 106.015C125.722 106.728 125.663 107.446 125.681 108.168C125.752 110.966 125.921 118.275 125.802 119.227C125.616 120.371 119.868 124.578 110.522 123.656C101.177 122.696 98.0615 119.116 98.0615 117.566C98.0615 116.016 99.137 109.336 99.137 106.235C99.137 103.615 98.819 100.15 98.7206 99.141C98.7056 98.9872 98.6996 98.859 98.8533 98.8439C99.0013 98.8294 99.2694 98.9025 99.2935 99.0492C99.5008 100.31 99.7059 101.964 99.8787 104.132C100.15 107.393 99.8438 111.087 99.4896 113.871C99.1373 116.64 99.8053 119.569 102.386 120.634C104.029 121.312 106.318 121.87 109.41 121.884C117.161 121.921 122.353 120.113 122.686 120.002C120.769 120.394 121.195 118.684 122.898 117.72C123.124 117.592 122.991 117.603 123.084 117.361C123.212 117.027 123.288 116.613 123.324 116.156C123.591 112.815 120.209 110.594 116.87 110.897L111.301 111.402L122.316 109.003L107.963 110.221L120.677 108.405C122.59 108.132 124.235 106.918 124.506 105.006C124.814 102.829 124.845 100.324 124.843 99.2457C124.842 98.9507 124.787 98.7125 124.492 98.7284C123.832 98.764 123.564 97.3029 124.218 97.2042C124.662 97.1373 125.015 97.0818 125.264 97.0418C125.517 97.0011 125.702 96.7898 125.714 96.534C126.003 90.5021 124.704 85.3749 123.699 82.3866C123.541 81.9159 123.999 81.5881 124.254 82.0145C124.27 82.0424 124.285 82.0717 124.295 82.1025C124.504 82.7168 126.951 90.0395 126.951 95.1632C126.923 99.2033 126.198 103.938 125.844 106.015Z" fill="#3E797C"/>
<path d="M109.817 68.9223C108.704 66.7448 105.07 66.7448 104.068 68.3687C103.89 68.7245 103.976 69.1586 103.95 69.5559C103.932 69.8216 103.92 70.0856 103.92 70.3617C103.883 70.9153 103.883 71.432 103.883 71.9856C103.883 72.7607 103.772 73.5357 103.92 74.3108C104.068 75.0489 104.365 75.7133 104.921 76.2669C105.181 76.5621 105.478 76.7836 105.774 77.0788C106.713 78.0132 107.767 77.6281 108.276 76.4052C109.229 74.1169 110.566 70.3892 109.817 68.9223Z" fill="#EDCABB"/>
<path d="M116.456 72.0594C116.345 73.019 116.159 73.9785 115.863 74.9012C115.714 75.3441 115.529 75.787 115.269 76.193C114.973 76.6359 114.602 76.9311 114.157 77.2264C113.304 77.78 112.339 78.186 111.301 78.1491C110.263 78.1122 109.261 77.78 108.371 77.3002C107.407 76.7835 106.665 75.8977 106.22 74.9012C105.367 73.0189 105.33 70.9152 105.404 68.8853C105.404 68.6639 105.442 68.4424 105.553 68.2579C105.738 67.9627 106.109 67.8888 106.443 67.815C108.112 67.446 109.781 67.1876 111.449 66.9662C112.302 66.8554 113.192 66.7447 114.082 66.8554C114.49 66.8923 114.898 67.0031 115.306 67.1507C115.64 67.2614 116.196 67.4829 116.382 67.815C116.53 68.1103 116.493 68.4794 116.493 68.7746C116.567 69.808 116.567 70.9521 116.456 72.0594Z" fill="#80391E"/>
<path d="M104.068 67.0286C103.698 66.9872 103.332 66.9221 102.963 66.8676C102.106 66.7404 100.532 66.6278 100.398 67.4832C100.249 68.6642 100.805 71.0263 108.927 71.3953C117.049 71.7644 120.832 69.9191 120.609 69.0702C120.438 68.5339 118.939 68.4484 117.942 68.4522C117.347 68.4545 116.752 68.4464 116.161 68.3804L104.068 67.0286Z" fill="#A5683F"/>
<path d="M112.376 69.603C108.074 69.8013 103.702 64.9523 105.767 61.1732C106.23 60.3275 106.714 59.6748 107.185 59.436C109.076 58.4764 109.707 59.4729 110.671 59.436C111.635 59.3991 116.456 59.2884 116.976 61.8719C117.007 62.026 117.034 62.1874 117.058 62.3546C117.626 66.3295 116.387 69.4182 112.376 69.603Z" fill="#AB6E41"/>
<path d="M52.4618 98.2272C55.2009 99.7916 58.9471 98.6049 59.192 95.4601C59.3664 93.2209 59.1402 90.9539 57.721 90.1805C55.9873 89.2655 53.2675 89.3319 51.1825 91.7962C49.3008 94.0203 49.932 96.7823 52.4618 98.2272Z" fill="#E4AE92"/>
<path d="M57.544 99.7029C58.0815 100.417 58.1402 101.361 57.868 102.213C56.8296 105.608 54.1595 114.355 53.937 116.274C53.6403 118.636 52.4535 128.269 43.3675 129.782C35.5425 131.074 26.9757 130.927 23.0075 129.561C22.34 129.34 21.8208 129.081 21.4499 128.786C20.5343 128.077 19.8323 126.813 19.3052 125.458C18.0225 122.16 19.6449 118.6 22.4448 116.436L42.2213 101.149C45.7182 98.4461 53.275 95.6534 56.5522 98.619C56.9063 98.9395 57.24 99.2992 57.544 99.7029Z" fill="#3A333D"/>
<path d="M58.1538 100.651C58.2342 100.798 58.3076 100.776 58.2605 100.938C58.118 101.425 57.4388 101.765 57.0692 101.416C56.2894 100.681 55.3248 99.8963 54.2793 99.3384C53.0662 98.691 51.7799 99.5986 51.5047 100.946C51.1398 102.732 50.6888 105.141 50.559 106.713C50.5114 107.289 50.8277 107.814 51.3078 108.137C51.6757 108.384 52.1357 108.709 52.6027 109.083C53.4292 109.746 53.3644 110.559 52.4275 110.065C51.7488 109.707 50.525 110.021 50.525 110.788V113.511C50.525 113.766 50.6377 114.006 50.8158 114.188C51.1171 114.495 51.6003 115.048 52.0085 115.795C52.2874 116.306 51.7874 116.63 51.4027 116.194C51.1339 115.889 50.6025 116.059 50.6148 116.465C50.6569 117.863 50.3731 120.567 47.929 122.66C44.4801 125.612 34.2815 128.934 29.6087 128.639C26.882 128.466 24.5214 127.64 23.0282 126.982C22.428 126.718 21.7694 127.291 22.0482 127.885C22.0757 127.944 22.104 128.003 22.1331 128.063C22.3917 128.599 21.878 129.193 21.4128 128.823C20.4972 128.114 19.7952 126.85 19.2681 125.495C17.9854 122.197 19.6078 118.637 22.4076 116.473L44.8977 99.0888C47.3476 97.1951 50.6962 95.7634 53.5933 96.8565C55.2959 97.4989 57.0586 98.6407 58.1538 100.651Z" fill="#2A252D"/>
<path d="M54.0866 88.95C55.3837 87.8806 58.3099 87.7311 59.7725 88.5597C61.0259 89.2697 62.3691 90.2502 62.6157 91.2886C63.2833 94.1304 61.7628 95.7543 58.7588 96.0127C58.5178 96.0337 58.2658 96.0383 58.0062 96.0292C53.7652 95.88 50.8124 91.6495 54.0866 88.95Z" fill="#EDCABB"/>
<path d="M30.9734 77.7671C30.8917 77.1519 30.5575 76.6329 30.1906 76.1324C29.2805 74.8907 28.7197 73.3242 28.7197 71.5802C28.7197 67.6311 31.5753 64.3833 35.0985 64.3833C37.9207 64.3833 40.297 66.4541 41.1363 69.3244C41.3119 69.9251 41.9593 70.5116 41.9593 71.1373C41.9593 71.5696 41.7474 71.9666 41.6338 72.3629C41.6282 72.3823 41.6284 72.4009 41.6239 72.4206C41.6157 72.4567 41.5826 72.4844 41.5723 72.52C41.4376 72.987 41.4072 73.5173 41.5143 73.9792C41.5514 74.2375 41.6626 74.459 41.6626 74.7173C41.6626 74.9757 41.5885 75.234 41.3659 75.3817C41.0163 75.6137 40.4606 75.6439 40.3803 76.0558C40.3341 76.2933 40.3081 76.5387 40.2905 76.7841C40.2846 76.8453 40.279 76.9065 40.2738 76.9677C40.0581 79.4698 38.3001 81.7118 35.7898 81.7844C35.4805 81.7934 35.1713 81.8004 34.862 81.8054C32.7102 81.8407 31.2568 79.9004 30.9734 77.7671Z" fill="#EDCABB"/>
<path d="M30.1646 75.9341C30.0162 75.6389 29.8679 75.3436 29.8308 75.0484C29.7937 74.7531 29.8308 74.4209 29.8679 74.1257C30.0533 72.8708 30.35 71.6529 30.7579 70.4719C31.0546 69.5123 31.4626 68.5527 32.1672 67.8884C32.8347 67.2609 33.7619 66.9657 34.6519 66.8549C35.5791 66.7442 36.4691 66.8549 37.3963 66.9288C38.2863 67.0395 39.2506 67.1871 39.7698 67.8514C40.0664 68.2205 40.1777 68.7003 40.289 69.1432C40.4002 69.5861 40.4744 70.029 40.6227 70.435C40.6969 70.6933 40.9194 70.9148 40.9565 71.21C41.1419 72.1696 40.8823 73.3137 40.6227 74.2364C40.326 75.3805 39.9552 76.5247 39.2506 77.4843C38.4347 78.5546 37.2479 78.7391 35.987 78.8498C34.6519 78.9605 32.946 79.0713 31.7963 78.2962C31.5367 78.1486 31.3142 77.9271 31.1288 77.7057C30.8979 77.4249 30.7203 77.1264 30.5591 76.8103C30.4137 76.5252 30.3082 76.2201 30.1646 75.9341Z" fill="#80391E"/>
<path d="M45.1113 61.9109C45.9643 62.7598 44.9259 67.4839 39.9935 73.0938C35.0611 78.7037 28.6082 78.1501 26.4943 76.1202C23.6016 73.3522 23.8612 67.8899 27.0506 65.0481C31.3525 61.2097 41.922 58.7 45.1113 61.9109Z" fill="#2A252D"/>
<path d="M38.9862 68.5899C40.2079 67.0557 40.3787 64.9506 39.6458 63.1314C38.9799 61.4787 37.8905 59.6406 36.2461 59.1785C33.1309 58.2927 28.6435 60.5441 26.9005 63.2014C25.1945 65.8587 25.5654 67.8886 26.8263 69.6971C28.3173 71.9003 30.9124 73.1859 33.4355 72.3423C35.2695 71.7292 37.3737 70.6148 38.9862 68.5899Z" fill="#3A333D"/>
<path d="M35.4324 58.9056C36.0037 58.9904 36.4876 59.4042 36.5612 59.977C36.6299 60.5123 36.5139 61.3107 35.7656 62.3533C34.2822 64.4201 29.9061 67.8524 27.9776 68.1108C26.5759 68.2749 26.0297 67.3242 25.8408 66.8208C25.7681 66.6269 25.7388 66.4225 25.7429 66.2153C25.7621 65.2308 26.2115 62.1003 30.9074 59.9174C33.2104 58.8678 34.639 58.7879 35.4324 58.9056Z" fill="#2A252D"/>
<path d="M57.1272 86.8219C57.4771 87.0926 57.7113 87.5047 57.6459 87.9422C57.483 89.0325 56.9713 91.1261 55.3842 92.4687C53.1427 94.3337 50.4483 96.2941 49.8157 99.1406C48.9473 103.048 48.043 108.77 48.684 113.789C48.9066 115.532 48.9713 117.363 47.9102 118.764C45.994 121.294 41.4214 124.973 31.0189 125.021C19.5223 125.095 17.3714 121.146 17.0747 118.968C17.0207 118.673 17.0256 118.417 17.0323 118.214C17.0368 118.077 17.0614 117.846 17.0849 117.711C17.1129 117.551 17.1141 117.484 17.1189 117.322L17.7996 94.0755C17.8107 93.6973 17.7426 93.3194 17.668 92.9485C17.2972 91.3984 16.4442 86.9326 18.0018 84.4229C19.8749 81.3527 24.1119 79.2236 32.8381 79.5411C33.0079 79.5473 33.176 79.5502 33.3459 79.5509C34.7147 79.5563 41.4061 79.6655 46.1128 81.2488C50.3776 82.6882 55.3842 85.7146 57.1272 86.8219Z" fill="#C94B43"/>
<path d="M57.6735 87.1998C57.771 87.2589 57.7196 87.298 57.7101 87.4117C57.6499 88.1372 57.3003 90.8499 55.3857 92.4695C53.1442 94.3345 50.4498 96.2949 49.8172 99.1414C48.9488 103.049 48.0445 108.771 48.6855 113.79C48.9081 115.533 48.9728 117.364 47.9117 118.765C45.9955 121.295 41.4229 124.973 31.0204 125.022C23.4786 125.07 19.9586 123.387 18.3456 121.609C17.5609 120.744 18.5894 119.962 19.6351 120.482C22.1569 121.737 32.2813 124.173 38.8455 122.254C40.6258 121.733 41.9806 121.033 43.0096 120.29C44.297 119.36 41.034 119.725 39.5101 120.172C37.798 120.674 40.0293 118.595 41.5833 117.718C43.4781 116.649 44.8157 115.54 45.5794 114.827C46.0831 114.357 46.2963 113.67 46.2752 112.982C46.2451 111.998 46.2344 110.229 46.3368 107.232C46.5205 101.892 50.055 89.4123 50.1186 89.1878C50.1206 89.1808 50.1206 89.1812 50.1228 89.1743L50.1969 88.9382C50.4372 88.1732 51.5507 88.2758 51.647 89.0719L51.6721 89.2796C51.697 89.4857 51.8552 89.6506 52.0601 89.6839C52.5293 89.7603 52.5968 90.4076 52.1535 90.5791L52.0003 90.6384C51.8443 90.6988 51.7277 90.8317 51.6882 90.9943L51.5971 91.369C51.3978 92.1888 52.0501 92.9007 52.8398 92.6039C53.4522 92.3738 54.1988 92.019 55.0148 91.473C56.2911 90.6262 56.8166 88.7448 57.0499 87.3504C57.089 87.1168 57.471 87.0771 57.6735 87.1998Z" fill="#A8322F"/>
<path d="M19.5998 90.1205C20.3305 90.1344 20.5208 91.1379 19.8459 91.4183L19.3786 91.6124C19.143 91.7103 18.9709 91.9099 18.9317 92.162C18.3578 95.8548 17.3327 113.7 17.0898 118.024C17.0866 118.081 17.0024 118.071 17.0002 118.014C17.0001 118.011 17.0002 118.008 17.0006 118.006C17.0128 117.921 17.0249 117.845 17.0357 117.78C17.0595 117.638 17.0763 117.494 17.0805 117.35L17.7699 93.8073C17.7758 93.6068 17.74 93.4069 17.6902 93.2126C17.6787 93.1678 17.6666 93.1178 17.6544 93.0627C17.6378 92.9882 17.637 92.9111 17.6497 92.8359L18.1856 89.6649C18.2631 89.2062 18.9403 89.2678 18.9337 89.733C18.9308 89.9403 19.096 90.111 19.3033 90.1149L19.5998 90.1205Z" fill="#A8322F"/>
<path d="M78.588 115.315C81.8425 118.853 85.9634 111.873 85.0502 107.153C84.5414 104.523 84.0206 102.08 83.7059 101.29C82.9271 99.3337 80.0344 97.9312 77.7722 97.9312C75.5099 97.8943 76.6225 113.174 78.588 115.315Z" fill="#E4AE92"/>
<path d="M63.0151 114.835C60.5486 115.881 59.7948 112.436 60.4592 109.84C60.9343 107.985 61.3805 105.984 61.3805 105.018C61.3805 102.914 60.305 99.8507 64.7924 99.5924C69.2427 99.334 66.6467 108.339 65.7196 111.698C65.2953 113.235 64.203 114.331 63.0151 114.835Z" fill="#E4AE92"/>
<path d="M82.1496 128.343C79.1086 130.078 72.5074 129.34 69.8743 129.45C67.2041 129.561 61.1221 129.377 58.6373 125.169C58.4519 124.874 58.3036 124.542 58.1552 124.21C56.338 120.187 57.5247 115.61 58.6373 114.503C59.2962 113.867 60.2237 113.295 60.9397 112.903C61.6399 112.52 62.4091 112.29 63.1945 112.147L76.9098 109.645C79.3066 109.208 81.8372 109.608 83.6313 111.256C84.559 112.108 85.4986 113.147 86.1178 114.281C86.2291 114.503 86.3403 114.724 86.4516 114.983C87.7867 118.267 85.1907 126.608 82.1496 128.343Z" fill="#C87B05"/>
<path d="M84.69 112.807C84.5273 112.66 84.2854 112.839 84.3528 113.047C84.7408 114.246 84.9384 115.511 84.9512 116.776C84.9636 118.007 83.4348 118.041 82.9575 116.907C82.8419 116.633 82.721 116.36 82.5947 116.09C83.4476 118.194 82.8172 120.703 81.3338 122.438C79.8503 124.136 77.6252 125.132 75.4001 125.464C73.1378 125.797 70.8385 125.575 68.6134 125.169C66.7591 124.837 64.9048 124.431 63.2359 123.545C62.1506 122.969 61.1593 122.19 60.4254 121.228C59.9874 120.654 58.9912 120.65 58.7709 121.337C58.5196 122.122 57.4598 122.206 57.3401 121.391C56.8807 118.263 57.781 115.355 58.6373 114.503C59.2962 113.867 60.2237 113.295 60.9397 112.903C61.6399 112.52 62.4091 112.29 63.1945 112.147L80.3421 109.019C80.5271 108.985 80.7169 109.02 80.8748 109.122C81.5466 109.557 83.4629 110.872 84.9428 112.607C85.109 112.802 84.8803 112.978 84.69 112.807Z" fill="#A55E02"/>
<path d="M87.2673 100.958C86.711 102.127 85.1359 102.669 83.8458 102.92C82.7589 103.132 81.8132 103.913 81.7416 105.018C81.7416 105.165 81.7045 105.276 81.7045 105.424C81.6674 105.756 81.6303 106.125 81.6303 106.494V106.531C81.5597 108.006 81.5638 109.763 81.8223 111.369C82.099 113.088 82.5548 114.86 81.9333 116.486C81.2241 118.341 79.7313 120.594 76.6237 121.036C71.1721 121.811 64.0888 120.962 61.7153 117.935C59.3047 114.909 60.5286 112.584 61.7153 109.262C62.902 105.941 61.6411 100.257 61.0848 98.2638C60.5286 96.3077 59.3047 94.5362 58.6743 92.617C57.8213 90.0335 58.0067 87.45 59.3418 85.051C60.8252 82.3568 63.5325 81.471 66.4623 81.4341C67.1669 81.4341 67.8715 81.4341 68.5762 81.4341C71.3947 81.4341 74.1761 81.471 76.9946 81.5817C78.5522 81.6555 80.1098 81.8032 81.6674 82.0984C82.7058 82.283 83.9667 82.5413 84.7826 83.2425C86.674 84.9034 87.6753 92.0265 87.7124 96.8244C87.6753 98.7436 87.5269 100.331 87.2673 100.958Z" fill="#EDCABB"/>
<path d="M87.267 100.959C86.7107 102.128 85.1356 102.67 83.8454 102.921C82.7586 103.132 81.8128 103.914 81.7412 105.019C81.8136 104.173 81.8979 103.308 81.9898 102.443C82.0113 102.24 85.1085 101.394 85.3014 101.328C87.4153 100.627 87.4524 99.1134 87.6749 96.7883C87.6749 98.7444 87.5266 100.331 87.267 100.959Z" fill="#E4AE92"/>
<path d="M61.9338 105.168C61.7111 104.108 66.6195 98.9851 67.6859 99.1709C68.4028 99.2959 69.1686 99.3791 69.9844 99.4079C72.2102 99.4854 74.2522 99.1874 76.0204 98.7323C78.8878 97.9941 82.5249 99.68 82.1578 102.618C81.9569 104.226 80.4867 105.882 78.8664 105.903L64.3181 106.096C63.5189 106.107 62.0982 105.95 61.9338 105.168Z" fill="#C87B05"/>
<path d="M63.8287 96.4551C64.1254 97.5992 64.6446 98.7064 64.9042 99.8874C65.3492 101.844 65.4234 103.947 66.1651 105.866C66.9439 107.823 68.3902 109.299 70.2445 110.221C71.2692 110.748 72.3823 111.098 73.505 111.325C73.6811 111.361 73.8254 111.17 73.7947 110.993C73.752 110.747 74.1647 110.749 74.315 110.948C74.4308 111.102 74.6433 110.995 74.6503 110.803C74.7231 108.792 76.0467 107.021 77.1795 105.313C78.2388 103.716 79.1869 101.759 78.8216 99.9693C78.7872 99.8008 79.0548 99.6175 79.1898 99.7242C79.3108 99.8199 79.475 99.6903 79.4216 99.5455C79.0044 98.4141 78.9329 97.171 79.2563 96.0122C79.553 94.868 80.1835 93.8716 80.6285 92.7643C82.557 87.7449 79.7755 82.0243 80.9623 76.7835C81.1848 75.7501 81.5927 74.569 80.9994 73.6463C80.5914 72.982 79.8126 72.6868 79.0709 72.5022C74.9544 71.3581 70.5041 71.7641 66.3876 72.9451C65.4234 73.2404 64.385 73.6094 63.8287 74.4214C63.3095 75.1595 63.2724 76.156 63.2724 77.0418C63.2353 79.2563 63.2724 81.5076 63.0499 83.722C62.7903 86.3425 62.1969 88.926 62.1598 91.5464C62.1347 93.3242 62.3997 95.17 63.1402 96.7841C63.379 97.3044 63.9738 97.0088 63.8287 96.4551Z" fill="#80391E"/>
<path d="M85.1895 74.7168C83.6434 77.4096 81.5977 77.5508 80.22 77.3384C80.0713 77.3155 79.9255 77.2634 79.775 77.2634C78.2545 77.3003 74.6943 79.6254 69.2798 79.1087C64.5671 78.6489 58.8823 74.8794 56.9636 73.1922C56.5121 72.7952 56.6064 72.2188 57.0748 71.8418C57.6342 71.3917 57.7954 70.5938 57.6348 69.8939C57.3409 68.6138 57.2535 66.4067 58.97 63.9029C60.8487 61.1624 64.7813 59.7194 67.0124 59.0928C68.0593 58.7988 69.0252 58.2332 69.7081 57.3869C70.2979 56.6559 71.104 56.1226 72.0401 56.0458C73.8147 55.9004 77.1312 56.0026 81.3326 57.8501C87.6743 60.6551 86.8213 71.8749 85.1895 74.7168Z" fill="#A5683F"/>
<path d="M85.1528 74.7168C83.5237 77.5539 81.3403 77.5586 79.9677 77.3016C79.963 77.3007 79.9585 77.3003 79.9537 77.3002C79.8813 77.298 79.8648 77.1969 79.9318 77.1693C81.034 76.7161 86.0361 75.0353 85.1157 67.7413C84.7103 64.5141 80.5045 63.3445 78.2521 62.9474C77.3231 62.7836 76.3774 62.859 75.455 63.0565L68.6508 64.513C67.5727 64.7438 66.5504 65.1841 65.6421 65.8091L64.2353 66.777C60.8965 69.0742 56.6417 67.2456 58.9332 63.9029C60.8119 61.1624 64.7445 59.7194 66.9756 59.0928C68.0226 58.7988 68.9884 58.2332 69.6713 57.3869C70.2612 56.6559 71.0672 56.1226 72.0033 56.0458C73.7779 55.9004 77.0945 56.0026 81.2959 57.8501C87.6375 60.6551 86.7845 71.8749 85.1528 74.7168Z" fill="#9B623B"/>
<path d="M67.1781 68.038C66.0702 67.632 65.7119 66.4535 65.7673 65.2749L65.7717 65.1795C65.9294 61.821 68.6982 59.1792 72.0603 59.1792H72.7291C75.5577 59.1792 77.9336 61.3069 78.2443 64.1184C78.4162 65.6737 77.8909 67.2591 76.4404 67.8462C75.3369 68.2928 73.7501 68.6803 71.5792 68.6644C69.4477 68.6488 68.0646 68.3629 67.1781 68.038Z" fill="#AB6E41"/>
<path d="M77.6986 59.1784C77.6986 60.8023 76.0668 62.6476 72.8404 62.6476C69.6139 62.6476 66.0537 60.8023 66.0537 59.1784C66.0537 57.5544 68.8722 56.7056 72.0987 56.7056C75.3251 56.7056 77.6986 57.5544 77.6986 59.1784Z" fill="#C18761"/>
</g>
</svg>
