<svg  viewBox="0 0 140 143" fill="none" xmlns="http://www.w3.org/2000/svg">
<mask id="mask0_1051_9520" style="mask-type:alpha" maskUnits="userSpaceOnUse" x="0" y="0" width="140" height="143">
<rect width="140" height="143" rx="10" fill="#F9F9F9"/>
</mask>
<g mask="url(#mask0_1051_9520)">
<g clip-path="url(#clip0_1051_9520)">
<path d="M-22.9629 104.08V168.114H162V104.08C102.664 105.404 45.1775 107.295 -22.9629 104.08Z" fill="#B3ECDF"/>
<path d="M162 -21H-22.9629V168.114H162V-21Z" fill="#B3ECDF"/>
<path opacity="0.5" d="M-22.9629 97.3098V-6.55169C-21.2612 -11.393 -14.3066 -14.3054 -8.60976 -12.7925C-2.9129 -11.2795 0.564402 -5.45483 -1.32222 -0.68915C3.89374 -3.82844 11.3292 -4.69837 16.8042 -1.86166C22.2791 0.975053 24.6466 7.82099 20.8363 12.2084C26.5702 12.5488 31.7862 16.3311 33.0439 21.059C43.1059 20.7564 52.798 27.5267 54.3146 35.9612C56.5712 35.6964 58.3468 35.4695 60.6404 35.6208C65.1165 35.9612 69.3706 38.1171 71.7752 41.332C74.2167 44.5469 74.7346 48.7075 73.2179 52.2628V97.3476H-22.9629" fill="white"/>
<path opacity="0.3" d="M161.963 97.3097V5.92977C160.632 1.69362 155.157 -0.916157 150.644 0.445465C146.168 1.76926 143.393 6.87535 144.91 11.0737C140.804 8.31261 134.959 7.55616 130.631 10.0146C126.303 12.5109 124.453 18.5248 127.449 22.3827C122.936 22.6853 118.83 26.0137 117.831 30.1742C109.915 29.9094 102.257 35.8854 101.074 43.2609C99.2979 43.034 97.8922 42.807 96.0796 42.9583C92.5283 43.2609 89.1989 45.1899 87.3123 47.9888C85.3887 50.7876 84.9818 54.4565 86.1655 57.5958V97.2341H161.963" fill="white"/>
<path d="M19.5041 51.975C19.3931 52.0507 21.9456 53.677 22.2046 53.7905C23.1664 54.1687 24.1652 54.4713 25.201 54.547C28.0124 54.7739 31.3787 53.7149 33.4873 51.8615C33.0804 52.2019 36.4837 53.5257 36.7427 53.5636C38.2224 53.8283 39.5911 53.6014 41.0338 53.0719C42.8464 52.4289 44.4371 51.0294 45.214 49.2518L34.93 40.8551C30.6389 37.3376 24.6091 37.1485 20.096 40.3634L7.81445 49.1383C8.22137 50.0082 8.77626 50.8025 9.44213 51.4455C12.3645 54.2444 16.2488 53.904 19.5041 51.975Z" fill="#FAFFFA"/>
<path d="M45.2144 49.2897C44.4375 51.0674 42.8468 52.4669 41.0342 53.1098C39.5915 53.6015 38.2228 53.8663 36.7431 53.6015C36.4841 53.5637 33.0808 52.2399 33.4877 51.8995C31.3421 53.7528 27.9758 54.8119 25.2014 54.5849C24.1656 54.5093 23.1668 54.2067 22.205 53.8285C21.946 53.715 19.3935 52.0886 19.5045 52.013C16.2492 53.9419 12.3649 54.2823 9.44251 51.4835C8.77665 50.8405 8.22176 50.0462 7.81484 49.1763L-23 71.1513V107.31H57.2V59.0858L45.2144 49.2897Z" fill="#84C2BD"/>
<path d="M137.474 36.9067C137.4 36.9445 139.471 38.3061 139.693 38.3818C140.47 38.7222 141.284 38.9491 142.135 39.0248C143.318 39.1004 144.502 38.9491 145.649 38.6087C146.907 38.2305 147.795 37.6631 148.83 36.831C148.83 36.831 150.051 37.5875 150.162 37.6631C150.717 37.8901 151.272 38.0792 151.864 38.1548C152.974 38.344 154.12 38.2305 155.193 37.8523C156.636 37.3606 157.894 36.2637 158.559 34.9021L149.718 28.5857C146.722 26.4298 142.764 26.2028 139.545 28.0183L127.893 34.5239C128.226 35.2803 128.706 35.9611 129.298 36.5285C131.592 38.76 134.81 38.4574 137.474 36.9067Z" fill="#FAFFFA"/>
<path d="M158.486 34.8643C157.82 36.2259 156.562 37.3228 155.12 37.8145C154.084 38.1927 152.9 38.3062 151.79 38.1171C151.198 38.0414 150.643 37.8523 150.089 37.6254C149.978 37.5497 148.72 36.8311 148.757 36.7933C147.758 37.6254 146.833 38.1927 145.575 38.5709C144.466 38.9113 143.245 39.1004 142.061 38.987C141.21 38.9113 140.396 38.6844 139.62 38.344C139.398 38.2683 137.326 36.9067 137.4 36.8689C134.737 38.4575 131.555 38.7222 129.151 36.4528C128.559 35.8855 128.078 35.2047 127.745 34.4482L15.1025 97.3098H161.963V37.3606L158.486 34.8643Z" fill="#93D9D3"/>
<path d="M98.1532 15.8893C100.936 13.0436 100.936 8.42999 98.1532 5.58438C95.37 2.73877 90.8576 2.73877 88.0745 5.58438C85.2913 8.42999 85.2913 13.0436 88.0745 15.8893C90.8576 18.7349 95.37 18.7349 98.1532 15.8893Z" fill="#FFD640"/>
<path d="M79.8764 46.4906C79.7284 46.5662 83.2797 48.8734 83.6496 49.0625C84.9813 49.6299 86.3871 50.0081 87.8298 50.1215C91.751 50.4241 96.523 48.949 99.5194 46.3393C98.9275 46.831 103.737 48.6843 104.107 48.7599C106.215 49.1382 108.102 48.7977 110.136 48.0791C112.504 47.247 114.612 45.4693 115.796 43.2378L100 31.2101C93.8965 26.5579 85.6472 26.5201 79.4694 31.0967L63.5996 42.8974C64.1545 43.9564 64.8574 44.902 65.7082 45.7341C69.8144 49.6677 75.2893 49.176 79.8764 46.4906Z" fill="#FAFFFA"/>
<path d="M115.796 43.2379C114.612 45.4694 112.504 47.2471 110.136 48.0792C108.102 48.7978 106.178 49.1382 104.107 48.76C103.737 48.6844 98.9276 46.8689 99.5195 46.3393C96.5231 48.9491 91.788 50.4242 87.8298 50.1216C86.3871 50.0082 84.9814 49.5921 83.6497 49.0626C83.2797 48.9113 79.7285 46.6041 79.8764 46.4906C75.2893 49.176 69.8144 49.6677 65.7452 45.7342C64.8944 44.9021 64.1916 43.9565 63.6367 42.8975L-23 107.31H162V78.3753L115.796 43.2379Z" fill="#15ABA8"/>
<path d="M-16.6003 80.7058C-16.5633 79.1551 -15.6385 77.7178 -14.3807 77.1127C-13.123 76.5075 -11.5693 76.8479 -10.5335 77.8691C-9.60868 75.4106 -6.9822 74.0868 -4.61467 74.3138C-2.24715 74.5407 -0.0645828 76.0158 1.71106 77.7935C2.70986 76.2806 4.41152 75.3728 6.11318 75.4863C7.81484 75.5997 9.40553 76.7344 10.2564 78.3608C11.0702 74.8055 14.5845 72.5361 17.8398 72.9143C21.0952 73.3304 23.8696 76.0158 25.2384 79.3442C27.2729 76.3184 31.897 76.1293 34.1166 79.0038C34.4125 76.0158 37.224 73.8221 39.8874 73.9734C42.5509 74.1247 44.9554 76.2806 46.1762 78.966C48.2108 75.8645 50.7633 74.2759 54.1666 75.1837C55.4613 75.5241 61.1952 78.6256 60.4183 80.8949C61.1582 78.6634 62.9338 76.9235 65.0054 76.4318C67.077 75.9023 69.3335 76.621 70.8872 78.2473C72.3669 75.5997 75.2524 74.0868 77.9898 74.4651C80.7273 74.8433 83.2058 77.1505 84.0566 80.1007C84.9444 78.5121 86.7941 77.8313 88.4587 77.9448C90.1234 78.0582 90.6783 78.8525 92.195 79.6468C93.2678 76.8101 96.1162 74.9189 98.8536 75.2215C101.591 75.5241 104.033 78.0204 104.587 81.0462C105.956 78.1339 108.916 76.2806 111.838 76.4318C114.76 76.5831 117.535 78.739 118.682 81.7649C121.53 78.3608 126.82 78.1339 129.89 81.311C130.26 78.6634 132.036 76.3184 134.293 75.5241C136.549 74.692 139.213 75.4106 140.914 77.3018C141.284 73.4438 145.02 70.6828 148.461 71.061C151.901 71.4392 154.86 74.3138 156.451 77.7178C155.6 75.9402 160.483 75.751 161.001 75.8645C161.334 75.9402 161.704 76.0536 162.037 76.1671V90.5019H-23V76.5075C-20.5955 77.2261 -18.3389 78.7012 -16.6003 80.7058Z" fill="#0F7A85"/>
<path d="M155.6 88.4214C155.563 87.0219 154.638 85.6982 153.381 85.1686C152.123 84.6391 150.569 84.9039 149.533 85.8494C148.609 83.6179 145.982 82.4076 143.615 82.5967C141.247 82.7858 139.065 84.1474 137.289 85.7738C136.29 84.3743 134.588 83.5423 132.887 83.6557C131.185 83.7692 129.594 84.7904 128.744 86.2655C127.93 83.0506 124.416 80.9703 121.16 81.3107C117.905 81.6889 115.13 84.1474 113.762 87.1732C111.727 84.4122 107.103 84.2609 104.883 86.8707C104.587 84.1474 101.776 82.1428 99.1126 82.2941C96.4491 82.4454 94.0446 84.4122 92.8238 86.8328C90.7892 83.9961 88.2367 82.5589 84.8334 83.391C83.5387 83.6935 77.8048 86.5302 78.5817 88.6105C77.8418 86.6059 76.0662 85.0173 73.9946 84.5256C71.923 84.0339 69.6665 84.6769 68.1498 86.1898C66.6701 83.807 63.7846 82.3697 61.0472 82.748C58.3097 83.0884 55.8312 85.2065 54.9804 87.8919C54.0926 86.4168 52.2429 85.8116 50.5783 85.9251C48.9136 86.0386 48.3587 86.7572 46.842 87.4758C45.7692 84.866 42.9208 83.164 40.1834 83.4288C37.4459 83.6935 35.0044 85.9629 34.4495 88.724C33.0808 86.0764 30.1214 84.3744 27.199 84.5256C24.2765 84.6769 21.5021 86.6437 20.3553 89.367C17.5069 86.2655 12.217 86.0764 9.14657 88.9509C8.77664 86.5303 7.001 84.4122 4.74445 83.6557C2.4879 82.8993 -0.175568 83.5801 -1.87723 85.2821C-2.24715 81.7646 -5.9834 79.2683 -9.42372 79.6087C-12.864 79.9491 -15.8234 82.5589 -17.4141 85.6982C-16.5633 84.0718 -21.4463 83.9205 -21.9642 83.9961C-22.2971 84.0718 -22.6671 84.1474 -23 84.2609V97.3098H161.963V84.5635C159.558 85.2443 157.302 86.5681 155.6 88.4214Z" fill="#006164"/>
<g opacity="0.3">
<path d="M41.0709 143.34C39.6282 142.886 38.2595 142.697 36.7798 142.924C36.5208 142.962 33.1175 144.097 33.5244 144.437C31.3789 142.811 28.0125 141.865 25.2381 142.092C24.2023 142.168 23.2035 142.432 22.2417 142.773C21.9827 142.886 19.4302 144.324 19.5412 144.361C16.2859 142.659 12.4017 142.395 9.47924 144.815C8.81337 145.383 8.25848 146.063 7.85156 146.82L20.1331 154.498C24.6462 157.335 30.676 157.145 34.9671 154.044L45.2511 146.669C44.4742 145.118 42.8835 143.87 41.0709 143.34Z" fill="#FAFFFA"/>
<path d="M-4.17065 114.67C-6.53818 114.86 -9.16465 113.801 -10.0895 111.834C-11.0883 112.666 -12.642 112.931 -13.9367 112.439C-15.1944 111.985 -16.1193 110.813 -16.1563 109.564C-17.8949 111.191 -20.1145 112.363 -22.556 112.931V107.333C-22.6669 107.295 -22.8149 107.257 -22.9259 107.219V95.7969H-22.9629V127.492L7.85194 146.782C8.25886 146.026 8.81375 145.345 9.47961 144.777C12.402 142.319 16.2863 142.622 19.5416 144.324C19.4306 144.286 21.9831 142.811 22.2421 142.735C23.2039 142.395 24.2027 142.13 25.2385 142.054C28.0499 141.865 31.4162 142.773 33.5248 144.399C33.1179 144.097 36.5212 142.924 36.7801 142.886C38.2598 142.659 39.6286 142.848 41.0713 143.302C42.8839 143.87 44.4746 145.08 45.2514 146.631L49.9125 143.265L1.97012 112.023C0.194471 113.384 -1.87711 114.519 -4.17065 114.67Z" fill="#84C1C2"/>
<path d="M127.819 150.943C128.152 150.262 128.633 149.657 129.225 149.165C131.592 147.161 134.811 147.387 137.474 148.787C137.4 148.749 139.472 147.539 139.694 147.463C140.471 147.161 141.284 146.971 142.135 146.896C143.319 146.82 144.503 146.971 145.65 147.274C146.907 147.614 147.795 148.106 148.831 148.825C148.831 148.825 150.052 148.144 150.163 148.106C150.718 147.879 151.272 147.766 151.864 147.652C152.974 147.501 154.121 147.614 155.194 147.917C156.636 148.371 157.894 149.316 158.56 150.527L162.037 148.333V121.101L121.863 147.917L127.819 150.943Z" fill="#93D8D9"/>
<path d="M156.785 111.947C155.157 114.708 152.234 116.978 148.794 117.28C145.354 117.583 141.618 115.389 141.248 112.288C139.583 113.801 136.919 114.368 134.626 113.725C132.369 113.082 130.594 111.191 130.224 109.073C127.56 111.266 123.195 111.418 120.236 109.64C119.718 109.527 119.237 109.375 118.756 109.186C117.498 111.342 114.909 112.855 112.171 112.969C109.249 113.082 106.327 111.607 104.921 109.262C104.366 111.683 101.924 113.649 99.187 113.914C96.4496 114.141 93.6012 112.666 92.5284 110.397C91.0117 111.04 90.4568 111.645 88.7921 111.758C87.1275 111.872 85.2778 111.304 84.39 110.056C83.5392 112.439 81.0607 114.254 78.3232 114.557C75.5858 114.86 72.7003 113.649 71.2206 111.531C69.7039 112.855 67.4104 113.385 65.3758 112.969C63.3042 112.552 61.5286 111.153 60.7887 109.375C61.5656 111.191 55.7947 113.649 54.537 113.952C51.1336 114.671 48.5812 113.422 46.5466 110.926C45.3258 113.082 42.9583 114.784 40.2578 114.897C37.5943 115.049 34.7829 113.271 34.487 110.888C32.2674 113.195 27.6433 113.044 25.6087 110.623C24.24 113.271 21.4656 115.427 18.2102 115.767C14.9549 116.07 11.4776 114.254 10.6267 111.418C9.77591 112.742 8.18523 113.611 6.48357 113.725C4.78191 113.801 3.08025 113.082 2.08145 111.872C2.00746 111.909 1.97047 111.985 1.89648 112.023L49.8389 143.302L63.5632 152.266C64.118 151.359 64.8209 150.489 65.6717 149.77C69.7779 146.328 75.2158 146.744 79.8029 149.127C79.6549 149.051 83.2062 147.009 83.5762 146.896C84.9079 146.404 86.3136 146.063 87.7563 145.95C91.6775 145.685 96.4496 146.971 99.446 149.278C98.8541 148.825 103.663 147.236 104.033 147.16C106.142 146.82 108.028 147.123 110.063 147.728C112.43 148.446 114.539 149.997 115.723 151.964L121.716 147.955L161.89 121.138V113.271C161.668 113.309 161.446 113.385 161.224 113.422C160.817 113.536 155.971 113.385 156.785 111.947Z" fill="#159FAB"/>
<path d="M113.799 104.685C111.764 107.106 107.14 107.257 104.921 104.95C104.625 107.333 101.813 109.073 99.15 108.959C96.4865 108.808 94.082 107.106 92.8613 104.988C90.8267 107.484 88.2742 108.732 84.8708 108.014C83.5761 107.749 77.8423 105.253 78.6191 103.437C77.8792 105.215 76.1036 106.614 74.032 107.03C71.9604 107.446 69.7039 106.879 68.1872 105.593C66.7075 107.711 63.8221 108.921 61.0846 108.619C58.3472 108.316 55.8686 106.463 55.0178 104.118C54.13 105.404 52.2804 105.933 50.6157 105.82C48.951 105.707 48.3961 105.101 46.8794 104.458C45.8067 106.728 42.9582 108.241 40.2208 107.976C37.4833 107.749 35.0418 105.744 34.4869 103.324C33.1182 105.631 30.1588 107.144 27.2364 107.03C24.314 106.917 21.5395 105.177 20.3927 102.756C17.5443 105.48 12.2544 105.631 9.18399 103.135C8.81406 105.253 7.03842 107.106 4.78187 107.787C2.52532 108.43 -0.138147 107.862 -1.83981 106.35C-2.20973 109.451 -5.94599 111.645 -9.3863 111.342C-12.8266 111.04 -15.786 108.77 -17.3767 106.009C-16.5259 107.446 -21.4089 107.56 -21.9268 107.484C-22.1487 107.446 -22.3707 107.409 -22.5557 107.333V112.931C-20.1511 112.363 -17.8946 111.191 -16.1559 109.564C-16.119 110.775 -15.1941 111.947 -13.9364 112.439C-12.6786 112.893 -11.125 112.666 -10.0892 111.834C-9.16434 113.801 -6.53787 114.86 -4.17034 114.671C-1.8768 114.481 0.231779 113.385 1.97043 112.023C2.04442 111.985 2.08141 111.909 2.15539 111.872C3.15419 113.082 4.85585 113.801 6.55751 113.725C8.25917 113.649 9.84985 112.742 10.7007 111.418C11.5145 114.254 15.0288 116.07 18.2842 115.767C21.5395 115.465 24.314 113.309 25.6827 110.623C27.7173 113.044 32.3414 113.195 34.5609 110.888C34.8569 113.271 37.6683 115.011 40.3318 114.897C42.9952 114.746 45.3997 113.044 46.6205 110.926C48.6551 113.422 51.2076 114.671 54.6109 113.952C55.9056 113.687 61.6395 111.191 60.8626 109.375C61.6025 111.153 63.3782 112.552 65.4497 112.969C67.5213 113.385 69.7779 112.817 71.2946 111.531C72.7743 113.649 75.6597 114.86 78.3971 114.557C81.1346 114.254 83.6131 112.401 84.4639 110.056C85.3517 111.342 87.2014 111.872 88.866 111.758C90.5307 111.645 91.0856 111.04 92.6023 110.397C93.6751 112.666 96.5235 114.179 99.261 113.914C101.998 113.687 104.44 111.683 104.995 109.262C106.364 111.569 109.323 113.082 112.245 112.969C114.983 112.855 117.572 111.342 118.83 109.186C116.61 108.354 114.798 106.652 113.799 104.685Z" fill="#0F7A85"/>
<path d="M-22.556 107.333C-22.334 107.371 -22.1121 107.447 -21.9271 107.484C-21.4092 107.56 -16.5632 107.409 -17.377 106.009C-15.7493 108.77 -12.8269 111.04 -9.38661 111.342C-5.94629 111.645 -2.21004 109.451 -1.84011 106.35C-0.175447 107.863 2.48802 108.43 4.78156 107.787C7.03811 107.144 8.81375 105.253 9.18368 103.135C12.2171 105.669 17.544 105.48 20.3924 102.756C21.5392 105.177 24.3137 106.879 27.2361 107.03C30.1585 107.182 33.0809 105.669 34.4866 103.324C35.0415 105.745 37.483 107.711 40.2205 107.976C42.9579 108.203 45.8064 106.728 46.8791 104.459C48.3958 105.102 48.9507 105.707 50.6154 105.82C52.2801 105.934 54.1297 105.366 55.0175 104.118C55.8683 106.501 58.3468 108.316 61.0843 108.619C63.8217 108.922 66.7072 107.711 68.1869 105.593C69.7036 106.917 71.9971 107.447 74.0317 107.03C76.1033 106.614 77.8789 105.215 78.6188 103.437C77.8419 105.253 83.6128 107.711 84.8705 108.014C88.2739 108.733 90.8263 107.484 92.8609 104.988C94.0817 107.144 96.4492 108.846 99.1497 108.959C101.813 109.111 104.625 107.333 104.921 104.95C107.14 107.257 111.764 107.106 113.799 104.685C114.798 106.652 116.61 108.354 118.793 109.224C119.274 109.413 119.755 109.565 120.272 109.678C120.568 109.754 120.864 109.792 121.197 109.829C124.453 110.132 127.93 108.316 128.781 105.48C129.632 106.804 131.222 107.673 132.924 107.787C134.626 107.863 136.327 107.144 137.326 105.934C139.102 107.371 141.284 108.543 143.652 108.695C146.019 108.884 148.646 107.825 149.571 105.858C150.569 106.69 152.123 106.955 153.418 106.463C154.676 106.009 155.6 104.837 155.637 103.589C157.376 105.215 159.596 106.387 162.037 106.955V101.735V95.7593H15.1395H-22.9629V107.22C-22.8149 107.257 -22.7039 107.295 -22.556 107.333Z" fill="#006164"/>
<path d="M155.6 103.626C155.563 104.836 154.638 106.009 153.381 106.501C152.123 106.954 150.569 106.727 149.533 105.895C148.609 107.862 145.982 108.921 143.615 108.732C141.247 108.543 139.065 107.37 137.289 105.971C136.29 107.181 134.588 107.9 132.887 107.824C131.185 107.749 129.594 106.841 128.744 105.517C127.93 108.354 124.416 110.169 121.16 109.867C120.864 109.829 120.531 109.791 120.235 109.715C123.195 111.493 127.56 111.342 130.223 109.148C130.593 111.266 132.369 113.12 134.625 113.8C136.882 114.443 139.545 113.876 141.247 112.363C141.617 115.465 145.353 117.658 148.794 117.356C152.234 117.053 155.193 114.784 156.784 112.023C155.933 113.46 160.816 113.573 161.334 113.498C161.556 113.46 161.778 113.422 161.963 113.346V106.992C159.558 106.387 157.302 105.252 155.6 103.626Z" fill="#0F7A85"/>
</g>
<path d="M-22.9629 97.3101V104.08C45.2145 107.295 102.701 105.404 162 104.08V97.3101H-22.9629Z" fill="#97AD60"/>
<path d="M35.7812 16.3312C34.8934 15.8395 33.8206 15.6882 32.8958 16.0665C32.2299 13.9484 31.4901 12.7002 29.3075 11.8681C26.866 10.9226 23.9066 11.6412 22.1309 13.5702C21.1321 11.1117 20.1703 8.57756 17.5069 7.66981C15.2503 6.87553 12.5868 7.51852 10.9222 9.22055C9.7754 6.34601 8.40668 3.05543 5.18832 2.1855C2.67283 1.50469 -0.175603 2.33679 -2.1732 3.92535C-3.28298 4.8331 -4.09682 5.85431 -4.6887 7.14029C-4.79968 7.40505 -5.90946 9.4853 -5.50254 9.71224C-6.90826 8.95578 -8.60992 8.95578 -10.0896 9.52313C-14.1218 11.036 -16.5633 15.8017 -15.6755 20H38.2227C38.0008 18.4493 37.1129 17.0499 35.7812 16.3312Z" fill="white"/>
<path d="M115.575 12.4733C116.315 12.0573 117.202 11.9438 117.979 12.2464C118.534 10.5066 119.163 9.44752 120.939 8.76671C122.973 8.01026 125.415 8.5776 126.894 10.1662C127.745 8.12373 128.522 6.04347 130.742 5.24919C132.591 4.6062 134.811 5.0979 136.217 6.53517C137.141 4.15233 138.288 1.42909 140.952 0.710455C143.023 0.143113 145.428 0.823923 147.055 2.14772C147.98 2.90418 148.646 3.73628 149.127 4.79532C149.238 5.02225 150.126 6.76211 149.793 6.9134C150.94 6.27041 152.382 6.27041 153.603 6.76211C156.969 8.04808 158.967 11.9438 158.227 15.4614H113.577C113.725 14.251 114.502 13.0785 115.575 12.4733Z" fill="white"/>
<path d="M-22.9629 148.415C-22.9629 148.415 11.4032 132.983 67.9279 132.983C124.453 132.983 162 148.415 162 148.415H-22.9629Z" fill="#658A3F"/>
<path d="M159.854 157.146C158.448 154.687 157.117 152.191 155.896 149.619C153.417 144.513 151.235 139.255 149.459 133.847C148.534 131.161 147.757 128.4 147.018 125.677C146.278 122.916 145.649 120.155 145.094 117.356C144.576 114.557 144.132 111.758 143.836 108.921C143.762 108.203 143.688 107.522 143.651 106.803L143.503 104.685C143.466 103.967 143.466 103.248 143.429 102.567C143.392 101.849 143.392 101.13 143.392 100.449C143.392 100.336 143.466 100.222 143.577 100.222C143.688 100.222 143.836 100.298 143.836 100.411C144.613 106.009 145.538 111.569 146.722 117.053C147.313 119.814 147.979 122.538 148.756 125.223C149.533 127.908 150.347 130.594 151.272 133.242C152.197 135.889 153.195 138.499 154.268 141.109C155.341 143.681 156.488 146.253 157.708 148.749C158.929 151.245 160.224 153.741 161.593 156.2C161.741 156.427 161.852 156.692 162 156.919V132.107C161.63 132.485 161.223 132.825 160.779 133.09C161.038 132.145 161.519 130.934 162 129.573V120.798C161.815 120.609 161.593 120.382 161.334 120.23C160.409 119.587 159.151 119.701 158.152 120.155C157.154 120.647 156.155 122.008 155.378 122.802C155.896 121.479 156.414 120.155 156.932 118.793C157.671 116.902 158.411 115.011 158.448 112.968C158.485 110.548 157.819 108.43 155.378 108.581C153.602 108.695 152.233 109.564 151.42 111.191C152.27 109.564 152.825 107.787 153.38 106.047C154.083 103.815 154.786 101.319 153.861 99.1632C153.528 98.3311 152.899 97.6124 152.049 97.3477C151.124 97.0829 150.088 97.5368 149.422 98.2554C148.719 98.9362 148.423 99.6548 148.016 100.563C148.201 97.3855 147.683 94.2084 147.055 91.1069C146.87 90.1613 146.648 89.1779 146.13 88.3458C145.612 87.5137 144.798 86.8329 143.836 86.7573C142.172 86.6816 140.988 88.4215 140.396 90.01C138.99 93.868 139.249 98.558 140.766 102.34C140.026 101.546 139.212 100.714 138.176 100.336C137.141 99.9574 135.809 100.222 135.291 101.206C135.106 101.584 135.032 102.038 135.032 102.454C134.921 105.101 136.364 108.505 137.88 110.623C138.509 111.493 139.138 112.401 139.767 113.271C139.989 113.498 140.174 113.763 140.322 114.028C140.137 113.763 139.952 113.536 139.767 113.271C139.064 112.59 138.065 112.212 137.104 112.363C135.846 112.59 134.773 113.687 134.588 114.973C134.44 115.994 134.81 117.016 135.217 117.923C136.697 121.365 138.916 124.429 141.728 126.849C140.248 126.396 138.694 125.98 137.178 126.244C129.89 127.492 137.436 139.218 142.393 139.142C141.099 139.18 137.88 139.407 137.178 140.768C136.512 142.054 138.139 144.361 138.842 145.307C142.319 149.732 147.572 152.645 153.121 153.212C151.161 153.212 149.2 153.401 147.276 153.704C146.463 153.855 145.612 154.044 144.983 154.574C143.799 155.633 143.984 157.713 144.983 158.961C147.868 162.554 154.934 163.197 159.04 162.63C160.113 162.479 161.149 162.214 162.111 161.873V160.663C161.26 159.528 160.557 158.356 159.854 157.146Z" fill="#3F8A26"/>
<path d="M139.656 113.271C139.841 113.536 140.026 113.763 140.211 114.027C140.063 113.763 139.878 113.498 139.656 113.271Z" fill="#3F8A26"/>
<path d="M124.379 141.676C124.601 141.79 124.823 141.942 125.082 142.055C124.86 141.904 124.638 141.752 124.379 141.676Z" fill="#3E712C"/>
<path d="M144.243 158.394C142.246 156.465 140.322 154.422 138.473 152.38C136.623 150.3 134.81 148.182 133.072 145.988C131.37 143.756 129.705 141.525 128.226 139.18C127.856 138.575 127.449 138.007 127.116 137.402L126.08 135.587C125.71 134.981 125.414 134.376 125.081 133.733C124.748 133.128 124.415 132.485 124.12 131.88C124.083 131.766 124.083 131.653 124.193 131.577C124.304 131.502 124.452 131.54 124.526 131.615C127.708 136.154 130.963 140.617 134.44 144.853C136.179 146.971 137.992 149.051 139.841 151.056C141.728 153.061 143.615 155.027 145.612 156.919C147.61 158.81 149.644 160.625 151.716 162.403C153.788 164.181 155.933 165.883 158.116 167.509C158.375 167.698 158.597 167.849 158.856 168.039H162V154.687C162 154.687 162 154.649 161.963 154.649C161.482 154.195 160.853 153.931 160.039 154.12C158.153 154.536 156.488 157.032 156.266 158.923C156.71 155.027 156.081 150.337 154.49 146.744C153.973 145.61 153.122 144.361 151.901 144.361C150.828 144.361 149.977 145.307 149.533 146.328C149.09 147.349 148.868 148.446 148.239 149.354C147.832 146.442 148.091 139.596 144.059 138.915C143.097 138.764 142.135 139.293 141.506 140.05C140.877 140.806 140.581 142.281 140.248 143.189C140.174 141.941 140.1 140.693 140.063 139.444C139.989 137.667 139.878 135.889 139.175 134.263C138.362 132.334 137.067 130.897 135.143 131.956C133.775 132.712 132.998 133.885 132.924 135.511C132.998 133.885 132.813 132.296 132.628 130.707C132.406 128.665 132.036 126.433 130.519 125.072C129.964 124.542 129.187 124.202 128.411 124.315C127.56 124.467 126.931 125.185 126.635 126.017C126.339 126.812 126.339 127.492 126.339 128.362C125.34 125.79 123.824 123.445 122.159 121.214C121.641 120.533 121.123 119.852 120.42 119.361C119.717 118.869 118.793 118.642 118.016 118.982C116.647 119.55 116.314 121.365 116.462 122.878C116.721 126.471 118.608 130.102 121.197 132.561C120.309 132.22 119.384 131.842 118.423 131.956C117.461 132.069 116.499 132.75 116.462 133.733C116.425 134.111 116.536 134.49 116.684 134.83C117.572 136.986 119.902 139.142 121.863 140.239C122.677 140.693 123.491 141.184 124.341 141.638C124.6 141.714 124.822 141.865 125.044 142.016C124.822 141.903 124.6 141.752 124.341 141.638C123.528 141.336 122.603 141.411 121.9 141.903C120.975 142.546 120.531 143.832 120.864 144.929C121.123 145.799 121.752 146.442 122.418 147.047C124.822 149.203 127.708 150.829 130.778 151.699C129.446 151.926 128.041 152.153 126.931 152.909C121.604 156.654 131.777 163.122 135.698 161.193C134.662 161.684 132.221 163.122 132.147 164.445C132.073 165.731 134.181 166.942 135.106 167.396C135.587 167.622 136.068 167.849 136.549 168.039H155.415C151.531 165.088 147.795 161.873 144.243 158.394Z" fill="#3E712C"/>
<path d="M151.679 162.478C149.608 160.701 147.573 158.885 145.575 156.994C143.578 155.103 141.654 153.136 139.805 151.132C137.955 149.127 136.142 147.047 134.404 144.929C130.926 140.692 127.671 136.229 124.49 131.691C124.416 131.577 124.268 131.577 124.157 131.653C124.046 131.728 124.046 131.842 124.083 131.955C124.416 132.561 124.712 133.204 125.044 133.809C125.377 134.414 125.71 135.057 126.043 135.662L127.116 137.478C127.449 138.083 127.856 138.65 128.226 139.255C129.706 141.6 131.37 143.87 133.072 146.063C134.811 148.257 136.586 150.375 138.473 152.455C140.359 154.498 142.246 156.54 144.244 158.469C147.758 161.949 151.531 165.164 155.452 168.19H158.819C158.56 168.001 158.338 167.849 158.079 167.66C155.896 165.958 153.788 164.218 151.679 162.478Z" fill="#508C38"/>
<path d="M-20.8548 157.146C-19.4491 154.687 -18.1173 152.191 -16.8966 149.619C-14.4181 144.513 -12.2355 139.255 -10.4599 133.847C-9.53505 131.161 -8.7582 128.4 -8.01835 125.677C-7.2785 122.916 -6.64962 120.155 -6.09473 117.356C-5.57684 114.557 -5.13293 111.758 -4.83699 108.921C-4.763 108.203 -4.68902 107.522 -4.65202 106.803L-4.50405 104.685C-4.46706 103.967 -4.46706 103.248 -4.43007 102.567C-4.39308 101.849 -4.39308 101.13 -4.39308 100.449C-4.39308 100.336 -4.46706 100.222 -4.57804 100.222C-4.68902 100.222 -4.83699 100.298 -4.83699 100.411C-5.61383 106.009 -6.53865 111.569 -7.72241 117.053C-8.31429 119.814 -8.98016 122.538 -9.757 125.223C-10.5338 127.908 -11.3477 130.594 -12.2725 133.242C-13.1973 135.889 -14.1961 138.499 -15.2689 141.109C-16.3417 143.681 -17.4885 146.253 -18.7092 148.749C-19.93 151.245 -21.2247 153.741 -22.5934 156.2C-22.7414 156.427 -22.8524 156.692 -23.0004 156.919V132.107C-22.6304 132.485 -22.2235 132.825 -21.7796 133.09C-22.0385 132.145 -22.5194 130.934 -23.0004 129.573V120.798C-22.8154 120.609 -22.5934 120.382 -22.3345 120.23C-21.4097 119.587 -20.1519 119.701 -19.1531 120.155C-18.1543 120.647 -17.1555 122.008 -16.3787 122.802C-16.8966 121.479 -17.4145 120.155 -17.9324 118.793C-18.6722 116.902 -19.4121 115.011 -19.4491 112.968C-19.4861 110.548 -18.8202 108.43 -16.3787 108.581C-14.603 108.695 -13.2343 109.564 -12.4205 111.191C-13.2713 109.564 -13.8262 107.787 -14.3811 106.047C-15.0839 103.815 -15.7868 101.319 -14.862 99.1632C-14.529 98.3311 -13.9002 97.6124 -13.0493 97.3477C-12.1245 97.0829 -11.0887 97.5368 -10.4229 98.2554C-9.72001 98.9362 -9.42407 99.6548 -9.01715 100.563C-9.20211 97.3855 -8.68422 94.2084 -8.05534 91.1069C-7.87038 90.1613 -7.64842 89.1779 -7.13053 88.3458C-6.61263 87.5137 -5.79879 86.8329 -4.83699 86.7573C-3.17232 86.6816 -1.98856 88.4215 -1.39668 90.01C0.00904465 93.868 -0.249905 98.558 -1.7666 102.34C-1.02675 101.546 -0.21291 100.714 0.822882 100.336C1.85868 99.9574 3.19041 100.222 3.7083 101.206C3.89327 101.584 3.96725 102.038 3.96725 102.454C4.07823 105.101 2.63552 108.505 1.11882 110.623C0.489946 111.493 -0.138927 112.401 -0.767801 113.271C-0.989758 113.498 -1.17472 113.763 -1.32269 114.028C-1.13773 113.763 -0.952765 113.536 -0.767801 113.271C-0.0649433 112.59 0.933861 112.212 1.89567 112.363C3.15342 112.59 4.2262 113.687 4.41116 114.973C4.55913 115.994 4.18921 117.016 3.78229 117.923C2.30259 121.365 0.0830288 124.429 -2.72841 126.849C-1.2487 126.396 0.304985 125.98 1.82168 126.244C9.10922 127.492 1.56273 139.218 -3.39428 139.142C-2.09953 139.18 1.11882 139.407 1.82168 140.768C2.48755 142.054 0.859873 144.361 0.157013 145.307C-3.32029 149.732 -8.57324 152.645 -14.1221 153.212C-12.1615 153.212 -10.2009 153.401 -8.2773 153.704C-7.46346 153.855 -6.61263 154.044 -5.98376 154.574C-4.79999 155.633 -4.98496 157.713 -5.98376 158.961C-8.86918 162.554 -15.9348 163.197 -20.0409 162.63C-21.1137 162.479 -22.1495 162.214 -23.1113 161.873V160.663C-22.2605 159.528 -21.5576 158.356 -20.8548 157.146Z" fill="#3F8A26"/>
<path d="M14.6218 141.676C14.3998 141.79 14.1779 141.942 13.9189 142.055C14.1409 141.904 14.3629 141.752 14.6218 141.676Z" fill="#3E712C"/>
<path d="M-5.24343 158.394C-3.24583 156.465 -1.32221 154.422 0.527416 152.38C2.37705 150.3 4.18968 148.182 5.92834 145.988C7.63 143.756 9.29467 141.525 10.7744 139.18C11.1443 138.575 11.5512 138.007 11.8841 137.402L12.9569 135.587C13.3269 134.981 13.6228 134.376 13.9557 133.733C14.2887 133.128 14.6216 132.485 14.9175 131.88C14.9545 131.767 14.9545 131.653 14.8436 131.577C14.7326 131.502 14.5846 131.54 14.5106 131.615C11.3293 136.154 8.07391 140.617 4.5966 144.853C2.85795 146.971 1.04531 149.052 -0.804317 151.056C-2.69094 153.061 -4.57756 155.028 -6.57516 156.919C-8.57276 158.81 -10.6074 160.625 -12.6789 162.403C-14.7505 164.181 -16.8961 165.883 -19.0787 167.509C-19.3376 167.698 -19.5596 167.849 -19.8185 168.039H-22.9629V154.687C-22.9629 154.687 -22.9629 154.649 -22.9259 154.649C-22.445 154.195 -21.8161 153.931 -21.0023 154.12C-19.1157 154.536 -17.451 157.032 -17.229 158.923C-17.6729 155.028 -17.0441 150.338 -15.4534 146.744C-14.9355 145.61 -14.0847 144.362 -12.8639 144.362C-11.7911 144.362 -10.9403 145.307 -10.4964 146.328C-10.0525 147.35 -9.83051 148.446 -9.20164 149.354C-8.79472 146.442 -9.05367 139.596 -5.02147 138.915C-4.05967 138.764 -3.09786 139.293 -2.46898 140.05C-1.84011 140.806 -1.54417 142.281 -1.21124 143.189C-1.13725 141.941 -1.06326 140.693 -1.02627 139.445C-0.952288 137.667 -0.841311 135.889 -0.138451 134.263C0.675386 132.334 1.97013 130.897 3.89374 131.956C5.26247 132.712 6.03931 133.885 6.1133 135.511C6.03931 133.885 6.22428 132.296 6.40924 130.707C6.59421 128.741 6.96413 126.509 8.44384 125.148C8.99872 124.618 9.77557 124.278 10.5524 124.391C11.4032 124.542 12.0321 125.261 12.3281 126.093C12.624 126.887 12.624 127.568 12.624 128.438C13.6228 125.866 15.1395 123.521 16.8042 121.29C17.3221 120.609 17.84 119.928 18.5428 119.436C19.2457 118.945 20.1705 118.718 20.9473 119.058C22.3161 119.625 22.649 121.441 22.501 122.954C22.2421 126.547 20.3555 130.178 17.766 132.636C18.6538 132.296 19.5786 131.918 20.5404 132.031C21.5022 132.145 22.464 132.826 22.501 133.809C22.538 134.187 22.427 134.565 22.2791 134.906C21.3913 137.062 19.0607 139.218 17.1001 140.314C16.2863 140.768 15.4724 141.26 14.6216 141.714C14.3627 141.79 14.1407 141.941 13.9187 142.092C14.1407 141.979 14.3627 141.827 14.6216 141.714C15.4354 141.411 16.3603 141.487 17.0631 141.979C17.9879 142.622 18.4318 143.908 18.0989 145.004C17.84 145.874 17.2111 146.517 16.5452 147.123C14.1407 149.278 11.2553 150.905 8.18489 151.775C9.51662 152.002 10.9223 152.229 12.0321 152.985C17.3591 156.73 7.18609 163.197 3.26487 161.268C4.30066 161.76 6.74217 163.197 6.81616 164.521C6.89014 165.807 4.78157 167.017 3.85675 167.471C3.37585 167.698 2.89494 167.925 2.41404 168.114H-16.4522C-12.531 165.088 -8.79472 161.873 -5.24343 158.394Z" fill="#3E712C"/>
<path d="M-12.6788 162.478C-10.6072 160.701 -8.57261 158.885 -6.57501 156.994C-4.5774 155.103 -2.65379 153.136 -0.804159 151.132C1.04547 149.127 2.85811 147.047 4.59676 144.929C8.07407 140.692 11.3294 136.229 14.5108 131.691C14.5848 131.577 14.7327 131.577 14.8437 131.653C14.9547 131.728 14.9547 131.842 14.9177 131.955C14.5848 132.561 14.2888 133.204 13.9559 133.809C13.623 134.414 13.29 135.057 12.9571 135.662L11.8843 137.478C11.5514 138.083 11.1445 138.65 10.7745 139.255C9.29482 141.6 7.63015 143.87 5.92849 146.063C4.18984 148.257 2.4142 150.375 0.527575 152.455C-1.35905 154.498 -3.24567 156.54 -5.24327 158.469C-8.75757 161.949 -12.5308 165.164 -16.452 168.19H-19.8184C-19.5594 168.001 -19.3375 167.849 -19.0785 167.66C-16.8959 165.958 -14.7504 164.218 -12.6788 162.478Z" fill="#508C38"/>
<g opacity="0.6">
<path d="M38.6552 22.3675L-19.9145 41.2421L32.2292 19.8693L38.6552 22.3675Z" fill="#EBEBEB"/>
<path d="M30.6836 27.0878C27.5622 28.2039 24.4344 29.2528 21.3034 30.2681C19.723 30.7942 18.1692 31.2499 16.5856 31.7423L11.8614 33.1493L7.10111 34.5258C5.51114 34.9511 3.92437 35.4099 2.33441 35.8352C-0.845518 36.6857 -4.02863 37.5026 -7.2511 38.2555C-4.16582 37.109 -1.00184 36.0905 2.12916 35.0752C3.70956 34.5491 5.26336 34.0935 6.84694 33.601L11.5711 32.1941L16.3314 30.8175C17.9214 30.3922 19.5082 29.9334 21.0981 29.5081C24.278 28.6576 27.4612 27.8407 30.6836 27.0878Z" fill="#EBEBEB"/>
<path d="M7.93843 28.2241C6.00043 29.1925 4.05604 30.0937 2.11166 30.9948C0.16728 31.896 -1.81645 32.733 -3.80018 33.5701C-5.78391 34.4072 -7.76765 35.2443 -9.75776 36.0142C-11.7447 36.8177 -13.7709 37.5571 -15.7972 38.2965C-13.8592 37.3281 -11.9148 36.427 -9.97044 35.5258C-8.02606 34.6247 -6.04233 33.7876 -4.0586 32.9505C-2.07487 32.1134 -0.0911348 31.2763 1.89897 30.5064C3.88589 29.703 5.91216 28.9635 7.93843 28.2241Z" fill="#EBEBEB"/>
</g>
<path d="M40.2057 22.6986C40.094 22.5736 38.3693 21.5866 38.2278 21.4985L38.4885 21.4392C38.4885 21.4392 40.094 22.5736 40.2057 22.6986Z" fill="#FFC727"/>
<path opacity="0.5" d="M40.2057 22.6986C40.094 22.5736 38.3693 21.5866 38.2278 21.4985L38.4885 21.4392C38.4885 21.4392 40.094 22.5736 40.2057 22.6986Z" fill="white"/>
<path d="M40.2059 22.6979C40.2091 22.7315 40.0804 22.778 39.9814 22.7876C39.8197 22.8373 39.6548 22.8533 39.6516 22.8197C39.6154 22.7892 38.407 22.3298 37.6465 22.0304L37.6135 22.0336C37.5773 22.0031 37.5443 22.0064 37.5082 21.9759C37.3699 21.9215 37.2678 21.8975 37.1986 21.8703C37.1295 21.8431 37.0933 21.8126 37.0933 21.8126L38.2615 21.4954C38.3307 21.5226 38.8966 21.8749 39.4231 22.1631L39.4592 22.1935C39.4954 22.2239 39.5646 22.2511 39.6007 22.2816C39.8868 22.4913 40.1698 22.6675 40.2059 22.6979Z" fill="#FFC727"/>
<g opacity="0.1">
<path d="M40.2057 22.6985C40.2089 22.7322 40.0802 22.7786 39.9812 22.7882C39.8195 22.8379 39.6546 22.8539 39.6514 22.8203C39.6153 22.7899 38.3708 22.3005 37.6465 22.0317C37.7848 22.0861 39.3717 22.6779 39.6336 22.2793C39.8867 22.4922 40.1696 22.6681 40.2057 22.6985Z" fill="#282A3A"/>
</g>
<path d="M56.0262 22.5253C56.0421 22.6934 55.1546 22.8138 55.0525 22.7899C54.9174 22.7691 45.0229 19.866 45.0229 19.866L48.4191 18.1101C48.4552 18.1405 48.4882 18.1373 48.5244 18.1677L48.5605 18.1981C49.2647 18.6044 51.3047 19.7626 53.1342 20.8056C53.1704 20.836 53.2033 20.8328 53.2395 20.8632C53.2757 20.8936 53.3448 20.9208 53.381 20.9512C54.5818 21.6823 55.6741 22.3222 56.0262 22.5253Z" fill="#FFC727"/>
<path d="M56.0264 22.5287C55.1082 21.9731 49.1575 18.5473 48.384 18.1135L48.7971 17.9035C48.7971 17.9035 55.7732 22.3157 55.9902 22.4982L56.0264 22.5287Z" fill="#FFC727"/>
<path opacity="0.5" d="M56.0264 22.5287C55.1082 21.9731 49.1575 18.5473 48.384 18.1135L48.7971 17.9035C48.7971 17.9035 55.7732 22.3157 55.9902 22.4982L56.0264 22.5287Z" fill="white"/>
<g opacity="0.5">
<path opacity="0.1" d="M56.0262 22.5247C56.0421 22.6928 55.1546 22.8133 55.0525 22.7893C54.9174 22.7686 45.0228 19.8667 45.0228 19.8667L48.4192 18.1108C48.4192 18.1108 47.6567 19.2028 49.8477 20.5494C51.3676 21.4866 52.871 21.5435 53.381 20.951C54.5818 21.6819 55.6742 22.3216 56.0262 22.5247Z" fill="#282A3A"/>
</g>
<path d="M47.8167 20.8794C47.5655 21.0397 47.2781 21.1695 47.2197 20.9036C47.2101 20.8026 47.2634 20.6616 47.7062 20.4148C47.802 20.3715 48.0532 20.2113 48.1415 20.4403C48.2265 20.6357 47.9093 20.8025 47.8167 20.8794Z" fill="#FFC727"/>
<path opacity="0.1" d="M47.8167 20.8794C47.5655 21.0397 47.2781 21.1695 47.2197 20.9036C47.2101 20.8026 47.2634 20.6616 47.7062 20.4148C47.802 20.3715 48.0532 20.2113 48.1415 20.4403C48.2265 20.6357 47.9093 20.8025 47.8167 20.8794Z" fill="#282A3A"/>
<path d="M50.1126 21.5766C49.8614 21.7369 49.574 21.8668 49.5156 21.6008C49.506 21.4999 49.5593 21.3589 50.0021 21.1121C50.0979 21.0688 50.3491 20.9085 50.4374 21.1376C50.5224 21.333 50.2084 21.5334 50.1126 21.5766Z" fill="#FFC727"/>
<path opacity="0.1" d="M50.1126 21.5766C49.8614 21.7369 49.574 21.8668 49.5156 21.6008C49.506 21.4999 49.5593 21.3589 50.0021 21.1121C50.0979 21.0688 50.3491 20.9085 50.4374 21.1376C50.5224 21.333 50.2084 21.5334 50.1126 21.5766Z" fill="#282A3A"/>
<path d="M52.4436 22.3042C52.1924 22.4645 51.905 22.5943 51.8466 22.3284C51.8371 22.2275 51.8904 22.0865 52.3332 21.8396C52.429 21.7963 52.6802 21.6361 52.7684 21.8651C52.8205 22.0638 52.5363 22.2273 52.4436 22.3042Z" fill="#FFC727"/>
<path opacity="0.1" d="M52.4436 22.3042C52.1924 22.4645 51.905 22.5943 51.8466 22.3284C51.8371 22.2275 51.8904 22.0865 52.3332 21.8396C52.429 21.7963 52.6802 21.6361 52.7684 21.8651C52.8205 22.0638 52.5363 22.2273 52.4436 22.3042Z" fill="#282A3A"/>
<path d="M51.4844 19.912C51.2649 20.4088 50.69 20.6685 50.3067 20.8417C49.322 21.3452 48.6183 21.6514 48.1664 20.7446C48.1207 20.6133 48.0781 20.5155 48.0686 20.4146C47.9359 19.7144 48.6269 19.2735 48.9708 19.0362C49.3775 18.7589 49.6916 18.5585 49.913 18.435C50.2931 18.2282 50.4581 18.2121 50.6199 18.1624C50.8179 18.1431 51.283 18.1318 51.5306 18.9906C51.6049 19.4248 51.5643 19.7004 51.4844 19.912Z" fill="#FFC727"/>
<path d="M51.4199 19.2393C51.4707 19.7779 51.1818 20.2477 50.7856 20.2864C50.3893 20.325 50.0179 19.9196 49.9671 19.381C49.9163 18.8424 50.2052 18.3726 50.6014 18.3339C51.0009 18.3289 51.3723 18.7343 51.4199 19.2393Z" fill="#263238"/>
<path d="M51.3214 19.2494C51.3659 19.7207 51.1036 20.12 50.7734 20.1522C50.4102 20.1877 50.1111 19.8431 50.0667 19.3719C50.0222 18.9006 50.2845 18.5013 50.6147 18.4691C50.9779 18.4336 51.277 18.7781 51.3214 19.2494Z" fill="#282A3A"/>
<path d="M36.2006 20.4642L36.0421 20.5474L35.6921 20.7172C35.3496 20.6147 34.8656 20.4243 34.3189 20.2738C33.0117 19.8241 31.4343 19.3328 31.1279 19.2607L31.1609 19.2575L31.1939 19.2543L31.2269 19.2511C31.2269 19.2511 31.2269 19.2511 31.2598 19.2479C31.2928 19.2447 31.329 19.2751 31.362 19.2719C31.3949 19.2687 31.4311 19.2991 31.4641 19.2959C31.5662 19.3199 31.6683 19.3439 31.7704 19.3679C31.8034 19.3647 31.8395 19.3952 31.8725 19.392C31.9055 19.3887 31.9417 19.4192 31.9746 19.416C32.0076 19.4128 32.0076 19.4128 32.0406 19.4095C32.1097 19.4368 32.1427 19.4336 32.2118 19.4608C32.2448 19.4576 32.281 19.488 32.3139 19.4848C32.7224 19.5808 33.233 19.7008 33.7106 19.824L33.8456 19.8448C34.0169 19.8961 34.185 19.9136 34.3562 19.9649C34.6626 20.0369 34.9689 20.1089 35.2423 20.1841C35.2752 20.1809 35.3114 20.2113 35.3773 20.2049C35.5124 20.2257 35.6507 20.2801 35.7528 20.3041C35.7858 20.3009 35.822 20.3313 35.8549 20.3281L35.8879 20.3249C35.8879 20.3249 35.8879 20.3249 35.9209 20.3217C36.0985 20.4402 36.2006 20.4642 36.2006 20.4642Z" fill="#FFC727"/>
<path opacity="0.5" d="M36.2006 20.4642L36.0421 20.5474L35.6921 20.7172C35.3496 20.6147 34.8656 20.4243 34.3189 20.2738C33.0117 19.8241 31.4343 19.3328 31.1279 19.2607L31.1609 19.2575L31.1939 19.2543L31.2269 19.2511C31.2269 19.2511 31.2269 19.2511 31.2598 19.2479C31.2928 19.2447 31.329 19.2751 31.362 19.2719C31.3949 19.2687 31.4311 19.2991 31.4641 19.2959C31.5662 19.3199 31.6683 19.3439 31.7704 19.3679C31.8034 19.3647 31.8395 19.3952 31.8725 19.392C31.9055 19.3887 31.9417 19.4192 31.9746 19.416C32.0076 19.4128 32.0076 19.4128 32.0406 19.4095C32.1097 19.4368 32.1427 19.4336 32.2118 19.4608C32.2448 19.4576 32.281 19.488 32.3139 19.4848C32.7224 19.5808 33.233 19.7008 33.7106 19.824L33.8456 19.8448C34.0169 19.8961 34.185 19.9136 34.3562 19.9649C34.6626 20.0369 34.9689 20.1089 35.2423 20.1841C35.2752 20.1809 35.3114 20.2113 35.3773 20.2049C35.5124 20.2257 35.6507 20.2801 35.7528 20.3041C35.7858 20.3009 35.822 20.3313 35.8549 20.3281L35.8879 20.3249C35.8879 20.3249 35.8879 20.3249 35.9209 20.3217C36.0985 20.4402 36.2006 20.4642 36.2006 20.4642Z" fill="white"/>
<path d="M35.6585 20.7191L34.671 21.1883C34.671 21.1883 32.2938 20.3341 30.878 19.7934C30.878 19.7934 30.878 19.7934 30.8451 19.7966C30.7068 19.7422 30.5685 19.6878 30.4302 19.6334C30.0516 19.5006 29.841 19.3854 29.841 19.3854C29.8676 19.315 30.7219 19.1979 31.0612 19.2667C31.0612 19.2667 31.0612 19.2667 31.0942 19.2635C31.3676 19.3387 32.8429 19.8057 34.147 20.2216L34.18 20.2184C34.2129 20.2152 34.2491 20.2456 34.2821 20.2424C34.832 20.4264 35.3128 20.5831 35.6585 20.7191Z" fill="#FFC727"/>
<g opacity="0.1">
<path d="M35.6582 20.7204L34.6708 21.1895C34.6708 21.1895 32.2936 20.3358 30.8779 19.7954C31.1183 19.8737 33.4923 20.6939 34.0371 20.4713C34.1658 20.4248 34.2254 20.3512 34.2489 20.2472C34.8318 20.4278 35.3125 20.5845 35.6582 20.7204Z" fill="#282A3A"/>
</g>
<path d="M38.1222 18.9891L35.7593 20.4425C35.7593 20.4425 35.5884 18.2836 35.4418 16.7342C35.4354 16.6668 35.4323 16.6331 35.4259 16.5658C35.4227 16.5321 35.4163 16.4647 35.4131 16.431C35.3621 15.8921 35.3239 15.4879 35.3048 15.2858C35.2442 14.6458 35.3008 14.5384 35.4755 14.6234C35.6502 14.7083 36.4375 15.2777 36.6612 15.5279C36.8487 15.7476 37.3789 17.1237 37.7356 18.0749C37.7356 18.0749 37.7356 18.0749 37.7388 18.1085C37.7452 18.1759 37.7814 18.2064 37.7878 18.2737C38.0274 18.6924 38.1222 18.9891 38.1222 18.9891Z" fill="#FFC727"/>
<g opacity="0.1">
<path d="M38.1228 18.9891L35.7609 20.4425C35.7609 20.4425 35.5904 18.2844 35.4442 16.7356C35.8869 17.5419 36.7182 18.5823 37.8548 18.2677C38.0282 18.6925 38.1228 18.9891 38.1228 18.9891Z" fill="#282A3A"/>
</g>
<path d="M34.1671 21.9231C33.8429 21.3101 34.8741 20.5992 36.0435 19.9426C37.2098 19.2524 48.736 12.669 50.4395 12.0284C52.143 11.3877 54.2481 11.8274 54.6764 12.8373C55.3471 14.2986 53.2911 15.7878 45.7862 19.8426C44.8051 20.3791 40.3257 21.9345 37.7532 22.1848C35.0488 22.448 34.3276 22.2128 34.1671 21.9231Z" fill="#FDE039"/>
<path opacity="0.5" d="M34.1671 21.9231C33.8429 21.3101 34.8741 20.5992 36.0435 19.9426C37.2098 19.2524 48.736 12.669 50.4395 12.0284C52.143 11.3877 54.2481 11.8274 54.6764 12.8373C55.3471 14.2986 53.2911 15.7878 45.7862 19.8426C44.8051 20.3791 40.3257 21.9345 37.7532 22.1848C35.0488 22.448 34.3276 22.2128 34.1671 21.9231Z" fill="white"/>
<path opacity="0.1" d="M45.819 19.8391C44.8379 20.3756 40.3585 21.931 37.786 22.1814C35.0487 22.4477 34.3275 22.2126 34.1669 21.9229C34.0033 21.5996 34.2023 21.241 34.6025 20.8967C34.6088 20.9639 34.6152 21.0312 34.6545 21.0952C34.7821 21.3881 35.4341 21.596 37.9375 21.3185C40.2791 21.0907 43.4258 18.8168 44.3473 18.354C51.1553 14.6723 53.8704 14.1706 53.2753 12.8037C53.0202 12.2179 52.1182 11.8307 51.0831 11.7957C52.6471 11.44 54.2905 11.9246 54.67 12.7697C55.347 14.2983 53.291 15.7875 45.819 19.8391Z" fill="#282A3A"/>
<path d="M37.7979 19.4305L38.0819 19.267L38.12 19.6707L37.836 19.8342L37.7979 19.4305Z" fill="#282A3A"/>
<path d="M38.2705 19.1473L38.5545 18.9838L38.5926 19.3875L38.3086 19.551L38.2705 19.1473Z" fill="#282A3A"/>
<path d="M38.7754 18.8607L39.0594 18.6972L39.1007 19.1346L38.8135 19.2644L38.7754 18.8607Z" fill="#282A3A"/>
<path d="M39.2803 18.5736L39.5643 18.41L39.6056 18.8475L39.3216 19.011L39.2803 18.5736Z" fill="#282A3A"/>
<path d="M39.7842 18.2869L40.0683 18.1234L40.1096 18.5609L39.8255 18.7244L39.7842 18.2869Z" fill="#282A3A"/>
<path d="M40.2898 18.0004L40.577 17.8705L40.6151 18.2743L40.3311 18.4378L40.2898 18.0004Z" fill="#282A3A"/>
<path d="M40.7979 17.7474L41.0819 17.5839L41.12 17.9876L40.836 18.1511L40.7979 17.7474Z" fill="#282A3A"/>
<path d="M41.3027 17.4608L41.5867 17.2973L41.6249 17.701L41.3409 17.8645L41.3027 17.4608Z" fill="#282A3A"/>
<path d="M41.8076 17.1741L42.0916 17.0106L42.1297 17.4144L41.8457 17.5779L41.8076 17.1741Z" fill="#282A3A"/>
<path d="M42.2793 16.8904L42.5633 16.7269L42.6014 17.1307L42.3174 17.2942L42.2793 16.8904Z" fill="#282A3A"/>
<path d="M42.7842 16.6038L43.0682 16.4403L43.1095 16.8777L42.8223 17.0076L42.7842 16.6038Z" fill="#282A3A"/>
<path d="M43.2891 16.3172L43.5731 16.1537L43.6144 16.5911L43.3304 16.7546L43.2891 16.3172Z" fill="#282A3A"/>
<path d="M43.7937 16.0306L44.0809 15.9008L44.119 16.3045L43.835 16.468L43.7937 16.0306Z" fill="#282A3A"/>
<path d="M44.3027 15.7772L44.5867 15.6137L44.6249 16.0174L44.3409 16.1809L44.3027 15.7772Z" fill="#282A3A"/>
<path d="M44.8067 15.491L45.0907 15.3275L45.1288 15.7313L44.8448 15.8948L44.8067 15.491Z" fill="#282A3A"/>
<path d="M45.3125 15.2044L45.5965 15.0409L45.6346 15.4447L45.3506 15.6082L45.3125 15.2044Z" fill="#282A3A"/>
<path d="M45.8164 14.9173L46.0676 14.757L46.1057 15.1608L45.8545 15.3211L45.8164 14.9173Z" fill="#282A3A"/>
<path d="M46.2891 14.6341L46.5731 14.4706L46.6144 14.908L46.3272 15.0378L46.2891 14.6341Z" fill="#282A3A"/>
<path d="M46.793 14.347L47.077 14.1835L47.1183 14.6209L46.8343 14.7844L46.793 14.347Z" fill="#282A3A"/>
<path d="M47.2988 14.0609L47.5829 13.8974L47.6242 14.3348L47.3401 14.4983L47.2988 14.0609Z" fill="#282A3A"/>
<path d="M47.8035 13.7743L48.0907 13.6444L48.1288 14.0482L47.8448 14.2117L47.8035 13.7743Z" fill="#282A3A"/>
<path d="M48.5955 13.3573L48.6337 13.7611L48.3496 13.9246L48.3115 13.5208L48.5955 13.3573Z" fill="#282A3A"/>
<path d="M49.1004 13.0707L49.1385 13.4744L48.8545 13.6379L48.8164 13.2342L49.1004 13.0707Z" fill="#282A3A"/>
<path d="M49.6053 12.7841L49.6434 13.1878L49.3594 13.3513L49.3213 12.9476L49.6053 12.7841Z" fill="#282A3A"/>
<path d="M50.0773 12.5007L50.1155 12.9045L49.8643 13.0648L49.8262 12.661L50.0773 12.5007Z" fill="#282A3A"/>
<path d="M51.4463 12.1987C51.5985 12.0481 51.7901 11.9616 51.9816 11.8751L52.007 12.1441C51.8091 12.1634 51.6442 12.1794 51.4463 12.1987Z" fill="#455A64"/>
<path d="M52.6008 11.7468L52.6358 12.117C52.5038 12.1299 52.3687 12.1091 52.2037 12.1251L52.1719 11.7886C52.3368 11.7725 52.4688 11.7597 52.6008 11.7468Z" fill="#455A64"/>
<path d="M53.9708 12.1585C53.8389 12.1713 53.7368 12.1473 53.6378 12.1569C53.5389 12.1665 53.4368 12.1425 53.3048 12.1554C53.1368 12.1378 53.0048 12.1506 52.8367 12.133L52.8018 11.7632C52.9698 11.7808 53.1709 11.7952 53.3422 11.8464C53.4443 11.8704 53.5496 11.928 53.6549 11.9856C53.6911 12.016 53.7602 12.0432 53.7964 12.0736C53.8655 12.1009 53.9347 12.1281 53.9708 12.1585Z" fill="#455A64"/>
<path d="M44.9022 16.4533L41.6012 18.5048C41.6012 18.5048 35.8074 16.0153 31.6431 14.2153C29.4211 13.2441 27.7192 12.4937 27.749 12.4568C27.8055 12.3496 28.864 12.2805 29.296 12.2724C29.3619 12.2659 29.3949 12.2627 29.4311 12.2931C29.5992 12.3107 36.0912 14.0877 40.6004 15.3113C43.0215 15.9239 44.9022 16.4533 44.9022 16.4533Z" fill="#FFC727"/>
<g opacity="0.1">
<path d="M44.9022 16.4571L41.6011 18.5082C41.6011 18.5082 35.8076 16.0201 31.6436 14.2212C31.9563 14.3603 39.4229 17.2959 40.2956 16.6683C40.6393 16.4313 40.6545 15.8872 40.5974 15.2824C43.0215 15.928 44.9022 16.4571 44.9022 16.4571Z" fill="#282A3A"/>
</g>
<path d="M45.3732 16.1689L44.3985 16.7724C41.6553 15.9201 30.287 12.5493 29.3287 12.2695L29.2957 12.2727C29.2957 12.2727 29.2957 12.2727 29.2627 12.2759C29.3287 12.2695 29.3616 12.2663 29.3978 12.2967C29.6648 12.3046 45.3732 16.1689 45.3732 16.1689Z" fill="#FFC727"/>
<path opacity="0.5" d="M45.3732 16.1689L44.3985 16.7724C41.6553 15.9201 30.287 12.5493 29.3287 12.2695L29.2957 12.2727C29.2957 12.2727 29.2957 12.2727 29.2627 12.2759C29.3287 12.2695 29.3616 12.2663 29.3978 12.2967C29.6648 12.3046 45.3732 16.1689 45.3732 16.1689Z" fill="white"/>
<path d="M37.9613 16.9649C37.6473 17.1652 37.2971 17.3352 37.2323 17.0019C37.2196 16.8673 37.3027 16.6894 37.8051 16.3689C37.9308 16.2887 38.215 16.1252 38.3425 16.4184C38.467 16.6779 38.0869 16.8847 37.9613 16.9649Z" fill="#FFC727"/>
<path opacity="0.1" d="M37.9613 16.9649C37.6473 17.1652 37.2971 17.3352 37.2323 17.0019C37.2196 16.8673 37.3027 16.6894 37.8051 16.3689C37.9308 16.2887 38.215 16.1252 38.3425 16.4184C38.467 16.6779 38.0869 16.8847 37.9613 16.9649Z" fill="#282A3A"/>
<path d="M34.8832 15.7305C34.5692 15.9309 34.219 16.1008 34.1542 15.7675C34.1415 15.6329 34.2246 15.4551 34.727 15.1345C34.8526 15.0544 35.1368 14.8909 35.2644 15.184C35.3888 15.4436 35.0088 15.6504 34.8832 15.7305Z" fill="#FFC727"/>
<path opacity="0.1" d="M34.8832 15.7305C34.5692 15.9309 34.219 16.1008 34.1542 15.7675C34.1415 15.6329 34.2246 15.4551 34.727 15.1345C34.8526 15.0544 35.1368 14.8909 35.2644 15.184C35.3888 15.4436 35.0088 15.6504 34.8832 15.7305Z" fill="#282A3A"/>
<path d="M31.7713 14.5001C31.4573 14.7005 31.1369 14.8336 31.0753 14.5339C31.0626 14.3994 31.1489 14.2551 31.6183 13.9378C31.7439 13.8576 31.9952 13.6973 32.1196 13.9569C32.244 14.2164 31.897 14.42 31.7713 14.5001Z" fill="#FFC727"/>
<path opacity="0.1" d="M31.7713 14.5001C31.4573 14.7005 31.1369 14.8336 31.0753 14.5339C31.0626 14.3994 31.1489 14.2551 31.6183 13.9378C31.7439 13.8576 31.9952 13.6973 32.1196 13.9569C32.244 14.2164 31.897 14.42 31.7713 14.5001Z" fill="#282A3A"/>
<path d="M42.3144 16.2035C42.095 16.7003 41.5201 16.9601 41.1368 17.1333C40.1521 17.6367 39.4484 17.943 38.9965 17.0362C38.9508 16.9048 38.9082 16.8071 38.8987 16.7061C38.766 16.0059 39.457 15.565 39.8009 15.3278C40.2076 15.0504 40.5216 14.85 40.7431 14.7266C41.1232 14.5198 41.2881 14.5037 41.4499 14.454C41.6479 14.4347 42.1131 14.4233 42.3606 15.2821C42.4349 15.7164 42.3944 15.992 42.3144 16.2035Z" fill="#FFC727"/>
<path d="M41.6156 16.5774C42.0168 16.5383 42.3009 16.0695 42.25 15.5303C42.1992 14.9911 41.8327 14.5858 41.4315 14.6249C41.0303 14.6641 40.7463 15.1329 40.7971 15.672C40.848 16.2112 41.2145 16.6166 41.6156 16.5774Z" fill="#263238"/>
<path d="M42.1515 15.5405C42.1959 16.0118 41.9337 16.411 41.6035 16.4433C41.2403 16.4787 40.9412 16.1342 40.8968 15.6629C40.8523 15.1916 41.1146 14.7923 41.4448 14.7601C41.808 14.7247 42.1071 15.0692 42.1515 15.5405Z" fill="#282A3A"/>
</g>
<path d="M102.12 136.03C102.12 137.577 87.4232 138.852 69.2377 138.852C51.0958 138.852 36.3555 137.577 36.3555 136.03C36.3555 134.482 51.0522 133.207 69.2377 133.207C87.4232 133.207 102.12 134.436 102.12 136.03Z" fill="#1B1B1B" fill-opacity="0.26"/>
<path d="M84.6344 101.94L78.7588 110.563L68.5775 125.462L64.4062 123.114L75.1258 104.017L77.9515 99.0503L84.6344 101.94Z" fill="#E79E80"/>
<path d="M84.6365 101.94L78.7609 110.563L75.1279 104.017L77.9536 99.0503L84.6365 101.94Z" fill="#E27C6F"/>
<path d="M72.3015 134.627C72.4361 134.401 72.5258 134.085 72.3464 133.769C71.853 132.866 69.7898 129.751 69.4759 128.577C69.2516 127.674 69.4759 126.275 69.6104 125.688L64.1834 122.121C62.8827 123.25 60.7298 125.688 60.2812 126.184L72.3015 134.627Z" fill="#1D1E1E"/>
<path d="M71.4489 135.847L59.3838 127.449L60.236 126.23L72.3011 134.628L71.4489 135.847Z" fill="white"/>
<path d="M68.2191 128.261C68.2191 128.261 68.1743 128.261 68.1743 128.306C68.0397 128.351 67.9052 128.487 67.9949 128.667C68.0397 128.758 68.1294 128.803 68.2191 128.848C68.5331 128.983 68.8471 129.028 69.161 129.074C69.5198 129.119 69.8786 129.164 70.2375 129.028C70.5963 128.893 70.5066 128.487 70.1926 128.351C69.6095 128.035 68.8022 127.99 68.2191 128.261Z" fill="white"/>
<path d="M68.6683 129.527C68.6683 129.527 68.6235 129.527 68.6235 129.573C68.4889 129.618 68.3544 129.753 68.4441 129.934C68.4889 130.024 68.5786 130.069 68.6683 130.114C68.9823 130.25 69.2963 130.295 69.6102 130.34C69.969 130.385 70.3279 130.43 70.6867 130.295C71.0455 130.16 70.9558 129.753 70.6418 129.618C70.0588 129.302 69.2514 129.257 68.6683 129.527Z" fill="white"/>
<path d="M69.476 130.699C69.476 130.699 69.4311 130.699 69.4311 130.744C69.2966 130.79 69.162 130.925 69.2517 131.106C69.2966 131.196 69.3863 131.241 69.476 131.286C69.7899 131.422 70.1039 131.467 70.4179 131.512C70.7767 131.557 71.1355 131.602 71.4943 131.467C71.8531 131.331 71.7634 130.925 71.4494 130.79C70.8664 130.519 70.059 130.473 69.476 130.699Z" fill="white"/>
<path d="M88.1783 85.461C88.1783 85.2804 88.1783 85.0998 88.1783 84.9644C88.1783 84.6032 88.1783 84.242 88.1334 83.8808C88.1334 83.6551 88.1334 83.4294 88.1334 83.2036C88.0886 82.1201 88.0886 81.0817 88.0437 80.1787H77.9969C78.4903 85.5965 79.2976 95.4387 78.4454 97.5155C78.4006 97.5607 78.2212 97.9219 77.9072 98.4185L86.1151 102.527C87.371 100.315 88.268 98.6442 88.3128 98.1024C88.4025 96.8834 88.3128 90.8788 88.1783 85.461Z" fill="#282A3A"/>
<path d="M88.134 83.8357C87.7303 83.5196 87.3715 83.1133 87.2369 82.9327C86.5193 82.12 86.0259 81.1268 85.7568 80.0884H86.2054C86.3848 80.8107 86.6987 81.4428 87.1024 82.0749C87.1472 82.1652 87.6406 82.707 88.0891 83.1584C88.134 83.3842 88.134 83.6099 88.134 83.8357Z" fill="#3A5377"/>
<path d="M88.1788 85.461C86.0259 84.4226 84.4113 82.4361 83.873 80.0884H84.3216C84.8149 82.1652 86.2502 83.9711 88.134 84.9192C88.1788 85.0998 88.1788 85.2804 88.1788 85.461Z" fill="#3A5377"/>
<path d="M88.5363 128.668L84.096 129.345L80.4181 109.571C80.149 108.532 78.8932 104.965 77.8167 101.941C76.9197 99.5026 76.1572 97.4258 76.1572 97.4258L84.5445 94.9878C84.5445 94.9878 84.9482 96.9292 85.4864 99.322C86.2937 103.069 87.3253 107.99 87.5496 108.939C87.8187 110.248 88.5363 128.668 88.5363 128.668Z" fill="#E79E80"/>
<path d="M85.4415 99.3206C84.7238 99.9978 82.6607 101.307 77.7718 101.984C76.8748 99.5463 76.1123 97.4695 76.1123 97.4695L84.4996 95.0316C84.4996 94.9864 84.9033 96.8826 85.4415 99.3206Z" fill="#E27C6F"/>
<path d="M97.82 132.775C97.7751 132.505 97.5957 132.234 97.2818 132.143C96.295 131.827 92.662 130.834 91.6304 130.202C90.8231 129.705 90.0606 128.486 89.7467 127.99L83.288 128.938C83.0638 130.653 83.1535 133.859 83.1535 134.536L97.82 132.775Z" fill="#1D1E1E"/>
<path d="M98.0003 134.22L83.3786 136.026L83.1992 134.581L97.8209 132.775L98.0003 134.22Z" fill="white"/>
<path d="M90.4668 130.742C90.4668 130.742 90.4668 130.787 90.422 130.787C90.3771 130.923 90.3322 131.103 90.5117 131.194C90.6014 131.239 90.6911 131.194 90.7808 131.149C91.0947 131.058 91.3638 130.878 91.6329 130.697C91.9021 130.471 92.216 130.246 92.3954 129.93C92.5748 129.614 92.2609 129.343 91.9021 129.478C91.3638 129.704 90.7359 130.2 90.4668 130.742Z" fill="white"/>
<path d="M91.6787 131.42C91.6787 131.42 91.6787 131.466 91.6339 131.466C91.589 131.601 91.5442 131.782 91.7236 131.872C91.8133 131.917 91.903 131.872 91.9927 131.827C92.3066 131.737 92.5758 131.556 92.8449 131.375C93.114 131.15 93.4279 130.924 93.6073 130.608C93.7867 130.292 93.4728 130.021 93.114 130.156C92.5758 130.337 91.9478 130.834 91.6787 131.42Z" fill="white"/>
<path d="M93.0684 131.735C93.0684 131.735 93.0684 131.781 93.0235 131.781C92.9787 131.916 92.9338 132.097 93.1132 132.187C93.2029 132.232 93.2926 132.187 93.3823 132.142C93.6963 132.051 93.9654 131.871 94.2345 131.69C94.5036 131.465 94.8176 131.239 94.997 130.923C95.1764 130.607 94.8624 130.336 94.5036 130.471C93.9654 130.697 93.3375 131.194 93.0684 131.735Z" fill="white"/>
<path d="M81.0459 80.5845L75.0807 80.6296H74.6321H73.3314H72.8381H70.7749H68.5771C68.5771 80.6296 69.2051 82.2098 70.147 84.6026C70.1918 84.7381 70.2367 84.8735 70.3264 85.0541C70.5506 85.5959 70.7749 86.1377 70.9991 86.7246C71.044 86.86 71.1337 87.0406 71.1786 87.1761C72.5241 90.6525 75.2601 97.6504 76.6505 101.353L86.3833 98.4631C84.2753 91.4651 81.0459 80.5845 81.0459 80.5845Z" fill="#282A3A"/>
<path d="M70.7749 80.6289H68.5771C68.5771 80.6289 69.2051 82.2091 70.147 84.6019C70.1918 84.7374 70.2367 84.8728 70.3264 85.0534C70.5506 85.5952 70.7749 86.137 70.9991 86.7239C71.044 86.8593 71.1337 87.0399 71.1786 87.1754C72.5241 90.6518 75.2601 97.6497 76.6505 101.352L78.0857 100.9C75.8431 94.4893 71.8962 83.6087 70.7749 80.6289Z" fill="#1B2B44"/>
<path d="M75.0814 80.6299C74.7675 83.2485 73.3322 85.6865 71.1345 87.1763C71.0896 87.0409 70.9999 86.8603 70.9551 86.7249C72.9734 85.3253 74.319 83.0679 74.5881 80.6299H75.0814Z" fill="#3A5377"/>
<path d="M73.3319 80.6294C73.0628 82.4805 71.9415 84.1058 70.3269 85.0539C70.282 84.9185 70.1923 84.783 70.1475 84.6024C71.5827 83.7446 72.6143 82.2999 72.8834 80.6294H73.3319Z" fill="#3A5377"/>
<path d="M89.6581 89.3417C89.972 90.0189 91.2279 90.2447 91.2279 90.2447C91.2279 90.2447 92.0801 88.0776 92.6183 86.8586C92.7528 86.5425 92.8425 86.2716 92.9322 86.1813C93.2462 85.5944 93.1117 81.7568 93.1117 81.7568L89.8375 82.2986C89.4787 83.0661 90.1963 85.1429 90.1963 85.1429C90.1066 85.459 90.1514 86.4974 90.1514 86.9037C90.1514 86.994 90.1514 87.0843 90.1514 87.0843L90.1066 87.0391C89.8823 86.7683 89.5684 86.9489 89.5684 86.9489L89.6581 89.3417Z" fill="#E27C6F"/>
<path d="M93.112 81.7567L93.0223 80.9892L91.1385 67.6706C90.9591 66.4967 89.479 63.1106 89.479 63.1106L89.2547 62.0722L88.7613 58.5055C88.7165 58.0541 88.5819 57.5574 88.4922 57.106H83.5137C84.3659 60.5372 85.3974 64.7811 85.3526 65.5486C85.3526 66.0453 86.0254 68.4381 86.8775 71.3276C87.9988 75.0297 89.4341 79.4542 90.062 81.4407L89.7929 82.2985C89.4341 83.066 90.1517 85.1428 90.1517 85.1428C90.1069 85.3686 90.1069 85.9104 90.1069 86.407V86.723C90.1069 86.8133 90.1069 86.9036 90.1069 86.9488C90.1069 86.9939 90.1069 87.0391 90.1069 87.0842C90.1069 87.1294 90.1069 87.1293 90.1069 87.1293L90.062 87.0842C89.8378 86.8133 89.5238 86.9939 89.5238 86.9939L89.5687 89.3867C89.8378 90.0188 90.9142 90.2446 91.0936 90.2897C91.1385 90.2897 91.1385 90.2897 91.1385 90.2897C91.1385 90.2897 91.2282 90.1091 91.3179 89.8382C91.4076 89.6125 91.5421 89.3416 91.6318 89.0256C91.901 88.3483 92.2598 87.4905 92.484 86.9036C92.6186 86.5876 92.7083 86.3167 92.798 86.2264C92.8428 86.1361 92.8877 86.0007 92.8877 85.8201C93.1568 84.6011 93.112 81.7567 93.112 81.7567ZM91.7216 86.6327C91.4524 86.9939 91.2282 87.4454 91.0488 87.8969C90.9591 88.0775 90.9142 88.2581 90.8694 88.4386C90.8245 88.5741 90.7797 88.7547 90.7348 88.8901C90.6003 88.845 90.4657 88.8901 90.3311 88.845C90.4208 88.4838 90.4208 88.0775 90.376 87.7163C90.5106 87.7163 90.6451 87.7163 90.7348 87.6711C90.8245 87.626 90.8694 87.5808 90.9142 87.5357C90.9591 87.4905 90.9591 87.4905 91.0039 87.4454C91.2282 87.1745 91.273 86.8133 91.3179 86.4521C91.3179 86.0909 91.1385 85.6395 91.3179 85.3686C91.5421 85.0525 91.7215 84.6914 91.8561 84.3302C91.7215 85.0977 91.6767 85.8652 91.7216 86.6327Z" fill="#E79E80"/>
<path d="M82.8848 52.5469C82.8848 52.592 82.9296 52.6372 82.9296 52.6823C83.109 52.9532 83.423 53.0887 83.6921 53.2241C85.6656 54.0819 87.0111 54.3979 87.6839 56.6102C88.3567 58.8224 88.5809 63.1115 89.5677 65.1883C89.8368 65.8204 90.1956 66.4073 90.4199 67.0394C90.6441 67.7166 90.7338 68.439 90.8235 69.1162C91.2272 72.0508 91.586 74.9403 91.9897 77.8749C92.3036 80.3129 92.2588 83.3378 92.9764 85.7306C93.1558 84.5568 93.0661 81.7125 93.0661 81.7125L92.9764 80.9449L91.0927 67.6263C90.9132 66.4524 89.4331 63.0663 89.4331 63.0663L89.2089 62.0279L88.7155 58.4613C88.4912 56.8811 87.953 55.3912 87.056 54.1271C86.2487 52.7275 84.4994 52.5469 82.8848 52.5469Z" fill="#EEBD90"/>
<path d="M88.6679 63.7881C88.6679 63.7881 88.6679 63.8332 88.623 63.9235C88.623 63.9687 88.5782 64.0138 88.5782 64.059C88.5333 64.1041 88.5333 64.1944 88.4885 64.2396C88.4436 64.2847 88.3988 64.375 88.3539 64.4653C88.3091 64.5556 88.2194 64.6007 88.1745 64.691C88.04 64.8265 87.8605 64.9619 87.6363 65.0522C87.412 65.1425 87.1878 65.1877 87.0084 65.1425C86.9187 65.1425 86.829 65.1425 86.7393 65.0974C86.6495 65.0974 86.5598 65.0522 86.515 65.0522C86.4253 65.0522 86.3804 65.0071 86.3356 64.9619C86.2907 64.9168 86.2459 64.9168 86.201 64.8716C86.1113 64.8265 86.1113 64.7813 86.1113 64.7813C86.1113 64.7813 86.1562 64.7813 86.2459 64.7813C86.2907 64.7813 86.3356 64.7813 86.3804 64.7813C86.4253 64.7813 86.515 64.7813 86.5598 64.7813C86.6047 64.7813 86.6944 64.7813 86.7841 64.7813C86.8738 64.7813 86.9187 64.7813 87.0084 64.7362C87.1878 64.691 87.3672 64.6459 87.5466 64.6008C87.726 64.5105 87.9054 64.4653 88.0399 64.375C88.1297 64.3299 88.1745 64.2847 88.2642 64.2396C88.3091 64.1944 88.3988 64.1493 88.4436 64.1041C88.4885 64.059 88.5333 64.0138 88.5782 63.9687C88.623 63.9235 88.6679 63.8784 88.6679 63.8784C88.623 63.8332 88.6679 63.7881 88.6679 63.7881Z" fill="#D87B71"/>
<path d="M89.4842 81.4394L67.4171 82.3423C67.4171 82.3423 66.1164 71.8228 66.251 61.8903C66.3407 54.3506 67.2377 47.1721 70.1531 45.0952C70.467 44.8695 71.2744 44.3729 72.0817 43.9665C72.7545 43.6054 73.3824 43.3345 73.6964 43.3345C73.6964 43.3345 78.047 43.3796 81.5454 45.5919C82.4873 46.1788 83.3395 46.9463 84.0571 47.8493C85.6269 49.8809 87.4659 63.7865 88.5423 73.087C89.1254 77.8727 89.4842 81.4394 89.4842 81.4394Z" fill="#2B92D5"/>
<path opacity="0.5" d="M89.4803 81.4407L67.4132 82.3436C67.4132 82.3436 66.1125 71.8242 66.2471 61.8916C66.2471 61.8916 66.2471 61.8916 66.2471 61.9367C67.0993 66.2709 69.4315 71.1018 73.3785 73.3592C76.3836 75.0297 80.0166 75.0748 83.3804 74.4879C85.1297 74.1718 86.8789 73.7204 88.5384 73.1334C89.1215 77.874 89.4803 81.4407 89.4803 81.4407Z" fill="#13548A"/>
<path d="M90.957 60.3127L89.8805 60.719L84.1843 62.7958L81.5381 55.6625V45.5493C81.7623 45.6848 89.118 51.5088 90.957 60.3127Z" fill="#2B92D5"/>
<path d="M78.7628 55.0747L80.4672 58.5511L84.2796 59.138L81.5436 61.8469L82.1715 65.6845L78.7628 63.8786L75.3092 65.6845L75.982 61.8469L73.2012 59.138L77.0584 58.5511L78.7628 55.0747Z" fill="white"/>
<path d="M90.957 60.3127L89.8805 60.719C86.696 51.9603 81.6726 45.7299 81.5381 45.5493C81.7623 45.6848 89.118 51.5088 90.957 60.3127Z" fill="#37C9EE"/>
<path d="M81.5398 45.5484C81.0913 46.8577 80.1494 48.3024 78.1311 48.6185C75.0812 49.0699 72.8386 45.4581 72.0312 43.9231C72.704 43.5619 73.332 43.291 73.6459 43.291C73.6908 43.291 78.0414 43.291 81.5398 45.5484Z" fill="#E79E80"/>
<path d="M73.6888 43.2914C73.8233 43.4268 78.8019 47.1289 78.8019 47.1289C78.8019 47.1289 78.6673 44.8264 78.6225 43.6525C78.6225 43.2914 78.5776 43.0205 78.5776 42.9753C78.5776 42.4787 78.9813 40.4019 78.9813 40.4019L73.913 38.0542C73.913 38.0542 73.8233 39.0926 73.7336 40.2664C73.6888 41.666 73.5991 43.2011 73.6888 43.2914Z" fill="#E79E80"/>
<path d="M73.7793 40.2662C75.1697 41.3046 78.2645 43.5168 78.5784 43.6071C78.5784 43.6071 78.5784 43.6071 78.6233 43.6071C78.6233 43.246 78.5784 42.9751 78.5784 42.9299C78.5784 42.4333 78.9821 40.3565 78.9821 40.3565L73.9138 38.0088C73.9587 38.0539 73.869 39.0923 73.7793 40.2662Z" fill="#E27C6F"/>
<path d="M73.2362 38.235C73.2362 38.235 73.3707 38.5962 73.9089 39.0928C74.0435 39.1831 74.178 39.3185 74.3126 39.4088C74.8957 39.8152 80.4573 42.2532 81.3095 42.1177C82.1617 41.9823 82.969 39.0477 83.0138 38.7316C83.283 36.8354 84.0454 30.921 84.0454 30.921C81.9374 24.51 74.4023 27.8058 73.5501 28.4379C72.7428 29.1151 73.2362 38.235 73.2362 38.235Z" fill="#E79E80"/>
<path d="M73.9521 39.0931C74.0867 39.1834 74.2213 39.3189 74.3558 39.4092C74.9389 39.8155 80.5005 42.2535 81.3527 42.118C82.2049 41.9826 83.0122 39.048 83.0571 38.7319C82.5188 40.0412 81.9358 41.8471 81.3078 41.7568C80.4108 41.7117 74.6249 39.4543 73.9521 39.0931Z" fill="#EEBD90"/>
<path d="M83.643 32.9086C83.643 32.9086 82.6114 31.509 82.0283 32.0959C81.4452 32.6377 81.7143 32.6829 81.7143 32.6829L83.643 32.9086Z" fill="#4A0E2F"/>
<path d="M75.9277 31.9593C75.9277 31.9593 78.574 30.7855 78.9328 31.8239C79.1571 32.4108 78.7534 32.5914 78.7534 32.5914L75.9277 31.9593Z" fill="#4A0E2F"/>
<path d="M77.0966 35.1656C77.4682 35.1656 77.7694 34.6805 77.7694 34.0821C77.7694 33.4837 77.4682 32.9985 77.0966 32.9985C76.725 32.9985 76.4238 33.4837 76.4238 34.0821C76.4238 34.6805 76.725 35.1656 77.0966 35.1656Z" fill="#1D1E1E"/>
<path d="M75.793 33.4958C75.793 33.4958 76.0172 33.857 76.4209 34.0376C76.8246 34.2182 77.2282 34.0827 77.2282 34.0827C77.2282 34.0827 77.004 33.7215 76.6003 33.5409C76.2415 33.4055 75.793 33.4958 75.793 33.4958Z" fill="#FAEFE6"/>
<path d="M82.7455 34.4884C82.7455 34.9399 82.5213 35.3011 82.2522 35.3011C81.9831 35.3011 81.7588 34.9399 81.7588 34.4884C81.7588 34.037 81.9831 33.6758 82.2522 33.6758C82.5213 33.6758 82.7455 34.037 82.7455 34.4884Z" fill="#1D1E1E"/>
<path d="M83.1488 34.1271C83.1488 34.1271 82.9694 34.3528 82.7003 34.4883C82.4312 34.6237 82.1172 34.5785 82.1172 34.5785C82.1172 34.5785 82.2966 34.3528 82.5657 34.2174C82.8797 34.0368 83.1488 34.1271 83.1488 34.1271Z" fill="#FAEFE6"/>
<path d="M79.6535 36.7448C79.4741 36.6997 79.3396 36.6094 79.1602 36.6094C79.3396 37.0157 79.6535 37.3317 80.0572 37.5123C80.102 37.5123 80.102 37.5575 80.1469 37.5575C80.1917 37.5575 80.2366 37.5575 80.2815 37.5123C80.5057 37.3769 80.6851 37.1963 80.8645 37.0157C80.9094 36.9706 80.9094 36.9254 80.9542 36.8803C80.9991 36.6997 80.8645 36.7448 80.7748 36.79C80.6403 36.8351 80.5506 36.8803 80.416 36.8803C80.1469 36.8803 79.9226 36.8351 79.6535 36.7448Z" fill="#E27C6F"/>
<path d="M80.1032 37.4221C80.1929 37.3318 80.3275 37.2415 80.4172 37.1512C80.5517 37.0609 80.6863 36.9255 80.776 36.79C80.2378 36.4288 80.2378 35.8419 80.2826 35.1647C80.2826 34.8487 80.3723 34.5778 80.5069 34.3069C80.5966 34.1714 80.6863 34.036 80.776 33.9457C80.8209 33.9005 80.8657 33.8554 80.9554 33.7651C81.0003 33.72 81.09 33.6748 81.1348 33.6748C81.09 33.72 81.09 33.7651 81.0451 33.8102C80.9554 33.9005 80.8657 33.9908 80.8209 34.1263C80.7312 34.2166 80.6863 34.352 80.6415 34.4875C80.5517 34.7132 80.5069 34.9841 80.462 35.255C80.462 35.5259 80.5069 35.7968 80.5966 36.0225C80.6863 36.2934 80.9106 36.5643 81.1348 36.7449C81.1348 36.7449 80.776 37.1963 80.7312 37.1963C80.6415 37.2866 80.5517 37.3769 80.4172 37.4221C80.3275 37.5124 80.1929 37.5575 80.0584 37.5575C80.0135 37.5575 79.9687 37.5575 79.9238 37.5124C79.9687 37.5124 79.9687 37.4672 79.9687 37.4672C79.9687 37.4672 79.9687 37.4672 80.0135 37.4221C80.0584 37.4672 80.1032 37.4221 80.1032 37.4221Z" fill="#DB5B67"/>
<path d="M79.0244 39.3647C79.5178 39.6356 80.1457 39.6356 80.6839 39.4099C80.5045 39.6808 80.2354 39.8162 79.9214 39.8162C79.6075 39.7711 79.2487 39.5905 79.0244 39.3647Z" fill="#DB5B67"/>
<path d="M77.0957 37.9194C78.3964 38.8675 80.1456 39.0933 81.6257 38.5515C80.8184 38.7321 79.9662 38.6418 79.1589 38.5515C78.531 38.4161 77.6339 38.2355 77.0957 37.9194Z" fill="#DB5B67"/>
<path d="M82.252 36.9708C82.3417 37.1966 82.8351 37.2417 83.3733 37.016C83.9115 36.8354 84.2704 36.4742 84.1806 36.2033C84.0909 35.9776 83.5976 35.9324 83.0594 36.1582C82.5211 36.3839 82.1623 36.7451 82.252 36.9708Z" fill="#E27C6F"/>
<path d="M75.5247 35.8881C75.435 36.2493 76.0181 36.7007 76.8254 36.9265C77.6328 37.1522 78.3504 37.0168 78.4401 36.6556C78.5298 36.2944 77.9467 35.8429 77.1394 35.6172C76.3321 35.3915 75.6144 35.5269 75.5247 35.8881Z" fill="#E27C6F"/>
<path d="M74.0941 38.4613C72.928 38.371 72.1206 37.6938 71.6721 37.1068C71.5824 36.9714 71.4927 36.836 71.4478 36.7457C71.1339 36.1587 71.0442 34.0819 71.8515 33.5853C72.4346 33.2693 72.8831 33.7207 73.0625 34.0819C73.1522 34.2174 73.1971 34.3077 73.1971 34.3077L74.0941 38.4613Z" fill="#EEBD90"/>
<path d="M74.0943 38.4604C72.9282 38.3701 72.1208 37.6929 71.6723 37.106C71.6275 37.0608 71.5826 36.9705 71.5826 36.9254C71.2686 36.3385 71.1789 34.2617 71.9863 33.765C72.4796 33.4941 72.8385 33.765 73.0627 34.0359C73.1524 34.1714 73.1973 34.2617 73.1973 34.2617L74.0943 38.4604Z" fill="#E79E80"/>
<path d="M71.5821 35.2555C71.5372 35.4361 71.5821 35.5715 71.6269 35.7521C71.8512 36.4294 72.5239 36.9711 73.1967 37.4678C73.0173 37.1517 72.9276 36.7454 72.9725 36.3842C72.9725 36.2488 73.0173 36.1133 73.0173 35.9779C73.0173 35.4813 71.8063 34.2623 71.5821 35.2555Z" fill="#E27C6F"/>
<path d="M73.508 37.6486C73.4632 37.6034 73.4183 37.6034 73.3734 37.5583C73.2837 37.5131 73.1492 37.4229 73.0595 37.2423C72.9249 37.1068 72.8352 36.9262 72.7904 36.7005C72.7455 36.4747 72.7455 36.2039 72.8801 35.9781C72.8801 35.933 72.9249 35.933 72.9249 35.8878V35.8427C72.9249 35.7975 72.8801 35.7975 72.8801 35.7524C72.8352 35.6621 72.7455 35.5718 72.7007 35.4815C72.611 35.3912 72.5661 35.3009 72.4764 35.2558C72.3867 35.1655 72.3419 35.1203 72.2522 35.0752C72.1625 35.03 72.1176 34.9849 72.0279 34.9849C71.9382 34.9849 71.8933 34.9849 71.8485 35.03C71.8036 35.0752 71.7588 35.0752 71.7588 35.1203V35.1655C71.7588 35.1655 71.7588 35.1655 71.7588 35.1203C71.7588 35.0752 71.8036 35.0752 71.8485 35.03C71.8933 34.9849 71.983 34.9849 72.0728 34.9849C72.1625 34.9849 72.2522 35.03 72.3419 35.0752C72.4316 35.1203 72.5213 35.2106 72.611 35.2558C72.7007 35.346 72.7904 35.3912 72.8801 35.4815C72.9698 35.5718 73.0595 35.6621 73.1043 35.7524C73.1043 35.7975 73.1492 35.7975 73.1492 35.8427L73.194 35.8878L73.2389 35.933L73.2837 35.9781C73.2837 35.9781 73.2837 36.0233 73.2389 36.0233L73.194 36.0684C73.194 36.1136 73.1492 36.1136 73.1492 36.1587C73.0595 36.3845 73.0146 36.6102 73.0595 36.7908C73.1043 36.9714 73.1492 37.152 73.2389 37.3326C73.3286 37.468 73.4183 37.6034 73.508 37.6486C73.4632 37.6034 73.4183 37.6034 73.508 37.6486Z" fill="#B34B57"/>
<path d="M65.7054 64.4665C65.7503 65.0082 65.1224 67.7623 64.315 71.0129C63.8665 72.7737 63.3731 74.6699 62.9246 76.4307C62.4312 78.2366 62.0276 79.8619 61.6688 81.1712L61.3548 84.6024C61.3548 84.6024 62.8798 85.2797 62.8349 85.5506C62.7901 85.8214 63.5974 87.9885 63.8665 88.2594C64.1356 88.5303 63.2386 89.1624 63.2386 89.1624C63.2386 89.1624 62.2967 88.7561 62.0276 88.7561C61.8033 88.8012 61.3548 89.7945 60.9511 90.2911C60.8166 90.4265 60.682 90.5168 60.5475 90.562C60.0093 90.6071 59.3365 90.6523 59.2019 90.2911C59.0674 89.9299 58.8431 89.2978 58.5291 89.1624C58.2152 89.0269 57.1836 88.2594 57.1836 87.8079C57.1836 87.3565 57.4976 85.8666 57.5424 85.5054C57.5873 85.0991 57.677 83.8349 57.677 83.8349L58.1255 81.4872L59.4262 67.085C59.5607 65.7306 61.0408 61.893 61.0408 61.893L61.2203 60.7192L61.5791 56.6559C61.7136 54.8951 62.2967 53.1795 63.1937 51.6896C63.9562 50.3803 65.3018 49.9288 66.737 49.7482C67.1407 49.7031 67.5444 49.6579 67.948 49.6579C68.1723 49.6579 68.3517 49.6128 68.5759 49.6128C68.3965 49.7482 65.5709 63.0217 65.7054 64.4665Z" fill="#E79E80"/>
<path d="M66.5575 49.8843C65.3017 50.9678 63.9561 52.0514 63.104 53.451C61.3996 56.3404 61.9378 59.9974 61.0408 63.2481C60.7717 64.1059 60.4128 64.9637 60.2334 65.8667C60.0092 66.7245 59.9195 67.6274 59.8298 68.5304C59.6504 70.562 59.3813 72.5486 59.157 74.5351C59.1121 75.0768 59.0224 75.6186 58.9776 76.2055C58.7085 78.3275 58.4842 80.4043 58.26 82.5262C58.0806 84.1064 57.9012 85.7318 58.3497 87.2668C58.7085 88.6212 59.6504 89.8854 60.9062 90.382C60.7717 90.5174 60.6371 90.6077 60.5026 90.6529C59.9643 90.698 59.2916 90.7432 59.157 90.382C59.0224 90.0208 58.7982 89.3887 58.4842 89.2533C58.1703 89.1178 57.1387 88.3503 57.1387 87.8989C57.1387 87.4474 57.4526 85.9575 57.4975 85.5963C57.5423 85.19 57.632 83.9258 57.632 83.9258L58.0806 81.5781L59.3813 67.1759C59.5158 65.8215 60.9959 61.9839 60.9959 61.9839L61.1753 60.8101L61.5341 56.7468C61.6687 54.986 62.2518 53.2704 63.1488 51.7805C63.7767 50.5163 65.1671 50.0649 66.5575 49.8843Z" fill="#EEBD90"/>
<path d="M61.8496 62.7051C61.8496 62.7051 61.8496 62.7502 61.8945 62.8405C61.8945 62.8857 61.9393 62.9308 61.9842 63.0211C62.029 63.0663 62.029 63.1566 62.1187 63.2469C62.1636 63.3371 62.2084 63.3823 62.2981 63.4726C62.343 63.5629 62.4327 63.608 62.5224 63.6983C62.7018 63.8338 62.926 63.9692 63.1503 64.0595C63.3746 64.1498 63.6437 64.1498 63.8679 64.1498C63.9576 64.1498 64.0922 64.1498 64.1819 64.1047C64.2716 64.1047 64.3613 64.0595 64.451 64.0144C64.5407 63.9692 64.5856 63.9241 64.6304 63.9241C64.6753 63.8789 64.7201 63.8789 64.765 63.8338C64.8547 63.7886 64.8995 63.7435 64.8995 63.7435C64.8995 63.7435 64.8547 63.7435 64.765 63.7435C64.7201 63.7435 64.6753 63.7435 64.6304 63.7435C64.5856 63.7435 64.4959 63.7435 64.4062 63.7435C64.3165 63.7435 64.2716 63.7435 64.1819 63.7435C64.0922 63.7435 64.0025 63.7435 63.9128 63.6983C63.7334 63.6532 63.5091 63.608 63.3297 63.5629C63.1055 63.4726 62.9261 63.4274 62.7466 63.3371C62.6569 63.292 62.5672 63.2468 62.5224 63.2017C62.4327 63.1566 62.3878 63.1114 62.2981 63.0663C62.2533 63.0211 62.1636 62.976 62.1187 62.9308C62.0739 62.8857 62.029 62.8405 61.9842 62.8405C61.8945 62.7051 61.8496 62.7051 61.8496 62.7051Z" fill="#D87B71"/>
<path d="M72.7032 49.1161L69.1151 62.7959L59.9205 61.9381L59.0234 61.8478C60.9969 52.7279 64.6299 48.2131 67.5901 46.0009C70.1018 44.1047 72.0753 43.8789 72.0753 43.8789L72.7032 49.1161Z" fill="#2B92D5"/>
<path d="M67.5442 46.001C63.6421 50.3803 60.4576 60.0871 59.8746 61.9382L58.9775 61.8479C60.951 52.728 64.6289 48.2132 67.5442 46.001Z" fill="#37C9EE"/>
<path d="M82.7502 29.7029C81.1804 31.1476 76.5607 30.5155 76.5607 30.5155C77.9062 30.3801 79.6106 29.432 80.3282 28.9805C78.1753 30.1544 74.2284 29.6577 74.2284 29.6577C74.4078 30.1544 73.2865 34.8949 73.2865 34.8949C72.7483 33.8113 71.7167 33.721 71.7167 33.721C71.7167 33.721 71.3579 32.4118 71.0888 31.4185C70.999 31.0122 70.9093 30.6961 70.9093 30.5155C70.8196 29.8835 71.313 29.3868 71.313 29.3868C70.7748 22.4792 81.4495 23.9239 82.6605 24.872C82.9296 25.0978 83.2436 25.3687 83.4678 25.7299C84.1855 26.678 84.3649 28.213 82.7502 29.7029Z" fill="#38102B"/>
<path d="M83.423 25.6389C83.3781 25.7292 83.3333 25.8195 83.2884 25.9098C82.7951 26.7676 81.9429 27.3545 81.001 27.5351C81.0907 27.1288 81.0907 26.6773 80.9561 26.3161C79.8797 27.3996 78.4893 28.1672 76.9643 28.438C77.3231 28.122 77.5474 27.6705 77.6371 27.219C76.3364 28.2575 74.5872 28.6638 73.0174 28.3026C72.8828 29.341 72.1203 30.6503 71.0888 31.3727C70.999 30.9663 70.9093 30.6503 70.9093 30.4697C70.8196 29.8376 71.313 29.341 71.313 29.341C71.2233 28.3477 71.4027 27.5802 71.6718 26.903C73.1968 23.6072 78.7584 23.7427 81.3598 24.3296C81.9877 24.465 82.4362 24.6456 82.6157 24.7811C82.9296 25.0068 83.1987 25.3228 83.423 25.6389Z" fill="#4A0E2F"/>
<path d="M81.4037 24.3301C81.314 24.4204 81.2243 24.4655 81.1346 24.5558C80.3721 25.1427 79.52 25.6394 78.6229 25.9103C78.7575 25.6394 78.8472 25.3685 78.9817 25.0976C77.7259 25.8651 76.2458 26.3166 74.7657 26.452C75.2142 26.0908 75.6179 25.6394 75.887 25.0976C74.7208 25.7297 73.1062 26.5423 71.6709 26.8132C73.2407 23.6077 78.7575 23.7431 81.4037 24.3301Z" fill="#5F1234"/>
<path d="M83.6481 27.2202C83.6481 27.2202 85.9355 29.9291 85.7112 30.4709C85.5318 31.0126 83.6481 34.3987 83.6481 34.3987C83.6481 34.3987 84.0517 30.3806 83.065 29.0713C82.0782 27.8071 83.6481 27.2202 83.6481 27.2202Z" fill="#38102B"/>
<path d="M77.638 35.6637C77.4137 35.6185 77.2343 35.6185 77.0998 35.5734C76.9652 35.5282 76.8755 35.4831 76.7858 35.438C76.3373 35.2122 76.0682 34.8962 75.9336 34.535C75.6197 33.7675 75.7991 32.9097 75.7991 32.9097H76.6513H77.9071H78.2659H78.849H80.0151C79.8806 32.9097 80.0151 35.8894 77.638 35.6637Z" fill="#1D1E1E"/>
<path d="M77.8183 32.8633L76.7418 35.3916C76.2933 35.1658 76.0242 34.8498 75.8896 34.4886L76.5624 32.8633H77.8183Z" fill="#FAEFE6"/>
<path d="M78.7581 32.9097L77.6368 35.7088C77.6368 35.7088 77.6368 35.7088 77.5919 35.7088C77.4125 35.7088 77.2331 35.6637 77.0537 35.6185L78.1302 32.9548L78.7581 32.9097Z" fill="#FAEFE6"/>
<path d="M82.7488 35.5725C82.704 35.5725 82.704 35.5725 82.7488 35.5725C82.5246 35.5725 82.39 35.5273 82.2555 35.4822C80.596 34.9855 81.0445 32.999 81.0445 32.999H83.2871H83.8253H84.9017C84.812 32.999 84.9017 35.753 82.7488 35.5725Z" fill="#1D1E1E"/>
<path d="M83.7349 32.999L82.7033 35.5273C82.7033 35.5273 82.7033 35.5273 82.6584 35.5273C82.479 35.5273 82.2996 35.4822 82.165 35.437L83.1518 32.999H83.7349Z" fill="#FAEFE6"/>
<path d="M81.3165 33.4946H79.5225V34.0816H81.3165V33.4946Z" fill="#1D1E1E"/>
<path d="M75.7544 33.4512L71.7178 33.6769L72.7045 34.1284H75.7544V33.4512Z" fill="#1D1E1E"/>
</g>
<defs>
<clipPath id="clip0_1051_9520">
<rect width="185" height="189.114" fill="white" transform="translate(-23 -21)"/>
</clipPath>
</defs>
</svg>
