<svg width="140" height="143" viewBox="0 0 140 143" fill="none" xmlns="http://www.w3.org/2000/svg">
<rect width="140" height="143" rx="10" fill="#FFA41B" fill-opacity="0.2"/>
<path d="M32.12 29V19.06H36.292C36.74 19.06 37.1507 19.1533 37.524 19.34C37.8973 19.5267 38.224 19.774 38.504 20.082C38.784 20.39 38.9987 20.7353 39.148 21.118C39.2973 21.5007 39.372 21.8927 39.372 22.294C39.372 22.8447 39.246 23.372 38.994 23.876C38.7513 24.3707 38.4013 24.772 37.944 25.08C37.496 25.388 36.9733 25.542 36.376 25.542H33.688V29H32.12ZM33.688 24.156H36.278C36.5767 24.156 36.838 24.0767 37.062 23.918C37.286 23.75 37.4587 23.526 37.58 23.246C37.7107 22.966 37.776 22.6487 37.776 22.294C37.776 21.93 37.7013 21.608 37.552 21.328C37.4027 21.048 37.2067 20.8333 36.964 20.684C36.7307 20.5253 36.474 20.446 36.194 20.446H33.688V24.156ZM43.8279 29.14C43.2586 29.14 42.7406 29.042 42.2739 28.846C41.8166 28.6407 41.4199 28.3653 41.0839 28.02C40.7479 27.6653 40.4866 27.264 40.2999 26.816C40.1226 26.3587 40.0339 25.8733 40.0339 25.36C40.0339 24.6693 40.1926 24.0393 40.5099 23.47C40.8273 22.8913 41.2706 22.4293 41.8399 22.084C42.4093 21.7293 43.0766 21.552 43.8419 21.552C44.6073 21.552 45.2653 21.7293 45.8159 22.084C46.3759 22.4293 46.8099 22.8867 47.1179 23.456C47.4259 24.0253 47.5799 24.6367 47.5799 25.29C47.5799 25.402 47.5753 25.5093 47.5659 25.612C47.5566 25.7053 47.5473 25.7847 47.5379 25.85H41.6719C41.6999 26.2793 41.8166 26.6573 42.0219 26.984C42.2366 27.3013 42.5073 27.5533 42.8339 27.74C43.1606 27.9173 43.5106 28.006 43.8839 28.006C44.2946 28.006 44.6819 27.9033 45.0459 27.698C45.4193 27.4927 45.6713 27.222 45.8019 26.886L47.1179 27.264C46.9593 27.6187 46.7166 27.9407 46.3899 28.23C46.0726 28.51 45.6946 28.734 45.2559 28.902C44.8173 29.0607 44.3413 29.14 43.8279 29.14ZM41.6299 24.828H46.0539C46.0259 24.408 45.9046 24.0393 45.6899 23.722C45.4846 23.3953 45.2186 23.1433 44.8919 22.966C44.5746 22.7793 44.2199 22.686 43.8279 22.686C43.4453 22.686 43.0906 22.7793 42.7639 22.966C42.4466 23.1433 42.1853 23.3953 41.9799 23.722C41.7746 24.0393 41.6579 24.408 41.6299 24.828ZM51.4401 29.14C50.8241 29.14 50.2408 29.042 49.6901 28.846C49.1394 28.6407 48.6681 28.3373 48.2761 27.936L48.8501 26.9C49.2701 27.2733 49.6901 27.544 50.1101 27.712C50.5394 27.88 50.9641 27.964 51.3841 27.964C51.8134 27.964 52.1634 27.8847 52.4341 27.726C52.7048 27.558 52.8401 27.3153 52.8401 26.998C52.8401 26.7647 52.7701 26.592 52.6301 26.48C52.4901 26.368 52.2848 26.27 52.0141 26.186C51.7528 26.102 51.4354 26.0087 51.0621 25.906C50.5394 25.7473 50.1008 25.584 49.7461 25.416C49.3914 25.2387 49.1254 25.024 48.9481 24.772C48.7708 24.52 48.6821 24.198 48.6821 23.806C48.6821 23.33 48.8034 22.924 49.0461 22.588C49.2888 22.252 49.6248 21.9953 50.0541 21.818C50.4928 21.6407 50.9968 21.552 51.5661 21.552C52.0981 21.552 52.5881 21.636 53.0361 21.804C53.4934 21.9627 53.8948 22.2147 54.2401 22.56L53.5821 23.582C53.2554 23.2833 52.9194 23.064 52.5741 22.924C52.2381 22.784 51.8741 22.714 51.4821 22.714C51.2581 22.714 51.0434 22.742 50.8381 22.798C50.6328 22.8447 50.4601 22.938 50.3201 23.078C50.1894 23.2087 50.1241 23.3953 50.1241 23.638C50.1241 23.834 50.1801 23.9927 50.2921 24.114C50.4041 24.2353 50.5721 24.338 50.7961 24.422C51.0201 24.506 51.2954 24.5993 51.6221 24.702C52.1914 24.87 52.6768 25.038 53.0781 25.206C53.4794 25.3647 53.7874 25.5747 54.0021 25.836C54.2261 26.088 54.3381 26.438 54.3381 26.886C54.3381 27.5953 54.0721 28.1507 53.5401 28.552C53.0174 28.944 52.3174 29.14 51.4401 29.14ZM59.0311 29.14C58.4617 29.14 57.9437 29.042 57.4771 28.846C57.0197 28.6407 56.6231 28.3607 56.2871 28.006C55.9511 27.6513 55.6897 27.2453 55.5031 26.788C55.3257 26.3307 55.2371 25.8453 55.2371 25.332C55.2371 24.6413 55.3911 24.0113 55.6991 23.442C56.0164 22.8727 56.4551 22.4153 57.0151 22.07C57.5844 21.7247 58.2564 21.552 59.0311 21.552C59.7777 21.552 60.4264 21.72 60.9771 22.056C61.5371 22.3827 61.9477 22.8213 62.2091 23.372L60.7111 23.848C60.5431 23.54 60.3051 23.302 59.9971 23.134C59.6984 22.9567 59.3671 22.868 59.0031 22.868C58.5924 22.868 58.2191 22.9753 57.8831 23.19C57.5564 23.3953 57.2951 23.6847 57.0991 24.058C56.9124 24.422 56.8191 24.8467 56.8191 25.332C56.8191 25.7987 56.9171 26.2233 57.1131 26.606C57.3091 26.9793 57.5704 27.278 57.8971 27.502C58.2331 27.7167 58.6064 27.824 59.0171 27.824C59.2691 27.824 59.5117 27.782 59.7451 27.698C59.9877 27.6047 60.1977 27.4833 60.3751 27.334C60.5524 27.1753 60.6784 27.0027 60.7531 26.816L62.2651 27.264C62.1064 27.628 61.8684 27.95 61.5511 28.23C61.2431 28.51 60.8744 28.734 60.4451 28.902C60.0251 29.0607 59.5537 29.14 59.0311 29.14ZM66.783 29.14C66.2137 29.14 65.6957 29.042 65.229 28.846C64.7717 28.6407 64.375 28.3653 64.039 28.02C63.703 27.6653 63.4417 27.264 63.255 26.816C63.0777 26.3587 62.989 25.8733 62.989 25.36C62.989 24.6693 63.1477 24.0393 63.465 23.47C63.7823 22.8913 64.2257 22.4293 64.795 22.084C65.3643 21.7293 66.0317 21.552 66.797 21.552C67.5623 21.552 68.2203 21.7293 68.771 22.084C69.331 22.4293 69.765 22.8867 70.073 23.456C70.381 24.0253 70.535 24.6367 70.535 25.29C70.535 25.402 70.5303 25.5093 70.521 25.612C70.5117 25.7053 70.5023 25.7847 70.493 25.85H64.627C64.655 26.2793 64.7717 26.6573 64.977 26.984C65.1917 27.3013 65.4623 27.5533 65.789 27.74C66.1157 27.9173 66.4657 28.006 66.839 28.006C67.2497 28.006 67.637 27.9033 68.001 27.698C68.3743 27.4927 68.6263 27.222 68.757 26.886L70.073 27.264C69.9143 27.6187 69.6717 27.9407 69.345 28.23C69.0277 28.51 68.6497 28.734 68.211 28.902C67.7723 29.0607 67.2963 29.14 66.783 29.14ZM64.585 24.828H69.009C68.981 24.408 68.8597 24.0393 68.645 23.722C68.4397 23.3953 68.1737 23.1433 67.847 22.966C67.5297 22.7793 67.175 22.686 66.783 22.686C66.4003 22.686 66.0457 22.7793 65.719 22.966C65.4017 23.1433 65.1403 23.3953 64.935 23.722C64.7297 24.0393 64.613 24.408 64.585 24.828ZM75.7968 28.622C75.6662 28.6873 75.5028 28.7573 75.3068 28.832C75.1108 28.9067 74.8868 28.972 74.6348 29.028C74.3922 29.084 74.1402 29.112 73.8788 29.112C73.5615 29.112 73.2675 29.056 72.9968 28.944C72.7262 28.832 72.5068 28.6547 72.3388 28.412C72.1802 28.16 72.1008 27.838 72.1008 27.446V22.868H71.1348V21.678H72.1008V19.27H73.6408V21.678H75.2368V22.868H73.6408V26.956C73.6595 27.208 73.7388 27.3947 73.8788 27.516C74.0282 27.6373 74.2102 27.698 74.4248 27.698C74.6395 27.698 74.8448 27.6607 75.0408 27.586C75.2368 27.5113 75.3815 27.4507 75.4748 27.404L75.7968 28.622ZM76.3315 26.858C76.3315 26.3913 76.4621 25.9853 76.7235 25.64C76.9941 25.2853 77.3628 25.0147 77.8295 24.828C78.2961 24.632 78.8375 24.534 79.4535 24.534C79.7801 24.534 80.1115 24.5573 80.4475 24.604C80.7928 24.6507 81.0961 24.7253 81.3575 24.828V24.366C81.3575 23.8527 81.2035 23.4513 80.8955 23.162C80.5875 22.8727 80.1441 22.728 79.5655 22.728C79.1548 22.728 78.7675 22.8027 78.4035 22.952C78.0395 23.092 77.6521 23.2927 77.2415 23.554L76.7235 22.518C77.2088 22.1913 77.6941 21.9487 78.1795 21.79C78.6741 21.6313 79.1921 21.552 79.7335 21.552C80.7135 21.552 81.4835 21.8133 82.0435 22.336C82.6128 22.8493 82.8975 23.582 82.8975 24.534V27.264C82.8975 27.4413 82.9255 27.5673 82.9815 27.642C83.0468 27.7167 83.1541 27.7587 83.3035 27.768V29C83.1635 29.028 83.0375 29.0467 82.9255 29.056C82.8135 29.0653 82.7201 29.07 82.6455 29.07C82.3188 29.07 82.0715 28.9907 81.9035 28.832C81.7355 28.6733 81.6375 28.4867 81.6095 28.272L81.5675 27.852C81.2501 28.2627 80.8441 28.58 80.3495 28.804C79.8548 29.028 79.3555 29.14 78.8515 29.14C78.3661 29.14 77.9321 29.042 77.5495 28.846C77.1668 28.6407 76.8681 28.3653 76.6535 28.02C76.4388 27.6747 76.3315 27.2873 76.3315 26.858ZM80.9935 27.306C81.1055 27.1847 81.1941 27.0633 81.2595 26.942C81.3248 26.8207 81.3575 26.7133 81.3575 26.62V25.78C81.0961 25.6773 80.8208 25.6027 80.5315 25.556C80.2421 25.5 79.9575 25.472 79.6775 25.472C79.1175 25.472 78.6601 25.584 78.3055 25.808C77.9601 26.032 77.7875 26.34 77.7875 26.732C77.7875 26.9467 77.8435 27.152 77.9555 27.348C78.0768 27.544 78.2448 27.7027 78.4595 27.824C78.6835 27.9453 78.9588 28.006 79.2855 28.006C79.6215 28.006 79.9435 27.9407 80.2515 27.81C80.5595 27.6793 80.8068 27.5113 80.9935 27.306ZM88.8818 23.008C88.2845 23.0173 87.7525 23.1527 87.2858 23.414C86.8285 23.6753 86.5018 24.044 86.3058 24.52V29H84.7658V21.678H86.1938V23.316C86.4458 22.812 86.7771 22.4107 87.1878 22.112C87.5985 21.804 88.0325 21.636 88.4898 21.608C88.5831 21.608 88.6578 21.608 88.7138 21.608C88.7791 21.608 88.8351 21.6127 88.8818 21.622V23.008ZM90.0021 29V21.678H91.5421V29H90.0021ZM90.0021 20.474V18.78H91.5421V20.474H90.0021ZM92.8608 26.858C92.8608 26.3913 92.9914 25.9853 93.2528 25.64C93.5234 25.2853 93.8921 25.0147 94.3588 24.828C94.8254 24.632 95.3668 24.534 95.9828 24.534C96.3094 24.534 96.6408 24.5573 96.9768 24.604C97.3221 24.6507 97.6254 24.7253 97.8868 24.828V24.366C97.8868 23.8527 97.7328 23.4513 97.4248 23.162C97.1168 22.8727 96.6734 22.728 96.0948 22.728C95.6841 22.728 95.2968 22.8027 94.9328 22.952C94.5688 23.092 94.1814 23.2927 93.7708 23.554L93.2528 22.518C93.7381 22.1913 94.2234 21.9487 94.7088 21.79C95.2034 21.6313 95.7214 21.552 96.2628 21.552C97.2428 21.552 98.0128 21.8133 98.5728 22.336C99.1421 22.8493 99.4268 23.582 99.4268 24.534V27.264C99.4268 27.4413 99.4548 27.5673 99.5108 27.642C99.5761 27.7167 99.6834 27.7587 99.8328 27.768V29C99.6928 29.028 99.5668 29.0467 99.4548 29.056C99.3428 29.0653 99.2494 29.07 99.1748 29.07C98.8481 29.07 98.6008 28.9907 98.4328 28.832C98.2648 28.6733 98.1668 28.4867 98.1388 28.272L98.0968 27.852C97.7794 28.2627 97.3734 28.58 96.8788 28.804C96.3841 29.028 95.8848 29.14 95.3808 29.14C94.8954 29.14 94.4614 29.042 94.0788 28.846C93.6961 28.6407 93.3974 28.3653 93.1828 28.02C92.9681 27.6747 92.8608 27.2873 92.8608 26.858ZM97.5228 27.306C97.6348 27.1847 97.7234 27.0633 97.7888 26.942C97.8541 26.8207 97.8868 26.7133 97.8868 26.62V25.78C97.6254 25.6773 97.3501 25.6027 97.0608 25.556C96.7714 25.5 96.4868 25.472 96.2068 25.472C95.6468 25.472 95.1894 25.584 94.8348 25.808C94.4894 26.032 94.3167 26.34 94.3167 26.732C94.3167 26.9467 94.3728 27.152 94.4848 27.348C94.6061 27.544 94.7741 27.7027 94.9888 27.824C95.2128 27.9453 95.4881 28.006 95.8148 28.006C96.1508 28.006 96.4728 27.9407 96.7808 27.81C97.0888 27.6793 97.3361 27.5113 97.5228 27.306ZM107.861 29H106.321V24.898C106.321 24.2167 106.209 23.7173 105.985 23.4C105.77 23.0827 105.448 22.924 105.019 22.924C104.72 22.924 104.422 22.9987 104.123 23.148C103.834 23.2973 103.572 23.5027 103.339 23.764C103.106 24.016 102.938 24.31 102.835 24.646V29H101.295V21.678H102.695V23.148C102.882 22.8213 103.124 22.5413 103.423 22.308C103.731 22.0653 104.076 21.8787 104.459 21.748C104.842 21.6173 105.248 21.552 105.677 21.552C106.116 21.552 106.475 21.6313 106.755 21.79C107.044 21.9487 107.268 22.168 107.427 22.448C107.595 22.7187 107.707 23.036 107.763 23.4C107.828 23.7547 107.861 24.1327 107.861 24.534V29Z" fill="#282A3A"/>
<path opacity="0.3" d="M71.1251 120.189C99.2225 120.189 122 116.303 122 111.51C122 106.716 99.2225 102.831 71.1251 102.831C43.0277 102.831 20.2502 106.716 20.2502 111.51C20.2502 116.303 43.0277 120.189 71.1251 120.189Z" fill="#94CAEC"/>
<path opacity="0.3" d="M77.0681 128C95.2747 128 110.034 124.114 110.034 119.321C110.034 114.527 95.2747 110.642 77.0681 110.642C58.8614 110.642 44.1021 114.527 44.1021 119.321C44.1021 124.114 58.8614 128 77.0681 128Z" fill="#EBE2C5"/>
<path d="M32.456 102.015C30.4306 98.2799 32.3228 95.8077 29.8976 93.8351C27.4725 91.8626 29.0715 90.1004 27.4192 89.0221C25.7669 87.9438 25.4471 85.3926 26.7263 84.1828C27.7923 82.8152 30.404 82.8415 31.6832 84.3406C32.9624 85.8397 34.5614 84.0776 36.8 86.2605C39.0386 88.4172 41.3305 86.2868 45.328 87.8912C49.3255 89.4955 48.1529 92.5201 50.8179 93.8351C53.4829 95.1502 49.592 98.2799 52.1504 100.673C54.7354 103.067 51.3242 106.012 51.3242 106.012C51.3242 106.012 48.7125 109.668 46.0209 107.38C43.3559 105.118 40.6109 109.274 38.9853 106.801C37.4129 104.303 34.4814 105.776 32.456 102.015Z" fill="#667C33"/>
<path d="M43.0891 105.986C41.9165 103.829 43.0092 102.435 41.6234 101.304C40.2376 100.173 41.1437 99.174 40.211 98.5427C39.2782 97.9115 39.0917 96.465 39.8112 95.7812C40.4242 94.9922 41.9165 95.0185 42.6361 95.8601C43.3556 96.728 44.2884 95.7023 45.5676 96.9647C46.8468 98.2008 48.1526 96.991 50.4445 97.9115C50.7377 98.043 51.0042 98.1745 51.2174 98.306C51.1641 99.1214 51.3506 99.9104 52.1235 100.647C54.7085 103.04 51.2973 105.986 51.2973 105.986C51.2973 105.986 48.6856 109.642 45.994 107.353C45.1678 106.643 44.3417 106.564 43.5422 106.696C43.4089 106.512 43.249 106.275 43.0891 105.986Z" fill="#5E702D"/>
<path opacity="0.2" d="M46.0477 107.353C43.3827 105.091 40.6377 109.247 39.0121 106.775C37.3864 104.302 34.4816 105.775 32.4295 102.014C30.4041 98.2795 32.2963 95.8072 29.8711 93.8346C27.446 91.8621 29.045 90.1 27.3927 89.0216C25.7404 87.9433 25.4206 85.3921 26.6998 84.1823C27.0462 83.7352 27.5526 83.4459 28.1389 83.2881C28.2455 84.5505 27.3927 86.1286 28.432 86.7861C29.8711 87.8907 30.031 89.5739 30.5907 91.2835C30.7506 92.3355 32.4562 92.8352 32.8293 93.6768C34.5882 97.7271 35.9207 101.988 41.1974 103.014C44.7951 103.776 48.3929 104.329 52.0173 103.829C52.3104 103.803 52.5769 103.776 52.8434 103.75C52.3637 105.012 51.2711 105.959 51.2711 105.959C51.2711 105.959 48.7127 109.615 46.0477 107.353Z" fill="#667C33"/>
<path opacity="0.2" d="M46.0473 107.354C43.3823 105.092 40.6374 109.248 39.0117 106.775C37.3861 104.303 34.4812 105.776 32.4292 102.015C30.4038 98.2804 32.2959 95.8081 29.8708 93.8356C27.4457 91.863 29.0446 90.1009 27.3924 89.0226C26.0066 88.102 25.5535 86.1295 26.2464 84.8145C26.353 85.4194 26.5396 85.998 26.7261 86.524C27.1259 87.3919 27.9254 88.2598 28.3517 88.8911C29.7375 91.6789 31.7896 93.6515 32.749 96.413C33.3086 98.333 34.0815 100.253 35.5206 101.778C39.3582 106.749 46.1806 105.75 51.937 105.329C51.5905 105.75 51.2974 105.986 51.2974 105.986C51.2974 105.986 48.7123 109.616 46.0473 107.354Z" fill="#667C33"/>
<path d="M52.6568 104.776L50.285 107.406C49.139 105.775 47.3801 103.566 45.2481 101.883C41.4105 98.9106 42.21 99.1999 42.21 99.1999L43.5425 97.7271C43.5425 97.7271 43.1694 96.9644 46.5806 100.41C48.4728 102.356 50.8979 103.829 52.6568 104.776Z" fill="#D8F4AA"/>
<path d="M43.7555 97.7802L39.5182 94.0192C39.0385 93.5984 38.7453 92.9935 38.7187 92.3623L38.6654 91.1787C38.6654 91.0735 38.5588 90.9946 38.4522 90.9946C38.3456 90.9946 38.2656 91.0998 38.2656 91.205L38.3189 92.5201C38.3456 93.1513 38.6121 93.7562 39.0918 94.2033L43.4091 98.1747L43.7555 97.7802Z" fill="#D8F4AA"/>
<path d="M44.2885 95.3864C44.2352 94.9656 44.2885 94.5185 44.5017 94.1503C44.4218 93.9662 44.3151 93.7821 44.1819 93.6243L43.6223 92.9931C43.569 92.9405 43.569 92.8616 43.6223 92.809C43.6756 92.7564 43.7555 92.7564 43.8088 92.809L44.4484 93.4928C44.5283 93.598 44.6083 93.7032 44.6882 93.8084L45.3811 92.8879C45.4344 92.809 45.541 92.809 45.621 92.8616C45.7009 92.9142 45.7276 93.0194 45.6476 93.0983L45.0347 93.9399C44.7149 94.387 44.5817 94.9393 44.6616 95.4916L45.4877 100.331L45.0347 100.41L44.2885 95.3864Z" fill="#D8F4AA"/>
<path d="M47.327 96.5176C47.3803 96.0705 47.5669 95.676 47.8334 95.3341C47.8067 95.1237 47.7534 94.9396 47.6468 94.7555L47.2471 93.9928C47.2204 93.9139 47.2471 93.835 47.3004 93.8087C47.3803 93.7824 47.4603 93.8087 47.4869 93.8613L47.94 94.7029C47.9933 94.8081 48.0466 94.9396 48.0732 95.0711L48.9793 94.3347C49.0593 94.2821 49.1659 94.2821 49.2192 94.361C49.2725 94.4399 49.2725 94.5451 49.1925 94.5977L48.393 95.2815C47.9666 95.6497 47.6735 96.1494 47.6468 96.728L47.2204 101.699L46.7407 101.646L47.327 96.5176Z" fill="#D8F4AA"/>
<path d="M39.9177 100.2C39.4913 100.174 39.0649 100.305 38.6918 100.542C38.5052 100.489 38.3187 100.41 38.1321 100.279L37.4392 99.8055C37.3859 99.7529 37.2793 99.7792 37.2527 99.8318C37.1994 99.8844 37.226 99.9633 37.2793 100.016L38.0255 100.568C38.1321 100.647 38.2387 100.7 38.372 100.752L37.5192 101.541C37.4392 101.594 37.4392 101.699 37.5192 101.778C37.5725 101.857 37.6791 101.857 37.759 101.804L38.5319 101.121C38.9583 100.752 39.4913 100.568 40.0509 100.595L45.0078 100.884L45.0345 100.437L39.9177 100.2Z" fill="#D8F4AA"/>
<path d="M41.357 103.041C40.9306 103.12 40.5308 103.356 40.2377 103.672C40.0245 103.672 39.8113 103.646 39.6247 103.567L38.8252 103.278C38.7453 103.251 38.6653 103.278 38.6387 103.356C38.612 103.435 38.6387 103.514 38.7186 103.541L39.5981 103.909C39.7313 103.961 39.8646 103.988 39.9712 104.014L39.3316 104.987C39.2783 105.066 39.3049 105.171 39.3849 105.224C39.4648 105.276 39.5714 105.25 39.6247 105.171L40.211 104.303C40.5308 103.83 41.0105 103.514 41.5702 103.409L46.5271 102.462L46.4471 102.015L41.357 103.041Z" fill="#D8F4AA"/>
<path d="M42.2898 99.4109L38.0524 95.6762C37.5728 95.2554 36.9332 95.045 36.2936 95.0713L35.0943 95.1239C34.9877 95.1239 34.9078 95.045 34.8811 94.9398C34.8811 94.8346 34.9611 94.7557 35.0677 94.7294L36.4002 94.6242C37.0398 94.5716 37.6794 94.782 38.159 95.2028L42.6096 99.0164L42.2898 99.4109Z" fill="#D8F4AA"/>
<path d="M42.8494 98.8059L31.5498 88.7065C31.0701 88.2856 30.4305 88.0752 29.7909 88.1015L28.5916 88.1541C28.485 88.1541 28.4051 88.0752 28.3784 87.97C28.3784 87.8648 28.4584 87.7859 28.565 87.7596L29.8975 87.6544C30.5371 87.6018 31.1767 87.8122 31.6564 88.233L43.1958 98.3851L42.8494 98.8059Z" fill="#D8F4AA"/>
<path d="M33.2821 88.7853C33.3088 89.3639 33.5753 89.9162 34.0283 90.3108L34.7212 90.9157L34.4547 91.205L33.6286 90.4686C33.2022 90.074 32.9357 89.4954 32.909 88.9168L32.8557 87.6807C32.8557 87.5755 32.9357 87.4966 33.0156 87.4966C33.1222 87.4966 33.2022 87.5755 33.2022 87.6544L33.2821 88.7853Z" fill="#D8F4AA"/>
<path d="M52.3101 105.17L50.6578 106.985C49.4852 105.328 47.7263 103.145 45.5676 101.462C44.4483 100.594 43.7554 100.015 43.329 99.6472C43.0625 99.4368 43.0359 99.0423 43.2757 98.7793C43.5156 98.5163 43.8887 98.5163 44.1552 98.753C44.5816 99.1475 45.2212 99.7524 46.2072 100.778C48.0994 102.724 50.4979 104.224 52.3101 105.17Z" fill="#D8F4AA"/>
<path d="M60.9183 89.6002C59.4792 85.6025 56.3612 85.3132 56.4944 82.2097C56.6543 79.1062 54.2558 79.1062 54.549 77.16C54.8421 75.2137 53.1365 73.2675 51.3776 73.399C49.6187 73.2675 47.8865 75.1874 48.153 77.1074C48.4195 79.0536 46.021 79.0273 46.1276 82.1308C46.2342 85.2343 43.0895 85.471 41.6237 89.4424C40.1313 93.4401 43.1694 94.6236 42.3699 97.4378C41.5704 100.278 46.5273 99.5418 46.5806 103.013C46.6339 106.485 51.1378 106.012 51.1378 106.012C51.1378 106.012 55.6416 106.564 55.7216 103.066C55.8282 99.5944 60.7851 100.383 60.0122 97.543C59.2927 94.7551 62.3574 93.6242 60.9183 89.6002Z" fill="#86A847"/>
<path d="M56.7342 100.043C55.9081 97.7544 54.1225 97.5966 54.2025 95.8081C54.2824 94.046 52.9233 94.0197 53.0832 92.915C53.2431 91.8104 52.2837 90.7058 51.271 90.7584C50.2583 90.6795 49.2722 91.7841 49.4321 92.8887C49.592 93.9934 48.2062 93.9934 48.2862 95.7555C48.3395 97.5177 46.5539 97.6755 45.7011 99.9373C45.5945 100.253 45.5146 100.516 45.4879 100.779C46.1275 101.279 46.6072 101.962 46.6339 103.014C46.6872 106.486 51.191 106.013 51.191 106.013C51.191 106.013 55.6949 106.565 55.7748 103.067C55.8015 101.989 56.3078 101.331 56.9474 100.832C56.8941 100.621 56.8408 100.358 56.7342 100.043Z" fill="#7D9941"/>
<path opacity="0.2" d="M50.8445 102.541C55.455 99.1479 60.0921 94.4664 57.3205 89.3378C55.7215 86.3395 52.8433 83.9199 53.4296 79.9485C53.6961 78.0022 51.2176 75.5037 48.6326 75.0828C49.2189 74.0571 50.3115 73.347 51.4042 73.4259C53.1631 73.3207 54.8687 75.2669 54.5755 77.1869C54.2824 79.1331 56.6809 79.1331 56.521 82.2366C56.3611 85.3401 59.5058 85.6031 60.9449 89.6271C62.384 93.6248 59.3192 94.782 60.0921 97.6225C60.8649 100.463 55.8814 99.6476 55.8014 103.146C55.6948 106.617 51.2176 106.091 51.2176 106.091C51.2176 106.091 49.4587 106.275 48.1262 105.565C48.8191 104.303 49.8851 103.251 50.8445 102.541Z" fill="#86A847"/>
<path opacity="0.2" d="M55.9612 85.4976C54.7353 84.393 55.4282 82.5256 55.0817 80.8424C55.1084 80.4216 54.2556 80.1849 54.2822 79.7641C54.2289 76.871 52.3101 74.6617 49.885 73.7938C50.3647 73.5308 50.871 73.373 51.404 73.4256C53.1629 73.3204 54.8685 75.2667 54.5754 77.1866C54.2822 79.1328 56.6807 79.1328 56.5208 82.2363C56.3609 85.3398 59.5056 85.6028 60.9447 89.6268C62.3838 93.6245 59.3191 94.7817 60.0919 97.6222C60.8648 100.463 55.8812 99.6474 55.8013 103.145C55.6947 106.617 51.2175 106.091 51.2175 106.091C51.2175 106.091 50.338 106.196 49.3253 105.986C50.951 102.725 54.0157 100.463 56.6274 97.7274C59.8787 94.4661 59.6922 88.7852 55.9612 85.4976Z" fill="#86A847"/>
<path d="M49.3788 106.222L52.9499 106.249C52.4968 104.329 52.0171 101.541 52.2037 98.8582C52.5501 94.0715 52.2303 94.8342 52.2303 94.8342L50.2316 94.8079C50.2316 94.8079 49.9118 94.0189 50.2049 98.8319C50.3648 101.515 49.8585 104.276 49.3788 106.222Z" fill="#D8F4AA"/>
<path d="M50.125 95.0188L50.1517 89.3905C50.1517 88.7593 49.9118 88.1544 49.4588 87.7073L48.606 86.8656C48.526 86.7867 48.526 86.6552 48.606 86.6026C48.6859 86.5237 48.7925 86.5237 48.8725 86.6026L49.8319 87.5232C50.2849 87.9703 50.5514 88.5752 50.5781 89.2064L50.6314 95.0188H50.125Z" fill="#D8F4AA"/>
<path d="M47.9662 93.7825C47.6997 93.4406 47.3266 93.2039 46.9002 93.0987C46.8203 92.9146 46.7403 92.7305 46.7137 92.5201L46.6337 91.7047C46.6337 91.6258 46.5538 91.5732 46.4738 91.5732C46.3939 91.5732 46.3406 91.6521 46.3406 91.731L46.4205 92.6516C46.4205 92.7831 46.4472 92.9146 46.5005 93.0198L45.3545 92.9146C45.2746 92.9146 45.168 92.9672 45.168 93.0724C45.168 93.1776 45.2213 93.2565 45.3279 93.2565L46.3672 93.388C46.9269 93.4669 47.4332 93.7299 47.7797 94.177L50.8444 98.0432L51.2175 97.7539L47.9662 93.7825Z" fill="#D8F4AA"/>
<path d="M46.7671 96.7543C46.4207 96.4913 45.9676 96.3598 45.5412 96.3335C45.408 96.1757 45.3014 95.9916 45.2214 95.8075L44.9283 95.0185C44.9016 94.9396 44.8217 94.9132 44.7417 94.9396C44.6618 94.9659 44.6351 95.0448 44.6618 95.1237L44.9816 96.0179C45.0349 96.1494 45.0882 96.2546 45.1681 96.3598L43.9955 96.5439C43.9156 96.5702 43.8356 96.6491 43.8623 96.728C43.8623 96.8332 43.9689 96.8858 44.0488 96.8858L45.0882 96.7543C45.6478 96.6754 46.2341 96.8332 46.6872 97.1751L50.7113 100.2L51.0045 99.8315L46.7671 96.7543Z" fill="#D8F4AA"/>
<path d="M54.5221 93.8353C54.8153 93.4934 55.1884 93.283 55.5881 93.1515C55.6947 92.9674 55.748 92.7833 55.7747 92.5729L55.8813 91.7576C55.8813 91.6787 55.9612 91.626 56.0412 91.6523C56.1211 91.6523 56.1744 91.7313 56.1744 91.8102L56.0945 92.7307C56.0945 92.8622 56.0412 92.9937 56.0145 93.0989L57.1605 92.9937C57.2404 92.9937 57.347 93.0463 57.347 93.1515C57.347 93.2567 57.2937 93.3356 57.1871 93.3356L56.1478 93.4408C55.5881 93.4934 55.0818 93.7827 54.7353 94.2035L51.5906 98.0171L51.2175 97.7278L54.5221 93.8353Z" fill="#D8F4AA"/>
<path d="M55.695 96.8071C56.0681 96.5441 56.4945 96.4126 56.9209 96.4126C57.0541 96.2548 57.1607 96.097 57.2407 95.8866L57.5605 95.0976C57.5871 95.0187 57.6671 94.9924 57.747 95.0187C57.827 95.045 57.8536 95.1239 57.827 95.2028L57.5072 96.097C57.4539 96.2285 57.4006 96.3337 57.3206 96.4389L58.4932 96.623C58.5732 96.6493 58.6531 96.7282 58.6265 96.8071C58.5998 96.9123 58.5199 96.9649 58.4399 96.9386L57.4006 96.7808C56.8409 96.7019 56.2546 96.8334 55.8016 97.1753L51.7508 100.147L51.4576 99.7791L55.695 96.8071Z" fill="#D8F4AA"/>
<path d="M52.3637 95.0188L52.3903 89.3905C52.3903 88.7593 52.6568 88.1544 53.1099 87.7073L53.9627 86.8656C54.0426 86.7867 54.0426 86.6815 53.9627 86.6026C53.8827 86.5237 53.7761 86.5237 53.6962 86.6026L52.7101 87.5232C52.2304 87.9703 51.9639 88.5752 51.9639 89.2064L51.8307 95.0188H52.3637Z" fill="#D8F4AA"/>
<path d="M51.5104 95.018L51.5637 79.974C51.5637 79.3428 51.8302 78.7379 52.2833 78.2908L53.1361 77.4491C53.216 77.3702 53.216 77.265 53.1361 77.1861C53.0561 77.1072 52.9495 77.1072 52.8696 77.1861L51.8835 78.1067C51.4038 78.5538 51.1373 79.1587 51.1373 79.7899L50.9774 95.0443L51.5104 95.018Z" fill="#D8F4AA"/>
<path d="M50.445 81.2894C50.8714 81.7102 51.0846 82.2625 51.0846 82.8675V83.788H51.4843V82.6834C51.4843 82.1047 51.2445 81.5261 50.7914 81.1053L49.912 80.2374C49.832 80.1585 49.7254 80.1585 49.6721 80.2374C49.5922 80.3163 49.5922 80.4215 49.6721 80.5004L50.445 81.2894Z" fill="#D8F4AA"/>
<path d="M49.912 106.223L52.3904 106.249C51.9374 104.303 51.4843 101.515 51.6709 98.8325C51.7775 97.4385 51.8041 96.5443 51.8308 95.9657C51.8308 95.6238 51.5643 95.3608 51.2178 95.3345C50.8714 95.3345 50.6049 95.5975 50.6049 95.9394C50.6049 96.518 50.6315 97.4122 50.7115 98.8062C50.898 101.515 50.3917 104.277 49.912 106.223Z" fill="#D8F4AA"/>
<path d="M34.6411 94.3346C34.3213 89.7582 37.2794 88.1539 35.787 85.1556C34.2946 82.1574 36.6398 81.1316 35.5205 79.3432C34.4012 77.5547 35.2274 74.8984 37.0129 74.2672C38.6919 73.3729 41.2236 74.5565 41.8099 76.5816C42.3962 78.6068 44.7414 77.581 45.994 80.6845C47.2465 83.788 50.4445 82.7097 53.6425 86.0236C56.8672 89.3374 54.3621 91.8097 56.3875 94.282C58.4129 96.7542 53.1628 98.1219 54.6286 101.594C56.0943 105.065 51.4306 106.485 51.4306 106.485C51.4306 106.485 47.2199 108.931 45.5942 105.512C43.9686 102.093 39.4114 105.013 38.9317 101.857C38.5053 98.7531 34.9609 98.9372 34.6411 94.3346Z" fill="#B5E56B"/>
<path d="M43.3557 102.91C43.1691 100.28 44.8747 99.359 44.0219 97.6495C43.1691 95.9399 44.5016 95.335 43.862 94.3093C43.2224 93.2836 43.7021 91.7581 44.7148 91.4162C45.6742 90.9165 47.14 91.574 47.4598 92.7313C47.8062 93.8885 49.1387 93.3099 49.8583 95.0983C50.5778 96.8868 52.4167 96.2555 54.2555 98.1492C54.4954 98.4122 54.6819 98.6489 54.8418 98.8856C54.4154 99.6483 54.2289 100.516 54.6819 101.595C56.1477 105.066 51.4839 106.486 51.4839 106.486C51.4839 106.486 47.2732 108.932 45.6476 105.513C45.1412 104.461 44.3684 104.014 43.5156 103.804C43.4356 103.567 43.3823 103.252 43.3557 102.91Z" fill="#A6D654"/>
<path opacity="0.2" d="M45.6475 105.539C44.0219 102.12 39.4647 105.039 38.985 101.883C38.5053 98.7533 34.9609 98.9111 34.6411 94.3348C34.3213 89.7585 37.2794 88.1542 35.787 85.1559C34.2946 82.1576 36.6398 81.1319 35.5205 79.3435C34.4012 77.555 35.2274 74.8987 37.0129 74.2674C37.0662 74.2411 37.0929 74.2411 37.1462 74.2148C37.6259 78.5808 35.8137 83.7094 39.065 87.3915C40.9038 89.364 38.8784 92.2308 39.8645 94.1507C42.2097 99.858 48.2859 101.357 54.4687 101.068C54.522 101.252 54.5753 101.436 54.6552 101.62C56.121 105.092 51.4572 106.512 51.4572 106.512C51.4572 106.512 47.2465 108.958 45.6475 105.539Z" fill="#B5E56B"/>
<path opacity="0.2" d="M45.6475 105.539C44.0219 102.12 39.4647 105.039 38.985 101.883C38.5053 98.7531 34.9609 98.9109 34.6411 94.3345C34.3213 89.7582 37.2794 88.1539 35.787 85.1556C34.2946 82.1573 36.6398 81.1316 35.5205 79.3432C34.6144 77.8966 34.9609 75.9241 36.0802 74.8721C36.5332 78.5016 36.933 81.9995 36.7997 85.8131C36.7464 87.0756 37.999 88.1802 38.1589 89.4426C38.2921 91.5467 37.1462 93.3877 37.7325 95.3077C39.8112 101.857 48.5524 104.092 54.975 102.909C54.9484 105.433 51.4839 106.485 51.4839 106.485C51.4839 106.485 47.2465 108.958 45.6475 105.539Z" fill="#B5E56B"/>
<path d="M50.1783 110.247C50.1783 110.247 49.7252 104.408 47.3001 99.8054C44.8749 95.2027 45.5145 95.834 45.5145 95.834L45.8343 95.7025L47.1402 95.1238L47.46 94.9923C47.46 94.9923 47.4333 94.0981 49.2455 98.9637C51.0577 103.829 55.1085 108.09 55.1085 108.09C55.1085 108.09 59.9055 112.272 54.9752 114.402H54.9486C50.0983 116.533 50.1783 110.247 50.1783 110.247Z" fill="#D8F4AA"/>
<path d="M47.6999 95.1239L45.2214 89.5745C44.9283 88.9433 44.9283 88.2332 45.1681 87.6019L45.6212 86.4184C45.6745 86.3132 45.6212 86.1817 45.4879 86.1554C45.3813 86.1028 45.2481 86.1554 45.2214 86.2606L44.6618 87.5756C44.3953 88.2069 44.3953 88.917 44.6618 89.5482L47.1402 95.3343L47.6999 95.1239Z" fill="#D8F4AA"/>
<path d="M49.2717 92.9933C49.4049 92.5462 49.6714 92.1517 50.0179 91.8624C50.0179 91.652 50.0179 91.4153 49.9379 91.2049L49.6714 90.3369C49.6448 90.258 49.6981 90.1791 49.778 90.1528C49.858 90.1265 49.9379 90.1791 49.9646 90.258L50.2844 91.2049C50.3377 91.3364 50.3643 91.4679 50.3643 91.6257L51.457 91.0208C51.5369 90.9682 51.6435 90.9945 51.6968 91.0997C51.7501 91.1786 51.7235 91.3101 51.6435 91.3364L50.6841 91.8887C50.1511 92.178 49.778 92.6777 49.6181 93.2563L48.259 98.3849L47.7793 98.2534L49.2717 92.9933Z" fill="#D8F4AA"/>
<path d="M51.7768 95.4132C52.0167 94.9924 52.3898 94.6768 52.8162 94.4927C52.8961 94.2823 52.9228 94.0719 52.8961 93.8352L52.8428 92.9146C52.8428 92.8357 52.8961 92.7568 52.9761 92.7568C53.056 92.7568 53.136 92.8094 53.136 92.8883L53.2159 93.9141C53.2159 94.0456 53.2159 94.2034 53.1893 94.3349L54.4152 94.0193C54.5218 93.993 54.6017 94.0456 54.655 94.1508C54.6817 94.256 54.6284 94.3612 54.5218 94.3875L53.4291 94.7031C52.8428 94.8609 52.3365 95.2554 52.0433 95.7814L49.3783 100.489L48.9253 100.253L51.7768 95.4132Z" fill="#D8F4AA"/>
<path d="M42.8227 95.8072C42.3963 95.5968 41.9166 95.5179 41.4635 95.5968C41.3036 95.4653 41.1437 95.3075 41.0371 95.0971L40.5841 94.3344C40.5308 94.2555 40.4508 94.2292 40.3709 94.2818C40.2909 94.3344 40.2643 94.4133 40.3176 94.4922L40.8239 95.3601C40.9039 95.4916 40.9838 95.5968 41.0638 95.702L39.8645 96.0965C39.7579 96.1228 39.7313 96.228 39.7579 96.3332C39.7846 96.4384 39.8912 96.491 39.9978 96.4647L41.0638 96.1228C41.6501 95.9387 42.263 95.9913 42.796 96.2806L47.5397 98.7266L47.7795 98.2795L42.8227 95.8072Z" fill="#D8F4AA"/>
<path d="M42.956 99.253C42.4763 99.1478 41.9966 99.2004 41.5702 99.3845C41.357 99.3056 41.1704 99.1741 41.0105 99.0163L40.3709 98.3588C40.3176 98.3062 40.211 98.3062 40.1577 98.3588C40.1044 98.4114 40.1044 98.5166 40.1577 98.5692L40.8773 99.3056C40.9839 99.4108 41.0905 99.4897 41.1971 99.5686L40.1311 100.252C40.0511 100.305 40.0245 100.41 40.0778 100.515C40.1311 100.594 40.2377 100.621 40.3443 100.568L41.3303 99.9631C41.8633 99.6475 42.4763 99.5423 43.0892 99.6738L48.3926 100.91L48.4992 100.41L42.956 99.253Z" fill="#D8F4AA"/>
<path d="M45.4878 96.0965L43.0093 90.547C42.7162 89.9158 42.2098 89.4424 41.5702 89.1794L40.371 88.7323C40.2644 88.6797 40.2111 88.5745 40.2377 88.4693C40.291 88.3641 40.3976 88.3115 40.5042 88.3378L41.8634 88.8375C42.5296 89.0742 43.0626 89.5476 43.3558 90.1788L46.0208 95.886L45.4878 96.0965Z" fill="#D8F4AA"/>
<path d="M46.3139 95.7281L39.7047 80.8419C39.4115 80.2107 38.9052 79.7373 38.2656 79.4743L37.0663 79.0272C36.9597 78.9746 36.9064 78.8694 36.9331 78.7642C36.9864 78.659 37.093 78.6064 37.1996 78.6327L38.5587 79.1324C39.225 79.3691 39.758 79.8425 40.0511 80.4737L46.8469 95.5177L46.3139 95.7281Z" fill="#D8F4AA"/>
<path d="M41.4106 81.6838C41.1708 82.2624 41.1974 82.9463 41.4639 83.5249L41.8637 84.4191L41.4639 84.6032L40.9842 83.5249C40.7444 82.9463 40.7177 82.2887 40.9842 81.6838L41.4906 80.4477C41.5439 80.3425 41.6505 80.3162 41.7304 80.3425C41.837 80.3688 41.8903 80.5003 41.837 80.5792L41.4106 81.6838Z" fill="#D8F4AA"/>
<path d="M54.7886 113.876C55.9079 113.403 56.5208 112.772 56.6541 112.035C56.8673 110.668 55.3749 109.011 54.7886 108.485L54.7619 108.458L54.7353 108.432C54.5754 108.248 50.5779 104.04 48.7391 99.1216C48.2061 97.7014 47.8596 96.8071 47.6198 96.2285C47.4865 95.8866 47.0868 95.7288 46.7403 95.8866C46.3939 96.0444 46.2606 96.4126 46.3939 96.7545C46.6604 97.3068 47.0868 98.1748 47.8063 99.5161C50.2581 104.171 50.7378 109.931 50.7644 110.168V110.194V110.22C50.7644 111.009 50.9777 113.219 52.1503 113.981C52.7632 114.429 53.6426 114.376 54.7886 113.876Z" fill="#CEEA96"/>
<path d="M98.6015 99.6077C98.6015 106.157 95.6434 111.233 90.873 114.678C87.7283 117.624 86.9022 118.807 79.4669 119.412C77.3882 119.57 74.5899 119.912 72.3513 119.912C69.2599 119.912 66.3551 119.202 63.5568 119.07C50.8981 118.465 46.1011 110.891 46.1011 99.5814C46.1011 85.2213 57.8537 79.2773 72.3513 79.2773C73.9237 79.2773 75.4694 79.3562 76.9618 79.5404C79.8932 79.8823 82.6382 80.5135 85.1433 81.4866C86.9022 82.1704 88.5545 82.9857 90.0469 83.9589C95.2969 87.4305 98.6015 92.717 98.6015 99.6077Z" fill="#F58A22"/>
<path opacity="0.1" d="M91.9127 85.3535C91.6729 96.4787 85.1969 107.236 73.2311 108.998C65.2094 110.102 55.9086 107.183 49.2461 112.233C51.9644 116.309 56.5482 118.782 63.5571 119.097C66.3554 119.229 69.2602 119.939 72.3516 119.939C74.5636 119.939 77.3885 119.597 79.4672 119.439C86.9025 118.834 87.7287 117.651 90.8734 114.705C95.6437 111.26 98.6019 106.157 98.6019 99.6348C98.6019 93.5593 96.0701 88.7726 91.9127 85.3535Z" fill="#F58A22"/>
<path opacity="0.1" d="M91.6993 85.1953C93.0051 92.3754 92.712 99.7396 88.0482 105.578C79.9466 115.651 65.7955 111.075 54.2294 112.443C52.7903 112.653 51.5111 113.127 50.4185 113.784C53.2167 116.94 57.4807 118.834 63.5569 119.123C66.3551 119.255 69.26 119.965 72.3514 119.965C74.5633 119.965 77.3882 119.623 79.4669 119.465C86.9023 118.86 87.7284 117.677 90.8731 114.731C95.6435 111.286 98.6016 106.183 98.6016 99.6607C98.6016 93.48 95.9899 88.6144 91.6993 85.1953Z" fill="#F58A22"/>
<path d="M62.171 118.728C57.7205 115.677 53.6697 108.418 53.6697 99.6336C53.6697 91.2174 56.3347 85.6942 60.4654 82.5645C57.1608 86.0624 55.1088 91.6119 55.1088 99.5547C55.0821 107.918 58.52 115.256 62.171 118.728Z" fill="#DD710F"/>
<path d="M72.3513 118.728C72.3513 118.728 69.633 100.554 71.8982 82.5645C71.8982 82.5645 73.4972 99.7125 72.3513 118.728Z" fill="#DD710F"/>
<path d="M98.6013 99.6084C98.6013 106.157 95.6431 111.233 90.8728 114.679C103.825 99.7399 90.0466 83.9858 90.0466 83.9858C95.2967 87.4312 98.6013 92.7177 98.6013 99.6084Z" fill="#DD710F"/>
<path d="M89.887 99.6082C89.887 91.192 87.222 85.6688 83.0912 82.5391C83.2245 82.6706 83.3577 82.8284 83.4643 82.9599C85.6496 85.4584 86.8755 88.6408 87.1154 91.9284C87.6217 98.7403 87.2753 110.523 79.9732 116.125C78.5074 117.23 80.213 119.491 81.6788 118.413C81.7321 118.361 81.7854 118.334 81.8387 118.282C81.892 118.229 81.9453 118.203 81.9719 118.15C86.2093 114.889 89.887 107.998 89.887 99.6082Z" fill="#DD710F"/>
<path opacity="0.5" d="M61.7449 88.6931C61.0253 90.4552 59.6395 91.5599 58.6535 91.1654C57.6674 90.7708 57.4542 89.035 58.1738 87.2729C58.8933 85.5107 60.2791 84.4061 61.2652 84.8006C62.2512 85.1951 62.4644 86.931 61.7449 88.6931Z" fill="white"/>
<path opacity="0.5" d="M77.5213 87.1411C77.6546 88.8244 77.015 90.2709 76.0556 90.3498C75.0962 90.4287 74.2167 89.1137 74.0835 87.4304C73.9502 85.7472 74.5898 84.3007 75.5492 84.2218C76.5086 84.1692 77.3881 85.4579 77.5213 87.1411Z" fill="white"/>
<path opacity="0.5" d="M58.8129 93.8213C58.5464 94.4525 57.8535 94.7944 57.2672 94.5577C56.6809 94.321 56.4144 93.6109 56.6809 92.9797C56.9474 92.3485 57.6403 92.0066 58.2266 92.2433C58.8129 92.4537 59.0794 93.1638 58.8129 93.8213Z" fill="white"/>
<path opacity="0.5" d="M77.4414 92.9019C77.1749 93.5331 76.482 93.875 75.8957 93.6383C75.3094 93.4016 75.0429 92.6915 75.3094 92.0603C75.5759 91.4291 76.2688 91.0871 76.8551 91.3238C77.4414 91.5606 77.7079 92.2707 77.4414 92.9019Z" fill="white"/>
<path opacity="0.5" d="M54.7355 87.168C54.469 87.7992 53.7761 88.1411 53.1898 87.9044C52.6035 87.6677 52.337 86.9576 52.6035 86.3264C52.87 85.6952 53.5629 85.3533 54.1492 85.59C54.7355 85.8267 55.002 86.5368 54.7355 87.168Z" fill="white"/>
<path d="M68.9401 79.7251C68.9401 79.7251 65.4489 80.4615 65.6088 81.2768C65.7687 82.0922 73.9769 83.0916 77.0417 82.2237C80.0798 81.3557 79.5468 80.0144 73.4706 80.0144C67.3944 80.0144 68.9401 79.7251 68.9401 79.7251Z" fill="#DD710F"/>
<path d="M67.8476 81.566C67.8476 81.566 69.4199 81.6712 71.2588 82.0394C73.0976 82.4076 75.5494 82.3024 76.8286 81.7238C78.0812 81.1715 75.8959 78.8307 75.0431 77.9628C73.0443 75.9377 75.7893 67.7056 72.8045 67.7056C69.8197 67.7056 72.3514 74.7541 69.8463 77.9628C68.5138 79.6987 66.1153 81.0663 67.8476 81.566Z" fill="#1F4B18"/>
<g opacity="0.2">
<path d="M75.0695 77.936C73.7636 76.621 74.4832 72.6233 74.2966 70.0195C73.4971 73.5438 74.8563 77.936 71.3651 79.2511C70.2192 79.6719 69.0732 79.9086 67.874 80.0138C67.1811 80.7502 66.8613 81.2762 67.8207 81.5392C67.8207 81.5392 69.393 81.6444 71.2319 82.0126C73.0707 82.3808 75.5225 82.2756 76.8017 81.697C78.0809 81.1447 75.9223 78.8039 75.0695 77.936Z" fill="#1F4B18"/>
</g>
<g opacity="0.2">
<path d="M75.0697 77.9365C74.9631 77.8313 74.8565 77.6998 74.7766 77.542C74.5634 78.594 74.137 79.4619 72.991 79.9354C71.1522 80.7244 69.2867 81.1452 67.3945 81.3293C67.5011 81.4082 67.6344 81.4871 67.8476 81.5397C67.8476 81.5397 69.4199 81.6449 71.2588 82.0131C73.0976 82.3813 75.5494 82.2761 76.8286 81.6975C78.0812 81.1452 75.9225 78.8044 75.0697 77.9365Z" fill="#1F4B18"/>
</g>
<path d="M45.7812 101.726C45.7812 101.726 27.1795 118.006 24.328 112.404C22.2493 108.38 38.106 102.673 45.7812 101.726Z" fill="#D62918"/>
<path opacity="0.2" d="M35.574 107.196C33.3088 110.352 27.8988 113.508 24.2478 111.036C24.0612 111.509 24.0879 111.983 24.3011 112.43C27.1793 118.032 45.7543 101.752 45.7543 101.752C43.7556 101.989 41.1972 102.567 38.5588 103.356C37.5195 104.566 36.5334 105.934 35.574 107.196Z" fill="#D62918"/>
<path opacity="0.2" d="M30.244 112.036C28.4585 112.719 26.2732 112.956 24.2478 112.272C24.2745 112.325 24.3011 112.377 24.3011 112.43C27.1793 118.032 45.7543 101.752 45.7543 101.752C45.4345 101.778 45.0881 101.831 44.7416 101.883C39.6248 104.408 35.7606 109.8 30.244 112.036Z" fill="#D62918"/>
<path opacity="0.2" d="M36.8265 104.776C36.8265 104.776 31.3899 108.906 27.8721 109.247C27.8721 109.221 30.164 107.985 36.8265 104.776Z" fill="white"/>
<path d="M24.8875 113.114C24.8875 113.114 25.3139 112.93 24.1679 111.457C24.1413 111.457 23.6083 112.641 24.8875 113.114Z" fill="#146D16"/>
<path d="M24.5943 112.694L24.5676 112.72C24.461 112.799 21.6628 114.798 18.3049 113.93C18.0917 113.877 17.9585 113.667 18.0118 113.43C18.0651 113.22 18.2783 113.088 18.5181 113.141C21.4763 113.903 24.0613 112.089 24.0879 112.062C24.2745 111.931 24.5143 111.983 24.6476 112.141C24.7542 112.352 24.7275 112.562 24.5943 112.694Z" fill="#187D1F"/>
<path d="M24.0879 112.088C24.0612 112.088 22.8886 112.93 21.2363 113.245C21.3696 113.272 21.5028 113.298 21.6361 113.324C22.0358 113.403 22.3556 113.535 22.5955 113.719C23.7414 113.324 24.5143 112.798 24.5676 112.746L24.5942 112.719C24.7541 112.588 24.7808 112.351 24.6475 112.193C24.5143 111.983 24.2478 111.957 24.0879 112.088Z" fill="#146D16"/>
<path d="M47.007 104.512C46.7938 109.536 49.8852 113.718 53.936 113.902C57.9601 114.06 61.398 110.141 61.6112 105.117C61.8244 100.094 58.8129 93.8607 54.7621 93.7029C50.738 93.5188 47.2202 99.489 47.007 104.512Z" fill="#E0B87D"/>
<path opacity="0.2" d="M52.2567 94.3608C51.2973 100.883 52.1768 108.589 58.9459 111.088C59.0791 111.141 59.2124 111.193 59.3456 111.246C57.9332 112.955 56.0144 113.981 53.909 113.902C49.8849 113.744 46.7668 109.536 46.98 104.513C47.1666 100.568 49.3785 96.0441 52.2567 94.3608Z" fill="#E0B87D"/>
<path opacity="0.3" d="M51.9904 94.5459C49.965 97.7546 49.6985 102.331 50.498 105.96C50.7912 107.407 51.4841 108.485 52.8965 109.274C55.0552 110.379 57.2938 110.958 59.5057 111.115C58.0933 112.93 56.0945 114.008 53.9359 113.929C49.9117 113.772 46.7937 109.564 47.0069 104.54C47.1668 100.7 49.2455 96.3343 51.9904 94.5459Z" fill="#E0B87D"/>
<path opacity="0.5" d="M58.1732 96.9388C58.1732 96.9388 61.3979 101.673 59.1859 102.83C56.9473 103.961 55.8813 95.0452 58.1732 96.9388Z" fill="white"/>
<path d="M38.2925 114.533C42.5032 117.348 47.7532 116.927 50.0185 113.613C52.2837 110.299 50.6847 105.355 46.4474 102.567C42.21 99.7788 35.2544 99.0424 33.0158 102.356C30.7772 105.644 34.0818 111.746 38.2925 114.533Z" fill="#E0B87D"/>
<path opacity="0.2" d="M32.2957 104.804C37.4125 109.038 44.5547 112.326 50.2578 107.933C50.3644 107.855 50.4976 107.749 50.6042 107.67C51.3504 109.748 51.2172 111.905 50.0446 113.641C47.7793 116.955 42.5559 117.349 38.3186 114.561C34.9873 112.352 32.2424 108.118 32.2957 104.804Z" fill="#E0B87D"/>
<path opacity="0.2" d="M32.2957 105.119C34.0013 108.512 37.8122 111.116 41.3566 112.352C42.7691 112.852 44.0483 112.852 45.4607 112.063C47.5394 110.826 49.2184 109.248 50.4976 107.46C51.3237 109.59 51.2171 111.852 50.0179 113.614C47.7526 116.928 42.5292 117.323 38.2919 114.535C35.0939 112.404 32.4023 108.38 32.2957 105.119Z" fill="#E0B87D"/>
<path opacity="0.5" d="M37.5995 101.2C37.5995 101.2 43.3826 100.963 43.196 103.436C43.0361 105.881 34.7746 102.12 37.5995 101.2Z" fill="white"/>
<path d="M53.9359 118.321C53.9359 118.321 29.0981 117.848 30.8303 111.825C32.0562 107.459 47.6465 113.876 53.9359 118.321Z" fill="#D62918"/>
<path opacity="0.2" d="M42.6895 115.507C38.8519 116.296 32.7224 115.007 31.7363 110.746C31.2833 110.983 30.9635 111.325 30.8302 111.798C29.098 117.821 53.9358 118.294 53.9358 118.294C52.3101 117.137 50.0182 115.848 47.5398 114.639C45.9141 114.875 44.2618 115.217 42.6895 115.507Z" fill="#D62918"/>
<path opacity="0.2" d="M35.4405 115.506C33.6816 114.796 31.896 113.534 30.8567 111.667C30.83 111.719 30.83 111.772 30.8034 111.824C29.0711 117.847 53.9089 118.321 53.9089 118.321C53.6424 118.136 53.3759 117.952 53.0561 117.742C47.5662 116.19 41.037 117.558 35.4405 115.506Z" fill="#D62918"/>
<path opacity="0.2" d="M45.2476 114.56C45.2476 114.56 38.4252 113.955 35.6003 111.851C35.6003 111.851 38.1587 112.456 45.2476 114.56Z" fill="white"/>
<path d="M30.7502 112.693C30.7502 112.693 31.2033 112.851 31.3365 110.983C31.3632 110.983 30.1373 111.509 30.7502 112.693Z" fill="#146D16"/>
<path d="M30.8304 112.219C30.8037 112.219 30.8037 112.219 30.7771 112.219C30.6438 112.193 27.206 111.798 25.3405 108.932C25.2072 108.748 25.2605 108.485 25.4737 108.379C25.6603 108.248 25.9268 108.3 26.0334 108.511C27.6857 111.062 30.8304 111.43 30.8837 111.456C31.0969 111.483 31.2568 111.693 31.2301 111.904C31.2035 112.061 31.0169 112.219 30.8304 112.219Z" fill="#187D1F"/>
<path d="M30.8567 111.405C30.8301 111.405 29.4176 111.22 27.9785 110.353C28.0585 110.458 28.1384 110.563 28.2184 110.668C28.4582 110.984 28.5915 111.299 28.6714 111.615C29.7907 112.088 30.7235 112.194 30.7768 112.22C30.8034 112.22 30.8034 112.22 30.8301 112.22C31.0433 112.22 31.2032 112.062 31.2298 111.852C31.2565 111.641 31.0966 111.431 30.8567 111.405Z" fill="#146D16"/>
<path d="M107.823 77.7503C107.983 77.3295 108.356 77.0402 108.809 77.0139C108.809 76.9876 108.809 76.9876 108.836 76.9876C108.569 76.6983 108.489 76.2775 108.622 75.883C108.782 75.4358 109.209 75.1465 109.662 75.1465C109.688 75.1465 109.715 75.1202 109.715 75.0939C109.662 74.9098 109.688 74.6994 109.742 74.489C109.955 73.9104 110.595 73.6211 111.181 73.8052C111.207 73.8052 111.207 73.8315 111.234 73.8315C111.207 73.5948 111.261 73.3581 111.394 73.1477C111.634 72.7795 112.06 72.5954 112.487 72.6743C112.886 72.7532 113.206 73.0162 113.313 73.3581C113.366 73.4633 113.473 73.5159 113.606 73.4896C113.819 73.4107 114.086 73.4107 114.325 73.5422C114.672 73.7263 114.858 74.0945 114.779 74.4627C114.752 74.6994 114.619 74.8835 114.459 75.015C114.459 75.015 114.459 75.015 114.485 75.015C115.072 75.2254 115.365 75.8567 115.178 76.4353C115.125 76.6194 114.992 76.7772 114.858 76.8824C114.805 76.9087 114.805 76.9876 114.858 77.0402C115.178 77.3295 115.312 77.8029 115.152 78.2237C115.018 78.5919 114.699 78.8549 114.352 78.9338C114.352 78.9601 114.325 78.9864 114.325 79.0127C114.619 79.302 114.725 79.7492 114.565 80.1437C114.405 80.5645 114.032 80.8538 113.606 80.8801C113.686 81.1168 113.713 81.3798 113.606 81.6428C113.499 81.9584 113.26 82.1951 112.966 82.3003C112.94 82.3529 112.94 82.3792 112.913 82.4318C113.02 82.6685 113.02 82.9578 112.94 83.2208C112.806 83.589 112.487 83.8521 112.114 83.931C112.087 83.9836 112.087 84.0099 112.06 84.0362C112.14 84.2729 112.14 84.5359 112.06 84.7726C111.9 85.1671 111.554 85.4564 111.154 85.509C111.127 85.5353 111.127 85.5353 111.127 85.5616C111.127 85.6931 111.101 85.8246 111.074 85.9561C110.941 86.298 110.648 86.561 110.328 86.6399C109.422 87.7183 108.569 88.3495 107.956 88.1391C107.343 87.9287 107.077 86.9029 107.077 85.509C106.864 85.2197 106.81 84.8515 106.943 84.5096C106.997 84.3781 107.05 84.2729 107.157 84.1677C107.157 84.1414 107.157 84.1414 107.157 84.1151C106.864 83.8258 106.757 83.3786 106.917 82.9841C106.997 82.7474 107.183 82.537 107.397 82.4055C107.397 82.3529 107.423 82.3266 107.423 82.274C107.183 81.9847 107.103 81.5902 107.237 81.222C107.343 80.959 107.53 80.7486 107.743 80.6171C107.77 80.5645 107.77 80.5382 107.796 80.4593C107.636 80.1963 107.61 79.8544 107.716 79.5387C107.796 79.2757 107.983 79.0916 108.223 78.9601C107.796 78.6182 107.663 78.1711 107.823 77.7503Z" fill="#84B235"/>
<path opacity="0.2" d="M114.858 76.8561C114.992 76.7245 115.098 76.593 115.178 76.4089C115.391 75.8303 115.072 75.1991 114.485 74.9887C114.485 74.9887 114.485 74.9887 114.459 74.9887C114.618 74.8572 114.752 74.6731 114.778 74.4364C114.832 74.0682 114.645 73.7 114.325 73.5159C114.085 73.3844 113.819 73.3844 113.606 73.4633C113.499 73.5159 113.366 73.4633 113.313 73.3318C113.179 72.9899 112.886 72.7269 112.486 72.6479C112.46 72.6479 112.433 72.6479 112.38 72.6479C113.766 75.8303 113.499 79.5124 111.047 82.1162C109.848 83.5101 108.462 84.6147 106.997 85.509C106.997 86.9029 107.263 87.9286 107.876 88.139C108.489 88.3494 109.342 87.7182 110.248 86.6399C110.594 86.5347 110.887 86.298 110.994 85.9561C111.047 85.8246 111.047 85.6931 111.047 85.5616C111.074 85.5353 111.074 85.5353 111.074 85.509C111.474 85.4564 111.847 85.1934 111.98 84.7725C112.06 84.5358 112.06 84.2728 111.98 84.0361C112.007 83.9835 112.007 83.9572 112.033 83.9309C112.407 83.852 112.726 83.589 112.86 83.2208C112.966 82.9578 112.94 82.6685 112.833 82.4318C112.86 82.3792 112.86 82.3529 112.886 82.3003C113.179 82.1951 113.419 81.9584 113.526 81.6428C113.606 81.3798 113.606 81.1168 113.526 80.8801C113.952 80.8538 114.352 80.5644 114.485 80.1436C114.645 79.7228 114.512 79.302 114.245 79.0127C114.245 78.9864 114.272 78.9601 114.272 78.9338C114.645 78.8549 114.938 78.5919 115.072 78.2237C115.231 77.8029 115.098 77.3295 114.778 77.0402C114.805 76.9613 114.805 76.8824 114.858 76.8561Z" fill="#84B235"/>
<path d="M101.054 80.9062C101.081 80.5117 101.347 80.1698 101.694 80.0646C101.694 80.0383 101.694 80.0383 101.694 80.0383C101.4 79.8542 101.241 79.5123 101.241 79.1704C101.267 78.7496 101.56 78.4076 101.933 78.3024C101.96 78.3024 101.987 78.2761 101.96 78.2498C101.88 78.092 101.827 77.9079 101.853 77.7238C101.88 77.1978 102.36 76.777 102.919 76.8033C102.946 76.8033 102.946 76.8033 102.973 76.8033C102.893 76.6192 102.866 76.4088 102.946 76.1721C103.053 75.8039 103.373 75.5409 103.772 75.5146C104.145 75.4883 104.465 75.6461 104.652 75.8828C104.705 75.9617 104.838 75.988 104.918 75.9091C105.078 75.7776 105.318 75.725 105.558 75.7776C105.878 75.8565 106.144 76.1195 106.171 76.4351C106.197 76.6455 106.144 76.8296 106.038 76.9874C106.038 76.9874 106.038 76.9874 106.064 76.9874C106.597 77.0137 107.024 77.4871 106.997 78.0394C106.997 78.1972 106.944 78.355 106.837 78.5129C106.81 78.5655 106.837 78.6181 106.864 78.6444C107.21 78.8285 107.423 79.1704 107.397 79.5912C107.37 79.9331 107.183 80.2224 106.89 80.3802C106.89 80.4065 106.89 80.4328 106.89 80.4591C107.21 80.6432 107.397 80.9851 107.37 81.3533C107.343 81.7478 107.077 82.0634 106.73 82.1949C106.864 82.379 106.944 82.5895 106.917 82.8525C106.89 83.1418 106.757 83.4048 106.517 83.5626C106.517 83.6152 106.517 83.6415 106.491 83.6941C106.624 83.8782 106.704 84.1149 106.704 84.3516C106.677 84.6935 106.464 84.9828 106.197 85.1406C106.197 85.1932 106.171 85.2195 106.171 85.2458C106.304 85.4299 106.357 85.6403 106.357 85.877C106.331 86.2452 106.091 86.5608 105.771 86.7187C105.771 86.745 105.771 86.745 105.744 86.7713C105.771 86.8765 105.798 87.008 105.798 87.1132C105.771 87.4551 105.584 87.7181 105.318 87.8759C104.812 89.0068 104.252 89.7432 103.666 89.6906C103.106 89.6643 102.626 88.849 102.28 87.6655C102.04 87.4814 101.88 87.1658 101.907 86.8502C101.907 86.7187 101.933 86.6135 101.987 86.5082C101.987 86.4819 101.987 86.4819 101.96 86.4556C101.64 86.2715 101.454 85.9296 101.48 85.5614C101.507 85.3247 101.587 85.1143 101.747 84.9565C101.747 84.9039 101.747 84.8776 101.747 84.8513C101.48 84.6672 101.32 84.3516 101.347 83.9834C101.374 83.7467 101.48 83.51 101.64 83.3522C101.64 83.2996 101.64 83.2733 101.64 83.2207C101.454 83.0366 101.32 82.7473 101.347 82.4579C101.374 82.2212 101.454 82.0108 101.614 81.853C101.241 81.6426 101.027 81.3007 101.054 80.9062Z" fill="#6B8F25"/>
<path opacity="0.2" d="M106.864 80.4063C106.864 80.38 106.864 80.3537 106.864 80.3274C107.157 80.1696 107.343 79.8802 107.37 79.5383C107.397 79.1438 107.183 78.7756 106.837 78.5915C106.784 78.5652 106.784 78.5126 106.81 78.46C106.89 78.3285 106.944 78.1707 106.97 77.9866C106.997 77.4606 106.597 76.9872 106.037 76.9346C106.037 76.9346 106.037 76.9346 106.011 76.9346C106.117 76.7768 106.171 76.5927 106.144 76.3823C106.117 76.0667 105.851 75.7773 105.531 75.7247C105.291 75.6721 105.078 75.7247 104.892 75.8563C105.904 78.197 106.011 80.9586 105.185 83.4045C104.598 85.1667 103.639 86.771 102.413 88.2176C102.733 89.0592 103.133 89.6115 103.612 89.6641C104.172 89.6904 104.758 88.954 105.265 87.8493C105.531 87.6915 105.718 87.4022 105.744 87.0866C105.744 86.9551 105.744 86.8499 105.691 86.7447C105.691 86.7184 105.691 86.7184 105.718 86.6921C106.037 86.5606 106.304 86.245 106.304 85.8505C106.331 85.6138 106.251 85.4034 106.117 85.2193C106.117 85.1667 106.144 85.1404 106.144 85.1141C106.437 84.9563 106.65 84.667 106.65 84.3251C106.677 84.0884 106.597 83.8516 106.437 83.6675C106.437 83.6149 106.437 83.5886 106.464 83.536C106.677 83.3782 106.837 83.1152 106.864 82.8259C106.89 82.5892 106.81 82.3525 106.677 82.1684C107.024 82.0369 107.29 81.7213 107.317 81.3268C107.37 80.9323 107.157 80.5904 106.864 80.4063Z" fill="#6B8F25"/>
<path d="M102.493 93.7147C102.493 93.7147 105.851 84.8777 104.652 80.5381C104.652 80.5381 104.332 86.8239 101.854 93.2676L102.493 93.7147Z" fill="#782445"/>
<path d="M116.964 91.5836C117.337 91.4258 117.55 91.0576 117.55 90.6893C117.577 90.6893 117.577 90.6893 117.577 90.663C117.843 90.8471 118.243 90.8997 118.563 90.7682C118.963 90.5841 119.176 90.2159 119.149 89.8214C119.149 89.7951 119.176 89.7688 119.203 89.7688C119.389 89.7951 119.576 89.7688 119.736 89.6899C120.242 89.4532 120.455 88.8746 120.215 88.4012C120.215 88.3749 120.189 88.3749 120.189 88.3486C120.402 88.3486 120.615 88.296 120.802 88.1382C121.095 87.9015 121.255 87.507 121.148 87.1388C121.041 86.7968 120.802 86.5601 120.482 86.4549C120.375 86.4286 120.322 86.3234 120.348 86.2182C120.402 86.0078 120.375 85.7974 120.242 85.587C120.055 85.324 119.709 85.1662 119.389 85.2451C119.176 85.2977 119.016 85.4292 118.936 85.5607C118.936 85.5607 118.936 85.5607 118.936 85.5344C118.696 85.0347 118.11 84.8243 117.63 85.061C117.47 85.1399 117.337 85.2451 117.257 85.3766C117.23 85.4292 117.15 85.4292 117.124 85.4029C116.831 85.1399 116.431 85.061 116.058 85.2451C115.738 85.3766 115.525 85.6922 115.498 86.0078C115.472 86.0078 115.472 86.0341 115.418 86.0341C115.125 85.8237 114.752 85.7448 114.379 85.9026C114.006 86.0604 113.793 86.4286 113.793 86.7968C113.579 86.7442 113.34 86.7442 113.126 86.8494C112.86 86.981 112.673 87.1914 112.593 87.4544C112.54 87.4807 112.513 87.507 112.46 87.507C112.247 87.4544 111.98 87.4544 111.767 87.5596C111.447 87.7174 111.234 88.0067 111.208 88.3223C111.181 88.3486 111.154 88.3486 111.101 88.3749C110.888 88.3223 110.648 88.3486 110.435 88.4275C110.088 88.5853 109.875 88.9272 109.848 89.2691C109.848 89.2954 109.822 89.2954 109.822 89.2954C109.715 89.2954 109.582 89.3217 109.475 89.3743C109.182 89.5058 108.969 89.7951 108.916 90.0844C108.036 90.9524 107.53 91.7414 107.77 92.2411C108.01 92.7408 108.942 92.8986 110.168 92.7934C110.435 92.9512 110.781 92.9775 111.074 92.846C111.181 92.7934 111.287 92.7145 111.367 92.6356C111.394 92.6356 111.394 92.6356 111.421 92.6356C111.714 92.846 112.087 92.9249 112.46 92.7671C112.673 92.6619 112.833 92.5041 112.94 92.32C112.993 92.32 112.993 92.2937 113.046 92.2937C113.313 92.4778 113.686 92.5041 114.006 92.3726C114.246 92.2674 114.406 92.0833 114.485 91.8729C114.539 91.8466 114.565 91.8466 114.619 91.8203C114.859 91.9255 115.178 91.9518 115.445 91.8203C115.658 91.7151 115.845 91.5573 115.925 91.3469C116.191 91.6888 116.617 91.7677 116.964 91.5836Z" fill="#6B8F25"/>
<path opacity="0.2" d="M121.148 87.166C121.041 86.8241 120.802 86.5874 120.482 86.4822C120.375 86.4559 120.322 86.3507 120.348 86.2455C120.402 86.0351 120.375 85.8246 120.242 85.6142C120.055 85.3512 119.709 85.1934 119.389 85.2723C119.309 85.2986 119.229 85.3249 119.149 85.3775C118.696 86.5874 117.977 87.6657 117.097 88.5336C114.779 90.7692 111.98 92.1894 109.022 92.8995C109.342 92.9258 109.715 92.9258 110.115 92.8732C110.381 93.031 110.728 93.0573 111.021 92.9258C111.128 92.8732 111.234 92.7943 111.314 92.7154C111.341 92.7154 111.341 92.7154 111.367 92.7154C111.661 92.9258 112.034 93.0047 112.407 92.8469C112.62 92.7417 112.78 92.5839 112.886 92.3998C112.94 92.3998 112.94 92.3735 112.993 92.3735C113.26 92.5576 113.633 92.5839 113.952 92.4524C114.192 92.3472 114.352 92.1631 114.432 91.9527C114.485 91.9264 114.512 91.9264 114.565 91.9001C114.805 92.0053 115.125 92.0316 115.392 91.9001C115.605 91.7949 115.791 91.6371 115.871 91.4267C116.164 91.6634 116.564 91.7423 116.937 91.5845C117.31 91.4267 117.524 91.0585 117.524 90.6903C117.55 90.6903 117.55 90.6903 117.55 90.664C117.817 90.8481 118.216 90.9007 118.536 90.7692C118.936 90.5851 119.149 90.2169 119.123 89.8223C119.123 89.796 119.149 89.7697 119.176 89.7697C119.362 89.796 119.549 89.7697 119.709 89.6908C120.215 89.4541 120.428 88.8755 120.189 88.4021C120.189 88.3758 120.162 88.3758 120.162 88.3495C120.375 88.3495 120.588 88.2969 120.775 88.1391C121.095 87.9287 121.255 87.5342 121.148 87.166Z" fill="#6B8F25"/>
<path d="M104.332 94.8185C104.332 94.8185 111.5 88.5853 116.031 88.1382C116.031 88.1382 110.195 90.663 104.971 95.2657L104.332 94.8185Z" fill="#782445"/>
<path d="M104.412 93.95C104.412 93.95 111.741 82.1673 111.767 77.6699C111.767 77.6699 107.823 88.0061 103.666 93.5555L104.412 93.95Z" fill="#782445"/>
<path d="M90.7403 95.0818C87.2758 100.026 92.2594 109.521 92.2594 109.521C92.2594 109.521 102.839 110.967 106.464 105.786C109.449 101.499 108.356 95.6342 104.012 92.6885C99.6947 89.7165 93.7518 90.7948 90.7403 95.0818Z" fill="#782445"/>
<g opacity="0.2">
<path d="M105.345 93.7402C105.505 97.5801 103.879 101.21 99.8015 102.314C96.4436 103.314 93.1657 103.208 89.8611 102.735C90.6073 106.365 92.2596 109.521 92.2596 109.521C92.2596 109.521 102.84 110.967 106.464 105.786C109.129 101.946 108.543 96.8963 105.345 93.7402Z" fill="#782445"/>
</g>
<g opacity="0.2">
<path d="M106.117 94.582C106.25 96.2916 105.957 98.08 105.424 99.6318C104.518 101.841 102.493 104.287 99.5878 104.971C96.3632 105.786 93.2185 105.602 90.3669 104.681C91.1664 107.417 92.2591 109.521 92.2591 109.521C92.2591 109.521 102.839 110.967 106.464 105.786C108.889 102.288 108.622 97.7381 106.117 94.582Z" fill="#782445"/>
</g>
<path d="M110.091 118.6C112.367 114.233 109.638 108.373 103.997 105.509C98.3555 102.646 91.9376 103.864 89.6621 108.23C87.3866 112.596 90.1152 118.457 95.7566 121.32C101.398 124.184 107.816 122.966 110.091 118.6Z" fill="#FFF019"/>
<path d="M108.772 109.44C107.413 113.307 104.268 116.384 100.537 117.094C97.0995 117.751 93.6617 117.488 90.4104 116.568C91.6096 118.462 93.4218 120.145 95.7404 121.328C101.364 124.195 107.786 122.959 110.078 118.593C111.544 115.753 110.931 112.307 108.772 109.44Z" fill="#FFF019"/>
<path d="M110.078 118.592C107.813 122.958 101.39 124.194 95.7403 121.327C93.7682 120.328 92.1692 118.96 90.9966 117.435C91.4496 117.724 91.9293 117.987 92.409 118.25C98.8317 121.511 106.107 120.117 108.719 115.147C109.438 113.779 109.705 112.28 109.625 110.754C111.064 113.306 111.331 116.172 110.078 118.592Z" fill="#FFF019"/>
<path d="M110.291 116.646C110.291 116.646 110.664 116.304 111.144 117.908C111.624 119.513 109.892 120.196 109.039 119.933C108.186 119.67 110.291 116.646 110.291 116.646Z" fill="#FFF019"/>
<path d="M110.291 116.646C110.291 116.646 110.664 116.304 111.144 117.908C111.624 119.513 109.892 120.196 109.039 119.933C108.186 119.67 110.291 116.646 110.291 116.646Z" fill="#FFF019"/>
<path d="M110.291 116.646C110.291 116.646 110.664 116.304 111.144 117.908C111.624 119.513 109.892 120.196 109.039 119.933C108.186 119.67 110.291 116.646 110.291 116.646Z" fill="#FFF019"/>
<path d="M90.9434 106.809C90.9434 106.809 91.0234 106.309 89.4244 106.861C87.8254 107.414 88.2784 109.202 88.9713 109.728C89.6642 110.281 90.9434 106.809 90.9434 106.809Z" fill="#FFF019"/>
<path d="M97.7124 106.967C97.4193 107.519 96.753 107.73 96.22 107.44C95.6604 107.151 95.4472 106.493 95.7403 105.967C96.0335 105.415 96.6997 105.205 97.2327 105.494C97.7657 105.783 97.9789 106.441 97.7124 106.967Z" fill="#FDFA6E"/>
<path d="M104.215 108.571C103.949 109.387 102.59 109.676 101.204 109.229C99.8181 108.782 98.8853 107.756 99.1785 106.941C99.445 106.125 100.804 105.836 102.19 106.283C103.576 106.73 104.482 107.756 104.215 108.571Z" fill="#FDFA6E"/>
<path d="M54.3092 122.319C54.3092 122.319 52.9767 122.819 53.2165 124.66C53.4564 126.501 62.5973 126.422 62.5973 126.422L63.2369 123.582L54.3092 122.319Z" fill="#F3F3CD"/>
<path d="M54.3093 122.319C54.3093 122.319 53.7763 122.53 53.4298 123.161C56.1215 124.976 59.7992 125.186 63.0238 124.555L63.237 123.608L54.3093 122.319Z" fill="#E2E0AC"/>
<path d="M70.7256 124.66C70.7256 124.66 68.7002 125.554 74.3234 126.422C79.9465 127.29 80.9326 124.66 80.9326 124.66L80.0531 122.319L70.7256 124.66Z" fill="#F3F3CD"/>
<path d="M70.7254 124.66C70.7254 124.66 70.5122 124.765 70.4056 124.923C73.9234 125.975 77.6544 125.66 80.6126 123.871L80.0263 122.319L70.7254 124.66Z" fill="#E2E0AC"/>
<path d="M90.526 118.058C90.526 118.058 83.8368 107.801 65.1019 108.406C57.1868 108.669 49.485 110.878 42.5827 114.692C42.556 114.718 42.5027 114.745 42.4761 114.745C41.1169 115.481 41.0636 117.401 42.3695 118.216C47.8594 121.714 62.3836 128.158 89.2734 122.214L90.526 118.058Z" fill="#6B8AA6"/>
<path opacity="0.2" d="M82.6911 111.799C82.6645 112.246 82.5845 112.693 82.4513 113.114C82.0249 115.639 80.1061 117.953 77.9741 118.164C67.2075 119.032 55.5614 118.032 45.9675 112.982C44.8215 113.508 43.6756 114.087 42.5829 114.692C42.5563 114.718 42.503 114.744 42.4763 114.744C41.1172 115.481 41.0639 117.401 42.3697 118.216C47.8596 121.714 62.3838 128.158 89.2737 122.214L90.5262 118.032C90.5262 118.058 88.261 114.587 82.6911 111.799Z" fill="#6B8AA6"/>
<path opacity="0.2" d="M53.9358 119.005C49.7518 118.611 45.3546 118.032 41.6769 115.534C41.1705 116.428 41.3837 117.611 42.3431 118.243C47.833 121.741 62.3572 128.184 89.2471 122.24L90.473 118.19C89.5935 118.926 88.6608 119.505 87.5415 119.847C76.7216 123.845 65.2088 120.268 53.9358 119.005Z" fill="#6B8AA6"/>
<path d="M53.2962 113.562C53.0563 112.641 52.6033 111.615 51.937 110.695C48.6857 111.721 45.5677 113.062 42.5829 114.719C42.5563 114.745 42.503 114.771 42.4763 114.771C41.1172 115.508 41.0639 117.428 42.3697 118.243C44.2885 119.453 47.2999 121.031 51.5373 122.32C51.6439 122.188 51.7238 122.083 51.8304 121.951C53.5094 119.427 54.149 116.271 53.2962 113.562Z" fill="#F3F3CD"/>
<path d="M53.2963 113.561C53.0831 112.746 52.71 111.851 52.1503 111.01C52.0437 113.219 51.2975 115.428 50.0983 117.348C49.2455 118.611 48.1795 119.452 46.6871 119.663C46.0741 119.742 45.4612 119.742 44.8749 119.715C46.6071 120.609 48.8191 121.53 51.5107 122.345C51.6173 122.214 51.6973 122.109 51.8039 121.977C53.5095 119.426 54.1491 116.27 53.2963 113.561Z" fill="#E2E0AC"/>
<path d="M69.3395 121.531C69.3395 121.531 64.4892 117.454 59.5323 118.98C59.5323 118.98 62.2506 124.108 69.3395 121.531Z" fill="#F3F3CD"/>
<path opacity="0.2" d="M64.1161 118.927C62.7037 118.585 61.1313 118.48 59.5323 118.979C59.5323 118.979 60.625 121.057 63.2633 121.899C62.5171 120.926 63.0235 119.611 64.1161 118.927Z" fill="#E2E0AC"/>
<path opacity="0.2" d="M62.2243 119.847C62.6507 118.558 64.4629 119.295 66.355 119.716C64.5162 118.874 62.0377 118.19 59.506 118.953C59.506 118.953 60.3588 120.557 62.3309 121.504C62.0377 121.057 61.9578 120.505 62.2243 119.847Z" fill="#E2E0AC"/>
<path d="M90.5266 118.059C90.5266 118.059 99.481 114.429 101.107 115.429C102.706 116.428 100.174 118.085 101.107 120.426C102.039 122.766 104.438 125.186 101.107 125.239C97.7754 125.291 89.274 122.214 89.274 122.214L90.5266 118.059Z" fill="#6B8AA6"/>
<path opacity="0.2" d="M94.1508 121.53C92.765 118.427 97.9351 117.664 101.24 117.717C101.613 116.744 101.986 116.007 101.08 115.429C99.4808 114.429 90.4997 118.059 90.4997 118.059L89.2472 122.24C89.2472 122.24 97.7485 125.318 101.08 125.265C102.519 125.239 102.892 124.765 102.759 124.055C102.519 123.976 102.279 123.897 102.013 123.845C99.2676 123.213 95.2168 124.055 94.1508 121.53Z" fill="#6B8AA6"/>
<path opacity="0.2" d="M101.107 115.454C99.5076 114.455 90.5266 118.084 90.5266 118.084L89.274 122.266C89.274 122.266 89.8604 122.477 90.7931 122.792C91.2728 118.006 97.0292 116.98 101.346 117.48C101.666 116.612 101.906 115.954 101.107 115.454Z" fill="#6B8AA6"/>
<path d="M48.5791 114.745C48.5791 115.323 48.0994 115.77 47.5397 115.77C46.9534 115.77 46.5004 115.297 46.5004 114.745C46.5004 114.192 46.9801 113.719 47.5397 113.719C48.126 113.693 48.5791 114.166 48.5791 114.745Z" fill="#0B1013"/>
<path d="M48.0463 114.429C48.0463 114.587 47.9131 114.692 47.7798 114.692C47.6466 114.692 47.5133 114.56 47.5133 114.429C47.5133 114.297 47.6466 114.166 47.7798 114.166C47.9131 114.166 48.0463 114.271 48.0463 114.429Z" fill="#F3F3CD"/>
<path d="M47.2198 115.298C47.3081 115.298 47.3797 115.227 47.3797 115.14C47.3797 115.053 47.3081 114.982 47.2198 114.982C47.1315 114.982 47.0599 115.053 47.0599 115.14C47.0599 115.227 47.1315 115.298 47.2198 115.298Z" fill="#F3F3CD"/>
<path opacity="0.5" d="M75.8958 110.984C75.8958 110.984 65.4223 107.249 57.001 110.984C51.8042 113.035 83.1179 115.244 75.8958 110.984Z" fill="white"/>
<path d="M41.677 115.534C41.677 115.534 44.1022 116.218 44.1022 116.849C44.1022 116.849 41.1973 116.27 41.4372 115.744C41.6237 115.245 41.677 115.534 41.677 115.534Z" fill="#D1D0A7"/>
<path d="M44.1023 116.849C44.1023 116.849 41.9703 117.059 41.4106 116.849V117.165C41.4106 117.191 44.2089 117.086 44.1023 116.849Z" fill="#D1D0A7"/>
<path opacity="0.5" d="M71.5246 123.819C71.5246 123.819 68.6197 122.502 65.5283 123.977C65.1552 124.24 65.7682 124.477 67.5804 124.161C69.3926 123.845 72.8304 124.74 71.5246 123.819Z" fill="white"/>
</svg>
