<svg width="104" height="61" viewBox="0 0 104 61" fill="none" xmlns="http://www.w3.org/2000/svg">
<path opacity="0.3" d="M53.1251 53.189C81.2225 53.189 104 49.3032 104 44.5098C104 39.7164 81.2225 35.8306 53.1251 35.8306C25.0277 35.8306 2.25024 39.7164 2.25024 44.5098C2.25024 49.3032 25.0277 53.189 53.1251 53.189Z" fill="#94CAEC"/>
<path opacity="0.3" d="M59.0681 61C77.2747 61 92.0341 57.1142 92.0341 52.3208C92.0341 47.5274 77.2747 43.6416 59.0681 43.6416C40.8614 43.6416 26.1021 47.5274 26.1021 52.3208C26.1021 57.1142 40.8614 61 59.0681 61Z" fill="#EBE2C5"/>
<path d="M14.456 35.0146C12.4306 31.2799 14.3228 28.8077 11.8976 26.8351C9.47249 24.8626 11.0715 23.1004 9.41919 22.0221C7.76689 20.9438 7.44709 18.3926 8.72629 17.1828C9.79229 15.8152 12.404 15.8415 13.6832 17.3406C14.9624 18.8397 16.5614 17.0776 18.8 19.2605C21.0386 21.4172 23.3305 19.2868 27.328 20.8912C31.3255 22.4955 30.1529 25.5201 32.8179 26.8351C35.4829 28.1502 31.592 31.2799 34.1504 33.6733C36.7354 36.0667 33.3242 39.0123 33.3242 39.0123C33.3242 39.0123 30.7125 42.6681 28.0209 40.38C25.3559 38.1181 22.6109 42.2736 20.9853 39.8013C19.4129 37.3028 16.4814 38.7756 14.456 35.0146Z" fill="#667C33"/>
<path d="M25.0891 38.9858C23.9165 36.8292 25.0092 35.4352 23.6234 34.3043C22.2376 33.1734 23.1437 32.174 22.211 31.5427C21.2782 30.9115 21.0917 29.465 21.8112 28.7812C22.4242 27.9922 23.9165 28.0185 24.6361 28.8601C25.3556 29.728 26.2884 28.7023 27.5676 29.9647C28.8468 31.2008 30.1526 29.991 32.4445 30.9115C32.7377 31.043 33.0042 31.1745 33.2174 31.306C33.1641 32.1214 33.3506 32.9104 34.1235 33.6468C36.7085 36.0402 33.2973 38.9858 33.2973 38.9858C33.2973 38.9858 30.6856 42.6416 27.994 40.3535C27.1678 39.6433 26.3417 39.5644 25.5422 39.6959C25.4089 39.5118 25.249 39.2751 25.0891 38.9858Z" fill="#5E702D"/>
<path opacity="0.2" d="M28.0477 40.3532C25.3827 38.0913 22.6377 42.2468 21.0121 39.7746C19.3864 37.3023 16.4816 38.7751 14.4295 35.0141C12.4041 31.2795 14.2963 28.8072 11.8711 26.8346C9.446 24.8621 11.045 23.1 9.3927 22.0216C7.7404 20.9433 7.4206 18.3921 8.6998 17.1823C9.04625 16.7352 9.5526 16.4459 10.1389 16.2881C10.2455 17.5505 9.3927 19.1286 10.432 19.7861C11.8711 20.8907 12.031 22.5739 12.5907 24.2835C12.7506 25.3355 14.4562 25.8352 14.8293 26.6768C16.5882 30.7271 17.9207 34.9878 23.1974 36.0136C26.7951 36.7763 30.3929 37.3286 34.0173 36.8289C34.3104 36.8026 34.5769 36.7763 34.8434 36.75C34.3637 38.0124 33.2711 38.9592 33.2711 38.9592C33.2711 38.9592 30.7127 42.615 28.0477 40.3532Z" fill="#667C33"/>
<path opacity="0.2" d="M28.0473 40.3541C25.3823 38.0923 22.6374 42.2478 21.0117 39.7755C19.3861 37.3032 16.4812 38.7761 14.4292 35.0151C12.4038 31.2804 14.2959 28.8081 11.8708 26.8356C9.44565 24.863 11.0446 23.1009 9.39235 22.0226C8.00655 21.102 7.5535 19.1295 8.2464 17.8145C8.353 18.4194 8.53955 18.998 8.7261 19.524C9.12585 20.3919 9.92535 21.2598 10.3517 21.8911C11.7375 24.6789 13.7896 26.6515 14.749 29.413C15.3086 31.333 16.0815 33.2529 17.5206 34.7784C21.3582 39.7492 28.1806 38.7498 33.937 38.329C33.5905 38.7498 33.2974 38.9865 33.2974 38.9865C33.2974 38.9865 30.7123 42.616 28.0473 40.3541Z" fill="#667C33"/>
<path d="M34.6568 37.7757L32.285 40.4057C31.139 38.7751 29.3801 36.5658 27.2481 34.8826C23.4105 31.9106 24.21 32.1999 24.21 32.1999L25.5425 30.7271C25.5425 30.7271 25.1694 29.9644 28.5806 33.4098C30.4728 35.356 32.8979 36.8289 34.6568 37.7757Z" fill="#D8F4AA"/>
<path d="M25.7555 30.7802L21.5182 27.0192C21.0385 26.5984 20.7453 25.9935 20.7187 25.3623L20.6654 24.1787C20.6654 24.0735 20.5588 23.9946 20.4522 23.9946C20.3456 23.9946 20.2656 24.0998 20.2656 24.205L20.3189 25.5201C20.3456 26.1513 20.6121 26.7562 21.0918 27.2033L25.4091 31.1747L25.7555 30.7802Z" fill="#D8F4AA"/>
<path d="M26.2885 28.3864C26.2352 27.9656 26.2885 27.5185 26.5017 27.1503C26.4218 26.9662 26.3151 26.7821 26.1819 26.6243L25.6223 25.9931C25.569 25.9405 25.569 25.8616 25.6223 25.809C25.6756 25.7564 25.7555 25.7564 25.8088 25.809L26.4484 26.4928C26.5283 26.598 26.6083 26.7032 26.6882 26.8084L27.3811 25.8879C27.4344 25.809 27.541 25.809 27.621 25.8616C27.7009 25.9142 27.7276 26.0194 27.6476 26.0983L27.0347 26.9399C26.7149 27.387 26.5817 27.9393 26.6616 28.4916L27.4877 33.331L27.0347 33.4099L26.2885 28.3864Z" fill="#D8F4AA"/>
<path d="M29.327 29.5176C29.3803 29.0705 29.5669 28.676 29.8334 28.3341C29.8067 28.1237 29.7534 27.9396 29.6468 27.7555L29.2471 26.9928C29.2204 26.9139 29.2471 26.835 29.3004 26.8087C29.3803 26.7824 29.4603 26.8087 29.4869 26.8613L29.94 27.7029C29.9933 27.8081 30.0466 27.9396 30.0732 28.0711L30.9793 27.3347C31.0593 27.2821 31.1659 27.2821 31.2192 27.361C31.2725 27.4399 31.2725 27.5451 31.1925 27.5977L30.393 28.2815C29.9666 28.6497 29.6735 29.1494 29.6468 29.728L29.2204 34.6989L28.7407 34.6463L29.327 29.5176Z" fill="#D8F4AA"/>
<path d="M21.9177 33.2C21.4913 33.1737 21.0649 33.3052 20.6918 33.5419C20.5052 33.4893 20.3187 33.4104 20.1321 33.2789L19.4392 32.8055C19.3859 32.7529 19.2793 32.7792 19.2527 32.8318C19.1994 32.8844 19.226 32.9633 19.2793 33.0159L20.0255 33.5682C20.1321 33.6472 20.2387 33.6998 20.372 33.7524L19.5192 34.5414C19.4392 34.594 19.4392 34.6992 19.5192 34.7781C19.5725 34.857 19.6791 34.857 19.759 34.8044L20.5319 34.1206C20.9583 33.7524 21.4913 33.5682 22.0509 33.5945L27.0078 33.8839L27.0345 33.4367L21.9177 33.2Z" fill="#D8F4AA"/>
<path d="M23.357 36.0409C22.9306 36.1198 22.5308 36.3565 22.2377 36.6721C22.0245 36.6721 21.8113 36.6458 21.6247 36.5669L20.8252 36.2776C20.7453 36.2513 20.6653 36.2776 20.6387 36.3565C20.612 36.4354 20.6387 36.5143 20.7186 36.5406L21.5981 36.9088C21.7313 36.9614 21.8646 36.9877 21.9712 37.014L21.3316 37.9871C21.2783 38.066 21.3049 38.1712 21.3849 38.2238C21.4648 38.2764 21.5714 38.2501 21.6247 38.1712L22.211 37.3033C22.5308 36.8299 23.0105 36.5143 23.5702 36.4091L28.5271 35.4622L28.4471 35.0151L23.357 36.0409Z" fill="#D8F4AA"/>
<path d="M24.2898 32.4109L20.0524 28.6762C19.5728 28.2554 18.9332 28.045 18.2936 28.0713L17.0943 28.1239C16.9877 28.1239 16.9078 28.045 16.8811 27.9398C16.8811 27.8346 16.9611 27.7557 17.0677 27.7294L18.4002 27.6242C19.0398 27.5716 19.6794 27.782 20.159 28.2028L24.6096 32.0164L24.2898 32.4109Z" fill="#D8F4AA"/>
<path d="M24.8494 31.8059L13.5498 21.7065C13.0701 21.2856 12.4305 21.0752 11.7909 21.1015L10.5916 21.1541C10.485 21.1541 10.4051 21.0752 10.3784 20.97C10.3784 20.8648 10.4584 20.7859 10.565 20.7596L11.8975 20.6544C12.5371 20.6018 13.1767 20.8122 13.6564 21.233L25.1958 31.3851L24.8494 31.8059Z" fill="#D8F4AA"/>
<path d="M15.2821 21.7853C15.3088 22.3639 15.5753 22.9162 16.0283 23.3108L16.7212 23.9157L16.4547 24.205L15.6286 23.4686C15.2022 23.074 14.9357 22.4954 14.909 21.9168L14.8557 20.6807C14.8557 20.5755 14.9357 20.4966 15.0156 20.4966C15.1222 20.4966 15.2022 20.5755 15.2022 20.6544L15.2821 21.7853Z" fill="#D8F4AA"/>
<path d="M34.3101 38.1703L32.6578 39.9851C31.4852 38.3281 29.7263 36.1452 27.5676 34.462C26.4483 33.594 25.7554 33.0154 25.329 32.6472C25.0625 32.4368 25.0359 32.0423 25.2757 31.7793C25.5156 31.5163 25.8887 31.5163 26.1552 31.753C26.5816 32.1475 27.2212 32.7524 28.2072 33.7781C30.0994 35.7244 32.4979 37.2235 34.3101 38.1703Z" fill="#D8F4AA"/>
<path d="M42.9183 22.6002C41.4792 18.6025 38.3612 18.3132 38.4944 15.2097C38.6543 12.1062 36.2558 12.1062 36.549 10.16C36.8421 8.21371 35.1365 6.26747 33.3776 6.39897C31.6187 6.26747 29.8865 8.18741 30.153 10.1074C30.4195 12.0536 28.021 12.0273 28.1276 15.1308C28.2342 18.2343 25.0895 18.471 23.6237 22.4424C22.1313 26.4401 25.1694 27.6236 24.3699 30.4378C23.5704 33.2782 28.5273 32.5418 28.5806 36.0135C28.6339 39.4852 33.1378 39.0118 33.1378 39.0118C33.1378 39.0118 37.6416 39.5641 37.7216 36.0661C37.8282 32.5944 42.7851 33.3834 42.0122 30.543C41.2927 27.7551 44.3574 26.6242 42.9183 22.6002Z" fill="#86A847"/>
<path d="M38.7342 33.0425C37.9081 30.7544 36.1225 30.5966 36.2025 28.8081C36.2824 27.046 34.9233 27.0197 35.0832 25.915C35.2431 24.8104 34.2837 23.7058 33.271 23.7584C32.2583 23.6795 31.2722 24.7841 31.4321 25.8887C31.592 26.9934 30.2062 26.9934 30.2862 28.7555C30.3395 30.5177 28.5539 30.6755 27.7011 32.9373C27.5945 33.2529 27.5146 33.5159 27.4879 33.7789C28.1275 34.2786 28.6072 34.9625 28.6339 36.0145C28.6872 39.4862 33.191 39.0128 33.191 39.0128C33.191 39.0128 37.6949 39.5651 37.7748 36.0671C37.8015 34.9888 38.3078 34.3312 38.9474 33.8315C38.8941 33.6211 38.8408 33.3581 38.7342 33.0425Z" fill="#7D9941"/>
<path opacity="0.2" d="M32.8445 35.5407C37.455 32.1479 42.0921 27.4664 39.3205 22.3378C37.7215 19.3395 34.8433 16.9199 35.4296 12.9485C35.6961 11.0022 33.2176 8.50365 30.6326 8.08284C31.2189 7.05712 32.3115 6.347 33.4042 6.4259C35.1631 6.3207 36.8687 8.26695 36.5755 10.1869C36.2824 12.1331 38.6809 12.1331 38.521 15.2366C38.3611 18.3401 41.5058 18.6031 42.9449 22.6271C44.384 26.6248 41.3192 27.782 42.0921 30.6225C42.8649 33.463 37.8814 32.6476 37.8014 36.1456C37.6948 39.6173 33.2176 39.0913 33.2176 39.0913C33.2176 39.0913 31.4587 39.2754 30.1262 38.5653C30.8191 37.3029 31.8851 36.2508 32.8445 35.5407Z" fill="#86A847"/>
<path opacity="0.2" d="M37.9612 18.4976C36.7353 17.393 37.4282 15.5256 37.0817 13.8424C37.1084 13.4216 36.2556 13.1849 36.2822 12.7641C36.2289 9.87099 34.3101 7.66174 31.885 6.79381C32.3647 6.53081 32.871 6.373 33.404 6.42561C35.1629 6.3204 36.8685 8.26665 36.5754 10.1866C36.2822 12.1328 38.6807 12.1328 38.5208 15.2363C38.3609 18.3398 41.5056 18.6028 42.9447 22.6268C44.3838 26.6245 41.3191 27.7817 42.0919 30.6222C42.8648 33.4627 37.8812 32.6474 37.8013 36.1453C37.6947 39.617 33.2175 39.091 33.2175 39.091C33.2175 39.091 32.338 39.1962 31.3253 38.9858C32.951 35.7245 36.0157 33.4627 38.6274 30.7274C41.8787 27.4661 41.6922 21.7852 37.9612 18.4976Z" fill="#86A847"/>
<path d="M31.3788 39.2224L34.9499 39.2486C34.4968 37.3287 34.0171 34.5408 34.2037 31.8582C34.5501 27.0715 34.2303 27.8342 34.2303 27.8342L32.2316 27.8079C32.2316 27.8079 31.9118 27.0189 32.2049 31.8319C32.3648 34.5145 31.8585 37.2761 31.3788 39.2224Z" fill="#D8F4AA"/>
<path d="M32.125 28.0188L32.1517 22.3905C32.1517 21.7593 31.9118 21.1544 31.4588 20.7073L30.606 19.8656C30.526 19.7867 30.526 19.6552 30.606 19.6026C30.6859 19.5237 30.7925 19.5237 30.8725 19.6026L31.8319 20.5232C32.2849 20.9703 32.5514 21.5752 32.5781 22.2064L32.6314 28.0188H32.125Z" fill="#D8F4AA"/>
<path d="M29.9662 26.7825C29.6997 26.4406 29.3266 26.2039 28.9002 26.0987C28.8203 25.9146 28.7403 25.7305 28.7137 25.5201L28.6337 24.7047C28.6337 24.6258 28.5538 24.5732 28.4738 24.5732C28.3939 24.5732 28.3406 24.6521 28.3406 24.731L28.4205 25.6516C28.4205 25.7831 28.4472 25.9146 28.5005 26.0198L27.3545 25.9146C27.2746 25.9146 27.168 25.9672 27.168 26.0724C27.168 26.1776 27.2213 26.2565 27.3279 26.2565L28.3672 26.388C28.9269 26.4669 29.4332 26.7299 29.7797 27.177L32.8444 31.0432L33.2175 30.7539L29.9662 26.7825Z" fill="#D8F4AA"/>
<path d="M28.7671 29.7543C28.4207 29.4913 27.9676 29.3598 27.5412 29.3335C27.408 29.1757 27.3014 28.9916 27.2214 28.8075L26.9283 28.0185C26.9016 27.9396 26.8217 27.9132 26.7417 27.9396C26.6618 27.9659 26.6351 28.0448 26.6618 28.1237L26.9816 29.0179C27.0349 29.1494 27.0882 29.2546 27.1681 29.3598L25.9955 29.5439C25.9156 29.5702 25.8356 29.6491 25.8623 29.728C25.8623 29.8332 25.9689 29.8858 26.0488 29.8858L27.0882 29.7543C27.6478 29.6754 28.2341 29.8332 28.6872 30.1751L32.7113 33.1997L33.0045 32.8315L28.7671 29.7543Z" fill="#D8F4AA"/>
<path d="M36.5221 26.8353C36.8153 26.4934 37.1884 26.283 37.5881 26.1515C37.6947 25.9674 37.748 25.7833 37.7747 25.5729L37.8813 24.7576C37.8813 24.6787 37.9612 24.626 38.0412 24.6523C38.1211 24.6523 38.1744 24.7313 38.1744 24.8102L38.0945 25.7307C38.0945 25.8622 38.0412 25.9937 38.0145 26.0989L39.1605 25.9937C39.2404 25.9937 39.347 26.0463 39.347 26.1515C39.347 26.2567 39.2937 26.3356 39.1871 26.3356L38.1478 26.4408C37.5881 26.4934 37.0818 26.7827 36.7353 27.2035L33.5906 31.0171L33.2175 30.7278L36.5221 26.8353Z" fill="#D8F4AA"/>
<path d="M37.695 29.8071C38.0681 29.5441 38.4945 29.4126 38.9209 29.4126C39.0541 29.2548 39.1607 29.097 39.2407 28.8866L39.5605 28.0976C39.5871 28.0187 39.6671 27.9924 39.747 28.0187C39.827 28.045 39.8536 28.1239 39.827 28.2028L39.5072 29.097C39.4539 29.2285 39.4006 29.3337 39.3206 29.4389L40.4932 29.623C40.5732 29.6493 40.6531 29.7282 40.6265 29.8071C40.5998 29.9123 40.5199 29.9649 40.4399 29.9386L39.4006 29.7808C38.8409 29.7019 38.2546 29.8334 37.8016 30.1753L33.7508 33.1473L33.4576 32.7791L37.695 29.8071Z" fill="#D8F4AA"/>
<path d="M34.3637 28.0188L34.3903 22.3905C34.3903 21.7593 34.6568 21.1544 35.1099 20.7073L35.9627 19.8656C36.0426 19.7867 36.0426 19.6815 35.9627 19.6026C35.8827 19.5237 35.7761 19.5237 35.6962 19.6026L34.7101 20.5232C34.2304 20.9703 33.9639 21.5752 33.9639 22.2064L33.8307 28.0188H34.3637Z" fill="#D8F4AA"/>
<path d="M33.5104 28.018L33.5637 12.974C33.5637 12.3428 33.8302 11.7379 34.2833 11.2908L35.1361 10.4491C35.216 10.3702 35.216 10.265 35.1361 10.1861C35.0561 10.1072 34.9495 10.1072 34.8696 10.1861L33.8835 11.1067C33.4038 11.5538 33.1373 12.1587 33.1373 12.7899L32.9774 28.0443L33.5104 28.018Z" fill="#D8F4AA"/>
<path d="M32.445 14.2894C32.8714 14.7102 33.0846 15.2625 33.0846 15.8675V16.788H33.4843V15.6834C33.4843 15.1047 33.2445 14.5261 32.7914 14.1053L31.912 13.2374C31.832 13.1585 31.7254 13.1585 31.6721 13.2374C31.5922 13.3163 31.5922 13.4215 31.6721 13.5004L32.445 14.2894Z" fill="#D8F4AA"/>
<path d="M31.912 39.2229L34.3904 39.2492C33.9374 37.303 33.4843 34.5151 33.6709 31.8325C33.7775 30.4385 33.8041 29.5443 33.8308 28.9657C33.8308 28.6238 33.5643 28.3608 33.2178 28.3345C32.8714 28.3345 32.6049 28.5975 32.6049 28.9394C32.6049 29.518 32.6315 30.4122 32.7115 31.8062C32.898 34.5151 32.3917 37.2767 31.912 39.2229Z" fill="#D8F4AA"/>
<path d="M16.6411 27.3346C16.3213 22.7582 19.2794 21.1539 17.787 18.1556C16.2946 15.1574 18.6398 14.1316 17.5205 12.3432C16.4012 10.5547 17.2274 7.89838 19.0129 7.26716C20.6919 6.37294 23.2236 7.55647 23.8099 9.58162C24.3962 11.6068 26.7414 10.581 27.994 13.6845C29.2465 16.788 32.4445 15.7097 35.6425 19.0236C38.8672 22.3374 36.3621 24.8097 38.3875 27.282C40.4129 29.7542 35.1628 31.1219 36.6286 34.5935C38.0943 38.0652 33.4306 39.4855 33.4306 39.4855C33.4306 39.4855 29.2199 41.9314 27.5942 38.5123C25.9686 35.0933 21.4114 38.0126 20.9317 34.8565C20.5053 31.7531 16.9609 31.9372 16.6411 27.3346Z" fill="#B5E56B"/>
<path d="M25.3557 35.9096C25.1691 33.2795 26.8747 32.359 26.0219 30.6495C25.1691 28.9399 26.5016 28.335 25.862 27.3093C25.2224 26.2836 25.7021 24.7581 26.7148 24.4162C27.6742 23.9165 29.14 24.574 29.4598 25.7313C29.8062 26.8885 31.1387 26.3099 31.8583 28.0983C32.5778 29.8868 34.4167 29.2555 36.2555 31.1492C36.4954 31.4122 36.6819 31.6489 36.8418 31.8856C36.4154 32.6483 36.2289 33.5162 36.6819 34.5946C38.1477 38.0663 33.4839 39.4865 33.4839 39.4865C33.4839 39.4865 29.2732 41.9324 27.6476 38.5134C27.1412 37.4613 26.3684 37.0142 25.5156 36.8038C25.4356 36.5671 25.3823 36.2515 25.3557 35.9096Z" fill="#A6D654"/>
<path opacity="0.2" d="M27.6475 38.5389C26.0219 35.1198 21.4647 38.0392 20.985 34.8831C20.5053 31.7533 16.9609 31.9111 16.6411 27.3348C16.3213 22.7585 19.2794 21.1542 17.787 18.1559C16.2946 15.1576 18.6398 14.1319 17.5205 12.3435C16.4012 10.555 17.2274 7.89866 19.0129 7.26744C19.0662 7.24114 19.0929 7.24114 19.1462 7.21484C19.6259 11.5808 17.8137 16.7094 21.065 20.3915C22.9038 22.364 20.8784 25.2308 21.8645 27.1507C24.2097 32.858 30.2859 34.3571 36.4687 34.0678C36.522 34.2519 36.5753 34.436 36.6552 34.6201C38.121 38.0918 33.4572 39.512 33.4572 39.512C33.4572 39.512 29.2465 41.958 27.6475 38.5389Z" fill="#B5E56B"/>
<path opacity="0.2" d="M27.6475 38.5386C26.0219 35.1195 21.4647 38.0389 20.985 34.8828C20.5053 31.7531 16.9609 31.9109 16.6411 27.3345C16.3213 22.7582 19.2794 21.1539 17.787 18.1556C16.2946 15.1573 18.6398 14.1316 17.5205 12.3432C16.6144 10.8966 16.9609 8.9241 18.0802 7.87207C18.5332 11.5016 18.933 14.9995 18.7997 18.8131C18.7464 20.0756 19.999 21.1802 20.1589 22.4426C20.2921 24.5467 19.1462 26.3877 19.7325 28.3077C21.8112 34.8565 30.5524 37.0921 36.975 35.9086C36.9484 38.4334 33.4839 39.4854 33.4839 39.4854C33.4839 39.4854 29.2465 41.9577 27.6475 38.5386Z" fill="#B5E56B"/>
<path d="M32.1783 43.2467C32.1783 43.2467 31.7252 37.408 29.3001 32.8054C26.8749 28.2027 27.5145 28.834 27.5145 28.834L27.8343 28.7025L29.1402 28.1238L29.46 27.9923C29.46 27.9923 29.4333 27.0981 31.2455 31.9637C33.0577 36.8294 37.1085 41.0901 37.1085 41.0901C37.1085 41.0901 41.9055 45.2719 36.9752 47.4022H36.9486C32.0983 49.5326 32.1783 43.2467 32.1783 43.2467Z" fill="#D8F4AA"/>
<path d="M29.6999 28.1239L27.2214 22.5745C26.9283 21.9433 26.9283 21.2332 27.1681 20.6019L27.6212 19.4184C27.6745 19.3132 27.6212 19.1817 27.4879 19.1554C27.3813 19.1028 27.2481 19.1554 27.2214 19.2606L26.6618 20.5756C26.3953 21.2069 26.3953 21.917 26.6618 22.5482L29.1402 28.3343L29.6999 28.1239Z" fill="#D8F4AA"/>
<path d="M31.2717 25.9933C31.4049 25.5462 31.6714 25.1517 32.0179 24.8624C32.0179 24.652 32.0179 24.4153 31.9379 24.2049L31.6714 23.3369C31.6448 23.258 31.6981 23.1791 31.778 23.1528C31.858 23.1265 31.9379 23.1791 31.9646 23.258L32.2844 24.2049C32.3377 24.3364 32.3643 24.4679 32.3643 24.6257L33.457 24.0208C33.5369 23.9682 33.6435 23.9945 33.6968 24.0997C33.7501 24.1786 33.7235 24.3101 33.6435 24.3364L32.6841 24.8887C32.1511 25.178 31.778 25.6777 31.6181 26.2563L30.259 31.3849L29.7793 31.2534L31.2717 25.9933Z" fill="#D8F4AA"/>
<path d="M33.7768 28.4132C34.0167 27.9924 34.3898 27.6768 34.8162 27.4927C34.8961 27.2823 34.9228 27.0719 34.8961 26.8352L34.8428 25.9146C34.8428 25.8357 34.8961 25.7568 34.9761 25.7568C35.056 25.7568 35.136 25.8094 35.136 25.8883L35.2159 26.9141C35.2159 27.0456 35.2159 27.2034 35.1893 27.3349L36.4152 27.0193C36.5218 26.993 36.6017 27.0456 36.655 27.1508C36.6817 27.256 36.6284 27.3612 36.5218 27.3875L35.4291 27.7031C34.8428 27.8609 34.3365 28.2554 34.0433 28.7814L31.3783 33.4892L30.9253 33.2525L33.7768 28.4132Z" fill="#D8F4AA"/>
<path d="M24.8227 28.8072C24.3963 28.5968 23.9166 28.5179 23.4635 28.5968C23.3036 28.4653 23.1437 28.3075 23.0371 28.0971L22.5841 27.3344C22.5308 27.2555 22.4508 27.2292 22.3709 27.2818C22.2909 27.3344 22.2643 27.4133 22.3176 27.4922L22.8239 28.3601C22.9039 28.4916 22.9838 28.5968 23.0638 28.702L21.8645 29.0965C21.7579 29.1228 21.7313 29.228 21.7579 29.3332C21.7846 29.4384 21.8912 29.491 21.9978 29.4647L23.0638 29.1228C23.6501 28.9387 24.263 28.9913 24.796 29.2806L29.5397 31.7266L29.7795 31.2795L24.8227 28.8072Z" fill="#D8F4AA"/>
<path d="M24.956 32.253C24.4763 32.1478 23.9966 32.2004 23.5702 32.3845C23.357 32.3056 23.1704 32.1741 23.0105 32.0163L22.3709 31.3588C22.3176 31.3062 22.211 31.3062 22.1577 31.3588C22.1044 31.4114 22.1044 31.5166 22.1577 31.5692L22.8773 32.3056C22.9839 32.4108 23.0905 32.4897 23.1971 32.5686L22.1311 33.2524C22.0511 33.305 22.0245 33.4102 22.0778 33.5154C22.1311 33.5943 22.2377 33.6206 22.3443 33.568L23.3303 32.9631C23.8633 32.6475 24.4763 32.5423 25.0892 32.6738L30.3926 33.9099L30.4992 33.4102L24.956 32.253Z" fill="#D8F4AA"/>
<path d="M27.4878 29.0965L25.0093 23.547C24.7162 22.9158 24.2098 22.4424 23.5702 22.1794L22.371 21.7323C22.2644 21.6797 22.2111 21.5745 22.2377 21.4693C22.291 21.3641 22.3976 21.3115 22.5042 21.3378L23.8634 21.8375C24.5296 22.0742 25.0626 22.5476 25.3558 23.1788L28.0208 28.886L27.4878 29.0965Z" fill="#D8F4AA"/>
<path d="M28.3139 28.7281L21.7047 13.8419C21.4115 13.2107 20.9052 12.7373 20.2656 12.4743L19.0663 12.0272C18.9597 11.9746 18.9064 11.8694 18.9331 11.7642C18.9864 11.659 19.093 11.6064 19.1996 11.6327L20.5587 12.1324C21.225 12.3691 21.758 12.8425 22.0511 13.4737L28.8469 28.5177L28.3139 28.7281Z" fill="#D8F4AA"/>
<path d="M23.4106 14.6838C23.1708 15.2624 23.1974 15.9463 23.4639 16.5249L23.8637 17.4191L23.4639 17.6032L22.9842 16.5249C22.7444 15.9463 22.7177 15.2887 22.9842 14.6838L23.4906 13.4477C23.5439 13.3425 23.6505 13.3162 23.7304 13.3425C23.837 13.3688 23.8903 13.5003 23.837 13.5792L23.4106 14.6838Z" fill="#D8F4AA"/>
<path d="M36.7886 46.8762C37.9079 46.4028 38.5208 45.7716 38.6541 45.0352C38.8673 43.6676 37.3749 42.0106 36.7886 41.4846L36.7619 41.4583L36.7353 41.432C36.5754 41.2479 32.5779 37.0398 30.7391 32.1216C30.2061 30.7014 29.8596 29.8071 29.6198 29.2285C29.4865 28.8866 29.0868 28.7288 28.7403 28.8866C28.3939 29.0444 28.2606 29.4126 28.3939 29.7545C28.6604 30.3068 29.0868 31.1748 29.8063 32.5161C32.2581 37.1713 32.7378 42.9312 32.7644 43.1679V43.1942V43.2205C32.7644 44.0095 32.9777 46.2187 34.1503 46.9815C34.7632 47.4286 35.6426 47.376 36.7886 46.8762Z" fill="#CEEA96"/>
<path d="M80.6015 32.6077C80.6015 39.1566 77.6434 44.2326 72.873 47.678C69.7283 50.6237 68.9022 51.8072 61.4669 52.4121C59.3882 52.5699 56.5899 52.9118 54.3513 52.9118C51.2599 52.9118 48.3551 52.2017 45.5568 52.0702C32.8981 51.4653 28.1011 43.8907 28.1011 32.5814C28.1011 18.2213 39.8537 12.2773 54.3513 12.2773C55.9237 12.2773 57.4694 12.3562 58.9618 12.5404C61.8932 12.8823 64.6382 13.5135 67.1433 14.4866C68.9022 15.1704 70.5545 15.9857 72.0469 16.9589C77.2969 20.4305 80.6015 25.717 80.6015 32.6077Z" fill="#F58A22"/>
<path opacity="0.1" d="M73.9127 18.3535C73.6729 29.4787 67.1969 40.2357 55.2311 41.9978C47.2094 43.1024 37.9086 40.1831 31.2461 45.2328C33.9644 49.3094 38.5482 51.7816 45.5571 52.0972C48.3554 52.2288 51.2602 52.9389 54.3516 52.9389C56.5636 52.9389 59.3885 52.597 61.4672 52.4392C68.9025 51.8342 69.7287 50.6507 72.8734 47.705C77.6437 44.2597 80.6019 39.1573 80.6019 32.6348C80.6019 26.5593 78.0701 21.7726 73.9127 18.3535Z" fill="#F58A22"/>
<path opacity="0.1" d="M73.6993 18.1953C75.0051 25.3754 74.712 32.7396 70.0482 38.5783C61.9466 48.6515 47.7955 44.0752 36.2294 45.4428C34.7903 45.6532 33.5111 46.1266 32.4185 46.7841C35.2167 49.9402 39.4807 51.8338 45.5569 52.1232C48.3551 52.2547 51.26 52.9648 54.3514 52.9648C56.5633 52.9648 59.3882 52.6229 61.4669 52.4651C68.9023 51.8601 69.7284 50.6766 72.8731 47.7309C77.6435 44.2856 80.6016 39.1832 80.6016 32.6607C80.6016 26.48 77.9899 21.6144 73.6993 18.1953Z" fill="#F58A22"/>
<path d="M44.171 51.7278C39.7205 48.677 35.6697 41.418 35.6697 32.6336C35.6697 24.2174 38.3347 18.6942 42.4654 15.5645C39.1608 19.0624 37.1088 24.6119 37.1088 32.5547C37.0821 40.9183 40.52 48.2562 44.171 51.7278Z" fill="#DD710F"/>
<path d="M54.3513 51.7278C54.3513 51.7278 51.633 33.5541 53.8982 15.5645C53.8982 15.5645 55.4972 32.7125 54.3513 51.7278Z" fill="#DD710F"/>
<path d="M80.6013 32.6084C80.6013 39.1573 77.6431 44.2333 72.8728 47.6787C85.8247 32.7399 72.0466 16.9858 72.0466 16.9858C77.2967 20.4312 80.6013 25.7177 80.6013 32.6084Z" fill="#DD710F"/>
<path d="M71.887 32.6082C71.887 24.192 69.222 18.6688 65.0912 15.5391C65.2245 15.6706 65.3577 15.8284 65.4643 15.9599C67.6496 18.4584 68.8755 21.6408 69.1154 24.9284C69.6217 31.7403 69.2753 43.5229 61.9732 49.125C60.5074 50.2296 62.213 52.4915 63.6788 51.4131C63.7321 51.3605 63.7854 51.3342 63.8387 51.2816C63.892 51.229 63.9453 51.2027 63.9719 51.1501C68.2093 47.8889 71.887 40.9981 71.887 32.6082Z" fill="#DD710F"/>
<path opacity="0.5" d="M43.7449 21.6931C43.0253 23.4552 41.6395 24.5599 40.6535 24.1654C39.6674 23.7708 39.4542 22.035 40.1738 20.2729C40.8933 18.5107 42.2791 17.4061 43.2652 17.8006C44.2512 18.1951 44.4644 19.931 43.7449 21.6931Z" fill="white"/>
<path opacity="0.5" d="M59.5213 20.1411C59.6546 21.8244 59.015 23.2709 58.0556 23.3498C57.0962 23.4287 56.2167 22.1137 56.0835 20.4304C55.9502 18.7472 56.5898 17.3007 57.5492 17.2218C58.5086 17.1692 59.3881 18.4579 59.5213 20.1411Z" fill="white"/>
<path opacity="0.5" d="M40.8129 26.8213C40.5464 27.4525 39.8535 27.7944 39.2672 27.5577C38.6809 27.321 38.4144 26.6109 38.6809 25.9797C38.9474 25.3485 39.6403 25.0066 40.2266 25.2433C40.8129 25.4537 41.0794 26.1638 40.8129 26.8213Z" fill="white"/>
<path opacity="0.5" d="M59.4414 25.9019C59.1749 26.5331 58.482 26.875 57.8957 26.6383C57.3094 26.4016 57.0429 25.6915 57.3094 25.0603C57.5759 24.4291 58.2688 24.0871 58.8551 24.3238C59.4414 24.5606 59.7079 25.2707 59.4414 25.9019Z" fill="white"/>
<path opacity="0.5" d="M36.7355 20.168C36.469 20.7992 35.7761 21.1411 35.1898 20.9044C34.6035 20.6677 34.337 19.9576 34.6035 19.3264C34.87 18.6952 35.5629 18.3533 36.1492 18.59C36.7355 18.8267 37.002 19.5368 36.7355 20.168Z" fill="white"/>
<path d="M50.9401 12.7251C50.9401 12.7251 47.4489 13.4615 47.6088 14.2768C47.7687 15.0922 55.9769 16.0916 59.0417 15.2237C62.0798 14.3557 61.5468 13.0144 55.4706 13.0144C49.3944 13.0144 50.9401 12.7251 50.9401 12.7251Z" fill="#DD710F"/>
<path d="M49.8476 14.566C49.8476 14.566 51.4199 14.6712 53.2588 15.0394C55.0976 15.4076 57.5494 15.3024 58.8286 14.7238C60.0812 14.1715 57.8959 11.8307 57.0431 10.9628C55.0443 8.93767 57.7893 0.705566 54.8045 0.705566C51.8197 0.705566 54.3514 7.75414 51.8463 10.9628C50.5138 12.6987 48.1153 14.0663 49.8476 14.566Z" fill="#1F4B18"/>
<g opacity="0.2">
<path d="M57.0695 10.936C55.7636 9.62099 56.4832 5.6233 56.2966 3.01953C55.4971 6.54382 56.8563 10.936 53.3651 12.2511C52.2192 12.6719 51.0732 12.9086 49.874 13.0138C49.1811 13.7502 48.8613 14.2762 49.8207 14.5392C49.8207 14.5392 51.393 14.6444 53.2319 15.0126C55.0707 15.3808 57.5225 15.2756 58.8017 14.697C60.0809 14.1447 57.9223 11.8039 57.0695 10.936Z" fill="#1F4B18"/>
</g>
<g opacity="0.2">
<path d="M57.0697 10.9365C56.9631 10.8313 56.8565 10.6998 56.7766 10.542C56.5634 11.594 56.137 12.4619 54.991 12.9354C53.1522 13.7244 51.2867 14.1452 49.3945 14.3293C49.5011 14.4082 49.6344 14.4871 49.8476 14.5397C49.8476 14.5397 51.4199 14.6449 53.2588 15.0131C55.0976 15.3813 57.5494 15.2761 58.8286 14.6975C60.0812 14.1452 57.9225 11.8044 57.0697 10.9365Z" fill="#1F4B18"/>
</g>
<path d="M27.7812 34.7261C27.7812 34.7261 9.17952 51.0062 6.32797 45.4041C4.24927 41.3801 20.106 35.6729 27.7812 34.7261Z" fill="#D62918"/>
<path opacity="0.2" d="M17.574 40.1962C15.3088 43.3523 9.89885 46.5083 6.2478 44.0361C6.06125 44.5095 6.0879 44.9829 6.3011 45.43C9.1793 51.032 27.7543 34.752 27.7543 34.752C25.7556 34.9887 23.1972 35.5673 20.5588 36.3563C19.5195 37.5661 18.5334 38.9338 17.574 40.1962Z" fill="#D62918"/>
<path opacity="0.2" d="M12.244 45.0355C10.4585 45.7193 8.2732 45.956 6.2478 45.2722C6.27445 45.3248 6.3011 45.3774 6.3011 45.43C9.1793 51.032 27.7543 34.752 27.7543 34.752C27.4345 34.7783 27.0881 34.8309 26.7416 34.8835C21.6248 37.4083 17.7606 42.7999 12.244 45.0355Z" fill="#D62918"/>
<path opacity="0.2" d="M18.8265 37.7764C18.8265 37.7764 13.3899 41.9056 9.87207 42.2475C9.87207 42.2212 12.164 40.985 18.8265 37.7764Z" fill="white"/>
<path d="M6.88748 46.114C6.88748 46.114 7.31388 45.9299 6.16793 44.457C6.14128 44.457 5.60829 45.6406 6.88748 46.114Z" fill="#146D16"/>
<path d="M6.5943 45.6935L6.56765 45.7198C6.46105 45.7987 3.6628 47.7976 0.304903 46.9297C0.091703 46.8771 -0.041547 46.6667 0.0117529 46.43C0.0650529 46.2196 0.278253 46.088 0.518103 46.1406C3.47625 46.9034 6.0613 45.0886 6.08795 45.0623C6.2745 44.9308 6.51435 44.9834 6.6476 45.1412C6.7542 45.3516 6.72755 45.562 6.5943 45.6935Z" fill="#187D1F"/>
<path d="M6.08788 45.0882C6.06123 45.0882 4.88863 45.9298 3.23633 46.2454C3.36958 46.2717 3.50283 46.298 3.63608 46.3243C4.03583 46.4032 4.35563 46.5347 4.59548 46.7188C5.74143 46.3243 6.51428 45.7983 6.56758 45.7457L6.59423 45.7194C6.75413 45.5879 6.78078 45.3512 6.64753 45.1934C6.51428 44.983 6.24778 44.9567 6.08788 45.0882Z" fill="#146D16"/>
<path d="M29.007 37.5125C28.7938 42.5359 31.8852 46.7177 35.936 46.9018C39.9601 47.0596 43.398 43.1408 43.6112 38.1174C43.8244 33.0939 40.8129 26.8607 36.7621 26.7029C32.738 26.5188 29.2202 32.489 29.007 37.5125Z" fill="#E0B87D"/>
<path opacity="0.2" d="M34.2567 27.3608C33.2973 33.8834 34.1768 41.5895 40.9459 44.088C41.0791 44.1407 41.2124 44.1933 41.3456 44.2459C39.9332 45.9554 38.0144 46.9811 35.909 46.9022C31.8849 46.7444 28.7668 42.5363 28.98 37.5129C29.1666 33.5678 31.3785 29.0441 34.2567 27.3608Z" fill="#E0B87D"/>
<path opacity="0.3" d="M33.9904 27.5459C31.965 30.7546 31.6985 35.3309 32.498 38.9604C32.7912 40.4069 33.4841 41.4852 34.8965 42.2743C37.0552 43.3789 39.2938 43.9575 41.5057 44.1153C40.0933 45.9301 38.0945 47.0084 35.9359 46.9295C31.9117 46.7717 28.7937 42.5636 29.0069 37.5401C29.1668 33.7003 31.2455 29.3343 33.9904 27.5459Z" fill="#E0B87D"/>
<path opacity="0.5" d="M40.1732 29.9388C40.1732 29.9388 43.3979 34.6729 41.1859 35.8301C38.9473 36.9611 37.8813 28.0452 40.1732 29.9388Z" fill="white"/>
<path d="M20.2925 47.5335C24.5032 50.3477 29.7532 49.9268 32.0185 46.613C34.2837 43.2991 32.6847 38.3546 28.4474 35.5667C24.21 32.7788 17.2544 32.0424 15.0158 35.3563C12.7772 38.6439 16.0818 44.7456 20.2925 47.5335Z" fill="#E0B87D"/>
<path opacity="0.2" d="M14.2957 37.8037C19.4125 42.0381 26.5547 45.3257 32.2578 40.9335C32.3644 40.8546 32.4976 40.7494 32.6042 40.6705C33.3504 42.7482 33.2172 44.9049 32.0446 46.6407C29.7793 49.9546 24.5559 50.3491 20.3186 47.5613C16.9873 45.352 14.2424 41.1176 14.2957 37.8037Z" fill="#E0B87D"/>
<path opacity="0.2" d="M14.2957 38.1191C16.0013 41.5119 19.8122 44.1157 23.3566 45.3518C24.7691 45.8515 26.0483 45.8515 27.4607 45.0625C29.5394 43.8264 31.2184 42.2483 32.4976 40.4599C33.3237 42.5903 33.2171 44.8521 32.0179 46.6143C29.7526 49.9281 24.5292 50.3226 20.2919 47.5348C17.0939 45.4044 14.4023 41.3804 14.2957 38.1191Z" fill="#E0B87D"/>
<path opacity="0.5" d="M19.5995 34.2C19.5995 34.2 25.3826 33.9633 25.196 36.4355C25.0361 38.8815 16.7746 35.1205 19.5995 34.2Z" fill="white"/>
<path d="M35.9359 51.3209C35.9359 51.3209 11.0981 50.8475 12.8303 44.8247C14.0562 40.4588 29.6465 46.8761 35.9359 51.3209Z" fill="#D62918"/>
<path opacity="0.2" d="M24.6895 48.5065C20.8519 49.2955 14.7224 48.0068 13.7363 43.7461C13.2833 43.9828 12.9635 44.3247 12.8302 44.7981C11.098 50.821 35.9358 51.2944 35.9358 51.2944C34.3101 50.1371 32.0182 48.8484 29.5398 47.6386C27.9141 47.8753 26.2618 48.2172 24.6895 48.5065Z" fill="#D62918"/>
<path opacity="0.2" d="M17.4405 48.5064C15.6816 47.7963 13.896 46.5338 12.8567 44.6665C12.83 44.7191 12.83 44.7717 12.8034 44.8243C11.0711 50.8472 35.9089 51.3206 35.9089 51.3206C35.6424 51.1365 35.3759 50.9524 35.0561 50.742C29.5662 49.1902 23.037 50.5578 17.4405 48.5064Z" fill="#D62918"/>
<path opacity="0.2" d="M27.2476 47.5596C27.2476 47.5596 20.4252 46.9546 17.6003 44.8506C17.6003 44.8506 20.1587 45.4555 27.2476 47.5596Z" fill="white"/>
<path d="M12.7502 45.6929C12.7502 45.6929 13.2033 45.8507 13.3365 43.9834C13.3632 43.9834 12.1373 44.5094 12.7502 45.6929Z" fill="#146D16"/>
<path d="M12.8304 45.2192C12.8037 45.2192 12.8037 45.2192 12.7771 45.2192C12.6438 45.1929 9.20597 44.7984 7.34047 41.9316C7.20722 41.7475 7.26052 41.4845 7.47372 41.3793C7.66027 41.2478 7.92677 41.3004 8.03337 41.5108C9.68567 44.062 12.8304 44.4302 12.8837 44.4565C13.0969 44.4828 13.2568 44.6932 13.2301 44.9036C13.2035 45.0614 13.0169 45.2192 12.8304 45.2192Z" fill="#187D1F"/>
<path d="M12.8567 44.4046C12.8301 44.4046 11.4176 44.2205 9.97852 43.3525C10.0585 43.4577 10.1384 43.5629 10.2184 43.6681C10.4582 43.9838 10.5915 44.2994 10.6714 44.615C11.7907 45.0884 12.7235 45.1936 12.7768 45.2199C12.8034 45.2199 12.8034 45.2199 12.8301 45.2199C13.0433 45.2199 13.2032 45.0621 13.2298 44.8517C13.2565 44.6413 13.0966 44.4309 12.8567 44.4046Z" fill="#146D16"/>
<path d="M89.8229 10.7503C89.9828 10.3295 90.3559 10.0402 90.809 10.0139C90.809 9.98759 90.809 9.98759 90.8356 9.98759C90.5691 9.69828 90.4892 9.27747 90.6224 8.88296C90.7823 8.43585 91.2087 8.14654 91.6617 8.14654C91.6884 8.14654 91.7151 8.12024 91.7151 8.09394C91.6618 7.90983 91.6884 7.69943 91.7417 7.48902C91.9549 6.91041 92.5945 6.6211 93.1808 6.80521C93.2075 6.80521 93.2075 6.83151 93.2341 6.83151C93.2075 6.5948 93.2607 6.3581 93.394 6.14769C93.6338 5.77948 94.0602 5.59538 94.4866 5.67428C94.8864 5.75318 95.2062 6.01619 95.3128 6.3581C95.3661 6.4633 95.4727 6.5159 95.606 6.4896C95.8192 6.4107 96.0856 6.4107 96.3255 6.5422C96.6719 6.7263 96.8585 7.09451 96.7785 7.46272C96.7519 7.69943 96.6186 7.88353 96.4587 8.01504C96.4587 8.01504 96.4587 8.01504 96.4854 8.01504C97.0717 8.22544 97.3648 8.85666 97.1783 9.43527C97.125 9.61938 96.9917 9.77718 96.8585 9.88238C96.8052 9.90868 96.8052 9.98759 96.8585 10.0402C97.1783 10.3295 97.3115 10.8029 97.1516 11.2237C97.0184 11.5919 96.6986 11.8549 96.3521 11.9338C96.3521 11.9601 96.3255 11.9864 96.3255 12.0127C96.6186 12.302 96.7253 12.7492 96.5654 13.1437C96.4055 13.5645 96.0324 13.8538 95.606 13.8801C95.6859 14.1168 95.7126 14.3798 95.606 14.6428C95.4994 14.9584 95.2595 15.1951 94.9664 15.3003C94.9397 15.3529 94.9397 15.3792 94.9131 15.4318C95.0197 15.6685 95.0197 15.9578 94.9397 16.2208C94.8065 16.589 94.4867 16.8521 94.1136 16.931C94.0869 16.9836 94.0869 17.0099 94.0602 17.0362C94.1402 17.2729 94.1402 17.5359 94.0602 17.7726C93.9003 18.1671 93.5539 18.4564 93.1541 18.509C93.1275 18.5353 93.1275 18.5353 93.1275 18.5616C93.1275 18.6931 93.1009 18.8246 93.0742 18.9561C92.941 19.298 92.6478 19.561 92.328 19.6399C91.4219 20.7183 90.5691 21.3495 89.9562 21.1391C89.3432 20.9287 89.0767 19.9029 89.0767 18.509C88.8635 18.2197 88.8102 17.8515 88.9435 17.5096C88.9968 17.3781 89.0501 17.2729 89.1567 17.1677C89.1567 17.1414 89.1567 17.1414 89.1567 17.1151C88.8635 16.8258 88.7569 16.3786 88.9168 15.9841C88.9968 15.7474 89.1833 15.537 89.3965 15.4055C89.3965 15.3529 89.4232 15.3266 89.4232 15.274C89.1833 14.9847 89.1034 14.5902 89.2366 14.222C89.3432 13.959 89.5298 13.7486 89.743 13.6171C89.7696 13.5645 89.7696 13.5382 89.7962 13.4593C89.6363 13.1963 89.6097 12.8544 89.7163 12.5387C89.7963 12.2757 89.9828 12.0916 90.2227 11.9601C89.7963 11.6182 89.663 11.1711 89.8229 10.7503Z" fill="#84B235"/>
<path opacity="0.2" d="M96.8583 9.85605C96.9916 9.72455 97.0982 9.59305 97.1781 9.40894C97.3913 8.83033 97.0715 8.19911 96.4852 7.98871C96.4852 7.98871 96.4852 7.98871 96.4586 7.98871C96.6185 7.8572 96.7517 7.6731 96.7784 7.43639C96.8317 7.06818 96.6451 6.69997 96.3253 6.51587C96.0855 6.38437 95.819 6.38437 95.6058 6.46327C95.4992 6.51587 95.3659 6.46327 95.3126 6.33177C95.1794 5.98986 94.8862 5.72685 94.4865 5.64795C94.4598 5.64795 94.4332 5.64795 94.3799 5.64795C95.7657 8.83033 95.4992 12.5124 93.0474 15.1162C91.8481 16.5101 90.4623 17.6147 88.9966 18.509C88.9966 19.9029 89.2631 20.9286 89.876 21.139C90.489 21.3494 91.3418 20.7182 92.2479 19.6399C92.5943 19.5347 92.8875 19.298 92.9941 18.9561C93.0474 18.8246 93.0474 18.6931 93.0474 18.5616C93.074 18.5353 93.074 18.5353 93.074 18.509C93.4738 18.4564 93.8469 18.1934 93.9801 17.7725C94.0601 17.5358 94.0601 17.2728 93.9801 17.0361C94.0068 16.9835 94.0068 16.9572 94.0334 16.9309C94.4065 16.852 94.7263 16.589 94.8596 16.2208C94.9662 15.9578 94.9395 15.6685 94.8329 15.4318C94.8596 15.3792 94.8596 15.3529 94.8862 15.3003C95.1794 15.1951 95.4192 14.9584 95.5258 14.6428C95.6058 14.3798 95.6058 14.1168 95.5258 13.8801C95.9522 13.8538 96.352 13.5644 96.4852 13.1436C96.6451 12.7228 96.5119 12.302 96.2454 12.0127C96.2454 11.9864 96.272 11.9601 96.272 11.9338C96.6451 11.8549 96.9383 11.5919 97.0715 11.2237C97.2314 10.8029 97.0982 10.3295 96.7784 10.0402C96.805 9.96126 96.805 9.88235 96.8583 9.85605Z" fill="#84B235"/>
<path d="M83.054 13.9062C83.0806 13.5117 83.3471 13.1698 83.6936 13.0646C83.6936 13.0383 83.6936 13.0383 83.6936 13.0383C83.4004 12.8542 83.2405 12.5123 83.2405 12.1704C83.2672 11.7496 83.5603 11.4076 83.9334 11.3024C83.9601 11.3024 83.9867 11.2761 83.9601 11.2498C83.8801 11.092 83.8268 10.9079 83.8535 10.7238C83.8801 10.1978 84.3598 9.77701 84.9195 9.80331C84.9461 9.80331 84.9461 9.80331 84.9728 9.80331C84.8928 9.6192 84.8662 9.4088 84.9461 9.17209C85.0527 8.80388 85.3725 8.54088 85.7723 8.51458C86.1454 8.48828 86.4652 8.64608 86.6517 8.88279C86.705 8.96169 86.8383 8.98799 86.9182 8.90909C87.0781 8.77758 87.318 8.72498 87.5578 8.77758C87.8776 8.85648 88.1441 9.11949 88.1708 9.4351C88.1974 9.6455 88.1441 9.82961 88.0375 9.98741C88.0375 9.98741 88.0375 9.98741 88.0642 9.98741C88.5972 10.0137 89.0236 10.4871 88.9969 11.0394C88.9969 11.1972 88.9436 11.355 88.837 11.5129C88.8104 11.5655 88.837 11.6181 88.8637 11.6444C89.2101 11.8285 89.4233 12.1704 89.3967 12.5912C89.37 12.9331 89.1835 13.2224 88.8903 13.3802C88.8903 13.4065 88.8903 13.4328 88.8903 13.4591C89.2101 13.6432 89.3967 13.9851 89.37 14.3533C89.3434 14.7478 89.0769 15.0634 88.7304 15.1949C88.8637 15.379 88.9436 15.5895 88.917 15.8525C88.8903 16.1418 88.7571 16.4048 88.5172 16.5626C88.5172 16.6152 88.5172 16.6415 88.4906 16.6941C88.6238 16.8782 88.7038 17.1149 88.7038 17.3516C88.6771 17.6935 88.4639 17.9828 88.1974 18.1406C88.1974 18.1932 88.1708 18.2195 88.1708 18.2458C88.304 18.4299 88.3573 18.6403 88.3573 18.877C88.3307 19.2452 88.0908 19.5608 87.771 19.7187C87.771 19.745 87.771 19.745 87.7444 19.7713C87.771 19.8765 87.7977 20.008 87.7977 20.1132C87.771 20.4551 87.5845 20.7181 87.318 20.8759C86.8116 22.0068 86.252 22.7432 85.6657 22.6906C85.106 22.6643 84.6263 21.849 84.2799 20.6655C84.04 20.4814 83.8801 20.1658 83.9068 19.8502C83.9068 19.7187 83.9334 19.6135 83.9867 19.5082C83.9867 19.4819 83.9867 19.4819 83.9601 19.4556C83.6403 19.2715 83.4537 18.9296 83.4804 18.5614C83.507 18.3247 83.587 18.1143 83.7469 17.9565C83.7469 17.9039 83.7469 17.8776 83.7469 17.8513C83.4804 17.6672 83.3205 17.3516 83.3471 16.9834C83.3738 16.7467 83.4804 16.51 83.6403 16.3522C83.6403 16.2996 83.6403 16.2733 83.6403 16.2207C83.4537 16.0366 83.3205 15.7473 83.3471 15.4579C83.3738 15.2212 83.4537 15.0108 83.6136 14.853C83.2405 14.6426 83.0273 14.3007 83.054 13.9062Z" fill="#6B8F25"/>
<path opacity="0.2" d="M88.8636 13.4063C88.8636 13.38 88.8636 13.3537 88.8636 13.3274C89.1568 13.1696 89.3433 12.8802 89.37 12.5383C89.3966 12.1438 89.1834 11.7756 88.837 11.5915C88.7837 11.5652 88.7837 11.5126 88.8103 11.46C88.8903 11.3285 88.9436 11.1707 88.9702 10.9866C88.9969 10.4606 88.5971 9.98718 88.0375 9.93458C88.0375 9.93458 88.0375 9.93458 88.0108 9.93458C88.1174 9.77677 88.1707 9.59267 88.1441 9.38226C88.1174 9.06666 87.8509 8.77735 87.5311 8.72475C87.2913 8.67215 87.0781 8.72475 86.8915 8.85625C87.9042 11.197 88.0108 13.9586 87.1847 16.4045C86.5984 18.1667 85.639 19.771 84.4131 21.2176C84.7329 22.0592 85.1326 22.6115 85.6123 22.6641C86.172 22.6904 86.7583 21.954 87.2646 20.8493C87.5311 20.6915 87.7177 20.4022 87.7443 20.0866C87.7443 19.9551 87.7443 19.8499 87.691 19.7447C87.691 19.7184 87.691 19.7184 87.7177 19.6921C88.0375 19.5606 88.304 19.245 88.304 18.8505C88.3306 18.6138 88.2507 18.4034 88.1174 18.2193C88.1174 18.1667 88.1441 18.1404 88.1441 18.1141C88.4372 17.9563 88.6504 17.667 88.6504 17.3251C88.6771 17.0884 88.5971 16.8516 88.4372 16.6675C88.4372 16.6149 88.4372 16.5886 88.4639 16.536C88.6771 16.3782 88.837 16.1152 88.8636 15.8259C88.8903 15.5892 88.8103 15.3525 88.6771 15.1684C89.0235 15.0369 89.29 14.7213 89.3167 14.3268C89.37 13.9323 89.1568 13.5904 88.8636 13.4063Z" fill="#6B8F25"/>
<path d="M84.4931 26.7147C84.4931 26.7147 87.851 17.8777 86.6518 13.5381C86.6518 13.5381 86.332 19.8239 83.8535 26.2676L84.4931 26.7147Z" fill="#782445"/>
<path d="M98.9639 24.5836C99.337 24.4258 99.5502 24.0576 99.5502 23.6893C99.5769 23.6893 99.5769 23.6893 99.5769 23.663C99.8434 23.8471 100.243 23.8997 100.563 23.7682C100.963 23.5841 101.176 23.2159 101.149 22.8214C101.149 22.7951 101.176 22.7688 101.203 22.7688C101.389 22.7951 101.576 22.7688 101.736 22.6899C102.242 22.4532 102.455 21.8746 102.215 21.4012C102.215 21.3749 102.189 21.3749 102.189 21.3486C102.402 21.3486 102.615 21.296 102.802 21.1382C103.095 20.9015 103.255 20.507 103.148 20.1388C103.041 19.7968 102.802 19.5601 102.482 19.4549C102.375 19.4286 102.322 19.3234 102.348 19.2182C102.402 19.0078 102.375 18.7974 102.242 18.587C102.055 18.324 101.709 18.1662 101.389 18.2451C101.176 18.2977 101.016 18.4292 100.936 18.5607C100.936 18.5607 100.936 18.5607 100.936 18.5344C100.696 18.0347 100.11 17.8243 99.6302 18.061C99.4703 18.1399 99.337 18.2451 99.2571 18.3766C99.2304 18.4292 99.1505 18.4292 99.1238 18.4029C98.8307 18.1399 98.4309 18.061 98.0578 18.2451C97.738 18.3766 97.5248 18.6922 97.4982 19.0078C97.4715 19.0078 97.4715 19.0341 97.4182 19.0341C97.1251 18.8237 96.752 18.7448 96.3789 18.9026C96.0058 19.0604 95.7926 19.4286 95.7926 19.7968C95.5794 19.7442 95.3395 19.7442 95.1263 19.8494C94.8598 19.981 94.6733 20.1914 94.5933 20.4544C94.54 20.4807 94.5134 20.507 94.4601 20.507C94.2469 20.4544 93.9804 20.4544 93.7672 20.5596C93.4474 20.7174 93.2342 21.0067 93.2075 21.3223C93.1809 21.3486 93.1542 21.3486 93.1009 21.3749C92.8877 21.3223 92.6479 21.3486 92.4347 21.4275C92.0882 21.5853 91.875 21.9272 91.8484 22.2691C91.8484 22.2954 91.8217 22.2954 91.8217 22.2954C91.7151 22.2954 91.5819 22.3217 91.4753 22.3743C91.1821 22.5058 90.9689 22.7951 90.9156 23.0844C90.0362 23.9524 89.5298 24.7414 89.7697 25.2411C90.0095 25.7408 90.9423 25.8986 92.1682 25.7934C92.4347 25.9512 92.7811 25.9775 93.0743 25.846C93.1809 25.7934 93.2875 25.7145 93.3674 25.6356C93.3941 25.6356 93.3941 25.6356 93.4207 25.6356C93.7139 25.846 94.087 25.9249 94.4601 25.7671C94.6733 25.6619 94.8332 25.5041 94.9398 25.32C94.9931 25.32 94.9931 25.2937 95.0464 25.2937C95.3129 25.4778 95.686 25.5041 96.0058 25.3726C96.2456 25.2674 96.4055 25.0833 96.4855 24.8729C96.5388 24.8466 96.5654 24.8466 96.6187 24.8203C96.8586 24.9255 97.1784 24.9518 97.4449 24.8203C97.6581 24.7151 97.8446 24.5573 97.9246 24.3469C98.1911 24.6888 98.6175 24.7677 98.9639 24.5836Z" fill="#6B8F25"/>
<path opacity="0.2" d="M103.148 20.166C103.041 19.8241 102.802 19.5874 102.482 19.4822C102.375 19.4559 102.322 19.3507 102.348 19.2455C102.402 19.0351 102.375 18.8246 102.242 18.6142C102.055 18.3512 101.709 18.1934 101.389 18.2723C101.309 18.2986 101.229 18.3249 101.149 18.3775C100.696 19.5874 99.9766 20.6657 99.0972 21.5336C96.7786 23.7692 93.9804 25.1894 91.0222 25.8995C91.342 25.9258 91.7151 25.9258 92.1149 25.8732C92.3814 26.031 92.7278 26.0573 93.021 25.9258C93.1276 25.8732 93.2342 25.7943 93.3141 25.7154C93.3408 25.7154 93.3408 25.7154 93.3674 25.7154C93.6606 25.9258 94.0337 26.0047 94.4068 25.8469C94.62 25.7417 94.7799 25.5839 94.8865 25.3998C94.9398 25.3998 94.9398 25.3735 94.9931 25.3735C95.2596 25.5576 95.6327 25.5839 95.9525 25.4524C96.1923 25.3472 96.3522 25.1631 96.4322 24.9527C96.4855 24.9264 96.5121 24.9264 96.5654 24.9001C96.8053 25.0053 97.1251 25.0316 97.3916 24.9001C97.6048 24.7949 97.7913 24.6371 97.8713 24.4267C98.1644 24.6634 98.5642 24.7423 98.9373 24.5845C99.3104 24.4267 99.5236 24.0585 99.5236 23.6903C99.5502 23.6903 99.5502 23.6903 99.5502 23.664C99.8167 23.8481 100.216 23.9007 100.536 23.7692C100.936 23.5851 101.149 23.2169 101.123 22.8223C101.123 22.796 101.149 22.7697 101.176 22.7697C101.362 22.796 101.549 22.7697 101.709 22.6908C102.215 22.4541 102.428 21.8755 102.189 21.4021C102.189 21.3758 102.162 21.3758 102.162 21.3495C102.375 21.3495 102.588 21.2969 102.775 21.1391C103.095 20.9287 103.255 20.5342 103.148 20.166Z" fill="#6B8F25"/>
<path d="M86.3315 27.8185C86.3315 27.8185 93.5004 21.5853 98.0309 21.1382C98.0309 21.1382 92.1945 23.663 86.9711 28.2657L86.3315 27.8185Z" fill="#782445"/>
<path d="M86.412 26.95C86.412 26.95 93.7407 15.1673 93.7674 10.6699C93.7674 10.6699 89.8232 21.0061 85.6658 26.5555L86.412 26.95Z" fill="#782445"/>
<path d="M72.7403 28.0818C69.2758 33.0264 74.2594 42.5209 74.2594 42.5209C74.2594 42.5209 84.8394 43.9674 88.4638 38.7862C91.4486 34.4992 90.356 28.6342 86.012 25.6885C81.6947 22.7165 75.7518 23.7948 72.7403 28.0818Z" fill="#782445"/>
<g opacity="0.2">
<path d="M87.3447 26.7402C87.5046 30.5801 85.879 34.2096 81.8015 35.3142C78.4436 36.3137 75.1657 36.2085 71.8611 35.7351C72.6073 39.3645 74.2596 42.5206 74.2596 42.5206C74.2596 42.5206 84.8396 43.9672 88.464 38.7859C91.129 34.946 90.5427 29.8963 87.3447 26.7402Z" fill="#782445"/>
</g>
<g opacity="0.2">
<path d="M88.1171 27.582C88.2503 29.2916 87.9572 31.08 87.4242 32.6318C86.5181 34.841 84.4927 37.287 81.5878 37.9708C78.3632 38.7861 75.2185 38.602 72.3669 37.6815C73.1664 40.4167 74.2591 42.5208 74.2591 42.5208C74.2591 42.5208 84.8391 43.9673 88.4635 38.7861C90.8887 35.2881 90.6222 30.7381 88.1171 27.582Z" fill="#782445"/>
</g>
<path d="M92.0914 51.5995C94.3668 47.2334 91.6382 41.3726 85.9969 38.5091C80.3555 35.6455 73.9376 36.8636 71.6621 41.2297C69.3866 45.5958 72.1152 51.4566 77.7566 54.3201C83.398 57.1837 89.8159 55.9656 92.0914 51.5995Z" fill="#FFF019"/>
<path d="M90.7722 42.4404C89.4131 46.3066 86.2684 49.3838 82.5374 50.0939C79.0995 50.7514 75.6617 50.4884 72.4104 49.5679C73.6096 51.4616 75.4218 53.1448 77.7404 54.3283C83.3635 57.1951 89.7862 55.959 92.0781 51.5931C93.5438 48.7526 92.9309 45.3072 90.7722 42.4404Z" fill="#FFF019"/>
<path d="M92.078 51.592C89.8127 55.9579 83.3901 57.194 77.7403 54.3273C75.7682 53.3278 74.1692 51.9602 72.9966 50.4348C73.4496 50.7241 73.9293 50.9871 74.409 51.2501C80.8317 54.5114 88.1071 53.1174 90.7188 48.1466C91.4384 46.779 91.7049 45.2798 91.6249 43.7544C93.064 46.3056 93.3305 49.1723 92.078 51.592Z" fill="#FFF019"/>
<path d="M92.2914 49.6458C92.2914 49.6458 92.6644 49.3039 93.1441 50.9082C93.6238 52.5125 91.8916 53.1964 91.0388 52.9334C90.186 52.6703 92.2914 49.6458 92.2914 49.6458Z" fill="#FFF019"/>
<path d="M92.2914 49.6458C92.2914 49.6458 92.6644 49.3039 93.1441 50.9082C93.6238 52.5125 91.8916 53.1964 91.0388 52.9334C90.186 52.6703 92.2914 49.6458 92.2914 49.6458Z" fill="#FFF019"/>
<path d="M92.2914 49.6458C92.2914 49.6458 92.6644 49.3039 93.1441 50.9082C93.6238 52.5125 91.8916 53.1964 91.0388 52.9334C90.186 52.6703 92.2914 49.6458 92.2914 49.6458Z" fill="#FFF019"/>
<path d="M72.9434 39.8089C72.9434 39.8089 73.0234 39.3091 71.4244 39.8615C69.8254 40.4138 70.2784 42.2022 70.9713 42.7282C71.6642 43.2805 72.9434 39.8089 72.9434 39.8089Z" fill="#FFF019"/>
<path d="M79.7124 39.9668C79.4193 40.5191 78.753 40.7296 78.22 40.4402C77.6604 40.1509 77.4472 39.4934 77.7403 38.9674C78.0335 38.4151 78.6997 38.2047 79.2327 38.494C79.7657 38.7833 79.9789 39.4408 79.7124 39.9668Z" fill="#FDFA6E"/>
<path d="M86.2153 41.5713C85.9488 42.3866 84.5897 42.6759 83.2039 42.2288C81.8181 41.7817 80.8853 40.756 81.1785 39.9407C81.445 39.1253 82.8041 38.836 84.1899 39.2831C85.5757 39.7303 86.4818 40.756 86.2153 41.5713Z" fill="#FDFA6E"/>
<path d="M36.3092 55.3193C36.3092 55.3193 34.9767 55.819 35.2165 57.6601C35.4564 59.5011 44.5973 59.4222 44.5973 59.4222L45.2369 56.5818L36.3092 55.3193Z" fill="#F3F3CD"/>
<path d="M36.3093 55.3193C36.3093 55.3193 35.7763 55.5297 35.4298 56.161C38.1215 57.9757 41.7992 58.1861 45.0238 57.5549L45.237 56.6081L36.3093 55.3193Z" fill="#E2E0AC"/>
<path d="M52.7256 57.6601C52.7256 57.6601 50.7002 58.5543 56.3234 59.4222C61.9465 60.2902 62.9326 57.6601 62.9326 57.6601L62.0531 55.3193L52.7256 57.6601Z" fill="#F3F3CD"/>
<path d="M52.7254 57.6601C52.7254 57.6601 52.5122 57.7653 52.4056 57.9231C55.9234 58.9751 59.6544 58.6595 62.6126 56.8711L62.0263 55.3193L52.7254 57.6601Z" fill="#E2E0AC"/>
<path d="M72.526 51.0585C72.526 51.0585 65.8368 40.8012 47.1019 41.4061C39.1868 41.6691 31.485 43.8784 24.5827 47.692C24.556 47.7183 24.5027 47.7446 24.4761 47.7446C23.1169 48.481 23.0636 50.4009 24.3695 51.2163C29.8594 54.7142 44.3836 61.1579 71.2734 55.214L72.526 51.0585Z" fill="#6B8AA6"/>
<path opacity="0.2" d="M64.6911 44.7988C64.6645 45.2459 64.5845 45.6931 64.4513 46.1139C64.0249 48.6387 62.1061 50.9532 59.9741 51.1636C49.2075 52.0315 37.5614 51.0321 27.9675 45.9824C26.8215 46.5084 25.6756 47.087 24.5829 47.6919C24.5563 47.7182 24.503 47.7445 24.4763 47.7445C23.1172 48.4809 23.0639 50.4009 24.3697 51.2162C29.8596 54.7142 44.3838 61.1578 71.2737 55.2139L72.5262 51.0321C72.5262 51.0584 70.261 47.5867 64.6911 44.7988Z" fill="#6B8AA6"/>
<path opacity="0.2" d="M35.9358 52.0054C31.7518 51.6109 27.3546 51.0323 23.6769 48.5337C23.1705 49.4279 23.3837 50.6114 24.3431 51.2427C29.833 54.7406 44.3572 61.1843 71.2471 55.2404L72.473 51.1901C71.5935 51.9265 70.6608 52.5051 69.5415 52.847C58.7216 56.8447 47.2088 53.2678 35.9358 52.0054Z" fill="#6B8AA6"/>
<path d="M35.2962 46.5616C35.0563 45.6411 34.6033 44.6153 33.937 43.6948C30.6857 44.7205 27.5677 46.0619 24.5829 47.7188C24.5563 47.7451 24.503 47.7714 24.4763 47.7714C23.1172 48.5078 23.0639 50.4278 24.3697 51.2431C26.2885 52.4529 29.2999 54.031 33.5373 55.3197C33.6439 55.1882 33.7238 55.083 33.8304 54.9515C35.5094 52.4266 36.149 49.2706 35.2962 46.5616Z" fill="#F3F3CD"/>
<path d="M35.2963 46.5609C35.0831 45.7456 34.71 44.8514 34.1503 44.0098C34.0437 46.219 33.2975 48.4283 32.0983 50.3482C31.2455 51.6106 30.1795 52.4523 28.6871 52.6627C28.0741 52.7416 27.4612 52.7416 26.8749 52.7153C28.6071 53.6095 30.8191 54.53 33.5107 55.3453C33.6173 55.2138 33.6973 55.1086 33.8039 54.9771C35.5095 52.426 36.1491 49.2699 35.2963 46.5609Z" fill="#E2E0AC"/>
<path d="M51.3395 54.531C51.3395 54.531 46.4892 50.4544 41.5323 51.9799C41.5323 51.9799 44.2506 57.1085 51.3395 54.531Z" fill="#F3F3CD"/>
<path opacity="0.2" d="M46.1161 51.9268C44.7037 51.5849 43.1313 51.4797 41.5323 51.9794C41.5323 51.9794 42.625 54.0572 45.2633 54.8988C44.5171 53.9257 45.0235 52.6106 46.1161 51.9268Z" fill="#E2E0AC"/>
<path opacity="0.2" d="M44.2243 52.8471C44.6507 51.5583 46.4629 52.2947 48.355 52.7155C46.5162 51.8739 44.0377 51.1901 41.506 51.9528C41.506 51.9528 42.3588 53.5572 44.3309 54.504C44.0377 54.0569 43.9578 53.5046 44.2243 52.8471Z" fill="#E2E0AC"/>
<path d="M72.5266 51.0586C72.5266 51.0586 81.481 47.4291 83.1066 48.4285C84.7056 49.4279 82.1739 51.0849 83.1066 53.4256C84.0394 55.7664 86.4379 58.186 83.1066 58.2386C79.7754 58.2912 71.274 55.2141 71.274 55.2141L72.5266 51.0586Z" fill="#6B8AA6"/>
<path opacity="0.2" d="M76.1508 54.5302C74.765 51.4268 79.9351 50.6641 83.2397 50.7167C83.6128 49.7435 83.9859 49.0071 83.0798 48.4285C81.4808 47.4291 72.4997 51.0586 72.4997 51.0586L71.2472 55.2404C71.2472 55.2404 79.7485 58.3175 83.0798 58.2649C84.5189 58.2386 84.892 57.7652 84.7587 57.0551C84.5189 56.9762 84.279 56.8973 84.0125 56.8447C81.2676 56.2135 77.2168 57.0551 76.1508 54.5302Z" fill="#6B8AA6"/>
<path opacity="0.2" d="M83.1066 48.4544C81.5076 47.455 72.5266 51.0844 72.5266 51.0844L71.274 55.2662C71.274 55.2662 71.8604 55.4767 72.7931 55.7923C73.2728 51.0055 79.0292 49.9798 83.3465 50.4795C83.6663 49.6116 83.9061 48.9541 83.1066 48.4544Z" fill="#6B8AA6"/>
<path d="M30.5791 47.7445C30.5791 48.3232 30.0994 48.7703 29.5397 48.7703C28.9534 48.7703 28.5004 48.2969 28.5004 47.7445C28.5004 47.1922 28.9801 46.7188 29.5397 46.7188C30.126 46.6925 30.5791 47.1659 30.5791 47.7445Z" fill="#0B1013"/>
<path d="M30.0463 47.4288C30.0463 47.5867 29.9131 47.692 29.7798 47.692C29.6466 47.692 29.5133 47.5604 29.5133 47.4288C29.5133 47.2972 29.6466 47.1655 29.7798 47.1655C29.9131 47.1655 30.0463 47.2708 30.0463 47.4288Z" fill="#F3F3CD"/>
<path d="M29.2198 48.2978C29.3081 48.2978 29.3797 48.2271 29.3797 48.1399C29.3797 48.0527 29.3081 47.9819 29.2198 47.9819C29.1315 47.9819 29.0599 48.0527 29.0599 48.1399C29.0599 48.2271 29.1315 48.2978 29.2198 48.2978Z" fill="#F3F3CD"/>
<path opacity="0.5" d="M57.8958 43.9836C57.8958 43.9836 47.4223 40.2489 39.001 43.9836C33.8042 46.035 65.1179 48.2443 57.8958 43.9836Z" fill="white"/>
<path d="M23.677 48.534C23.677 48.534 26.1022 49.2178 26.1022 49.849C26.1022 49.849 23.1973 49.2704 23.4372 48.7444C23.6237 48.2447 23.677 48.534 23.677 48.534Z" fill="#D1D0A7"/>
<path d="M26.1023 49.8486C26.1023 49.8486 23.9703 50.0592 23.4106 49.8486V50.1645C23.4106 50.1909 26.2089 50.0856 26.1023 49.8486Z" fill="#D1D0A7"/>
<path opacity="0.5" d="M53.5246 56.8187C53.5246 56.8187 50.6197 55.5025 47.5283 56.9766C47.1552 57.2399 47.7682 57.4768 49.5804 57.1609C51.3926 56.845 54.8304 57.7401 53.5246 56.8187Z" fill="white"/>
</svg>
