<svg width="140" height="143" viewBox="0 0 140 143" fill="none" xmlns="http://www.w3.org/2000/svg">
<rect width="140" height="143" rx="10" fill="#2B92D5" fill-opacity="0.2"/>
<path d="M50.75 19.06L53.746 27.082L56.728 19.06H58.394L54.488 29H53.004L49.084 19.06H50.75ZM61.7733 29.14C61.2039 29.14 60.6859 29.042 60.2193 28.846C59.7619 28.6407 59.3653 28.3653 59.0293 28.02C58.6933 27.6653 58.4319 27.264 58.2453 26.816C58.0679 26.3587 57.9793 25.8733 57.9793 25.36C57.9793 24.6693 58.1379 24.0393 58.4552 23.47C58.7726 22.8913 59.2159 22.4293 59.7853 22.084C60.3546 21.7293 61.0219 21.552 61.7873 21.552C62.5526 21.552 63.2106 21.7293 63.7613 22.084C64.3213 22.4293 64.7553 22.8867 65.0633 23.456C65.3713 24.0253 65.5253 24.6367 65.5253 25.29C65.5253 25.402 65.5206 25.5093 65.5113 25.612C65.5019 25.7053 65.4926 25.7847 65.4833 25.85H59.6173C59.6453 26.2793 59.7619 26.6573 59.9673 26.984C60.1819 27.3013 60.4526 27.5533 60.7793 27.74C61.1059 27.9173 61.4559 28.006 61.8293 28.006C62.2399 28.006 62.6273 27.9033 62.9913 27.698C63.3646 27.4927 63.6166 27.222 63.7473 26.886L65.0633 27.264C64.9046 27.6187 64.6619 27.9407 64.3353 28.23C64.0179 28.51 63.6399 28.734 63.2013 28.902C62.7626 29.0607 62.2866 29.14 61.7733 29.14ZM59.5753 24.828H63.9993C63.9713 24.408 63.8499 24.0393 63.6353 23.722C63.4299 23.3953 63.1639 23.1433 62.8373 22.966C62.5199 22.7793 62.1653 22.686 61.7733 22.686C61.3906 22.686 61.0359 22.7793 60.7093 22.966C60.3919 23.1433 60.1306 23.3953 59.9253 23.722C59.7199 24.0393 59.6033 24.408 59.5753 24.828ZM69.6794 29.07C69.1848 29.07 68.7321 28.972 68.3214 28.776C67.9108 28.5707 67.5561 28.2953 67.2574 27.95C66.9681 27.6047 66.7394 27.208 66.5714 26.76C66.4128 26.312 66.3334 25.8407 66.3334 25.346C66.3334 24.8233 66.4174 24.3333 66.5854 23.876C66.7534 23.4187 66.9868 23.0173 67.2854 22.672C67.5934 22.3173 67.9528 22.042 68.3634 21.846C68.7741 21.65 69.2314 21.552 69.7354 21.552C70.3234 21.552 70.8368 21.692 71.2754 21.972C71.7234 22.252 72.0921 22.616 72.3814 23.064V21.678H73.7394V28.79C73.7394 29.4993 73.5668 30.1013 73.2214 30.596C72.8854 31.0907 72.4234 31.4687 71.8354 31.73C71.2474 31.9913 70.5848 32.122 69.8474 32.122C69.0354 32.122 68.3634 31.982 67.8314 31.702C67.2994 31.422 66.8468 31.0393 66.4734 30.554L67.3414 29.742C67.6214 30.134 67.9808 30.4327 68.4194 30.638C68.8674 30.8433 69.3434 30.946 69.8474 30.946C70.2674 30.946 70.6548 30.8667 71.0094 30.708C71.3734 30.5587 71.6628 30.3207 71.8774 29.994C72.0921 29.6767 72.1994 29.2753 72.1994 28.79V27.67C71.9381 28.1087 71.5788 28.454 71.1214 28.706C70.6641 28.9487 70.1834 29.07 69.6794 29.07ZM70.1834 27.824C70.4168 27.824 70.6408 27.7867 70.8554 27.712C71.0701 27.628 71.2661 27.5207 71.4434 27.39C71.6301 27.25 71.7888 27.096 71.9194 26.928C72.0501 26.7507 72.1434 26.564 72.1994 26.368V24.45C72.0781 24.1327 71.9054 23.8573 71.6814 23.624C71.4574 23.3813 71.2054 23.1947 70.9254 23.064C70.6454 22.9333 70.3608 22.868 70.0714 22.868C69.7354 22.868 69.4321 22.9427 69.1614 23.092C68.9001 23.232 68.6761 23.4233 68.4894 23.666C68.3028 23.8993 68.1581 24.1653 68.0554 24.464C67.9528 24.7627 67.9014 25.0707 67.9014 25.388C67.9014 25.724 67.9574 26.0367 68.0694 26.326C68.1908 26.6153 68.3541 26.8767 68.5594 27.11C68.7648 27.334 69.0074 27.5113 69.2874 27.642C69.5674 27.7633 69.8661 27.824 70.1834 27.824ZM75.0541 26.858C75.0541 26.3913 75.1848 25.9853 75.4461 25.64C75.7168 25.2853 76.0854 25.0147 76.5521 24.828C77.0188 24.632 77.5601 24.534 78.1761 24.534C78.5028 24.534 78.8341 24.5573 79.1701 24.604C79.5154 24.6507 79.8188 24.7253 80.0801 24.828V24.366C80.0801 23.8527 79.9261 23.4513 79.6181 23.162C79.3101 22.8727 78.8668 22.728 78.2881 22.728C77.8774 22.728 77.4901 22.8027 77.1261 22.952C76.7621 23.092 76.3748 23.2927 75.9641 23.554L75.4461 22.518C75.9314 22.1913 76.4168 21.9487 76.9021 21.79C77.3968 21.6313 77.9148 21.552 78.4561 21.552C79.4361 21.552 80.2061 21.8133 80.7661 22.336C81.3354 22.8493 81.6201 23.582 81.6201 24.534V27.264C81.6201 27.4413 81.6481 27.5673 81.7041 27.642C81.7694 27.7167 81.8768 27.7587 82.0261 27.768V29C81.8861 29.028 81.7601 29.0467 81.6481 29.056C81.5361 29.0653 81.4428 29.07 81.3681 29.07C81.0414 29.07 80.7941 28.9907 80.6261 28.832C80.4581 28.6733 80.3601 28.4867 80.3321 28.272L80.2901 27.852C79.9728 28.2627 79.5668 28.58 79.0721 28.804C78.5774 29.028 78.0781 29.14 77.5741 29.14C77.0888 29.14 76.6548 29.042 76.2721 28.846C75.8894 28.6407 75.5908 28.3653 75.3761 28.02C75.1614 27.6747 75.0541 27.2873 75.0541 26.858ZM79.7161 27.306C79.8281 27.1847 79.9168 27.0633 79.9821 26.942C80.0474 26.8207 80.0801 26.7133 80.0801 26.62V25.78C79.8188 25.6773 79.5434 25.6027 79.2541 25.556C78.9648 25.5 78.6801 25.472 78.4001 25.472C77.8401 25.472 77.3828 25.584 77.0281 25.808C76.6828 26.032 76.5101 26.34 76.5101 26.732C76.5101 26.9467 76.5661 27.152 76.6781 27.348C76.7994 27.544 76.9674 27.7027 77.1821 27.824C77.4061 27.9453 77.6814 28.006 78.0081 28.006C78.3441 28.006 78.6661 27.9407 78.9741 27.81C79.2821 27.6793 79.5294 27.5113 79.7161 27.306ZM90.0545 29H88.5145V24.898C88.5145 24.2167 88.4025 23.7173 88.1785 23.4C87.9638 23.0827 87.6418 22.924 87.2125 22.924C86.9138 22.924 86.6151 22.9987 86.3165 23.148C86.0271 23.2973 85.7658 23.5027 85.5325 23.764C85.2991 24.016 85.1311 24.31 85.0285 24.646V29H83.4885V21.678H84.8885V23.148C85.0751 22.8213 85.3178 22.5413 85.6165 22.308C85.9245 22.0653 86.2698 21.8787 86.6525 21.748C87.0351 21.6173 87.4411 21.552 87.8705 21.552C88.3091 21.552 88.6685 21.6313 88.9485 21.79C89.2378 21.9487 89.4618 22.168 89.6205 22.448C89.7885 22.7187 89.9005 23.036 89.9565 23.4C90.0218 23.7547 90.0545 24.1327 90.0545 24.534V29Z" fill="#282A3A"/>
<path d="M102.435 95.3876C102.435 102.375 88.0218 108.045 68.9482 108.045C49.8745 108.045 34.4494 102.412 34.4494 95.3876C34.4494 88.3637 49.9106 82.73 68.9843 82.73C88.0579 82.73 102.435 88.4003 102.435 95.3876Z" fill="#F0F9FA"/>
<path d="M100.593 95.3867C100.593 101.825 86.9384 107.02 68.9485 107.02C50.9585 107.02 36.3282 101.789 36.3282 95.3867C36.3282 88.9482 50.9224 83.7534 68.9485 83.7534C86.9745 83.7534 100.593 88.9482 100.593 95.3867Z" fill="#344E6B"/>
<path d="M48.889 96.1555C48.7337 96.1555 46.8698 97.4925 45.1613 97.0206C43.414 96.5094 43.2198 99.1047 41.0842 99.1834C41.0842 99.1834 40.0746 99.3013 40.3852 98.6722C40.3852 98.6722 38.1331 101.11 37.0458 100.284C37.0458 100.284 36.6187 100.206 37.0847 99.6553C37.0847 99.6553 35.7256 99.9305 35.3373 98.9868C34.9878 98.043 35.7256 96.8633 36.6575 96.6274C36.6575 96.6274 35.7256 96.5881 35.9586 96.2735C36.1527 95.9196 37.3565 94.8579 39.7251 94.8185C39.7251 94.8185 37.1235 94.386 35.182 95.1724C33.2405 95.9982 30.7165 93.7175 31.9591 93.2456C31.9591 93.2456 29.3575 93.4422 29.0468 92.4592C28.7362 91.4761 30.0176 90.493 31.5708 90.2178C31.5708 90.2178 30.833 89.8639 31.3378 89.6279C31.8426 89.392 36.2304 89.8245 36.4634 89.7459C36.6964 89.6673 34.716 88.173 35.5703 87.6618C36.4245 87.1506 36.9293 86.718 38.4049 87.1899C38.4049 87.1899 38.3272 86.0102 39.7251 87.4652C39.7251 87.4652 39.8804 86.1675 42.4044 89.1167C42.4044 89.1167 44.5789 89.51 45.2001 90.8076C45.2001 90.8076 45.3943 88.9594 41.8219 87.1899C38.2884 85.4204 41.8996 85.3417 41.8996 85.3417C41.8996 85.3417 39.4145 83.8475 40.2299 82.7858C41.0453 81.7634 40.424 79.6793 41.7054 80.4264C43.0257 81.1735 43.6858 81.1342 43.9964 81.724C43.9964 81.724 44.8895 75.0785 45.8603 74.6853C46.831 74.292 47.4135 76.0222 47.3746 76.3368C47.3746 76.3368 50.4034 74.292 48.5395 80.9376C48.5395 80.9376 54.8688 74.7639 52.772 79.7972C52.772 79.7972 56.1502 78.185 52.1896 81.6847C52.1896 81.6847 53.3156 82.5891 51.0247 85.617C51.0247 85.617 51.9954 85.1451 51.5294 86.8753C51.5294 86.8753 54.6358 82.3532 54.597 85.7743C54.597 85.7743 59.8002 82.943 57.7034 86.8753C57.7034 86.8753 61.0428 86.954 55.8396 89.2347C55.8396 89.2347 57.1986 89.9425 56.5774 90.8469C56.5774 90.8469 59.5284 92.6951 55.9949 93.167C55.9949 93.167 56.5385 95.4477 53.5098 93.7175C53.5098 93.7568 53.7428 96.3128 48.889 96.1555Z" fill="#358540"/>
<path d="M44.0352 81.5662C44.6953 80.3472 45.7825 78.4203 45.899 77.9878C46.0155 77.4766 45.2777 78.2631 44.5788 78.4597C44.307 79.7966 44.1128 81.055 44.0352 81.5662Z" fill="#5AA846"/>
<path d="M45.2004 95.4871C43.9967 95.0152 43.8802 96.2342 43.5695 97.5318C43.9966 97.1386 44.4238 96.8634 45.1227 97.06C46.8701 97.5712 48.6951 96.1949 48.8504 96.1949C51.0637 96.2735 52.2286 95.7623 52.8111 95.2118C51.7238 95.3298 50.1318 95.4477 49.5494 95.1725C48.5786 94.7399 48.5398 95.723 48.5398 95.723C48.5398 95.723 47.1031 96.2342 45.2004 95.4871Z" fill="#5AA846"/>
<path d="M46.7146 85.9321C46.9864 88.4094 47.5688 88.9206 47.5688 88.9206C47.4912 88.842 46.7146 84.6738 48.5007 86.4826C48.5007 86.4826 50.7141 83.9266 50.6364 85.8928L51.2189 85.6175C51.1412 85.6175 51.0635 85.6568 51.0635 85.6568C51.2189 85.4602 51.3353 85.2636 51.4518 85.1063C50.1316 84.7524 46.5204 83.8873 46.7146 85.9321Z" fill="#186336"/>
<path d="M43.2584 92.1461C40.7344 91.7922 37.1232 91.5562 31.9588 91.7135C31.9588 91.7135 35.6477 91.6349 39.6083 91.9888C38.6764 92.1068 37.3174 92.5786 35.6477 94.0729C35.6477 94.0729 38.3269 92.3034 40.8121 92.0674C42.6759 92.2641 44.5009 92.5393 46.0153 92.9719C45.0834 93.1685 42.7924 93.9943 41.045 97.1401C41.045 97.1401 43.2584 94.3875 46.2094 93.0112C47.3743 93.3651 48.3451 93.7976 48.8887 94.3482C48.9275 94.3875 48.5392 92.9719 43.4525 92.1854C41.4333 90.7305 39.9966 87.7812 39.9966 87.7812C41.045 91.0844 42.6371 91.9495 43.2584 92.1461Z" fill="#80BA65"/>
<path d="M46.404 77.1626C45.2391 82.4319 45.938 86.5608 46.9476 89.4313C46.2875 88.4876 44.7343 86.954 41.7444 86.3641C41.7444 86.3641 44.9285 87.6225 47.1418 89.9818C48.229 92.7344 49.5104 94.1501 49.4716 94.1107C47.6466 91.4368 46.7535 88.4089 46.3263 85.6563C47.5301 83.4936 50.1317 81.7634 50.1317 81.7634C47.2194 83.1397 46.4817 84.7519 46.2875 85.4597C45.6662 80.8589 46.404 77.1626 46.404 77.1626Z" fill="#80BA65"/>
<path d="M49.0442 86.1287C49.0442 86.1287 50.2479 89.3925 49.9761 92.6563C49.549 93.6787 49.7043 94.1899 49.7043 94.1899C49.782 93.4428 50.1314 92.617 50.6362 91.8306C52.9272 91.0048 56.0336 91.4373 56.0336 91.4373C53.0049 90.5329 51.4128 91.2014 50.7915 91.6339C51.4517 90.6509 52.3447 89.7464 53.199 88.8813C54.9464 87.7017 56.8102 87.3084 56.8102 87.3084C55.5676 87.3478 54.5969 87.8196 53.9368 88.2522C55.5288 86.8759 56.9267 85.9321 56.9267 85.9321C52.7719 88.6061 50.9857 90.7295 50.2091 92.1845C50.4809 90.9655 50.5974 88.8027 49.0442 86.1287Z" fill="#80BA65"/>
<path d="M73.5072 89.0385C73.3519 88.9992 71.2162 89.7856 69.663 88.8419C68.1098 87.8982 67.2167 90.3362 65.1588 89.825C65.1588 89.825 64.1492 89.6677 64.6151 89.1565C64.6151 89.1565 61.8194 90.926 60.9651 89.7856C60.9651 89.7856 60.5768 89.589 61.1593 89.1958C61.1593 89.1958 59.7614 89.0778 59.6837 88.0948C59.5672 87.1117 60.6545 86.1679 61.5864 86.2073C61.5864 86.2073 60.7321 85.932 61.0039 85.6568C61.2757 85.3815 62.7125 84.6737 65.0034 85.3028C65.0034 85.3028 62.596 84.1625 60.4991 84.4377C58.4023 84.713 56.5773 81.8031 57.8975 81.7245C57.8975 81.7245 55.3347 81.2133 55.2959 80.1909C55.2571 79.1685 56.7326 78.5393 58.3247 78.6966C58.3247 78.6966 57.7034 78.1854 58.247 78.0674C58.7906 77.9495 62.9066 79.5617 63.1396 79.5617C63.4114 79.5617 61.897 77.5562 62.8289 77.281C63.7997 77.0057 64.3822 76.7698 65.7024 77.5956C65.7024 77.5956 65.9354 76.4552 66.8673 78.2247C66.8673 78.2247 67.3721 77.0057 69.0029 80.5448C69.0029 80.5448 70.9833 81.5279 71.2551 82.9435C71.2551 82.9435 71.9152 81.2133 68.9641 78.5393C66.013 75.8654 69.5466 76.7698 69.5466 76.7698C69.5466 76.7698 67.5662 74.6464 68.6146 73.8599C69.663 73.0734 69.6242 70.95 70.6726 72.0117C71.721 73.0734 72.3811 73.2307 72.5365 73.8992C72.5365 73.8992 75.1769 67.7255 76.1865 67.6076C77.2349 67.4896 77.3514 69.2985 77.2349 69.613C77.2349 69.613 80.6908 68.4727 77.1572 74.3711C77.1572 74.3711 84.8844 70.1242 81.545 74.4497C81.545 74.4497 85.1951 73.8206 80.4966 76.1013C80.4966 76.1013 81.3509 77.281 78.3222 79.5617C78.3222 79.5617 79.3706 79.3651 78.4775 80.8987C78.4775 80.8987 82.6711 77.399 81.7392 80.6628C81.7392 80.6628 87.5249 79.3651 84.4573 82.5896C84.4573 82.5896 87.6414 83.5726 82.011 84.3198C82.011 84.3198 83.1371 85.3815 82.2828 86.0893C82.2828 86.0893 84.6126 88.6846 81.0791 88.1734C81.0791 88.1734 81.0014 90.5328 78.5163 88.0161C78.594 87.9768 78.1668 90.4935 73.5072 89.0385Z" fill="#358540"/>
<path d="M72.7307 73.6643C73.7014 72.6813 75.2546 71.1083 75.4488 70.7151C75.7206 70.2826 74.7498 70.8331 74.0509 70.8331C73.4296 72.0128 72.9248 73.1925 72.7307 73.6643Z" fill="#5AA846"/>
<path d="M70.1681 87.3477C69.1196 86.5613 68.6925 87.7016 68.0712 88.8813C68.576 88.6061 69.0808 88.4488 69.6633 88.842C71.2165 89.7857 73.3521 88.9993 73.5074 89.0386C75.6043 89.7071 76.8468 89.5498 77.5846 89.1566C76.4974 88.96 74.9442 88.6454 74.4394 88.2128C73.6239 87.5443 73.3133 88.4488 73.3133 88.4488C73.3133 88.4488 71.7601 88.6061 70.1681 87.3477Z" fill="#5AA846"/>
<path d="M74.167 78.5783C73.7399 81.0556 74.2059 81.6848 74.2059 81.6848C74.167 81.5668 74.5165 77.3986 75.7591 79.6007C75.7591 79.6007 78.5548 77.7525 77.9724 79.64L78.6325 79.522C78.5548 79.522 78.4772 79.522 78.4772 79.522C78.6713 79.3648 78.8266 79.2468 79.0208 79.0895C77.7394 78.3424 74.4777 76.5728 74.167 78.5783Z" fill="#186336"/>
<path d="M69.1582 83.6127C66.8283 82.5903 63.4501 81.3713 58.4022 80.113C58.4022 80.113 61.9746 81.0567 65.7023 82.433C64.8092 82.2757 63.3725 82.3937 61.3533 83.3767C61.3533 83.3767 64.4209 82.3937 66.8283 82.8656C68.5369 83.534 70.2454 84.3205 71.6045 85.1463C70.6337 85.107 68.2262 85.2642 65.7023 87.8202C65.7023 87.8202 68.5757 85.7754 71.7598 85.2642C72.8082 85.9327 73.5848 86.6012 74.0119 87.2697C74.0507 87.309 74.0507 85.8541 69.3523 83.7307C67.7603 81.7645 67.1778 78.54 67.1778 78.54C67.2943 82.0004 68.6145 83.2588 69.1582 83.6127Z" fill="#80BA65"/>
<path d="M76.1474 70.0474C73.6234 74.8054 73.1963 78.9736 73.4292 82.0015C73.0409 80.9005 71.9537 79.013 69.2356 77.6367C69.2356 77.6367 71.9537 79.7208 73.4681 82.552C73.7787 85.5012 74.6718 87.2314 74.633 87.1528C73.5846 84.0463 73.5069 80.9005 73.8564 78.1872C75.5649 76.4177 78.5548 75.4739 78.5548 75.4739C75.3707 75.9851 74.2447 77.3614 73.8564 77.9906C74.4777 73.4291 76.1474 70.0474 76.1474 70.0474Z" fill="#80BA65"/>
<path d="M76.3415 79.4043C76.3415 79.4043 76.6522 82.8647 75.5261 85.9319C74.866 86.797 74.866 87.3475 74.866 87.3082C75.1378 86.6004 75.6814 85.9319 76.3803 85.3027C78.8266 85.1454 81.6612 86.3644 81.6612 86.3644C78.982 84.6736 77.2734 84.9095 76.5357 85.1454C77.4288 84.3983 78.516 83.7298 79.6032 83.1793C81.5836 82.5108 83.5251 82.6288 83.5251 82.6288C82.3213 82.3535 81.2729 82.5108 80.4963 82.7467C82.399 81.8423 84.0299 81.3311 84.0299 81.3311C79.3314 82.7861 77.0405 84.359 75.9144 85.4993C76.458 84.4769 77.1181 82.3928 76.3415 79.4043Z" fill="#80BA65"/>
<path d="M101.261 96.1168C101.378 95.9988 103.669 95.7629 104.601 94.2293C105.571 92.6957 107.435 94.4653 109.066 93.0496C109.066 93.0496 109.92 92.4205 109.26 92.2238C109.26 92.2238 112.561 92.5384 112.794 91.1621C112.794 91.1621 113.027 90.8082 112.367 90.7296C112.367 90.7296 113.57 90.0218 113.221 89.078C112.871 88.1343 111.512 87.7804 110.697 88.2522C110.697 88.2522 111.357 87.6231 110.969 87.5051C110.58 87.3871 108.988 87.3871 107.241 88.9994C107.241 88.9994 108.911 86.9153 110.891 86.1681C112.871 85.4603 113.26 82.0392 112.017 82.5504C112.017 82.5504 114.075 80.9382 113.648 80.0338C113.221 79.1293 111.629 79.208 110.309 80.0731C110.309 80.0731 110.658 79.326 110.115 79.4832C109.571 79.6405 106.62 82.9437 106.387 83.0616C106.154 83.1796 106.62 80.7023 105.649 80.8989C104.678 81.0955 104.057 81.1348 103.242 82.4718C103.242 82.4718 102.543 81.528 102.465 83.5728C102.465 83.5728 101.494 82.7077 101.572 86.64C101.572 86.64 100.252 88.4095 100.601 89.8252C100.601 89.8252 99.2421 88.5668 100.679 84.8312C102.116 81.0955 99.3974 83.4942 99.3974 83.4942C99.3974 83.4942 100.213 80.7023 98.9315 80.4663C97.6501 80.2304 96.757 78.3036 96.2522 79.7192C95.7862 81.1348 95.2426 81.5674 95.3979 82.2358C95.3979 82.2358 90.35 77.9103 89.3404 78.2642C88.3697 78.6181 89.0686 80.309 89.3016 80.5056C89.3016 80.5056 85.6904 81.0562 91.4761 84.7132C91.4761 84.7132 82.7005 84.3986 87.5931 86.758C87.5931 86.758 84.0207 87.8197 89.2628 87.7804C89.2628 87.7804 89.0298 89.2353 92.7575 89.9038C92.7575 89.9038 91.7091 90.2184 93.2234 91.1621C93.2234 91.1621 87.9037 89.9038 90.2335 92.4205C90.2335 92.4205 84.4867 93.8754 88.6803 95.3697C88.6803 95.3697 86.2728 97.6897 91.6314 95.8415C91.6314 95.8415 91.0878 97.2965 92.175 97.5324C92.175 97.5324 91.2043 100.914 94.1554 98.8694C94.1554 98.8694 95.2814 100.914 96.3687 97.5718C96.2134 97.4538 97.7277 99.5379 101.261 96.1168Z" fill="#358540"/>
<path d="M95.2037 82.0003C93.9223 81.5678 91.8255 80.86 91.476 80.5847C91.0489 80.3094 92.1361 80.3488 92.7574 80.0342C93.8058 80.8206 94.8154 81.6464 95.2037 82.0003Z" fill="#5AA846"/>
<path d="M103.513 93.0888C104.096 91.9091 104.989 92.7349 106.076 93.5213C105.494 93.5213 104.989 93.6 104.601 94.1898C103.63 95.7234 101.378 95.9987 101.261 96.0773C99.6692 97.6109 98.4655 98.0434 97.65 98.0434C98.5431 97.3749 99.7857 96.3919 100.057 95.802C100.485 94.819 101.145 95.5268 101.145 95.5268C101.145 95.5268 102.62 94.9369 103.513 93.0888Z" fill="#5AA846"/>
<path d="M96.0578 87.0326C97.4946 89.038 97.4169 89.8245 97.4169 89.8245C97.4169 89.7065 95.2424 86.1281 95.1259 88.6448C95.1259 88.6448 91.8254 88.2516 93.1844 89.6672L92.5631 89.8638C92.6408 89.8245 92.7185 89.7852 92.7185 89.7852C92.4855 89.7458 92.2525 89.7065 92.0583 89.6672C92.7573 88.4482 94.8929 85.381 96.0578 87.0326Z" fill="#186336"/>
<path d="M102.775 89.2738C104.406 87.3077 106.93 84.673 110.852 81.252C110.852 81.252 108.095 83.69 105.338 86.6392C106.076 86.0887 107.396 85.5381 109.648 85.4988C109.648 85.4988 106.464 86.01 104.523 87.5043C103.28 88.8806 102.115 90.3355 101.261 91.6725C102.115 91.2006 104.328 90.2569 107.707 91.3972C107.707 91.3972 104.251 90.8467 101.144 91.8298C100.484 92.8915 100.096 93.8353 100.018 94.6217C100.018 94.661 99.3582 93.3634 102.62 89.3525C103.164 86.9144 102.27 83.7293 102.27 83.7293C103.707 86.9931 103.086 88.7233 102.775 89.2738Z" fill="#80BA65"/>
<path d="M90.5436 80.3086C94.8925 83.4151 97.1059 86.9542 98.2319 89.7854C98.1154 88.6057 98.2319 86.443 100.057 83.9656C100.057 83.9656 98.5426 87.0721 98.4649 90.2966C99.4745 93.0492 99.4745 95.0153 99.4357 94.9367C99.0085 91.7122 97.6883 88.8416 96.1739 86.5609C93.8441 85.7745 90.7377 86.2463 90.7377 86.2463C93.8053 85.2633 95.4362 85.9711 96.0186 86.3643C93.4947 82.55 90.5436 80.3086 90.5436 80.3086Z" fill="#80BA65"/>
<path d="M94.5045 88.7617C94.5045 88.7617 95.7471 92.0255 98.1157 94.2276C99.0865 94.6995 99.3583 95.1713 99.3194 95.1713C98.7758 94.6601 97.9604 94.3062 97.0673 94.0703C94.8151 95.014 92.796 97.4127 92.796 97.4127C94.4268 94.6995 96.0965 94.1096 96.8343 93.9917C95.7082 93.7164 94.4268 93.5984 93.2231 93.5984C91.1651 93.913 89.4954 94.8568 89.4954 94.8568C90.4273 94.0703 91.4758 93.7164 92.2524 93.5984C90.1555 93.6377 88.4858 93.913 88.4858 93.913C93.3396 93.0872 96.0577 93.4411 97.5721 93.9917C96.6402 93.3232 95.1258 91.7896 94.5045 88.7617Z" fill="#80BA65"/>
<path d="M45.2002 92.8214C45.2002 92.8214 44.4625 96.9503 45.7438 98.4838C47.0252 100.057 50.5199 102.888 53.3157 101.787C56.1115 100.686 59.9557 97.4221 58.3248 92.8214C56.6551 88.2599 53.7817 87.1982 49.9375 89.007C46.0933 90.8159 45.6662 91.4057 45.2002 92.8214Z" fill="#D84D27"/>
<path d="M49.9369 89.0059C49.5098 89.2025 49.1215 89.3992 48.772 89.5958C49.2768 89.989 49.8981 90.4609 50.0146 90.8148C50.2476 91.4046 50.6359 94.3538 50.6747 95.3762C50.7135 96.3986 51.4125 98.522 51.6066 98.758C51.8008 98.9939 52.6939 92.7023 51.296 90.8541C50.7135 90.107 50.4029 89.3992 50.2476 88.8486C50.1311 88.9273 50.0534 88.9666 49.9369 89.0059Z" fill="#F3B184"/>
<path d="M48.6943 92.4272C48.5778 92.3485 47.2188 91.3261 46.9858 92.7024C46.7528 94.0787 46.5198 97.2246 48.073 98.2863C49.6262 99.348 51.3348 100.449 51.8007 100.016C52.2667 99.5839 50.2475 96.8706 50.0145 95.5337C49.7427 94.1967 49.9757 93.2136 48.6943 92.4272Z" fill="#B62425"/>
<path d="M53.7042 90.3039C53.7042 90.3039 50.6755 90.1859 51.025 91.7195C51.3744 93.2531 52.85 95.2585 52.7335 96.0843C52.617 96.9101 52.5005 97.4606 52.7723 98.1684C53.0441 98.8369 53.3159 99.6627 54.1314 99.3088C54.908 98.9942 59.1793 92.6632 53.7042 90.3039Z" fill="#B62425"/>
<path d="M51.9174 91.5635C51.8397 91.7602 52.8105 91.8388 52.927 91.0917C52.927 91.0917 52.2669 90.6591 51.9174 91.5635Z" fill="#DFC523"/>
<path d="M52.6168 92.5455C52.4615 92.7028 53.3157 93.1747 53.7429 92.5455C53.7429 92.5455 53.3157 91.8377 52.6168 92.5455Z" fill="#DFC523"/>
<path d="M53.0825 93.568C52.9272 93.7253 53.7815 94.1972 54.2086 93.568C54.2086 93.568 53.7815 92.8602 53.0825 93.568Z" fill="#DFC523"/>
<path d="M53.3928 94.7081C53.1987 94.7867 53.8588 95.5339 54.4412 95.1013C54.4412 95.062 54.2471 94.2756 53.3928 94.7081Z" fill="#DFC523"/>
<path d="M53.3934 95.7713C53.1993 95.8106 53.6652 96.6757 54.3254 96.3611C54.3254 96.3611 54.3254 95.5747 53.3934 95.7713Z" fill="#DFC523"/>
<path d="M53.0436 96.949C52.8494 96.9883 53.2766 97.8534 53.9755 97.5782C53.9755 97.5782 53.9755 96.7917 53.0436 96.949Z" fill="#DFC523"/>
<path d="M48.8503 93.0578C49.0056 93.1758 48.229 93.805 47.7631 93.2545C47.7631 93.2545 48.0737 92.5073 48.8503 93.0578Z" fill="#DFC523"/>
<path d="M48.8498 94.2767C49.0439 94.316 48.6168 95.1811 47.9179 94.9058C47.9179 94.9058 47.879 94.1194 48.8498 94.2767Z" fill="#DFC523"/>
<path d="M49.005 95.3754C49.1992 95.4147 48.7721 96.2798 48.0731 96.0046C48.112 96.0439 48.0731 95.2181 49.005 95.3754Z" fill="#DFC523"/>
<path d="M49.393 96.5163C49.5872 96.477 49.4707 97.46 48.7329 97.4207C48.7329 97.4207 48.4611 96.6736 49.393 96.5163Z" fill="#DFC523"/>
<path d="M50.0151 97.3834C50.2093 97.3047 50.2869 98.2878 49.588 98.4058C49.5492 98.4058 49.122 97.7373 50.0151 97.3834Z" fill="#DFC523"/>
<path d="M50.9466 98.1685C51.1407 98.0899 51.2572 99.073 50.5195 99.2302C50.5583 99.2302 50.0923 98.5618 50.9466 98.1685Z" fill="#DFC523"/>
<path d="M39.9963 102.494C39.9963 102.494 39.2585 104.421 39.6857 105.05C40.1516 105.679 41.1612 107.016 42.5591 107.331C43.957 107.606 44.4618 107.134 45.2384 107.488C46.015 107.803 47.374 108.628 48.5778 108.353C49.7815 108.078 51.3347 107.527 51.6842 107.134C52.0725 106.741 52.1501 105.994 53.4315 106.426C54.7129 106.859 56.305 106.898 57.5087 106.23C58.6736 105.561 59.8773 105.168 60.6928 103.202C60.6928 103.202 60.6539 102.927 61.9741 101.393C63.2944 99.8593 62.9061 97.1854 62.9061 97.1854L62.4789 95.8091L61.5858 96.2023C61.5858 96.2023 60.3433 99.938 59.1784 99.938C57.9747 99.9773 58.0135 101.275 58.0911 101.865C58.1688 102.455 57.9358 102.573 57.8582 102.966C57.7805 103.359 57.897 103.359 57.8582 103.674C57.7805 103.949 56.3438 103.713 55.9555 104.106C55.5672 104.499 55.9555 105.168 54.6353 104.696C53.315 104.224 52.6549 103.674 52.6549 103.674C52.6549 103.674 51.8783 104.381 50.9464 105.129C49.9757 105.876 49.6262 106.426 48.8107 106.308C48.0341 106.19 48.5389 105.64 48.0341 105.915C47.5294 106.19 47.7623 105.6 47.0634 105.443C46.3645 105.286 45.5879 104.893 45.4325 104.146C45.2772 103.398 44.4618 105.718 44.0346 105.64C43.6463 105.561 42.5979 105.876 41.7825 104.106C40.9671 102.258 39.9963 102.494 39.9963 102.494Z" fill="#F36F4B"/>
<path d="M60.732 103.123C60.732 103.123 60.6931 102.848 62.0134 101.314C62.5958 100.646 62.8676 99.7415 62.9453 98.9551C62.5182 100.017 61.858 100.921 61.5474 101.314C61.0426 101.983 60.6155 102.848 60.2272 103.477C59.8777 104.106 58.6352 105.325 57.0431 105.955C55.4511 106.584 54.4415 106.23 53.7037 105.994C52.966 105.719 52.3447 105.758 51.9952 106.112C51.6457 106.466 50.9856 106.938 49.1606 107.606C47.3356 108.235 46.093 107.37 45.5494 107.095C44.967 106.82 42.909 107.016 42.0159 106.741C41.4334 106.544 40.3074 105.404 39.5696 104.578C39.5696 104.736 39.6472 104.893 39.7249 104.971C40.1909 105.601 41.2004 106.938 42.5983 107.252C43.9962 107.527 44.501 107.056 45.2776 107.409C46.0542 107.724 47.4133 108.55 48.617 108.275C49.8207 107.999 51.3739 107.449 51.7234 107.056C52.1117 106.662 52.1894 105.915 53.4707 106.348C54.7521 106.78 56.3442 106.82 57.5479 106.151C58.7128 105.522 59.9165 105.129 60.732 103.123Z" fill="#E41E26"/>
<path d="M37.2786 97.7759C37.2786 97.7759 35.3759 99.0735 35.2594 99.3095C35.1817 99.5847 35.6089 101.787 36.3855 102.77C37.1621 103.714 37.7445 104.382 39.9967 104.972C42.2488 105.562 41.5499 106.27 43.5302 106.27C45.5105 106.27 47.4132 105.287 48.4228 105.129C49.4324 104.972 50.2478 105.916 52.1117 105.64C53.9755 105.365 55.4899 105.287 56.5383 104.068C57.5867 102.849 58.208 101.669 59.1787 100.961C60.1495 100.214 61.1202 97.8152 61.0814 96.9894C61.0426 96.203 60.7708 94.8267 60.7708 94.8267C60.7708 94.8267 58.7904 99.2701 58.1691 99.624C57.5479 100.017 56.6936 99.8993 56.4995 100.135C56.3053 100.371 55.9947 101.905 55.7617 102.219C55.4899 102.534 55.3734 102.141 55.1404 103.163C54.8686 104.185 55.3346 102.731 51.6457 103.635C51.6457 103.635 49.976 104.146 49.6654 103.045C49.3547 101.944 47.7239 101.747 47.7239 101.747C47.7239 101.747 47.5685 103.714 46.7531 103.91C45.9377 104.107 44.1127 104.815 44.1127 104.618C44.1127 104.264 42.6371 103.674 42.4818 104.343C42.4818 104.343 42.9478 101.905 42.4818 101.512C42.0158 101.158 40.7733 102.337 40.3073 102.731C39.8413 103.124 39.919 102.966 39.453 102.534C39.0259 102.101 38.7153 102.809 38.2881 101.669C37.861 100.528 39.0259 99.2701 39.0259 99.2701L37.2786 97.7759Z" fill="#F36F4B"/>
<path d="M56.5383 104.067C57.5867 102.848 58.208 101.668 59.1787 100.961C60.1495 100.214 61.1202 97.8148 61.0814 96.9891C61.0814 96.9497 61.0814 96.9104 61.0814 96.8711C60.5766 98.2867 59.567 100.41 59.0234 100.607C58.3245 100.843 57.5867 102.062 56.7713 103.477C55.917 104.893 53.8978 105.09 52.267 105.247C50.6361 105.404 51.1409 105.286 49.8595 104.932C48.5781 104.578 48.2286 104.775 46.2095 105.561C44.1903 106.348 42.7148 105.915 41.511 105.09C40.3073 104.264 38.7541 104.146 37.2786 103.005C36.3078 102.258 35.8419 100.253 35.6089 98.9945C35.4147 99.1518 35.2982 99.2698 35.2594 99.3484C35.1817 99.6237 35.6089 101.826 36.3855 102.809C37.1621 103.753 37.7445 104.421 39.9967 105.011C42.2488 105.601 41.5499 106.309 43.5302 106.309C45.5105 106.309 47.4132 105.326 48.4228 105.168C49.4324 105.011 50.2478 105.955 52.1117 105.679C53.9755 105.365 55.4899 105.286 56.5383 104.067Z" fill="#E41E26"/>
<path d="M36.3853 96.9501C36.2688 97.186 37.4726 101.315 39.2976 102.023C41.1226 102.731 42.4428 104.972 45.3939 104.736C48.345 104.5 48.1508 103.478 50.4418 103.871C52.7328 104.264 54.6355 103.674 56.0722 101.905C57.5089 100.175 58.169 99.1915 58.7903 98.6803C59.4116 98.1691 59.5669 94.8267 59.5669 94.8267C59.5669 94.8267 57.3536 96.9108 57.3536 96.9894C57.3536 97.0287 56.9653 99.1915 55.2956 98.7196C53.6259 98.2477 54.752 99.1128 54.752 99.1128C54.752 99.1128 55.4509 102.77 50.6748 101.905C50.6748 101.905 49.7817 101.512 49.3546 101.236C48.9274 100.961 49.0051 100.843 48.5391 101.315C48.0732 101.787 47.0248 102.888 45.4716 102.731C43.9184 102.613 42.9864 102.691 42.5593 101.905C42.1322 101.118 41.4721 100.922 41.3168 100.961C41.1614 101 38.9481 100.725 38.5598 98.4444C38.2103 96.1243 36.3853 96.9501 36.3853 96.9501Z" fill="#F36F4B"/>
<path d="M59.5676 94.8267C59.5676 94.8267 59.4511 94.9446 59.2957 95.1019C59.1404 96.2423 58.8298 98.0511 58.6745 98.3264C58.4415 98.7589 56.9659 100.135 56.6165 100.764C56.267 101.394 54.3643 103.045 52.8499 103.438C51.3356 103.832 49.7824 103.281 49.0834 103.399C48.3845 103.517 45.5111 104.421 44.5791 104.382C43.6084 104.343 41.9387 103.32 41.2786 102.77C40.6573 102.219 39.1041 101.551 38.2498 100.764C37.7062 100.214 37.1238 98.2477 36.8131 96.8714C36.5801 96.9108 36.4248 96.9894 36.4248 96.9894C36.3083 97.2254 37.5121 101.354 39.3371 102.062C41.1621 102.77 42.4823 105.011 45.4334 104.775C48.3845 104.539 48.1903 103.517 50.4813 103.91C52.7723 104.303 54.675 103.714 56.1117 101.944C57.5484 100.214 58.2085 99.2308 58.8298 98.7196C59.4122 98.1691 59.5676 94.8267 59.5676 94.8267Z" fill="#E41E26"/>
<path d="M37.1232 93.9224C37.1232 93.9224 35.57 95.0627 35.57 95.456C35.57 95.8492 35.1817 98.4445 38.3658 99.8994C38.3658 99.8994 38.6765 99.9781 39.5695 100.765C40.4626 101.59 43.0254 102.77 44.6563 102.652C46.2871 102.534 47.1414 101.669 47.9568 101.748C48.7723 101.826 51.3739 101.866 52.5388 101.236C53.7037 100.607 55.0627 99.3096 55.8393 99.0343C56.6548 98.7591 57.9362 98.6018 58.4798 98.6804C59.0234 98.7591 60.5378 95.5346 60.3825 95.22C60.2271 94.9448 59.1787 94.2369 59.1787 94.2369L58.7904 94.6695L52.6553 97.7367L47.7627 97.894C47.7627 97.894 47.8015 98.6411 46.1707 99.3489C44.5398 100.096 42.1712 99.9388 41.2781 99.1523C40.385 98.3658 40.9286 97.3041 40.9286 97.3041L39.6472 96.6356C39.6472 96.6356 38.5211 97.9726 38.0552 96.9109C37.628 95.8492 37.6669 94.5909 37.6669 94.5909L37.1232 93.9224Z" fill="#F36F4B"/>
<path d="M60.4214 95.2586C60.3437 95.1013 59.9942 94.826 59.7224 94.6294C59.3341 95.6125 58.2857 97.3033 57.6256 97.5C56.7713 97.7359 55.9947 97.9325 54.9075 98.8763C53.8202 99.82 52.1117 100.764 50.675 101C49.2383 101.275 48.0734 100.882 47.6074 100.842C47.1415 100.842 46.4037 101.393 44.7728 101.668C43.1808 101.904 41.2781 100.921 40.385 100.253C39.4919 99.6234 39.4143 99.2302 39.4143 99.1122C39.4143 98.9942 39.1813 98.9549 39.1813 98.9549C36.735 98.9942 36.1914 96.5562 36.0749 94.7867C35.7643 95.0619 35.5701 95.2979 35.5701 95.4159C35.5701 95.8091 35.1818 98.4044 38.3659 99.8593C38.3659 99.8593 38.6765 99.938 39.5696 100.724C40.4627 101.55 43.0255 102.73 44.6563 102.612C46.2872 102.494 47.1415 101.629 47.9569 101.708C48.7723 101.786 51.374 101.825 52.5389 101.196C53.7038 100.567 55.0628 99.2695 55.8394 98.9942C56.6548 98.719 57.9362 98.5617 58.4799 98.6403C59.0623 98.7583 60.5767 95.5338 60.4214 95.2586Z" fill="#E41E26"/>
<path d="M35.5698 90.1084C35.5698 90.1084 38.5209 89.6365 38.4432 89.7938C38.3655 89.9511 38.482 90.0298 38.3655 90.2264C38.2102 90.423 37.8219 90.423 37.6666 90.8555C37.5113 91.2881 37.7831 93.5688 38.8703 94.0014C39.9964 94.4339 41.0448 95.0238 41.1225 95.4956C41.2001 95.9675 42.8698 96.7933 43.4523 96.8719C44.0347 96.9113 46.0927 97.1079 46.4034 96.5573C46.714 96.0068 46.9082 96.2034 46.9082 96.2034C46.9082 96.2034 46.8693 94.9844 47.2965 95.5743C47.7236 96.1641 47.413 96.4394 47.8401 96.7933C48.2672 97.1472 48.8108 96.9506 49.6263 97.2652C50.4029 97.5797 50.6359 97.855 51.296 97.6191C51.9949 97.3831 52.5774 97.8943 53.121 97.3045C53.6646 96.754 53.354 96.5573 53.9364 96.4001C54.5189 96.2428 56.5769 96.3607 57.5088 94.7092C58.4407 93.0576 58.7513 93.0576 58.596 92.5071C58.4407 91.9173 58.4407 91.9173 58.4407 91.9173C58.4407 91.9173 59.295 92.3105 59.2173 92.6251C59.1396 92.9396 58.1301 97.0292 56.4604 97.4618C54.7907 97.855 55.5284 99.4279 52.1891 99.4672C48.8497 99.5066 48.0342 98.4842 47.0635 98.6021C46.0927 98.7201 46.0151 99.3886 43.2193 98.7594C40.4235 98.1303 40.4235 97.7764 38.9092 96.4394C37.3948 95.1024 36.1134 94.5126 35.5698 92.5464C35.0262 90.5803 35.3368 90.1477 35.5698 90.1084Z" fill="#F36F4B"/>
<path d="M59.1014 92.3491C58.7519 93.5681 57.6646 96.2027 56.6551 96.7925C55.4125 97.5003 54.9854 97.8936 53.704 98.6014C52.3838 99.3092 49.3162 98.9946 47.9571 98.4048C46.5981 97.8149 46.5592 98.0509 46.5592 98.0509C44.6954 98.916 43.3752 98.4834 41.7055 98.0115C40.0358 97.5397 39.8028 96.3993 39.2204 96.0454C38.6767 95.6915 36.3858 93.5681 35.881 92.3491C35.6092 91.7199 35.5315 90.8548 35.5315 90.147C35.2985 90.2256 35.0655 90.6582 35.5703 92.5457C36.114 94.5118 37.3953 95.1016 38.9097 96.4386C40.4241 97.7756 40.4629 98.1688 43.2199 98.7587C46.0156 99.3878 46.0933 98.7193 47.064 98.6014C48.0348 98.4834 48.8114 99.5058 52.1508 99.4665C55.4902 99.4272 54.7524 97.8542 56.4221 97.461C58.0918 97.0678 59.1402 92.9389 59.179 92.6243C59.2567 92.5457 59.179 92.467 59.1014 92.3491Z" fill="#E41E26"/>
<path d="M55.4904 85.5858C55.4904 85.5858 54.0925 88.2597 54.6361 89.5181C55.1409 90.7371 55.6457 91.4842 56.9271 91.8381C58.2085 92.192 61.1596 92.2707 62.6739 89.9899C64.1883 87.7092 63.9553 84.7993 63.567 84.0522C63.1787 83.2264 58.7133 80.0413 55.4904 85.5858Z" fill="#E4EFC6"/>
<path d="M58.441 87.3554C58.441 87.3554 57.4703 87.2767 57.4315 88.1418C57.4315 89.0463 58.1304 87.8273 58.441 87.3554Z" fill="#F2F6D8"/>
<path d="M58.5571 87.0009C58.5571 87.0009 57.9358 86.2145 57.2757 86.8043C56.6544 87.3548 58.0135 87.0403 58.5571 87.0009Z" fill="#F2F6D8"/>
<path d="M58.9843 87.1578C58.9843 87.1578 59.5279 86.332 60.2269 86.8432C60.9258 87.3544 59.5279 87.1578 58.9843 87.1578Z" fill="#F2F6D8"/>
<path d="M58.7517 86.7641C58.7517 86.7641 58.4799 85.8203 59.2954 85.5844C60.1496 85.3485 59.1012 86.3315 58.7517 86.7641Z" fill="#F2F6D8"/>
<path d="M58.829 87.4336C58.829 87.4336 58.4019 88.338 59.1785 88.6919C59.9551 89.0065 59.1008 87.9055 58.829 87.4336Z" fill="#F2F6D8"/>
<path d="M62.0133 89.9501C60.499 91.7983 57.975 91.6016 56.2277 90.8938C55.2181 90.5006 54.7909 89.2423 54.5968 88.2199C54.5191 88.6918 54.5191 89.1636 54.6744 89.5175C55.1792 90.7365 55.684 91.4837 56.9654 91.8376C58.2468 92.1915 61.1979 92.2701 62.7123 89.9894C64.1102 87.9053 63.9937 85.2707 63.683 84.2876C63.7607 85.8998 63.1782 88.4951 62.0133 89.9501Z" fill="#4F9241"/>
<path d="M70.4007 84.8789C70.556 84.761 72.2257 82.087 73.3906 81.6151C74.5555 81.1433 76.6911 80.2388 77.5454 81.7331C78.3996 83.2274 78.3996 85.9406 77.1183 87.6708C75.798 89.401 73.0799 91.7997 70.789 88.8505C69.2746 87.0024 70.4007 84.8789 70.4007 84.8789Z" fill="#E4EFC6"/>
<path d="M73.3906 81.6144C72.9635 81.7717 72.4975 82.2436 72.0315 82.7941C73.5459 81.929 76.3029 80.5527 76.6912 81.6144C77.2348 83.0694 78.2055 86.5298 75.1768 88.2993C72.5752 89.7936 71.4491 89.3217 70.0512 87.3162C70.1289 87.8274 70.323 88.378 70.7501 88.8892C73.0411 91.799 75.7981 89.4397 77.0795 87.7095C78.3997 85.9793 78.3608 83.266 77.5066 81.7717C76.6912 80.1988 74.5555 81.1032 73.3906 81.6144Z" fill="#4F9241"/>
<path d="M73.3124 85.1528C73.3124 85.1528 72.6523 84.6809 72.264 85.2708C71.8757 85.9 72.8853 85.3101 73.3124 85.1528Z" fill="#F2F6D8"/>
<path d="M73.5849 84.9557C73.5849 84.9557 73.4684 84.1299 72.7695 84.2479C72.0317 84.3658 73.1578 84.7197 73.5849 84.9557Z" fill="#F2F6D8"/>
<path d="M73.7787 85.2308C73.7787 85.2308 74.5165 84.8769 74.7883 85.5454C75.0601 86.2532 74.167 85.5061 73.7787 85.2308Z" fill="#F2F6D8"/>
<path d="M73.7788 84.8782C73.7788 84.8782 73.973 84.0918 74.6719 84.2884C75.3708 84.485 74.2059 84.7209 73.7788 84.8782Z" fill="#F2F6D8"/>
<path d="M73.5456 85.3496C73.5456 85.3496 72.8467 85.7822 73.2738 86.4113C73.7009 87.0012 73.5456 85.8215 73.5456 85.3496Z" fill="#F2F6D8"/>
<path d="M78.3604 82.7144C78.5157 82.6358 80.962 80.6696 82.2434 80.6303C83.5248 80.5517 85.8158 80.4337 86.1264 82.1246C86.437 83.8155 85.5828 86.4108 83.7578 87.5904C81.9716 88.7701 78.5934 90.1464 77.3896 86.6074C76.613 84.366 78.3604 82.7144 78.3604 82.7144Z" fill="#E4EFC6"/>
<path d="M82.2053 80.5917C81.7393 80.631 81.118 80.9063 80.5356 81.2209C82.2441 80.9063 85.3117 80.5524 85.3117 81.6534C85.3505 83.2264 85.1563 86.8047 81.7005 87.4339C78.7494 87.9844 77.8563 87.1586 77.1962 84.7993C77.1185 85.3105 77.1185 85.9003 77.3515 86.5295C78.594 90.0685 81.9334 88.7315 83.7196 87.5125C85.5058 86.3329 86.3989 83.7376 86.0883 82.0467C85.8164 80.3951 83.4866 80.5131 82.2053 80.5917Z" fill="#4F9241"/>
<path d="M81.0011 83.9339C81.0011 83.9339 80.5352 83.2654 79.9527 83.6979C79.4091 84.1698 80.5352 83.9339 81.0011 83.9339Z" fill="#F2F6D8"/>
<path d="M81.3119 83.8153C81.3119 83.8153 81.4672 83.0288 80.7682 82.8715C80.0693 82.7535 81.0012 83.4613 81.3119 83.8153Z" fill="#F2F6D8"/>
<path d="M81.4288 84.1696C81.4288 84.1696 82.2443 84.0909 82.2831 84.7988C82.3219 85.5459 81.7006 84.5235 81.4288 84.1696Z" fill="#F2F6D8"/>
<path d="M81.545 83.8157C81.545 83.8157 82.011 83.1472 82.5935 83.5404C83.1759 83.973 82.011 83.8157 81.545 83.8157Z" fill="#F2F6D8"/>
<path d="M81.1567 84.2095C81.1567 84.2095 80.3801 84.4061 80.5743 85.1139C80.7684 85.7824 81.0014 84.642 81.1567 84.2095Z" fill="#F2F6D8"/>
<path d="M63.4886 82.5574C63.4886 82.5574 63.4109 82.7147 63.2944 82.9507C63.2556 83.0293 63.2167 83.0686 63.2167 83.1473C62.8673 83.8944 62.3625 85.2707 62.6343 86.2538C63.0226 87.7087 63.4886 88.8098 64.4593 89.5962C65.4301 90.3827 68.0317 90.5006 69.3907 89.5962C70.7498 88.6918 72.7689 87.2368 72.2642 84.9168C71.7594 82.5968 69.2742 81.3777 68.653 81.1418C68.0705 80.9452 65.3136 80.1981 63.4886 82.5574Z" fill="#4F9241"/>
<path d="M67.1004 89.3603C69.702 89.085 71.2941 87.866 71.6047 86.7257C71.9153 85.5853 71.6824 83.6585 70.8669 82.9507C70.5563 82.6754 70.0515 82.0856 69.469 81.535C69.1196 81.3384 68.8478 81.2205 68.6924 81.1418C68.11 80.9452 65.353 80.1981 63.528 82.5574C63.528 82.5574 63.4504 82.7147 63.3339 82.9507C63.2951 83.0293 63.2562 83.0686 63.2562 83.1473C63.1786 83.3439 63.0621 83.5798 62.9844 83.8158C62.8679 84.7595 62.9068 85.7426 63.2174 86.4897C64.0328 88.4165 64.4988 89.6749 67.1004 89.3603Z" fill="#E4EFC6"/>
<path d="M66.8672 84.4856C66.8672 84.4856 66.673 83.3452 65.7023 83.5418C64.6927 83.7384 66.2847 84.2103 66.8672 84.4856Z" fill="#F2F6D8"/>
<path d="M67.3331 84.5238C67.3331 84.5238 68.0321 83.6194 67.2166 82.9903C66.4012 82.4004 67.139 83.8554 67.3331 84.5238Z" fill="#F2F6D8"/>
<path d="M67.2556 84.9971C67.2556 84.9971 68.3428 85.3903 67.9545 86.334C67.5662 87.3171 67.4109 85.6656 67.2556 84.9971Z" fill="#F2F6D8"/>
<path d="M67.6443 84.6416C67.6443 84.6416 68.615 84.0518 69.1198 84.9562C69.5858 85.8606 68.2267 84.9169 67.6443 84.6416Z" fill="#F2F6D8"/>
<path d="M66.9062 84.8774C66.9062 84.8774 65.7801 84.6414 65.6248 85.6245C65.4306 86.6862 66.4402 85.3492 66.9062 84.8774Z" fill="#F2F6D8"/>
<path d="M84.9618 85.5862C84.9618 85.5862 84.8841 85.7435 84.7676 85.9794C84.7288 86.0581 84.69 86.0974 84.69 86.1761C84.3405 86.9232 83.8357 88.2995 84.1075 89.2826C84.4958 90.7375 84.9618 91.8385 85.9325 92.625C86.9033 93.4115 89.5049 93.5294 90.8639 92.625C92.223 91.7206 94.2422 90.2656 93.7374 87.9456C93.2326 85.6255 90.7474 84.4065 90.1262 84.1706C89.5437 84.0133 86.7868 83.2662 84.9618 85.5862Z" fill="#4F9241"/>
<path d="M88.5729 92.4277C91.1745 92.1524 92.7665 90.9334 93.0772 89.793C93.3878 88.6527 93.1548 86.7259 92.3394 86.018C92.0288 85.7428 91.524 85.1529 90.9415 84.6024C90.592 84.4058 90.3202 84.2878 90.1649 84.2092C89.5825 84.0126 86.8255 83.2654 85.0005 85.6248C85.0005 85.6248 84.9229 85.7821 84.8064 86.018C84.7675 86.0967 84.7287 86.136 84.7287 86.2147C84.651 86.4113 84.5345 86.6472 84.4569 86.8831C84.3404 87.8269 84.3792 88.81 84.6899 89.5571C85.5053 91.4446 85.9713 92.7029 88.5729 92.4277Z" fill="#E4EFC6"/>
<path d="M88.34 87.5115C88.34 87.5115 88.1458 86.3711 87.1751 86.5677C86.2043 86.8036 87.7575 87.2362 88.34 87.5115Z" fill="#F2F6D8"/>
<path d="M88.8063 87.5511C88.8063 87.5511 89.5053 86.6466 88.6898 86.0175C87.8744 85.4276 88.6122 86.9219 88.8063 87.5511Z" fill="#F2F6D8"/>
<path d="M88.7283 88.0615C88.7283 88.0615 89.8155 88.4548 89.4272 89.3985C89.0389 90.3422 88.8836 88.6907 88.7283 88.0615Z" fill="#F2F6D8"/>
<path d="M89.1165 87.7085C89.1165 87.7085 90.0872 87.1187 90.592 88.0231C91.058 88.8882 89.6989 87.9838 89.1165 87.7085Z" fill="#F2F6D8"/>
<path d="M88.3783 87.9457C88.3783 87.9457 87.2522 87.7098 87.0969 88.6928C86.9027 89.7152 87.9123 88.4176 88.3783 87.9457Z" fill="#F2F6D8"/>
<path d="M68.4979 85.9395C68.3426 85.9788 65.275 86.1361 64.8867 87.6304C64.5372 89.164 64.2266 90.1077 64.8867 90.6976C65.5468 91.2874 67.5271 93.2536 69.7793 93.2536C72.0314 93.2536 75.1767 91.5627 74.1671 89.282C73.2352 87.0012 70.8665 85.4283 68.4979 85.9395Z" fill="#662043"/>
<path d="M73.313 87.8657C74.0508 91.6014 68.9252 91.6014 68.2263 91.1688C67.4885 90.7363 66.5178 90.0285 65.9353 90.5397C65.7023 90.7363 65.314 90.7756 64.9257 90.7363C65.6247 91.3261 67.5662 93.2923 69.8183 93.2923C72.0705 93.2923 75.2157 91.6014 74.2061 89.3207C73.9731 88.7701 73.7013 88.2983 73.313 87.8657Z" fill="#50152D"/>
<path d="M70.4397 87.7473C70.4397 87.7473 69.0418 86.9609 68.1487 87.2754C67.2556 87.59 66.6344 87.708 66.9838 88.0619C67.3333 88.4158 67.5275 88.1012 68.2264 88.2192C68.9253 88.3372 68.4594 88.7697 69.469 88.6124C70.4785 88.4158 71.4105 88.3372 70.4397 87.7473Z" fill="#F6DBEA"/>
<path d="M68.0707 93.1356C68.0707 93.1356 73.2351 90.3437 74.3224 90.2257C75.4096 90.0684 76.8075 89.9112 76.8852 91.0515C76.9628 92.1919 77.3511 95.377 74.3224 96.9106C71.2936 98.4442 67.4883 98.3656 66.9447 96.1242C66.401 93.8434 67.5659 93.4109 68.0707 93.1356Z" fill="#662043"/>
<path d="M74.4777 90.7766C74.2836 90.816 71.8373 92.7821 70.3229 93.136C68.8085 93.4899 69.0415 93.9225 69.1968 94.0011C69.3133 94.1191 72.2256 93.4113 72.808 92.9394C73.3517 92.4675 76.7687 90.0688 74.4777 90.7766Z" fill="#F6DBEA"/>
<path d="M76.4968 90.3037C76.5356 91.7587 76.3415 94.0001 75.0601 94.8258C73.1186 96.1235 72.7691 95.0618 72.1867 94.9831C71.6042 94.9045 69.0414 95.4943 68.3813 95.9269C67.7989 96.3201 67.7212 96.792 66.8281 95.4943C66.867 95.6909 66.867 95.8876 66.9446 96.0842C67.4882 98.3256 71.2936 98.4042 74.3223 96.8706C77.3511 95.337 76.9628 92.1519 76.8851 91.0115C76.8851 90.6576 76.7298 90.4217 76.4968 90.3037Z" fill="#50152D"/>
<path d="M76.691 86.5281C76.691 86.5281 79.4091 84.3261 81.1176 84.444C82.8261 84.6013 83.098 85.1518 83.2533 85.4664C83.4086 85.781 84.457 86.0169 84.7677 86.4888C85.0783 87 84.9618 88.3763 84.9618 88.3763C84.9618 88.3763 83.6027 91.4042 80.341 91.8367C77.0405 92.2693 73.0021 91.1289 76.691 86.5281Z" fill="#662043"/>
<path d="M84.9618 87.5122C83.8745 88.2593 82.0884 88.3773 81.2341 88.22C80.0304 87.9841 79.9527 89.439 77.3899 89.7143C76.225 89.8323 75.6814 89.2031 75.4484 88.4953C74.2835 91.4445 77.5452 92.1916 80.3022 91.8377C83.5639 91.4445 84.923 88.3773 84.923 88.3773C84.923 88.3773 85.0006 87.9841 84.9618 87.5122Z" fill="#50152D"/>
<path d="M81.4673 85.3494C81.4673 85.3494 81.1179 84.7202 80.6131 84.9955C80.1083 85.2707 79.3317 85.428 78.9434 85.7426C78.5551 86.0572 78.2056 86.4897 78.7881 86.4504C79.3705 86.4111 79.4093 87.1975 80.4189 87.2762C81.4285 87.3155 82.1663 86.883 82.1663 86.4504C82.2439 86.0572 81.5838 85.5067 81.4673 85.3494Z" fill="#F6DBEA"/>
<path d="M91.136 92.3486C91.5243 92.152 93.893 89.5567 95.9898 90.3824C98.0866 91.2475 97.7371 91.4835 97.3877 93.2137C97.077 94.9832 95.252 96.5561 92.8834 96.7921C90.5147 97.028 89.6993 96.8707 89.7381 95.7303C89.777 94.59 90.0488 92.8991 91.136 92.3486Z" fill="#662043"/>
<path d="M93.6987 91.4436C93.6987 91.4436 91.6796 92.9379 92.029 93.1738C92.3785 93.4098 92.7668 92.8986 93.6987 92.3087C94.6307 91.7189 95.3684 91.6796 95.3684 91.3257C95.3296 90.9717 94.087 91.1684 93.6987 91.4436Z" fill="#F6DBEA"/>
<path d="M97.1549 90.9731C97.2326 91.8776 96.9996 93.2932 95.3299 94.1583C92.9613 95.4166 92.4953 96.0065 91.9517 95.102C91.4081 94.1976 91.874 93.6078 91.0586 93.8437C90.4373 94.0403 90.1655 94.3156 89.9714 93.9617C89.816 94.5515 89.7384 95.1807 89.7384 95.6919C89.6995 96.8322 90.515 96.9895 92.8836 96.7536C95.2523 96.5177 97.0773 94.9448 97.3879 93.1752C97.6209 91.9562 97.8927 91.4843 97.1549 90.9731Z" fill="#50152D"/>
<path d="M79.254 92.31C79.254 92.31 81.6614 89.5181 83.5641 89.1642C85.4668 88.8103 86.3599 88.417 86.6705 89.872C86.9812 91.3269 87.1365 93.0965 84.6514 94.9053C82.1662 96.7142 81.0013 97.186 79.7588 96.6355C78.555 96.1243 77.7396 93.8436 79.254 92.31Z" fill="#662043"/>
<path d="M85.8937 88.8887C85.5442 90.1863 83.3697 91.366 83.0203 91.5626C82.632 91.7986 83.2532 91.9559 83.9134 91.9165C84.5735 91.8772 86.1655 90.8155 86.3208 91.6806C86.515 92.585 83.758 95.023 81.0399 95.6915C79.3702 96.0848 78.7878 94.6691 78.5548 93.4894C78.1277 94.8264 78.8654 96.2814 79.7974 96.6746C81.0399 97.2251 82.2048 96.7139 84.69 94.9444C87.1751 93.1355 87.0198 91.4053 86.7091 89.9111C86.5538 89.2819 86.282 88.9673 85.8937 88.8887Z" fill="#50152D"/>
<path d="M84.1464 89.911C84.1464 89.911 83.098 89.9503 82.7873 90.4615C82.4767 90.9727 82.2049 91.1693 82.632 91.1693C83.098 91.1693 85.6996 89.793 84.1464 89.911Z" fill="#F6DBEA"/>
<path d="M64.0327 88.2195C62.1688 88.0622 60.1497 88.888 58.7129 89.9104C57.9752 90.4609 57.3539 91.1687 57.1597 92.0731C56.422 95.4549 55.8007 98.758 59.5284 100.685C63.2561 102.612 70.2843 100.567 69.8572 95.7695C69.6242 93.2921 68.3816 90.4609 66.3236 89.006C65.6247 88.5341 64.8481 88.2588 64.0327 88.2195Z" fill="#C9222F"/>
<path d="M62.4014 89.8321C62.4014 89.8321 60.3823 90.1074 60.3434 91.2084C60.3046 92.3094 60.6541 92.9779 61.8578 92.5847C63.0615 92.1915 63.3722 92.2701 64.3429 92.8206C65.3137 93.3712 66.4398 92.9386 65.8185 92.3094C65.1972 91.6409 65.0419 91.7589 64.5371 90.8545C64.1099 89.9501 62.5956 89.7928 62.4014 89.8321Z" fill="#F391AD"/>
<path d="M69.8572 95.81C69.7795 94.9056 69.5466 93.9225 69.1971 93.0181C69.5466 95.7707 69.0806 98.8772 65.5471 99.8996C60.7321 101.276 57.8975 97.6975 56.655 95.3774C56.5385 97.5009 57.0433 99.4277 59.5672 100.725C63.2561 102.652 70.2843 100.568 69.8572 95.81Z" fill="#A91F23"/>
<path d="M73.6623 97.028C72.2644 96.5168 70.7888 96.3202 69.4298 96.5561C67.9543 96.8313 66.5952 97.6178 65.4691 98.6009C61.1202 102.415 64.3819 107.724 64.9255 108.51C65.4691 109.297 68.1872 112.128 72.5362 111.42C76.8852 110.712 79.9139 107.802 79.5644 104.381C79.3703 102.337 78.2831 100.331 76.8075 98.9548C75.9144 98.129 74.8272 97.4605 73.6623 97.028Z" fill="#D84D27"/>
<path d="M66.9836 108.471C66.9836 108.471 68.1096 107.488 68.7697 106.19C69.4298 104.853 70.09 102.494 70.09 102.494L71.4102 99.7412C71.4102 99.7412 73.4293 98.4829 73.8953 100.174C74.3613 101.865 73.8953 105.876 73.8953 105.876C73.8953 105.876 72.9634 106.465 71.7597 106.977C70.5559 107.527 69.4687 109.651 69.4687 109.965C69.4687 110.28 66.6729 109.533 66.6729 109.533L66.9836 108.471Z" fill="#F3B184"/>
<path d="M76.4973 109.298C73.6627 111.068 70.0904 109.849 67.4111 108.354C66.7898 108 66.2462 107.647 65.7414 107.332C64.2658 106.31 63.5281 104.304 63.2563 102.692C62.9456 105.484 64.5376 108.04 64.8871 108.551C65.4307 109.337 68.1488 112.169 72.4978 111.461C75.6431 110.95 78.0893 109.298 79.0601 107.135C78.4 107.883 77.5457 108.63 76.4973 109.298Z" fill="#C9222F"/>
<path d="M67.4887 108.353C67.4499 108.668 67.411 109.061 67.6829 109.218C67.9158 109.375 68.343 109.139 68.6924 108.943C68.2653 108.786 67.877 108.589 67.4887 108.353Z" fill="#5D7D37"/>
<path d="M71.9543 100.175C71.9543 99.9783 73.1581 98.8773 71.4107 98.2481C69.6633 97.5797 69.6245 96.9505 67.8772 97.9336C66.1298 98.9166 65.4697 98.9953 65.1202 100.608C64.7708 102.22 64.5766 104.068 65.4697 104.736C66.324 105.405 67.6442 106.703 68.2655 105.955C68.8867 105.208 69.4692 105.051 70.3623 103.675C71.2942 102.298 71.9543 100.175 71.9543 100.175Z" fill="#B62425"/>
<path d="M74.0507 99.0337C73.8177 99.0337 72.2645 100.174 71.9539 101.393C71.6044 102.612 72.614 101.786 72.614 101.786C72.614 101.786 74.206 103.752 73.6624 104.618C73.1188 105.443 71.2938 106.033 70.9055 106.387C70.5172 106.741 70.2065 106.938 70.5172 107.527C70.8666 108.157 75.0215 110.437 76.963 107.174C78.9045 103.91 78.0502 99.073 74.0507 99.0337Z" fill="#B62425"/>
<path d="M72.148 106.348C71.9538 106.309 72.1091 107.292 72.8469 107.213C72.8469 107.253 73.1187 106.466 72.148 106.348Z" fill="#DFC523"/>
<path d="M73.0802 105.561C72.886 105.601 73.2743 106.505 73.9344 106.269C73.9344 106.269 74.0121 105.443 73.0802 105.561Z" fill="#DFC523"/>
<path d="M74.556 104.932C74.3619 104.971 74.7502 105.876 75.4103 105.64C75.4491 105.6 75.5268 104.814 74.556 104.932Z" fill="#DFC523"/>
<path d="M74.2059 103.517C74.0118 103.635 74.7107 104.303 75.2544 103.831C75.2932 103.831 75.0602 103.084 74.2059 103.517Z" fill="#DFC523"/>
<path d="M74.09 103.045C73.9735 103.202 74.9054 103.517 75.1772 102.848C75.2161 102.848 74.6724 102.258 74.09 103.045Z" fill="#DFC523"/>
<path d="M73.9731 101.944C73.8178 102.102 74.7109 102.534 75.0992 101.905C75.0603 101.905 74.6332 101.276 73.9731 101.944Z" fill="#DFC523"/>
<path d="M73.7795 100.922C73.6242 101.08 74.5173 101.512 74.9056 100.883C74.8667 100.883 74.4396 100.214 73.7795 100.922Z" fill="#DFC523"/>
<path d="M70.207 98.7973C70.0128 98.7973 70.3623 99.741 71.0612 99.5051C71.0612 99.5444 71.1389 98.7186 70.207 98.7973Z" fill="#DFC523"/>
<path d="M69.0808 98.9162C68.8866 98.9162 69.2361 99.8599 69.935 99.624C69.935 99.624 70.0127 98.8375 69.0808 98.9162Z" fill="#DFC523"/>
<path d="M68.1876 99.9388C67.9934 100.017 68.537 100.804 69.1583 100.45C69.1971 100.45 69.1195 99.6636 68.1876 99.9388Z" fill="#DFC523"/>
<path d="M67.9544 101.197C67.7991 101.354 68.6534 101.826 69.0805 101.197C69.0805 101.157 68.6145 100.489 67.9544 101.197Z" fill="#DFC523"/>
<path d="M66.9064 102.022C66.7122 102.14 67.4888 102.769 67.9936 102.219C67.9936 102.219 67.683 101.472 66.9064 102.022Z" fill="#DFC523"/>
<path d="M67.1781 103.045C67.0616 103.202 67.9935 103.556 68.2653 102.848C68.3041 102.848 67.7605 102.258 67.1781 103.045Z" fill="#DFC523"/>
<path d="M67.4499 104.264C67.3723 104.46 68.3819 104.46 68.4207 103.713C68.4207 103.713 67.7217 103.359 67.4499 104.264Z" fill="#DFC523"/>
<path d="M78.7878 100.804C78.7878 100.804 77.2346 104.657 78.1665 106.466C79.0985 108.275 81.9331 111.775 84.923 111.264C87.8741 110.792 92.3007 108.393 91.6406 103.517C90.9805 98.6804 88.3789 97.0288 84.224 98.0119C80.0692 98.9949 79.5644 99.5455 78.7878 100.804Z" fill="#D84D27"/>
<path d="M84.1854 98.0909C83.7195 98.2088 83.2923 98.3268 82.9429 98.4054C83.3312 98.8773 83.836 99.5065 83.9136 99.8604C84.0301 100.49 83.7971 103.478 83.6418 104.461C83.4865 105.444 83.7195 107.686 83.8748 107.961C84.0301 108.236 86.1658 102.259 85.195 100.175C84.8067 99.3099 84.6126 98.5627 84.5737 98.0122C84.4184 98.0122 84.3019 98.0515 84.1854 98.0909Z" fill="#F3B184"/>
<path d="M82.2826 101.157C82.1662 101.078 81.0401 99.7806 80.5353 101.078C80.0305 102.376 79.1762 105.404 80.4576 106.78C81.739 108.156 83.2146 109.572 83.7582 109.257C84.3018 108.943 82.9039 105.836 82.9039 104.499C82.9816 103.123 83.4087 102.219 82.2826 101.157Z" fill="#B62425"/>
<path d="M87.6409 100.134C87.6409 100.134 84.6898 99.3867 84.7287 100.96C84.7675 102.533 85.8159 104.813 85.5441 105.6C85.2723 106.386 85.0393 106.897 85.1558 107.645C85.2723 108.392 85.3888 109.217 86.243 109.06C87.0585 108.864 92.5335 103.555 87.6409 100.134Z" fill="#B62425"/>
<path d="M85.6605 100.962C85.544 101.159 86.476 101.395 86.7478 100.687C86.7089 100.726 86.1653 100.176 85.6605 100.962Z" fill="#DFC523"/>
<path d="M86.1269 102.063C85.9328 102.181 86.7094 102.81 87.2142 102.299C87.2142 102.299 86.9424 101.551 86.1269 102.063Z" fill="#DFC523"/>
<path d="M86.3596 103.163C86.1655 103.281 86.9421 103.91 87.4468 103.399C87.4468 103.399 87.175 102.652 86.3596 103.163Z" fill="#DFC523"/>
<path d="M86.4375 104.342C86.2433 104.381 86.7093 105.246 87.4082 104.931C87.4082 104.931 87.3694 104.145 86.4375 104.342Z" fill="#DFC523"/>
<path d="M86.204 105.404C86.0098 105.404 86.2816 106.348 87.0194 106.19C87.0194 106.19 87.1747 105.404 86.204 105.404Z" fill="#DFC523"/>
<path d="M85.6218 106.505C85.4277 106.505 85.6607 107.449 86.3984 107.331C86.4373 107.291 86.5926 106.505 85.6218 106.505Z" fill="#DFC523"/>
<path d="M82.3602 101.824C82.5155 101.981 81.6224 102.413 81.2341 101.784C81.2341 101.784 81.7001 101.116 82.3602 101.824Z" fill="#DFC523"/>
<path d="M82.0888 103.006C82.283 103.084 81.6617 103.871 81.0792 103.438C81.0404 103.438 81.1957 102.652 82.0888 103.006Z" fill="#DFC523"/>
<path d="M82.05 104.146C82.2441 104.225 81.6229 105.011 81.0404 104.579C81.0016 104.579 81.1569 103.792 82.05 104.146Z" fill="#DFC523"/>
<path d="M82.1659 105.325C82.3601 105.325 82.0494 106.269 81.3505 106.072C81.3505 106.072 81.234 105.286 82.1659 105.325Z" fill="#DFC523"/>
<path d="M82.5934 106.269C82.7876 106.23 82.6711 107.213 81.9722 107.213C81.9333 107.213 81.6615 106.466 82.5934 106.269Z" fill="#DFC523"/>
<path d="M83.3697 107.252C83.5639 107.212 83.4862 108.195 82.7484 108.195C82.7484 108.195 82.4378 107.448 83.3697 107.252Z" fill="#DFC523"/>
<path d="M60.0329 100.292C58.1691 100.175 56.1499 100.961 54.7132 101.983C53.9754 102.534 53.3541 103.242 53.16 104.146C52.4222 107.528 51.8009 110.831 55.5286 112.758C59.2563 114.685 66.2846 112.64 65.8574 107.842C65.6244 105.365 64.3819 102.534 62.3239 101.079C61.6249 100.607 60.8483 100.371 60.0329 100.292Z" fill="#C9222F"/>
<path d="M58.4019 101.904C58.4019 101.904 56.3828 102.18 56.3439 103.281C56.3051 104.382 56.6546 105.05 57.8583 104.657C59.062 104.264 59.3727 104.342 60.3434 104.893C61.3142 105.443 62.4402 105.011 61.819 104.382C61.1977 103.713 61.0424 103.831 60.5376 102.927C60.0716 102.022 58.5961 101.865 58.4019 101.904Z" fill="#F391AD"/>
<path d="M65.8578 107.882C65.7801 106.977 65.5472 105.994 65.1977 105.09C65.5472 107.842 65.0812 110.949 61.5477 111.971C56.7327 113.348 53.8981 109.769 52.6556 107.449C52.5391 109.573 53.0439 111.499 55.5678 112.797C59.2567 114.724 66.2849 112.679 65.8578 107.882Z" fill="#A91F23"/>
<path d="M89.8936 90.6979C89.7383 90.6979 89.583 89.7935 88.2627 89.6362C86.9425 89.4789 85.8553 90.1474 84.535 91.1698C83.2148 92.2315 83.2148 94.3156 83.5643 94.7875C83.9138 95.2987 84.0691 95.7705 84.9233 96.1638C84.9233 96.1638 86.2047 99.0343 89.0393 98.1692C91.8739 97.2648 91.641 93.6864 91.4856 93.0179C91.3303 92.3495 91.1362 90.7765 89.8936 90.6979Z" fill="#FCC557"/>
<path d="M89.0393 98.2074C91.8739 97.303 91.641 93.7246 91.4856 93.0561C91.4468 92.8988 91.408 92.7022 91.3691 92.4663C90.942 94.7863 89.6994 98.9152 86.593 96.3986C86.593 96.3986 86.0882 95.8874 86.0106 95.4941C85.8941 95.1009 85.3116 95.4941 84.8845 94.9829C84.4962 94.5504 83.3701 92.6236 86.0106 90.1855C85.5446 90.4608 85.0398 90.7754 84.535 91.2079C83.2148 92.2697 83.2148 94.3538 83.5643 94.8256C83.9138 95.3368 84.0691 95.8087 84.9233 96.2019C84.9233 96.2019 86.2047 99.0725 89.0393 98.2074Z" fill="#E8A92C"/>
<path d="M89.8933 90.6982C89.738 90.6982 89.5827 89.7937 88.3013 89.6758C87.4858 89.9117 86.5927 90.2263 86.2821 90.7768C85.622 91.8779 85.4667 93.2148 85.4667 93.2148C85.4667 93.2148 86.9422 90.6589 88.4178 90.6982C89.8933 90.7375 88.4566 91.288 88.4566 91.288C88.4566 91.288 87.3305 91.4453 87.0975 93.2148C86.8646 94.9844 88.146 92.3497 89.738 91.9565C90.3204 91.8385 90.7864 91.7992 91.1747 91.7992C90.9417 91.2487 90.5534 90.7375 89.8933 90.6982Z" fill="#FEE980"/>
<path d="M78.0505 91.0122C77.934 91.0909 77.2739 90.501 76.1478 91.2482C75.0217 91.9953 74.5946 93.175 74.2063 94.8265C73.818 96.4781 75.1382 98.0903 75.7207 98.2476C76.3031 98.4049 76.7302 98.7195 77.6622 98.4442C77.6622 98.4442 80.4579 99.8599 82.0888 97.3432C83.7197 94.8265 81.3122 92.2312 80.7686 91.7594C80.225 91.3268 79.0989 90.2651 78.0505 91.0122Z" fill="#FCC557"/>
<path d="M82.0886 97.3428C83.7194 94.8261 81.3119 92.2308 80.7683 91.759C80.6518 91.641 80.4965 91.523 80.3024 91.3657C81.4284 93.4498 83.0593 97.4214 79.021 97.4608C79.021 97.4608 78.322 97.3821 78.0114 97.1462C77.7008 96.9102 77.4678 97.5787 76.8077 97.5001C76.264 97.4214 74.1672 96.635 74.7108 93.0566C74.5167 93.5678 74.3614 94.1576 74.206 94.7868C73.8177 96.4384 75.138 98.0506 75.7204 98.2079C76.3029 98.3652 76.73 98.6798 77.6619 98.4045C77.6619 98.4438 80.4189 99.8595 82.0886 97.3428Z" fill="#E8A92C"/>
<path d="M78.0503 91.0113C77.9338 91.09 77.2737 90.5001 76.1476 91.2472C75.6428 91.9551 75.1769 92.7808 75.2545 93.3707C75.4099 94.629 76.1088 95.7694 76.1088 95.7694C76.1088 95.7694 75.6817 92.8595 76.8466 91.9157C78.0115 91.0113 77.2349 92.3483 77.2349 92.3483C77.2349 92.3483 76.4583 93.1741 77.3902 94.7077C78.2833 96.2412 77.662 93.3707 78.6716 92.0337C79.0211 91.5618 79.4094 91.2472 79.72 91.0113C79.2152 90.736 78.6328 90.5788 78.0503 91.0113Z" fill="#FEE980"/>
<path d="M81.5839 99.3494C81.3898 99.1528 78.8658 97.7765 80.885 96.1643C82.9042 94.5914 86.826 92.9005 87.0978 94.9846C87.3696 97.0687 86.9813 96.7935 87.3696 97.0687C87.7579 97.344 90.8255 99.0742 87.3696 100.962C83.9137 102.849 82.3217 102.181 82.1276 100.686C81.9334 99.1922 81.9334 99.7034 81.5839 99.3494Z" fill="#FCC557"/>
<path d="M87.3696 97.0675C86.9813 96.7922 87.3696 97.0675 87.0978 95.062C86.2047 96.0844 83.7973 98.5224 81.0792 98.4045C80.8462 98.4045 80.6132 98.4045 80.4579 98.4045C80.8462 98.9156 81.4675 99.2696 81.584 99.3875C81.9723 99.7414 81.9334 99.2302 82.1276 100.725C82.3217 102.219 83.9138 102.887 87.3696 101C90.7867 99.0729 87.7579 97.3034 87.3696 97.0675Z" fill="#E8A92C"/>
<path d="M84.0309 99.9384C81.5846 101 87.1373 101 88.9235 98.6801C88.6905 97.8936 87.7586 97.3038 87.4091 97.0679C86.4772 98.2082 85.2735 99.4272 84.0309 99.9384Z" fill="#FCC557"/>
<path d="M86.5151 98.8766C86.5151 98.8766 87.447 97.6576 87.4859 96.9498C87.5247 96.242 88.146 94.905 90.1263 94.5511C92.1066 94.2365 93.3104 94.0399 93.9705 96.124C94.6306 98.1688 95.5625 98.1688 94.9024 99.2699C94.2423 100.371 92.3785 101.826 89.971 100.961C87.5635 100.096 87.3305 99.6631 86.9034 99.5845C86.4374 99.5451 86.1656 99.3878 86.5151 98.8766Z" fill="#E8A92C"/>
<path d="M95.0967 98.4444C94.9802 97.9725 94.3977 97.5007 93.9706 96.1244C93.3105 94.0796 92.1068 94.2369 90.1264 94.5514C89.0392 94.7481 88.3402 95.2199 87.9519 95.7705C87.6801 97.1468 87.6801 98.759 87.9908 99.1522C88.4956 99.86 89.5051 99.3095 92.3009 99.3095C93.7764 99.2702 94.6307 98.8376 95.0967 98.4444Z" fill="#FCC557"/>
<path d="M73.3128 101.944C73.3128 101.944 74.2447 100.725 74.2835 100.017C74.3224 99.3094 74.9436 97.9724 76.924 97.6185C78.9043 97.3039 80.108 97.1073 80.7682 99.1914C81.4283 101.236 82.3602 101.236 81.7001 102.337C81.04 103.438 79.1761 104.893 76.7687 104.028C74.3612 103.163 74.1282 102.73 73.7011 102.652C73.274 102.613 72.9633 102.455 73.3128 101.944Z" fill="#E8A92C"/>
<path d="M81.8945 101.513C81.778 101.041 81.1956 100.569 80.7684 99.1927C80.1083 97.1479 78.9046 97.3052 76.9243 97.6198C75.837 97.8164 75.1381 98.2883 74.7498 98.8388C74.478 100.215 74.478 101.827 74.7886 102.221C75.2934 102.928 76.303 102.378 79.0988 102.378C80.6131 102.339 81.4674 101.906 81.8945 101.513Z" fill="#FCC557"/>
<path d="M100.883 95.9659C100.727 95.9266 100.805 95.0222 99.5624 94.5503C98.3198 94.0784 97.1161 94.4323 95.5629 95.1402C94.0097 95.8086 93.5437 97.8534 93.7378 98.4039C93.9708 98.9545 93.9708 99.505 94.7474 100.095C94.7474 100.095 95.291 103.201 98.281 103.044C101.271 102.887 101.853 99.3477 101.892 98.6399C101.892 97.8927 102.086 96.3592 100.883 95.9659Z" fill="#FCC557"/>
<path d="M98.2808 103.006C101.271 102.849 101.853 99.3096 101.892 98.6018C101.892 98.4445 101.892 98.2479 101.931 98.0119C100.96 100.135 98.7856 103.871 96.3393 100.647C96.3393 100.647 95.9899 100.057 95.9899 99.6242C95.9899 99.2309 95.3298 99.4669 95.0191 98.877C94.7473 98.3658 94.126 96.2424 97.2712 94.5122C96.7665 94.6695 96.184 94.8661 95.6016 95.1414C94.0484 95.8099 93.5824 97.8546 93.7765 98.4052C94.0095 98.9557 94.0095 99.5062 94.7861 100.096C94.7473 100.096 95.2909 103.203 98.2808 103.006Z" fill="#E8A92C"/>
<path d="M100.882 95.9669C100.727 95.9276 100.805 95.0231 99.562 94.5513C98.7077 94.5513 97.7758 94.6692 97.3487 95.1018C96.4556 96.0062 95.9508 97.2645 95.9508 97.2645C95.9508 97.2645 98.0088 95.1804 99.4455 95.5737C100.882 95.9669 99.329 96.1635 99.329 96.1635C99.329 96.1635 98.203 96.0455 97.5428 97.6971C96.8827 99.3487 98.7466 97.1073 100.416 97.1466C100.999 97.1466 101.465 97.2645 101.853 97.3825C101.775 96.714 101.542 96.1635 100.882 95.9669Z" fill="#FEE980"/>
<path d="M92.0677 99.9785C92.0677 99.9785 90.864 99.0348 92.8832 98.091C94.9023 97.1473 96.9603 96.5181 98.0476 97.7764C99.096 99.0348 99.6396 100.214 98.7465 101.08C97.8534 101.945 97.3098 102.259 97.3098 102.535C97.3098 102.81 98.0864 104.186 95.8342 104.815C93.5821 105.444 93.1938 105.012 92.4949 104.697C91.7959 104.383 90.864 103.4 90.7475 102.259C90.631 101.119 90.5922 100.883 91.33 100.45C92.0677 99.9785 92.0677 99.9785 92.0677 99.9785Z" fill="#FCC557"/>
<path d="M93.0385 99.073C93.0385 99.073 94.2811 100.764 95.4848 100.174C96.6497 99.5842 95.8731 98.6798 97.038 98.7978C98.2029 98.9157 97.5428 97.8933 97.5428 97.8933C97.5428 97.8933 96.2226 97.736 95.446 98.0506C94.7082 98.4045 92.9997 98.1293 93.0385 99.073Z" fill="#FEE980"/>
<path d="M98.7076 101.079C99.0959 100.686 99.2124 100.253 99.1348 99.7812C98.4358 101.197 96.6108 102.966 91.9512 100.057C91.8735 100.096 91.757 100.174 91.5629 100.292C91.9512 101 92.8055 102.062 94.2422 102.573C96.4943 103.36 96.6496 103.714 94.9411 104.146C93.8927 104.421 92.5336 104.264 91.4852 103.871C91.7959 104.264 92.1842 104.539 92.4948 104.697C93.1938 105.011 93.5432 105.444 95.8342 104.815C98.0863 104.185 97.3097 102.77 97.3097 102.534C97.3097 102.259 97.8145 101.944 98.7076 101.079Z" fill="#E8A92C"/>
<path d="M70.5951 105.679C70.5951 105.679 69.3913 104.735 71.4105 103.791C73.4297 102.847 75.4877 102.218 76.5749 103.477C77.6233 104.735 78.1669 105.915 77.2738 106.78C76.3807 107.645 75.8371 107.959 75.8371 108.235C75.8371 108.51 76.6137 109.886 74.3616 110.515C72.1094 111.145 71.7211 110.712 71.0222 110.397C70.3233 110.083 69.3913 109.1 69.2748 107.959C69.1584 106.78 69.1195 106.583 69.8573 106.151C70.5951 105.679 70.5951 105.679 70.5951 105.679Z" fill="#FCC557"/>
<path d="M71.5657 104.775C71.5657 104.775 72.8083 106.466 74.012 105.876C75.2157 105.286 74.4003 104.381 75.5652 104.499C76.7301 104.617 76.07 103.595 76.07 103.595C76.07 103.595 74.7498 103.438 73.9732 103.752C73.2354 104.106 71.5269 103.792 71.5657 104.775Z" fill="#FEE980"/>
<path d="M77.2738 106.781C77.6621 106.388 77.7786 105.955 77.7009 105.483C77.002 106.899 75.177 108.669 70.5174 105.759C70.4397 105.798 70.3232 105.877 70.1291 105.995C70.5174 106.702 71.3716 107.764 72.8083 108.275C75.0605 109.062 75.2158 109.416 73.5073 109.848C72.4589 110.123 71.0998 109.966 70.0514 109.573C70.362 109.966 70.7503 110.241 71.061 110.399C71.7599 110.713 72.1094 111.146 74.4004 110.517C76.6525 109.888 75.8759 108.472 75.8759 108.236C75.8371 107.961 76.3807 107.646 77.2738 106.781Z" fill="#E8A92C"/>
<path d="M89.427 100.646C89.2717 100.646 89.1164 99.7412 87.7962 99.5839C86.476 99.4266 85.3887 100.095 84.0685 101.118C82.7483 102.179 82.7483 104.263 83.0977 104.735C83.4472 105.246 83.6025 105.718 84.4568 106.112C84.4568 106.112 85.7382 108.982 88.5728 108.117C91.4074 107.213 91.1744 103.634 91.0191 102.966C90.9026 102.297 90.7084 100.764 89.427 100.646Z" fill="#FCC557"/>
<path d="M88.6115 108.156C91.4461 107.252 91.2131 103.673 91.0578 103.005C91.0189 102.848 90.9801 102.651 90.9413 102.415C90.5142 104.735 89.2716 108.864 86.1652 106.347C86.1652 106.347 85.6604 105.836 85.5827 105.443C85.4662 105.05 84.8838 105.443 84.4567 104.932C84.0684 104.499 82.9423 102.572 85.5827 100.134C85.1168 100.41 84.612 100.724 84.1072 101.157C82.787 102.218 82.787 104.302 83.1364 104.774C83.4859 105.286 83.6412 105.757 84.4955 106.151C84.4955 106.19 85.7769 109.061 88.6115 108.156Z" fill="#E8A92C"/>
<path d="M89.4274 100.646C89.272 100.646 89.1167 99.742 87.8353 99.624C87.0199 99.86 86.1268 100.175 85.8162 100.725C85.156 101.826 85.0007 103.163 85.0007 103.163C85.0007 103.163 86.4763 100.607 87.9518 100.646C89.4274 100.686 87.9906 101.236 87.9906 101.236C87.9906 101.236 86.8646 101.394 86.6316 103.163C86.3986 104.933 87.68 102.298 89.272 101.905C89.8545 101.787 90.3205 101.747 90.7088 101.747C90.5146 101.197 90.1263 100.725 89.4274 100.646Z" fill="#FEE980"/>
<path d="M81.1176 102.14C80.9623 102.218 80.4575 101.471 79.2149 101.943C77.9723 102.415 77.3122 103.477 76.5745 105.05C75.8755 106.583 76.8074 108.431 77.3122 108.746C77.8559 109.021 78.2053 109.414 79.1761 109.336C79.1761 109.336 81.6224 111.302 83.7192 109.218C85.8549 107.094 84.0298 104.027 83.5639 103.477C83.1756 102.926 82.3213 101.628 81.1176 102.14Z" fill="#FCC557"/>
<path d="M83.7581 109.178C85.8938 107.055 84.0687 103.988 83.6028 103.437C83.4863 103.319 83.3698 103.162 83.2145 102.965C83.8746 105.207 84.6512 109.493 80.7293 108.667C80.7293 108.667 80.0692 108.471 79.7974 108.156C79.5256 107.841 79.1761 108.471 78.5549 108.235C78.0112 108.038 76.1474 106.858 77.4288 103.437C77.1182 103.909 76.8463 104.42 76.5745 105.01C75.8756 106.544 76.8075 108.392 77.3123 108.706C77.8559 108.982 78.2054 109.375 79.1761 109.296C79.1761 109.336 81.6224 111.302 83.7581 109.178Z" fill="#E8A92C"/>
<path d="M81.1177 102.14C80.9624 102.218 80.4576 101.471 79.215 101.943C78.5937 102.533 77.9336 103.241 77.8948 103.831C77.7783 105.089 78.2443 106.387 78.2443 106.387C78.2443 106.387 78.4384 103.437 79.7586 102.769C81.0789 102.1 80.0693 103.28 80.0693 103.28C80.0693 103.28 79.1374 103.949 79.7198 105.6C80.3023 107.291 80.2246 104.342 81.506 103.28C81.9331 102.887 82.3603 102.651 82.7486 102.494C82.3214 102.1 81.7778 101.864 81.1177 102.14Z" fill="#FEE980"/>
<path d="M67.9157 95.0615C67.9157 95.0615 68.6147 95.9659 68.8088 95.6513C69.003 95.3368 70.828 92.7021 73.7791 92.4269C76.7301 92.1516 78.9046 92.9381 79.7201 94.5503C80.5743 96.1625 81.8169 98.4433 81.6616 99.6623L82.6323 100.331C82.6323 100.331 82.1275 92.8987 78.5163 91.6404C74.8663 90.4214 71.2551 91.9943 70.2843 92.5448C69.2748 93.1347 67.9157 95.0615 67.9157 95.0615Z" fill="#E5B3CE"/>
<path d="M78.5159 91.6404C74.8659 90.4214 71.2547 91.9943 70.284 92.5448C69.9345 92.7414 69.5462 93.0953 69.1967 93.4886C69.9733 93.056 70.9829 92.5448 71.6818 92.3089C73.0409 91.7977 76.225 91.0899 78.7877 92.073C79.3314 92.2696 79.7973 92.5448 80.1856 92.8594C79.7197 92.3089 79.176 91.8763 78.5159 91.6404Z" fill="#8F529E"/>
<path d="M98.1255 90.6968L97.4266 90.9327C97.4266 90.9327 98.941 95.966 97.0771 98.5613C95.2133 101.157 91.5633 104.106 89.0781 103.87C86.5542 103.673 84.7292 102.965 84.7292 102.965L84.2244 104.027C84.2244 104.027 86.9036 105.168 88.4568 104.853C90.01 104.538 91.4079 104.656 93.1553 103.555C94.9026 102.454 97.9314 99.7804 98.6303 97.185C99.3681 94.6291 98.242 91.09 98.1255 90.6968Z" fill="#E5B3CE"/>
<path d="M88.4953 104.853C90.0485 104.539 91.4464 104.657 93.1938 103.556C94.8246 102.533 97.5039 100.174 98.4747 97.8145C97.931 98.5223 97.0379 99.702 96.8438 99.8986C96.572 100.213 93.8539 103.084 92.5336 103.595C91.2134 104.106 90.1262 104.185 88.8836 104.539C88.3788 104.696 87.874 104.775 87.4081 104.893C87.8352 104.932 88.1847 104.932 88.4953 104.853Z" fill="#8F529E"/>
<path d="M77.0798 102.298C77.1187 102.101 75.8373 102.219 75.8373 102.219C75.8373 102.219 74.4782 106.387 72.1484 105.679C69.8574 104.972 68.2654 100.921 68.1101 100.253C68.1101 100.253 66.7899 100.253 66.6345 101.118C66.4792 101.944 68.0324 106.938 70.2069 107.292C72.3814 107.685 76.2644 106.781 77.0798 102.298Z" fill="#E5B3CE"/>
<path d="M67.838 104.972C68.4592 106.151 69.2747 107.134 70.2066 107.292C72.2258 107.646 75.7205 106.898 76.8465 103.202C76.1864 104.5 75.0603 106.269 73.6236 106.623C71.3327 107.174 69.7018 107.016 69.0029 106.191C68.731 105.876 68.3039 105.444 67.838 104.972Z" fill="#8F529E"/>
<path d="M90.5926 88.6133L89.8937 89.5177C89.8937 89.5177 92.107 91.6018 91.8352 94.3151C91.5634 97.0284 91.3692 98.0901 89.6995 99.7416C88.0298 101.393 87.7969 101.865 84.574 101.826C81.3511 101.786 81.9335 101.826 81.9335 101.826L82.0888 102.77C82.0888 102.77 85.3506 103.32 87.2921 102.573C89.2336 101.826 91.2527 100.135 91.8352 98.9552C92.4176 97.7755 93.5825 94.7476 92.8448 92.6242C92.0682 90.5008 90.5926 88.6133 90.5926 88.6133Z" fill="#F0C2DB"/>
<path d="M85.7773 102.887C86.321 102.848 86.8258 102.73 87.2917 102.533C89.2332 101.786 91.2524 100.095 91.8348 98.9157C92.4173 97.736 93.5822 94.7081 92.8444 92.5847C92.6503 91.9949 92.3396 91.405 92.0678 90.8545C92.5338 92.1128 92.9609 93.5284 92.8833 94.2756C92.7279 95.7305 92.3396 97.8933 91.563 98.9157C90.7864 99.9381 88.5343 101.747 87.447 102.258C87.0199 102.455 86.3986 102.691 85.7773 102.887Z" fill="#9D54A1"/>
<path d="M85.1949 87.5122L84.5348 88.1807C84.5348 88.1807 86.9423 90.3041 87.0976 92.8208C87.2529 95.3375 86.9423 97.2249 86.4375 98.208C85.8939 99.2304 84.4183 101.236 83.0204 101.786C81.6225 102.337 81.6614 102.376 80.5353 102.573C79.4092 102.769 76.7688 102.887 75.5262 102.18C74.2837 101.511 72.0315 100.292 71.8762 99.7416L70.9443 100.056C70.9443 100.056 72.4975 101.708 74.0119 102.258C75.5262 102.848 77.2348 103.517 79.0986 103.32C80.9624 103.123 82.438 102.927 83.4864 102.337C84.5736 101.747 86.5928 99.7809 87.0199 98.4833C87.4859 97.1463 88.4955 95.888 88.0683 93.5286C87.68 91.1299 86.2822 88.456 85.1949 87.5122Z" fill="#F0C2DB"/>
<path d="M83.5252 102.376C84.6124 101.786 86.6316 99.8204 87.0587 98.5227C87.5247 97.1857 88.5342 95.9274 88.1071 93.568C87.8353 91.9951 87.1364 90.3042 86.3598 89.0459C86.981 90.7368 87.8353 93.2928 87.8741 94.1972C87.913 95.6128 87.3305 97.2644 87.0975 97.7756C86.8645 98.2474 86.4762 99.5451 85.855 100.096C85.2337 100.646 83.9523 102.18 82.7486 102.534C81.506 102.888 79.5257 103.32 77.856 103.123C77.0017 103.045 75.7591 102.809 74.7884 102.612C76.1086 103.084 77.5453 103.517 79.0985 103.399C81.0012 103.163 82.4379 102.966 83.5252 102.376Z" fill="#9D54A1"/>
<path d="M68.9843 108.082C49.9106 108.082 34.4494 102.412 34.4494 95.3877C34.4494 113.057 49.6578 127.398 68.4424 127.398C87.2271 127.398 102.435 113.057 102.435 95.3877C102.435 102.412 88.0218 108.082 68.9843 108.082Z" fill="#8DB5B9"/>
<path d="M51.7168 107.79C46.1898 107.315 43.8056 106.144 37.7728 102.705C41.9994 115.363 52.5477 125.021 67.4309 126.081C72.5244 126.447 78.3043 124.947 82.4586 122.752C59.3029 124.362 51.3917 114.229 51.7168 107.79Z" fill="#7CA5AF"/>
<path d="M77.3654 109.581C77.3654 109.581 91.49 108.776 99.329 103.069C99.329 103.069 96.2223 114.227 84.0484 121.47C84.0484 121.47 94.3799 111.117 92.6821 110.312C91.0565 109.507 84.2651 109.837 77.3654 109.581Z" fill="white"/>
<path d="M100.304 96.9966C98.245 102.667 85.4208 107.02 68.9481 107.02C54.2455 107.02 41.7826 103.545 37.7367 98.7891C37.3755 99.1184 37.0503 99.5208 36.7252 99.9232C41.6743 104.716 54.2455 108.118 68.9843 108.118C85.7098 108.118 98.8591 103.728 101.821 97.9477C101.352 97.5453 100.846 97.2527 100.304 96.9966Z" fill="#F0F9FA"/>
</svg>
