<svg width="85" height="61" viewBox="0 0 85 61" fill="none" xmlns="http://www.w3.org/2000/svg">
<path d="M73.4354 28.3876C73.4354 35.3749 59.0218 41.0453 39.9482 41.0453C20.8745 41.0453 5.4494 35.4115 5.4494 28.3876C5.4494 21.3637 20.9106 15.73 39.9843 15.73C59.0579 15.73 73.4354 21.4003 73.4354 28.3876Z" fill="#F0F9FA"/>
<path d="M71.5934 28.3867C71.5934 34.8253 57.9384 40.0201 39.9485 40.0201C21.9585 40.0201 7.32819 34.7887 7.32819 28.3867C7.32819 21.9482 21.9224 16.7534 39.9485 16.7534C57.9745 16.7534 71.5934 21.9482 71.5934 28.3867Z" fill="#344E6B"/>
<path d="M19.889 29.1555C19.7337 29.1555 17.8698 30.4925 16.1613 30.0206C14.414 29.5094 14.2198 32.1047 12.0842 32.1834C12.0842 32.1834 11.0746 32.3013 11.3852 31.6722C11.3852 31.6722 9.13306 34.1102 8.04582 33.2844C8.04582 33.2844 7.61869 33.2058 8.08465 32.6553C8.08465 32.6553 6.7256 32.9305 6.3373 31.9868C5.98783 31.043 6.7256 29.8633 7.65752 29.6274C7.65752 29.6274 6.7256 29.5881 6.95858 29.2735C7.15273 28.9196 8.35646 27.8579 10.7251 27.8185C10.7251 27.8185 8.12348 27.386 6.18198 28.1724C4.24048 28.9982 1.71652 26.7175 2.95908 26.2456C2.95908 26.2456 0.357468 26.4422 0.0468276 25.4592C-0.263813 24.4761 1.01758 23.493 2.57078 23.2178C2.57078 23.2178 1.83301 22.8639 2.3378 22.6279C2.84259 22.392 7.23039 22.8245 7.46337 22.7459C7.69635 22.6673 5.71602 21.173 6.57028 20.6618C7.42454 20.1506 7.92933 19.718 9.40487 20.1899C9.40487 20.1899 9.32722 19.0102 10.7251 20.4652C10.7251 20.4652 10.8804 19.1675 13.4044 22.1167C13.4044 22.1167 15.5789 22.51 16.2001 23.8076C16.2001 23.8076 16.3943 21.9594 12.8219 20.1899C9.28839 18.4204 12.8996 18.3417 12.8996 18.3417C12.8996 18.3417 10.4145 16.8475 11.2299 15.7858C12.0453 14.7634 11.424 12.6793 12.7054 13.4264C14.0257 14.1735 14.6858 14.1342 14.9964 14.724C14.9964 14.724 15.8895 8.07848 16.8603 7.68525C17.831 7.29202 18.4135 9.02223 18.3746 9.33681C18.3746 9.33681 21.4034 7.29202 19.5395 13.9376C19.5395 13.9376 25.8688 7.7639 23.772 12.7972C23.772 12.7972 27.1502 11.185 23.1896 14.6847C23.1896 14.6847 24.3156 15.5891 22.0247 18.617C22.0247 18.617 22.9954 18.1451 22.5294 19.8753C22.5294 19.8753 25.6358 15.3532 25.597 18.7743C25.597 18.7743 30.8002 15.943 28.7034 19.8753C28.7034 19.8753 32.0428 19.954 26.8396 22.2347C26.8396 22.2347 28.1986 22.9425 27.5774 23.8469C27.5774 23.8469 30.5284 25.6951 26.9949 26.167C26.9949 26.167 27.5385 28.4477 24.5098 26.7175C24.5098 26.7568 24.7428 29.3128 19.889 29.1555Z" fill="#358540"/>
<path d="M15.0352 14.5662C15.6953 13.3472 16.7825 11.4203 16.899 10.9878C17.0155 10.4766 16.2777 11.2631 15.5788 11.4597C15.307 12.7966 15.1128 14.055 15.0352 14.5662Z" fill="#5AA846"/>
<path d="M16.2004 28.4871C14.9967 28.0152 14.8802 29.2342 14.5695 30.5318C14.9966 30.1386 15.4238 29.8634 16.1227 30.06C17.8701 30.5712 19.6951 29.1949 19.8504 29.1949C22.0637 29.2735 23.2286 28.7623 23.8111 28.2118C22.7238 28.3298 21.1318 28.4477 20.5494 28.1725C19.5786 27.7399 19.5398 28.723 19.5398 28.723C19.5398 28.723 18.1031 29.2342 16.2004 28.4871Z" fill="#5AA846"/>
<path d="M17.7146 18.9321C17.9864 21.4094 18.5688 21.9206 18.5688 21.9206C18.4912 21.842 17.7146 17.6738 19.5007 19.4826C19.5007 19.4826 21.7141 16.9266 21.6364 18.8928L22.2189 18.6175C22.1412 18.6175 22.0635 18.6568 22.0635 18.6568C22.2189 18.4602 22.3353 18.2636 22.4518 18.1063C21.1316 17.7524 17.5204 16.8873 17.7146 18.9321Z" fill="#186336"/>
<path d="M14.2584 25.1461C11.7344 24.7922 8.1232 24.5562 2.9588 24.7135C2.9588 24.7135 6.64766 24.6349 10.6083 24.9888C9.6764 25.1068 8.31735 25.5786 6.64766 27.0729C6.64766 27.0729 9.32693 25.3034 11.8121 25.0674C13.6759 25.2641 15.5009 25.5393 17.0153 25.9719C16.0834 26.1685 13.7924 26.9943 12.045 30.1401C12.045 30.1401 14.2584 27.3875 17.2094 26.0112C18.3743 26.3651 19.3451 26.7976 19.8887 27.3482C19.9275 27.3875 19.5392 25.9719 14.4525 25.1854C12.4333 23.7305 10.9966 20.7812 10.9966 20.7812C12.045 24.0844 13.6371 24.9495 14.2584 25.1461Z" fill="#80BA65"/>
<path d="M17.404 10.1626C16.2391 15.4319 16.938 19.5608 17.9476 22.4313C17.2875 21.4876 15.7343 19.954 12.7444 19.3641C12.7444 19.3641 15.9285 20.6225 18.1418 22.9818C19.229 25.7344 20.5104 27.1501 20.4716 27.1107C18.6466 24.4368 17.7535 21.4089 17.3263 18.6563C18.5301 16.4936 21.1317 14.7634 21.1317 14.7634C18.2194 16.1397 17.4817 17.7519 17.2875 18.4597C16.6662 13.8589 17.404 10.1626 17.404 10.1626Z" fill="#80BA65"/>
<path d="M20.0442 19.1287C20.0442 19.1287 21.2479 22.3925 20.9761 25.6563C20.549 26.6787 20.7043 27.1899 20.7043 27.1899C20.782 26.4428 21.1314 25.617 21.6362 24.8306C23.9272 24.0048 27.0336 24.4373 27.0336 24.4373C24.0049 23.5329 22.4128 24.2014 21.7915 24.6339C22.4517 23.6509 23.3447 22.7464 24.199 21.8813C25.9464 20.7017 27.8102 20.3084 27.8102 20.3084C26.5676 20.3478 25.5969 20.8196 24.9368 21.2522C26.5288 19.8759 27.9267 18.9321 27.9267 18.9321C23.7719 21.6061 21.9857 23.7295 21.2091 25.1845C21.4809 23.9655 21.5974 21.8027 20.0442 19.1287Z" fill="#80BA65"/>
<path d="M44.5072 22.0385C44.3519 21.9992 42.2162 22.7856 40.663 21.8419C39.1098 20.8982 38.2167 23.3362 36.1588 22.825C36.1588 22.825 35.1492 22.6677 35.6151 22.1565C35.6151 22.1565 32.8194 23.926 31.9651 22.7856C31.9651 22.7856 31.5768 22.589 32.1593 22.1958C32.1593 22.1958 30.7614 22.0778 30.6837 21.0948C30.5672 20.1117 31.6545 19.1679 32.5864 19.2073C32.5864 19.2073 31.7321 18.932 32.0039 18.6568C32.2757 18.3815 33.7125 17.6737 36.0034 18.3028C36.0034 18.3028 33.596 17.1625 31.4991 17.4377C29.4023 17.713 27.5773 14.8031 28.8975 14.7245C28.8975 14.7245 26.3347 14.2133 26.2959 13.1909C26.2571 12.1685 27.7326 11.5393 29.3247 11.6966C29.3247 11.6966 28.7034 11.1854 29.247 11.0674C29.7906 10.9495 33.9066 12.5617 34.1396 12.5617C34.4114 12.5617 32.897 10.5562 33.8289 10.281C34.7997 10.0057 35.3822 9.76979 36.7024 10.5956C36.7024 10.5956 36.9354 9.45521 37.8673 11.2247C37.8673 11.2247 38.3721 10.0057 40.0029 13.5448C40.0029 13.5448 41.9833 14.5279 42.2551 15.9435C42.2551 15.9435 42.9152 14.2133 39.9641 11.5393C37.013 8.86537 40.5466 9.76979 40.5466 9.76979C40.5466 9.76979 38.5662 7.64636 39.6146 6.8599C40.663 6.07344 40.6242 3.95001 41.6726 5.01173C42.721 6.07344 43.3811 6.23074 43.5365 6.89922C43.5365 6.89922 46.1769 0.725539 47.1865 0.60757C48.2349 0.489602 48.3514 2.29845 48.2349 2.61303C48.2349 2.61303 51.6908 1.47267 48.1572 7.3711C48.1572 7.3711 55.8844 3.12423 52.545 7.44974C52.545 7.44974 56.1951 6.82058 51.4966 9.1013C51.4966 9.1013 52.3509 10.281 49.3222 12.5617C49.3222 12.5617 50.3706 12.3651 49.4775 13.8987C49.4775 13.8987 53.6711 10.399 52.7392 13.6628C52.7392 13.6628 58.5249 12.3651 55.4573 15.5896C55.4573 15.5896 58.6414 16.5726 53.011 17.3198C53.011 17.3198 54.1371 18.3815 53.2828 19.0893C53.2828 19.0893 55.6126 21.6846 52.0791 21.1734C52.0791 21.1734 52.0014 23.5328 49.5163 21.0161C49.594 20.9768 49.1668 23.4935 44.5072 22.0385Z" fill="#358540"/>
<path d="M43.7307 6.66433C44.7014 5.68126 46.2546 4.10834 46.4488 3.71511C46.7206 3.28256 45.7498 3.83308 45.0509 3.83308C44.4296 5.01277 43.9248 6.19245 43.7307 6.66433Z" fill="#5AA846"/>
<path d="M41.1681 20.3477C40.1196 19.5613 39.6925 20.7016 39.0712 21.8813C39.576 21.6061 40.0808 21.4488 40.6633 21.842C42.2165 22.7857 44.3521 21.9993 44.5074 22.0386C46.6043 22.7071 47.8468 22.5498 48.5846 22.1566C47.4974 21.96 45.9442 21.6454 45.4394 21.2128C44.6239 20.5443 44.3133 21.4488 44.3133 21.4488C44.3133 21.4488 42.7601 21.6061 41.1681 20.3477Z" fill="#5AA846"/>
<path d="M45.167 11.5783C44.7399 14.0556 45.2059 14.6848 45.2059 14.6848C45.167 14.5668 45.5165 10.3986 46.7591 12.6007C46.7591 12.6007 49.5548 10.7525 48.9724 12.64L49.6325 12.522C49.5548 12.522 49.4772 12.522 49.4772 12.522C49.6713 12.3648 49.8266 12.2468 50.0208 12.0895C48.7394 11.3424 45.4777 9.57284 45.167 11.5783Z" fill="#186336"/>
<path d="M40.1582 16.6127C37.8283 15.5903 34.4501 14.3713 29.4022 13.113C29.4022 13.113 32.9746 14.0567 36.7023 15.433C35.8092 15.2757 34.3725 15.3937 32.3533 16.3767C32.3533 16.3767 35.4209 15.3937 37.8283 15.8656C39.5369 16.534 41.2454 17.3205 42.6045 18.1463C41.6337 18.107 39.2262 18.2642 36.7023 20.8202C36.7023 20.8202 39.5757 18.7754 42.7598 18.2642C43.8082 18.9327 44.5848 19.6012 45.0119 20.2697C45.0507 20.309 45.0507 18.8541 40.3523 16.7307C38.7603 14.7645 38.1778 11.54 38.1778 11.54C38.2943 15.0004 39.6145 16.2588 40.1582 16.6127Z" fill="#80BA65"/>
<path d="M47.1474 3.04736C44.6234 7.80543 44.1963 11.9736 44.4292 15.0015C44.0409 13.9005 42.9537 12.013 40.2356 10.6367C40.2356 10.6367 42.9537 12.7208 44.4681 15.552C44.7787 18.5012 45.6718 20.2314 45.633 20.1528C44.5846 17.0463 44.5069 13.9005 44.8564 11.1872C46.5649 9.41766 49.5548 8.47391 49.5548 8.47391C46.3707 8.98511 45.2447 10.3614 44.8564 10.9906C45.4777 6.42913 47.1474 3.04736 47.1474 3.04736Z" fill="#80BA65"/>
<path d="M47.3415 12.4043C47.3415 12.4043 47.6522 15.8647 46.5261 18.9319C45.866 19.797 45.866 20.3475 45.866 20.3082C46.1378 19.6004 46.6814 18.9319 47.3803 18.3027C49.8266 18.1454 52.6612 19.3644 52.6612 19.3644C49.982 17.6736 48.2734 17.9095 47.5357 18.1454C48.4288 17.3983 49.516 16.7298 50.6032 16.1793C52.5836 15.5108 54.5251 15.6288 54.5251 15.6288C53.3213 15.3535 52.2729 15.5108 51.4963 15.7467C53.399 14.8423 55.0299 14.3311 55.0299 14.3311C50.3314 15.7861 48.0405 17.359 46.9144 18.4993C47.458 17.4769 48.1181 15.3928 47.3415 12.4043Z" fill="#80BA65"/>
<path d="M72.2613 29.1168C72.3778 28.9988 74.6687 28.7629 75.6006 27.2293C76.5714 25.6957 78.4352 27.4653 80.0661 26.0496C80.0661 26.0496 80.9204 25.4205 80.2603 25.2238C80.2603 25.2238 83.5608 25.5384 83.7938 24.1621C83.7938 24.1621 84.0268 23.8082 83.3667 23.7296C83.3667 23.7296 84.5704 23.0218 84.2209 22.078C83.8715 21.1343 82.5124 20.7804 81.697 21.2522C81.697 21.2522 82.3571 20.6231 81.9688 20.5051C81.5805 20.3871 79.9884 20.3871 78.2411 21.9994C78.2411 21.9994 79.9108 19.9153 81.8911 19.1681C83.8715 18.4603 84.2598 15.0392 83.0172 15.5504C83.0172 15.5504 85.0752 13.9382 84.6481 13.0338C84.2209 12.1293 82.6289 12.208 81.3087 13.0731C81.3087 13.0731 81.6581 12.326 81.1145 12.4832C80.5709 12.6405 77.6198 15.9437 77.3868 16.0616C77.1538 16.1796 77.6198 13.7023 76.6491 13.8989C75.6783 14.0955 75.057 14.1348 74.2416 15.4718C74.2416 15.4718 73.5427 14.528 73.465 16.5728C73.465 16.5728 72.4942 15.7077 72.5719 19.64C72.5719 19.64 71.2517 21.4095 71.6011 22.8252C71.6011 22.8252 70.2421 21.5668 71.6788 17.8312C73.1155 14.0955 70.3974 16.4942 70.3974 16.4942C70.3974 16.4942 71.2128 13.7023 69.9315 13.4663C68.6501 13.2304 67.757 11.3036 67.2522 12.7192C66.7862 14.1348 66.2426 14.5674 66.3979 15.2358C66.3979 15.2358 61.35 10.9103 60.3404 11.2642C59.3697 11.6181 60.0686 13.309 60.3016 13.5056C60.3016 13.5056 56.6904 14.0562 62.4761 17.7132C62.4761 17.7132 53.7005 17.3986 58.5931 19.758C58.5931 19.758 55.0207 20.8197 60.2628 20.7804C60.2628 20.7804 60.0298 22.2353 63.7575 22.9038C63.7575 22.9038 62.7091 23.2184 64.2234 24.1621C64.2234 24.1621 58.9037 22.9038 61.2335 25.4205C61.2335 25.4205 55.4867 26.8754 59.6803 28.3697C59.6803 28.3697 57.2728 30.6897 62.6314 28.8415C62.6314 28.8415 62.0878 30.2965 63.175 30.5324C63.175 30.5324 62.2043 33.9142 65.1554 31.8694C65.1554 31.8694 66.2814 33.9142 67.3687 30.5718C67.2134 30.4538 68.7277 32.5379 72.2613 29.1168Z" fill="#358540"/>
<path d="M66.2037 15.0003C64.9223 14.5678 62.8255 13.86 62.476 13.5847C62.0489 13.3094 63.1361 13.3488 63.7574 13.0342C64.8058 13.8206 65.8154 14.6464 66.2037 15.0003Z" fill="#5AA846"/>
<path d="M74.5134 26.0888C75.0958 24.9091 75.9889 25.7349 77.0762 26.5213C76.4937 26.5213 75.9889 26.6 75.6006 27.1898C74.6299 28.7234 72.3777 28.9987 72.2612 29.0773C70.6692 30.6109 69.4655 31.0434 68.65 31.0434C69.5431 30.3749 70.7857 29.3919 71.0575 28.802C71.4846 27.819 72.1447 28.5268 72.1447 28.5268C72.1447 28.5268 73.6203 27.9369 74.5134 26.0888Z" fill="#5AA846"/>
<path d="M67.0578 20.0326C68.4946 22.038 68.4169 22.8245 68.4169 22.8245C68.4169 22.7065 66.2424 19.1281 66.1259 21.6448C66.1259 21.6448 62.8254 21.2516 64.1844 22.6672L63.5631 22.8638C63.6408 22.8245 63.7185 22.7852 63.7185 22.7852C63.4855 22.7458 63.2525 22.7065 63.0583 22.6672C63.7573 21.4482 65.8929 18.381 67.0578 20.0326Z" fill="#186336"/>
<path d="M73.7752 22.2738C75.4061 20.3077 77.9301 17.673 81.8519 14.252C81.8519 14.252 79.095 16.69 76.338 19.6392C77.0758 19.0887 78.396 18.5381 80.6482 18.4988C80.6482 18.4988 77.4641 19.01 75.5226 20.5043C74.28 21.8806 73.1151 23.3355 72.2609 24.6725C73.1151 24.2006 75.3284 23.2569 78.7067 24.3972C78.7067 24.3972 75.2508 23.8467 72.1444 24.8298C71.4843 25.8915 71.096 26.8353 71.0183 27.6217C71.0183 27.661 70.3582 26.3634 73.6199 22.3525C74.1635 19.9144 73.2705 16.7293 73.2705 16.7293C74.7072 19.9931 74.0859 21.7233 73.7752 22.2738Z" fill="#80BA65"/>
<path d="M61.5436 13.3086C65.8925 16.4151 68.1059 19.9542 69.2319 22.7854C69.1154 21.6057 69.2319 19.443 71.0569 16.9656C71.0569 16.9656 69.5426 20.0721 69.4649 23.2966C70.4745 26.0492 70.4745 28.0153 70.4357 27.9367C70.0085 24.7122 68.6883 21.8416 67.1739 19.5609C64.8441 18.7745 61.7377 19.2463 61.7377 19.2463C64.8053 18.2633 66.4362 18.9711 67.0186 19.3643C64.4947 15.55 61.5436 13.3086 61.5436 13.3086Z" fill="#80BA65"/>
<path d="M65.5045 21.7617C65.5045 21.7617 66.7471 25.0255 69.1157 27.2276C70.0865 27.6995 70.3583 28.1713 70.3194 28.1713C69.7758 27.6601 68.9604 27.3062 68.0673 27.0703C65.8151 28.014 63.796 30.4127 63.796 30.4127C65.4268 27.6995 67.0965 27.1096 67.8343 26.9917C66.7082 26.7164 65.4268 26.5984 64.2231 26.5984C62.1651 26.913 60.4954 27.8568 60.4954 27.8568C61.4273 27.0703 62.4758 26.7164 63.2524 26.5984C61.1555 26.6377 59.4858 26.913 59.4858 26.913C64.3396 26.0872 67.0577 26.4411 68.5721 26.9917C67.6402 26.3232 66.1258 24.7896 65.5045 21.7617Z" fill="#80BA65"/>
<path d="M16.2002 25.8214C16.2002 25.8214 15.4625 29.9503 16.7438 31.4838C18.0252 33.0568 21.5199 35.888 24.3157 34.787C27.1115 33.6859 30.9557 30.4221 29.3248 25.8214C27.6551 21.2599 24.7817 20.1982 20.9375 22.007C17.0933 23.8159 16.6662 24.4057 16.2002 25.8214Z" fill="#D84D27"/>
<path d="M20.9369 22.0059C20.5098 22.2025 20.1215 22.3992 19.772 22.5958C20.2768 22.989 20.8981 23.4609 21.0146 23.8148C21.2476 24.4046 21.6359 27.3538 21.6747 28.3762C21.7135 29.3986 22.4125 31.522 22.6066 31.758C22.8008 31.9939 23.6939 25.7023 22.296 23.8541C21.7135 23.107 21.4029 22.3992 21.2476 21.8486C21.1311 21.9273 21.0534 21.9666 20.9369 22.0059Z" fill="#F3B184"/>
<path d="M19.6943 25.4272C19.5778 25.3485 18.2188 24.3261 17.9858 25.7024C17.7528 27.0787 17.5198 30.2246 19.073 31.2863C20.6262 32.348 22.3348 33.449 22.8007 33.0165C23.2667 32.5839 21.2475 29.8706 21.0145 28.5337C20.7427 27.1967 20.9757 26.2136 19.6943 25.4272Z" fill="#B62425"/>
<path d="M24.7042 23.3039C24.7042 23.3039 21.6755 23.1859 22.025 24.7195C22.3744 26.2531 23.85 28.2585 23.7335 29.0843C23.617 29.9101 23.5005 30.4606 23.7723 31.1684C24.0441 31.8369 24.3159 32.6627 25.1314 32.3088C25.908 31.9942 30.1793 25.6632 24.7042 23.3039Z" fill="#B62425"/>
<path d="M22.9174 24.5635C22.8397 24.7602 23.8105 24.8388 23.927 24.0917C23.927 24.0917 23.2669 23.6591 22.9174 24.5635Z" fill="#DFC523"/>
<path d="M23.6168 25.5455C23.4615 25.7028 24.3157 26.1747 24.7429 25.5455C24.7429 25.5455 24.3157 24.8377 23.6168 25.5455Z" fill="#DFC523"/>
<path d="M24.0825 26.568C23.9272 26.7253 24.7815 27.1972 25.2086 26.568C25.2086 26.568 24.7815 25.8602 24.0825 26.568Z" fill="#DFC523"/>
<path d="M24.3928 27.7081C24.1987 27.7867 24.8588 28.5339 25.4412 28.1013C25.4412 28.062 25.2471 27.2756 24.3928 27.7081Z" fill="#DFC523"/>
<path d="M24.3934 28.7713C24.1993 28.8106 24.6652 29.6757 25.3254 29.3611C25.3254 29.3611 25.3254 28.5747 24.3934 28.7713Z" fill="#DFC523"/>
<path d="M24.0436 29.949C23.8494 29.9883 24.2766 30.8534 24.9755 30.5782C24.9755 30.5782 24.9755 29.7917 24.0436 29.949Z" fill="#DFC523"/>
<path d="M19.8503 26.0578C20.0056 26.1758 19.229 26.805 18.7631 26.2545C18.7631 26.2545 19.0737 25.5073 19.8503 26.0578Z" fill="#DFC523"/>
<path d="M19.8498 27.2767C20.0439 27.316 19.6168 28.1811 18.9179 27.9058C18.9179 27.9058 18.879 27.1194 19.8498 27.2767Z" fill="#DFC523"/>
<path d="M20.005 28.3754C20.1992 28.4147 19.7721 29.2798 19.0731 29.0046C19.112 29.0439 19.0731 28.2181 20.005 28.3754Z" fill="#DFC523"/>
<path d="M20.393 29.5163C20.5872 29.477 20.4707 30.46 19.7329 30.4207C19.7329 30.4207 19.4611 29.6736 20.393 29.5163Z" fill="#DFC523"/>
<path d="M21.0151 30.3834C21.2093 30.3047 21.2869 31.2878 20.588 31.4058C20.5492 31.4058 20.122 30.7373 21.0151 30.3834Z" fill="#DFC523"/>
<path d="M21.9466 31.1685C22.1407 31.0899 22.2572 32.073 21.5195 32.2302C21.5583 32.2302 21.0923 31.5618 21.9466 31.1685Z" fill="#DFC523"/>
<path d="M10.9963 35.494C10.9963 35.494 10.2585 37.4208 10.6857 38.0499C11.1516 38.6791 12.1612 40.0161 13.5591 40.3307C14.957 40.6059 15.4618 40.1341 16.2384 40.488C17.015 40.8025 18.374 41.6283 19.5778 41.3531C20.7815 41.0778 22.3347 40.5273 22.6842 40.1341C23.0725 39.7408 23.1501 38.9937 24.4315 39.4262C25.7129 39.8588 27.305 39.8981 28.5087 39.2296C29.6736 38.5611 30.8773 38.1679 31.6928 36.2018C31.6928 36.2018 31.6539 35.9265 32.9741 34.3929C34.2944 32.8593 33.9061 30.1854 33.9061 30.1854L33.4789 28.8091L32.5858 29.2023C32.5858 29.2023 31.3433 32.938 30.1784 32.938C28.9747 32.9773 29.0135 34.275 29.0911 34.8648C29.1688 35.4546 28.9358 35.5726 28.8582 35.9658C28.7805 36.3591 28.897 36.3591 28.8582 36.6736C28.7805 36.9489 27.3438 36.713 26.9555 37.1062C26.5672 37.4994 26.9555 38.1679 25.6353 37.696C24.315 37.2242 23.6549 36.6736 23.6549 36.6736C23.6549 36.6736 22.8783 37.3815 21.9464 38.1286C20.9757 38.8757 20.6262 39.4262 19.8107 39.3083C19.0341 39.1903 19.5389 38.6398 19.0341 38.915C18.5294 39.1903 18.7623 38.6005 18.0634 38.4432C17.3645 38.2859 16.5879 37.8927 16.4325 37.1455C16.2772 36.3984 15.4618 38.7184 15.0346 38.6398C14.6463 38.5611 13.5979 38.8757 12.7825 37.1062C11.9671 35.258 10.9963 35.494 10.9963 35.494Z" fill="#F36F4B"/>
<path d="M31.732 36.1233C31.732 36.1233 31.6931 35.848 33.0134 34.3144C33.5958 33.646 33.8676 32.7415 33.9453 31.9551C33.5182 33.0168 32.858 33.9212 32.5474 34.3144C32.0426 34.9829 31.6155 35.848 31.2272 36.4772C30.8777 37.1064 29.6352 38.3254 28.0431 38.9545C26.4511 39.5837 25.4415 39.2298 24.7037 38.9939C23.966 38.7186 23.3447 38.7579 22.9952 39.1118C22.6457 39.4657 21.9856 39.9376 20.1606 40.6061C18.3356 41.2353 17.093 40.3702 16.5494 40.0949C15.967 39.8196 13.909 40.0163 13.0159 39.741C12.4334 39.5444 11.3074 38.404 10.5696 37.5782C10.5696 37.7355 10.6472 37.8928 10.7249 37.9715C11.1909 38.6006 12.2004 39.9376 13.5983 40.2522C14.9962 40.5275 15.501 40.0556 16.2776 40.4095C17.0542 40.7241 18.4133 41.5498 19.617 41.2746C20.8207 40.9993 22.3739 40.4488 22.7234 40.0556C23.1117 39.6624 23.1894 38.9152 24.4707 39.3478C25.7521 39.7803 27.3442 39.8196 28.5479 39.1512C29.7128 38.522 30.9165 38.1288 31.732 36.1233Z" fill="#E41E26"/>
<path d="M8.27856 30.7759C8.27856 30.7759 6.37589 32.0735 6.2594 32.3095C6.18174 32.5847 6.60887 34.7868 7.38547 35.7699C8.16207 36.7136 8.74452 37.3821 10.9967 37.972C13.2488 38.5618 12.5499 39.2696 14.5302 39.2696C16.5105 39.2696 18.4132 38.2865 19.4228 38.1292C20.4324 37.972 21.2478 38.9157 23.1117 38.6404C24.9755 38.3652 26.4899 38.2865 27.5383 37.0675C28.5867 35.8485 29.208 34.6688 30.1787 33.961C31.1495 33.2139 32.1202 30.8152 32.0814 29.9894C32.0426 29.203 31.7708 27.8267 31.7708 27.8267C31.7708 27.8267 29.7904 32.2701 29.1691 32.624C28.5479 33.0173 27.6936 32.8993 27.4995 33.1352C27.3053 33.3712 26.9947 34.9048 26.7617 35.2194C26.4899 35.5339 26.3734 35.1407 26.1404 36.1631C25.8686 37.1855 26.3346 35.7306 22.6457 36.635C22.6457 36.635 20.976 37.1462 20.6654 36.0451C20.3547 34.9441 18.7239 34.7475 18.7239 34.7475C18.7239 34.7475 18.5685 36.7136 17.7531 36.9102C16.9377 37.1068 15.1127 37.8147 15.1127 37.618C15.1127 37.2641 13.6371 36.6743 13.4818 37.3428C13.4818 37.3428 13.9478 34.9048 13.4818 34.5115C13.0158 34.1576 11.7733 35.3373 11.3073 35.7305C10.8413 36.1238 10.919 35.9665 10.453 35.5339C10.0259 35.1014 9.71528 35.8092 9.28815 34.6688C8.86101 33.5285 10.0259 32.2701 10.0259 32.2701L8.27856 30.7759Z" fill="#F36F4B"/>
<path d="M27.5383 37.0672C28.5867 35.8482 29.208 34.6685 30.1787 33.9607C31.1495 33.2135 32.1202 30.8148 32.0814 29.9891C32.0814 29.9497 32.0814 29.9104 32.0814 29.8711C31.5766 31.2867 30.567 33.4101 30.0234 33.6068C29.3245 33.8427 28.5867 35.0617 27.7713 36.4773C26.917 37.893 24.8978 38.0896 23.267 38.2469C21.6361 38.4042 22.1409 38.2862 20.8595 37.9323C19.5781 37.5784 19.2286 37.775 17.2095 38.5614C15.1903 39.3479 13.7148 38.9153 12.511 38.0896C11.3073 37.2638 9.75411 37.1458 8.27856 36.0055C7.30781 35.2583 6.84185 33.2529 6.60887 31.9945C6.41472 32.1518 6.29823 32.2698 6.2594 32.3484C6.18174 32.6237 6.60887 34.8258 7.38547 35.8088C8.16207 36.7526 8.74452 37.4211 10.9967 38.0109C13.2488 38.6008 12.5499 39.3086 14.5302 39.3086C16.5105 39.3086 18.4132 38.3255 19.4228 38.1682C20.4324 38.0109 21.2478 38.9547 23.1117 38.6794C24.9755 38.3648 26.4899 38.2862 27.5383 37.0672Z" fill="#E41E26"/>
<path d="M7.38533 29.9501C7.26884 30.186 8.47258 34.3149 10.2976 35.0227C12.1226 35.7305 13.4428 37.9719 16.3939 37.736C19.345 37.5001 19.1508 36.4777 21.4418 36.8709C23.7328 37.2641 25.6355 36.6743 27.0722 34.9048C28.5089 33.1746 29.169 32.1915 29.7903 31.6803C30.4116 31.1691 30.5669 27.8267 30.5669 27.8267C30.5669 27.8267 28.3536 29.9108 28.3536 29.9894C28.3536 30.0287 27.9653 32.1915 26.2956 31.7196C24.6259 31.2477 25.752 32.1128 25.752 32.1128C25.752 32.1128 26.4509 35.7699 21.6748 34.9048C21.6748 34.9048 20.7817 34.5115 20.3546 34.2363C19.9274 33.961 20.0051 33.8431 19.5391 34.3149C19.0732 34.7868 18.0248 35.8878 16.4716 35.7305C14.9184 35.6126 13.9864 35.6912 13.5593 34.9048C13.1322 34.1183 12.4721 33.9217 12.3168 33.961C12.1614 34.0003 9.94812 33.7251 9.55982 31.4444C9.21035 29.1243 7.38533 29.9501 7.38533 29.9501Z" fill="#F36F4B"/>
<path d="M30.5676 27.8267C30.5676 27.8267 30.4511 27.9446 30.2957 28.1019C30.1404 29.2423 29.8298 31.0511 29.6745 31.3264C29.4415 31.7589 27.9659 33.1352 27.6165 33.7644C27.267 34.3936 25.3643 36.0451 23.8499 36.4384C22.3356 36.8316 20.7824 36.2811 20.0834 36.399C19.3845 36.517 16.5111 37.4214 15.5791 37.3821C14.6084 37.3428 12.9387 36.3204 12.2786 35.7699C11.6573 35.2194 10.1041 34.5509 9.24984 33.7644C8.70622 33.2139 8.12376 31.2477 7.81312 29.8714C7.58014 29.9108 7.42482 29.9894 7.42482 29.9894C7.30833 30.2254 8.51207 34.3543 10.3371 35.0621C12.1621 35.7699 13.4823 38.0113 16.4334 37.7753C19.3845 37.5394 19.1903 36.517 21.4813 36.9102C23.7723 37.3035 25.675 36.7136 27.1117 34.9441C28.5484 33.2139 29.2085 32.2308 29.8298 31.7196C30.4122 31.1691 30.5676 27.8267 30.5676 27.8267Z" fill="#E41E26"/>
<path d="M8.12325 26.9224C8.12325 26.9224 6.57004 28.0627 6.57004 28.456C6.57004 28.8492 6.18174 31.4445 9.36581 32.8994C9.36581 32.8994 9.67645 32.9781 10.5695 33.7645C11.4626 34.5903 14.0254 35.77 15.6563 35.652C17.2871 35.5341 18.1414 34.669 18.9568 34.7476C19.7723 34.8263 22.3739 34.8656 23.5388 34.2364C24.7037 33.6072 26.0627 32.3096 26.8393 32.0343C27.6548 31.7591 28.9362 31.6018 29.4798 31.6804C30.0234 31.7591 31.5378 28.5346 31.3825 28.22C31.2271 27.9448 30.1787 27.2369 30.1787 27.2369L29.7904 27.6695L23.6553 30.7367L18.7627 30.894C18.7627 30.894 18.8015 31.6411 17.1707 32.3489C15.5398 33.096 13.1712 32.9388 12.2781 32.1523C11.385 31.3658 11.9286 30.3041 11.9286 30.3041L10.6472 29.6356C10.6472 29.6356 9.52113 30.9726 9.05517 29.9109C8.62804 28.8492 8.66687 27.5909 8.66687 27.5909L8.12325 26.9224Z" fill="#F36F4B"/>
<path d="M31.4214 28.2586C31.3437 28.1013 30.9942 27.826 30.7224 27.6294C30.3341 28.6125 29.2857 30.3033 28.6256 30.5C27.7713 30.7359 26.9947 30.9325 25.9075 31.8763C24.8202 32.82 23.1117 33.7638 21.675 33.9997C20.2383 34.275 19.0734 33.8817 18.6074 33.8424C18.1415 33.8424 17.4037 34.3929 15.7728 34.6682C14.1808 34.9041 12.2781 33.921 11.385 33.2526C10.4919 32.6234 10.4143 32.2302 10.4143 32.1122C10.4143 31.9942 10.1813 31.9549 10.1813 31.9549C7.73501 31.9942 7.19139 29.5562 7.0749 27.7867C6.76425 28.0619 6.5701 28.2979 6.5701 28.4159C6.5701 28.8091 6.1818 31.4044 9.36587 32.8593C9.36587 32.8593 9.67651 32.938 10.5696 33.7244C11.4627 34.5502 14.0255 35.7299 15.6563 35.6119C17.2872 35.494 18.1415 34.6289 18.9569 34.7075C19.7723 34.7861 22.374 34.8255 23.5389 34.1963C24.7038 33.5671 26.0628 32.2695 26.8394 31.9942C27.6548 31.719 28.9362 31.5617 29.4799 31.6403C30.0623 31.7583 31.5767 28.5338 31.4214 28.2586Z" fill="#E41E26"/>
<path d="M6.56978 23.1084C6.56978 23.1084 9.52087 22.6365 9.4432 22.7938C9.36554 22.9511 9.48204 23.0298 9.36555 23.2264C9.21023 23.423 8.82192 23.423 8.6666 23.8555C8.51128 24.2881 8.78309 26.5688 9.87034 27.0014C10.9964 27.4339 12.0448 28.0238 12.1225 28.4956C12.2001 28.9675 13.8698 29.7933 14.4523 29.8719C15.0347 29.9113 17.0927 30.1079 17.4034 29.5573C17.714 29.0068 17.9082 29.2034 17.9082 29.2034C17.9082 29.2034 17.8693 27.9844 18.2965 28.5743C18.7236 29.1641 18.413 29.4394 18.8401 29.7933C19.2672 30.1472 19.8108 29.9506 20.6263 30.2652C21.4029 30.5797 21.6359 30.855 22.296 30.6191C22.9949 30.3831 23.5774 30.8943 24.121 30.3045C24.6646 29.754 24.354 29.5573 24.9364 29.4001C25.5189 29.2428 27.5769 29.3607 28.5088 27.7092C29.4407 26.0576 29.7513 26.0576 29.596 25.5071C29.4407 24.9173 29.4407 24.9173 29.4407 24.9173C29.4407 24.9173 30.295 25.3105 30.2173 25.6251C30.1396 25.9396 29.1301 30.0292 27.4604 30.4618C25.7907 30.855 26.5284 32.4279 23.1891 32.4672C19.8497 32.5066 19.0342 31.4842 18.0635 31.6021C17.0927 31.7201 17.0151 32.3886 14.2193 31.7594C11.4235 31.1303 11.4235 30.7764 9.90917 29.4394C8.39479 28.1024 7.1134 27.5126 6.56978 25.5464C6.02616 23.5803 6.3368 23.1477 6.56978 23.1084Z" fill="#F36F4B"/>
<path d="M30.1014 25.3491C29.7519 26.5681 28.6646 29.2027 27.6551 29.7925C26.4125 30.5003 25.9854 30.8936 24.704 31.6014C23.3838 32.3092 20.3162 31.9946 18.9571 31.4048C17.5981 30.8149 17.5592 31.0509 17.5592 31.0509C15.6954 31.916 14.3752 31.4834 12.7055 31.0115C11.0358 30.5397 10.8028 29.3993 10.2204 29.0454C9.67674 28.6915 7.38576 26.5681 6.88097 25.3491C6.60916 24.7199 6.5315 23.8548 6.5315 23.147C6.29852 23.2256 6.06554 23.6582 6.57033 25.5457C7.11395 27.5118 8.39534 28.1016 9.90972 29.4386C11.4241 30.7756 11.4629 31.1688 14.2199 31.7587C17.0156 32.3878 17.0933 31.7193 18.064 31.6014C19.0348 31.4834 19.8114 32.5058 23.1508 32.4665C26.4902 32.4272 25.7524 30.8542 27.4221 30.461C29.0918 30.0678 30.1402 25.9389 30.179 25.6243C30.2567 25.5457 30.179 25.467 30.1014 25.3491Z" fill="#E41E26"/>
<path d="M26.4904 18.5858C26.4904 18.5858 25.0925 21.2597 25.6361 22.5181C26.1409 23.7371 26.6457 24.4842 27.9271 24.8381C29.2085 25.192 32.1596 25.2707 33.6739 22.9899C35.1883 20.7092 34.9553 17.7993 34.567 17.0522C34.1787 16.2264 29.7133 13.0413 26.4904 18.5858Z" fill="#E4EFC6"/>
<path d="M29.441 20.3554C29.441 20.3554 28.4703 20.2767 28.4315 21.1418C28.4315 22.0463 29.1304 20.8273 29.441 20.3554Z" fill="#F2F6D8"/>
<path d="M29.5571 20.0009C29.5571 20.0009 28.9358 19.2145 28.2757 19.8043C27.6544 20.3548 29.0135 20.0403 29.5571 20.0009Z" fill="#F2F6D8"/>
<path d="M29.9843 20.1578C29.9843 20.1578 30.5279 19.332 31.2269 19.8432C31.9258 20.3544 30.5279 20.1578 29.9843 20.1578Z" fill="#F2F6D8"/>
<path d="M29.7517 19.7641C29.7517 19.7641 29.4799 18.8203 30.2954 18.5844C31.1496 18.3485 30.1012 19.3315 29.7517 19.7641Z" fill="#F2F6D8"/>
<path d="M29.829 20.4336C29.829 20.4336 29.4019 21.338 30.1785 21.6919C30.9551 22.0065 30.1008 20.9055 29.829 20.4336Z" fill="#F2F6D8"/>
<path d="M33.0133 22.9501C31.499 24.7983 28.975 24.6016 27.2277 23.8938C26.2181 23.5006 25.7909 22.2423 25.5968 21.2199C25.5191 21.6918 25.5191 22.1636 25.6744 22.5175C26.1792 23.7365 26.684 24.4837 27.9654 24.8376C29.2468 25.1915 32.1979 25.2701 33.7123 22.9894C35.1102 20.9053 34.9937 18.2707 34.683 17.2876C34.7607 18.8998 34.1782 21.4951 33.0133 22.9501Z" fill="#4F9241"/>
<path d="M41.4007 17.8789C41.556 17.761 43.2257 15.087 44.3906 14.6151C45.5555 14.1433 47.6911 13.2388 48.5454 14.7331C49.3996 16.2274 49.3996 18.9406 48.1183 20.6708C46.798 22.401 44.0799 24.7997 41.789 21.8505C40.2746 20.0024 41.4007 17.8789 41.4007 17.8789Z" fill="#E4EFC6"/>
<path d="M44.3906 14.6144C43.9635 14.7717 43.4975 15.2436 43.0315 15.7941C44.5459 14.929 47.3029 13.5527 47.6912 14.6144C48.2348 16.0694 49.2055 19.5298 46.1768 21.2993C43.5752 22.7936 42.4491 22.3217 41.0512 20.3162C41.1289 20.8274 41.323 21.378 41.7501 21.8892C44.0411 24.799 46.7981 22.4397 48.0795 20.7095C49.3997 18.9793 49.3608 16.266 48.5066 14.7717C47.6912 13.1988 45.5555 14.1032 44.3906 14.6144Z" fill="#4F9241"/>
<path d="M44.3124 18.1528C44.3124 18.1528 43.6523 17.6809 43.264 18.2708C42.8757 18.9 43.8853 18.3101 44.3124 18.1528Z" fill="#F2F6D8"/>
<path d="M44.5849 17.9557C44.5849 17.9557 44.4684 17.1299 43.7695 17.2479C43.0317 17.3658 44.1578 17.7197 44.5849 17.9557Z" fill="#F2F6D8"/>
<path d="M44.7787 18.2308C44.7787 18.2308 45.5165 17.8769 45.7883 18.5454C46.0601 19.2532 45.167 18.5061 44.7787 18.2308Z" fill="#F2F6D8"/>
<path d="M44.7788 17.8782C44.7788 17.8782 44.973 17.0918 45.6719 17.2884C46.3708 17.485 45.2059 17.7209 44.7788 17.8782Z" fill="#F2F6D8"/>
<path d="M44.5456 18.3496C44.5456 18.3496 43.8467 18.7822 44.2738 19.4113C44.7009 20.0012 44.5456 18.8215 44.5456 18.3496Z" fill="#F2F6D8"/>
<path d="M49.3604 15.7144C49.5157 15.6358 51.962 13.6696 53.2434 13.6303C54.5248 13.5517 56.8158 13.4337 57.1264 15.1246C57.437 16.8155 56.5828 19.4108 54.7578 20.5904C52.9716 21.7701 49.5934 23.1464 48.3896 19.6074C47.613 17.366 49.3604 15.7144 49.3604 15.7144Z" fill="#E4EFC6"/>
<path d="M53.2053 13.5917C52.7393 13.631 52.118 13.9063 51.5356 14.2209C53.2441 13.9063 56.3117 13.5524 56.3117 14.6534C56.3505 16.2264 56.1563 19.8047 52.7005 20.4339C49.7494 20.9844 48.8563 20.1586 48.1962 17.7993C48.1185 18.3105 48.1185 18.9003 48.3515 19.5295C49.594 23.0685 52.9334 21.7315 54.7196 20.5125C56.5058 19.3329 57.3989 16.7376 57.0883 15.0467C56.8164 13.3951 54.4866 13.5131 53.2053 13.5917Z" fill="#4F9241"/>
<path d="M52.0011 16.9339C52.0011 16.9339 51.5352 16.2654 50.9527 16.6979C50.4091 17.1698 51.5352 16.9339 52.0011 16.9339Z" fill="#F2F6D8"/>
<path d="M52.3119 16.8153C52.3119 16.8153 52.4672 16.0288 51.7682 15.8715C51.0693 15.7535 52.0012 16.4613 52.3119 16.8153Z" fill="#F2F6D8"/>
<path d="M52.4288 17.1696C52.4288 17.1696 53.2443 17.0909 53.2831 17.7988C53.3219 18.5459 52.7006 17.5235 52.4288 17.1696Z" fill="#F2F6D8"/>
<path d="M52.545 16.8157C52.545 16.8157 53.011 16.1472 53.5935 16.5404C54.1759 16.973 53.011 16.8157 52.545 16.8157Z" fill="#F2F6D8"/>
<path d="M52.1567 17.2095C52.1567 17.2095 51.3801 17.4061 51.5743 18.1139C51.7684 18.7824 52.0014 17.642 52.1567 17.2095Z" fill="#F2F6D8"/>
<path d="M34.4886 15.5574C34.4886 15.5574 34.4109 15.7147 34.2944 15.9507C34.2556 16.0293 34.2167 16.0686 34.2167 16.1473C33.8673 16.8944 33.3625 18.2707 33.6343 19.2538C34.0226 20.7087 34.4886 21.8098 35.4593 22.5962C36.4301 23.3827 39.0317 23.5006 40.3907 22.5962C41.7498 21.6918 43.7689 20.2368 43.2642 17.9168C42.7594 15.5968 40.2742 14.3777 39.653 14.1418C39.0705 13.9452 36.3136 13.1981 34.4886 15.5574Z" fill="#4F9241"/>
<path d="M38.1004 22.3603C40.702 22.085 42.2941 20.866 42.6047 19.7257C42.9153 18.5853 42.6824 16.6585 41.8669 15.9507C41.5563 15.6754 41.0515 15.0856 40.469 14.535C40.1196 14.3384 39.8478 14.2205 39.6924 14.1418C39.11 13.9452 36.353 13.1981 34.528 15.5574C34.528 15.5574 34.4504 15.7147 34.3339 15.9507C34.2951 16.0293 34.2562 16.0686 34.2562 16.1473C34.1786 16.3439 34.0621 16.5798 33.9844 16.8158C33.8679 17.7595 33.9068 18.7426 34.2174 19.4897C35.0328 21.4165 35.4988 22.6749 38.1004 22.3603Z" fill="#E4EFC6"/>
<path d="M37.8672 17.4856C37.8672 17.4856 37.673 16.3452 36.7023 16.5418C35.6927 16.7384 37.2847 17.2103 37.8672 17.4856Z" fill="#F2F6D8"/>
<path d="M38.3331 17.5238C38.3331 17.5238 39.0321 16.6194 38.2166 15.9903C37.4012 15.4004 38.139 16.8554 38.3331 17.5238Z" fill="#F2F6D8"/>
<path d="M38.2556 17.9971C38.2556 17.9971 39.3428 18.3903 38.9545 19.334C38.5662 20.3171 38.4109 18.6656 38.2556 17.9971Z" fill="#F2F6D8"/>
<path d="M38.6443 17.6416C38.6443 17.6416 39.615 17.0518 40.1198 17.9562C40.5858 18.8606 39.2267 17.9169 38.6443 17.6416Z" fill="#F2F6D8"/>
<path d="M37.9062 17.8774C37.9062 17.8774 36.7801 17.6414 36.6248 18.6245C36.4306 19.6862 37.4402 18.3492 37.9062 17.8774Z" fill="#F2F6D8"/>
<path d="M55.9618 18.5862C55.9618 18.5862 55.8841 18.7435 55.7676 18.9794C55.7288 19.0581 55.69 19.0974 55.69 19.1761C55.3405 19.9232 54.8357 21.2995 55.1075 22.2826C55.4958 23.7375 55.9618 24.8385 56.9325 25.625C57.9033 26.4115 60.5049 26.5294 61.8639 25.625C63.223 24.7206 65.2422 23.2656 64.7374 20.9456C64.2326 18.6255 61.7474 17.4065 61.1262 17.1706C60.5437 17.0133 57.7868 16.2662 55.9618 18.5862Z" fill="#4F9241"/>
<path d="M59.5729 25.4277C62.1745 25.1524 63.7665 23.9334 64.0772 22.793C64.3878 21.6527 64.1548 19.7259 63.3394 19.018C63.0288 18.7428 62.524 18.1529 61.9415 17.6024C61.592 17.4058 61.3202 17.2878 61.1649 17.2092C60.5825 17.0126 57.8255 16.2654 56.0005 18.6248C56.0005 18.6248 55.9229 18.7821 55.8064 19.018C55.7675 19.0967 55.7287 19.136 55.7287 19.2147C55.651 19.4113 55.5345 19.6472 55.4569 19.8831C55.3404 20.8269 55.3792 21.81 55.6899 22.5571C56.5053 24.4446 56.9713 25.7029 59.5729 25.4277Z" fill="#E4EFC6"/>
<path d="M59.34 20.5115C59.34 20.5115 59.1458 19.3711 58.1751 19.5677C57.2043 19.8036 58.7575 20.2362 59.34 20.5115Z" fill="#F2F6D8"/>
<path d="M59.8063 20.5511C59.8063 20.5511 60.5053 19.6466 59.6898 19.0175C58.8744 18.4276 59.6122 19.9219 59.8063 20.5511Z" fill="#F2F6D8"/>
<path d="M59.7283 21.0615C59.7283 21.0615 60.8155 21.4548 60.4272 22.3985C60.0389 23.3422 59.8836 21.6907 59.7283 21.0615Z" fill="#F2F6D8"/>
<path d="M60.1165 20.7085C60.1165 20.7085 61.0872 20.1187 61.592 21.0231C62.058 21.8882 60.6989 20.9838 60.1165 20.7085Z" fill="#F2F6D8"/>
<path d="M59.3783 20.9457C59.3783 20.9457 58.2522 20.7098 58.0969 21.6928C57.9027 22.7152 58.9123 21.4176 59.3783 20.9457Z" fill="#F2F6D8"/>
<path d="M39.4979 18.9395C39.3426 18.9788 36.275 19.1361 35.8867 20.6304C35.5372 22.164 35.2266 23.1077 35.8867 23.6976C36.5468 24.2874 38.5271 26.2536 40.7793 26.2536C43.0314 26.2536 46.1767 24.5627 45.1671 22.282C44.2352 20.0012 41.8665 18.4283 39.4979 18.9395Z" fill="#662043"/>
<path d="M44.313 20.8657C45.0508 24.6014 39.9252 24.6014 39.2263 24.1688C38.4885 23.7363 37.5178 23.0285 36.9353 23.5397C36.7023 23.7363 36.314 23.7756 35.9257 23.7363C36.6247 24.3261 38.5662 26.2923 40.8183 26.2923C43.0705 26.2923 46.2157 24.6014 45.2061 22.3207C44.9731 21.7701 44.7013 21.2983 44.313 20.8657Z" fill="#50152D"/>
<path d="M41.4397 20.7473C41.4397 20.7473 40.0418 19.9609 39.1487 20.2754C38.2556 20.59 37.6344 20.708 37.9838 21.0619C38.3333 21.4158 38.5275 21.1012 39.2264 21.2192C39.9253 21.3372 39.4594 21.7697 40.469 21.6124C41.4785 21.4158 42.4105 21.3372 41.4397 20.7473Z" fill="#F6DBEA"/>
<path d="M39.0707 26.1356C39.0707 26.1356 44.2351 23.3437 45.3224 23.2257C46.4096 23.0684 47.8075 22.9112 47.8852 24.0515C47.9628 25.1919 48.3511 28.377 45.3224 29.9106C42.2936 31.4442 38.4883 31.3656 37.9447 29.1242C37.401 26.8434 38.5659 26.4109 39.0707 26.1356Z" fill="#662043"/>
<path d="M45.4777 23.7766C45.2836 23.816 42.8373 25.7821 41.3229 26.136C39.8085 26.4899 40.0415 26.9225 40.1968 27.0011C40.3133 27.1191 43.2256 26.4113 43.808 25.9394C44.3517 25.4675 47.7687 23.0688 45.4777 23.7766Z" fill="#F6DBEA"/>
<path d="M47.4968 23.3037C47.5356 24.7587 47.3415 27.0001 46.0601 27.8258C44.1186 29.1235 43.7691 28.0618 43.1867 27.9831C42.6042 27.9045 40.0414 28.4943 39.3813 28.9269C38.7989 29.3201 38.7212 29.792 37.8281 28.4943C37.867 28.6909 37.867 28.8876 37.9446 29.0842C38.4882 31.3256 42.2936 31.4042 45.3223 29.8706C48.3511 28.337 47.9628 25.1519 47.8851 24.0115C47.8851 23.6576 47.7298 23.4217 47.4968 23.3037Z" fill="#50152D"/>
<path d="M47.691 19.5281C47.691 19.5281 50.4091 17.3261 52.1176 17.444C53.8261 17.6013 54.098 18.1518 54.2533 18.4664C54.4086 18.781 55.457 19.0169 55.7677 19.4888C56.0783 20 55.9618 21.3763 55.9618 21.3763C55.9618 21.3763 54.6027 24.4042 51.341 24.8367C48.0405 25.2693 44.0021 24.1289 47.691 19.5281Z" fill="#662043"/>
<path d="M55.9618 20.5122C54.8745 21.2593 53.0884 21.3773 52.2341 21.22C51.0304 20.9841 50.9527 22.439 48.3899 22.7143C47.225 22.8323 46.6814 22.2031 46.4484 21.4953C45.2835 24.4445 48.5452 25.1916 51.3022 24.8377C54.5639 24.4445 55.923 21.3773 55.923 21.3773C55.923 21.3773 56.0006 20.9841 55.9618 20.5122Z" fill="#50152D"/>
<path d="M52.4673 18.3494C52.4673 18.3494 52.1179 17.7202 51.6131 17.9955C51.1083 18.2707 50.3317 18.428 49.9434 18.7426C49.5551 19.0572 49.2056 19.4897 49.7881 19.4504C50.3705 19.4111 50.4093 20.1975 51.4189 20.2762C52.4285 20.3155 53.1663 19.883 53.1663 19.4504C53.2439 19.0572 52.5838 18.5067 52.4673 18.3494Z" fill="#F6DBEA"/>
<path d="M62.136 25.3486C62.5243 25.152 64.893 22.5567 66.9898 23.3824C69.0866 24.2475 68.7371 24.4835 68.3877 26.2137C68.077 27.9832 66.252 29.5561 63.8834 29.7921C61.5147 30.028 60.6993 29.8707 60.7381 28.7303C60.777 27.59 61.0488 25.8991 62.136 25.3486Z" fill="#662043"/>
<path d="M64.6987 24.4436C64.6987 24.4436 62.6796 25.9379 63.029 26.1738C63.3785 26.4098 63.7668 25.8986 64.6987 25.3087C65.6307 24.7189 66.3684 24.6796 66.3684 24.3257C66.3296 23.9717 65.087 24.1684 64.6987 24.4436Z" fill="#F6DBEA"/>
<path d="M68.1549 23.9731C68.2326 24.8776 67.9996 26.2932 66.3299 27.1583C63.9613 28.4166 63.4953 29.0065 62.9517 28.102C62.4081 27.1976 62.874 26.6078 62.0586 26.8437C61.4373 27.0403 61.1655 27.3156 60.9714 26.9617C60.816 27.5515 60.7384 28.1807 60.7384 28.6919C60.6995 29.8322 61.515 29.9895 63.8836 29.7536C66.2523 29.5177 68.0773 27.9448 68.3879 26.1752C68.6209 24.9562 68.8927 24.4843 68.1549 23.9731Z" fill="#50152D"/>
<path d="M50.254 25.31C50.254 25.31 52.6614 22.5181 54.5641 22.1642C56.4668 21.8103 57.3599 21.417 57.6705 22.872C57.9812 24.3269 58.1365 26.0965 55.6514 27.9053C53.1662 29.7142 52.0013 30.186 50.7588 29.6355C49.555 29.1243 48.7396 26.8436 50.254 25.31Z" fill="#662043"/>
<path d="M56.8937 21.8887C56.5442 23.1863 54.3697 24.366 54.0203 24.5626C53.632 24.7986 54.2532 24.9559 54.9134 24.9165C55.5735 24.8772 57.1655 23.8155 57.3208 24.6806C57.515 25.585 54.758 28.023 52.0399 28.6915C50.3702 29.0848 49.7878 27.6691 49.5548 26.4894C49.1277 27.8264 49.8654 29.2814 50.7974 29.6746C52.0399 30.2251 53.2048 29.7139 55.69 27.9444C58.1751 26.1355 58.0198 24.4053 57.7091 22.9111C57.5538 22.2819 57.282 21.9673 56.8937 21.8887Z" fill="#50152D"/>
<path d="M55.1464 22.911C55.1464 22.911 54.098 22.9503 53.7873 23.4615C53.4767 23.9727 53.2049 24.1693 53.632 24.1693C54.098 24.1693 56.6996 22.793 55.1464 22.911Z" fill="#F6DBEA"/>
<path d="M35.0327 21.2195C33.1688 21.0622 31.1497 21.888 29.7129 22.9104C28.9752 23.4609 28.3539 24.1687 28.1597 25.0731C27.422 28.4549 26.8007 31.758 30.5284 33.6848C34.2561 35.6117 41.2843 33.5669 40.8572 28.7695C40.6242 26.2921 39.3816 23.4609 37.3236 22.006C36.6247 21.5341 35.8481 21.2588 35.0327 21.2195Z" fill="#C9222F"/>
<path d="M33.4014 22.8321C33.4014 22.8321 31.3823 23.1074 31.3434 24.2084C31.3046 25.3094 31.6541 25.9779 32.8578 25.5847C34.0615 25.1915 34.3722 25.2701 35.3429 25.8206C36.3137 26.3712 37.4398 25.9386 36.8185 25.3094C36.1972 24.6409 36.0419 24.7589 35.5371 23.8545C35.1099 22.9501 33.5956 22.7928 33.4014 22.8321Z" fill="#F391AD"/>
<path d="M40.8572 28.81C40.7795 27.9056 40.5466 26.9225 40.1971 26.0181C40.5466 28.7707 40.0806 31.8772 36.5471 32.8996C31.7321 34.2759 28.8975 30.6975 27.655 28.3774C27.5385 30.5009 28.0433 32.4277 30.5672 33.7253C34.2561 35.6522 41.2843 33.5681 40.8572 28.81Z" fill="#A91F23"/>
<path d="M44.6623 30.028C43.2644 29.5168 41.7888 29.3202 40.4298 29.5561C38.9543 29.8313 37.5952 30.6178 36.4691 31.6009C32.1202 35.4152 35.3819 40.7238 35.9255 41.5102C36.4691 42.2967 39.1872 45.1279 43.5362 44.4201C47.8852 43.7123 50.9139 40.8024 50.5644 37.3813C50.3703 35.3365 49.2831 33.3311 47.8075 31.9548C46.9144 31.129 45.8272 30.4605 44.6623 30.028Z" fill="#D84D27"/>
<path d="M37.9836 41.4709C37.9836 41.4709 39.1096 40.4878 39.7697 39.1901C40.4298 37.8532 41.09 35.4938 41.09 35.4938L42.4102 32.7412C42.4102 32.7412 44.4293 31.4829 44.8953 33.1737C45.3613 34.8646 44.8953 38.8756 44.8953 38.8756C44.8953 38.8756 43.9634 39.4654 42.7597 39.9766C41.5559 40.5271 40.4687 42.6506 40.4687 42.9651C40.4687 43.2797 37.6729 42.5326 37.6729 42.5326L37.9836 41.4709Z" fill="#F3B184"/>
<path d="M47.4973 42.2981C44.6627 44.0677 41.0904 42.8487 38.4111 41.3544C37.7898 41.0005 37.2462 40.6466 36.7414 40.332C35.2658 39.3096 34.5281 37.3041 34.2563 35.6919C33.9456 38.4838 35.5376 41.0398 35.8871 41.551C36.4307 42.3375 39.1488 45.1687 43.4978 44.4609C46.6431 43.9497 49.0893 42.2981 50.0601 40.1354C49.4 40.8825 48.5457 41.6296 47.4973 42.2981Z" fill="#C9222F"/>
<path d="M38.4887 41.353C38.4499 41.6676 38.411 42.0608 38.6829 42.2181C38.9158 42.3754 39.343 42.1395 39.6924 41.9429C39.2653 41.7856 38.877 41.589 38.4887 41.353Z" fill="#5D7D37"/>
<path d="M42.9543 33.175C42.9543 32.9783 44.1581 31.8773 42.4107 31.2481C40.6633 30.5797 40.6245 29.9505 38.8772 30.9336C37.1298 31.9166 36.4697 31.9953 36.1202 33.6075C35.7708 35.2197 35.5766 37.0679 36.4697 37.7364C37.324 38.4049 38.6442 39.7026 39.2655 38.9554C39.8867 38.2083 40.4692 38.051 41.3623 36.6747C42.2942 35.2984 42.9543 33.175 42.9543 33.175Z" fill="#B62425"/>
<path d="M45.0507 32.0337C44.8177 32.0337 43.2645 33.1741 42.9539 34.3931C42.6044 35.6121 43.614 34.7863 43.614 34.7863C43.614 34.7863 45.206 36.7524 44.6624 37.6175C44.1188 38.4433 42.2938 39.0332 41.9055 39.3871C41.5172 39.741 41.2065 39.9376 41.5172 40.5274C41.8666 41.1566 46.0215 43.4373 47.963 40.1735C49.9045 36.9097 49.0502 32.073 45.0507 32.0337Z" fill="#B62425"/>
<path d="M43.148 39.3483C42.9538 39.309 43.1091 40.2921 43.8469 40.2134C43.8469 40.2527 44.1187 39.4663 43.148 39.3483Z" fill="#DFC523"/>
<path d="M44.0802 38.5613C43.886 38.6007 44.2743 39.5051 44.9344 39.2692C44.9344 39.2692 45.0121 38.4434 44.0802 38.5613Z" fill="#DFC523"/>
<path d="M45.556 37.932C45.3619 37.9713 45.7502 38.8757 46.4103 38.6398C46.4491 38.6005 46.5268 37.814 45.556 37.932Z" fill="#DFC523"/>
<path d="M45.2059 36.5166C45.0118 36.6346 45.7107 37.303 46.2544 36.8312C46.2932 36.8312 46.0602 36.084 45.2059 36.5166Z" fill="#DFC523"/>
<path d="M45.09 36.0447C44.9735 36.202 45.9054 36.5166 46.1772 35.8481C46.2161 35.8481 45.6724 35.2582 45.09 36.0447Z" fill="#DFC523"/>
<path d="M44.9731 34.9444C44.8178 35.1017 45.7109 35.5342 46.0992 34.9051C46.0603 34.9051 45.6332 34.2759 44.9731 34.9444Z" fill="#DFC523"/>
<path d="M44.7795 33.9223C44.6242 34.0796 45.5173 34.5121 45.9056 33.883C45.8667 33.883 45.4396 33.2145 44.7795 33.9223Z" fill="#DFC523"/>
<path d="M41.207 31.7973C41.0128 31.7973 41.3623 32.741 42.0612 32.5051C42.0612 32.5444 42.1389 31.7186 41.207 31.7973Z" fill="#DFC523"/>
<path d="M40.0808 31.9162C39.8866 31.9162 40.2361 32.8599 40.935 32.624C40.935 32.624 41.0127 31.8375 40.0808 31.9162Z" fill="#DFC523"/>
<path d="M39.1876 32.9388C38.9934 33.0175 39.537 33.8039 40.1583 33.45C40.1971 33.45 40.1195 32.6636 39.1876 32.9388Z" fill="#DFC523"/>
<path d="M38.9544 34.1966C38.7991 34.3538 39.6534 34.8257 40.0805 34.1966C40.0805 34.1572 39.6145 33.4887 38.9544 34.1966Z" fill="#DFC523"/>
<path d="M37.9064 35.0222C37.7122 35.1402 38.4888 35.7693 38.9936 35.2188C38.9936 35.2188 38.683 34.4717 37.9064 35.0222Z" fill="#DFC523"/>
<path d="M38.1781 36.0447C38.0616 36.202 38.9935 36.5559 39.2653 35.8481C39.3041 35.8481 38.7605 35.2582 38.1781 36.0447Z" fill="#DFC523"/>
<path d="M38.4499 37.2638C38.3723 37.4604 39.3819 37.4604 39.4207 36.7132C39.4207 36.7132 38.7217 36.3593 38.4499 37.2638Z" fill="#DFC523"/>
<path d="M49.7878 33.8038C49.7878 33.8038 48.2346 37.6574 49.1665 39.4663C50.0985 41.2751 52.9331 44.7749 55.923 44.2637C58.8741 43.7918 63.3007 41.3931 62.6406 36.5171C61.9805 31.6804 59.3789 30.0288 55.224 31.0119C51.0692 31.9949 50.5644 32.5455 49.7878 33.8038Z" fill="#D84D27"/>
<path d="M55.1854 31.0909C54.7195 31.2088 54.2923 31.3268 53.9429 31.4054C54.3312 31.8773 54.836 32.5065 54.9136 32.8604C55.0301 33.4895 54.7971 36.4781 54.6418 37.4612C54.4865 38.4442 54.7195 40.6856 54.8748 40.9609C55.0301 41.2361 57.1658 35.2591 56.195 33.175C55.8067 32.3099 55.6126 31.5627 55.5737 31.0122C55.4184 31.0122 55.3019 31.0515 55.1854 31.0909Z" fill="#F3B184"/>
<path d="M53.2826 34.1569C53.1662 34.0783 52.0401 32.7806 51.5353 34.0783C51.0305 35.3759 50.1762 38.4038 51.4576 39.7801C52.739 41.1564 54.2146 42.572 54.7582 42.2574C55.3018 41.9428 53.9039 38.8363 53.9039 37.4993C53.9816 36.123 54.4087 35.2186 53.2826 34.1569Z" fill="#B62425"/>
<path d="M58.6409 33.1339C58.6409 33.1339 55.6898 32.3867 55.7287 33.9596C55.7675 35.5326 56.8159 37.8133 56.5441 38.5997C56.2723 39.3862 56.0393 39.8974 56.1558 40.6445C56.2723 41.3917 56.3888 42.2174 57.243 42.0602C58.0585 41.8635 63.5335 36.555 58.6409 33.1339Z" fill="#B62425"/>
<path d="M56.6605 33.9623C56.544 34.1589 57.476 34.3949 57.7478 33.6871C57.7089 33.7264 57.1653 33.1759 56.6605 33.9623Z" fill="#DFC523"/>
<path d="M57.1269 35.0626C56.9328 35.1806 57.7094 35.8098 58.2142 35.2986C58.2142 35.2986 57.9424 34.5514 57.1269 35.0626Z" fill="#DFC523"/>
<path d="M57.3596 36.1627C57.1655 36.2807 57.9421 36.9099 58.4468 36.3987C58.4468 36.3987 58.175 35.6515 57.3596 36.1627Z" fill="#DFC523"/>
<path d="M57.4375 37.3416C57.2433 37.3809 57.7093 38.246 58.4082 37.9315C58.4082 37.9315 58.3694 37.145 57.4375 37.3416Z" fill="#DFC523"/>
<path d="M57.204 38.4038C57.0098 38.4038 57.2816 39.3476 58.0194 39.1903C58.0194 39.1903 58.1747 38.4038 57.204 38.4038Z" fill="#DFC523"/>
<path d="M56.6218 39.5049C56.4277 39.5049 56.6607 40.4486 57.3984 40.3307C57.4373 40.2913 57.5926 39.5049 56.6218 39.5049Z" fill="#DFC523"/>
<path d="M53.3602 34.8236C53.5155 34.9809 52.6224 35.4135 52.2341 34.7843C52.2341 34.7843 52.7001 34.1158 53.3602 34.8236Z" fill="#DFC523"/>
<path d="M53.0888 36.0056C53.283 36.0842 52.6617 36.8707 52.0792 36.4382C52.0404 36.4382 52.1957 35.6517 53.0888 36.0056Z" fill="#DFC523"/>
<path d="M53.05 37.1462C53.2441 37.2249 52.6229 38.0113 52.0404 37.5788C52.0016 37.5788 52.1569 36.7923 53.05 37.1462Z" fill="#DFC523"/>
<path d="M53.1659 38.3252C53.3601 38.3252 53.0494 39.2689 52.3505 39.0723C52.3505 39.0723 52.234 38.2858 53.1659 38.3252Z" fill="#DFC523"/>
<path d="M53.5934 39.2692C53.7876 39.2299 53.6711 40.213 52.9722 40.213C52.9333 40.213 52.6615 39.4658 53.5934 39.2692Z" fill="#DFC523"/>
<path d="M54.3697 40.2516C54.5639 40.2123 54.4862 41.1954 53.7484 41.1954C53.7484 41.1954 53.4378 40.4483 54.3697 40.2516Z" fill="#DFC523"/>
<path d="M31.0329 33.2925C29.1691 33.1745 27.1499 33.961 25.7132 34.9834C24.9754 35.5339 24.3541 36.2417 24.16 37.1461C23.4222 40.5279 22.8009 43.831 26.5286 45.7578C30.2563 47.6847 37.2846 45.6399 36.8574 40.8425C36.6244 38.3651 35.3819 35.5339 33.3239 34.079C32.6249 33.6071 31.8483 33.3711 31.0329 33.2925Z" fill="#C9222F"/>
<path d="M29.4019 34.9044C29.4019 34.9044 27.3828 35.1796 27.3439 36.2807C27.3051 37.3817 27.6546 38.0502 28.8583 37.657C30.062 37.2637 30.3727 37.3424 31.3434 37.8929C32.3142 38.4434 33.4402 38.0109 32.819 37.3817C32.1977 36.7132 32.0424 36.8312 31.5376 35.9268C31.0716 35.0223 29.5961 34.865 29.4019 34.9044Z" fill="#F391AD"/>
<path d="M36.8578 40.8818C36.7801 39.9773 36.5472 38.9943 36.1977 38.0898C36.5472 40.8424 36.0812 43.9489 32.5477 44.9713C27.7327 46.3476 24.8981 42.7693 23.6556 40.4492C23.5391 42.5726 24.0439 44.4995 26.5678 45.7971C30.2567 47.7239 37.2849 45.6791 36.8578 40.8818Z" fill="#A91F23"/>
<path d="M60.8936 23.6979C60.7383 23.6979 60.583 22.7935 59.2627 22.6362C57.9425 22.4789 56.8553 23.1474 55.535 24.1698C54.2148 25.2315 54.2148 27.3156 54.5643 27.7875C54.9138 28.2987 55.0691 28.7705 55.9233 29.1638C55.9233 29.1638 57.2047 32.0343 60.0393 31.1692C62.8739 30.2648 62.641 26.6864 62.4856 26.0179C62.3303 25.3495 62.1362 23.7765 60.8936 23.6979Z" fill="#FCC557"/>
<path d="M60.0393 31.2074C62.8739 30.303 62.641 26.7246 62.4856 26.0561C62.4468 25.8988 62.408 25.7022 62.3691 25.4663C61.942 27.7863 60.6994 31.9152 57.593 29.3986C57.593 29.3986 57.0882 28.8874 57.0106 28.4941C56.8941 28.1009 56.3116 28.4941 55.8845 27.9829C55.4962 27.5504 54.3701 25.6236 57.0106 23.1855C56.5446 23.4608 56.0398 23.7754 55.535 24.2079C54.2148 25.2697 54.2148 27.3538 54.5643 27.8256C54.9138 28.3368 55.0691 28.8087 55.9233 29.2019C55.9233 29.2019 57.2047 32.0725 60.0393 31.2074Z" fill="#E8A92C"/>
<path d="M60.8933 23.6982C60.738 23.6982 60.5827 22.7937 59.3013 22.6758C58.4858 22.9117 57.5927 23.2263 57.2821 23.7768C56.622 24.8779 56.4667 26.2148 56.4667 26.2148C56.4667 26.2148 57.9422 23.6589 59.4178 23.6982C60.8933 23.7375 59.4566 24.288 59.4566 24.288C59.4566 24.288 58.3305 24.4453 58.0975 26.2148C57.8646 27.9844 59.146 25.3497 60.738 24.9565C61.3204 24.8385 61.7864 24.7992 62.1747 24.7992C61.9417 24.2487 61.5534 23.7375 60.8933 23.6982Z" fill="#FEE980"/>
<path d="M49.0505 24.0122C48.934 24.0909 48.2739 23.501 47.1478 24.2482C46.0217 24.9953 45.5946 26.175 45.2063 27.8265C44.818 29.4781 46.1382 31.0903 46.7207 31.2476C47.3031 31.4049 47.7302 31.7195 48.6622 31.4442C48.6622 31.4442 51.4579 32.8599 53.0888 30.3432C54.7197 27.8265 52.3122 25.2312 51.7686 24.7594C51.225 24.3268 50.0989 23.2651 49.0505 24.0122Z" fill="#FCC557"/>
<path d="M53.0886 30.3428C54.7194 27.8261 52.3119 25.2308 51.7683 24.759C51.6518 24.641 51.4965 24.523 51.3024 24.3657C52.4284 26.4498 54.0593 30.4214 50.021 30.4608C50.021 30.4608 49.322 30.3821 49.0114 30.1462C48.7008 29.9102 48.4678 30.5787 47.8077 30.5001C47.264 30.4214 45.1672 29.635 45.7108 26.0566C45.5167 26.5678 45.3614 27.1576 45.206 27.7868C44.8177 29.4384 46.138 31.0506 46.7204 31.2079C47.3029 31.3652 47.73 31.6798 48.6619 31.4045C48.6619 31.4438 51.4189 32.8595 53.0886 30.3428Z" fill="#E8A92C"/>
<path d="M49.0503 24.0113C48.9338 24.09 48.2737 23.5001 47.1476 24.2472C46.6428 24.9551 46.1769 25.7808 46.2545 26.3707C46.4099 27.629 47.1088 28.7694 47.1088 28.7694C47.1088 28.7694 46.6817 25.8595 47.8466 24.9157C49.0115 24.0113 48.2349 25.3483 48.2349 25.3483C48.2349 25.3483 47.4583 26.1741 48.3902 27.7077C49.2833 29.2412 48.662 26.3707 49.6716 25.0337C50.0211 24.5618 50.4094 24.2472 50.72 24.0113C50.2152 23.736 49.6328 23.5788 49.0503 24.0113Z" fill="#FEE980"/>
<path d="M52.5839 32.3494C52.3898 32.1528 49.8658 30.7765 51.885 29.1643C53.9042 27.5914 57.826 25.9005 58.0978 27.9846C58.3696 30.0687 57.9813 29.7935 58.3696 30.0687C58.7579 30.344 61.8255 32.0742 58.3696 33.9617C54.9137 35.8492 53.3217 35.1807 53.1276 33.6864C52.9334 32.1922 52.9334 32.7034 52.5839 32.3494Z" fill="#FCC557"/>
<path d="M58.3696 30.0675C57.9813 29.7922 58.3696 30.0675 58.0978 28.062C57.2047 29.0844 54.7973 31.5224 52.0792 31.4045C51.8462 31.4045 51.6132 31.4045 51.4579 31.4045C51.8462 31.9156 52.4675 32.2696 52.584 32.3875C52.9723 32.7414 52.9334 32.2302 53.1276 33.7245C53.3217 35.2188 54.9138 35.8873 58.3696 33.9998C61.7867 32.0729 58.7579 30.3034 58.3696 30.0675Z" fill="#E8A92C"/>
<path d="M55.0309 32.9384C52.5846 34.0002 58.1373 34.0002 59.9235 31.6801C59.6905 30.8936 58.7586 30.3038 58.4091 30.0679C57.4772 31.2082 56.2735 32.4272 55.0309 32.9384Z" fill="#FCC557"/>
<path d="M57.5151 31.8766C57.5151 31.8766 58.447 30.6576 58.4859 29.9498C58.5247 29.242 59.146 27.905 61.1263 27.5511C63.1066 27.2365 64.3104 27.0399 64.9705 29.124C65.6306 31.1688 66.5625 31.1688 65.9024 32.2699C65.2423 33.3709 63.3785 34.8259 60.971 33.9608C58.5635 33.0957 58.3305 32.6631 57.9034 32.5845C57.4374 32.5451 57.1656 32.3878 57.5151 31.8766Z" fill="#E8A92C"/>
<path d="M66.0967 31.4444C65.9802 30.9725 65.3977 30.5007 64.9706 29.1244C64.3105 27.0796 63.1068 27.2369 61.1264 27.5514C60.0392 27.7481 59.3402 28.2199 58.9519 28.7705C58.6801 30.1468 58.6801 31.759 58.9908 32.1522C59.4956 32.86 60.5051 32.3095 63.3009 32.3095C64.7764 32.2702 65.6307 31.8376 66.0967 31.4444Z" fill="#FCC557"/>
<path d="M44.3128 34.944C44.3128 34.944 45.2447 33.725 45.2835 33.0172C45.3224 32.3094 45.9436 30.9724 47.924 30.6185C49.9043 30.3039 51.108 30.1073 51.7682 32.1914C52.4283 34.2362 53.3602 34.2362 52.7001 35.3373C52.04 36.4383 50.1761 37.8932 47.7687 37.0281C45.3612 36.163 45.1282 35.7305 44.7011 35.6518C44.274 35.6125 43.9633 35.4552 44.3128 34.944Z" fill="#E8A92C"/>
<path d="M52.8945 34.5128C52.778 34.0409 52.1956 33.569 51.7684 32.1927C51.1083 30.1479 49.9046 30.3052 47.9243 30.6198C46.837 30.8164 46.1381 31.2883 45.7498 31.8388C45.478 33.2151 45.478 34.8273 45.7886 35.2206C46.2934 35.9284 47.303 35.3779 50.0988 35.3779C51.6131 35.3385 52.4674 34.906 52.8945 34.5128Z" fill="#FCC557"/>
<path d="M71.8826 28.9659C71.7273 28.9266 71.8049 28.0222 70.5624 27.5503C69.3198 27.0784 68.1161 27.4323 66.5629 28.1402C65.0097 28.8086 64.5437 30.8534 64.7378 31.4039C64.9708 31.9545 64.9708 32.505 65.7474 33.0948C65.7474 33.0948 66.291 36.2013 69.281 36.044C72.2709 35.8868 72.8533 32.3477 72.8922 31.6399C72.8922 30.8927 73.0863 29.3592 71.8826 28.9659Z" fill="#FCC557"/>
<path d="M69.2808 36.0059C72.2707 35.8486 72.8532 32.3096 72.892 31.6018C72.892 31.4445 72.892 31.2479 72.9309 31.0119C71.9601 33.1354 69.7856 36.871 67.3393 33.6466C67.3393 33.6466 66.9899 33.0567 66.9899 32.6242C66.9899 32.2309 66.3298 32.4669 66.0191 31.877C65.7473 31.3658 65.126 29.2424 68.2712 27.5122C67.7665 27.6695 67.184 27.8661 66.6016 28.1414C65.0484 28.8099 64.5824 30.8546 64.7765 31.4052C65.0095 31.9557 65.0095 32.5062 65.7861 33.0961C65.7473 33.0961 66.2909 36.2026 69.2808 36.0059Z" fill="#E8A92C"/>
<path d="M71.8822 28.9669C71.7269 28.9276 71.8046 28.0231 70.562 27.5513C69.7077 27.5513 68.7758 27.6692 68.3487 28.1018C67.4556 29.0062 66.9508 30.2645 66.9508 30.2645C66.9508 30.2645 69.0088 28.1804 70.4455 28.5737C71.8822 28.9669 70.329 29.1635 70.329 29.1635C70.329 29.1635 69.203 29.0455 68.5428 30.6971C67.8827 32.3487 69.7466 30.1073 71.4163 30.1466C71.9987 30.1466 72.4647 30.2645 72.853 30.3825C72.7753 29.714 72.5423 29.1635 71.8822 28.9669Z" fill="#FEE980"/>
<path d="M63.0677 32.9785C63.0677 32.9785 61.864 32.0348 63.8832 31.091C65.9023 30.1473 67.9603 29.5181 69.0476 30.7764C70.096 32.0348 70.6396 33.2145 69.7465 34.0796C68.8534 34.9447 68.3098 35.2592 68.3098 35.5345C68.3098 35.8098 69.0864 37.1861 66.8342 37.8152C64.5821 38.4444 64.1938 38.0118 63.4949 37.6973C62.7959 37.3827 61.864 36.3996 61.7475 35.2592C61.631 34.1189 61.5922 33.8829 62.33 33.4504C63.0677 32.9785 63.0677 32.9785 63.0677 32.9785Z" fill="#FCC557"/>
<path d="M64.0385 32.073C64.0385 32.073 65.2811 33.7639 66.4848 33.1741C67.6497 32.5842 66.8731 31.6798 68.038 31.7978C69.2029 31.9157 68.5428 30.8933 68.5428 30.8933C68.5428 30.8933 67.2226 30.736 66.446 31.0506C65.7082 31.4045 63.9997 31.1293 64.0385 32.073Z" fill="#FEE980"/>
<path d="M69.7076 34.0789C70.0959 33.6857 70.2124 33.2531 70.1348 32.7812C69.4358 34.1969 67.6108 35.9664 62.9512 33.0565C62.8735 33.0958 62.757 33.1745 62.5629 33.2924C62.9512 34.0003 63.8055 35.062 65.2422 35.5732C67.4943 36.3596 67.6496 36.7135 65.9411 37.1461C64.8927 37.4213 63.5336 37.2641 62.4852 36.8708C62.7959 37.2641 63.1842 37.5393 63.4948 37.6966C64.1938 38.0112 64.5432 38.4437 66.8342 37.8146C69.0863 37.1854 68.3097 35.7698 68.3097 35.5338C68.3097 35.2586 68.8145 34.944 69.7076 34.0789Z" fill="#E8A92C"/>
<path d="M41.5951 38.6787C41.5951 38.6787 40.3913 37.735 42.4105 36.7912C44.4297 35.8475 46.4877 35.2183 47.5749 36.4766C48.6233 37.735 49.1669 38.9147 48.2738 39.7798C47.3807 40.6449 46.8371 40.9594 46.8371 41.2347C46.8371 41.51 47.6137 42.8863 45.3616 43.5154C43.1094 44.1446 42.7211 43.712 42.0222 43.3975C41.3233 43.0829 40.3913 42.0998 40.2748 40.9594C40.1584 39.7798 40.1195 39.5831 40.8573 39.1506C41.5951 38.6787 41.5951 38.6787 41.5951 38.6787Z" fill="#FCC557"/>
<path d="M42.5657 37.7747C42.5657 37.7747 43.8083 39.4656 45.012 38.8757C46.2157 38.2859 45.4003 37.3814 46.5652 37.4994C47.7301 37.6174 47.07 36.595 47.07 36.595C47.07 36.595 45.7498 36.4377 44.9732 36.7523C44.2354 37.1062 42.5269 36.7916 42.5657 37.7747Z" fill="#FEE980"/>
<path d="M48.2738 39.7811C48.6621 39.3878 48.7786 38.9553 48.7009 38.4834C48.002 39.899 46.177 41.6685 41.5174 38.7587C41.4397 38.798 41.3232 38.8766 41.1291 38.9946C41.5174 39.7024 42.3716 40.7641 43.8083 41.2753C46.0605 42.0618 46.2158 42.4157 44.5073 42.8482C43.4589 43.1235 42.0998 42.9662 41.0514 42.573C41.362 42.9662 41.7503 43.2415 42.061 43.3988C42.7599 43.7133 43.1094 44.1459 45.4004 43.5167C47.6525 42.8876 46.8759 41.4719 46.8759 41.236C46.8371 40.9607 47.3807 40.6462 48.2738 39.7811Z" fill="#E8A92C"/>
<path d="M60.427 33.6456C60.2717 33.6456 60.1164 32.7412 58.7962 32.5839C57.476 32.4266 56.3887 33.0951 55.0685 34.1175C53.7483 35.1792 53.7483 37.2633 54.0977 37.7352C54.4472 38.2464 54.6025 38.7183 55.4568 39.1115C55.4568 39.1115 56.7382 41.9821 59.5728 41.117C62.4074 40.2126 62.1744 36.6342 62.0191 35.9657C61.9026 35.2972 61.7084 33.7636 60.427 33.6456Z" fill="#FCC557"/>
<path d="M59.6115 41.1561C62.4461 40.2517 62.2131 36.6733 62.0578 36.0048C62.0189 35.8476 61.9801 35.6509 61.9413 35.415C61.5142 37.735 60.2716 41.8639 57.1652 39.3473C57.1652 39.3473 56.6604 38.8361 56.5827 38.4429C56.4662 38.0496 55.8838 38.4429 55.4567 37.9317C55.0684 37.4991 53.9423 35.5723 56.5827 33.1343C56.1168 33.4095 55.612 33.7241 55.1072 34.1567C53.787 35.2184 53.787 37.3025 54.1364 37.7744C54.4859 38.2856 54.6412 38.7574 55.4955 39.1507C55.4955 39.19 56.7769 42.0606 59.6115 41.1561Z" fill="#E8A92C"/>
<path d="M60.4274 33.6464C60.272 33.6464 60.1167 32.742 58.8353 32.624C58.0199 32.86 57.1268 33.1745 56.8162 33.7251C56.156 34.8261 56.0007 36.1631 56.0007 36.1631C56.0007 36.1631 57.4763 33.6071 58.9518 33.6464C60.4274 33.6857 58.9906 34.2363 58.9906 34.2363C58.9906 34.2363 57.8646 34.3936 57.6316 36.1631C57.3986 37.9326 58.68 35.298 60.272 34.9047C60.8545 34.7868 61.3205 34.7475 61.7088 34.7475C61.5146 34.1969 61.1263 33.7251 60.4274 33.6464Z" fill="#FEE980"/>
<path d="M52.1176 35.1397C51.9623 35.2183 51.4575 34.4712 50.2149 34.943C48.9723 35.4149 48.3122 36.4766 47.5745 38.0495C46.8755 39.5831 47.8074 41.4313 48.3122 41.7459C48.8559 42.0212 49.2053 42.4144 50.1761 42.3357C50.1761 42.3357 52.6224 44.3019 54.7192 42.2178C56.8549 40.0943 55.0298 37.0271 54.5639 36.4766C54.1756 35.9261 53.3213 34.6285 52.1176 35.1397Z" fill="#FCC557"/>
<path d="M54.7581 42.1783C56.8938 40.0549 55.0687 36.9877 54.6028 36.4372C54.4863 36.3192 54.3698 36.1619 54.2145 35.9653C54.8746 38.2067 55.6512 42.4929 51.7293 41.6671C51.7293 41.6671 51.0692 41.4705 50.7974 41.1559C50.5256 40.8414 50.1761 41.4705 49.5549 41.2346C49.0112 41.038 47.1474 39.8583 48.4288 36.4372C48.1182 36.9091 47.8463 37.4203 47.5745 38.0101C46.8756 39.5437 47.8075 41.3919 48.3123 41.7065C48.8559 41.9817 49.2054 42.375 50.1761 42.2963C50.1761 42.3356 52.6224 44.3018 54.7581 42.1783Z" fill="#E8A92C"/>
<path d="M52.1177 35.1397C51.9624 35.2183 51.4576 34.4712 50.215 34.943C49.5937 35.5329 48.9336 36.2407 48.8948 36.8305C48.7783 38.0889 49.2443 39.3865 49.2443 39.3865C49.2443 39.3865 49.4384 36.4373 50.7586 35.7688C52.0789 35.1003 51.0693 36.28 51.0693 36.28C51.0693 36.28 50.1374 36.9485 50.7198 38.6001C51.3023 40.2909 51.2246 37.3417 52.506 36.28C52.9331 35.8868 53.3603 35.6508 53.7486 35.4936C53.3214 35.1003 52.7778 34.8644 52.1177 35.1397Z" fill="#FEE980"/>
<path d="M38.9157 28.0615C38.9157 28.0615 39.6147 28.9659 39.8088 28.6513C40.003 28.3368 41.828 25.7021 44.7791 25.4269C47.7301 25.1516 49.9046 25.9381 50.7201 27.5503C51.5743 29.1625 52.8169 31.4433 52.6616 32.6623L53.6323 33.3308C53.6323 33.3308 53.1275 25.8987 49.5163 24.6404C45.8663 23.4214 42.2551 24.9943 41.2843 25.5448C40.2748 26.1347 38.9157 28.0615 38.9157 28.0615Z" fill="#E5B3CE"/>
<path d="M49.5159 24.6404C45.8659 23.4214 42.2547 24.9943 41.284 25.5448C40.9345 25.7414 40.5462 26.0953 40.1967 26.4886C40.9733 26.056 41.9829 25.5448 42.6818 25.3089C44.0409 24.7977 47.225 24.0899 49.7877 25.073C50.3314 25.2696 50.7973 25.5448 51.1856 25.8594C50.7197 25.3089 50.176 24.8763 49.5159 24.6404Z" fill="#8F529E"/>
<path d="M69.1255 23.6968L68.4266 23.9327C68.4266 23.9327 69.941 28.966 68.0771 31.5613C66.2133 34.1567 62.5633 37.1059 60.0781 36.8699C57.5542 36.6733 55.7292 35.9655 55.7292 35.9655L55.2244 37.0272C55.2244 37.0272 57.9036 38.1676 59.4568 37.853C61.01 37.5384 62.4079 37.6564 64.1553 36.5553C65.9026 35.4543 68.9314 32.7804 69.6303 30.185C70.3681 27.6291 69.242 24.09 69.1255 23.6968Z" fill="#E5B3CE"/>
<path d="M59.4953 37.8532C61.0485 37.5387 62.4464 37.6566 64.1938 36.5556C65.8246 35.5332 68.5039 33.1738 69.4747 30.8145C68.931 31.5223 68.0379 32.702 67.8438 32.8986C67.572 33.2131 64.8539 36.0837 63.5336 36.5949C62.2134 37.1061 61.1262 37.1848 59.8836 37.5387C59.3788 37.6959 58.874 37.7746 58.4081 37.8926C58.8352 37.9319 59.1847 37.9319 59.4953 37.8532Z" fill="#8F529E"/>
<path d="M48.0798 35.2977C48.1187 35.1011 46.8373 35.2191 46.8373 35.2191C46.8373 35.2191 45.4782 39.3873 43.1484 38.6795C40.8574 37.9717 39.2654 33.9214 39.1101 33.2529C39.1101 33.2529 37.7899 33.2529 37.6345 34.118C37.4792 34.9438 39.0324 39.9378 41.2069 40.2917C43.3814 40.6849 47.2644 39.7805 48.0798 35.2977Z" fill="#E5B3CE"/>
<path d="M38.838 37.9717C39.4592 39.1514 40.2747 40.1344 41.2066 40.2917C43.2258 40.6456 46.7205 39.8985 47.8465 36.2021C47.1864 37.4998 46.0603 39.2693 44.6236 39.6232C42.3327 40.1738 40.7018 40.0165 40.0029 39.1907C39.731 38.8761 39.3039 38.4436 38.838 37.9717Z" fill="#8F529E"/>
<path d="M61.5926 21.6133L60.8937 22.5177C60.8937 22.5177 63.107 24.6018 62.8352 27.3151C62.5634 30.0284 62.3692 31.0901 60.6995 32.7416C59.0298 34.3932 58.7969 34.8651 55.574 34.8258C52.3511 34.7864 52.9335 34.8258 52.9335 34.8258L53.0888 35.7695C53.0888 35.7695 56.3506 36.32 58.2921 35.5729C60.2336 34.8258 62.2527 33.1349 62.8352 31.9552C63.4176 30.7755 64.5825 27.7476 63.8448 25.6242C63.0682 23.5008 61.5926 21.6133 61.5926 21.6133Z" fill="#F0C2DB"/>
<path d="M56.7773 35.8873C57.321 35.848 57.8258 35.73 58.2917 35.5334C60.2332 34.7862 62.2524 33.0954 62.8348 31.9157C63.4173 30.736 64.5822 27.7081 63.8444 25.5847C63.6503 24.9949 63.3396 24.405 63.0678 23.8545C63.5338 25.1128 63.9609 26.5284 63.8833 27.2756C63.7279 28.7305 63.3396 30.8933 62.563 31.9157C61.7864 32.9381 59.5343 34.7469 58.447 35.2581C58.0199 35.4547 57.3986 35.6907 56.7773 35.8873Z" fill="#9D54A1"/>
<path d="M56.1949 20.5122L55.5348 21.1807C55.5348 21.1807 57.9423 23.3041 58.0976 25.8208C58.2529 28.3375 57.9423 30.2249 57.4375 31.208C56.8939 32.2304 55.4183 34.2359 54.0204 34.7864C52.6225 35.3369 52.6614 35.3762 51.5353 35.5729C50.4092 35.7695 47.7688 35.8874 46.5262 35.1796C45.2837 34.5111 43.0315 33.2921 42.8762 32.7416L41.9443 33.0562C41.9443 33.0562 43.4975 34.7078 45.0119 35.2583C46.5262 35.8481 48.2348 36.5166 50.0986 36.32C51.9624 36.1234 53.438 35.9268 54.4864 35.3369C55.5736 34.7471 57.5928 32.7809 58.0199 31.4833C58.4859 30.1463 59.4955 28.888 59.0683 26.5286C58.68 24.1299 57.2822 21.456 56.1949 20.5122Z" fill="#F0C2DB"/>
<path d="M54.5252 35.3763C55.6124 34.7865 57.6316 32.8204 58.0587 31.5227C58.5247 30.1857 59.5342 28.9274 59.1071 26.568C58.8353 24.9951 58.1364 23.3042 57.3598 22.0459C57.981 23.7368 58.8353 26.2928 58.8741 27.1972C58.913 28.6128 58.3305 30.2644 58.0975 30.7756C57.8645 31.2474 57.4762 32.5451 56.855 33.0956C56.2337 33.6461 54.9523 35.1797 53.7486 35.5336C52.506 35.8875 50.5257 36.3201 48.856 36.1235C48.0017 36.0448 46.7591 35.8089 45.7884 35.6123C47.1086 36.0842 48.5453 36.5167 50.0985 36.3987C52.0012 36.1628 53.4379 35.9662 54.5252 35.3763Z" fill="#9D54A1"/>
<path d="M39.9843 41.0819C20.9106 41.0819 5.4494 35.4116 5.4494 28.3877C5.4494 46.0572 20.6578 60.3976 39.4424 60.3976C58.2271 60.3976 73.4354 46.0572 73.4354 28.3877C73.4354 35.4116 59.0218 41.0819 39.9843 41.0819Z" fill="#8DB5B9"/>
<path d="M22.7168 40.7901C17.1898 40.3145 14.8056 39.1439 8.77283 35.7051C12.9994 48.3627 23.5477 58.0206 38.4309 59.0815C43.5244 59.4473 49.3043 57.9474 53.4586 55.7524C30.3029 57.3621 22.3917 47.2287 22.7168 40.7901Z" fill="#7CA5AF"/>
<path d="M48.3654 42.5806C48.3654 42.5806 62.49 41.7758 70.329 36.0688C70.329 36.0688 67.2223 47.2266 55.0484 54.47C55.0484 54.47 65.3799 44.1171 63.6821 43.3122C62.0565 42.5074 55.2651 42.8367 48.3654 42.5806Z" fill="white"/>
<path d="M71.3041 29.9966C69.245 35.6669 56.4208 40.0203 39.9481 40.0203C25.2455 40.0203 12.7826 36.5449 8.7367 31.7891C8.37546 32.1184 8.05034 32.5208 7.72522 32.9232C12.6743 37.7155 25.2455 41.1177 39.9843 41.1177C56.7098 41.1177 69.8591 36.7278 72.8213 30.9477C72.3517 30.5453 71.8459 30.2527 71.3041 29.9966Z" fill="#F0F9FA"/>
</svg>
