<svg width="17" height="11" viewBox="0 0 17 11" fill="none" xmlns="http://www.w3.org/2000/svg">
<path d="M14.2273 0H2.77273C2.43518 0 2.11146 0.144866 1.87277 0.402728C1.63409 0.660591 1.5 1.01033 1.5 1.375V9.625C1.5 9.98967 1.63409 10.3394 1.87277 10.5973C2.11146 10.8551 2.43518 11 2.77273 11H14.2273C14.5648 11 14.8885 10.8551 15.1272 10.5973C15.3659 10.3394 15.5 9.98967 15.5 9.625V1.375C15.5 1.01033 15.3659 0.660591 15.1272 0.402728C14.8885 0.144866 14.5648 0 14.2273 0ZM12.9545 8.07812H4.04545C3.91887 8.07812 3.79748 8.0238 3.70797 7.9271C3.61847 7.8304 3.56818 7.69925 3.56818 7.5625C3.56818 7.42575 3.61847 7.2946 3.70797 7.1979C3.79748 7.1012 3.91887 7.04688 4.04545 7.04688H12.9545C13.0811 7.04688 13.2025 7.1012 13.292 7.1979C13.3815 7.2946 13.4318 7.42575 13.4318 7.5625C13.4318 7.69925 13.3815 7.8304 13.292 7.9271C13.2025 8.0238 13.0811 8.07812 12.9545 8.07812ZM12.9545 6.01562H4.04545C3.91887 6.01562 3.79748 5.9613 3.70797 5.8646C3.61847 5.7679 3.56818 5.63675 3.56818 5.5C3.56818 5.36325 3.61847 5.2321 3.70797 5.1354C3.79748 5.0387 3.91887 4.98438 4.04545 4.98438H12.9545C13.0811 4.98438 13.2025 5.0387 13.292 5.1354C13.3815 5.2321 13.4318 5.36325 13.4318 5.5C13.4318 5.63675 13.3815 5.7679 13.292 5.8646C13.2025 5.9613 13.0811 6.01562 12.9545 6.01562ZM12.9545 3.95312H4.04545C3.91887 3.95312 3.79748 3.8988 3.70797 3.8021C3.61847 3.7054 3.56818 3.57425 3.56818 3.4375C3.56818 3.30075 3.61847 3.1696 3.70797 3.0729C3.79748 2.9762 3.91887 2.92188 4.04545 2.92188H12.9545C13.0811 2.92188 13.2025 2.9762 13.292 3.0729C13.3815 3.1696 13.4318 3.30075 13.4318 3.4375C13.4318 3.57425 13.3815 3.7054 13.292 3.8021C13.2025 3.8988 13.0811 3.95312 12.9545 3.95312Z" fill="white"/>
</svg>
