<svg width="12" height="16" viewBox="0 0 12 16" fill="none" xmlns="http://www.w3.org/2000/svg">
<path d="M6.00005 6.7213C6.66279 6.7213 7.20005 6.21978 7.20005 5.60113C7.20005 4.98247 6.66279 4.48096 6.00005 4.48096C5.33731 4.48096 4.80005 4.98247 4.80005 5.60113C4.80005 6.21978 5.33731 6.7213 6.00005 6.7213Z" fill="#2B92D5"/>
<path d="M6 0C2.69175 0 0 2.40312 0 5.35582C0 6.76199 0.686625 8.63197 2.04075 10.914C3.12825 12.7462 4.38637 14.403 5.04075 15.2273C5.15132 15.3682 5.2959 15.4827 5.46276 15.5617C5.62961 15.6407 5.81405 15.6818 6.00113 15.6818C6.1882 15.6818 6.37264 15.6407 6.53949 15.5617C6.70635 15.4827 6.85093 15.3682 6.9615 15.2273C7.61475 14.403 8.874 12.7462 9.9615 10.914C11.3134 8.63267 12 6.76269 12 5.35582C12 2.40312 9.30825 0 6 0ZM6 7.8412C5.52533 7.8412 5.06131 7.70981 4.66663 7.46364C4.27195 7.21746 3.96434 6.86757 3.78269 6.4582C3.60104 6.04883 3.55351 5.59837 3.64612 5.16379C3.73872 4.72921 3.9673 4.33001 4.30294 4.0167C4.63859 3.70338 5.06623 3.49001 5.53178 3.40356C5.99734 3.31712 6.4799 3.36148 6.91844 3.53105C7.35698 3.70062 7.73181 3.98777 7.99553 4.35619C8.25924 4.72461 8.4 5.15776 8.4 5.60086C8.39931 6.19484 8.14623 6.7643 7.69629 7.1843C7.24635 7.60431 6.63631 7.84055 6 7.8412Z" fill="#2B92D5"/>
</svg>
