<svg width="16" height="15" viewBox="0 0 16 15" fill="none" xmlns="http://www.w3.org/2000/svg">
<path d="M8 0C4.96744 0 2.5 2.29864 2.5 5.12296C2.5 6.46799 3.12941 8.25667 4.37069 10.4395C5.36756 12.192 6.52084 13.7767 7.12069 14.5653C7.22205 14.7 7.35458 14.8096 7.50753 14.8851C7.66048 14.9606 7.82955 15 8.00103 15C8.17251 15 8.34159 14.9606 8.49454 14.8851C8.64749 14.8096 8.78002 14.7 8.88138 14.5653C9.48019 13.7767 10.6345 12.192 11.6314 10.4395C12.8706 8.25734 13.5 6.46866 13.5 5.12296C13.5 2.29864 11.0326 0 8 0ZM8 7.50028C7.56488 7.50028 7.13953 7.3746 6.77775 7.13913C6.41596 6.90366 6.13398 6.56898 5.96746 6.17741C5.80095 5.78584 5.75738 5.35497 5.84227 4.93928C5.92716 4.52359 6.13669 4.14175 6.44437 3.84206C6.75204 3.54236 7.14404 3.33827 7.5708 3.25558C7.99756 3.1729 8.43991 3.21533 8.8419 3.37753C9.2439 3.53972 9.58749 3.81439 9.82923 4.16679C10.071 4.5192 10.2 4.93351 10.2 5.35734C10.1994 5.92549 9.96737 6.4702 9.55493 6.87194C9.14249 7.27369 8.58328 7.49966 8 7.50028Z" fill="white"/>
<path d="M7.99826 6.68182C8.48918 6.68182 8.88715 6.01025 8.88715 5.18182C8.88715 4.3534 8.48918 3.68182 7.99826 3.68182C7.50734 3.68182 7.10938 4.3534 7.10938 5.18182C7.10938 6.01025 7.50734 6.68182 7.99826 6.68182Z" fill="white"/>
</svg>
