<svg width="15" height="15" viewBox="0 0 15 15" fill="none" xmlns="http://www.w3.org/2000/svg">
<path d="M3.87703 9.13328L3.25084 10.4101C3.24724 10.4175 3.24303 10.4246 3.23825 10.4313C3.21112 10.4809 3.17598 10.5257 3.13425 10.5637C3.09344 10.6009 3.04728 10.6318 2.99731 10.6552C2.9917 10.6576 2.97671 10.6629 2.96752 10.6659C2.96224 10.6683 2.95683 10.6703 2.95131 10.672C2.94606 10.6737 2.94072 10.675 2.93532 10.6761C2.88786 10.6913 2.83839 10.6992 2.78857 10.6997C2.76921 10.6994 2.74992 10.6972 2.73098 10.6932C2.70887 10.691 2.6869 10.6875 2.66522 10.6827C2.64314 10.6768 2.62149 10.6693 2.60043 10.6604C2.58744 10.6564 2.57475 10.6515 2.56245 10.6457L1.28779 10.0181C1.22712 9.98825 1.17292 9.94671 1.12827 9.89587C1.08363 9.84502 1.04941 9.78586 1.02758 9.72177C0.983497 9.59233 0.992534 9.45064 1.05271 9.32787C1.11288 9.2051 1.21926 9.11132 1.34844 9.06714C1.47762 9.02297 1.61902 9.03202 1.74154 9.09231L1.93245 9.18632C1.66181 7.91615 1.79944 6.59272 2.32561 5.40574C2.85177 4.21876 3.73946 3.22917 4.86144 2.57882C5.35376 2.29278 5.88432 2.07867 6.43706 1.94296C6.50273 1.92688 6.57091 1.92393 6.63772 1.93427C6.70452 1.94461 6.76864 1.96804 6.8264 2.00323C6.88416 2.03841 6.93444 2.08465 6.97436 2.13932C7.01428 2.19398 7.04305 2.25599 7.05904 2.3218C7.09119 2.45465 7.06945 2.59486 6.99858 2.71167C6.92771 2.82848 6.8135 2.91236 6.68099 2.94491C6.2234 3.05756 5.78418 3.23506 5.37662 3.47203C4.47168 3.9976 3.74926 4.78848 3.3067 5.73812C2.86415 6.68775 2.72274 7.7505 2.90152 8.78315L2.95311 8.67815C2.98294 8.61736 3.02442 8.56306 3.07519 8.51833C3.12596 8.47361 3.18502 8.43934 3.24901 8.41749C3.31299 8.39564 3.38065 8.38663 3.44811 8.39097C3.51557 8.39532 3.58151 8.41294 3.64218 8.44282C3.70284 8.47271 3.75704 8.51427 3.80167 8.56515C3.84631 8.61602 3.8805 8.6752 3.90231 8.73932C3.92412 8.80343 3.93311 8.87122 3.92877 8.93882C3.92444 9.00642 3.90685 9.0725 3.87703 9.13328ZM12.9452 11.1261C12.9429 11.0982 12.9382 11.0706 12.9312 11.0436C12.9304 11.0395 12.9294 11.0354 12.9282 11.0314C12.9006 10.9333 12.8446 10.8455 12.7673 10.7791C12.7617 10.7738 12.7425 10.7571 12.7363 10.7526C12.7254 10.745 12.7142 10.7381 12.7025 10.7319L12.6291 10.8671L12.6797 10.7189C12.6589 10.7074 12.6373 10.6975 12.6151 10.6891C12.6035 10.6847 12.5923 10.6808 12.5801 10.6771C12.5619 10.6717 12.5434 10.6673 12.5248 10.6639C12.5087 10.6609 12.4929 10.6589 12.478 10.6576C12.4619 10.6561 12.4457 10.6555 12.4296 10.6559C12.4224 10.6554 12.4046 10.6554 12.3982 10.6556L10.9817 10.7508C10.9142 10.7553 10.8484 10.7731 10.7878 10.8031C10.7272 10.8332 10.6731 10.8749 10.6286 10.9259C10.5841 10.9769 10.5501 11.0361 10.5284 11.1003C10.5068 11.1645 10.498 11.2323 10.5025 11.2998C10.507 11.3674 10.5248 11.4335 10.5548 11.4942C10.5847 11.5549 10.6264 11.6091 10.6773 11.6536C10.7281 11.6982 10.7873 11.7323 10.8513 11.754C10.9154 11.7757 10.983 11.7845 11.0505 11.78L11.1668 11.7722C10.3637 12.4437 9.37449 12.8524 8.33244 12.9431C7.29039 13.0339 6.24561 12.8024 5.3389 12.2799C4.93031 12.0448 4.55735 11.7525 4.23131 11.4117C4.16095 11.338 4.07035 11.2868 3.97097 11.2647C3.87159 11.2425 3.7679 11.2504 3.673 11.2873C3.57809 11.3242 3.49624 11.3885 3.43779 11.472C3.37934 11.5556 3.34692 11.6546 3.34462 11.7566C3.34288 11.8243 3.35461 11.8917 3.37911 11.9549C3.40362 12.018 3.44042 12.0757 3.48736 12.1245C3.88099 12.5362 4.33131 12.8894 4.82469 13.1735C5.94666 13.8248 7.24603 14.1024 8.53554 13.9662C9.82506 13.83 11.0381 13.2871 11.9999 12.4158L12.0139 12.6243C12.0231 12.7547 12.081 12.8767 12.1762 12.9659C12.2714 13.0551 12.3968 13.105 12.5272 13.1054C12.5391 13.1054 12.551 13.1051 12.5618 13.1043C12.698 13.095 12.8249 13.0319 12.9148 12.9289C13.0046 12.826 13.05 12.6915 13.0411 12.555L12.9461 11.1356C12.946 11.1326 12.9456 11.1294 12.9452 11.1261ZM9.7535 2.06287L9.93044 1.94416C9.98658 1.90644 10.0348 1.85802 10.0722 1.80165C10.1097 1.74528 10.1357 1.68206 10.1488 1.61562C10.1619 1.54917 10.1618 1.48079 10.1485 1.41438C10.1352 1.34797 10.109 1.28484 10.0714 1.22858C10.0337 1.17232 9.98542 1.12404 9.92916 1.08649C9.87291 1.04895 9.80982 1.02288 9.74351 1.00976C9.6772 0.996646 9.60895 0.996748 9.54268 1.01006C9.47641 1.02337 9.4134 1.04963 9.35725 1.08735L8.19484 1.86962C8.18865 1.87274 8.18265 1.87622 8.17686 1.88004C8.14865 1.89902 8.12245 1.92084 8.09868 1.94518L8.09708 1.9467C8.04859 1.99597 8.01069 2.05467 7.98571 2.11919C7.9763 2.1436 7.96876 2.16869 7.96313 2.19425L8.10928 2.24614L7.95815 2.21839C7.95655 2.2249 7.95295 2.24414 7.95215 2.25096C7.95084 2.26284 7.95051 2.2748 7.95115 2.28674C7.95055 2.29859 7.95055 2.31042 7.95074 2.32254C7.95132 2.34484 7.9534 2.36708 7.95698 2.3891C7.959 2.40124 7.96131 2.41286 7.96417 2.42458C7.96883 2.44487 7.97472 2.46486 7.98179 2.48444C7.98636 2.49716 7.99176 2.50958 7.99676 2.5207C8.00405 2.53679 8.01226 2.55245 8.02135 2.56759C8.02454 2.5743 8.03275 2.58893 8.03674 2.59503L8.82746 3.77679C8.90565 3.88769 9.02339 3.96422 9.15631 3.99055C9.28924 4.01688 9.42719 3.99099 9.5416 3.91824C9.65486 3.84199 9.7333 3.72384 9.75973 3.5897C9.78616 3.45557 9.75841 3.31641 9.68256 3.20275L9.61756 3.10546C10.5995 3.46666 11.4473 4.12075 12.0468 4.97961C12.6463 5.83846 12.9687 6.86081 12.9705 7.9089C12.9714 8.38097 12.9052 8.85076 12.7738 9.30411C12.7542 9.36929 12.7476 9.43773 12.7545 9.50548C12.7614 9.57322 12.7816 9.63892 12.814 9.69879C12.8464 9.75867 12.8903 9.81152 12.9431 9.85431C12.996 9.89709 13.0568 9.92897 13.122 9.94808C13.1872 9.9672 13.2556 9.97318 13.3231 9.96568C13.3907 9.95819 13.4561 9.93736 13.5155 9.90441C13.575 9.87145 13.6274 9.82702 13.6696 9.77368C13.7119 9.72034 13.7431 9.65914 13.7617 9.59363C13.9207 9.04607 14.001 8.47857 14 7.9083C13.9989 6.60945 13.5875 5.3443 12.8246 4.29421C12.0617 3.24412 10.9867 2.46302 9.7535 2.06287Z" fill="white" stroke="white" stroke-width="0.2"/>
</svg>
