<svg width="16" height="16" viewBox="0 0 16 16" fill="none" xmlns="http://www.w3.org/2000/svg">
<path d="M5.07444 9.71602C5.00647 9.7216 4.93866 9.72447 4.87069 9.72447C4.68474 9.72447 4.50389 9.69812 4.32679 9.65808L0.228977 13.6609C0.0278409 13.8571 0.0278409 14.1758 0.228977 14.372L1.28953 15.4082C1.49067 15.6044 1.81654 15.6044 2.01712 15.4082L6.94215 10.5983L6.02943 9.63641L5.07444 9.71602Z" fill="white"/>
<path d="M15.8554 3.30356C15.663 3.1158 15.3518 3.1158 15.1595 3.30356L12.5039 5.89742C12.2527 6.14261 11.8457 6.14261 11.5944 5.89742C11.3442 5.65243 11.3442 5.25519 11.5944 5.01026L14.2368 2.42969C14.4365 2.2345 14.4365 1.91807 14.2368 1.72244C14.0362 1.5275 13.7124 1.5275 13.5128 1.72244L10.8714 4.30274C10.6202 4.54818 10.2136 4.54818 9.96234 4.30274C9.71159 4.05784 9.71159 3.66031 9.96234 3.41561L12.6173 0.821995C12.8102 0.63395 12.8102 0.329358 12.6173 0.141058C12.425 -0.0470192 12.1132 -0.0470192 11.9204 0.141058L8.93314 3.05914C8.21492 3.76113 7.98805 4.7465 8.22057 5.64311L10.2231 7.59931C11.141 7.8256 12.1502 7.6039 12.8676 6.90248L15.8553 3.98456C16.0482 3.79651 16.0482 3.4916 15.8554 3.30356Z" fill="white"/>
<path d="M1.34219 0.403857C1.23983 0.303837 1.1014 0.248993 0.959253 0.248993C0.929008 0.248993 0.898599 0.251513 0.868909 0.256363C0.69596 0.284949 0.547574 0.393393 0.47134 0.547746C-0.403691 2.31439 -0.0380007 4.42832 1.38243 5.81585L3.92361 8.29773C4.17433 8.54291 4.51334 8.67864 4.86491 8.67864C4.90251 8.67864 4.9402 8.6771 4.9778 8.67407L6.4532 8.55108L12.8868 15.3304C12.9867 15.4358 13.1266 15.497 13.274 15.4998C13.277 15.4998 13.2802 15.4998 13.2834 15.4998C13.4275 15.4998 13.5655 15.4442 13.6679 15.3449L14.7697 14.2685C14.8715 14.1692 14.9284 14.0346 14.9284 13.8942C14.9284 13.7539 14.8715 13.6191 14.7701 13.5199L1.34219 0.403857Z" fill="white"/>
</svg>
