<svg width="20" height="20" viewBox="0 0 20 20" fill="none" xmlns="http://www.w3.org/2000/svg">
<path d="M10 0C11.2633 0 12.2633 1.37 13.37 1.84333C14.4767 2.31667 16.21 2.05333 17.0367 2.94667C17.8633 3.84 17.6667 5.47333 18.14 6.63C18.6133 7.78667 20 8.73667 20 10C20 11.2633 18.63 12.2633 18.1567 13.37C17.6833 14.4767 17.9467 16.21 17.0533 17.0367C16.21 17.8767 14.5267 17.6667 13.3867 18.14C12.2467 18.6133 11.2633 20 10 20C8.73667 20 7.73667 18.63 6.63 18.1567C5.52333 17.6833 3.79 17.9467 2.96333 17.0533C2.12333 16.21 2.33333 14.5267 1.86 13.3867C1.38667 12.2467 0 11.2633 0 10C0 8.73667 1.37 7.73667 1.84333 6.63C2.31667 5.52333 2.05333 3.79 2.94667 2.96333C3.84 2.13667 5.47333 2.33333 6.63 1.84333C7.78667 1.35333 8.73667 0 10 0ZM10 3.15667C8.64652 3.15667 7.32343 3.55802 6.19805 4.30998C5.07267 5.06193 4.19554 6.13071 3.67758 7.38117C3.15963 8.63163 3.02411 10.0076 3.28816 11.3351C3.55221 12.6625 4.20398 13.8819 5.16103 14.839C6.11809 15.796 7.33746 16.4478 8.66493 16.7118C9.99241 16.9759 11.3684 16.8404 12.6188 16.3224C13.8693 15.8045 14.9381 14.9273 15.69 13.802C16.442 12.6766 16.8433 11.3535 16.8433 10C16.8381 8.18666 16.1154 6.44909 14.8331 5.16686C13.5509 3.88463 11.8133 3.16194 10 3.15667ZM13.1733 6.97L13.84 7.60333C13.9095 7.69365 13.9471 7.80439 13.9471 7.91833C13.9471 8.03227 13.9095 8.14302 13.84 8.23333L9.59333 12.9467C9.51089 13.0419 9.40831 13.1176 9.29301 13.1684C9.17771 13.2191 9.05258 13.2436 8.92667 13.24C8.80143 13.2391 8.6777 13.2126 8.56307 13.1621C8.44843 13.1117 8.34531 13.0384 8.26 12.9467L5.96667 10.6667C5.92198 10.6273 5.88618 10.5788 5.86167 10.5245C5.83715 10.4702 5.82447 10.4113 5.82447 10.3517C5.82447 10.2921 5.83715 10.2332 5.86167 10.1789C5.88618 10.1246 5.92198 10.0761 5.96667 10.0367L6.63333 9.40333C6.67605 9.35772 6.72767 9.32136 6.78501 9.2965C6.84235 9.27164 6.90417 9.25881 6.96667 9.25881C7.02916 9.25881 7.09099 9.27164 7.14832 9.2965C7.20566 9.32136 7.25729 9.35772 7.3 9.40333L8.92333 11.07L12.5067 6.97C12.5494 6.92438 12.601 6.88802 12.6583 6.86316C12.7157 6.8383 12.7775 6.82548 12.84 6.82548C12.9025 6.82548 12.9643 6.8383 13.0217 6.86316C13.079 6.88802 13.1306 6.92438 13.1733 6.97Z" fill="white"/>
</svg>
