<svg width="14" height="14" viewBox="0 0 14 14" fill="none" xmlns="http://www.w3.org/2000/svg">
<path fill-rule="evenodd" clip-rule="evenodd" d="M0 7C0 3.1339 3.1339 0 7 0C10.8661 0 14 3.1339 14 7C14 10.8661 10.8661 14 7 14C3.1339 14 0 10.8661 0 7ZM7 4.2C7 4.01435 6.92625 3.8363 6.79497 3.70503C6.6637 3.57375 6.48565 3.5 6.3 3.5C6.11435 3.5 5.9363 3.57375 5.80503 3.70503C5.67375 3.8363 5.6 4.01435 5.6 4.2V7.7C5.6 7.88565 5.67375 8.0637 5.80503 8.19497C5.9363 8.32625 6.11435 8.4 6.3 8.4H9.8C9.98565 8.4 10.1637 8.32625 10.295 8.19497C10.4263 8.0637 10.5 7.88565 10.5 7.7C10.5 7.51435 10.4263 7.3363 10.295 7.20503C10.1637 7.07375 9.98565 7 9.8 7H7V4.2Z" fill="#2B92D5"/>
</svg>
