<svg width="69" height="61" viewBox="0 0 69 61" fill="none" xmlns="http://www.w3.org/2000/svg">
<mask id="mask0_637_526" style="mask-type:alpha" maskUnits="userSpaceOnUse" x="0" y="0" width="69" height="61">
<rect width="69" height="61" rx="10" fill="#FFA41B"/>
</mask>
<g mask="url(#mask0_637_526)">
<path d="M71.4508 32.965C71.4508 33.5201 71.4508 34.0058 71.4508 34.5609C71.3814 36.4345 71.1733 38.3081 70.7569 40.1122C70.6875 40.4592 70.6181 40.7368 70.5488 41.0143C68.3976 50.6597 62.4994 58.9173 54.3806 64.0522C49.1069 67.4524 42.8617 69.5341 36.2695 69.8117C35.7144 69.8117 35.0898 69.8811 34.5347 69.8811C30.51 69.8811 26.6241 69.2566 23.0158 68.0769C14.897 65.44 8.02727 60.0969 3.51684 53.0884C2.33719 51.2842 1.36571 49.4107 0.463625 47.3983C-1.40994 43.0267 -2.45081 38.0999 -2.45081 32.965C-2.45081 12.5639 14.0643 -3.95117 34.4653 -3.95117C54.8663 -3.95117 71.4508 12.5639 71.4508 32.965Z" fill="#39B8FF"/>
<path d="M80.5 33C80.5 33.6917 80.5 34.297 80.5 34.9887C80.4136 37.3233 80.1545 39.6579 79.6361 41.906C79.5498 42.3383 79.4634 42.6842 79.377 43.0301C76.6991 55.0489 69.3563 65.3383 59.2493 71.7368C52.684 75.9737 44.9094 78.5677 36.7028 78.9135C36.0117 78.9135 35.2343 79 34.5432 79C29.5329 79 24.6953 78.2218 20.2033 76.7519C10.0962 73.4662 1.54413 66.8083 -4.07089 58.0752C-5.53944 55.8271 -6.74883 53.4925 -7.87183 50.985C-10.2042 45.5376 -11.5 39.3985 -11.5 33C-11.5 7.57895 9.05963 -13 34.4568 -13C59.854 -13 80.5 7.57895 80.5 33Z" fill="#C6F2F3"/>
<path d="M55.6147 68.7523C49.6402 72.5307 42.5651 74.844 35.0969 75.1525C34.468 75.1525 33.7604 75.2296 33.1315 75.2296C28.572 75.2296 24.1697 74.5356 20.0819 73.2247C10.8842 70.2174 3.10155 64.2799 -2.00827 56.4918C-3.34468 54.4869 -4.44526 52.4049 -5.46722 50.1687C5.69576 47.1614 17.7235 47.3928 28.7292 50.9398C31.3235 51.7881 33.8391 52.7905 36.276 53.9471C36.6691 54.1014 37.0622 54.3327 37.4552 54.564C37.8483 54.7954 38.2414 54.9496 38.6344 55.1809C45.0807 58.6509 50.898 63.2775 55.6147 68.7523Z" fill="#91C53F"/>
<path d="M60.6258 43.5822C59.0298 39.2105 56.4623 35.1165 53.2009 31.7163C52.2988 30.7448 51.1886 29.7733 49.8008 29.7039C48.1354 29.6345 46.7475 30.8836 45.7067 32.202C43.4862 35.1858 42.1677 38.7248 41.1269 42.2637C40.086 45.8721 39.2533 49.4804 37.7961 52.8806C41.6126 50.7989 45.3597 48.8559 49.315 47.1905C52.9928 45.7333 56.7399 44.2761 60.6258 43.5822Z" fill="#828E5E"/>
<path d="M71.3814 34.561C71.312 36.4345 71.1039 38.3081 70.6875 40.1122C70.6181 40.4592 70.5487 40.7368 70.4793 41.0143C65.4832 42.3328 60.487 43.7206 55.4908 45.039C55.6296 45.039 55.699 44.9002 55.7684 44.7615C56.1154 44.0675 56.1848 42.2634 56.2541 41.6389C56.2541 41.5695 56.2541 41.5695 56.2541 41.5001C56.4623 40.0429 56.8093 38.5163 57.3644 36.9896C57.642 36.1569 57.9889 35.2549 58.4053 34.4916C58.9604 33.3119 59.5849 32.271 60.3482 31.2996C62.0136 29.2178 64.3729 28.8709 66.5934 30.0505C68.467 31.1608 70.063 32.7568 71.3814 34.561Z" fill="#828E5E"/>
<path d="M73.7131 41.3293C73.6353 41.7244 73.5575 42.0405 73.4797 42.3565C71.0672 53.3405 64.4524 62.744 55.3473 68.5916C49.4329 72.4636 42.429 74.8342 35.036 75.1503C34.4134 75.1503 33.713 75.2293 33.0905 75.2293C28.5768 75.2293 24.2188 74.5182 20.1721 73.1748C21.6507 70.251 23.4406 67.4062 25.3862 64.7985C28.499 60.6104 32.2344 56.8174 36.2811 53.5775C36.9037 53.1034 37.5263 52.6293 38.1488 52.1552C39.3161 51.2859 40.4835 50.4957 41.7286 49.7845C46.6313 46.7817 52.001 44.5691 57.5263 43.1468C58.6936 42.8307 59.9388 42.5936 61.1839 42.3565C65.2306 41.5663 69.433 41.1712 73.7131 41.3293Z" fill="#AECD4B"/>
<path d="M30.7817 70.705C31.396 70.0842 31.6263 69.1529 31.396 68.3769C31.1656 67.5233 30.4745 66.9024 29.7066 66.6696C30.4745 66.2816 30.7817 65.2727 30.4745 64.4967C30.1674 63.7207 29.1691 63.2551 28.4012 63.4879C29.6298 63.3327 30.5513 61.8582 30.1674 60.6165C29.8602 59.3749 28.478 58.5988 27.1726 58.7541C25.944 58.9093 24.869 59.9181 24.485 61.1598C25.2529 59.9181 24.7154 58.0556 23.41 57.3572C22.1046 56.6588 20.3385 57.2796 19.7242 58.5988C20.492 57.9004 20.4153 56.5036 19.5706 55.8827C18.7259 55.2619 17.4205 55.5723 16.9598 56.5036C17.958 55.7275 18.1884 54.1754 17.5741 53.089C16.9598 52.0025 15.424 51.5369 14.2722 52.0801C13.1204 52.6234 12.4293 54.0202 12.8132 55.1843C12.3525 53.6322 10.2024 52.9338 8.97381 53.9426C7.7452 54.9515 7.82198 57.202 9.20417 58.0556C16.1151 62.3238 23.7172 66.5144 30.7817 70.705Z" fill="#587342"/>
<path d="M23.4511 40.4984C23.4511 38.159 24.7236 35.9395 26.4204 34.2C28.1171 32.5204 30.1774 31.2607 32.2377 30.061C28.7837 30.6608 25.572 32.4604 23.5723 35.2797C22.9057 31.2007 24.3601 26.7618 27.3899 23.8825C25.1478 24.3024 23.2693 25.982 22.7239 28.2014C21.2696 25.4421 18.6639 23.2827 15.6947 22.4429C17.0278 23.4626 18.3609 24.4824 19.4517 25.7421C20.5424 27.0017 21.4514 28.5014 21.6938 30.121C21.8756 31.4406 21.6938 32.7603 21.512 34.08C21.1484 36.3594 20.8454 38.5189 20.4818 40.8583C18.9669 38.7588 17.2702 36.7793 15.3917 35.0397C14.6039 34.3199 13.695 33.5401 12.6042 33.6601C13.9979 34.3199 15.0887 35.3997 15.9977 36.6593C16.846 37.859 17.5126 39.1787 18.1186 40.4984C16.0583 40.3184 13.9373 40.0785 11.877 39.8985C12.9678 40.3784 14.1191 40.7983 15.2705 41.0982C16.9066 41.5181 18.4821 41.5181 19.3911 43.0777C20.4818 44.9373 20.5424 47.3367 20.3001 49.4362C20.1789 50.4559 19.9971 51.4757 19.8759 52.4954C19.8153 53.1552 19.4517 55.6146 18.7245 55.8546C18.1186 56.0345 17.755 57.2342 18.2397 57.7141C18.6639 58.134 19.2699 58.074 19.8153 58.074C22.3604 58.014 24.9054 58.4939 27.2687 59.3937C24.6025 55.3147 23.3905 50.3959 23.7541 45.5971C23.8753 44.1575 24.1783 42.6579 25.2084 41.6381C26.0568 40.7983 27.2687 40.3784 28.4807 40.0785C29.632 39.7186 30.7834 39.4187 31.9347 39.0587C28.9049 38.039 25.9356 38.6988 23.4511 40.4984Z" fill="#77383D"/>
<path d="M34.5 75.1519C33.8865 75.1519 33.1963 75.2294 32.5828 75.2294C28.1349 75.2294 23.8404 74.532 19.8526 73.2145C10.8801 70.1922 3.288 64.225 -1.69672 56.3979C5.58864 56.1654 12.874 57.8704 19.3158 61.2802C21.3097 62.3651 23.2269 63.5275 24.9907 64.9225C28.6717 67.7898 31.8926 71.1996 34.5 75.1519Z" fill="#65A83F"/>
<path d="M46.5394 19.8506C48.9154 19.8506 50.8416 17.9244 50.8416 15.5483C50.8416 13.1723 48.9154 11.2461 46.5394 11.2461C44.1633 11.2461 42.2371 13.1723 42.2371 15.5483C42.2371 17.9244 44.1633 19.8506 46.5394 19.8506Z" fill="white"/>
<path d="M25.1283 27.5884C25.0676 26.4344 25.9786 25.2805 27.0718 25.0375C28.2258 24.7946 29.4404 25.5234 29.8656 26.6166C30.2907 27.7098 29.8049 29.046 28.7724 29.6533C29.6226 29.1067 30.9588 29.3497 31.5054 30.2C32.052 31.0502 31.8698 32.3257 31.0803 32.9937C30.2907 33.6618 29.076 33.6618 28.2258 33.1152C29.0153 33.7833 29.2582 34.8158 28.8938 35.7875C28.5294 36.7593 27.4362 37.3666 26.4037 37.2451C25.3712 37.1237 24.521 36.2734 24.3388 35.2409C24.0351 36.2126 22.7597 37.0629 21.7879 36.82C20.8162 36.5771 20.0874 35.6053 20.2088 34.5728C20.3303 33.6011 21.302 32.7508 22.2738 32.7508C21.545 32.8723 20.7554 32.3864 20.5125 31.6576C20.2696 30.9288 20.5732 30.0785 21.2413 29.7141C21.9094 29.3497 22.8204 29.4711 23.3063 30.0785C22.456 29.6533 21.8487 28.8031 21.8487 27.892C21.8487 26.981 22.6382 26.07 23.5492 26.0093C24.4602 25.8878 25.3712 26.6774 25.1283 27.5884Z" fill="#587342"/>
<path d="M17.4149 41.7396C17.5364 43.0757 16.6861 44.4119 15.4714 44.8977C14.2567 45.3836 12.7383 44.8977 11.9488 43.8653C11.3415 44.1082 10.7341 44.2297 10.1268 44.1689C9.51942 44.0475 8.91208 43.6831 8.66914 43.0757C8.48694 42.4684 8.79061 41.7396 9.39796 41.5574C8.60841 41.5574 7.81886 41.4359 7.15079 41.0108C6.54344 40.5856 6.1183 39.6746 6.54344 39.0065C6.84711 38.3992 7.51519 38.1562 8.12253 38.217C8.72988 38.2777 9.27649 38.5206 9.8231 38.8243C9.09428 38.0955 8.97281 36.8808 9.58016 36.0305C10.1268 35.1803 11.3415 34.8159 12.2525 35.1803C13.1635 35.5447 13.7708 36.6379 13.6494 37.6096C14.2567 36.3342 16.2002 36.0305 17.1719 37.0023C18.1437 37.974 17.84 39.9175 16.5646 40.5249" fill="#778B36"/>
<path d="M13.9532 29.6535C13.1029 28.9854 11.706 29.2283 11.1594 30.1393C11.3416 29.1676 10.9772 28.1351 10.1876 27.5278C9.3981 26.9811 8.24415 26.9204 7.4546 27.5278C6.72579 28.1351 6.48285 29.3498 7.02946 30.1393C6.23992 29.4713 4.78229 29.8357 4.41789 30.8681C4.05348 31.8399 4.9645 33.0546 5.99698 32.9938C5.02523 33.1153 4.29642 34.1478 4.47862 35.1195C4.66082 36.0913 5.57184 36.8201 6.54359 36.8808C7.51534 36.9416 8.48708 36.2735 8.85149 35.3625C8.54782 36.6379 9.82324 38.0348 11.1594 37.8526C12.4955 37.6704 13.2851 35.9698 12.617 34.8159C13.2244 35.1195 14.0746 34.8766 14.3783 34.2693C14.6212 33.8441 14.5605 33.4797 14.439 33.0546C14.3176 32.4472 14.3176 32.5687 14.439 31.9614C14.682 31.1111 14.8035 30.2608 13.9532 29.6535Z" fill="#9A973D"/>
<path d="M15.1072 15.8055C13.5281 15.6233 11.8883 16.7165 11.4631 18.2349C11.038 19.7532 11.8883 21.5752 13.4066 22.1826C12.4349 22.3041 11.8275 23.458 12.1919 24.369C12.5563 25.28 13.8318 25.5837 14.6213 25.0371C13.4674 25.7659 13.2852 27.7094 14.3784 28.5597C15.4716 29.41 17.3544 28.8634 17.7795 27.5272C17.3544 28.3775 17.901 29.5314 18.812 29.6529C19.723 29.8351 20.634 28.9241 20.5125 28.0131C21.4236 28.5597 22.6382 28.4382 23.3671 27.7094C24.1566 26.9806 24.3388 25.7659 23.9137 24.8549C23.4278 23.9439 22.3346 23.3973 21.3628 23.5795C21.9094 23.3365 22.2738 22.6685 22.0309 22.0611C21.8487 21.5145 21.1199 21.1501 20.5125 21.3323C21.3628 20.725 21.4236 19.3888 20.7555 18.66C20.2696 18.2956 19.6623 18.1134 19.0549 18.2349C18.2654 18.3563 18.3261 18.7815 17.8402 18.1134C16.99 17.0809 16.6255 15.9877 15.1072 15.8055Z" fill="#778B36"/>
<path d="M23.2456 19.8147C22.5167 19.0859 22.2131 17.9319 22.456 16.8995C22.7597 15.867 23.5492 15.0167 24.5817 14.7738C25.6142 14.4701 26.7681 14.7738 27.497 15.5633C27.8614 14.6523 28.9546 14.0449 29.8656 14.2271C30.8373 14.4094 31.5662 15.3204 31.5662 16.2921C31.5662 17.2639 30.8373 18.1749 29.8656 18.3571C30.6551 18.2356 31.3232 19.2074 31.3232 19.9969C31.3232 20.7865 30.5337 21.4545 29.7441 21.3938C30.2907 22.0011 30.5944 22.6692 30.5337 23.4588C30.4729 24.2483 29.9263 25.0379 29.1975 25.3415C28.4687 25.6452 27.4362 25.4023 27.0111 24.6734C27.1326 25.4023 26.9504 26.0703 26.4645 26.6777C26.1608 27.0421 25.7964 27.285 25.3105 27.4065C24.8854 27.4672 24.3388 27.3458 24.0351 26.9814C23.7314 26.6169 23.6707 26.0703 23.9744 25.7059C23.4278 26.1918 22.3953 26.1311 21.7879 25.7059C21.1806 25.2808 20.8769 24.4305 21.1199 23.7017C21.3628 22.9729 22.1523 22.487 22.8812 22.6085C22.2738 22.9122 21.4843 22.1226 21.3628 21.4545C21.4843 20.7865 22.5775 19.754 23.2456 19.8147Z" fill="#778B36"/>
<path d="M27.011 29.532C26.3429 29.2891 25.5534 29.4713 25.0675 30.0179C24.5816 30.5645 24.5209 31.3541 24.8246 31.9614C25.1282 32.5688 25.8571 32.9939 26.5859 32.8724C25.8571 33.2368 25.6141 34.3908 25.9178 35.1803C26.2215 35.9699 27.1932 36.395 28.0435 36.2128C28.8938 36.0306 29.5011 35.2411 29.6226 34.4515C29.8048 34.9374 29.987 35.484 30.2907 35.8484C30.5943 36.2736 31.0802 36.5772 31.5661 36.5772C32.052 36.5772 32.5378 36.2128 32.9022 35.8484C33.5096 35.1196 33.874 34.2693 34.2384 33.3583C34.7243 34.1479 35.8175 34.3301 36.5463 33.7834C37.2751 33.2368 37.3358 32.0222 36.6678 31.3541C37.8217 31.597 39.0971 31.1719 39.8867 30.3216C40.6155 29.4106 40.7977 28.0137 40.0689 27.0419C39.3401 26.0702 37.8824 25.8273 36.9714 26.6168C37.4573 25.9487 37.0322 24.9162 36.2426 24.6126C35.4531 24.3089 34.6028 24.6733 34.0562 25.2806C33.5096 25.888 33.2666 26.7383 33.1452 27.5278C32.4771 26.4346 31.0195 25.9487 29.8655 26.3739C28.4079 26.799 26.8288 28.2566 27.011 29.532Z" fill="#9BB84E"/>
<path d="M27.3147 43.9261C28.2258 43.8046 28.9546 43.015 29.1975 42.1648C29.1975 43.3794 30.5337 44.4119 31.6876 44.0475C32.8416 43.7439 33.5096 42.1648 32.8416 41.1323C33.7526 41.8004 35.2102 41.6789 35.9997 40.8893C36.7893 40.0391 36.9108 38.6422 36.1819 37.7312C35.5139 36.8201 34.117 36.5165 33.0845 37.0631C33.3274 35.6662 32.1128 34.2693 30.7159 34.33C29.319 34.3908 28.2258 35.9091 28.5902 37.2453C28.3472 36.4557 26.5252 36.5772 25.9786 36.7594C24.8246 37.2453 24.5817 38.3992 24.5817 39.5532C24.7032 41.193 25.1283 44.2297 27.3147 43.9261Z" fill="#778B36"/>
<path d="M11.8882 22.7301C11.2201 23.8841 11.4631 25.4632 12.4348 26.3742C11.2201 25.4632 9.15515 26.0705 8.66928 27.5889C8.1834 29.0465 9.51956 30.8078 11.0987 30.747C10.0662 31.6581 9.9447 33.3586 10.795 34.3911C11.6453 35.4236 13.4066 35.6058 14.439 34.7555C14.0746 35.2414 14.1354 35.9702 14.4998 36.4561C14.8642 36.9419 15.4108 37.1241 16.0181 37.1849C17.1113 37.3063 18.2046 36.8205 18.8119 35.9702C19.4193 35.1199 19.5407 33.9052 19.1156 32.9335C20.0873 33.4193 21.4842 32.9335 21.9094 31.901C22.3952 30.8685 21.8486 29.5323 20.8161 29.1072C22.213 28.6213 22.8811 26.6778 22.0308 25.4632C21.1805 24.2485 19.1763 24.0663 18.1438 25.2202C19.1763 24.0663 16.9899 21.7584 16.0181 21.4547C14.7427 20.9688 12.6777 21.4547 11.8882 22.7301Z" fill="#9BB84E"/>
<path d="M22.4559 35.9092C22.7596 34.9982 22.3344 33.9049 21.4841 33.4191C20.6339 32.9332 19.4799 33.0547 18.8118 33.7227C18.1437 34.3908 17.9615 35.5448 18.4474 36.3951C17.4757 36.1521 16.3825 36.3951 15.6536 37.1239C15.0463 37.7919 14.8034 39.0066 15.2892 39.8569C15.7751 40.7072 17.0505 41.0716 17.9008 40.5857C16.9898 41.1323 16.6861 42.5292 17.2935 43.3795C17.9008 44.2905 19.237 44.5334 20.148 43.9868C21.059 43.4402 21.4841 42.2255 21.1197 41.1931C21.1197 42.1648 22.0915 42.7721 23.0632 42.7721C24.035 42.8329 24.8853 42.0433 25.0067 41.0716C25.1282 40.1606 24.3994 39.1888 23.4884 39.0066C24.4601 38.8244 25.1282 37.7312 24.7638 36.8202C24.4601 35.9092 23.3062 35.4233 22.4559 35.9092Z" fill="#9A973D"/>
<path d="M36.4777 58.8483C36.6164 58.2931 37.241 57.8768 37.7961 57.8074C38.4206 57.738 38.9757 57.9462 39.5309 58.2237C39.1839 58.6401 38.6982 58.987 38.143 59.1258C37.6573 59.2646 36.9634 59.0564 36.4777 58.8483Z" fill="#587342"/>
<path d="M35.9919 59.0564C35.9919 59.0564 35.9225 59.0564 36.0613 58.987C36.2001 58.9176 36.547 58.7095 37.5185 58.5013C38.3512 58.2931 39.1145 58.2237 39.1145 58.2931C39.1145 58.3625 38.4206 58.4319 37.5879 58.7095C36.894 58.9176 36.547 59.0564 36.3389 59.1258C36.0613 59.0564 36.0613 59.0564 35.9919 59.0564Z" fill="#97B776"/>
<path d="M48.3435 55.1701C48.5517 54.4762 49.0374 53.8517 49.7314 53.5047C50.3559 53.1578 51.1886 53.0884 51.8825 53.2272C51.6049 53.9905 51.258 54.615 50.5641 54.962C49.8701 55.3783 49.1068 55.3089 48.3435 55.1701Z" fill="#587342"/>
<path d="M47.7884 55.587C47.7884 55.587 47.6496 55.587 47.7884 55.4482C47.9272 55.3094 48.3435 55.0319 49.3844 54.4767C50.3559 53.991 51.1886 53.644 51.1886 53.7134C51.1886 53.7828 50.4253 54.1298 49.4538 54.6849C47.9966 55.587 47.8578 55.7258 47.7884 55.587Z" fill="#97B776"/>
<path d="M58.4747 48.1623C59.0298 47.8154 59.7237 47.6766 60.4176 47.8154C61.1115 47.9542 61.6667 48.3011 62.1524 48.8563C61.5279 49.2032 60.834 49.342 60.14 49.2726C59.4461 49.0644 58.891 48.6481 58.4747 48.1623Z" fill="#587342"/>
<path d="M62.6381 48.9255C62.6381 48.9255 62.7075 49.0643 62.4994 48.9949C62.3606 48.9949 61.9442 48.7867 61.0421 48.5091C60.2094 48.3009 59.4461 48.2316 59.4461 48.1622C59.4461 48.0928 60.2094 48.0234 61.1115 48.2316C61.8054 48.3703 62.2218 48.5785 62.43 48.7173C62.6381 48.8561 62.6381 48.9255 62.6381 48.9255Z" fill="#97B776"/>
<path d="M12.4683 58.5704C12.6071 58.0153 13.2316 57.599 13.7867 57.5296C14.4112 57.4602 14.9664 57.6683 15.5215 57.9459C15.1745 58.3623 14.6888 58.7092 14.1337 58.848C13.6479 58.9868 12.954 58.7786 12.4683 58.5704Z" fill="#587342"/>
<path d="M11.9825 58.7791C11.9825 58.7791 11.9132 58.7791 12.0519 58.7097C12.1907 58.6403 12.5377 58.4321 13.5091 58.2239C14.3418 58.0158 15.1051 57.9464 15.1051 58.0158C15.1051 58.0852 14.4112 58.1545 13.5785 58.4321C12.8846 58.6403 12.5377 58.7791 12.3295 58.8485C12.0519 58.7791 12.0519 58.7791 11.9825 58.7791Z" fill="#97B776"/>
</g>
</svg>
