<svg width="69" height="61" viewBox="0 0 69 61" fill="none" xmlns="http://www.w3.org/2000/svg">
<mask id="mask0_637_634" style="mask-type:alpha" maskUnits="userSpaceOnUse" x="0" y="0" width="69" height="61">
<rect width="69" height="61" rx="10" fill="#FFA41B"/>
</mask>
<g mask="url(#mask0_637_634)">
<path d="M79.75 28.9587C79.75 29.6197 79.75 30.1981 79.75 30.8591C79.6673 33.0901 79.4194 35.3211 78.9237 37.4694C78.841 37.8826 78.7584 38.2131 78.6758 38.5436C76.1143 50.0291 69.0908 59.8619 59.4232 65.9765C53.1434 70.0253 45.7068 72.5042 37.857 72.8347C37.196 72.8347 36.4523 72.9173 35.7913 72.9173C30.9988 72.9173 26.3716 72.1736 22.0749 70.769C12.4073 67.629 4.22702 61.2666 -1.14387 52.9211C-2.54857 50.7727 -3.70537 48.5417 -4.77955 46.1455C-7.01053 40.9399 -8.24997 35.0732 -8.24997 28.9587C-8.24997 4.66571 11.4157 -15 35.7087 -15C60.0016 -15 79.75 4.66571 79.75 28.9587Z" fill="#1C88D1"/>
<path d="M59.4236 66.0588C53.1438 70.1077 45.7071 72.5865 37.8574 72.9171C37.1964 72.9171 36.4527 72.9997 35.7917 72.9997C30.9992 72.9997 26.3719 72.256 22.0752 70.8513C12.4076 67.6288 4.22736 61.2664 -1.14353 52.9208C-2.54822 50.7725 -3.70503 48.5415 -4.77921 46.1452C6.95412 42.9227 19.5964 43.1706 31.1644 46.9715C33.8912 47.8805 36.5353 48.9546 39.0968 50.1941C39.51 50.3593 39.9231 50.6072 40.3363 50.8551C40.7494 51.103 41.1625 51.2682 41.5757 51.5161C48.3513 55.2344 54.4658 60.1922 59.4236 66.0588Z" fill="#8AA7BC"/>
<path d="M62.5621 42.2583C60.6616 42.6194 58.7612 43.161 56.8607 43.793C54.2166 44.6958 51.6551 45.7791 49.0936 46.9527C44.3837 49.0291 39.8391 51.6472 35.3771 54.3555C37.1123 49.9319 38.1865 45.2374 39.426 40.6332C40.2523 37.5638 41.2438 34.4041 42.5659 31.5152C43.2269 30.161 43.9706 28.8068 44.7968 27.5429C46.0363 25.8276 47.6889 24.1123 49.672 24.2929C51.2419 24.3832 52.564 25.6471 53.7208 26.911C54.4644 27.8137 55.2081 28.7165 55.8691 29.6193C56.8607 30.9735 57.8522 32.4179 58.6785 33.8624C60.2485 36.4805 61.5705 39.2791 62.5621 42.2583Z" fill="#437B9B"/>
<path d="M75.3699 30.5223C75.2872 32.9598 75.0393 35.3973 74.6262 37.7445C74.5436 38.1057 74.4609 38.557 74.3783 38.9182C68.429 40.6334 62.4797 42.439 56.5304 44.1543C56.6957 44.1543 56.7783 43.9737 56.8609 43.7932C57.2741 42.8904 57.3567 40.5432 57.4393 39.7307C57.4393 39.6404 57.4393 39.6404 57.4393 39.5501C57.6872 37.6543 58.1004 35.6681 58.7614 33.682C59.0093 32.7792 59.3398 31.8765 59.753 30.9737C59.8356 30.7931 59.9182 30.6126 60.0008 30.432C60.6619 28.8973 61.4055 27.5431 62.3145 26.2792C64.2976 23.5709 67.1069 23.1195 69.7511 24.6542C70.9905 25.3764 72.1473 26.3695 73.1389 27.4528C73.8825 28.5362 74.7088 29.5292 75.3699 30.5223Z" fill="#437B9B"/>
<path opacity="0.32" d="M55.8697 29.529C55.8697 29.7999 55.787 29.9804 55.7044 30.161C55.5392 30.5221 55.126 30.8832 54.7129 30.8832C53.5561 30.7026 53.6387 28.3554 52.3992 28.0846C51.7382 27.9943 51.1598 28.7165 51.0772 29.4388C50.9119 30.161 51.0772 30.8832 50.9119 31.6054C50.7467 32.3277 50.1683 33.0499 49.5072 32.8693C48.8462 32.6888 48.5983 31.786 48.5983 31.0638C48.5983 30.3415 48.4331 29.4388 47.8547 29.1679C47.3589 28.8068 46.6978 29.0776 46.2847 29.529C45.8716 29.9804 45.6237 30.6124 45.2932 31.154C44.9626 31.6957 44.5495 32.2374 43.9711 32.3277C43.3101 32.4179 42.8969 32.0568 42.5664 31.5152C43.2274 30.161 43.9711 28.8068 44.7974 27.5429C46.0368 25.8276 47.6894 24.1123 49.6725 24.2929C51.2424 24.3832 52.5645 25.6471 53.7213 26.911C54.465 27.7235 55.2086 28.6263 55.8697 29.529Z" fill="white"/>
<path opacity="0.32" d="M73.1386 27.6335C72.9734 28.5363 72.1471 29.2585 71.3208 28.9877C70.825 28.8974 70.4119 28.446 69.9987 28.1752C69.5856 27.9043 69.0072 27.7238 68.594 28.0849C68.2635 28.3557 68.2635 28.8974 68.3462 29.439C68.4288 29.8904 68.594 30.3418 68.594 30.7932C68.594 31.5154 68.1809 32.1474 67.5199 32.328C66.9415 32.5085 66.1978 32.2377 65.8673 31.696C65.6194 31.2446 65.5368 30.7029 65.2062 30.4321C64.6278 29.9807 63.8842 30.5224 63.471 31.0641C63.0579 31.696 62.81 32.4182 62.149 32.7793C61.1574 33.321 59.918 32.328 59.6701 31.1543C59.7527 30.9738 59.8354 30.7932 59.918 30.6127C60.579 29.0779 61.3227 27.7238 62.2316 26.4599C64.2147 23.7515 67.0241 23.3001 69.6682 24.8349C70.9077 25.5571 72.0645 26.4599 73.1386 27.6335Z" fill="white"/>
<path d="M78.9235 37.47C78.8409 37.8831 78.7583 38.2137 78.6756 38.5442C76.1141 50.0296 69.0907 59.8625 59.4231 65.977C53.1433 70.0258 45.7066 72.5047 37.8569 72.8352C37.1958 72.8352 36.4522 72.9179 35.7912 72.9179C30.9987 72.9179 26.3714 72.1742 22.0747 70.7695C23.6447 67.7122 25.5452 64.7376 27.6109 62.0108C30.916 57.6315 34.8822 53.6653 39.1789 50.2775C39.84 49.7817 40.501 49.2859 41.162 48.7902C42.4015 47.8812 43.6409 47.055 44.963 46.3113C50.1686 43.1714 55.87 40.8578 61.7367 39.3705C62.9761 39.0399 64.2982 38.7921 65.6202 38.5442C69.9169 37.7179 74.3789 37.3047 78.9235 37.47Z" fill="#E0F0FC"/>
<path d="M22.9841 38.2131C22.9841 34.9906 24.7193 31.9333 27.0329 29.5371C29.3465 27.2235 32.1559 25.4883 34.9653 23.8357C30.2554 24.662 25.8761 27.1408 23.1493 31.0244C22.2404 25.4056 24.2235 19.2911 28.355 15.3249C25.2977 15.9033 22.7362 18.2169 21.9925 21.2742C20.0094 17.4733 16.4564 14.4986 12.4076 13.3418C14.2254 14.7465 16.0432 16.1512 17.5306 17.8864C19.0179 19.6216 20.2573 21.6873 20.5878 23.9183C20.8357 25.7362 20.5878 27.554 20.3399 29.3718C19.8442 32.5117 19.431 35.4864 18.9353 38.7089C16.8695 35.8169 14.5559 33.0901 11.9944 30.6939C10.9202 29.7023 9.6808 28.6282 8.19348 28.7934C10.0939 29.7023 11.5813 31.1897 12.8207 32.9249C13.9775 34.5775 14.8864 36.3953 15.7127 38.2131C12.9033 37.9653 10.0113 37.6347 7.20193 37.3868C8.68926 38.0479 10.2592 38.6263 11.8292 39.0394C14.0601 39.6178 16.2085 39.6178 17.4479 41.7662C18.9353 44.3277 19.0179 47.6329 18.6874 50.5249C18.5221 51.9296 18.2742 53.3343 18.109 54.7389C18.0263 55.6479 17.5306 59.0357 16.539 59.3662C15.7127 59.6141 15.217 61.2666 15.878 61.9277C16.4564 62.5061 17.2827 62.4234 18.0263 62.4234C21.4968 62.3408 24.9672 63.0019 28.1897 64.2413C24.554 58.6225 22.9014 51.8469 23.3972 45.2366C23.5625 43.2535 23.9756 41.1878 25.3803 39.7831C26.5371 38.6263 28.1897 38.0479 29.8423 37.6347C31.4122 37.139 32.9822 36.7258 34.5521 36.23C30.4207 34.8253 26.3719 35.7343 22.9841 38.2131Z" fill="#77383D"/>
<path d="M37.8568 72.917C37.1958 72.917 36.4521 72.9997 35.7911 72.9997C30.9986 72.9997 26.3714 72.256 22.0747 70.8513C12.4071 67.6288 4.22681 61.2663 -1.14407 52.9208C6.70569 52.6729 14.5554 54.4908 21.4963 58.1264C23.6446 59.2832 25.7104 60.5227 27.6108 62.01C31.577 65.0673 35.0474 68.703 37.8568 72.917Z" fill="#A1C0E2"/>
<path d="M15.7124 52.2604C14.5556 52.9214 13.0683 51.5994 11.7462 51.8472C10.5068 52.0951 9.76311 53.6651 8.44105 53.7477C7.78002 53.8303 7.11898 53.4998 6.45795 53.4172C5.79692 53.3346 4.888 53.6651 4.888 54.3261C4.888 54.9871 5.63166 55.3177 6.29269 55.4829C7.28424 55.7308 8.35842 55.9787 9.34997 56.3092C10.672 56.6397 11.9115 56.9702 13.2335 57.1355C14.3903 57.3008 15.6298 57.2181 16.7866 57.2181C17.5302 57.2181 18.2739 57.1355 18.7697 56.7224C19.596 56.0613 19.596 54.8219 19.596 53.7477C19.5133 52.5909 19.8439 49.3684 18.2739 48.9552C16.7866 48.5421 16.7866 51.5994 15.7124 52.2604Z" fill="#E0F0FC"/>
<path d="M53.9693 13.8439C53.0604 14.9181 51.6557 15.5791 50.0858 15.5791C47.1938 15.5791 44.9628 13.2655 44.9628 10.4561C44.9628 7.64673 47.2764 5.25049 50.0858 5.25049C50.7468 5.25049 51.4905 5.41575 52.0689 5.66363C50.0858 5.99415 48.5984 7.72936 48.5984 9.79509C48.5984 12.1087 50.4989 14.0092 52.8125 14.0092C53.2257 14.0092 53.6388 13.9265 53.9693 13.8439Z" fill="white"/>
<path d="M6.04488 35.8998C5.71436 36.3956 5.87962 37.1392 6.3754 37.4697C7.20169 37.9655 8.35849 37.3045 9.18478 37.8829C9.5153 38.1308 9.68056 38.4613 9.92844 38.7918C10.1763 39.1223 10.5068 39.4528 10.8374 39.4528C11.3331 39.4528 11.7463 38.7918 12.2421 38.7918C12.7378 38.8744 12.9031 39.4528 13.2336 39.9486C13.6468 40.527 14.3904 40.7749 15.0514 40.527C15.7125 40.2791 16.1256 39.5355 16.043 38.8744C15.9604 38.2134 15.4646 37.635 14.8862 37.3045C14.3078 36.974 13.6468 36.8087 12.9857 36.7261C11.581 36.3956 10.1763 36.1477 8.85427 35.8172C8.11061 35.6519 6.62328 34.9909 6.04488 35.8998Z" fill="#E0F0FC"/>
<path d="M7.4493 27.1408C6.62301 27.6366 6.12724 28.876 6.78827 29.6197C7.36667 30.2807 8.35822 30.2807 9.26714 30.4459C10.4239 30.6938 11.4155 31.4375 12.1592 32.2638C12.9028 33.1727 13.4812 34.1642 14.0596 35.2384C14.3901 35.8168 14.7207 36.3952 15.2164 36.8084C15.7122 37.2215 16.5385 37.3868 17.0343 36.9736C17.7779 36.3952 17.53 35.1558 17.1169 34.2469C15.7122 31.3549 11.4981 24.9098 7.4493 27.1408Z" fill="#E0F0FC"/>
<path d="M21.9096 33.1722C22.5706 33.4201 23.2316 33.2549 23.81 32.8417C24.3884 32.5112 24.8016 31.9328 25.2147 31.437C25.7931 30.776 26.3715 30.0323 26.8673 29.3713C27.5283 28.6276 28.1067 27.8013 28.7678 27.0577C29.1809 26.4793 29.6767 25.9009 30.3377 25.653C30.9988 25.3225 31.825 25.4051 32.3208 25.9835C32.6513 26.3967 32.734 27.1403 33.1471 27.4708C33.5603 27.8013 34.1387 27.7187 34.5518 27.3882C34.9649 27.1403 35.2128 26.6445 35.3781 26.2314C35.626 25.653 35.7912 24.992 35.7086 24.3309C35.626 23.6699 35.2955 23.0915 34.7171 22.761C33.8908 22.3478 32.8166 22.761 31.9903 23.1741C29.2635 24.4962 26.702 25.9835 24.2232 27.7187C22.2401 29.0408 21.4964 30.6107 21.9096 33.1722Z" fill="#E0F0FC"/>
<path d="M22.1576 41.3532C22.6533 41.4358 22.9838 40.9401 23.1491 40.5269C23.3144 40.1138 23.4796 39.5354 23.8928 39.3701C24.3885 39.1222 25.0496 39.618 25.5453 39.5354C26.1238 39.4527 26.4543 38.7917 26.7022 38.2959C26.95 37.7175 27.4458 37.1391 28.0242 37.2218C28.6853 37.3044 28.8505 38.0481 29.0158 38.7091C29.0984 39.2875 29.4289 40.1138 30.0073 40.1138C30.4205 40.1138 30.8336 39.8659 31.0815 39.4528C31.3294 39.1222 31.4946 38.7091 31.8252 38.3786C32.6514 37.6349 34.2214 38.0481 34.7998 37.1391C35.2129 36.4781 34.8824 35.4866 34.2214 35.0734C33.5604 34.6603 32.7341 34.5776 31.9078 34.5776C30.2552 34.5776 28.52 34.7429 26.8674 34.9908C25.628 35.3213 23.7275 35.4039 22.6533 36.2302C21.9097 36.8912 20.9181 41.1053 22.1576 41.3532Z" fill="#E0F0FC"/>
<path d="M20.4223 21.3567C20.7528 21.8525 21.2485 22.4309 21.9096 22.3483C22.3227 22.2657 22.5706 21.8525 22.6532 21.4394C22.7359 21.0262 22.7359 20.6131 22.9011 20.1999C23.3143 18.8779 24.9668 18.3821 25.7105 17.1427C25.9584 16.8121 26.041 16.399 25.9584 15.9859C25.8758 15.5727 25.6279 15.2422 25.2147 15.1596C24.719 15.0769 24.2232 15.4901 23.81 15.9032C23.4795 16.3164 23.149 16.8121 22.6532 17.06C21.1659 17.6384 19.1828 14.9117 17.7781 16.3164C16.8692 17.1427 19.8438 20.4478 20.4223 21.3567Z" fill="#E0F0FC"/>
<path d="M21.8271 51.0206C21.6619 51.9295 21.4966 53.0037 21.9924 53.7473C22.4055 54.4084 23.2318 54.8215 23.3144 55.5652C23.4797 56.3915 22.736 57.2177 23.0665 57.8788C23.3144 58.4572 24.2234 58.6224 24.3886 59.2008C24.5539 59.614 24.3886 60.1098 24.3886 60.5229C24.3886 61.3492 25.0496 61.9276 25.628 62.4234C26.8675 63.3323 28.2722 64.076 29.3464 65.1501C30.9989 66.7201 31.8252 69.0337 33.8083 70.2731C34.7172 70.8515 36.0393 70.9342 36.6177 70.1079C36.9482 69.5295 36.783 68.7858 36.4524 68.1248C35.6262 66.4722 33.9736 65.2328 33.7257 63.4149C33.5604 62.1755 34.1388 60.9361 33.8083 59.7792C33.5604 58.953 32.8994 58.2919 31.9905 58.044C31.4121 57.8788 30.751 57.9614 30.1726 57.6309C29.1811 57.0525 29.0985 55.6478 29.1811 54.491C29.1811 54.2431 29.1811 53.9126 29.0985 53.6647C29.0158 53.4168 28.7679 53.2516 28.6027 53.1689C27.859 52.5905 26.9501 52.26 26.2891 51.599C25.5454 50.9379 25.628 50.1116 25.0496 49.368C23.8102 47.4675 22.1576 49.6159 21.8271 51.0206Z" fill="#E0F0FC"/>
<path d="M49.5843 45.6763C48.5788 44.5794 47.5733 43.3911 46.2936 42.7512C45.3796 42.2942 44.2827 42.1114 43.2772 42.2942C43.7342 42.1114 44.0998 41.8372 44.5569 41.6544C42.7287 41.2887 40.8092 41.0145 38.981 40.6489C40.0779 40.4661 41.1748 40.2833 42.2717 40.1004C42.0889 38.9121 41.9061 37.7238 41.7233 36.627C42.0889 37.541 42.5459 38.4551 42.9116 39.2778C43.003 39.552 43.0944 39.7348 43.3686 39.9176C43.5514 40.009 43.7342 40.1004 43.917 40.1918C46.385 41.2887 48.6702 42.6598 50.6812 44.3966C50.2241 44.8536 50.0413 45.2193 49.5843 45.6763Z" fill="#77383D"/>
<path d="M59.5484 50.3382C59.5484 50.7039 59.5484 52.075 59.1828 52.3492C57.1718 53.9945 55.0695 53.8117 52.51 53.9945C49.9506 54.0859 47.574 53.4461 45.3803 51.9836C45.3803 51.8007 45.2889 51.7093 45.2889 51.6179C44.5576 48.3273 45.8373 44.3053 48.3967 42.1116C47.117 40.3748 47.0256 37.9068 48.1225 36.0787C49.2194 34.2505 51.4132 33.245 53.5155 33.5193C54.6124 33.7021 55.6179 34.2505 56.4406 34.9818C57.1718 35.6216 57.7203 36.5357 57.9945 37.5412C58.5429 39.5522 57.9945 40.9233 56.3492 42.203C58.1773 43.2084 59.1828 46.1335 59.457 48.1444C59.5484 48.8757 59.5484 49.607 59.5484 50.3382Z" fill="#EEF9FF"/>
<path d="M48.945 37.4504C48.8536 37.6332 48.8536 37.816 48.945 37.9988C49.0364 38.1816 49.2192 38.273 49.4021 38.1816C49.5849 38.0902 49.6763 37.9074 49.6763 37.816C49.7677 37.6332 49.7677 37.4503 49.6763 37.2675C49.4935 36.9019 49.1278 37.1761 48.945 37.4504Z" fill="#353B3D"/>
<path d="M52.4185 38.2723C52.7841 38.0895 52.8755 37.2669 52.3271 37.4497C51.87 37.6325 51.9614 38.5466 52.4185 38.2723Z" fill="#353B3D"/>
<path d="M50.7729 39.4607C50.5901 39.2778 50.3158 39.1864 50.0416 39.2778C49.7674 39.2778 49.4932 39.3693 49.3104 39.4607C49.0361 39.5521 48.7619 39.5521 48.3963 39.6435C47.7564 39.7349 47.1166 39.8263 46.4767 39.9177C46.8424 39.7349 47.1166 39.5521 47.4822 39.2778C46.6595 38.8208 45.8369 38.3638 45.1056 37.9067C46.1111 38.2724 47.0252 38.638 48.0307 39.0036C48.3049 39.095 48.4877 39.1864 48.7619 39.095C48.9447 39.0036 49.1275 38.9122 49.219 38.8208C49.676 38.5466 50.3158 38.4552 50.7729 38.638C50.9557 38.8208 51.0471 39.1864 50.7729 39.4607Z" fill="#77383D"/>
<path d="M49.5844 43.757C49.6758 43.8485 49.7672 43.9399 49.8586 43.9399C49.95 43.9399 50.0414 43.9399 50.1328 43.8485C50.2242 43.757 50.3156 43.6656 50.407 43.5742C50.4984 43.3914 50.6813 43.2086 50.5899 43.0258C50.407 42.4773 49.2187 43.3 49.5844 43.757Z" fill="#353B3D"/>
<path d="M49.2188 46.2251C49.1274 46.4079 49.1274 46.6821 49.3102 46.7735C49.4017 46.8649 49.5845 46.8649 49.7673 46.7735C49.9501 46.6821 50.1329 46.4993 50.1329 46.3165C50.1329 46.1337 49.9501 45.8595 49.7673 45.8595C49.4931 45.7681 49.2188 46.0423 49.2188 46.2251Z" fill="#353B3D"/>
<path d="M48.6706 49.3326C48.6706 49.5154 48.8534 49.6982 49.0362 49.6982C49.1276 49.6982 49.3104 49.6068 49.3104 49.5154C49.4019 49.424 49.4019 49.3326 49.4933 49.2412C49.5847 48.6014 48.6706 48.7842 48.6706 49.3326Z" fill="#353B3D"/>
<path opacity="0.26" d="M59.5482 50.3379C59.5482 50.7035 59.5482 52.0746 59.1826 52.3488C57.1716 53.9942 55.0692 53.8114 52.5098 53.9942C49.9504 54.0856 47.5738 53.4457 45.3801 51.9832C45.3801 51.8004 45.2887 51.709 45.2887 51.6176C47.1168 52.2574 49.0364 52.7145 50.9559 52.9887C52.2356 53.1715 53.5153 53.1715 54.795 52.8973C56.0747 52.6231 57.7201 51.8918 57.9943 50.6121C58.3599 48.8754 57.9943 46.9558 56.9888 45.3105C56.0747 43.7566 54.7036 42.6597 52.8755 42.2026C54.5208 41.5628 55.8005 40.2831 56.4404 38.6377C56.8974 37.4494 56.8974 36.1697 56.5318 34.9814C57.263 35.6213 57.8115 36.5354 58.0857 37.5409C58.6341 39.5518 58.0857 40.9229 56.4404 42.2026C58.2685 43.2081 59.274 46.1331 59.5482 48.1441C59.5482 48.8754 59.5482 49.6066 59.5482 50.3379Z" fill="#437B9B"/>
<path d="M55.9834 44.8536C57.1717 44.5794 58.1772 43.5739 59.4569 43.3911C60.1881 43.2996 60.9194 43.4825 61.6506 43.5739C62.3819 43.6653 63.2046 43.5739 63.753 43.0254C62.5647 42.934 61.4678 42.8426 60.2795 42.7512C61.1936 41.9285 62.1077 41.1059 63.0217 40.2832C61.9249 40.8316 60.9194 41.3801 59.8225 41.9285C58.6342 42.5684 57.4459 43.2082 56.2576 43.7567C55.892 43.9395 55.8006 44.3965 55.8006 44.8536C55.7092 44.8536 55.9834 44.8536 55.9834 44.8536Z" fill="#77383D"/>
</g>
</svg>
