<svg width="69" height="61" viewBox="0 0 69 61" fill="none" xmlns="http://www.w3.org/2000/svg">
<mask id="mask0_549_11760" style="mask-type:alpha" maskUnits="userSpaceOnUse" x="0" y="0" width="69" height="61">
<rect width="69" height="61" rx="10" fill="#FFA41B"/>
</mask>
<g mask="url(#mask0_549_11760)">
<path d="M85 29.9999C85 30.7518 85 31.4097 84.9061 32.1616C84.8122 34.6992 84.5305 37.2368 84.061 39.6804C83.9671 40.1503 83.8732 40.5262 83.7793 40.9022C80.8685 53.9661 72.8873 65.1503 61.9014 72.1051C54.7653 76.7104 46.3146 79.53 37.3944 79.9059C36.6432 79.9059 35.7982 79.9999 35.047 79.9999C29.601 79.9999 24.3428 79.154 19.4602 77.5563C8.47427 73.9848 -0.821491 66.748 -6.92477 57.2555C-8.52101 54.8119 -9.83557 52.2743 -11.0562 49.5488C-13.5914 43.6277 -14.9999 36.9548 -14.9999 29.9999C-14.9999 2.36839 7.34751 -20 34.9531 -20C62.5587 -20 85 2.36839 85 29.9999Z" fill="#39B8FF"/>
<path d="M85 29.9999C85 30.7518 85 31.4097 84.9061 32.1616C84.8122 34.6992 84.5305 37.2368 84.061 39.6804C83.9671 40.1503 83.8732 40.5262 83.7793 40.9022C80.8685 53.9661 72.8873 65.1503 61.9014 72.1051C54.7653 76.7104 46.3146 79.53 37.3944 79.9059C36.6432 79.9059 35.7982 79.9999 35.047 79.9999C29.601 79.9999 24.3428 79.154 19.4602 77.5563C8.47427 73.9848 -0.821491 66.748 -6.92477 57.2555C-8.52101 54.8119 -9.83557 52.2743 -11.0562 49.5488C-13.5914 43.6277 -14.9999 36.9548 -14.9999 29.9999C-14.9999 2.36839 7.34751 -20 34.9531 -20C62.5587 -20 85 2.36839 85 29.9999Z" fill="#D4F9FF"/>
<path d="M58.9496 64.8177C51.963 69.2621 43.6895 71.9831 34.9562 72.3459C34.2208 72.3459 33.3935 72.4366 32.658 72.4366C27.3262 72.4366 22.1782 71.6203 17.3979 70.0784C6.64226 66.541 -2.45867 59.5569 -8.43403 50.396C-9.99681 48.0378 -11.2838 45.5888 -12.4789 42.9584C0.574971 39.4211 14.64 39.6932 27.51 43.8655C30.5437 44.8632 33.4854 46.0423 36.3352 47.4028C36.7948 47.5842 37.2545 47.8564 37.7141 48.1285C38.1737 48.4006 38.6334 48.582 39.093 48.8541C46.6312 52.9357 53.4339 58.3778 58.9496 64.8177Z" fill="#A0DE9D"/>
<path d="M61.9747 40.3308C57.8839 40.9883 53.9392 42.5224 50.0675 44.1295C45.8306 45.8096 41.8858 47.855 37.9411 50.1196C39.4752 46.5401 40.4248 42.7415 41.5206 39.0159C42.3241 36.24 43.2738 33.5372 44.6618 31.0534C45.1731 30.1768 45.6845 29.3002 46.3419 28.4236C47.4377 27.0357 48.8987 25.6477 50.6519 25.7938C52.0399 25.8669 53.2087 26.8896 54.2314 27.9123C54.3044 27.9853 54.3775 28.0584 54.3775 28.1314C57.6647 31.5648 60.2945 35.8017 61.9747 40.3308Z" fill="#98B799"/>
<path d="M73.2973 30.8338C73.2242 32.8061 73.0051 34.7785 72.5668 36.6778C72.4937 37.043 72.4207 37.3352 72.3476 37.6274C67.088 39.0154 61.8284 40.4764 56.5687 41.8644C56.7148 41.8644 56.7879 41.7183 56.8609 41.5722C57.2262 40.8417 57.2992 38.9424 57.3723 38.2849C57.3723 38.2118 57.3723 38.2118 57.3723 38.1388C57.5914 36.6047 57.9567 34.9976 58.5411 33.3905C58.8333 32.5139 59.1985 31.5643 59.6368 30.7607C59.7829 30.3955 60.0021 30.0302 60.2212 29.6649C60.6595 28.8614 61.1709 28.1309 61.6823 27.4004C63.4355 25.2089 65.9192 24.8436 68.2568 26.0855C68.9873 26.4507 69.7178 26.9621 70.3753 27.5465C71.471 28.5692 72.4207 29.6649 73.2973 30.8338Z" fill="#98B799"/>
<path d="M84.1597 34.6607C84.0668 35.1108 83.974 35.4708 83.8812 35.8309C81.0035 48.3429 73.1132 59.0547 62.2523 65.7158C55.1974 70.1265 46.8429 72.8269 38.0243 73.187C37.2817 73.187 36.4462 73.277 35.7036 73.277C30.3196 73.277 25.1212 72.4669 20.2942 70.9366C22.0579 67.6061 24.1001 64.3655 26.5136 61.3951C30.2268 56.6243 34.6825 52.3036 39.5095 48.613C40.2521 48.0729 40.9948 47.5328 41.7374 46.9927C43.1298 46.0025 44.5222 45.1024 46.0075 44.2923C51.8556 40.8717 58.2607 38.3513 64.8515 36.731C66.2439 36.371 67.7291 36.1009 69.2144 35.8309C74.0414 34.9307 79.0541 34.4807 84.1597 34.6607Z" fill="#82C67D"/>
<path d="M51.3866 70.7443C47.1299 72.1918 42.5956 73.006 37.9687 73.187C37.2284 73.187 36.3956 73.2774 35.6553 73.2774C30.2882 73.2774 25.1061 72.4632 20.2942 70.9253C22.0524 67.578 24.1807 64.3211 26.4942 61.3357C30.0106 56.7219 34.1747 52.5603 38.8016 48.9416C39.3568 48.8512 40.0045 48.9416 40.4672 49.213C41.0225 49.5749 41.3001 50.2987 41.115 51.0224C40.9299 51.6557 40.4672 52.108 40.0971 52.5603C38.709 54.0078 37.6911 55.7267 36.9508 57.5361C36.6732 58.1693 36.4881 58.9836 36.8583 59.5264C37.321 60.1596 38.1538 60.2501 38.8941 60.1596C40.1896 59.9787 41.3926 59.5264 42.6881 59.255C43.9836 58.9835 45.3717 58.8931 46.4821 59.5264C47.0374 59.7978 47.5 60.2501 47.5926 60.8834C47.8702 61.788 47.2224 62.7832 46.5747 63.4165C45.8344 64.0497 45.0015 64.5925 44.4463 65.3163C43.8911 66.04 43.6135 67.2161 44.3538 67.9398C44.7239 68.3017 45.2792 68.4827 45.8344 68.6636C47.5 69.1159 49.3508 69.3873 50.8314 70.292C50.9239 70.3825 51.2015 70.4729 51.3866 70.7443Z" fill="white"/>
<path d="M54.5608 44.7436C54.2809 45.0313 54.0009 45.319 53.9076 45.7985C53.9076 46.6616 54.9341 46.9493 55.7739 47.0452C56.7071 47.1411 57.5469 47.237 58.48 47.3329C58.76 47.3329 59.1332 47.4288 59.3199 47.6206C59.8798 48.0042 59.5998 48.8673 59.4132 49.5386C58.6667 51.4566 57.9201 53.2787 57.1736 55.1967C56.7071 56.5393 56.2405 58.1696 57.0803 59.1286C58.1068 60.2794 59.7865 59.7999 61.1862 59.2245C63.4258 58.3614 65.6653 57.4024 67.9982 56.5393C70.0511 55.7721 72.1041 54.909 73.9704 53.6623C75.8367 52.4156 77.423 50.6894 78.1696 48.5796C78.2629 48.2919 78.3562 47.9083 78.1696 47.6206C78.0762 47.4288 77.8896 47.3329 77.703 47.237C76.8631 46.8534 75.93 46.8534 74.9968 46.7575C74.0637 46.5657 73.1305 46.1821 72.8506 45.2231C72.5706 44.2641 73.3172 43.3051 73.9704 42.6338C74.7169 41.9625 75.4634 41.2912 75.6501 40.3322C75.93 39.0856 74.9035 37.8389 73.7837 37.4553C72.1041 36.784 70.3311 37.3594 68.6514 37.6471C66.8784 37.9348 65.1987 38.4143 63.5191 39.0856C60.1597 40.3323 57.1736 42.2502 54.5608 44.7436Z" fill="white"/>
<path d="M49.7373 55.7169C49.6536 56.182 49.7373 56.7401 49.9884 57.0192C50.4069 57.4842 51.0764 57.2982 51.5786 57.1122C52.5829 56.7401 57.5209 53.7635 54.759 52.4613C52.9177 51.6241 50.0721 53.6705 49.7373 55.7169Z" fill="white"/>
<path d="M23.9401 36.149C23.9401 33.4102 25.4148 30.8119 27.3811 28.7754C29.3475 26.8091 31.7351 25.3343 34.1228 23.9298C30.1199 24.6321 26.398 26.7388 24.0806 30.0394C23.3081 25.2641 24.9935 20.0674 28.5047 16.6966C25.9064 17.1882 23.7294 19.1545 23.0974 21.7529C21.412 18.5225 18.3923 15.9944 14.9513 15.0112C16.4962 16.2051 18.0412 17.3989 19.3052 18.8736C20.5693 20.3483 21.6227 22.104 21.9036 24.0001C22.1143 25.545 21.9036 27.09 21.6929 28.6349C21.2716 31.3035 20.9204 33.8316 20.4991 36.5704C18.7434 34.1125 16.7771 31.795 14.6002 29.7585C13.6872 28.9158 12.6339 28.0029 11.3698 28.1433C12.985 28.9158 14.249 30.1799 15.3024 31.6546C16.2856 33.0591 17.058 34.6041 17.7603 36.149C15.3726 35.9383 12.9148 35.6574 10.5271 35.4468C11.7912 36.0086 13.1254 36.5001 14.4597 36.8513C16.3558 37.3428 18.1816 37.3428 19.235 39.1687C20.4991 41.3457 20.5693 44.1547 20.2884 46.6126C20.1479 47.8064 19.9373 49.0002 19.7968 50.194C19.7266 50.9665 19.3052 53.8458 18.4625 54.1267C17.7603 54.3373 17.3389 55.7418 17.9007 56.3036C18.3923 56.7952 19.0946 56.725 19.7266 56.725C22.6761 56.6548 25.6255 57.2166 28.3643 58.2699C25.2744 53.4946 23.8699 47.7362 24.2912 42.1182C24.4317 40.4327 24.7828 38.6771 25.9766 37.4833C26.9598 36.5001 28.3643 36.0086 29.7688 35.6574C31.1031 35.2361 32.4374 34.885 33.7716 34.4636C30.2604 33.2698 26.8193 34.0423 23.9401 36.149Z" fill="#5B3F18"/>
<path d="M29.5379 69.8194C28.8115 69.8194 27.9943 69.9161 27.2679 69.9161C22.0016 69.9161 16.9168 69.0456 12.1953 67.4014C1.57181 63.6292 -7.41728 56.1817 -13.3192 46.4129C-4.78411 46.1227 3.93258 48.2506 11.5597 52.5063C13.9205 53.8604 16.0996 55.3112 18.2788 57.0522C22.6372 60.6309 26.4507 64.8866 29.5379 69.8194Z" fill="#7CAD6C"/>
<path d="M46.974 11.6503C49.3786 11.6503 51.3279 9.70097 51.3279 7.29634C51.3279 4.89172 49.3786 2.94238 46.974 2.94238C44.5693 2.94238 42.62 4.89172 42.62 7.29634C42.62 9.70097 44.5693 11.6503 46.974 11.6503Z" fill="white"/>
<path d="M6.39509 54.3237C6.66324 54.5779 6.84201 54.8322 6.84201 55.1711C6.93139 55.849 6.12695 56.2726 5.41189 56.1879C4.69683 56.1032 4.16053 55.7642 3.53485 55.51C2.99856 55.3406 2.37288 55.1711 1.7472 55.2558C1.65782 55.2558 1.47905 55.2558 1.38967 55.3406C0.853375 55.5948 1.47905 56.3574 1.38967 56.8658C1.30029 57.2047 0.942757 57.3742 0.585226 57.2895C0.227696 57.2895 -0.0404506 57.12 -0.397981 56.9505C-1.11304 56.5269 -1.8281 56.1879 -2.54316 55.7642C-4.59896 54.6627 -6.83353 53.3069 -7.36982 51.1038C-7.4592 50.8496 -7.4592 50.5954 -7.36982 50.3412C-7.19106 49.8328 -6.476 49.748 -5.9397 49.748C-4.68834 49.8328 -3.61575 50.1717 -2.3644 50.4259C-1.38119 50.5954 -0.308599 50.5954 0.674609 50.8496C2.81979 51.5275 4.87559 52.7138 6.39509 54.3237Z" fill="white"/>
<path d="M16.3637 51.9764C16.64 52.458 16.64 53.1323 17.1007 53.5176C17.3771 53.8066 17.6535 53.9029 18.022 54.0956C19.0354 54.7699 19.1275 56.2148 19.5882 57.2744C19.8646 57.9486 20.4173 58.5266 20.6937 59.1046C21.0623 59.7789 21.2465 60.5495 21.0623 61.2238C20.9701 61.3201 20.9701 61.5127 20.7859 61.5127C20.6937 61.5127 20.5095 61.5127 20.4173 61.5127C18.9433 60.9348 17.9299 59.5862 16.64 58.7193C15.6266 58.045 14.3368 57.6597 13.2313 57.0817C11.4808 56.2148 9.9146 55.0588 8.3484 53.9029C7.97989 53.6139 7.61137 53.3249 7.7035 52.8433C7.79563 52.2654 8.53266 52.0727 9.17757 52.169C10.8359 52.5543 11.2965 52.0727 12.5864 51.2058C13.8762 50.2425 15.6266 50.3388 16.3637 51.9764Z" fill="white"/>
<path d="M11.7912 34.5344C12.2828 34.8153 12.7744 35.026 13.2659 35.0962C13.4766 35.1664 13.8277 35.2366 13.8277 35.5175C13.8277 35.658 13.7575 35.7282 13.7575 35.8687C13.7575 36.1496 14.0384 36.2198 14.3193 36.29C14.8811 36.3602 15.3727 36.5007 15.9345 36.5709C16.7772 36.7114 17.6199 36.922 18.3924 36.8518C18.5328 36.8518 18.7435 36.8518 18.8839 36.7114C19.2351 36.5007 19.2351 35.9389 19.0244 35.5878C18.4626 34.8153 16.7772 34.113 15.8643 33.8321C14.53 33.3405 12.9148 33.481 11.7912 34.5344Z" fill="white"/>
<path d="M18.7435 34.3235C19.235 35.4471 19.9373 36.6409 21.1311 36.992C21.3418 36.5707 21.412 36.0791 21.4822 35.6577C21.6227 34.8853 21.6929 34.1128 21.8334 33.2701C21.9036 33.0594 21.9036 32.7785 21.8334 32.5678C21.7631 32.3572 21.6227 32.0763 21.412 32.0763C21.2716 32.0763 21.1311 32.0763 20.9907 32.1465C20.6395 32.2869 20.3586 32.5678 20.2182 32.919C20.148 33.0594 20.148 33.2701 19.9373 33.3403C19.8671 33.3403 19.7968 33.3403 19.7266 33.3403C19.3053 33.2701 19.0946 32.8487 18.8839 32.4976C18.603 32.0763 17.5496 30.8824 17.6199 32.0763C17.6199 32.3572 18.0412 32.7785 18.1817 32.9892C18.3923 33.3403 18.5328 33.8319 18.7435 34.3235Z" fill="white"/>
<path d="M27.5216 25.2645C27.8727 25.1241 28.4345 24.9836 28.6452 25.3348C28.7154 25.405 28.7857 25.5454 28.8559 25.5454C28.9963 25.5454 29.0666 25.5454 29.1368 25.4752C29.6284 25.1943 30.1199 24.8432 30.6817 24.7729C30.752 24.7729 30.8924 24.7729 30.9626 24.7729C31.1733 24.9134 31.2435 25.2645 31.0329 25.4752C30.8222 25.6859 30.6115 25.7561 30.4008 25.8966C29.2772 26.3179 28.2238 26.7393 27.3109 27.5117C26.8896 27.9331 26.4682 28.4247 25.9766 28.7056C25.4148 28.9865 24.6424 28.846 24.4317 28.2842C24.2912 27.8629 24.5019 27.3713 24.853 27.0904C25.766 26.1072 26.3278 25.7561 27.5216 25.2645Z" fill="white"/>
<path d="M24.7125 34.6046C25.2743 34.1832 25.9064 33.9726 26.6086 33.9023C26.6788 33.9023 26.7491 33.9023 26.8895 33.9726C27.03 34.0428 27.1002 34.2535 27.03 34.4641C26.9597 34.6046 26.8193 34.745 26.6788 34.8855C25.8361 35.5877 24.9934 36.2198 24.0103 36.7113C23.7294 36.8518 23.4485 36.9923 23.1676 36.8518C23.0974 36.8518 23.0271 36.7816 23.0271 36.7816C22.9569 36.7114 22.9569 36.6411 22.9569 36.5709C22.9569 36.0793 23.1676 35.5877 23.5187 35.2366C23.8698 34.9557 24.4316 34.745 24.5721 34.2535" fill="white"/>
<path d="M18.6733 15.433C18.2519 15.1521 17.8306 14.8712 17.339 14.8009C16.8474 14.7307 16.2856 14.8712 16.0047 15.2925C16.707 16.1352 17.8306 16.4161 18.603 17.0481C19.2351 17.5397 19.7267 18.3122 20.148 18.9442C20.8503 19.9976 21.4823 21.1212 22.1845 22.1746C22.3952 22.5257 22.8166 23.0173 23.2379 22.8066C23.5188 22.6662 23.6593 22.315 23.6593 21.9639C23.8699 20.8403 24.0806 19.5762 24.9935 18.8038C25.4149 18.4526 25.9065 18.242 26.1171 17.7504C26.2576 17.3993 26.2576 17.0481 26.2576 16.6268C26.2576 16.4863 26.2576 16.2757 26.1171 16.2054C26.0469 16.1352 25.9065 16.1352 25.766 16.2054C24.502 16.4863 23.589 18.6633 22.1143 18.3122C21.5525 18.1717 21.2014 17.5397 20.8503 17.1184C20.2885 16.4863 19.4457 15.9948 18.6733 15.433Z" fill="white"/>
<path d="M52.2078 28.5388C51.4496 29.4049 52.3594 31.1371 51.4496 31.9245C50.843 32.3969 49.8574 31.8457 49.7057 31.1371C49.5541 30.6647 49.6299 30.1135 49.4024 29.7199C49.0992 29.1687 48.2651 29.1687 47.7344 29.4837C47.2037 29.7986 46.8246 30.271 46.2938 30.6647C45.7631 31.1371 44.8533 31.4521 44.3225 31.0584C44.8533 30.1135 45.384 29.1687 46.0664 28.2239C47.2037 26.7279 48.7201 25.2319 50.5397 25.3894C51.9803 25.4681 53.1934 26.5704 54.2549 27.6727C54.3307 27.7515 54.4065 27.8302 54.4065 27.9089C53.7242 28.1451 52.7385 27.9089 52.2078 28.5388Z" fill="white"/>
<path d="M70.3729 27.5065C70.2998 27.5065 70.2268 27.5065 70.1537 27.5065C69.6422 27.5065 69.0576 27.5065 68.5461 27.5065C68.3269 27.5065 68.1077 27.5065 67.9615 27.6453C67.5962 27.9227 67.9615 28.547 67.7423 28.8939C67.5962 29.102 67.3039 29.1713 67.0116 29.102C66.7924 29.0326 66.5001 28.8939 66.3539 28.7551C65.7693 28.3389 65.0386 27.9227 64.381 28.1308C63.1387 28.4777 62.7734 30.3506 61.5311 30.4199C60.9466 30.4199 60.5081 30.0037 60.2889 29.4488C60.7273 28.6858 61.2388 27.9921 61.7503 27.2984C63.5041 25.2174 65.9886 24.8706 68.3269 26.0498C68.9845 26.466 69.6422 26.9516 70.3729 27.5065Z" fill="white"/>
</g>
</svg>
