<svg width="69" height="61" viewBox="0 0 69 61" fill="none" xmlns="http://www.w3.org/2000/svg">
<mask id="mask0_549_11235" style="mask-type:alpha" maskUnits="userSpaceOnUse" x="0" y="0" width="69" height="61">
<rect width="69" height="61" rx="10" fill="#2B92D5"/>
</mask>
<g mask="url(#mask0_549_11235)">
<path d="M88 30C88 30.782 88 31.4662 87.9024 32.2481C87.8047 34.8872 87.5117 37.5263 87.0235 40.0677C86.9258 40.5564 86.8282 40.9474 86.7305 41.3383C83.7033 54.9248 75.4028 66.5564 63.9775 73.7895C56.5559 78.5789 47.8648 81.5113 38.4901 81.9023C37.7089 81.9023 36.83 82 36.0488 82C30.385 82 24.9164 81.1203 19.8385 79.4586C8.41315 75.7444 -1.25446 68.218 -7.60188 58.3459C-9.26197 55.8045 -10.6291 53.1654 -11.8986 50.3308C-14.5352 44.1729 -16 37.2331 -16 30C-16 1.26316 7.24132 -22 35.9512 -22C64.661 -22 88 1.26316 88 30Z" fill="#B2F5FE"/>
<path d="M53.6198 66.9058C47.3987 70.8535 40.1133 73.2704 32.255 73.5926C31.6002 73.5926 30.8634 73.6732 30.2086 73.6732C25.4608 73.6732 20.8768 72.9481 16.6202 71.5785C7.04291 68.4365 -1.06099 62.2331 -6.38173 54.096C-7.77331 52.0014 -8.91931 49.8261 -9.98346 47.4898C1.64031 44.3477 14.1645 44.5894 25.6246 48.2954C28.3259 49.1816 30.9453 50.229 33.4829 51.4374C33.8922 51.5985 34.3015 51.8402 34.7108 52.0819C35.12 52.3236 35.5293 52.4848 35.9386 52.7264C42.6509 56.3519 48.7084 61.1857 53.6198 66.9058Z" fill="#E0F0FC"/>
<path d="M74.2782 34.3546C74.1911 36.7057 73.9299 39.0568 73.4945 41.3208C73.4074 41.7562 73.3203 42.1045 73.2332 42.4529C66.9636 44.1073 60.694 45.8489 54.4243 47.5034C54.5985 47.5034 54.6856 47.3292 54.7727 47.1551C55.2081 46.2843 55.2951 44.0203 55.3822 43.2366C55.3822 43.1495 55.3822 43.1495 55.3822 43.0624C55.6434 41.2338 56.0788 39.318 56.7755 37.4023C57.1238 36.3574 57.5592 35.2254 58.0816 34.2675C58.7783 32.7872 59.562 31.481 60.5198 30.2619C62.6097 27.6496 65.5704 27.2142 68.3569 28.6945C70.6209 30.0877 72.6237 32.0905 74.2782 34.3546Z" fill="#6DAAAB"/>
<path d="M64.7934 48.7848C62.5702 42.4628 58.9937 36.5422 54.4506 31.6251C53.194 30.2202 51.6474 28.8153 49.7142 28.7149C47.3943 28.6146 45.4611 30.4209 44.0111 32.3275C40.918 36.6425 39.0814 41.7603 37.6315 46.8782C36.1816 52.0963 35.0216 57.3145 32.9917 62.2316C38.3081 59.2211 43.5278 56.4113 49.0375 54.0029C54.1606 51.8956 59.3803 49.7883 64.7934 48.7848Z" fill="#88C2C4"/>
<path d="M59.6364 37.3797C59.6364 37.7004 59.538 38.021 59.538 38.3417C59.243 39.5175 58.1611 40.4795 57.0792 40.1588C55.899 39.8381 55.2106 38.021 54.0303 38.2348C53.2435 38.3417 52.8501 39.3037 52.6534 40.1588C52.5551 41.0139 52.4567 41.9759 51.965 42.6173C51.3749 43.3655 50.3913 43.4724 49.6045 43.1517C48.8177 42.831 48.2276 41.9759 48.0309 41.0139C47.7359 40.0519 47.7359 38.8762 46.9491 38.4486C45.9655 37.8073 44.7853 38.983 44.1952 40.1588C43.6051 41.2277 43.015 42.6173 41.8348 42.6173C41.1463 42.6173 40.4579 42.0828 40.1628 41.3346C39.9661 40.907 39.8678 40.4795 39.8678 39.945C40.9496 36.9522 42.3266 34.173 44.0969 31.7146C45.4738 29.6837 47.5392 27.6528 49.8996 27.8666C51.7683 27.9735 53.3419 29.4699 54.7188 30.9664C56.4891 32.8904 58.1611 35.135 59.6364 37.3797Z" fill="#EDF9F9"/>
<path d="M72.5289 31.5561C72.443 31.6422 72.357 31.8143 72.2711 31.9003C71.7554 32.5887 70.724 32.8468 69.9504 32.4166C69.5207 32.1585 69.1769 31.7282 68.7471 31.5561C68.0595 31.298 67.2 31.7282 67.1141 32.4166C66.9422 33.0189 67.286 33.7072 67.1141 34.3096C66.9422 34.9119 66.2546 35.17 65.6529 35.084C65.0512 34.9979 64.5355 34.6537 64.1917 34.1375C63.676 33.5352 63.3322 32.5887 62.4727 32.5026C61.6992 32.4166 61.0975 33.0189 60.6678 33.7073C60.324 34.3956 59.9802 35.084 59.2926 35.5142C58.605 35.9444 57.5736 35.6002 57.0579 34.9119C57.2298 34.3956 57.4876 33.8793 57.7455 33.4491C58.4331 31.9864 59.2066 30.6957 60.1521 29.4911C62.2149 26.9098 65.1372 26.4795 67.8876 27.9423C69.6926 28.8027 71.2397 30.0074 72.5289 31.5561Z" fill="#EDF9F9"/>
<path d="M83.7025 40.7811C83.6163 41.2114 83.5301 41.5556 83.4439 41.8999C80.7717 53.8627 73.4446 64.1043 63.3592 70.473C56.808 74.6901 49.1362 77.272 40.8609 77.6163C40.1713 77.6163 39.3955 77.7023 38.7059 77.7023C33.7063 77.7023 28.8791 76.9278 24.3967 75.4647C26.0345 72.2803 28.0171 69.182 30.1721 66.3419C33.6201 61.7806 37.7577 57.6495 42.2402 54.1209C42.9298 53.6045 43.6194 53.0881 44.309 52.5718C45.602 51.6251 46.895 50.7644 48.2742 49.9899C53.7048 46.7194 59.6526 44.3097 65.7728 42.7605C67.0658 42.4163 68.445 42.1581 69.8242 41.8999C74.3067 41.0392 78.9615 40.6089 83.7025 40.7811Z" fill="white"/>
<path d="M67.3719 68.3707C66.3278 69.2478 65.1968 70.0372 64.0657 70.8265C63.8917 70.8265 63.7177 70.7388 63.4567 70.7388C62.5866 70.6511 61.7166 70.7388 60.9335 70.5634C60.1505 70.388 59.2804 69.774 59.1064 68.897C58.9324 68.0199 59.5415 67.1428 59.2804 66.2657C59.0194 65.3886 57.9754 64.9501 57.1053 65.1255C56.2353 65.3009 55.4522 65.7395 54.6692 66.178C53.1031 67.0551 51.363 67.669 49.6229 68.1076C48.1438 68.4584 46.3167 68.5461 45.2726 67.4059C44.9246 66.9674 44.6636 66.3534 44.5766 65.7395C44.3156 64.4238 44.6636 63.0205 45.3596 61.8803C45.7077 61.2663 46.2297 60.6524 46.2297 59.9507C46.2297 58.8982 45.0116 58.2843 43.9676 58.2843C42.9235 58.2843 41.9664 58.7228 40.9224 58.8105C40.4004 58.8105 39.7913 58.7228 39.3563 58.2843C39.0953 57.9334 39.0083 57.5826 39.0083 57.144C39.4433 56.7932 39.8783 56.4424 40.2263 56.0038C40.2263 56.0915 40.2263 56.1793 40.3133 56.3547C40.4004 56.6178 40.6614 56.7932 40.8354 56.8809C41.9664 57.4949 43.3585 57.4072 44.6636 56.9686C45.8817 56.5301 47.0997 55.9161 48.3178 55.5653C48.8398 55.3899 49.4489 55.3022 49.9709 55.3899C50.4929 55.4776 51.015 55.9161 51.189 56.4424C51.276 56.8809 51.189 57.3195 50.928 57.6703C50.3189 58.7228 49.2749 59.4245 48.4048 60.3015C47.5348 61.0909 46.6647 62.2311 46.7517 63.459C46.8387 64.8624 48.2308 65.8272 49.5359 66.0026C50.928 66.178 52.233 65.564 53.3641 64.8624C54.4952 64.1607 55.6262 63.2836 56.8443 62.6697C57.6273 62.2311 58.4974 61.968 59.4545 62.0557C60.3245 62.1434 61.2816 62.6697 61.6296 63.459C62.3256 65.0378 61.1076 67.1428 62.2386 68.3707C62.7606 68.9847 63.6307 69.0724 64.3267 68.9847C65.1098 68.897 65.8058 68.6338 66.5889 68.5461C66.8499 68.3707 67.1109 68.3707 67.3719 68.3707Z" fill="#E0F0FC"/>
<path d="M79.405 53.0583C79.1481 53.5694 78.8056 54.0804 78.5488 54.5914C78.2919 54.5914 78.035 54.6766 77.7782 54.7618C77.0076 55.0173 76.237 55.4431 75.552 55.7838C74.4389 56.2949 73.2403 56.7207 71.9559 56.9762C71.5278 57.0614 71.0997 57.1466 70.6716 56.9762C69.901 56.6355 69.7298 55.6135 69.9866 54.8469C70.2435 54.0804 70.8429 53.4842 71.1853 52.8028C71.6134 52.1215 71.8703 51.1846 71.4422 50.5032C71.0997 49.907 70.2435 49.6515 69.5585 49.7367C68.8736 49.8218 68.1886 50.1625 67.5893 50.5032C66.6474 51.0142 65.62 51.6104 64.6781 52.1215C63.9932 52.5473 63.0513 52.888 62.452 52.377C61.8526 51.866 62.0239 50.9291 62.2807 50.2477C62.5376 49.4812 62.8801 48.7146 62.452 48.0332C62.1095 47.437 61.2533 47.2667 60.5683 47.3519C59.8834 47.437 59.1984 47.6926 58.5134 47.6074C57.8284 47.5222 57.0579 47.0964 57.0579 46.3298C57.0579 46.1595 57.1435 45.9891 57.1435 45.8188C57.486 45.6485 57.9141 45.5633 58.2566 45.3929C58.3422 45.5633 58.5134 45.6485 58.599 45.7336C59.284 46.2447 60.2258 46.0743 60.9964 45.8188C61.767 45.5633 62.5376 45.1374 63.3938 45.0523C64.25 44.9671 65.1919 45.3929 65.3631 46.1595C65.5343 46.8408 65.1062 47.5222 64.8494 48.2036C64.5925 48.885 64.7638 49.907 65.4487 49.9922C65.7912 50.0774 66.2193 49.8218 66.4762 49.6515C67.418 49.0553 68.3598 48.5443 69.3873 48.2036C70.5004 47.7777 71.9559 47.6074 72.6409 48.5443C73.2402 49.3108 72.9834 50.3329 72.6409 51.1846C72.2984 52.0363 71.7847 52.888 71.7847 53.8249C71.7847 53.9952 71.7847 54.0804 71.8703 54.1656C71.9559 54.2507 72.0416 54.3359 72.1272 54.3359C73.4971 54.7618 74.7814 53.4842 76.0657 52.9732C77.2644 52.6325 78.3775 52.6325 79.405 53.0583Z" fill="#E0F0FC"/>
<path d="M22.8786 37.4889C22.8786 34.7191 24.3701 32.0913 26.3586 30.0317C28.3472 28.0432 30.7619 26.5518 33.1765 25.1314C29.1284 25.8416 25.3643 27.9722 23.0207 31.3101C22.2395 26.4807 23.9439 21.2253 27.4949 17.8163C24.8672 18.3134 22.6656 20.302 22.0264 22.9297C20.3219 19.6628 17.2681 17.1061 13.7881 16.1118C15.3505 17.3192 16.913 18.5265 18.1913 20.0179C19.4697 21.5093 20.535 23.2848 20.8191 25.2024C21.0321 26.7648 20.8191 28.3273 20.606 29.8897C20.1799 32.5885 19.8248 35.1452 19.3987 37.915C17.6232 35.4293 15.6346 33.0856 13.433 31.026C12.5097 30.1738 11.4444 29.2505 10.1661 29.3926C11.7995 30.1738 13.0779 31.4521 14.1432 32.9436C15.1375 34.364 15.9187 35.9264 16.6289 37.4889C14.2142 37.2758 11.7285 36.9917 9.31381 36.7787C10.5922 37.3468 11.9416 37.844 13.2909 38.1991C15.2085 38.6962 17.055 38.6962 18.1203 40.5427C19.3987 42.7443 19.4697 45.5851 19.1856 48.0708C19.0436 49.2782 18.8305 50.4855 18.6885 51.6929C18.6174 52.4741 18.1913 55.3859 17.3391 55.67C16.6289 55.883 16.2028 57.3034 16.7709 57.8716C17.2681 58.3687 17.9783 58.2977 18.6174 58.2977C21.6003 58.2267 24.5831 58.7949 27.3529 59.8602C24.228 55.0308 22.8076 49.2072 23.2337 43.5256C23.3758 41.8211 23.7309 40.0456 24.9382 38.8382C25.9325 37.844 27.3529 37.3468 28.7733 36.9917C30.1227 36.5656 31.4721 36.2105 32.8214 35.7844C29.2704 34.577 25.7905 35.3583 22.8786 37.4889Z" fill="#5B3F18"/>
<path d="M32.1322 73.5916C31.4913 73.5916 30.7701 73.6729 30.1292 73.6729C25.482 73.6729 20.9951 72.9415 16.8287 71.5601C7.45427 68.3909 -0.477931 62.1337 -5.68594 53.9263C1.92577 53.6825 9.53748 55.4703 16.1877 59.0458C18.2709 60.1834 20.274 61.4024 22.1168 62.8651C26.0429 65.8718 29.408 69.4473 32.1322 73.5916Z" fill="white"/>
<path d="M43.489 4.25095C43.489 4.67707 43.1339 5.03217 42.7077 5.03217C42.2816 5.03217 41.9265 4.67707 41.9265 4.25095C41.9265 3.82483 42.2816 3.46973 42.7077 3.46973C43.1339 3.46973 43.489 3.82483 43.489 4.25095Z" fill="white"/>
<path d="M27.2964 6.95065C27.2964 7.37678 26.9413 7.73188 26.5152 7.73188C26.0891 7.73188 25.734 7.37678 25.734 6.95065C25.734 6.52453 26.0891 6.16943 26.5152 6.16943C26.9413 6.16943 27.2964 6.52453 27.2964 6.95065Z" fill="white"/>
<path d="M53.9998 3.39936C54.4313 3.39936 54.7811 3.04959 54.7811 2.61813C54.7811 2.18668 54.4313 1.83691 53.9998 1.83691C53.5684 1.83691 53.2186 2.18668 53.2186 2.61813C53.2186 3.04959 53.5684 3.39936 53.9998 3.39936Z" fill="white"/>
<path d="M35.4641 13.7675C35.8955 13.7675 36.2453 13.4178 36.2453 12.9863C36.2453 12.5548 35.8955 12.2051 35.4641 12.2051C35.0326 12.2051 34.6828 12.5548 34.6828 12.9863C34.6828 13.4178 35.0326 13.7675 35.4641 13.7675Z" fill="white"/>
<path d="M50.9463 16.1113C51.3777 16.1113 51.7275 15.7615 51.7275 15.3301C51.7275 14.8986 51.3777 14.5488 50.9463 14.5488C50.5148 14.5488 50.165 14.8986 50.165 15.3301C50.165 15.7615 50.5148 16.1113 50.9463 16.1113Z" fill="white"/>
<path d="M38.8727 24.9179C39.3041 24.9179 39.6539 24.5681 39.6539 24.1367C39.6539 23.7052 39.3041 23.3555 38.8727 23.3555C38.4412 23.3555 38.0915 23.7052 38.0915 24.1367C38.0915 24.5681 38.4412 24.9179 38.8727 24.9179Z" fill="white"/>
<path d="M57.906 23.5693C58.3375 23.5693 58.6872 23.2195 58.6872 22.7881C58.6872 22.3566 58.3375 22.0068 57.906 22.0068C57.4745 22.0068 57.1248 22.3566 57.1248 22.7881C57.1248 23.2195 57.4745 23.5693 57.906 23.5693Z" fill="white"/>
<path d="M63.0907 14.4785C63.0907 14.9046 62.7356 15.2597 62.3095 15.2597C61.8834 15.2597 61.5283 14.9046 61.5283 14.4785C61.5283 14.0524 61.8834 13.6973 62.3095 13.6973C62.7356 13.6973 63.0907 14.0524 63.0907 14.4785Z" fill="white"/>
<path d="M14.6548 9.0808C14.6548 9.50692 14.2997 9.86202 13.8736 9.86202C13.4475 9.86202 13.0924 9.50692 13.0924 9.0808C13.0924 8.65468 13.4475 8.29958 13.8736 8.29958C14.2997 8.22856 14.6548 8.58366 14.6548 9.0808Z" fill="white"/>
<path d="M39.6539 36.1396C40.0854 36.1396 40.4352 35.7898 40.4352 35.3584C40.4352 34.9269 40.0854 34.5771 39.6539 34.5771C39.2225 34.5771 38.8727 34.9269 38.8727 35.3584C38.8727 35.7898 39.2225 36.1396 39.6539 36.1396Z" fill="white"/>
<path d="M14.2287 23.2856C14.6601 23.2856 15.0099 22.9358 15.0099 22.5044C15.0099 22.0729 14.6601 21.7231 14.2287 21.7231C13.7972 21.7231 13.4474 22.0729 13.4474 22.5044C13.4474 22.9358 13.7972 23.2856 14.2287 23.2856Z" fill="white"/>
<path d="M5.63532 15.4018C6.06677 15.4018 6.41654 15.052 6.41654 14.6206C6.41654 14.1891 6.06677 13.8394 5.63532 13.8394C5.20386 13.8394 4.8541 14.1891 4.8541 14.6206C4.8541 15.052 5.20386 15.4018 5.63532 15.4018Z" fill="white"/>
<path d="M5.63532 27.8305C6.06677 27.8305 6.41654 27.4807 6.41654 27.0493C6.41654 26.6178 6.06677 26.2681 5.63532 26.2681C5.20386 26.2681 4.8541 26.6178 4.8541 27.0493C4.8541 27.4807 5.20386 27.8305 5.63532 27.8305Z" fill="white"/>
<path d="M3.85965 37.6313C3.85965 38.0574 3.50455 38.4125 3.07843 38.4125C2.65231 38.4125 2.29721 38.0574 2.29721 37.6313C2.29721 37.2052 2.65231 36.8501 3.07843 36.8501C3.50455 36.8501 3.85965 37.2052 3.85965 37.6313Z" fill="white"/>
<path d="M5.05286 33.5122C4.41368 33.6543 3.70348 33.8673 3.34838 34.4355C2.99328 35.0037 2.99328 35.8559 3.56144 36.211C4.1296 36.4951 4.76878 36.211 5.40796 36.069C6.04714 35.9269 6.89938 35.9979 6.9704 36.6371C7.04142 37.2763 6.33122 37.7734 6.47326 38.3416C6.6153 38.9098 7.46754 38.9098 7.89366 38.5547C8.31978 38.1996 8.53284 37.6314 8.88794 37.2053C9.17202 36.7081 9.74018 36.353 10.3083 36.4951C10.8055 36.7081 11.0896 37.4183 11.5867 37.5604C12.0838 37.6314 12.51 37.2053 13.0071 37.1343C14.1434 36.9212 15.1377 38.4126 16.203 37.9865C16.9842 37.7024 17.1263 36.5661 16.6291 35.8559C16.132 35.2167 15.2797 34.8616 14.4985 34.6486C12.794 34.0804 11.3736 33.8673 9.59814 33.8673C8.0357 33.8673 6.68632 33.2282 5.05286 33.5122Z" fill="white"/>
<path d="M10.1659 26.1967C9.31366 25.6285 8.17734 25.1314 7.3251 25.6285C6.97 25.7705 6.75694 26.1256 6.33082 26.1967C6.04674 26.2677 5.76265 26.1967 5.47857 26.1256C4.83939 26.0546 4.20021 26.4097 3.91613 26.9779C3.63205 27.546 3.91613 28.3273 4.48429 28.5403C4.91041 28.6824 5.40755 28.4693 5.83367 28.3983C6.2598 28.2562 6.82796 28.1852 7.18306 28.5403C7.6802 29.0375 7.3251 29.8187 7.53816 30.5289C7.75122 31.3101 8.88754 31.7362 9.52672 31.1681C9.66876 31.097 9.8108 30.955 9.95284 30.884C10.1659 30.813 10.379 30.813 10.521 30.884C11.0181 31.026 11.3732 31.5232 11.3732 32.0203C11.3732 32.2334 11.3022 32.4464 11.3732 32.6595C11.4443 33.0856 11.8704 33.2987 12.2255 33.5117C12.7936 33.7958 13.4328 34.0799 14.001 34.435C14.143 34.506 14.2851 34.577 14.4271 34.577C14.8532 34.577 15.1373 34.0089 15.6344 33.9378C15.9895 33.9378 16.2026 34.2219 16.4867 34.506C16.6997 34.7191 17.1969 34.9321 17.4099 34.648C17.481 34.577 17.481 34.435 17.481 34.2929C17.481 33.2276 16.0606 32.6595 15.5634 31.7362C15.2083 30.955 15.4924 29.8897 14.9242 29.2505C14.4981 28.6824 13.3618 28.1142 12.7936 27.8301C11.8704 27.1909 11.0892 26.8358 10.1659 26.1967Z" fill="white"/>
<path d="M20.6206 38.4119C20.8336 38.696 21.1177 38.9091 21.4018 38.838C21.4728 38.838 21.5438 38.838 21.6148 38.767C21.7569 38.696 21.7569 38.4829 21.7569 38.3409C21.7569 38.1988 21.6859 38.0568 21.6148 37.9148C21.5438 37.4886 21.6859 37.1335 21.8989 36.7784C22.112 36.4233 22.325 36.0682 22.4671 35.7131C22.6091 35.145 22.3961 34.0797 21.6859 33.9376C21.2597 33.8666 20.3365 34.6478 19.9104 34.9319C19.4132 35.216 19.1291 35.4291 19.2712 36.0682C19.4132 36.7074 20.1234 37.8437 20.6206 38.4119Z" fill="white"/>
<path d="M10.6629 15.1886C10.3789 15.6857 10.3078 16.3249 10.5919 16.68C11.018 17.1772 11.7993 17.0351 12.4384 17.0351C13.7168 17.0351 15.1372 17.8874 15.3503 19.1657C15.4213 19.8049 15.2792 20.5861 15.7054 21.0833C15.9184 21.2963 16.1315 21.4384 16.4156 21.5094C16.7707 21.6514 17.2678 21.7224 17.4098 21.3673C17.4809 21.1543 17.4098 20.9412 17.5519 20.7282C17.6939 20.4441 18.049 20.3731 18.3331 20.5151C18.6172 20.6571 18.7592 20.8702 18.9723 21.1543C19.5404 22.0065 20.1796 22.8588 20.7478 23.64C20.8188 23.782 20.9608 23.9241 21.0319 23.9951C21.529 24.3502 22.2392 23.853 22.3812 23.2849C22.4523 22.9298 22.4523 22.5747 22.3812 22.2196C22.3102 22.0065 22.2392 21.8645 22.2392 21.6514C22.2392 21.2963 22.5233 21.0122 22.7363 20.7282C22.8074 20.6571 22.9494 20.5151 23.0914 20.4441C23.5176 20.231 24.0147 20.6571 24.4408 20.9412C25.3641 21.5094 26.7135 21.2963 27.4237 20.5151C28.2049 19.7339 28.418 18.5265 28.2049 17.4612C28.1339 17.0351 27.9208 16.609 27.6367 16.2539C27.0686 15.6857 26.1453 15.6147 25.3641 15.9698C24.6539 16.2539 24.0857 16.8931 23.5886 17.5323C23.3045 17.9584 23.0204 18.4555 22.5943 18.7396C22.1682 19.0237 21.529 19.0947 21.1739 18.7396C20.9608 18.5265 20.8898 18.2425 20.8188 17.9584C20.3927 17.1772 19.1853 17.0351 18.6882 16.2539C18.4041 15.8988 18.3331 15.3306 17.978 15.0466C17.1968 14.3364 15.8474 15.1886 14.9241 14.7625C14.6401 14.6204 14.356 14.3364 14.0719 14.1233C12.8646 13.2711 11.3021 14.0523 10.6629 15.1886Z" fill="white"/>
<path d="M21.6002 30.5281C21.3872 31.2383 21.6712 32.0905 22.3104 32.3746C22.7365 32.5877 23.3047 32.5167 23.7308 32.4456C24.299 32.3746 24.9382 32.2326 25.5063 32.1616C25.8614 32.0905 26.1455 32.0195 26.4296 31.8065C26.7137 31.5224 26.7137 31.0963 26.6426 30.6701C26.5716 30.315 26.4296 29.8889 26.3586 29.5338C26.3586 28.7526 26.8557 28.0424 27.5659 27.6873C27.921 27.4742 28.3471 27.4032 28.7732 27.1902C29.3414 26.9061 29.6965 26.3379 30.2647 26.0538C30.6908 25.8408 31.1169 25.7698 31.6141 25.6277C32.0402 25.4857 32.5373 25.2726 32.7504 24.9175C32.9634 24.5624 32.8924 23.9232 32.4663 23.7102C32.3243 23.6392 32.1112 23.6392 31.9692 23.6392C31.1169 23.6392 30.1936 23.7102 29.4834 24.1363C29.0573 24.4204 28.6312 24.8465 28.2761 25.2016C27.4949 25.9828 26.6426 26.551 25.6484 27.0481C24.1569 27.7583 22.0263 28.8236 21.6002 30.5281Z" fill="white"/>
<path d="M22.1686 38.1992C22.1686 38.3413 22.1686 38.4833 22.2396 38.6253C22.3817 38.8384 22.5947 38.9094 22.8788 38.9094C23.9441 38.8384 24.4413 37.56 25.4355 37.0629C25.9327 36.7788 26.5008 36.7788 27.069 36.7788C27.7792 36.7788 28.4894 36.7078 29.1996 36.7078C29.6257 36.7078 30.0518 36.7078 30.4069 36.8498C30.62 36.9209 30.8331 37.1339 31.1171 37.2049C31.7563 37.347 32.3955 36.7788 32.5375 36.0686C32.6796 35.5005 32.5375 34.8613 32.1114 34.4352C31.5433 33.867 30.549 33.938 29.6967 34.0801C27.9212 34.3641 25.7906 34.3641 24.0862 34.9323C22.8788 35.2874 22.1686 36.9919 22.1686 38.1992Z" fill="white"/>
</g>
</svg>
