<svg width="69" height="61" viewBox="0 0 69 61" fill="none" xmlns="http://www.w3.org/2000/svg">
<mask id="mask0_637_475" style="mask-type:alpha" maskUnits="userSpaceOnUse" x="0" y="0" width="69" height="61">
<rect width="69" height="61" rx="10" fill="#2B92D5"/>
</mask>
<g mask="url(#mask0_637_475)">
<path d="M70.483 30.1019C70.483 30.6341 70.483 31.0997 70.4165 31.6319C70.35 33.4281 70.1504 35.2242 69.8178 36.9538C69.7513 37.2864 69.6848 37.5525 69.6182 37.8186C67.556 47.0654 61.9015 54.9817 54.1183 59.9044C49.0625 63.164 43.0754 65.1598 36.7557 65.4258C36.2235 65.4258 35.6248 65.4924 35.0926 65.4924C31.2342 65.4924 27.5089 64.8937 24.0497 63.7628C16.2664 61.2349 9.68063 56.1126 5.35661 49.3937C4.22571 47.6641 3.29438 45.868 2.42957 43.9388C0.633441 39.7478 -0.36441 35.0246 -0.36441 30.1019C-0.36441 10.544 15.4682 -5.28857 35.0261 -5.28857C54.5839 -5.28857 70.483 10.544 70.483 30.1019Z" fill="#39B8FF"/>
<path d="M78.8729 31.6271C78.8729 32.2832 78.8729 32.8572 78.7896 33.5133C78.7062 35.7274 78.4562 37.9416 78.0396 40.0737C77.9563 40.4838 77.8729 40.8118 77.7896 41.1398C75.2064 52.5386 68.1234 62.2973 58.3739 68.3657C52.0408 72.384 44.5412 74.8442 36.6249 75.1722C35.9583 75.1722 35.2083 75.2542 34.5417 75.2542C29.7086 75.2542 25.0421 74.5162 20.709 73.1221C10.9595 70.0059 2.70985 63.6914 -2.70655 55.4088C-4.12315 53.2767 -5.28976 51.0625 -6.37305 48.6843C-8.62294 43.518 -9.87288 37.6956 -9.87288 31.6271C-9.87288 7.5174 9.95951 -12 34.4583 -12C58.9572 -12 78.8729 7.5174 78.8729 31.6271Z" fill="#AAEBFF"/>
<path d="M54.2627 69.2386C48.1354 73.1828 40.8793 75.5976 33.2201 75.9196C32.5751 75.9196 31.8495 76.0001 31.2045 76.0001C26.5284 76.0001 22.0135 75.2757 17.8211 73.9073C8.38824 70.768 0.406559 64.5699 -4.83394 56.44C-6.20453 54.3471 -7.33325 52.1738 -8.38135 49.8394C3.06712 46.7001 15.4024 46.9416 26.6897 50.6444C29.3502 51.5298 31.9301 52.5762 34.4295 53.7837C34.8326 53.9446 35.2357 54.1861 35.6388 54.4276C36.0419 54.6691 36.445 54.8301 36.8482 55.0716C43.4592 58.6938 49.4253 63.5235 54.2627 69.2386Z" fill="#649754"/>
<path d="M60.488 44.1252C58.9579 39.9342 56.4965 36.0093 53.3699 32.7497C52.5051 31.8184 51.4408 30.887 50.1103 30.8205C48.5137 30.754 47.1833 31.9514 46.1854 33.2154C44.0567 36.0759 42.7927 39.4686 41.7949 42.8613C40.797 46.3205 39.9987 49.7797 38.6017 53.0393C42.2605 51.0436 45.8528 49.181 49.6446 47.5844C53.1704 46.1874 56.7626 44.7904 60.488 44.1252Z" fill="#83BDBF"/>
<path d="M70.799 35.4771C70.7325 37.2733 70.5329 39.0694 70.2003 40.799C70.1338 41.1316 70.0673 41.3977 70.0008 41.6638C65.2111 42.9278 60.4214 44.2582 55.6317 45.5222C55.7647 45.5222 55.8313 45.3891 55.8978 45.2561C56.2304 44.5908 56.2969 42.8612 56.3635 42.2625C56.3635 42.196 56.3635 42.196 56.3635 42.1295C56.563 40.7325 56.8956 39.269 57.4278 37.8055C57.6939 37.0072 58.0265 36.1424 58.4257 35.4106C58.9579 34.2797 59.5566 33.2819 60.2883 32.3505C61.8849 30.3548 64.1467 30.0222 66.2754 31.1531C68.0051 32.2175 69.5351 33.7475 70.799 35.4771Z" fill="#83BDBF"/>
<path d="M73.6525 40.9847C73.5712 41.3928 73.4899 41.7193 73.4086 42.0458C70.8885 53.3911 63.9782 63.104 54.4665 69.1439C48.2879 73.1433 40.9712 75.592 33.248 75.9184C32.5977 75.9184 31.866 76.0001 31.2156 76.0001C26.5004 76.0001 21.9478 75.2655 17.7203 73.8779C19.265 70.8579 21.0535 67.9196 23.1672 65.2261C26.4191 60.9002 30.3213 56.9824 34.5488 53.6359C35.1992 53.1462 35.8495 52.6565 36.4999 52.1668C37.7194 51.2689 38.9388 50.4527 40.2396 49.7181C45.3613 46.6165 50.9707 44.3312 56.7428 42.862C57.9623 42.5355 59.263 42.2906 60.5638 42.0458C64.7912 41.2296 69.1812 40.8214 73.6525 40.9847Z" fill="#7CAD6C"/>
<path d="M33.4295 62.6983C33.9617 62.1661 34.1613 61.3679 33.9617 60.7026C33.7621 59.9709 33.1634 59.4387 32.4982 59.2391C33.1634 58.9065 33.4295 58.0417 33.1634 57.3765C32.8973 56.7112 32.0325 56.3121 31.3673 56.5117C32.4317 56.3786 33.23 55.1147 32.8973 54.0503C32.6313 52.9859 31.4338 52.3207 30.3029 52.4537C29.2386 52.5868 28.3072 53.4516 27.9746 54.516C28.6398 53.4516 28.1742 51.855 27.0433 51.2563C25.9124 50.6576 24.3823 51.1898 23.8502 52.3207C24.5154 51.722 24.4489 50.5245 23.7171 49.9924C22.9854 49.4602 21.8545 49.7263 21.4553 50.5245C22.3201 49.8593 22.5197 48.5288 21.9875 47.5975C21.4553 46.6662 20.1248 46.267 19.127 46.7327C18.1291 47.1984 17.5304 48.3958 17.863 49.3936C17.4639 48.0632 15.6013 47.4645 14.5369 48.3293C13.4725 49.1941 13.539 51.1233 14.7364 51.855C20.7236 55.5138 27.3094 59.0395 33.4295 62.6983Z" fill="#1F6456"/>
<path d="M36.7557 65.4931C36.2235 65.4931 35.6248 65.5597 35.0926 65.5597C31.2342 65.5597 27.5089 64.961 24.0497 63.8301C16.2665 61.2356 9.68065 56.1133 5.35663 49.3945C11.6098 49.1949 17.9961 50.6584 23.584 53.5854C25.3137 54.5168 26.9102 55.5146 28.5068 56.712C31.6999 59.1734 34.4939 62.1004 36.7557 65.4931Z" fill="#649754"/>
<path d="M46.6011 17.5287C48.879 17.5287 50.7256 15.6821 50.7256 13.4042C50.7256 11.1264 48.879 9.27979 46.6011 9.27979C44.3232 9.27979 42.4767 11.1264 42.4767 13.4042C42.4767 15.6821 44.3232 17.5287 46.6011 17.5287Z" fill="white"/>
<path d="M63.6311 23.3167H53.2534C53.1869 22.585 53.5195 21.7867 54.1182 21.4541C54.7169 21.1214 55.5817 21.188 56.1139 21.6536C55.9809 20.9219 55.9143 20.1236 56.4465 19.5249C56.9122 18.9927 57.777 18.6601 58.4422 18.9262C59.174 19.1257 59.7062 19.8575 59.6397 20.5893C59.9057 20.1901 60.5045 20.0571 60.9701 20.2566C61.4358 20.4562 61.7019 20.9219 61.6354 21.3875C62.101 20.7888 62.9658 20.5893 63.5645 20.9884C64.1632 21.3875 64.0302 22.6515 63.6311 23.3167Z" fill="white"/>
<path d="M31.2342 27.9738C31.1677 27.7077 31.1677 27.3751 31.2342 27.0425C31.3008 27.0425 31.4338 27.0425 31.5003 27.0425C31.5003 27.3086 31.4338 27.6412 31.4338 27.9073C31.3673 27.9738 31.3008 27.9738 31.2342 27.9738Z" fill="#77383D"/>
<path d="M20.7236 34.0275C20.657 33.7614 20.657 33.4288 20.7236 33.0962C20.7901 33.0962 20.9231 33.0962 20.9896 33.0962C20.9896 33.3623 20.9231 33.6949 20.9231 33.961C20.8566 33.961 20.7901 34.0275 20.7236 34.0275Z" fill="#77383D"/>
<path d="M27.5755 17.3298C27.509 17.0637 27.509 16.7311 27.5755 16.3984C27.6421 16.3984 27.7751 16.3984 27.8416 16.3984C27.8416 16.6645 27.7751 16.9972 27.7751 17.2632C27.6421 17.3298 27.6421 17.3298 27.5755 17.3298Z" fill="#77383D"/>
<path d="M32.1654 37.2199C32.0989 36.9538 32.0989 36.6212 32.1654 36.2886C32.232 36.2886 32.365 36.2886 32.4315 36.2886C32.4315 36.5547 32.365 36.8873 32.365 37.1534C32.2985 37.2199 32.2985 37.2199 32.1654 37.2199Z" fill="#77383D"/>
<path d="M11.8095 33.5617C11.743 33.2956 11.743 32.963 11.8095 32.6304C11.876 32.6304 12.009 32.6304 12.0756 32.6304C12.0756 32.8965 12.009 33.2291 12.009 33.4952C11.876 33.5617 11.876 33.5617 11.8095 33.5617Z" fill="#77383D"/>
<path d="M24.9925 39.8811C24.9925 37.6409 26.1988 35.5156 27.8071 33.8498C29.4155 32.2414 31.3685 31.0352 33.3215 29.8863C30.0473 30.4608 27.0029 32.184 25.1074 34.8837C24.4755 30.9777 25.8541 26.7271 28.7262 23.9699C26.6008 24.372 24.8202 25.9803 24.3032 28.1057C22.9246 25.4634 20.4546 23.3955 17.64 22.5913C18.9037 23.5678 20.1674 24.5443 21.2014 25.7506C22.2353 26.9568 23.0969 28.3929 23.3267 29.9438C23.499 31.2075 23.3267 32.4712 23.1544 33.7349C22.8097 35.9177 22.5225 37.9855 22.1779 40.2257C20.7418 38.2153 19.1335 36.3197 17.3528 34.654C16.6061 33.9647 15.7445 33.2179 14.7105 33.3328C16.0317 33.9647 17.0656 34.9986 17.9272 36.2049C18.7314 37.3537 19.3633 38.6174 19.9377 39.8811C17.9847 39.7088 15.9742 39.479 14.0212 39.3067C15.0552 39.7662 16.1465 40.1683 17.2379 40.4555C18.7888 40.8576 20.2823 40.8576 21.1439 42.3511C22.1779 44.1317 22.2353 46.4294 22.0055 48.4398C21.8907 49.4163 21.7183 50.3928 21.6035 51.3693C21.546 52.0012 21.2014 54.3563 20.5121 54.586C19.9377 54.7584 19.593 55.9072 20.0525 56.3667C20.4546 56.7688 21.029 56.7114 21.546 56.7114C23.9585 56.6539 26.3711 57.1135 28.6113 57.9751C26.0839 54.0691 24.935 49.3589 25.2797 44.7636C25.3946 43.385 25.6818 41.949 26.6583 40.9725C27.4625 40.1683 28.6113 39.7662 29.7601 39.479C30.8515 39.1344 31.9429 38.8472 33.0343 38.5025C30.1622 37.526 27.3476 38.1579 24.9925 39.8811Z" fill="#77383D"/>
<path d="M26.1988 28.0486C26.1414 26.9572 27.003 25.8658 28.0369 25.6361C29.1283 25.4063 30.2772 26.0956 30.6792 27.1295C31.0813 28.1635 30.6218 29.4272 29.6453 30.0016C30.4495 29.4846 31.7132 29.7144 32.2302 30.5186C32.7471 31.3227 32.5748 32.529 31.8281 33.1609C31.0813 33.7927 29.9325 33.7927 29.1283 33.2757C29.8751 33.9076 30.1048 34.8841 29.7602 35.8032C29.3581 36.7222 28.3816 37.2966 27.4051 37.1817C26.4286 37.0669 25.6244 36.2627 25.4521 35.2862C25.1649 36.2052 23.9586 37.0094 23.0396 36.7797C22.1205 36.5499 21.4312 35.6308 21.5461 34.6543C21.661 33.7353 22.58 32.9311 23.4991 32.9311C22.8098 33.046 22.0631 32.5865 21.8333 31.8972C21.6035 31.2079 21.8907 30.4037 22.5226 30.059C23.1544 29.7144 24.0161 29.8293 24.4756 30.4037C23.6714 30.0016 23.097 29.1974 23.097 28.3358C23.097 27.4742 23.8437 26.6126 24.7054 26.5551C25.567 26.4977 26.3712 27.187 26.1988 28.0486Z" fill="#1F6456"/>
<path d="M18.9035 41.4326C19.0184 42.6963 18.2142 43.96 17.0654 44.4195C15.9165 44.8791 14.4805 44.4195 13.7338 43.443C13.1594 43.6728 12.585 43.7877 12.0105 43.7302C11.4361 43.6154 10.8617 43.2707 10.632 42.6963C10.4596 42.1219 10.7468 41.4326 11.3212 41.2603C10.5745 41.2603 9.82778 41.1454 9.19593 40.7433C8.62151 40.3412 8.21943 39.4796 8.62151 38.8477C8.90872 38.3308 9.54057 38.101 10.115 38.1585C10.6894 38.2159 11.2064 38.4457 11.7233 38.7329C11.034 38.0436 10.9192 36.8947 11.4936 36.0906C12.0105 35.2864 13.1594 34.9418 14.021 35.2864C14.8826 35.631 15.457 36.665 15.3421 37.584C15.9165 36.3778 17.7547 36.0906 18.6737 37.0096C19.5928 37.9287 19.3056 39.7668 18.0993 40.3412" fill="#178250"/>
<path d="M15.6296 30.0018C14.8254 29.3699 13.5042 29.5997 12.9873 30.4613C13.1596 29.5423 12.8149 28.5658 12.0682 27.9914C11.3215 27.4169 10.2301 27.4169 9.48335 27.9914C8.79406 28.5658 8.5643 29.7146 9.08127 30.4613C8.33453 29.8295 6.95594 30.1741 6.6113 31.1506C6.26665 32.0697 7.12827 33.2185 8.10477 33.1611C7.24315 33.3334 6.55385 34.3099 6.72618 35.2289C6.8985 36.148 7.76012 36.8373 8.67918 36.8947C9.59824 36.9522 10.5173 36.3203 10.8619 35.4587C10.5747 36.665 11.781 37.9861 13.0447 37.8138C14.3084 37.6415 15.0551 36.0331 14.4233 34.9417C14.9977 35.2289 15.8019 34.9992 16.0891 34.4248C16.3189 34.0227 16.2614 33.678 16.1465 33.2759C16.0316 32.7015 16.0316 32.8164 16.1465 32.242C16.3189 31.3804 16.3763 30.5762 15.6296 30.0018Z" fill="#1E963A"/>
<path d="M16.7209 16.905C15.2274 16.7327 13.6765 17.7666 13.2744 19.2026C12.8149 20.6961 13.6765 22.4194 15.0551 22.9938C14.1361 23.1086 13.5617 24.2 13.9063 25.0616C14.2509 25.9233 15.4572 26.2105 16.2039 25.6935C15.1126 26.3828 14.9402 28.2209 15.9742 29.0251C17.0081 29.8293 18.7888 29.3123 19.1909 28.0486C18.7888 28.8528 19.3058 29.9441 20.1674 30.059C21.029 30.2313 21.8906 29.3697 21.7757 28.5081C22.6374 29.0251 23.7862 28.9102 24.4755 28.2209C25.2222 27.5316 25.3945 26.3828 24.9924 25.5212C24.5329 24.6596 23.499 24.1426 22.5799 24.3149C23.0969 24.0851 23.4415 23.4533 23.2118 22.8789C23.0394 22.3619 22.3502 22.0173 21.7757 22.1896C22.5799 21.6152 22.6374 20.3515 22.0055 19.6622C21.6034 19.2601 21.029 19.1452 20.4546 19.2601C19.7079 19.375 19.7653 19.7771 19.3058 19.1452C18.5016 18.1113 18.1569 17.1348 16.7209 16.905Z" fill="#178250"/>
<path d="M24.4179 20.6955C23.7286 20.0062 23.4414 18.9149 23.6711 17.9384C23.9583 16.9619 24.7051 16.1577 25.6816 15.9279C26.6581 15.6407 27.7494 15.9279 28.4387 16.6746C28.7834 15.813 29.8173 15.2386 30.6789 15.4109C31.598 15.5833 32.2873 16.4449 32.2873 17.3639C32.2873 18.283 31.598 19.1446 30.6789 19.3169C31.4257 19.2021 32.0575 20.1211 32.0575 20.8679C32.0575 21.6146 31.3108 22.2464 30.5641 22.189C31.081 22.7634 31.3682 23.3953 31.3108 24.142C31.2534 24.8887 30.7364 25.6355 30.0471 25.9227C29.3578 26.2099 28.3813 25.9801 27.9792 25.2908C28.0941 25.9801 27.9218 26.612 27.4622 27.1864C27.175 27.531 26.8304 27.7608 26.3709 27.8757C25.9688 27.9331 25.4518 27.8182 25.1646 27.4736C24.8774 27.1289 24.8199 26.612 25.1071 26.2673C24.5902 26.7269 23.6137 26.6694 23.0393 26.2673C22.4649 25.8652 22.1776 25.0611 22.4074 24.3718C22.6372 23.6825 23.3839 23.2229 24.0732 23.3378C23.4988 23.625 22.7521 22.8783 22.6372 22.2464C22.6946 21.6146 23.786 20.6381 24.4179 20.6955Z" fill="#178250"/>
<path d="M27.9217 29.8868C27.2899 29.6571 26.5431 29.8294 26.0836 30.3464C25.6815 30.8059 25.5666 31.6101 25.8538 32.1845C26.141 32.7589 26.8303 33.161 27.5196 33.0461C26.8303 33.3907 26.6006 34.4821 26.8878 35.2289C27.175 35.9756 28.094 36.3777 28.8982 36.2054C29.7024 36.033 30.2768 35.2863 30.3917 34.5396C30.564 34.9991 30.7363 35.5161 31.0235 35.8607C31.3107 36.2628 31.7703 36.55 32.2298 36.55C32.6893 36.55 33.1489 36.2054 33.4935 35.8607C34.0679 35.1714 34.4126 34.3672 34.7572 33.5056C35.2167 34.2524 36.2507 34.4247 36.94 33.9077C37.6293 33.3907 37.6867 32.2419 37.0549 31.6101C38.1462 31.8398 39.3525 31.4377 40.0992 30.6336C40.7885 29.7719 40.9609 28.4508 40.2716 27.5317C39.5823 26.6127 38.2037 26.3829 37.3421 27.1297C37.8016 26.4978 37.3995 25.5213 36.6528 25.2341C35.906 24.9469 35.1019 25.2915 34.5849 25.8659C34.0679 26.4404 33.8382 27.2445 33.7233 27.9913C33.0914 26.9573 31.7128 26.4978 30.6214 26.8999C29.3003 27.3594 27.8068 28.6806 27.9217 29.8868Z" fill="#19A740"/>
<path d="M28.2665 43.4999C29.1281 43.385 29.8174 42.6383 30.0472 41.8341C30.0472 42.9829 31.3109 43.9594 32.4023 43.6148C33.4937 43.3276 34.1255 41.8341 33.4937 40.8576C34.3553 41.4894 35.7339 41.3746 36.4806 40.6278C37.2273 39.8236 37.3422 38.5025 36.6529 37.6409C36.0211 36.7793 34.6999 36.4921 33.7234 37.009C33.9532 35.6879 32.8044 34.3667 31.4832 34.4242C30.1621 34.4816 29.1281 35.9176 29.4728 37.1813C29.243 36.4346 27.5198 36.5495 27.0028 36.7218C25.9114 37.1813 25.6817 38.2727 25.6817 39.3641C25.7966 40.915 26.1986 43.7871 28.2665 43.4999Z" fill="#178250"/>
<path d="M13.6765 23.4528C13.0447 24.5442 13.2744 26.0377 14.1935 26.8993C13.0447 26.0377 11.0917 26.6121 10.6322 28.0481C10.1726 29.4267 11.4363 31.0925 12.9298 31.035C11.9533 31.8967 11.8384 33.505 12.6426 34.4815C13.4468 35.458 15.1126 35.6303 16.0891 34.8262C15.7444 35.2857 15.8019 35.975 16.1465 36.4345C16.4912 36.894 17.0656 37.1238 17.5825 37.1812C18.6165 37.2961 19.6504 36.8366 20.2248 36.0324C20.7992 35.2282 20.9141 34.0794 20.512 33.1604C21.4311 33.6199 22.7522 33.1604 23.1543 32.1839C23.6139 31.2074 23.0969 29.9437 22.1204 29.5416C23.4415 29.082 24.0734 27.2439 23.2692 26.0951C22.465 24.9463 20.5695 24.774 19.593 25.8653C20.5695 24.774 18.5016 22.5912 17.5825 22.304C16.3763 21.787 14.4233 22.2465 13.6765 23.4528Z" fill="#19A740"/>
<path d="M23.6714 35.9178C23.9586 35.0562 23.5565 34.0222 22.7523 33.5627C21.9481 33.1032 20.8567 33.2181 20.2249 33.8499C19.593 34.4818 19.4207 35.5732 19.8802 36.3773C18.9612 36.1476 17.9272 36.3773 17.2379 37.0666C16.5487 37.7559 16.3763 38.8473 16.8359 39.6515C17.2954 40.4557 18.5017 40.8003 19.3058 40.3408C18.4442 40.8577 18.157 42.1789 18.7314 42.9831C19.3058 43.8447 20.5695 44.0744 21.4312 43.5575C22.2928 43.0405 22.6949 41.8917 22.3502 40.9152C22.3502 41.8342 23.2693 42.4087 24.1883 42.4087C25.1074 42.4661 25.9116 41.7194 26.0264 40.8003C26.1413 39.9387 25.452 39.0196 24.5904 38.8473C25.5095 38.675 26.1413 37.641 25.7967 36.7794C25.5669 35.9178 24.4755 35.4583 23.6714 35.9178Z" fill="#19A740"/>
<path d="M18.1001 25.9804C18.0426 25.7507 18.0426 25.4635 18.1001 25.1763C18.1575 25.1763 18.2724 25.1763 18.3298 25.1763C18.3298 25.406 18.2724 25.6932 18.2724 25.923C18.2149 25.923 18.1575 25.9804 18.1001 25.9804Z" fill="#77383D"/>
<path d="M19.5935 26.0377C19.4786 25.8079 19.2488 25.6356 18.9616 25.5781C18.8468 25.5781 18.6744 25.5781 18.5596 25.5781C18.5021 25.5781 18.4447 25.6356 18.3872 25.6356C18.3872 25.693 18.2149 25.8653 18.2149 25.8653C18.2149 25.8653 17.9851 25.7504 17.8703 25.7504C17.7554 25.693 17.5831 25.693 17.4107 25.7504C17.181 25.8079 16.9512 25.9228 16.7789 26.0951C16.5491 26.3249 16.5491 26.6695 16.664 26.9567C16.7789 27.2439 16.9512 27.5311 17.1235 27.7609C17.181 27.8758 17.2958 27.9907 17.3533 28.0481C17.4107 28.1055 17.6405 28.163 17.7554 28.163C17.9851 28.163 18.0426 28.0481 18.2149 27.9907C18.2723 28.0481 18.3872 28.163 18.4447 28.163C18.5596 28.2204 18.6744 28.2204 18.7893 28.163C18.9042 28.1055 18.9616 27.9907 19.0191 27.8758C19.0765 27.7034 19.1914 27.5886 19.2488 27.4162C19.3637 27.1865 19.4786 26.9567 19.5361 26.7269C19.7084 26.5546 19.7084 26.2674 19.5935 26.0377Z" fill="#BC2F2F"/>
<path d="M32.058 31.7242C31.9431 31.4944 31.7134 31.3221 31.4262 31.2646C31.3113 31.2646 31.139 31.2646 31.0241 31.2646C30.9666 31.2646 30.9092 31.3221 30.8518 31.3221C30.7943 31.3221 30.6794 31.4944 30.6794 31.4944C30.6794 31.4944 30.4497 31.3795 30.3348 31.3795C30.2199 31.3221 30.0476 31.3221 29.8753 31.3795C29.6455 31.437 29.4157 31.5519 29.2434 31.7242C29.0136 31.9539 29.0136 32.2986 29.1285 32.5858C29.2434 32.873 29.4157 33.1602 29.5881 33.39C29.6455 33.5049 29.7604 33.6197 29.8178 33.6772C29.9327 33.7346 30.0476 33.8495 30.1625 33.8495C30.3922 33.8495 30.4497 33.7346 30.622 33.6772C30.6794 33.7346 30.7943 33.8495 30.8518 33.8495C30.9666 33.9069 31.0815 33.9069 31.1964 33.8495C31.3113 33.7921 31.3687 33.6772 31.4262 33.5623C31.4836 33.39 31.5985 33.2751 31.6559 33.1028C31.7708 32.873 31.8857 32.6432 31.9431 32.4135C32.1729 32.1837 32.1729 31.9539 32.058 31.7242Z" fill="#BC2F2F"/>
<path d="M22.9822 36.8936C22.8673 36.6638 22.6376 36.4915 22.3504 36.4341C22.2355 36.4341 22.0632 36.4341 21.9483 36.4341C21.8908 36.4341 21.8334 36.4915 21.7759 36.4915C21.7185 36.4915 21.6036 36.6638 21.6036 36.6638C21.6036 36.6638 21.3739 36.549 21.259 36.549C21.1441 36.4915 20.9718 36.4915 20.7994 36.549C20.5697 36.6064 20.3399 36.7213 20.1676 36.8936C19.9378 37.1234 19.9378 37.468 20.0527 37.7552C20.1676 38.0424 20.3399 38.3296 20.5122 38.5594C20.5697 38.6743 20.6846 38.7892 20.742 38.8466C20.8569 38.9041 20.9718 39.0189 21.0867 39.0189C21.3164 39.0189 21.3739 38.9041 21.5462 38.8466C21.6036 38.9041 21.7185 39.0189 21.7759 39.0189C21.8908 39.0764 22.0057 39.0764 22.1206 39.0189C22.2355 38.9615 22.2929 38.8466 22.3504 38.7317C22.4078 38.5594 22.5227 38.4445 22.5801 38.2722C22.695 38.0424 22.8099 37.8127 22.8673 37.5829C23.0971 37.4106 23.0971 37.1234 22.9822 36.8936Z" fill="#BC2F2F"/>
<path d="M28.8988 22.5337C28.7839 22.304 28.5541 22.1317 28.2669 22.0742C28.152 22.0742 27.9797 22.0742 27.8648 22.0742C27.8074 22.0742 27.7499 22.1317 27.6925 22.1317C27.6351 22.1317 27.5202 22.304 27.5202 22.304C27.5202 22.304 27.2904 22.1891 27.1755 22.1891C27.0606 22.1317 26.8883 22.1317 26.716 22.1891C26.4862 22.2465 26.2565 22.3614 26.0841 22.5337C25.8544 22.7635 25.8544 23.1082 25.9693 23.3954C26.0841 23.6826 26.2565 23.9698 26.4288 24.1995C26.4862 24.3144 26.6011 24.4293 26.6586 24.4867C26.7734 24.5442 26.8883 24.6591 27.0032 24.6591C27.233 24.6591 27.2904 24.5442 27.4627 24.4867C27.5202 24.5442 27.6351 24.6591 27.6925 24.6591C27.8074 24.7165 27.9223 24.7165 28.0371 24.6591C28.152 24.6016 28.2095 24.4867 28.2669 24.3719C28.3243 24.1995 28.4392 24.0847 28.4967 23.9123C28.6116 23.6826 28.7264 23.4528 28.7839 23.223C28.9562 22.9933 28.9562 22.7635 28.8988 22.5337Z" fill="#BC2F2F"/>
<path d="M32.8625 39.709C32.7476 39.4793 32.5179 39.307 32.2307 39.2495C32.1158 39.2495 31.9434 39.2495 31.8286 39.2495C31.7711 39.2495 31.7137 39.307 31.6562 39.307C31.5988 39.307 31.4839 39.4793 31.4839 39.4793C31.4839 39.4793 31.2542 39.3644 31.1393 39.3644C31.0244 39.307 30.8521 39.307 30.6797 39.3644C30.45 39.4218 30.2202 39.5367 30.0479 39.709C29.8181 39.9388 29.8181 40.2835 29.933 40.5707C30.0479 40.8579 30.2202 41.1451 30.3925 41.3748C30.45 41.4897 30.5649 41.6046 30.6223 41.662C30.7372 41.7195 30.8521 41.8344 30.9669 41.8344C31.1967 41.8344 31.2542 41.7195 31.4265 41.662C31.4839 41.7195 31.5988 41.8344 31.6562 41.8344C31.7711 41.8918 31.886 41.8918 32.0009 41.8344C32.1158 41.7769 32.1732 41.662 32.2307 41.5472C32.2881 41.3748 32.403 41.26 32.4604 41.0876C32.5753 40.8579 32.6902 40.6281 32.7476 40.3983C32.9774 40.1686 32.9774 39.9388 32.8625 39.709Z" fill="#BC2F2F"/>
<path d="M15.2851 36.4918C15.1702 36.262 14.9405 36.0897 14.6533 36.0322C14.5384 36.0322 14.3661 36.0322 14.2512 36.0322C14.1937 36.0322 14.1363 36.0897 14.0789 36.0897C14.0214 36.0897 13.9065 36.262 13.9065 36.262C13.9065 36.262 13.6193 36.2045 13.5619 36.2045C13.447 36.1471 13.2747 36.1471 13.1024 36.2045C12.8726 36.262 12.6428 36.3769 12.4705 36.5492C12.2407 36.779 12.2407 37.1236 12.3556 37.4108C12.4705 37.698 12.6428 37.9852 12.8152 38.215C12.8726 38.3299 12.9875 38.4448 13.0449 38.5022C13.1598 38.5596 13.2747 38.6745 13.3896 38.6745C13.6193 38.6745 13.6768 38.5596 13.8491 38.5022C13.9065 38.5596 14.0214 38.6745 14.0789 38.6745C14.1937 38.732 14.3086 38.732 14.4235 38.6745C14.5384 38.6171 14.5958 38.5022 14.6533 38.3873C14.7107 38.215 14.8256 38.1001 14.883 37.9278C14.9979 37.698 15.1128 37.4683 15.1702 37.2385C15.3426 37.0087 15.4 36.7215 15.2851 36.4918Z" fill="#BC2F2F"/>
<path d="M38.7513 65.3598C38.0861 65.4263 37.4208 65.4928 36.8221 65.4928C36.2899 65.4928 35.6912 65.5593 35.159 65.5593C31.3007 65.5593 27.5754 64.9606 24.1161 63.8297C16.8651 61.4349 10.6119 56.7782 6.28786 50.7246C6.35438 49.5937 7.01961 48.5293 7.95094 47.9306C9.21489 47.1324 10.9445 47.3319 12.0089 48.2633C13.1398 49.2611 13.4724 50.9242 12.9402 52.2547C13.7385 51.789 14.8694 52.1216 15.335 52.9199C15.7342 53.5851 15.5346 54.4499 15.069 55.0486C15.6011 54.716 16.3994 54.7825 16.8651 55.1817C17.4638 55.7139 17.5968 56.7117 17.0647 57.3104C17.7964 56.9113 18.7277 56.9113 19.393 57.3104C20.0582 57.7096 20.4574 58.5079 20.4574 59.3061C20.5239 57.7096 21.5883 56.1795 23.0518 55.6474C24.5818 55.0486 26.4445 55.6474 27.3758 56.9778C28.3071 58.3083 28.1075 60.3705 26.8436 61.4349C27.4423 60.8362 28.2406 60.437 29.0389 60.3705C29.9037 60.304 30.7685 60.7031 31.1011 61.5014C31.4337 62.1001 31.2341 62.9649 30.7685 63.3641C31.6333 62.9649 32.7642 63.3641 33.1633 64.2289C34.0281 63.2975 35.4916 62.9649 36.6891 63.3641C37.6204 63.6967 38.4187 64.4284 38.7513 65.3598Z" fill="#178250"/>
<path d="M40.88 49.2607C40.88 48.9946 40.88 48.7285 41.013 48.4624C41.1461 48.1963 41.3457 47.9967 41.6118 47.9302C41.8778 47.8637 42.2105 47.9302 42.3435 48.1298C42.5431 48.3959 42.4766 48.7285 42.3435 48.9946C42.2105 49.2607 41.9444 49.4603 41.7448 49.6598C42.2105 49.5268 42.7427 49.5933 43.2083 49.8594C43.3414 49.9259 43.4744 50.059 43.4744 50.192C43.5409 50.3916 43.2748 50.5912 43.1418 50.7242C42.6761 50.9903 42.0774 50.9903 41.5452 50.7242C41.6783 50.9238 41.8113 51.0568 41.9444 51.2564C42.0109 51.456 42.0109 51.7221 41.8778 51.9216C41.7448 52.1212 41.4787 52.2542 41.2126 52.1877C40.9465 52.1877 40.7469 51.9882 40.6139 51.7886C40.4809 51.589 40.4809 51.3229 40.5474 51.0568C40.4143 51.3894 40.0817 51.6555 39.7491 51.7886C39.5495 51.9216 39.2834 51.9216 39.1504 51.7886C39.0173 51.7221 38.9508 51.589 38.9508 51.3894C38.9508 51.2564 39.0173 51.1233 39.0839 50.9903C39.2834 50.6577 39.5495 50.3916 39.8821 50.2585C39.4165 50.3251 39.0173 50.1255 38.7512 49.7264C38.6182 49.5268 38.6182 49.3272 38.7512 49.1276C38.8843 48.9946 39.0839 48.9281 39.2834 48.9281C39.8821 48.9946 40.4143 49.0611 40.88 49.2607Z" fill="#D87544"/>
<path d="M40.2814 50.1257C40.348 50.5248 40.6806 50.7909 41.0797 50.7244C41.4789 50.6578 41.745 50.3252 41.6784 49.9261C41.6119 49.1278 40.2149 49.2608 40.2814 50.1257Z" fill="#FFD950"/>
<path d="M50.5926 54.5165C50.5926 54.2505 50.5926 53.9844 50.7256 53.7183C50.8587 53.4522 51.0582 53.2526 51.3243 53.1861C51.5904 53.1196 51.9231 53.1861 52.0561 53.3856C52.2557 53.6517 52.1891 53.9844 52.0561 54.2505C51.9231 54.5165 51.657 54.7161 51.4574 54.9157C51.9231 54.7826 52.4552 54.8492 52.9209 55.1153C53.054 55.1818 53.187 55.3148 53.187 55.4479C53.2535 55.6474 52.9874 55.847 52.8544 55.9801C52.3887 56.2462 51.79 56.2462 51.2578 55.9801C51.3909 56.1796 51.5239 56.3127 51.657 56.5123C51.7235 56.7118 51.7235 56.9779 51.5904 57.1775C51.4574 57.3771 51.1913 57.5101 50.9252 57.4436C50.6591 57.4436 50.4595 57.244 50.3265 57.0444C50.1934 56.8449 50.1934 56.5788 50.3265 56.3127C50.1934 56.6453 49.8608 56.9114 49.5282 57.0444C49.3286 57.1775 49.0625 57.1775 48.9295 57.0444C48.7965 56.9779 48.7299 56.8449 48.7299 56.6453C48.7299 56.5122 48.7965 56.3792 48.863 56.2462C49.0625 55.9135 49.3286 55.6474 49.6613 55.5144C49.1956 55.5809 48.7965 55.3814 48.5304 54.9822C48.3973 54.7826 48.3973 54.5831 48.5304 54.3835C48.6634 54.2505 48.863 54.1839 49.0625 54.1839C49.5947 54.2505 50.1269 54.2505 50.5926 54.5165Z" fill="#D87544"/>
<path d="M49.9937 55.3815C50.0603 55.7806 50.3929 56.0467 50.792 55.9802C51.1912 55.9136 51.4573 55.581 51.3907 55.1819C51.3242 54.3171 49.9272 54.5167 49.9937 55.3815Z" fill="#FFD950"/>
<path d="M58.5087 44.3383C58.5087 44.0722 58.5087 43.8061 58.6417 43.54C58.7748 43.274 58.9743 43.0744 59.2404 43.0079C59.5065 42.9413 59.8392 43.0079 59.9722 43.2074C60.1718 43.4735 60.1052 43.8061 59.9722 44.0722C59.8392 44.3383 59.5731 44.5379 59.3735 44.7375C59.8392 44.6044 60.3713 44.6709 60.837 44.937C60.9701 45.0036 61.1031 45.1366 61.1031 45.2697C61.1696 45.4692 60.9035 45.6688 60.7705 45.8018C60.3048 46.0679 59.7061 46.0679 59.1739 45.8018C59.307 46.0014 59.44 46.1345 59.5731 46.334C59.6396 46.5336 59.6396 46.7997 59.5065 46.9993C59.3735 47.1988 59.1074 47.3319 58.8413 47.2654C58.5752 47.2654 58.3756 47.0658 58.2426 46.8662C58.1095 46.6666 58.1095 46.4006 58.1761 46.1345C58.043 46.4671 57.7104 46.7332 57.3778 46.8662C57.1782 46.9993 56.9121 46.9993 56.7791 46.8662C56.646 46.7997 56.5795 46.6666 56.5795 46.4671C56.5795 46.2675 56.646 46.201 56.7126 46.0679C56.9121 45.7353 57.1782 45.4692 57.5108 45.3362C57.0452 45.4027 56.646 45.2031 56.3799 44.804C56.2469 44.6044 56.2469 44.4049 56.3799 44.2053C56.513 44.0722 56.7126 44.0057 56.9121 44.0057C57.5108 44.0722 58.043 44.1388 58.5087 44.3383Z" fill="#D87544"/>
<path d="M57.9765 45.2706C58.043 45.6698 58.3756 45.9359 58.7748 45.8693C59.1739 45.8028 59.44 45.4702 59.3735 45.071C59.2405 44.2062 57.91 44.4058 57.9765 45.2706Z" fill="#FFD950"/>
</g>
</svg>
