<svg width="69" height="61" viewBox="0 0 69 61" fill="none" xmlns="http://www.w3.org/2000/svg">
<mask id="mask0_637_670" style="mask-type:alpha" maskUnits="userSpaceOnUse" x="0" y="0" width="69" height="61">
<rect width="69" height="61" rx="10" fill="#2B92D5"/>
</mask>
<g mask="url(#mask0_637_670)">
<path d="M80.2213 28.1672C80.2213 28.836 80.2213 29.4213 80.1377 30.0901C80.0541 32.3475 79.8033 34.6049 79.3852 36.7786C79.3016 37.1967 79.218 37.5311 79.1344 37.8655C76.5426 49.4868 69.4361 59.436 59.6541 65.6229C53.3 69.7196 45.7754 72.2278 37.8328 72.5622C37.1639 72.5622 36.4115 72.6459 35.7426 72.6459C30.8934 72.6459 26.2115 71.8934 21.8639 70.4721C12.082 67.295 3.80492 60.8573 -1.62951 52.4131C-3.05082 50.2393 -4.22131 47.9819 -5.3082 45.5573C-7.56557 40.2901 -8.81967 34.3541 -8.81967 28.1672C-8.81967 3.58684 11.0787 -16.3115 35.659 -16.3115C60.2393 -16.3115 80.2213 3.58684 80.2213 28.1672Z" fill="#39B8FF"/>
<path d="M89 28C89 28.7669 89 29.438 88.9042 30.2049C88.8085 32.7932 88.5211 35.3816 88.0423 37.8741C87.9465 38.3534 87.8507 38.7368 87.7549 39.1203C84.7859 52.4455 76.6451 63.8534 65.4394 70.9474C58.1606 75.6447 49.5408 78.5207 40.4423 78.9041C39.6761 78.9041 38.8141 79 38.0479 79C32.493 79 27.1296 78.1372 22.1493 76.5075C10.9437 72.8647 1.46197 65.4831 -4.76338 55.8008C-6.39155 53.3083 -7.73239 50.7199 -8.97746 47.9398C-11.5634 41.9004 -13 35.094 -13 28C-13 -0.18421 9.79437 -23 37.9521 -23C66.1099 -23 89 -0.18421 89 28Z" fill="#E29E6F"/>
<path d="M60.5738 66.4031C53.7045 70.8249 45.5698 73.5322 36.9832 73.8931C36.2601 73.8931 35.4466 73.9834 34.7235 73.9834C29.4812 73.9834 24.4196 73.1712 19.7195 71.6371C9.14445 68.1177 0.196284 61.1691 -5.67877 52.0547C-7.21532 49.7085 -8.48072 47.272 -9.65573 44.655C3.179 41.1355 17.008 41.4063 29.6619 45.5574C32.6447 46.55 35.537 47.7232 38.3389 49.0768C38.7909 49.2573 39.2428 49.528 39.6947 49.7987C40.1467 50.0694 40.5986 50.2499 41.0505 50.5206C48.4621 54.5815 55.1507 59.996 60.5738 66.4031Z" fill="#61696C"/>
<path d="M65.7227 42.0625C63.8934 37.0518 60.9506 32.3592 57.2125 28.462C56.1785 27.3485 54.906 26.235 53.3153 26.1555C51.4064 26.076 49.8157 27.5076 48.6227 29.0188C46.0776 32.4388 44.5664 36.495 43.3734 40.5513C42.1804 44.6871 41.226 48.8229 39.5557 52.7201C43.9302 50.3341 48.225 48.1071 52.7585 46.1983C56.9739 44.5281 61.2687 42.8578 65.7227 42.0625Z" fill="#453C41"/>
<path d="M78.0507 31.7228C77.9711 33.8703 77.7325 36.0177 77.3348 38.0856C77.2553 38.4833 77.1758 38.8014 77.0962 39.1196C71.3697 40.6307 65.6432 42.2214 59.9167 43.7326C60.0758 43.7326 60.1553 43.5735 60.2349 43.4144C60.6325 42.6191 60.7121 40.5512 60.7916 39.8354C60.7916 39.7558 60.7916 39.7558 60.7916 39.6763C61.0302 38.0061 61.4279 36.2563 62.0642 34.5066C62.3823 33.5521 62.78 32.5182 63.2572 31.6433C63.8935 30.2912 64.6093 29.0982 65.4842 27.9847C67.393 25.5987 70.0972 25.201 72.6423 26.5531C74.7102 27.8256 76.5395 29.6549 78.0507 31.7228Z" fill="#453C41"/>
<path d="M81.4754 35.5638C81.3855 36.0116 81.2956 36.3698 81.2056 36.7281C78.4179 49.1765 70.7743 59.8339 60.2529 66.4611C53.4186 70.8494 45.3253 73.5361 36.7824 73.8944C36.0629 73.8944 35.2536 73.9839 34.5342 73.9839C29.3185 73.9839 24.2827 73.1779 19.6066 71.6554C21.3151 68.3418 23.2935 65.1177 25.6316 62.1623C29.2286 57.4158 33.545 53.1171 38.2212 49.4452C38.9406 48.9079 39.66 48.3705 40.3794 47.8332C41.7283 46.848 43.0771 45.9525 44.516 45.1465C50.1813 41.7433 56.3861 39.2357 62.7709 37.6236C64.1197 37.2654 65.5586 36.9967 66.9974 36.7281C71.6735 35.8325 76.5295 35.3847 81.4754 35.5638Z" fill="#6D6441"/>
<path d="M55.4738 6.34594C55.4738 9.18856 53.1328 11.5295 50.2902 11.5295C47.4475 11.5295 45.1066 9.18856 45.1066 6.34594C45.1066 3.50331 47.4475 1.16233 50.2902 1.16233C53.1328 1.07872 55.4738 3.41971 55.4738 6.34594Z" fill="#FDFF84"/>
<path d="M29.3049 8.2903H8.73771C9.15574 6.53457 11.3295 5.36407 12.8344 6.20014C12.082 4.10998 13.6705 1.51817 15.9279 1.26735C18.1016 1.01653 20.359 3.02309 20.1918 5.28047C20.6934 4.19358 22.1148 3.60834 23.2016 3.94276C24.3721 4.27719 25.1246 5.53129 24.9574 6.70178C26.2951 5.61489 28.7197 6.61817 29.3049 8.2903Z" fill="#FCE0CA"/>
<path d="M73.1148 22.1474H57.236C57.1593 21.2593 57.7729 20.3712 58.6167 19.8531C59.3838 19.4091 60.4578 19.4091 61.2248 19.9271C61.3783 18.817 61.8385 17.7809 62.6823 17.0408C63.5261 16.3007 64.8302 16.0787 65.8274 16.5228C66.8246 17.0408 67.3616 18.299 66.8246 19.2611C67.3616 18.669 68.2821 18.521 68.9725 18.817C69.6628 19.113 70.1231 19.9271 69.9697 20.6672C70.4299 20.0011 71.3504 19.6311 72.1942 19.9271C73.038 20.2232 73.1148 21.3333 73.1148 22.1474Z" fill="#FCE0CA"/>
<path d="M22.9956 39.5812C22.9956 36.5641 24.5632 33.7016 26.6534 31.4581C28.7436 29.2919 31.2816 27.6673 33.8197 26.1201C29.5647 26.8937 25.6083 29.2146 23.1449 32.8507C22.3238 27.59 24.1153 21.8651 27.8478 18.1516C25.0858 18.6932 22.7717 20.8594 22.0998 23.7218C20.3083 20.1631 17.0984 17.378 13.4406 16.2949C15.0828 17.6101 16.7251 18.9253 18.0688 20.5499C19.4125 22.1745 20.5322 24.1086 20.8308 26.1974C21.0547 27.8994 20.8308 29.6014 20.6069 31.3034C20.159 34.2432 19.7857 37.0283 19.3378 40.0454C17.4716 37.3377 15.3814 34.7847 13.0673 32.5412C12.0969 31.6128 10.9772 30.6071 9.63349 30.7618C11.3504 31.6128 12.6941 33.0054 13.8138 34.63C14.8589 36.1773 15.68 37.8793 16.4265 39.5812C13.8885 39.3492 11.2758 39.0397 8.73771 38.8076C10.0814 39.4265 11.4997 39.9681 12.918 40.3549C14.9336 40.8964 16.8744 40.8964 17.9941 42.9079C19.3378 45.3061 19.4125 48.4007 19.1139 51.1084C18.9646 52.4235 18.7406 53.7387 18.5913 55.0539C18.5167 55.9049 18.0688 59.0768 17.173 59.3862C16.4265 59.6183 15.9786 61.1656 16.5758 61.7845C17.0984 62.326 17.8449 62.2487 18.5167 62.2487C21.6519 62.1713 24.7872 62.7902 27.6985 63.9507C24.4139 58.69 22.921 52.3462 23.3689 46.1571C23.5182 44.3004 23.8914 42.3663 25.1604 41.0512C26.2055 39.9681 27.6985 39.4265 29.1915 39.0397C30.6098 38.5755 32.0281 38.1887 33.4464 37.7245C29.714 36.4867 26.0562 37.2604 22.9956 39.5812Z" fill="#77383D"/>
<path d="M37.1639 73.8944C36.4412 73.8944 35.6282 73.9838 34.9055 73.9838C29.6659 73.9838 24.607 73.1796 19.9095 71.6605C9.33996 68.1757 0.396541 61.2059 -5.4754 52.2703C3.01633 52.0022 11.6887 53.968 19.2771 57.8997C21.6259 59.1507 23.794 60.491 25.9621 62.0994C30.2983 65.3163 34.0925 69.3373 37.1639 73.8944Z" fill="#817C80"/>
</g>
</svg>
