<svg width="69" height="61" viewBox="0 0 69 61" fill="none" xmlns="http://www.w3.org/2000/svg">
<mask id="mask0_637_576" style="mask-type:alpha" maskUnits="userSpaceOnUse" x="0" y="0" width="69" height="61">
<rect width="69" height="61" rx="10" fill="#2B92D5"/>
</mask>
<g mask="url(#mask0_637_576)">
<path d="M81 33C81 33.7068 81 34.3252 81 35.032C80.9117 37.4173 80.6469 39.8026 80.1174 42.0996C80.0291 42.5414 79.9408 42.8947 79.8526 43.2481C77.1164 55.5282 69.6141 66.0414 59.2873 72.5789C52.5793 76.9079 44.7239 79.5583 36.2507 79.9117C35.5446 79.9117 34.7502 80 34.0441 80C28.9249 80 23.9822 79.2049 19.3925 77.703C9.06573 74.3459 0.3277 67.5432 -5.40939 58.6203C-6.90986 56.3233 -8.14554 53.938 -9.29296 51.3759C-11.6761 45.8101 -13 39.5376 -13 33C-13 7.02632 8.00657 -14 33.9559 -14C59.9052 -14 81 7.02632 81 33Z" fill="#FFF7AF"/>
<path d="M58.4711 64.0051C51.8603 67.8976 44.1187 70.2807 35.7682 70.5984C35.0723 70.5984 34.2895 70.6779 33.5936 70.6779C28.5485 70.6779 23.6774 69.9629 19.1542 68.6125C8.97703 65.5144 0.365586 59.3977 -5.28839 51.3745C-6.76712 49.3091 -7.9849 47.1643 -9.1157 44.8606C3.23607 41.7626 16.5447 42.0009 28.7225 45.655C31.5929 46.5288 34.3764 47.5615 37.0729 48.7531C37.5079 48.912 37.9428 49.1503 38.3777 49.3886C38.8126 49.6269 39.2476 49.7858 39.6825 50.0241C46.9022 53.5988 53.252 58.365 58.4711 64.0051Z" fill="#99B94A"/>
<path d="M60.8576 41.4315C59.205 36.905 56.5465 32.6658 53.1696 29.1451C52.2355 28.1392 51.0859 27.1333 49.6489 27.0615C47.9245 26.9896 46.4875 28.2829 45.4097 29.6481C43.1105 32.7376 41.7453 36.402 40.6676 40.0664C39.5898 43.8026 38.7276 47.5388 37.2188 51.0595C41.1705 48.904 45.0505 46.8922 49.1459 45.1677C52.954 43.6589 56.8339 42.15 60.8576 41.4315Z" fill="#A08D84"/>
<path d="M71.9944 32.0913C71.9225 34.0313 71.707 35.9712 71.2759 37.8393C71.204 38.1986 71.1322 38.486 71.0603 38.7734C65.8871 40.1385 60.7139 41.5755 55.5406 42.9407C55.6843 42.9407 55.7562 42.797 55.828 42.6533C56.1873 41.9348 56.2591 40.0667 56.331 39.42C56.331 39.3482 56.331 39.3482 56.331 39.2763C56.5465 37.7675 56.9058 36.1868 57.4806 34.6061C57.768 33.7439 58.1272 32.8098 58.5583 32.0194C59.1331 30.798 59.7798 29.7202 60.5702 28.7143C62.2946 26.5588 64.7375 26.1996 67.0367 27.421C68.9766 28.5706 70.6292 30.2232 71.9944 32.0913Z" fill="#A08D84"/>
<path d="M79.4463 36.5294C79.3582 36.9184 79.2701 37.2295 79.182 37.5407C76.4518 48.3532 68.9654 57.61 58.6608 63.3664C51.9671 67.178 44.1285 69.5116 35.6734 69.8228C34.9688 69.8228 34.1761 69.9006 33.4715 69.9006C28.3632 69.9006 23.4311 69.2005 18.8512 67.8781C20.5246 64.9999 22.5504 62.1995 24.7522 59.6325C28.2752 55.5097 32.5027 51.7759 37.0826 48.5866C37.7872 48.1199 38.4918 47.6531 39.1964 47.1864C40.5175 46.3307 41.8386 45.5528 43.2478 44.8528C48.7965 41.8968 54.8736 39.7187 61.1268 38.3185C62.448 38.0074 63.8571 37.774 65.2663 37.5407C69.8462 36.7628 74.6903 36.3738 79.4463 36.5294Z" fill="#B6DC62"/>
<path opacity="0.45" d="M38.0807 9.53021C35.566 10.2487 32.9075 9.17096 30.6083 7.9495C26.1536 5.57844 21.9144 2.34517 16.9567 1.55482C13.5079 0.980016 9.91539 1.69852 6.89767 3.35108C8.04728 2.20147 9.26874 1.12372 10.562 0.117811C11.9991 -0.241441 13.4361 -0.385141 14.8731 -0.385141C18.8248 -0.385141 22.7048 0.764464 26.2973 2.41702C27.4469 2.91998 28.5246 3.49478 29.7461 3.78218C30.9676 4.06958 32.2609 4.06958 33.3386 3.42293C34.4164 2.77628 35.1349 1.48297 34.8475 0.333362C34.5601 -0.888094 32.9794 -1.67845 31.9735 -1.0318C32.6201 -2.82806 34.5601 -3.61841 36.4282 -3.40286C39.4459 -2.97176 42.1044 -0.528842 42.5355 2.48887C42.9666 5.43474 41.0266 8.66801 38.0807 9.53021Z" fill="white"/>
<path opacity="0.45" d="M71.4193 23.7569C70.9882 23.6132 70.5571 23.4695 70.126 23.3976C67.8987 22.8947 65.3839 22.9665 63.2284 23.5413C61.6477 23.9724 60.3544 24.6191 58.8455 25.122C57.4085 25.625 55.7559 26.0561 54.1034 25.9124C52.0916 25.7687 50.3672 24.6909 49.9361 23.3976C49.505 22.1043 50.3672 20.7392 51.9479 19.9488C54.2471 18.7992 57.193 18.7992 58.8455 20.3081C57.6241 19.9488 56.1871 19.877 55.1811 20.3799C54.1034 20.8829 53.9597 22.1043 54.9656 22.6073C57.2648 23.7569 59.7796 21.4577 61.4321 20.811C64.0906 19.7333 67.5394 20.1644 69.9823 21.2421C70.3416 21.3858 70.7008 21.6014 71.0601 21.8169C71.2038 22.4636 71.3475 23.1102 71.4193 23.7569Z" fill="white"/>
<path opacity="0.45" d="M15.5199 37.4082C13.2206 37.552 11.0651 36.4023 9.19702 35.109C7.32891 33.8157 5.4608 32.3069 3.23344 31.8039C0.934227 31.301 -1.50869 31.8039 -3.30495 33.3128C-3.6642 33.6002 -3.9516 33.8876 -4.239 34.175C-4.3827 32.9535 -4.45455 31.8039 -4.45455 30.5825C-1.07758 29.1455 2.87419 29.0736 6.17931 30.6543C7.25706 31.1573 8.26297 31.8039 9.26887 32.3787C10.3466 32.8817 11.4962 33.3128 12.6458 33.2409C13.7954 33.1691 15.0169 32.5943 15.5917 31.5884C16.1665 30.5825 15.951 29.0736 14.8732 28.427C13.8673 27.8521 12.2866 28.5707 12.2147 29.7203C11.3525 29.2892 11.137 28.2832 11.6399 27.421C12.1429 26.5588 13.0769 26.1277 14.011 25.984C17.0287 25.4811 20.262 27.8521 20.6212 30.9417C21.0523 34.0313 18.5376 37.1208 15.5199 37.4082Z" fill="white"/>
<path opacity="0.45" d="M8.90949 28.9307C6.75397 27.1344 4.02366 26.0566 1.22149 25.9129C-0.646616 25.8411 -2.51473 26.1285 -4.23914 26.7751C-4.16729 26.2003 -4.09543 25.6974 -4.02358 25.1944C-2.22732 24.6196 -0.215514 24.4759 1.6526 24.7633C4.45476 25.1944 7.04138 26.7033 8.90949 28.9307Z" fill="white"/>
<path opacity="0.45" d="M9.26895 4.78873C12.4304 3.06432 16.454 3.78282 19.7591 5.21983C23.0642 6.65684 26.1538 8.81235 29.6026 9.7464C22.3457 9.81825 15.8792 4.28577 9.26895 4.78873Z" fill="white"/>
<path d="M32.6204 64.8552C33.1952 64.2804 33.4108 63.4182 33.1952 62.6997C32.9797 61.9094 32.333 61.3346 31.6145 61.119C32.333 60.7598 32.6204 59.8257 32.333 59.1072C32.0456 58.3887 31.1115 57.9576 30.393 58.1731C31.5427 58.0294 32.4049 56.6643 32.0456 55.5147C31.7582 54.3651 30.4649 53.6466 29.2434 53.7903C28.0938 53.934 27.0879 54.868 26.7287 56.0176C27.4472 54.868 26.9442 53.1436 25.7228 52.497C24.5013 51.8503 22.8488 52.4251 22.274 53.6466C22.9925 52.9999 22.9206 51.7066 22.1303 51.1318C21.3399 50.557 20.1184 50.8444 19.6873 51.7066C20.6214 50.9881 20.8369 49.5511 20.2621 48.5452C19.6873 47.5393 18.2503 47.1082 17.1726 47.6111C16.0948 48.1141 15.4482 49.4074 15.8074 50.4851C15.3763 49.0481 13.3645 48.4015 12.2149 49.3355C11.0653 50.2696 11.1371 52.3533 12.4304 53.1436C18.897 57.0954 26.0102 60.9753 32.6204 64.8552Z" fill="#555C3B"/>
<path d="M22.705 38.4863C22.705 35.6842 24.2139 33.0257 26.2257 30.9421C28.2375 28.9302 30.6804 27.4214 33.1234 25.9844C29.0279 26.7029 25.2198 28.8584 22.8487 32.2354C22.0584 27.3495 23.7828 22.0326 27.3753 18.5838C24.7169 19.0867 22.4895 21.0985 21.8428 23.757C20.1184 20.4519 17.0289 17.8653 13.5082 16.8594C15.0889 18.0808 16.6696 19.3023 17.9629 20.8111C19.2562 22.32 20.334 24.1163 20.6214 26.0562C20.8369 27.6369 20.6214 29.2176 20.4058 30.7984C19.9747 33.5287 19.6155 36.1153 19.1844 38.9174C17.3881 36.4027 15.3763 34.0316 13.1489 31.948C12.2149 31.0858 11.1371 30.1517 9.84382 30.2954C11.4964 31.0858 12.7897 32.3791 13.8674 33.8879C14.8734 35.3249 15.6637 36.9056 16.3822 38.4863C13.9393 38.2708 11.4245 37.9834 8.98162 37.7678C10.2749 38.3426 11.6401 38.8456 13.0052 39.2048C14.9452 39.7078 16.8133 39.7078 17.8911 41.5759C19.1844 43.8033 19.2562 46.6773 18.9688 49.1921C18.8251 50.4135 18.6096 51.635 18.4659 52.8564C18.394 53.6468 17.9629 56.5926 17.1007 56.88C16.3822 57.0956 15.9511 58.5326 16.5259 59.1074C17.0289 59.6104 17.7474 59.5385 18.394 59.5385C21.4117 59.4667 24.4295 60.0415 27.2316 61.1192C24.0702 56.2334 22.6332 50.3417 23.0643 44.5936C23.208 42.8692 23.5673 41.073 24.7887 39.8515C25.7946 38.8456 27.2316 38.3426 28.6686 37.9834C30.0338 37.5523 31.3989 37.193 32.7641 36.7619C29.1716 35.5405 25.6509 36.3308 22.705 38.4863Z" fill="#77383D"/>
<path d="M35.9421 70.5975C35.2311 70.5975 34.4312 70.6773 33.7202 70.6773C28.5653 70.6773 23.5881 69.9588 18.9664 68.6016C8.56772 65.4881 -0.2312 59.3408 -6.00827 51.2775C2.43514 51.038 10.8786 52.7943 18.2554 56.3071C20.5663 57.4248 22.7882 58.6223 24.8324 60.0593C29.1874 63.0132 32.9203 66.5259 35.9421 70.5975Z" fill="#7CA642"/>
<path d="M50.7984 12.4048C50.7984 14.8477 48.7866 16.8596 46.3437 16.8596C43.9008 16.8596 41.889 14.8477 41.889 12.4048C41.889 9.96192 43.9008 7.95011 46.3437 7.95011C48.7866 7.87826 50.7984 9.89007 50.7984 12.4048Z" fill="white"/>
<path d="M13.9391 37.7684C13.9391 37.0499 13.5798 36.3314 13.005 35.9722C12.4302 35.6129 11.7117 35.5411 11.0651 35.9003C11.2088 34.9663 10.8495 34.0322 10.131 33.5292C9.41251 33.0263 8.4066 33.0981 7.75995 33.6011C7.04145 34.1759 6.75405 35.1818 6.9696 36.044C6.39479 35.2537 5.24519 35.11 4.45483 35.6848C3.73633 36.2596 3.44893 37.481 3.95188 38.3432C4.38298 39.2054 5.53259 39.5647 6.32294 39.1336C5.89184 39.6365 5.89184 40.4987 6.39479 40.9298C6.89775 41.3609 7.75995 41.1454 8.04735 40.5706C8.19105 41.2891 8.62216 42.0794 9.26881 42.3668C9.84361 42.7261 10.634 42.6542 11.1369 42.1513C11.6399 41.6483 11.7836 40.7861 11.4243 40.2113C11.8554 40.4987 12.1428 40.6424 12.6458 40.5706C13.1487 40.4987 13.7235 40.2113 13.9391 39.6365C14.0828 39.0617 14.3702 38.0558 13.9391 37.7684Z" fill="#767F3E"/>
<path d="M20.9085 21.027C21.8426 21.0989 22.7048 20.1648 22.6329 19.3026C22.5611 18.3685 21.627 17.65 20.693 17.7937C21.4115 17.1471 21.3396 15.7819 20.5493 15.2071C19.7589 14.6323 18.4656 14.9916 18.0345 15.8538C18.6812 14.5605 17.8908 12.7642 16.4538 12.3331C15.0168 11.902 13.4361 12.9798 13.2205 14.3449C12.7176 14.1294 12.1428 13.7701 11.6398 13.7701C11.065 13.7701 10.5621 13.9857 10.2028 14.4168C9.84357 14.8479 9.69987 15.4227 9.91542 15.9256C10.2028 16.5723 11.065 16.8597 11.7835 17.0034C11.065 17.2189 10.4902 17.9374 10.4184 18.6559C10.4184 19.3744 10.8495 20.0929 11.568 20.3804C12.2865 20.6678 13.0768 20.4522 13.5798 19.8774C13.2924 20.1648 13.3642 20.7396 13.5798 21.0989C13.7953 21.4581 14.2983 21.53 14.6575 21.53C15.0887 21.53 15.4479 21.3863 15.879 21.2426C15.8072 22.1048 16.1664 22.967 16.8849 23.3981C17.6034 23.8292 18.6093 23.7573 19.3278 23.3262C20.1182 22.8233 21.0522 21.8892 20.9085 21.027Z" fill="#767F3E"/>
<path d="M27.3752 27.0624C26.7285 26.9906 26.0819 26.4876 25.9382 25.841C25.7945 25.1943 26.0819 24.4758 26.6567 24.1166C27.2315 23.7573 28.0218 23.8292 28.5248 24.2603C28.0218 23.6855 27.6626 22.6796 27.8063 21.961C27.95 21.1707 28.5248 20.524 29.2433 20.2366C29.9618 19.9492 30.824 20.1648 31.3988 20.6677C31.9736 21.1707 32.1891 22.1047 31.9017 22.8233C32.0454 22.464 32.4047 22.2484 32.8358 22.1766C33.2669 22.1766 33.6262 22.3203 33.9854 22.6077C34.3447 22.8951 34.7039 23.1825 34.7758 23.6136C34.9195 24.0447 34.8476 24.5477 34.4884 24.8351C35.135 24.1166 36.3565 24.1166 37.075 24.6914C37.7935 25.338 37.8653 26.5595 37.2905 27.278C36.6439 27.9965 35.4943 28.0683 34.7039 27.4935C35.135 27.9246 34.9913 28.5713 34.7039 29.1461C34.4165 29.7209 33.7699 30.0801 33.195 30.0083C32.5484 29.9364 32.0454 29.4335 31.9017 28.7868C31.8299 29.2179 31.3988 29.5053 31.1114 29.8646C30.7521 30.152 30.321 30.3675 29.8899 30.2957C29.4588 30.2238 29.0277 29.9364 28.884 29.5053C28.7403 29.0742 28.9559 28.5713 29.387 28.3557C28.9559 28.5713 28.5248 28.6431 28.0937 28.5713C27.8063 28.5713 27.447 28.4276 27.3033 28.212C27.1596 27.9246 27.0878 27.1343 27.3752 27.0624Z" fill="#767F3E"/>
<path d="M11.3525 29.2901C11.4243 28.7153 11.7117 28.1405 12.1428 27.7812C12.7895 28.4998 13.005 29.5775 12.6458 30.5116C13.1487 29.6494 14.442 29.2183 15.3042 29.7212C14.8013 30.7271 13.6517 31.3019 12.5021 31.2301C13.0769 31.1582 13.6517 31.3019 14.1546 31.6612C14.5857 32.0204 14.945 32.5234 15.0168 33.0982C14.3702 33.3137 13.5798 33.17 13.005 32.8108C12.4302 32.4515 12.071 31.8767 11.9273 31.2301C11.7117 30.5116 11.2806 30.0086 11.3525 29.2901Z" fill="#767F3E"/>
<path d="M11.3525 33.9597C11.9273 34.6783 12.8614 35.0375 13.7236 34.822C13.0769 35.3249 12.8614 36.259 13.1488 36.9775C13.2925 37.2649 14.4421 36.1153 14.514 35.9716C14.7295 35.5405 14.8732 34.8938 14.5858 34.4627C14.2984 34.1753 13.6518 33.9598 13.2925 33.8161C12.7177 33.6005 11.9992 33.6005 11.3525 33.9597Z" fill="#767F3E"/>
<path d="M17.8191 24.5474C17.9628 25.4096 18.7531 26.1999 19.6153 26.2718C19.0405 26.4155 18.4657 26.7747 18.2502 27.3495C18.1065 27.6369 18.1065 28.068 18.3939 28.2117C18.6094 28.3554 18.8968 28.2117 19.1842 28.068C19.6872 27.7806 20.1183 27.4932 20.4775 27.0621C20.6931 26.7747 20.9086 26.2718 20.7649 25.9125C20.6931 25.6251 20.4057 25.5533 20.1901 25.3377C19.8309 25.0503 19.5435 24.8348 19.1124 24.6911C18.9687 24.6911 17.8191 24.4755 17.8191 24.5474Z" fill="#767F3E"/>
<path d="M25.4351 19.6613C24.7885 19.7331 24.1418 19.3739 23.7825 18.7272C23.4233 18.1524 23.3514 17.2902 23.6388 16.6436C24.2136 16.7873 24.8603 17.0747 25.2196 17.5776C25.507 18.0806 25.4351 18.9428 25.4351 19.6613Z" fill="#767F3E"/>
<path d="M26.2976 17.0756C26.4413 16.5008 26.8724 15.9979 27.3753 15.7104C27.6627 16.429 27.6627 17.2912 27.3035 17.9378C27.7346 17.7223 28.2375 17.5786 28.6686 17.363C28.8842 17.2912 29.2435 17.1475 29.3872 17.363C29.5309 17.5067 29.459 17.7941 29.3872 17.9378C29.1716 18.4408 28.6687 18.8 28.1657 19.0156C27.7346 19.1593 26.9442 19.303 26.585 18.8C26.2976 18.3689 26.2257 17.6504 26.2976 17.0756Z" fill="#767F3E"/>
<path d="M29.0997 36.4744C28.453 36.2589 27.9501 35.7559 27.7345 35.1811C27.519 34.5344 27.5908 33.8159 27.9501 33.313C28.453 33.3848 28.8841 33.7441 29.2434 34.1033C29.5308 34.5344 29.6745 35.0374 29.6026 35.5403C30.1056 34.5344 31.2552 33.8159 32.4048 33.8159C32.4048 34.6063 32.0455 35.3248 31.4707 35.8278C30.8959 36.3307 29.8182 36.69 29.0997 36.4744Z" fill="#767F3E"/>
<path d="M26.8723 37.9834C27.4471 37.9834 28.0937 37.9834 28.6686 38.1989C29.2434 38.4145 29.6745 38.9175 29.7463 39.4923C29.1715 39.8515 28.453 39.8515 27.8782 39.636C27.3034 39.3486 26.9441 38.6301 26.8723 37.9834Z" fill="#767F3E"/>
<path d="M31.8299 36.4023C32.4766 35.8994 33.3388 35.6838 34.1291 35.7557C34.5602 35.7557 35.0632 35.9712 35.2069 36.3305C34.8476 36.9053 34.0573 37.2645 33.3388 37.3364C32.6921 37.3364 32.261 36.8334 31.8299 36.4023Z" fill="#767F3E"/>
<path d="M39.1586 55.3718C38.7994 54.8689 38.4401 54.3659 38.0809 53.863C38.6557 54.1504 39.1586 54.5096 39.5897 55.0126C39.6616 54.4378 39.6616 53.863 39.7334 53.2163C40.0208 53.7193 40.3082 54.2941 40.5238 54.797C40.8112 54.2222 41.386 53.7193 42.0326 53.5756C41.8889 54.0067 41.7452 54.4378 41.6015 54.8689C42.0327 54.4378 42.6075 54.2941 43.1823 54.3659C42.823 54.6533 42.5356 55.0126 42.1764 55.3C41.0986 55.4437 40.2364 55.3 39.1586 55.3718Z" fill="#99B94A"/>
<path d="M48.8585 47.1803C48.5711 46.6055 48.0682 46.1744 47.4934 45.9588C48.0682 46.2462 48.5711 46.4618 49.1459 46.7492C49.0022 46.2462 48.7867 45.6714 48.643 45.1685C49.2178 45.4559 49.7207 45.9588 49.9363 46.5336C50.08 46.1025 50.2955 45.5996 50.4392 45.1685C50.5829 45.5996 50.6548 46.0307 50.6548 46.4618C50.9422 45.9588 51.6607 45.7433 52.1636 45.9588C51.5888 46.1025 51.1577 46.6773 51.2296 47.2521C50.3674 47.1084 49.7207 47.1803 48.8585 47.1803Z" fill="#99B94A"/>
<path d="M53.4568 53.2163C53.9597 53.2163 54.5345 53.4318 54.9656 53.7192C54.8219 53.1444 54.5345 52.6415 54.1753 52.2822C54.822 52.4259 55.3968 52.9289 55.6123 53.5755C55.8279 53.0726 56.259 52.5696 56.7619 52.2822C56.6182 52.7133 56.4745 53.1444 56.259 53.5037C56.6182 53.0726 57.193 52.7852 57.7678 52.7852C57.2649 53.0726 56.8338 53.5755 56.5464 54.0785C56.4745 54.1503 54.8938 54.0066 54.7501 53.9348C54.2471 53.8629 54.0316 53.36 53.4568 53.2163Z" fill="#99B94A"/>
<path d="M61.5759 44.809C61.3603 44.2342 60.8574 43.8031 60.2826 43.5157C60.9292 43.5875 61.504 43.8031 61.9351 44.2342C62.007 43.8031 62.2225 43.3719 62.5099 43.0127C62.5099 43.3719 62.5099 43.7312 62.4381 44.0905C62.7255 43.7312 63.2284 43.5157 63.6595 43.5875C63.3721 43.8749 63.1566 44.2342 63.0847 44.6653C62.7255 44.809 62.1507 44.7371 61.5759 44.809Z" fill="#99B94A"/>
<path d="M39.9037 62.7414C39.9037 61.7088 40.3391 60.7556 41.2098 60.0408C41.9934 59.3259 43.1253 59.0082 44.2572 59.0876C43.7348 60.5968 41.6451 62.5031 39.9037 62.7414Z" fill="#767F3E"/>
<path d="M45.9112 61.5503C47.1302 60.2794 49.2198 59.8823 50.8741 60.5972C49.9164 61.7092 47.3914 61.9475 45.9112 61.5503Z" fill="#767F3E"/>
<path d="M48.6103 54.1635C48.5232 53.4486 48.7844 52.6543 49.3939 52.0983C50.0034 51.5423 50.8741 51.304 51.6577 51.4629C51.3094 52.7338 50.0034 54.0047 48.6103 54.1635Z" fill="#767F3E"/>
<path d="M42.7765 49.874C43.0377 49.1591 43.7343 48.5237 44.5179 48.1265C45.3015 47.8088 46.2592 47.7294 47.0429 47.9677C46.4334 49.1591 44.0825 50.1917 42.7765 49.874Z" fill="#767F3E"/>
<path d="M32.5025 57.8164C32.5896 57.4987 32.9379 57.3398 33.2861 57.3398C33.6344 57.3398 33.9827 57.4193 34.331 57.4987C35.2016 57.737 36.1594 57.9753 37.0301 58.2136C36.5077 58.6902 35.724 59.1668 34.9404 59.0873C34.2439 58.9285 32.9379 58.3724 32.5025 57.8164Z" fill="#767F3E"/>
<path d="M64.6309 47.0939C65.5887 46.0613 67.3301 45.823 68.549 46.4584C67.5042 47.4116 65.8499 47.8882 64.6309 47.0939Z" fill="#767F3E"/>
<path d="M57.4917 41.8516C59.146 41.0573 61.3227 41.2162 62.8899 42.0899C61.5839 43.2019 58.8847 42.8048 57.4917 41.8516Z" fill="#767F3E"/>
<path d="M5.16327 57.2612C6.29516 56.4669 8.1236 56.5463 9.25549 57.42C7.94946 58.2938 6.4693 58.2144 5.16327 57.2612Z" fill="#767F3E"/>
<path d="M14.3055 57.1016C15.0891 56.7839 16.0468 56.7839 16.8304 57.1016C17.6141 57.4193 18.3106 58.0547 18.5718 58.7696C17.0917 59.1668 15.002 58.3725 14.3055 57.1016Z" fill="#767F3E"/>
<path d="M39.6617 30.8712C40.8832 30.5838 42.3202 31.0868 43.1105 32.0927C42.5357 32.4519 41.7454 32.7393 41.0269 32.5238C40.3802 32.3082 39.8773 31.5179 39.6617 30.8712Z" fill="#767F3E"/>
<path d="M56.1154 30.5826C56.8339 29.6485 58.2709 29.2892 59.3486 29.7922C58.7738 31.0137 57.3368 31.2292 56.1154 30.5826Z" fill="#767F3E"/>
<path d="M41.7453 20.4525C43.0386 19.5184 44.9067 19.4466 46.2719 20.3088C45.8408 20.9554 44.9786 21.4584 44.1882 21.5302C43.3979 21.6739 42.3201 21.0273 41.7453 20.4525Z" fill="#767F3E"/>
<path d="M24.4294 4.78881C25.7946 3.7829 27.7346 3.4955 29.3153 4.0703C28.4531 5.36361 25.7228 5.65101 24.4294 4.78881Z" fill="#767F3E"/>
<path d="M61.4322 20.8834C62.7255 19.7338 64.6655 19.5182 66.1744 20.3804C65.1685 21.53 62.51 21.9611 61.4322 20.8834Z" fill="#767F3E"/>
</g>
</svg>
