<svg width="21" height="17" viewBox="0 0 21 17" fill="none" xmlns="http://www.w3.org/2000/svg">
<path d="M19 3.0084C19 2.16409 18.255 1.48105 17.3341 1.48105H3.6762C2.74498 1.47157 2 2.1546 2 3.0084V6.4805H19V3.0084Z" fill="#FFB200"/>
<path d="M2.25 15.4723V6.729H18.7397V15.4723C18.7397 16.1586 18.1275 16.7497 17.3238 16.7497H3.66586C2.86218 16.7497 2.25 16.1586 2.25 15.4723Z" fill="#FFFFFA" stroke="#506C82" stroke-width="0.5"/>
<path d="M4.91837 0H4.26651C4.01819 0 3.81125 0.189732 3.81125 0.417411V3.37723C3.81125 3.60491 4.01819 3.79464 4.26651 3.79464H4.91837C5.1667 3.79464 5.37363 3.60491 5.37363 3.37723V0.417411C5.37363 0.189732 5.1667 0 4.91837 0Z" fill="#506C82"/>
<path d="M8.52834 0C8.09377 0 7.74197 0.284598 7.74197 0.635603V3.15904C7.74197 3.51005 8.09377 3.79464 8.52834 3.79464C8.96291 3.79464 9.31471 3.51005 9.31471 3.15904V0.635603C9.31471 0.284598 8.96291 0 8.52834 0Z" fill="#506C82"/>
<path d="M12.4712 0C12.0366 0 11.6848 0.284598 11.6848 0.635603V3.15904C11.6848 3.51005 12.0366 3.79464 12.4712 3.79464C12.9058 3.79464 13.2576 3.51005 13.2576 3.15904V0.635603C13.2576 0.284598 12.9058 0 12.4712 0Z" fill="#506C82"/>
<path d="M16.7344 0H16.0826C15.8343 0 15.6273 0.189732 15.6273 0.417411V3.37723C15.6273 3.60491 15.8343 3.79464 16.0826 3.79464H16.7344C16.9828 3.79464 17.1897 3.60491 17.1897 3.37723V0.417411C17.2001 0.189732 16.9931 0 16.7344 0Z" fill="#506C82"/>
<path d="M8.08955 10.0286C8.08955 9.69271 7.78891 9.4343 7.40372 9.41707C6.82124 9.38262 6.08844 9.72716 5.87236 9.89944L5.55294 8.72798C6.06026 8.39204 6.86822 8.15086 7.51646 8.1767C9.46119 8.27145 10.1094 9.83053 9.00085 11.2518L7.69496 13.1037H9.65849V14.3355H5.28049L7.75133 10.735C8.10834 10.2698 8.08955 10.0286 8.08955 10.0286Z" fill="#506C82"/>
<path d="M12.8713 9.41711H10.2032V8.27148H14.7503L12.0445 14.3355H10.6259L12.8713 9.41711Z" fill="#506C82"/>
</svg>
