<svg width="23" height="21" viewBox="0 0 23 21" fill="none" xmlns="http://www.w3.org/2000/svg">
<path d="M15.742 7.81787H21V21.0002H15.742V7.81787Z" fill="#F1C40F"/>
<path d="M19.7832 9.25781H20.4498V9.89082H19.7832V9.25781Z" fill="white"/>
<path d="M18.617 9.25781H19.2836V9.89082H18.617V9.25781Z" fill="white"/>
<path d="M17.4504 9.25781H18.0337V9.89082H17.4504V9.25781Z" fill="white"/>
<path d="M19.7832 10.2075H20.4498V10.8405H19.7832V10.2075Z" fill="white"/>
<path d="M18.617 10.2075H19.2836V10.8405H18.617V10.2075Z" fill="white"/>
<path d="M17.4504 10.2075H18.0337V10.8405H17.4504V10.2075Z" fill="white"/>
<path d="M19.7832 11.1567H20.4498V11.7897H19.7832V11.1567Z" fill="white"/>
<path d="M17.4504 11.1567H18.0337V11.7897H17.4504V11.1567Z" fill="white"/>
<path d="M19.7832 12.1064H20.4498V12.7395H19.7832V12.1064Z" fill="white"/>
<path d="M18.617 12.1064H19.2836V12.7395H18.617V12.1064Z" fill="white"/>
<path d="M17.4504 12.1064H18.0337V12.7395H17.4504V12.1064Z" fill="white"/>
<path d="M19.7832 13.1348H20.4498V13.6886H19.7832V13.1348Z" fill="white"/>
<path d="M17.4504 13.1348H18.0337V13.6886H17.4504V13.1348Z" fill="white"/>
<path d="M19.7832 14.0845H20.4498V14.6384H19.7832V14.0845Z" fill="white"/>
<path d="M18.617 14.0845H19.2836V14.6384H18.617V14.0845Z" fill="white"/>
<path d="M17.4504 14.0845H18.0337V14.6384H17.4504V14.0845Z" fill="white"/>
<path d="M18.617 15.0342H19.2836V15.5881H18.617V15.0342Z" fill="white"/>
<path d="M19.7832 15.9834H20.4498V16.5373H19.7832V15.9834Z" fill="white"/>
<path d="M18.617 15.9834H19.2836V16.5373H18.617V15.9834Z" fill="white"/>
<path d="M17.4504 15.9834H18.0337V16.5373H17.4504V15.9834Z" fill="white"/>
<path d="M18.617 16.9331H19.2836V17.487H18.617V16.9331Z" fill="white"/>
<path d="M17.4504 16.9331H18.0337V17.487H17.4504V16.9331Z" fill="white"/>
<path d="M19.7832 17.8823H20.4498V18.5153H19.7832V17.8823Z" fill="white"/>
<path d="M17.4504 17.8823H18.0337V18.5153H17.4504V17.8823Z" fill="white"/>
<path d="M19.7832 18.832H20.4498V19.465H19.7832V18.832Z" fill="white"/>
<path d="M18.617 18.832H19.2836V19.465H18.617V18.832Z" fill="white"/>
<path d="M9.15564 11.505V7.60408V4.38366H10.0501V2.48464H11.5137V0.0317383H12.6521V2.48464H14.1158V4.38366H15.0102V7.60408V11.505H15.7421V21.0001H8.3425V11.505H9.15564ZM11.839 5.25404V7.8652H12.4895V5.25404H11.839ZM10.6193 7.8652H11.2698V5.25404H10.6193V7.8652ZM10.6193 8.81471V11.4259H11.2698V8.81471H10.6193ZM12.4895 8.81471H11.839V11.4259H12.4895V8.81471ZM13.14 7.8652H13.7905V5.25404H13.14V7.8652ZM13.7905 8.81471H13.14V11.4259H13.7905V8.81471ZM15.0102 16.4108V13.9341V13.1666H14.3597V16.4108H15.0102ZM13.7092 16.4108V13.1666H13.14V16.4108H13.7092ZM12.4895 16.4108V13.1666H11.839V16.4108H12.4895ZM11.2698 16.4108V13.1666H10.6193V16.4108H11.2698ZM9.88746 16.4108V13.1666H9.23695V16.4108H9.88746Z" fill="#3EBFC1"/>
<path d="M14.3597 13.1665H15.0102V13.934V16.4107H14.3597V13.1665Z" fill="white"/>
<path d="M13.1401 13.1665H13.7093V16.4107H13.1401V13.1665Z" fill="white"/>
<path d="M11.8391 13.1665H12.4896V16.4107H11.8391V13.1665Z" fill="white"/>
<path d="M10.6194 13.1665H11.2699V16.4107H10.6194V13.1665Z" fill="white"/>
<path d="M9.237 13.1665H9.88751V16.4107H9.237V13.1665Z" fill="white"/>
<path d="M13.14 8.81494H13.7905V11.4261H13.14V8.81494Z" fill="white"/>
<path d="M11.8391 8.81494H12.4896V11.4261H11.8391V8.81494Z" fill="white"/>
<path d="M10.6194 8.81494H11.2699V11.4261H10.6194V8.81494Z" fill="white"/>
<path d="M13.14 5.25391H13.7905V7.86506H13.14V5.25391Z" fill="white"/>
<path d="M11.8391 5.25391H12.4896V7.86506H11.8391V5.25391Z" fill="white"/>
<path d="M10.6194 5.25391H11.2699V7.86506H10.6194V5.25391Z" fill="white"/>
<path d="M1.99998 21.0002C1.99998 21.0002 1.99998 15.2478 1.99998 10.698C1.99998 6.14828 8.34247 3.14941 8.34247 3.14941V21.0002H1.99998Z" fill="#FF4959"/>
<path d="M6.72441 14.3218H7.45624V16.8538H6.72441V14.3218Z" fill="white"/>
<path d="M5.50469 14.3218H6.23651V16.8538H5.50469V14.3218Z" fill="white"/>
<path d="M3.14644 14.3218H3.71564V16.8538H3.14644V14.3218Z" fill="white"/>
<path d="M6.72441 10.8403H7.45624V13.4515H6.72441V10.8403Z" fill="white"/>
<path d="M4.36617 10.8403H4.93536V13.4515H4.36617V10.8403Z" fill="white"/>
<path d="M3.14644 10.8403H3.71564V13.4515H3.14644V10.8403Z" fill="white"/>
<path d="M6.72441 7.35889H7.45624V9.97004H6.72441V7.35889Z" fill="white"/>
<path d="M5.50469 7.35889H6.23651V9.97004H5.50469V7.35889Z" fill="white"/>
</svg>
