<svg width="52" height="48" viewBox="0 0 52 48" fill="none" xmlns="http://www.w3.org/2000/svg">
<path d="M26.0001 10.0009V8.00049H4.33357C1.95066 8.00049 0 9.80171 0 12.0007V42.3449L15.1665 28.3443L21.4806 34.1728L33.2704 21.9309C28.9199 19.4654 26.0001 15.0476 26.0001 10.0009ZM10.8336 22.0011C8.43768 22.0011 6.50002 20.21 6.50002 18.0008C6.50002 15.7916 8.43768 14.0006 10.8336 14.0006C13.2269 14.0006 15.1665 15.7916 15.1665 18.0008C15.1665 20.21 13.2269 22.0011 10.8336 22.0011Z" fill="#2B92D5"/>
<path d="M41.1669 0C35.1856 0 30.334 4.47665 30.334 10.0003C30.334 15.5216 35.1856 20 41.1669 20C47.1489 20 52.0005 15.5216 52.0005 10.0003C52.0005 4.47665 47.1489 0 41.1669 0ZM47.667 11.5003H42.7919V16.0004H39.5419V11.5003H34.6669V8.5003H39.5419V4.00025H42.7919V8.5003H47.667V11.5003Z" fill="#2B92D5"/>
<path d="M41.168 24.0005C39.8985 24.0005 38.6713 23.8403 37.4929 23.5667L21.6679 40.0008L15.1679 34.0008L1.27539 46.8247C2.05994 47.5513 3.1435 48.0007 4.33495 48.0007H39.0015C41.3838 48.0007 43.3351 46.2001 43.3351 44.0005V24.0005H41.168Z" fill="#2B92D5"/>
</svg>
