<svg width="25" height="16" viewBox="0 0 25 16" fill="none" xmlns="http://www.w3.org/2000/svg">
<path d="M23.0689 13.6311C22.3317 9.21555 21.7069 4.47095 20.7962 0.308857C17.8889 0.882717 8.13955 2.50588 5.23224 3.07974C6.37097 7.03164 7.49258 11.1292 8.63134 15.0865C10.9974 14.8574 20.7028 13.8602 23.0689 13.6311Z" fill="#FFD9C2"/>
<path d="M21.9214 12.8109C20.6478 12.9334 16.8996 13.3119 13.767 13.6319C13.6162 13.6479 13.4713 13.6639 13.3264 13.6745C12.8798 13.7171 12.4452 13.7651 12.0408 13.8024C10.894 13.9197 9.95843 14.0103 9.43332 14.0636C8.96299 12.4332 8.49244 10.7704 8.02189 9.10758C7.9723 8.92403 7.9167 8.74586 7.86715 8.5677C7.77423 8.23298 7.67528 7.89826 7.58236 7.56354C7.22326 6.29483 6.86419 5.03153 6.4992 3.7844C7.76589 3.53772 10.5349 3.05544 13.298 2.58394C13.485 2.55179 13.678 2.51965 13.865 2.4875C14.1003 2.44462 14.3356 2.40713 14.5709 2.36425C16.8271 1.97308 18.9144 1.60868 19.97 1.40491C20.3505 3.14856 20.6715 5.01087 20.9805 6.89475C21.0372 7.22943 21.0878 7.56409 21.1445 7.90417L21.1888 8.20105C21.4291 9.75564 21.6694 11.3048 21.9214 12.8109Z" fill="#779A32"/>
<path d="M13.3265 13.6805C12.8799 13.7231 12.4453 13.7712 12.0409 13.8084C10.8941 13.9257 9.95853 14.0163 9.43342 14.0696C8.96309 12.4392 8.49254 10.7764 8.02199 9.11359C7.9724 8.93003 7.9168 8.75187 7.86725 8.57371C10.0014 7.99889 12.1296 7.42407 14.2637 6.84926C14.4795 9.22953 14.2781 11.5391 13.3265 13.6805Z" fill="#526B23"/>
<path d="M21.1384 7.9033C19.1271 8.79129 16.7122 8.9502 14.5756 8.29453C14.9487 6.35213 14.693 4.3172 13.871 2.48666C14.1062 2.44377 14.3415 2.40629 14.5768 2.3634C16.8331 1.97223 18.9204 1.60784 19.976 1.40406C20.3565 3.14772 20.6774 5.01002 20.9864 6.89391C21.031 7.23396 21.0877 7.56864 21.1384 7.9033Z" fill="#96AB28"/>
<path d="M14.6352 7.28702C12.4287 7.88873 10.2224 8.51203 8.02196 9.11374C7.87345 8.60086 7.73094 8.08259 7.58239 7.5643C9.88629 7.07605 12.1655 6.51221 14.42 5.86738C14.4898 6.34779 14.5715 6.81202 14.6352 7.28702Z" fill="white"/>
<path d="M10.2138 13.9459C8.80562 13.8254 6.77054 13.882 5.3642 14.0205C4.19693 10.3707 2.77039 6.7853 1.09689 3.29673C2.89781 2.58133 4.63206 1.83346 6.54364 1.39344C6.64849 1.7012 6.75334 2.00896 6.85211 2.31131C8.04282 5.85861 9.18559 9.45981 10.0205 13.0822C10.089 13.3737 10.1514 13.6598 10.2138 13.9459Z" fill="#FFF6E7"/>
<path d="M10.2099 13.9446C10.2099 13.9446 9.87082 14.6456 8.62515 15.1242L8.26659 13.8829C8.27259 13.8775 9.70845 13.8523 10.2099 13.9446Z" fill="#CCBCB2"/>
<path d="M10.0187 13.0821C8.73827 13.0913 7.08904 13.0461 5.94765 13.0716C5.278 11.441 4.60832 9.80488 3.93867 8.1742C3.86492 7.99062 3.79117 7.80703 3.71138 7.62344C3.61921 7.39666 3.527 7.16448 3.42879 6.93769C3.01719 5.93877 2.61164 4.93985 2.2 3.93552C3.44055 3.40278 5.35681 2.75753 6.83955 2.31143C7.19724 3.37505 7.54888 4.43867 7.88852 5.51306C7.94411 5.69122 7.99971 5.86939 8.06134 6.04756C8.1355 6.29051 8.2157 6.53347 8.28987 6.77642C8.93857 8.8712 9.53295 10.9713 10.0187 13.0821Z" fill="#95AA27"/>
<path d="M10.0186 13.0819C8.73819 13.0911 7.08896 13.0459 5.94757 13.0715C5.27792 11.4408 4.60824 9.80472 3.93859 8.17404C3.86484 7.99046 3.79109 7.80687 3.7113 7.62328C5.1266 7.03138 6.58463 6.5043 8.06126 6.0474C8.13542 6.29035 8.21562 6.53331 8.28979 6.77626C8.93849 8.87104 9.53287 10.9711 10.0186 13.0819Z" fill="#71821E"/>
<path d="M15.4298 7.77226C15.4028 8.23636 15.3577 8.70043 15.2824 9.16447C15.0395 10.7131 14.5244 12.2235 13.7671 13.6312C13.1635 13.6898 12.5781 13.7538 12.0409 13.8071C13.3685 11.8983 14.09 9.66489 14.165 7.4145C14.1797 6.92881 14.1703 6.44308 14.1247 5.95731C14.0201 4.80765 13.7465 3.67397 13.2981 2.58865C13.7264 2.51363 14.1487 2.44399 14.571 2.36896C15.2534 4.10219 15.5259 5.94285 15.4298 7.77226Z" fill="white"/>
<path d="M21.189 8.20662C19.143 9.31044 16.6086 9.65809 14.3507 8.92672C14.3659 8.51118 14.4172 8.0687 14.4325 7.65856C16.6395 8.01209 18.957 7.73433 20.9806 6.90033C21.0501 7.33216 21.1195 7.76939 21.189 8.20662Z" fill="white"/>
<path d="M8.29604 6.78096C6.86217 7.30807 5.42785 7.77042 3.94484 8.17874C3.77892 7.76837 3.74212 7.68738 3.5762 7.27701C5.03415 6.73913 6.31206 6.36834 7.99947 5.81995C8.12918 6.23567 8.16625 6.35445 8.29604 6.78096Z" fill="white"/>
<path d="M17.7241 7.01158C17.6412 6.36403 17.4681 5.75953 17.3851 5.10658C16.9748 5.10607 16.5048 5.19721 16.0945 5.1967C16.1348 5.79025 16.1691 6.37839 16.2094 6.97193C16.6381 7.02102 17.2954 6.96249 17.7241 7.01158Z" fill="#BFC330"/>
<path d="M16.6238 4.7065C16.5921 4.49603 16.5603 4.26399 16.5285 4.05352C16.3047 4.06404 16.1176 4.12855 15.8939 4.14446C15.9315 4.34414 15.9692 4.54382 16.013 4.74351C16.164 4.71133 16.4727 4.73329 16.6238 4.7065Z" fill="#BFC330"/>
<path d="M13.5939 5.47639C13.0218 5.62676 12.4196 5.79866 11.8474 5.94902C11.7675 5.73311 11.6695 5.51717 11.5895 5.30126C11.8364 5.22603 12.1076 5.1778 12.3728 5.14036C12.2803 4.85429 12.1818 4.56282 12.0893 4.27675C12.4747 4.17471 12.9084 4.06195 13.3062 4.00849C13.3938 4.45102 13.4943 5.02845 13.5939 5.47639Z" fill="#93BF3E"/>
<path d="M11.4001 6.03252C11.3504 5.81664 11.3067 5.60617 11.2569 5.39029C10.8414 5.51926 10.3835 5.632 9.95544 5.70161C10.0294 5.92291 10.1094 6.14422 10.1833 6.36553C10.5932 6.2905 10.9963 6.10755 11.4001 6.03252Z" fill="#93BF3E"/>
<path d="M18.905 12.6019C18.9512 12.2998 18.973 11.9546 19.0192 11.6525C18.6265 11.625 18.2279 11.6083 17.8352 11.5809C17.8335 11.3381 17.8077 11.0952 17.806 10.8525C17.1654 10.7761 16.525 10.7268 15.8849 10.7206C15.606 11.4378 15.3816 12.1659 15.2116 12.9103C16.376 12.7607 17.7341 12.676 18.905 12.6019Z" fill="#8FBA3B"/>
<path d="M21.0523 10.6336C21.0014 10.2451 20.9141 9.84032 20.8029 9.4625C20.2359 9.49957 19.6877 9.62298 19.1519 9.78957C19.1723 10.1187 19.2349 10.4479 19.3457 10.7664C19.8824 10.7239 20.5156 10.6761 21.0523 10.6336Z" fill="#8FBA3B"/>
<path d="M6.43718 12.2239C7.2452 12.0306 8.1562 11.8806 8.98924 11.8115C8.8534 11.385 8.74143 10.9153 8.6056 10.4888C8.05655 10.5745 7.60445 10.7034 7.0554 10.7891C6.71804 10.0439 6.33874 9.34725 6.00138 8.60207C5.57906 8.6717 5.17531 8.80612 4.80818 8.99456C5.37663 9.9667 6.06152 11.1818 6.43718 12.2239Z" fill="#869922"/>
<path d="M7.88565 8.71932C7.79939 8.46562 7.68896 8.2065 7.60274 7.95821C7.29556 8.04955 6.96439 8.16244 6.65721 8.25378C6.75527 8.46972 6.8473 8.68566 6.94536 8.9016C7.25254 8.81025 7.5845 8.81067 7.88565 8.71932Z" fill="#869922"/>
<path opacity="0.3" d="M14.1154 14.2248C15.9281 9.96356 17.4442 5.61018 18.6881 1.19171C17.8191 1.30397 16.915 1.58348 16.0954 1.84691C14.433 6.01121 12.8796 10.2134 11.4473 14.4482C12.2986 14.3953 13.2641 14.2777 14.1154 14.2248Z" fill="white"/>
<path opacity="0.3" d="M20.3722 1.03664C20.0525 1.10101 19.6904 1.13834 19.3647 1.2027C18.5487 5.48138 17.4606 9.71116 16.1123 13.8758C16.7828 13.8821 17.5074 13.856 18.1711 13.7651L20.7903 2.97463C20.6167 2.33759 20.4733 1.68439 20.3722 1.03664Z" fill="white"/>
<path d="M20.4763 6.46526C20.5704 6.22556 20.6802 5.94229 20.7743 5.7026C20.2772 5.44128 19.6187 5.21811 19.0357 5.20362C18.9344 5.51569 18.833 5.82776 18.7317 6.13984C19.2355 6.29264 19.9805 6.30513 20.4763 6.46526Z" fill="#FF9600"/>
<path d="M18.9901 15.1167C21.7726 15.0787 23.9993 13.0062 23.9635 10.4876C23.9277 7.96898 21.6429 5.95808 18.8603 5.9961C16.0778 6.03412 13.8511 8.10666 13.8869 10.6253C13.9227 13.1438 16.2075 15.1547 18.9901 15.1167Z" fill="#BA2C00"/>
<path d="M18.5903 14.5463C21.2643 14.632 23.4347 12.7589 23.438 10.3626C23.4414 7.9663 21.2764 5.95426 18.6024 5.86855C15.9285 5.78285 13.7581 7.65595 13.7548 10.0522C13.7514 12.4485 15.9164 14.4606 18.5903 14.5463Z" fill="#FE6F09"/>
<path d="M22.1696 11.5088C22.9804 9.74536 22.0374 7.73269 20.0634 7.01335C18.0895 6.294 15.832 7.14037 15.0213 8.90377C14.2106 10.6672 15.1535 12.6798 17.1275 13.3992C19.1015 14.1185 21.3589 13.2722 22.1696 11.5088Z" fill="#FFFEFF"/>
<path d="M19.1214 10.7033C18.2111 11.1121 17.2831 11.4054 16.3639 11.7565C17.0441 11.0831 17.7162 10.417 18.3964 9.74362C19.2117 9.50947 20.3166 9.1055 21.1319 8.87135C20.4911 9.45753 19.7541 10.1172 19.1214 10.7033Z" fill="#D34E16"/>
<path d="M18.3876 9.74462C17.7077 10.418 17.0358 11.0841 16.3559 11.7575C17.2747 11.4064 18.2024 11.1203 19.1123 10.7043L18.3876 9.74462Z" fill="#2C95C5"/>
<path d="M19.6033 10.4985C19.4303 10.9054 18.9231 11.1213 18.4678 10.9679C18.0125 10.8145 17.7721 10.3621 17.9451 9.95518C18.118 9.54825 18.6253 9.33236 19.0806 9.48576C19.5359 9.63917 19.7763 10.0916 19.6033 10.4985Z" fill="#812A00"/>
<path d="M16.1503 8.81815C16.0853 8.81173 16.0284 8.8052 15.9714 8.79145C15.8981 8.77789 15.817 8.78612 15.7519 8.77247C15.5158 8.72479 15.4139 9.01518 15.6422 9.09188C15.7074 9.11275 15.7649 9.16264 15.8382 9.18342C15.8953 9.2044 15.9525 9.22538 16.0015 9.25369C16.1486 9.32416 16.3429 9.27839 16.3978 9.12591C16.4445 8.96631 16.3211 8.83773 16.1503 8.81815Z" fill="#812A00"/>
<path d="M19.6164 7.48231C19.614 7.28718 19.3533 7.21811 19.2255 7.37871C19.0568 7.51814 18.9321 7.93169 19.2172 8.00769C19.5103 8.08358 19.6677 7.68408 19.6164 7.48231Z" fill="#812A00"/>
<path d="M17.8601 12.651C17.8259 12.5213 17.6461 12.4729 17.5332 12.5611C17.4203 12.6492 17.3491 12.8163 17.3753 12.9533C17.4096 13.0903 17.614 13.1528 17.7348 13.0501C17.8476 12.9547 17.9024 12.7806 17.8601 12.651Z" fill="#812A00"/>
<path d="M21.7771 11.0916C21.6382 11.0283 21.4835 11.0013 21.3208 10.9816C21.0849 10.9556 20.9753 11.2822 21.1796 11.3809C21.3185 11.4443 21.4653 11.493 21.6281 11.5127C21.8722 11.5459 21.9976 11.1829 21.7771 11.0916Z" fill="#812A00"/>
<path d="M18.7809 10.6295C19.032 10.6264 19.2333 10.4427 19.2305 10.2192C19.2277 9.99566 19.0218 9.81697 18.7707 9.82007C18.5196 9.82317 18.3183 10.0069 18.3212 10.2304C18.324 10.4539 18.5298 10.6326 18.7809 10.6295Z" fill="#4A1803"/>
<path d="M21.5597 5.53448C21.2639 5.20562 20.6476 5.16263 20.2087 5.0524C19.7537 4.94236 19.2324 4.72472 18.7638 4.82448C18.5941 4.86271 18.5319 5.06588 18.6548 5.17279C19.0069 5.47203 19.5745 5.51562 20.0296 5.62565C20.4684 5.72866 21.0224 5.97481 21.466 5.81754C21.6113 5.77238 21.6501 5.64179 21.5597 5.53448Z" fill="#FE6F09"/>
</svg>
