<svg width="17" height="26" viewBox="0 0 17 26" fill="none" xmlns="http://www.w3.org/2000/svg">
<path d="M16.9799 3.63272C16.9799 1.62645 15.4213 0.0385597 13.4987 0.0860811C11.576 0.133603 10.0174 1.79854 10.0174 3.80481C10.0174 5.81109 11.576 7.39898 13.4987 7.35145C15.4213 7.30393 16.9799 5.639 16.9799 3.63272Z" fill="#E8E8E8"/>
<path d="M11.4164 5.84564L11.4235 5.853L11.4164 5.87507L11.4092 5.86771C11.4021 5.86771 10.7104 5.50724 10.4466 4.6833V4.67594L10.4537 4.66858V4.67594C10.7247 5.48517 11.4092 5.84564 11.4164 5.84564ZM13.5199 6.39739H13.4985L13.4914 6.4121L13.4985 6.41946C13.4985 6.41946 13.4985 6.41946 13.5057 6.41946H13.5128C13.6483 6.41946 14.5183 6.39003 15.1458 5.72793L15.1529 5.72058L15.1386 5.70586L15.1315 5.71322C14.5111 6.38267 13.634 6.40474 13.5199 6.39739ZM11.1953 1.05649L11.2024 1.04913L11.1882 1.03442L11.181 1.04178C10.4893 1.68916 10.3467 2.26297 10.2968 2.63816V2.64552H10.3182V2.63816C10.3681 2.27033 10.5036 1.69651 11.1953 1.05649ZM11.7943 3.03542H11.8014V3.01335H11.7943C11.5162 3.01335 10.9029 3.18991 10.418 3.44003L10.4109 3.44739L10.418 3.46946L10.4252 3.4621C10.9101 3.21198 11.5233 3.03542 11.7943 3.03542ZM12.6714 4.05799H12.65L12.4646 5.56609V5.57345H12.486L12.6714 4.06534V4.05799ZM12.5074 1.93193L12.5288 1.92457L12.1651 0.696016V0.68866L12.1437 0.696016L12.5002 1.92457L12.5074 1.93193ZM13.8194 3.52095L13.8123 3.54302L13.8194 3.55038C13.8266 3.55038 14.5824 3.91085 15.2385 4.53616L15.2456 4.54352L15.2599 4.52881L15.2527 4.52145C14.5896 3.88878 13.8337 3.53567 13.8266 3.52831L13.8194 3.52095ZM13.7481 2.18941L13.741 2.19676L13.7553 2.21883L13.7624 2.21148C13.7695 2.20412 14.7393 1.55674 15.0602 1.44639H15.0673L15.0602 1.41696H15.0531C14.7322 1.53467 13.7553 2.18205 13.7481 2.18941ZM16.0942 2.21883C16.3794 3.09427 16.2368 3.72694 16.2296 3.72694V3.73429L16.251 3.74165V3.73429C16.251 3.72694 16.301 3.5136 16.2867 3.15312C16.2724 2.89564 16.2296 2.57931 16.1156 2.21148V2.20412L16.0942 2.21148V2.21883ZM13.0636 0.217837H13.0707C14.1688 0.18841 14.8677 0.62245 14.8748 0.629807L14.8819 0.637163L14.8962 0.615094L14.8891 0.607737C14.8819 0.60038 14.1831 0.166341 13.0778 0.195767H13.0636V0.217837ZM16.6932 4.67594C16.7003 4.67594 16.7859 4.70537 16.8643 4.72008C16.8643 4.71272 16.8714 4.70537 16.8714 4.69801C16.793 4.6833 16.7003 4.66123 16.7003 4.65387H16.6932L16.6789 4.66858L16.6932 4.67594ZM11.723 6.83143C11.7301 6.83878 11.7444 6.84614 11.7515 6.84614C11.8371 6.83143 11.9084 6.79464 11.9084 6.78729L11.9155 6.77993L11.9084 6.75786L11.9012 6.76522C11.8941 6.77257 11.8157 6.81671 11.723 6.83143ZM15.9373 6.0222C15.9373 6.0222 15.9729 6.15462 15.9801 6.27232C15.9872 6.26497 15.9943 6.25761 16.0015 6.25025C15.9872 6.1399 15.9587 6.02956 15.9587 6.0222V6.01484L15.9373 6.0222ZM13.2276 7.10362C13.2276 7.10362 13.3345 7.22868 13.4843 7.32432C13.4985 7.32432 13.5128 7.32432 13.5271 7.32432C13.3559 7.22868 13.2418 7.08891 13.2418 7.08891L13.2347 7.08155L13.2204 7.09626L13.2276 7.10362Z" fill="#AFAFAF"/>
<path d="M13.634 6.40503C13.5698 6.68459 13.3844 7.04506 13.2347 7.10391C12.6856 7.17012 12.1151 6.92735 11.9012 6.78758C11.6374 6.60366 11.4734 6.19169 11.3521 5.83122C11.8798 5.80915 12.4717 5.57374 12.4717 5.57374C12.6785 5.90479 13.3131 6.30204 13.634 6.40503ZM10.1185 4.64681C10.1827 4.70566 10.2968 4.75715 10.475 4.72773C10.4465 4.4776 10.4037 3.91115 10.6604 3.33733C10.5392 3.17548 10.3681 2.71938 10.3396 2.46925C10.2896 2.51339 10.2255 2.57224 10.1613 2.63845C10.0401 3.02835 9.98302 3.44768 10.0044 3.88172C10.0115 4.14656 10.0543 4.40404 10.1185 4.64681ZM14.996 5.868C14.996 5.868 15.6591 6.08134 15.8945 6.02985C16.2653 5.95628 16.6931 4.78658 16.686 4.66152C16.6789 4.53646 16.4649 4.10242 16.2367 3.73459C16.0086 3.96264 15.4951 4.3084 15.1885 4.46289C15.217 5.22062 14.996 5.868 14.996 5.868ZM15.0673 0.490324C14.9532 0.482967 14.8106 0.482967 14.6608 0.505037C14.7393 0.58596 14.9389 1.1892 14.9817 1.4614C15.3597 1.5791 15.9586 2.07199 16.1369 2.31476C16.3722 2.1382 16.4435 1.93222 16.4578 1.79244C16.1226 1.2407 15.6378 0.791945 15.0673 0.490324ZM13.9121 2.08671C13.5056 1.93222 12.6927 1.76302 12.4574 1.77773C12.1864 2.09406 11.7087 2.88858 11.7301 3.05042C11.7301 3.05042 12.0937 3.6978 12.6428 4.18334C13.0065 4.04356 13.9977 3.63159 13.9977 3.63159C13.9977 3.63159 14.0119 2.79294 13.9121 2.08671ZM11.1525 1.04207L11.1453 1.09357C11.1453 1.09357 11.6873 0.696309 12.1936 0.865511C12.4503 0.615386 12.8353 0.299052 13.2275 0.21813C13.1776 0.188703 13.1348 0.159277 13.0921 0.137207C12.3504 0.225486 11.673 0.549177 11.1525 1.04207Z" fill="#3D3D3D"/>
<path opacity="0.8" d="M12.4429 2.8093C13.0519 2.28763 13.2581 1.50741 12.9034 1.06664C12.5487 0.62587 11.7674 0.691458 11.1583 1.21314C10.5493 1.73481 10.3431 2.51503 10.6978 2.9558C11.0525 3.39657 11.8338 3.33098 12.4429 2.8093Z" fill="white"/>
<g opacity="0.3">
<path d="M15.4095 0.695312C15.5878 0.945437 15.7375 1.22499 15.8445 1.53397C16.4649 3.2922 15.5878 5.2417 13.8835 5.88172C12.5001 6.40404 10.9955 5.90379 10.147 4.75616C10.1684 4.82237 10.1898 4.88858 10.2111 4.96214C10.8743 6.83808 12.8852 7.79444 14.7036 7.11027C16.5219 6.42611 17.4489 4.35155 16.7858 2.47561C16.5148 1.71788 16.0228 1.10728 15.4095 0.695312ZM14.6251 6.98521C13.7979 7.29419 12.928 7.25741 12.1721 6.93372C12.8852 7.1397 13.6696 7.12499 14.4255 6.84544C15.9015 6.28633 16.8214 4.85915 16.8357 3.33633C16.9926 4.88858 16.1155 6.41875 14.6251 6.98521Z" fill="#494949"/>
</g>
<path d="M5.8983 1.39251C5.8983 1.60386 5.70933 1.78502 5.48886 1.78502C5.26838 1.78502 5.07941 1.60386 5.07941 1.39251C5.07941 1.18116 5.26838 1 5.48886 1C5.74082 1 5.8983 1.18116 5.8983 1.39251Z" fill="#26A5BF"/>
<path d="M7.75492 3.77793C7.81791 4.07986 8.35334 4.53276 8.03838 4.7743C7.37697 5.28759 7.18799 3.68735 7.15649 3.4458L7.75492 3.77793Z" fill="#EAEAEA"/>
<path d="M2.97072 13.9256C2.97072 13.8048 3.00219 13.6539 3.00219 13.5029C3.06514 13.5331 3.09661 13.5331 3.12808 13.5633C3.22249 13.5935 3.22249 13.5029 3.22249 13.4425C3.19102 13.3519 3.15955 13.2311 3.15955 13.1406C3.15955 12.9896 3.15955 12.8386 3.09661 12.6877C3.06514 12.6273 3.00219 12.2046 2.93925 12.1744C2.90778 12.1442 2.24687 11.8423 2.08951 12.114C2.02657 12.2348 1.86921 13.05 1.93215 13.2613C1.86921 13.5029 1.83774 13.8048 1.96362 14.0162C1.99509 14.0464 2.05804 14.1671 2.12098 14.1973C2.15245 14.1973 2.15245 14.1973 2.18393 14.1973C2.18393 14.2275 2.2154 14.2879 2.24687 14.3181C2.37276 14.3785 2.53011 14.3483 2.53011 14.2275C2.59306 13.986 2.53011 13.7444 2.62453 13.5029C2.62453 13.5935 2.62453 13.7142 2.656 13.8048C2.656 14.0464 2.68747 14.2879 2.8763 14.2577C3.03366 14.2275 2.97072 14.0162 2.97072 13.9256Z" fill="#192226"/>
<path d="M3.0344 12.8082C3.0344 12.5667 2.62495 12.1742 2.34149 12.3251C2.12101 12.4459 2.15251 12.8082 2.247 13.0196C2.34149 13.2309 2.59346 13.3819 2.84542 13.3215C3.0659 13.2611 3.0659 13.08 3.0659 12.8988L3.0344 12.8082Z" fill="#253137"/>
<path d="M16.0003 18.1528H15.8113V18.4548H16.0003V18.1528Z" fill="#0D0D15"/>
<path d="M0.201367 24.2236H0.0123901V24.5558H0.201367V24.2236Z" fill="#0D0D15"/>
<path d="M0.673356 25.5216C1.23985 25.9142 1.9637 26.0652 2.68755 25.9746C2.9708 25.9444 3.22257 25.884 3.50582 25.7632C3.78906 25.6424 4.00936 25.4612 4.26114 25.3102C4.79616 24.978 5.33118 24.6156 5.8662 24.2835C6.0865 24.1627 6.27533 24.0419 6.49564 23.9211C6.74741 23.7701 6.96771 23.6493 7.21949 23.4983L7.25096 23.4681C7.43979 23.3473 7.62862 23.2567 7.81745 23.1359C8.28953 22.8641 8.7616 22.5923 9.23368 22.3205C9.26515 22.2903 9.29662 22.2903 9.35957 22.2601C9.73723 22.0487 10.1149 21.8373 10.524 21.6259C10.8073 21.4749 11.122 21.2937 11.4367 21.1427C11.6255 21.0521 11.8144 20.9313 12.0347 20.8407C12.192 20.7501 12.3494 20.6897 12.4753 20.5991C12.8529 20.3877 13.2621 20.2065 13.6397 19.9951C13.7656 19.9347 13.8915 19.8743 14.0174 19.8139C14.0803 19.7837 14.1433 19.7535 14.2062 19.7233C14.5839 19.5421 14.9615 19.3609 15.3707 19.1797C16.2204 18.8174 16.2834 18.0926 15.5595 17.6094C14.8042 17.1262 13.5453 17.0054 12.6956 17.398C12.6012 17.4282 12.5067 17.4886 12.4123 17.549C12.0976 17.7604 11.7829 17.9718 11.4367 18.1832C11.1535 18.3644 10.8387 18.5456 10.524 18.757C10.0834 19.0288 9.64281 19.3005 9.17074 19.5723C9.01338 19.6629 8.88749 19.7535 8.73013 19.8139C8.57277 19.9045 8.44689 19.9951 8.28953 20.0555C8.00628 20.2367 7.69156 20.3877 7.40832 20.5689C7.37684 20.5689 7.37684 20.5991 7.34537 20.5991C7.18801 20.6897 7.03065 20.7803 6.8733 20.8709C6.40122 21.1427 5.92914 21.3843 5.45707 21.6561C5.20529 21.7769 4.98499 21.8977 4.73322 22.0487C4.48144 22.1997 4.19819 22.3205 3.94642 22.4413C3.72612 22.5621 3.50582 22.6527 3.28551 22.7735C3.06521 22.9245 2.84491 23.0453 2.62461 23.1661C2.12106 23.4077 1.61751 23.5889 1.08249 23.7097C0.736299 23.8003 0.39011 23.8909 0.169807 24.1627C-0.239326 24.6458 0.264222 25.2498 0.673356 25.5216Z" fill="#0D0D15"/>
<path d="M15.9057 18.4552C15.8112 18.6364 15.5909 18.8176 15.3077 18.9686C15.1503 19.029 14.993 19.1195 14.8356 19.1799C14.6153 19.3007 14.3635 19.3913 14.1432 19.5121C14.0803 19.5423 14.0174 19.5725 13.9544 19.6027L13.5768 19.7839C13.1676 19.9651 12.79 20.1765 12.4123 20.3879C12.2549 20.4785 12.0976 20.5389 11.9717 20.6295C11.7829 20.7201 11.5626 20.8409 11.3737 20.9315C11.2793 20.9919 11.1849 21.0221 11.0905 21.0825C10.8702 21.2033 10.6813 21.2939 10.461 21.4147C10.3037 21.5053 10.1463 21.5657 9.98897 21.6563C9.76866 21.7771 9.51689 21.8979 9.29659 22.0489C9.26512 22.0791 9.23364 22.0791 9.1707 22.1093C9.13923 22.1395 9.10776 22.1395 9.07628 22.1697C8.73009 22.3509 8.41538 22.5321 8.10066 22.7133C7.97477 22.7737 7.88036 22.8341 7.75447 22.8945C7.69153 22.9247 7.59711 22.9851 7.53417 23.0153C7.40828 23.0757 7.31386 23.1361 7.18798 23.2267L7.15651 23.2569C6.9362 23.4079 6.68443 23.5287 6.43265 23.6797C6.24382 23.8005 6.05499 23.9213 5.86616 24.0119C5.83469 24.0119 5.83469 24.0421 5.80322 24.0421C5.55145 24.1931 5.29967 24.3441 5.0479 24.5252C4.76465 24.7064 4.4814 24.8876 4.19816 25.0688C4.07227 25.1594 3.94638 25.2198 3.85197 25.3104C3.72608 25.401 3.60019 25.4614 3.47431 25.5218C3.22253 25.6426 2.93929 25.703 2.65604 25.7332C2.12102 25.7936 1.55453 25.7332 1.08245 25.5218C1.01951 25.4916 0.956564 25.4614 0.893621 25.4312C0.799205 25.3708 0.70479 25.3406 0.641847 25.2802C0.232713 24.9782 -0.239363 24.4045 0.138298 23.8911C0.16977 23.8307 0.232713 23.8005 0.264185 23.7401C0.421544 23.6193 0.610375 23.5287 0.799206 23.4683C0.862149 23.4381 0.956564 23.4381 1.01951 23.4079C1.33423 23.3475 1.64894 23.2569 1.93219 23.1361C2.05808 23.0757 2.18396 23.0455 2.34132 22.9851C2.43574 22.9549 2.49868 22.9247 2.5931 22.8643C2.8134 22.7435 3.0337 22.6529 3.254 22.5321C3.47431 22.4113 3.69461 22.3207 3.91491 22.1999C4.10374 22.1093 4.2611 22.0187 4.44993 21.9281C4.54435 21.8979 4.60729 21.8375 4.70171 21.8073C4.79612 21.7771 4.85907 21.7167 4.95348 21.6865C5.11084 21.5959 5.2682 21.5355 5.42556 21.4449L5.61439 21.3543C5.83469 21.2335 6.05499 21.1127 6.2753 20.9919C6.36971 20.9315 6.4956 20.8711 6.59001 20.8107C6.68443 20.7503 6.77884 20.7201 6.84179 20.6597C6.87326 20.6295 6.90473 20.6295 6.9362 20.5993C7.06209 20.5389 7.18798 20.4785 7.28239 20.3879C7.31387 20.3879 7.31386 20.3577 7.34534 20.3577C7.40828 20.3275 7.47122 20.2973 7.53417 20.2671C7.78594 20.1463 8.00624 19.9953 8.25802 19.8745C8.35243 19.8141 8.41538 19.7839 8.50979 19.7235C8.57274 19.6933 8.63568 19.6631 8.69862 19.6027C8.85598 19.5121 8.98187 19.4215 9.13923 19.3611C9.57983 19.0894 10.0519 18.8176 10.4925 18.5458C10.8072 18.3646 11.0905 18.1834 11.4052 17.972C11.4367 17.9418 11.4996 17.9116 11.5311 17.8814C11.6884 17.7908 11.8458 17.67 12.0032 17.5794C12.129 17.4888 12.2549 17.4284 12.3808 17.3378C12.4438 17.2774 12.5697 17.217 12.6641 17.1868C12.6955 17.1868 12.6955 17.1566 12.727 17.1566C12.9473 17.066 13.1676 17.0056 13.4194 16.9754C14.1432 16.8848 14.993 17.0358 15.528 17.3982C15.9686 17.7002 16.0945 18.123 15.9057 18.4552Z" fill="#2EBBCE"/>
<path d="M12.4123 19.3006C11.7199 19.3006 10.9331 19.1798 10.6184 18.8175C10.5869 18.7873 10.5869 18.7571 10.6184 18.7571C10.6499 18.7269 10.6813 18.7571 10.6813 18.7571C11.2793 19.4213 13.8915 19.3307 14.7097 18.6363C15.0244 18.3948 15.0244 18.0928 14.7412 17.7909C14.4579 17.489 13.8285 17.338 13.3564 17.4286C13.1361 17.489 12.8844 17.6097 12.7899 17.9419C12.727 18.1834 12.9158 18.3646 13.0417 18.4551C13.325 18.6665 13.7341 18.7269 13.9544 18.5759C14.1118 18.4853 14.1747 18.3948 14.1747 18.2438C14.1747 18.123 14.0803 17.9721 13.9229 17.9419C13.797 17.8815 13.6712 17.9117 13.5767 18.0022C13.5138 18.0626 13.4823 18.123 13.4823 18.1834C13.5138 18.2438 13.6082 18.274 13.7026 18.2438C13.7341 18.2438 13.7656 18.274 13.7656 18.274C13.7656 18.3042 13.7341 18.3344 13.7341 18.3344C13.5767 18.3646 13.4509 18.3042 13.3879 18.2136C13.3564 18.123 13.3879 18.0324 13.4823 17.9419C13.6082 17.8211 13.797 17.7909 13.9229 17.8815C14.0803 17.9419 14.2062 18.123 14.2062 18.274C14.2062 18.425 14.1118 18.5759 13.9544 18.6967C13.6712 18.8477 13.1991 18.7571 12.9158 18.5759C12.6955 18.425 12.5696 18.1834 12.6326 17.9721C12.6955 17.6701 12.9158 17.489 13.262 17.3984C13.7656 17.2776 14.4579 17.4588 14.7412 17.7909C15.1503 18.2438 14.9615 18.5759 14.7097 18.7873C14.3006 19.1194 13.4823 19.3307 12.5696 19.3911C12.5696 19.3006 12.4752 19.3006 12.4123 19.3006Z" fill="#F2F2F2"/>
<path d="M8.69861 19.6021L11.9717 20.5985C12.129 20.5079 12.2864 20.4475 12.4123 20.3569C12.7899 20.1456 13.1991 19.9644 13.5767 19.7531C13.7026 19.6927 13.8285 19.6323 13.9544 19.5719L10.4925 18.5151C10.0519 18.7869 9.61129 19.0586 9.13921 19.3304C8.98185 19.4209 8.85597 19.5115 8.69861 19.6021Z" fill="#1A2428"/>
<path d="M7.56564 23.0152C7.43975 23.0756 7.34534 23.136 7.21945 23.2265L7.18798 23.2567C6.96768 23.4077 6.7159 23.5285 6.46413 23.6794C6.2753 23.8002 6.08647 23.921 5.89764 24.0116C5.89764 24.0116 5.89764 24.0116 5.86617 24.0116L2.62457 22.8642C2.84488 22.7434 3.06518 22.6529 3.28548 22.5321C3.50578 22.4113 3.72608 22.3207 3.94639 22.2C4.13522 22.1094 4.29258 22.0188 4.48141 21.9282L7.56564 23.0152Z" fill="#1A2428"/>
<path d="M10.9646 19.8747C10.6813 19.9351 10.3351 19.9351 10.0204 19.8445C9.76864 19.7841 9.48539 19.6332 9.42245 19.452C9.32803 19.1199 10.2407 19.0293 10.6813 19.0293C11.1849 19.0293 11.7199 19.1803 12.129 19.3312C12.4752 19.452 13.1361 19.5728 12.9788 19.8747C12.9158 20.0257 12.6011 20.1163 12.3179 20.0861C12.129 20.0559 12.0346 19.9653 11.8772 19.9049C11.7199 19.8445 11.5311 19.8143 11.3737 19.8143C11.2793 19.8143 11.1849 19.8143 11.1219 19.8143C11.059 19.8445 11.0275 19.8445 10.9646 19.8747Z" fill="#2B3A3F"/>
<path d="M7.06209 22.3206C6.36971 22.3206 5.58292 22.1998 5.2682 21.8375C5.23673 21.8073 5.2682 21.7771 5.2682 21.7771C5.29967 21.7469 5.33114 21.7771 5.33114 21.7771C5.92911 22.4413 8.54126 22.3508 9.35953 21.6563C9.67425 21.4148 9.67425 21.1128 9.391 20.8109C9.10776 20.509 8.47832 20.358 8.00624 20.4486C7.78594 20.509 7.53417 20.6298 7.43975 20.9619C7.37681 21.2034 7.56564 21.3846 7.69153 21.4752C7.97477 21.6865 8.3839 21.7469 8.60421 21.5959C8.76157 21.5054 8.82451 21.4148 8.82451 21.2638C8.82451 21.143 8.73009 20.9921 8.57274 20.9619C8.44685 20.9015 8.32096 20.9317 8.22655 21.0223C8.1636 21.0827 8.13213 21.143 8.13213 21.2034C8.1636 21.2638 8.25802 21.294 8.3839 21.2638C8.41538 21.2638 8.44685 21.294 8.44685 21.294C8.44685 21.3242 8.41538 21.3544 8.41538 21.3544C8.25802 21.3846 8.13213 21.3242 8.06919 21.2336C8.03771 21.143 8.06919 21.0525 8.1636 20.9619C8.28949 20.8411 8.47832 20.8109 8.60421 20.9015C8.76157 20.9619 8.88745 21.143 8.88745 21.294C8.88745 21.445 8.79304 21.5959 8.63568 21.7167C8.35243 21.8677 7.88036 21.7771 7.59711 21.5959C7.37681 21.445 7.25092 21.2034 7.31386 20.9921C7.37681 20.6901 7.59711 20.509 7.9433 20.4184C8.44685 20.2976 9.13923 20.4788 9.42247 20.8109C9.83161 21.2638 9.64278 21.5959 9.391 21.8073C8.98187 22.1394 8.1636 22.3508 7.25092 22.4112C7.21945 22.3206 7.15651 22.3206 7.06209 22.3206Z" fill="#F2F2F2"/>
<path d="M3.3484 24.9173C2.93927 25.2494 2.121 25.491 1.20832 25.5212C1.17685 25.5212 1.17685 25.5212 1.14537 25.5212C1.08243 25.491 1.01949 25.4608 0.956543 25.4306C1.86922 25.4306 2.84485 25.2494 3.31693 24.8569C3.63164 24.6154 3.63164 24.3134 3.3484 24.0115C3.06515 23.7096 2.43572 23.5586 1.96364 23.6492C1.74334 23.7096 1.49156 23.8304 1.39715 24.1625C1.30273 24.3738 1.49156 24.555 1.58598 24.6456C1.9007 24.8569 2.30983 24.9173 2.53013 24.7663C2.68749 24.6758 2.75043 24.5852 2.75043 24.4342C2.75043 24.3134 2.65602 24.1625 2.49866 24.1323C2.37277 24.0719 2.24689 24.1021 2.15247 24.1927C2.08953 24.2531 2.05806 24.3134 2.05806 24.3738C2.08953 24.4342 2.18394 24.4644 2.30983 24.4342C2.3413 24.4342 2.37277 24.4644 2.37277 24.4644C2.37277 24.4946 2.37277 24.5248 2.3413 24.5248C2.18394 24.555 2.05806 24.4946 1.99511 24.404C1.96364 24.3134 1.99511 24.2229 2.08953 24.1323C2.21541 24.0115 2.40425 23.9813 2.53013 24.0719C2.68749 24.1323 2.81338 24.2833 2.81338 24.4644C2.81338 24.6154 2.71896 24.7663 2.5616 24.8871C2.27836 25.0381 1.80628 24.9475 1.52304 24.7663C1.30273 24.6154 1.17685 24.3738 1.23979 24.1625C1.30273 23.8605 1.52304 23.6794 1.86922 23.5888C2.37277 23.468 3.06515 23.6492 3.3484 23.9813C3.789 24.3738 3.5687 24.706 3.3484 24.9173Z" fill="#F2F2F2"/>
<path d="M5.51994 23.4677C4.29254 23.2262 3.37986 22.9545 3.34839 22.5318L3.4428 22.26L3.47428 22.1694C3.47428 22.1996 3.53722 22.7431 4.85903 23.0148C5.8976 23.2564 6.58998 23.045 6.84176 22.9243C6.9047 22.9847 6.93617 23.045 6.93617 23.0752V23.1054V23.2262C6.87323 23.2564 6.74734 23.7093 5.51994 23.4677Z" fill="#FFF8E1"/>
<path d="M5.96059 23.2866C3.88345 23.0149 3.50579 22.5016 3.41138 22.2601C3.41138 22.2299 3.41138 22.1997 3.44285 22.1997C3.53726 21.9279 3.72609 21.8072 3.9464 21.5052C3.9464 21.5052 4.22964 21.1429 4.89055 21.4449C5.23674 21.5958 5.74029 22.0185 6.18089 22.3205C6.8418 22.7734 6.87327 22.8941 6.8418 23.1357C6.87327 23.347 6.18089 23.3168 5.96059 23.2866Z" fill="#075D99"/>
<path d="M5.20516 21.6257C5.42547 21.837 5.33105 22.0786 5.04781 22.1389C4.73309 22.1993 4.32395 22.0786 4.10365 21.8672C3.88335 21.6559 3.97776 21.4143 4.26101 21.3539C4.57573 21.2935 4.98486 21.4143 5.20516 21.6257Z" fill="#003366"/>
<path d="M12.6012 20.0857C12.5068 20.1159 12.3809 20.1159 12.192 20.1159C11.3423 20.0857 11.2164 19.7837 10.7443 19.7535C10.7129 19.7535 10.6814 19.7535 10.6499 19.7535C10.4926 19.7535 10.3667 19.7837 10.2408 19.7837C10.2093 19.7837 10.1464 19.7837 10.1149 19.7837C9.98902 19.7837 9.83166 19.8139 9.61136 19.6931C9.54841 19.663 9.51694 19.6328 9.48547 19.6026C9.32811 19.4516 9.35958 19.2402 9.39105 19.0591C9.39105 19.0289 9.42252 18.9685 9.454 18.9685C9.48547 18.9081 9.51694 18.8779 9.51694 18.8779L10.052 18.9987L10.7758 19.1497L11.0905 19.2101L12.9474 19.5724V19.6931V19.8441C12.9788 19.8441 12.9159 20.0253 12.6012 20.0857Z" fill="#FFF8E1"/>
<path d="M12.9474 19.6931C12.8844 19.8138 12.6327 19.9346 12.2865 19.9044C12.255 19.9044 12.2235 19.9044 12.1921 19.9044C12.0976 19.9044 12.0032 19.8742 11.8773 19.844C11.7515 19.8138 11.6256 19.7836 11.4997 19.7233C10.8073 19.4817 10.6814 19.4817 10.4611 19.4817C10.3667 19.4817 10.3038 19.4817 10.1779 19.4817C9.61138 19.4817 9.51696 19.3006 9.45402 19.1496C9.45402 19.1194 9.42255 19.0892 9.42255 19.0288C9.42255 18.9684 9.42255 18.908 9.45402 18.8477C9.51696 18.6665 9.64285 18.4551 9.80021 18.274C9.89462 18.1834 9.98904 18.0928 10.052 18.0324C10.1779 17.9117 10.7129 17.9721 11.3738 18.274C11.5626 18.3646 11.7829 18.4853 12.0032 18.6061C12.0662 18.6363 12.1291 18.6665 12.1921 18.7269C12.3494 18.8175 12.5068 18.9382 12.6327 19.059C12.6641 19.0892 12.7271 19.1194 12.7586 19.1496C12.9159 19.3006 13.0418 19.4817 13.0418 19.6025C12.9789 19.6327 12.9789 19.6629 12.9474 19.6931Z" fill="#075D99"/>
<path d="M11.1535 18.334C11.3738 18.5453 11.3109 18.7869 10.9961 18.8473C10.6814 18.9379 10.2723 18.8171 10.052 18.6057C9.83169 18.3944 9.89463 18.1528 10.2094 18.0924C10.4926 18.0019 10.9017 18.1226 11.1535 18.334Z" fill="#003366"/>
<path d="M3.56879 21.9588C3.75762 22.8042 4.63883 23.2873 4.63883 23.2873C4.63883 23.2873 5.74034 23.6497 6.21242 23.5591C4.95355 23.1666 4.54441 22.3815 4.54441 22.3815C4.54441 22.3815 3.6632 22.1702 3.78909 21.7173L3.6632 21.8381L3.56879 21.9588Z" fill="#070709"/>
<path d="M3.94645 22.26C3.82056 22.1694 3.72615 21.9883 3.69467 21.8071L3.6632 21.8373L3.56879 21.9581C3.75762 22.8035 4.63883 23.2866 4.63883 23.2866C4.63883 23.2866 4.79619 23.347 4.98502 23.3772C4.98502 23.347 4.98502 23.3168 4.95355 23.2564C4.82766 22.8035 4.35558 22.5318 3.94645 22.26Z" fill="#253137"/>
<path d="M6.08708 23.5589L5.33118 23.257C5.33118 23.257 6.11858 22.2002 5.80362 22.019C5.80362 22.019 5.9296 22.1096 6.08708 22.2002C6.21307 22.2908 6.37055 22.3814 6.49653 22.5021C6.52803 22.5021 6.52803 22.5323 6.55952 22.5323C6.59102 22.5625 6.59102 22.5625 6.62252 22.5927C6.59102 23.0758 6.08708 23.5589 6.08708 23.5589Z" fill="#070709"/>
<path d="M12.6011 20.116C12.5067 20.1461 12.3808 20.1461 12.192 20.1461C11.3422 20.116 11.2164 19.814 10.7443 19.7838C10.7128 19.7838 10.6813 19.7838 10.6499 19.7838C10.6499 19.7838 10.6499 19.7234 10.6184 19.7234C10.5554 19.6631 10.4925 19.5725 10.4296 19.5121C10.3981 19.4819 10.3981 19.4819 10.3666 19.4819C10.0519 19.3007 9.67424 19.4215 9.45394 19.0592C9.45394 19.029 9.42246 19.029 9.42246 18.9988C9.42246 18.9686 9.39099 18.9686 9.39099 18.9384C9.45393 18.7573 9.57982 18.5459 9.73718 18.3647C9.67424 18.5459 9.67424 18.6969 9.8316 18.878C9.89454 18.9384 9.95748 18.9686 10.0204 18.9988C10.1778 19.0592 10.3351 19.0894 10.4925 19.1196C10.6184 19.1196 10.7128 19.1196 10.7758 19.1196C10.8702 19.1196 10.9961 19.1498 11.0905 19.18C11.1219 19.18 11.1534 19.2102 11.1849 19.2404C11.3737 19.3611 11.5311 19.4819 11.7199 19.6027C11.8773 19.7234 12.0346 19.814 12.192 19.9046C12.3179 19.9952 12.4438 20.0858 12.6011 20.116Z" fill="#070709"/>
<path d="M9.92595 19.0896C9.86301 19.0292 9.76859 18.9689 9.70565 18.8783C9.6427 18.7273 9.61123 18.6065 9.6427 18.4556C9.54829 18.6065 9.45387 18.7575 9.39093 18.9085C9.39093 18.9387 9.4224 18.9387 9.4224 18.9689C9.4224 18.999 9.45387 18.999 9.45387 19.0292C9.67418 19.3916 10.6183 19.7539 10.6183 19.7841C10.6498 19.7841 10.6813 19.7841 10.7127 19.7841C11.1219 19.8143 11.2792 20.0558 11.8457 20.1162C11.6569 19.8143 11.3422 19.6331 11.0589 19.4519C10.7442 19.2406 10.3036 19.3312 9.92595 19.0896Z" fill="#253137"/>
<path d="M12.287 19.9043C12.2555 19.9647 12.224 20.0251 12.224 20.0553C12.0981 20.0251 11.9721 19.9345 11.8461 19.844C11.7516 19.7534 11.4996 19.6326 11.4996 19.6326C11.4996 19.6326 11.7831 19.0287 11.9406 18.6362C12.0036 18.6664 12.0666 18.6966 12.1296 18.757C12.287 18.8476 12.4445 18.9684 12.5705 19.0891C12.602 19.1193 12.665 19.1495 12.6965 19.1797C12.602 19.3005 12.413 19.693 12.287 19.9043Z" fill="#070709"/>
<path d="M12.6015 19.0592C12.4441 19.2403 12.2551 19.4215 12.0976 19.6027C12.0976 19.3309 12.1291 19.029 12.1606 18.7271C12.3181 18.8478 12.4755 18.9686 12.6015 19.0592Z" fill="#424145"/>
<path d="M6.59049 22.562C6.43301 22.7734 6.02356 23.1659 6.02356 23.1961C6.02356 23.0451 6.11805 22.3809 6.11805 22.1997C6.24403 22.2903 6.40151 22.3809 6.5275 22.5016C6.55899 22.5318 6.55899 22.5318 6.59049 22.562Z" fill="#424145"/>
<path d="M6.90471 11.1165C6.74735 11.1467 6.08645 12.4453 5.99203 12.5057C5.39407 13.5929 9.89453 15.284 9.89453 15.284C9.89453 15.284 9.29657 15.9786 9.76865 18.3342C9.86306 18.757 10.8072 19.0892 11.2163 18.7268C11.4052 18.5456 11.4996 18.3946 11.4052 18.2436C11.3108 18.0926 12.129 16.0088 11.9087 14.5894C11.7828 14.0761 9.10774 10.8749 6.90471 11.1165Z" fill="#D9D9D9"/>
<path d="M10.3666 10.9961C10.3037 10.8754 10.2407 10.6942 10.3666 10.4224C10.4296 10.2714 10.524 10.2412 10.6184 10.2412C10.6499 10.2412 10.6813 10.06 10.6184 10.0298C10.3981 9.90897 9.80012 9.51638 9.39099 9.24458C9.32804 9.15398 9.2651 9.06339 9.2651 9.06339C9.2651 9.06339 8.91891 8.73119 8.85597 8.73119C8.66714 7.76481 7.06208 5.46965 7.06208 5.46965L6.46411 5.43945C6.46411 5.43945 7.25091 9.15398 7.34532 9.27478C7.43974 9.39558 8.98185 10.6036 8.98185 10.6036L9.13921 10.7244L9.98895 11.2377C9.92601 11.2075 10.3037 11.1471 10.3666 10.9961Z" fill="#26A5BF"/>
<path d="M6.62152 17.8512C7.0936 16.9452 7.7545 11.3583 5.67737 11.7811C5.55148 11.8415 3.91495 12.0831 3.91495 12.2341C3.97789 14.3178 4.89057 15.405 4.89057 17.2472C4.79616 17.2774 3.34845 17.9116 3.6317 21.2637C3.66317 21.5053 3.88347 21.9583 4.35555 22.1093C4.60733 22.1999 4.98499 22.4113 5.2997 22.0187C5.48854 19.7235 6.62152 17.8512 6.62152 17.8512Z" fill="#EAEAEA"/>
<path d="M8.1321 11.2983C8.06916 11.3285 7.9118 11.8117 7.09353 12.1439C7.06206 12.1439 7.03059 12.1741 6.99912 12.1741C6.96764 12.2043 6.9047 12.2043 6.84176 12.2345C5.77172 12.5667 3.56869 12.8385 3.56869 12.8385C3.56869 12.8385 3.50575 11.0869 3.60016 10.6641C3.88341 9.63731 4.29254 9.12392 4.13518 8.33873C4.13518 8.24814 3.78899 7.94614 3.75752 7.85554C3.66311 7.58375 3.28545 6.76836 3.85194 6.19458C4.41843 5.65099 5.74024 5.25839 6.02349 5.22819C6.71587 5.13759 7.50266 5.80198 7.62855 5.89258C7.9118 6.13418 8.10063 7.34215 8.03768 7.64415C7.9118 8.21794 7.37678 8.91252 7.06206 9.69771L7.31383 9.72791C7.37678 9.75811 8.03768 11.1171 8.1321 11.2983Z" fill="#2EBBCE"/>
<path d="M5.80323 4.47314L4.26111 4.59392L4.00934 6.04319L4.44994 6.22435L6.49561 6.37532L7.50271 5.49971L6.93621 4.71469L5.80323 4.47314Z" fill="#2EBBCE"/>
<path d="M5.61442 4.74512L4.79615 4.95647L4.2926 5.83207L5.33117 6.10381L6.21238 4.98666L5.61442 4.74512Z" fill="#26A5BF"/>
<path d="M6.55857 6.40557L4.2926 5.92248L5.42559 5.07707L5.7403 5.04688L6.9677 5.59035L6.55857 6.40557Z" fill="#26A5BF"/>
<path d="M7.56654 5.43955L6.40118 6.31515L6.49567 5.10742L7.56654 5.43955Z" fill="#26A5BF"/>
<path d="M5.96078 3.5971L5.67731 5.49928C5.64582 5.77102 5.83479 6.01256 6.11826 6.07295C6.40172 6.10314 6.65369 5.92198 6.71668 5.65024V5.62005L6.90566 3.71788C6.93715 3.47633 6.74818 3.26498 6.49621 3.23479C6.21274 3.20459 5.99227 3.35556 5.96078 3.5971Z" fill="#F2B09E"/>
<path d="M7.43973 2.66056C7.0306 1.96612 6.49558 1.87554 5.5829 2.08689C5.55143 2.08689 5.55143 2.08689 5.51995 2.11708C5.33112 2.32843 5.17377 2.56998 5.01641 2.81153C4.95346 2.9323 4.89052 3.05307 4.82758 3.17385C4.85905 3.62674 5.07935 4.14003 5.5829 4.53254C5.70879 4.62312 5.67731 4.89486 5.96056 5.13641C6.33822 5.43834 6.62147 5.49872 6.77883 5.55911C7.0306 5.64969 7.31385 5.52892 7.37679 5.40815C7.50268 5.10621 7.56562 4.83447 7.62856 4.53254C7.72298 3.74752 7.53415 3.02288 7.43973 2.66056Z" fill="#FFCCBC"/>
<path d="M5.86659 3.80859C5.70911 3.32549 5.36265 3.53685 5.33115 3.71801C5.29966 3.95955 5.55163 4.38226 5.86659 4.38226C5.86659 4.08033 5.89808 3.95955 5.86659 3.80859Z" fill="#FFCCBC"/>
<path d="M5.74042 5.04655H6.55931L6.43333 6.1637L6.40183 6.31467L5.92939 6.25428C5.92939 6.25428 5.58294 6.13351 5.51994 5.83158C5.45695 5.52965 5.55144 4.95597 5.55144 4.95597L5.74042 4.92578V5.04655Z" fill="#2EBBCE"/>
<path d="M4.07229 6.3449C3.34844 6.07311 3.03372 7.09989 2.90783 7.55288C2.719 8.09647 2.43575 8.54946 2.2784 9.09305C2.21545 9.30445 2.12104 9.84804 2.12104 9.84804L1.99515 10.2708L1.96368 11.2674C1.96368 11.2674 1.96368 11.8412 1.86926 12.1734C2.24692 12.2942 2.65606 12.1432 3.03372 12.264C3.15961 11.8412 3.63168 9.69704 3.63168 9.69704C3.63168 9.69704 4.35553 8.60986 4.57584 8.18707C4.85908 7.61328 5.04791 6.97909 4.41848 6.5563L4.07229 6.3449Z" fill="#26A5BF"/>
<path d="M10.1148 10.6944C10.2092 11.2983 11.059 11.6304 11.4051 11.0266C11.531 10.8152 11.4996 10.634 11.3737 10.4831C10.996 10.0906 10.0204 10.0302 10.1148 10.6944Z" fill="#1A2428"/>
<path d="M11.1855 10.0302C11.091 10 10.8076 10 10.8076 10C10.6501 10.0302 10.3666 10.151 10.3981 10.3623C10.4296 10.5133 10.6816 10.5133 10.7761 10.3925C10.8391 10.4227 10.965 10.3925 11.028 10.3925C11.154 10.3623 11.1855 10.3019 11.217 10.1812C11.2485 10.1208 11.28 10.0604 11.1855 10.0302Z" fill="#253137"/>
<path d="M11.2167 11.5995C11.1852 11.6297 11.1537 11.6297 11.1222 11.6599C11.0277 11.6901 10.9018 11.7203 10.8703 11.6599C10.8073 11.5693 10.8703 11.4787 10.9333 11.4183H10.9018C10.6183 11.3579 10.8388 11.1164 11.0592 11.0258C11.0592 10.9956 11.0592 10.9956 11.0592 10.9654C11.0592 10.7843 11.2482 10.6333 11.3742 10.5125L11.4057 10.4521C11.4372 10.4823 11.4372 10.4823 11.4372 10.5125C11.5002 10.6031 11.5317 10.7239 11.5317 10.8447C11.5317 10.9654 11.4687 11.056 11.4372 11.1768C11.4372 11.207 11.4057 11.2674 11.4057 11.2976C11.3742 11.4485 11.3427 11.5391 11.2167 11.5995Z" fill="#253137"/>
<path d="M11.3739 11.1169C11.4369 11.2377 11.4684 11.3283 11.4999 11.4793C11.4999 11.5397 11.4999 11.6604 11.5314 11.7208C11.4684 11.751 11.3739 11.751 11.3109 11.6906C11.0904 11.5095 11.2164 11.2075 11.2794 11.0264L11.3739 11.1169Z" fill="#253137"/>
<path d="M7.09423 12.1432C7.06273 12.1432 7.03124 12.1734 6.99974 12.1734C6.93675 12.0224 6.90525 11.9016 6.84226 11.7506C6.77927 11.5996 6.71627 11.4487 6.65328 11.2675C6.55879 10.9957 6.43281 10.3615 6.43281 10.3313V10.3011L6.68478 9.90848C6.59029 9.90848 6.43281 9.87828 6.33832 9.87828H6.27533V9.81788C6.36982 9.45549 6.4958 9.0629 6.62179 8.7005C6.68478 8.51931 6.74777 8.33811 6.77927 8.15691C6.90525 7.76432 6.81076 7.46233 6.68478 7.13013C6.62179 6.91874 6.5273 6.67714 6.5273 6.43555H6.62179C6.65328 6.67714 6.71627 6.91874 6.77927 7.13013C6.87375 7.46233 6.99974 7.79452 6.87375 8.21731C6.81076 8.39851 6.74777 8.57971 6.68478 8.7609C6.55879 9.1233 6.43281 9.48569 6.36982 9.81788C6.5273 9.81788 6.74777 9.84808 6.74777 9.84808H6.81076L6.4958 10.3313C6.5273 10.4521 6.62179 10.9957 6.71627 11.2373C6.77927 11.3883 6.84226 11.5695 6.90525 11.7204C6.99974 11.8412 7.06273 11.9922 7.09423 12.1432Z" fill="#F2F2F2"/>
<path d="M5.83465 4.98572C6.05496 4.53282 5.61435 4.32147 5.74024 3.83838C5.86613 3.38548 6.46409 3.14394 6.90469 3.08355C7.18794 3.05336 7.5656 3.17413 7.84885 3.14394C8.00621 2.3891 6.81028 1.69466 6.18084 1.57389C4.85903 1.30215 4.32401 2.78162 4.54431 3.56664C4.70167 4.14031 5.61435 5.43862 5.83465 4.98572Z" fill="#EAEAEA"/>
<path d="M7.97483 6.6166C7.21951 6.37506 6.14947 5.95235 5.70886 4.95597L5.80328 4.92578C6.24388 5.86177 7.28245 6.28448 8.0063 6.52602L7.97483 6.6166Z" fill="#F2F2F2"/>
<path d="M9.92598 5.86211C9.20213 5.77153 8.63564 5.52998 8.19503 5.16766L8.16356 5.13747C8.03767 5.04689 7.84884 4.86573 7.88031 4.68457H7.97473C7.94326 4.80534 8.13209 4.95631 8.2265 5.04689L8.25798 5.07708C8.66711 5.4394 9.2336 5.68095 9.92598 5.77153V5.86211Z" fill="#EAEAEA"/>
<path d="M6.08729 4.07976L5.11091 4.56286C5.04792 4.47228 4.98493 4.41189 4.95343 4.32131C5.23689 4.07976 5.9928 3.77783 5.9928 3.77783L6.08729 4.07976Z" fill="#212121"/>
<path d="M8.06917 3.83898C8.06917 3.89937 8.06917 3.92956 8.06917 3.98995C8.0377 4.17111 7.94328 4.29188 7.66004 4.38246C7.50268 4.44284 7.50268 4.17111 7.31385 4.2013C7.15649 4.23149 6.8103 4.624 6.68441 4.624C6.40117 4.59381 6.14939 4.50323 6.02351 4.35227C5.92909 4.29188 5.89762 4.2013 5.86615 4.08053C5.8032 3.71821 6.08645 3.3257 7.12502 3.23512C8.22653 3.11434 8.10064 3.47666 8.06917 3.83898Z" fill="url(#paint0_linear_582_11971)"/>
<path d="M5.992 4.32174C5.96053 4.29155 5.92905 4.26135 5.89758 4.20097C6.11789 3.89903 6.33819 3.56691 6.55849 3.26498C6.62143 3.23478 6.71585 3.23478 6.81026 3.20459C6.52702 3.5971 6.30672 3.92923 6.11789 4.23116C6.08641 4.29155 6.02347 4.32174 5.992 4.32174ZM7.12498 3.20459C7.06204 3.20459 6.9991 3.20459 6.93615 3.23478V3.26498C6.71585 3.56691 6.52702 3.86884 6.30672 4.17077C6.36966 4.14058 6.4326 4.14058 6.46407 4.11039C6.68438 3.83865 6.90468 3.50652 7.12498 3.20459ZM7.91178 3.26498C7.88031 3.26498 7.84883 3.23478 7.84883 3.23478C7.66 3.44614 7.50264 3.68768 7.31381 3.92923C7.34529 3.92923 7.37676 3.92923 7.40823 3.92923C7.56559 3.68768 7.75442 3.47633 7.91178 3.26498ZM8.06914 3.50652C8.06914 3.44614 8.03766 3.38575 7.97472 3.32536C7.81736 3.50652 7.66 3.71787 7.50264 3.89903C7.59706 3.89903 7.66 3.89903 7.72295 3.89903C7.84883 3.77826 7.97472 3.65749 8.06914 3.50652ZM7.66 3.20459C7.56559 3.20459 7.47117 3.20459 7.34528 3.20459C7.2194 3.35556 7.12498 3.47633 6.9991 3.6273C6.90468 3.77826 6.77879 3.89903 6.68438 4.05C6.81026 4.01981 6.90468 3.98961 7.03057 3.95942C7.25087 3.71787 7.47117 3.47633 7.66 3.20459Z" fill="url(#paint1_linear_582_11971)"/>
<path d="M6.65314 4.62371C6.11812 4.56332 5.74046 4.41235 5.70898 4.08023C5.70898 4.01984 5.70898 3.95945 5.70898 3.86887C5.74046 3.53675 6.0237 3.11404 7.09374 3.05366C7.62876 3.02346 7.78612 3.05366 7.94348 3.23482C8.13231 3.41598 8.13231 3.62733 8.10084 3.86887C8.0379 4.14061 7.91201 4.32177 7.66023 4.41235C7.4714 4.47274 7.31405 4.26139 7.31405 4.26139C7.28257 4.26139 6.84197 4.59351 6.71608 4.62371C6.71608 4.62371 6.68461 4.62371 6.65314 4.62371ZM6.93638 3.35559C6.46431 3.41598 5.89781 3.59714 5.96076 4.05003C5.99223 4.26139 6.27548 4.41235 6.65314 4.44255C6.68461 4.44255 6.8105 4.32177 6.90491 4.26139C7.0308 4.14061 7.15669 4.05003 7.28257 4.01984C7.4714 3.98965 7.56582 4.14061 7.62876 4.201L7.66023 4.23119C7.91201 4.14061 8.00642 3.98965 8.0379 3.77829V3.71791C8.0379 3.53675 8.0379 3.44617 7.97495 3.38578C7.91201 3.3254 7.69171 3.23482 7.15669 3.2952C7.06227 3.35559 6.99933 3.35559 6.93638 3.35559Z" fill="#001133"/>
<path d="M5.45703 3.98935L5.709 4.38186L5.89798 4.29128L5.709 3.83838L5.45703 3.98935Z" fill="#001133"/>
<path d="M10.2411 5.83147C10.2411 5.95224 10.1466 6.04282 10.0206 6.04282C9.89466 6.04282 9.80017 5.95224 9.80017 5.83147C9.80017 5.7107 9.89466 5.62012 10.0206 5.62012C10.1466 5.62012 10.2411 5.7107 10.2411 5.83147Z" fill="#26A5BF"/>
<path d="M8.28988 6.55608C8.28988 6.67685 8.19539 6.76743 8.06941 6.76743C7.94343 6.76743 7.84894 6.67685 7.84894 6.55608C7.84894 6.43531 7.94343 6.34473 8.06941 6.34473C8.1639 6.34473 8.28988 6.43531 8.28988 6.55608Z" fill="#26A5BF"/>
<defs>
<linearGradient id="paint0_linear_582_11971" x1="5.83366" y1="3.97458" x2="8.10475" y2="3.80203" gradientUnits="userSpaceOnUse">
<stop stop-color="#02123A"/>
<stop offset="1" stop-color="#145C86"/>
</linearGradient>
<linearGradient id="paint1_linear_582_11971" x1="5.87085" y1="3.8196" x2="8.08911" y2="3.65107" gradientUnits="userSpaceOnUse">
<stop stop-color="#0623B4"/>
<stop offset="1" stop-color="#01C4EB"/>
</linearGradient>
</defs>
</svg>
