<svg width="24" height="17" viewBox="0 0 24 17" fill="none" xmlns="http://www.w3.org/2000/svg">
<g clip-path="url(#clip0_578_11939)">
<path d="M23.6134 6.38613C23.4944 6.327 23.4052 6.327 23.2862 6.327C23.2565 6.327 23.2565 6.327 23.2267 6.327C21.3829 6.50439 19.4498 6.20874 17.6357 5.35135C15.8215 4.49396 14.3643 3.22265 13.3531 1.6557C13.3531 1.62613 13.3234 1.62613 13.3234 1.62613C13.2639 1.53744 13.1747 1.47831 13.0855 1.41918C12.7286 1.27135 12.342 1.38961 12.1635 1.74439L12.1338 1.80352L11.9851 2.09918C12.9963 4.13918 14.6914 5.85396 16.9219 6.88874L12.2825 16.7044C14.9888 17.9757 20.1933 15.2261 21.7398 12.0035L23.9405 7.36179L23.9702 7.30266C24.1189 6.94787 23.9702 6.53396 23.6134 6.38613Z" fill="#17A3A5"/>
<path d="M11.9851 2.09912L9.93306 6.44521C8.38659 9.66782 9.72488 15.4922 12.2825 16.6748L16.9219 6.88869C14.6914 5.8539 12.9963 4.13912 11.9851 2.09912Z" fill="#74C8C9"/>
<path d="M14.6022 11.7965C12.7881 10.9391 11.0631 11.767 10.5278 12.8905C11.6282 12.6244 12.8178 12.7426 13.9182 13.2452C15.0185 13.7478 15.8513 14.6052 16.3568 15.6105C16.8327 14.5461 16.2676 12.5948 14.6022 11.7965Z" fill="#225B66"/>
<path d="M18.5279 10.4958C19.4795 10.9393 20.4015 10.4958 20.6691 9.90448C20.1041 10.0523 19.4498 9.99318 18.8847 9.72709C18.3197 9.461 17.8736 9.01753 17.6059 8.48535C17.3383 9.04709 17.6357 10.0819 18.5279 10.4958Z" fill="#225B66"/>
<path d="M13.1152 7.95282C14.0669 8.3963 14.9888 7.95282 15.2565 7.36151C14.6914 7.47977 14.0371 7.45021 13.4721 7.18412C12.907 6.91803 12.4609 6.47456 12.1933 5.94238C11.9256 6.50412 12.223 7.5389 13.1152 7.95282Z" fill="#225B66"/>
<path d="M12.342 0C12.223 0 12.1041 0.0295652 12.0149 0.0886957C11.9851 0.0886957 11.9851 0.0886957 11.9554 0.118261C10.3494 1.09391 8.50558 1.62609 6.48327 1.62609C4.49071 1.62609 2.6171 1.06435 1.01115 0.118261C0.981413 0.118261 0.981413 0.0886957 0.951673 0.0886957C0.921933 0.0295652 0.802974 0 0.684015 0C0.297398 0 0 0.295652 0 0.68V0.73913V1.06435C1.78439 2.48348 4.04461 3.3113 6.51301 3.3113V14.1322C9.48699 14.1322 13.026 9.4313 13.026 5.85391V0.73913V0.68C13.026 0.295652 12.7286 0 12.342 0Z" fill="#FFAE3D"/>
<path d="M0 1.06445V5.85402C0 9.43141 3.68773 14.1323 6.51301 14.1323V3.31141C4.04461 3.31141 1.78439 2.48358 0 1.06445Z" fill="#FDE09A"/>
<path d="M6.51298 11.7669C8.50555 11.7669 9.72488 10.2886 9.72488 9.04688C8.83268 9.72687 7.73231 10.1704 6.51298 10.1704C5.29365 10.1704 4.19328 9.75644 3.30109 9.04688C3.30109 10.2295 4.63938 11.7669 6.51298 11.7669Z" fill="#225B66"/>
<path d="M3.50932 4.43506C2.46842 4.43506 1.81415 5.23332 1.81415 5.88375C2.28998 5.52897 2.85504 5.29245 3.50932 5.29245C4.16359 5.29245 4.72865 5.49941 5.20448 5.88375C5.20448 5.26288 4.49073 4.43506 3.50932 4.43506Z" fill="#225B66"/>
<path d="M9.5167 4.43506C8.47581 4.43506 7.82153 5.23332 7.82153 5.88375C8.29737 5.52897 8.86243 5.29245 9.5167 5.29245C10.171 5.29245 10.736 5.49941 11.2119 5.88375C11.2119 5.26288 10.4981 4.43506 9.5167 4.43506Z" fill="#225B66"/>
</g>
<defs>
<clipPath id="clip0_578_11939">
<rect width="24" height="17" fill="white"/>
</clipPath>
</defs>
</svg>
