<svg width="17" height="21" viewBox="0 0 17 21" fill="none" xmlns="http://www.w3.org/2000/svg">
<g clip-path="url(#clip0_549_11894)">
<path d="M7.69496 17.2832H7.33923V20.1577H7.69496V17.2832Z" fill="#1C1C1C"/>
<path d="M9.64204 17.2832H9.28632V20.1577H9.64204V17.2832Z" fill="#595858"/>
<path d="M8.50003 19.334H7.33923V21.0001H8.50003V19.334Z" fill="#595858"/>
<path d="M9.66079 19.334H8.5V21.0001H9.66079V19.334Z" fill="#1C1C1C"/>
<path d="M2.49009 6.48126C2.49009 2.91107 5.18612 0 8.5 0C3.80066 0 0 2.91107 0 6.48126C0 11.1683 5.56057 16.3679 7.67621 18.1805H7.9196C6.42181 16.3679 2.49009 11.1866 2.49009 6.48126Z" fill="#FFDF5A"/>
<path d="M2.49011 6.48126C2.49011 11.1683 6.40311 16.3679 7.90091 18.1805H8.18174C7.43284 16.3679 5.48571 11.1683 5.48571 6.48126C5.48571 2.89276 6.83372 0 8.4813 0C5.18615 0 2.49011 2.91107 2.49011 6.48126Z" fill="#E54B42"/>
<path d="M5.50439 6.48126C5.50439 11.1683 7.45153 16.3679 8.20043 18.1805H8.48127V0C6.85241 0 5.50439 2.91107 5.50439 6.48126Z" fill="#FFDF5A"/>
<path d="M17 6.48126C16.9813 2.91107 13.1806 0 8.5 0C11.8139 0 14.4912 2.91107 14.4912 6.48126C14.4912 11.1683 10.5782 16.3679 9.0804 18.1805H9.32379C11.4394 16.3679 17 11.1866 17 6.48126Z" fill="#B7281D"/>
<path d="M11.4769 6.48126C11.4769 11.1683 9.52974 16.3679 8.78084 18.1805H9.06167C10.5595 16.3679 14.4725 11.1683 14.4725 6.48126C14.4912 2.91107 11.8139 0 8.5 0C10.1476 0 11.4769 2.91107 11.4769 6.48126Z" fill="#EAB828"/>
<path d="M8.78082 18.1805C9.52972 16.3679 11.4769 11.1683 11.4769 6.48126C11.4769 2.89276 10.1288 0 8.48126 0V18.1805H8.78082Z" fill="#B7281D"/>
</g>
<defs>
<clipPath id="clip0_549_11894">
<rect width="17" height="21" fill="white"/>
</clipPath>
</defs>
</svg>
