<svg width="23" height="14" viewBox="0 0 23 14" fill="none" xmlns="http://www.w3.org/2000/svg">
<path opacity="0.5" d="M22.8839 12.7359C22.8839 13.2413 17.9691 13.6456 11.8978 13.6456C5.82648 13.6456 0.911621 13.275 0.911621 12.7359C0.911621 12.2305 5.82648 11.8262 11.8978 11.8262C17.9691 11.8262 22.8839 12.2305 22.8839 12.7359Z" fill="#A8A8A8"/>
<path d="M16.4715 2.32129H13.5618C11.31 2.32129 9.48822 4.08036 9.48822 6.25477V12.5337H20.5451V6.25477C20.5451 4.08036 18.7234 2.32129 16.4715 2.32129Z" fill="#3A6F81"/>
<path d="M18.4703 2.80923L14.1183 0.561523L14.3714 3.27343L18.4703 2.80923Z" fill="#3A6F81"/>
<path d="M11.816 0H8.22311C5.46521 0 3.23865 2.14998 3.23865 4.81301V12.5334H16.8004V4.81301C16.8004 2.14998 14.5739 0 11.816 0Z" fill="#CCDBDA"/>
<g opacity="0.5">
<path d="M15.6868 5.05965C15.535 5.05965 15.4338 4.96192 15.4338 4.81533C15.4338 4.10682 15.2314 3.44717 14.8012 2.86081C14.7253 2.73865 14.7506 2.59206 14.8771 2.51877C15.0037 2.44547 15.1555 2.4699 15.2314 2.59206C15.6868 3.25171 15.9398 4.03352 15.9398 4.81533C15.9398 4.96192 15.8133 5.05965 15.6868 5.05965Z" fill="#CCDBDA"/>
</g>
<g opacity="0.5">
<path d="M4.35208 10.7024C4.20027 10.7024 4.09906 10.6047 4.09906 10.4581V4.81437C4.09906 2.61553 5.94609 0.832031 8.22326 0.832031H11.8161C12.8282 0.832031 13.7897 1.1985 14.5487 1.83372C14.6499 1.93145 14.6752 2.07804 14.574 2.17577C14.4728 2.27349 14.321 2.29792 14.2198 2.2002C13.5619 1.63827 12.7017 1.32066 11.8161 1.32066H8.22326C6.22441 1.32066 4.6051 2.88428 4.6051 4.81437V10.4581C4.6051 10.6047 4.47859 10.7024 4.35208 10.7024Z" fill="#CCDBDA"/>
</g>
<g opacity="0.5">
<path d="M4.3522 11.7024C4.20024 11.7024 4.09894 11.6045 4.09894 11.4578V11.2377C4.09894 11.091 4.20024 10.9932 4.3522 10.9932C4.50415 10.9932 4.60546 11.091 4.60546 11.2377V11.4578C4.60546 11.6045 4.47883 11.7024 4.3522 11.7024Z" fill="#CCDBDA"/>
</g>
<path d="M10.9051 3.69141H9.10864C7.74234 3.69141 6.60376 4.76639 6.60376 6.11013V12.5356H13.3847V6.11013C13.41 4.79083 12.2967 3.69141 10.9051 3.69141Z" fill="#3A6F81"/>
<g opacity="0.5">
<path d="M10.6015 11.7066H10.0193C9.86747 11.7066 9.76624 11.6088 9.76624 11.4622C9.76624 11.3155 9.86747 11.2178 10.0193 11.2178H10.6015C10.7533 11.2178 10.8546 11.3155 10.8546 11.4622C10.8546 11.6088 10.728 11.7066 10.6015 11.7066Z" fill="#CCDBDA"/>
</g>
<g opacity="0.5">
<path d="M11.7402 11.7069H11.4366C11.2847 11.7069 11.1835 11.6092 11.1835 11.4626C11.1835 11.316 11.2847 11.2183 11.4366 11.2183H11.7402C11.892 11.2183 12.0185 11.0961 12.0185 10.9496V6.62517C12.0185 6.47859 12.1197 6.38086 12.2715 6.38086C12.4233 6.38086 12.5245 6.47859 12.5245 6.62517V10.9251C12.5498 11.3649 12.1956 11.7069 11.7402 11.7069Z" fill="#CCDBDA"/>
</g>
<path d="M19.5836 13.4389C19.533 13.4389 19.4824 13.4145 19.4571 13.3412L16.6739 4.32594C16.6486 4.25265 16.6992 4.20378 16.7498 4.17935C16.8257 4.15492 16.8763 4.20378 16.9016 4.25264L19.6848 13.2679C19.7101 13.3412 19.6595 13.39 19.6089 13.4145C19.6089 13.4389 19.6089 13.4389 19.5836 13.4389Z" fill="#97D6EF"/>
<path d="M0.430092 13.4376H0.404791C0.328885 13.4132 0.303583 13.3399 0.328885 13.2911L3.11209 4.27582C3.13739 4.20252 3.21329 4.17809 3.2639 4.20252C3.3398 4.22695 3.36511 4.30025 3.3398 4.34911L0.556602 13.3644C0.556602 13.3888 0.505998 13.4376 0.430092 13.4376Z" fill="#97D6EF"/>
<path d="M22.5695 11.581C22.5189 11.581 22.4683 11.5566 22.443 11.5077L20.52 5.8152C20.4947 5.7419 20.5453 5.69304 20.5959 5.66861C20.6718 5.64418 20.7225 5.69304 20.7478 5.7419L22.6707 11.4345C22.696 11.5077 22.6454 11.5566 22.5948 11.581H22.5695Z" fill="#97D6EF"/>
<path d="M0.430542 13.9994C0.202608 13.9994 0 13.8283 0 13.5837C0 13.3636 0.177282 13.168 0.430542 13.168C0.658477 13.168 0.861085 13.3392 0.861085 13.5837C0.861085 13.8283 0.683803 13.9994 0.430542 13.9994ZM0.430542 13.437C0.329238 13.437 0.25326 13.5103 0.25326 13.6082C0.25326 13.706 0.329238 13.7793 0.430542 13.7793C0.531847 13.7793 0.607825 13.706 0.607825 13.6082C0.607825 13.5103 0.531847 13.437 0.430542 13.437Z" fill="#97D6EF"/>
<path d="M19.584 13.9994C19.3561 13.9994 19.1535 13.8283 19.1535 13.5837C19.1535 13.3636 19.3308 13.168 19.584 13.168C19.8373 13.168 20.0146 13.3392 20.0146 13.5837C20.0146 13.8283 19.812 13.9994 19.584 13.9994ZM19.584 13.437C19.4827 13.437 19.4068 13.5103 19.4068 13.6082C19.4068 13.706 19.4827 13.7793 19.584 13.7793C19.6854 13.7793 19.7613 13.706 19.7613 13.6082C19.7613 13.5103 19.6854 13.437 19.584 13.437Z" fill="#97D6EF"/>
<path d="M22.5695 12.1684C22.3415 12.1684 22.1389 11.9972 22.1389 11.7526C22.1389 11.5326 22.3162 11.3369 22.5695 11.3369C22.7974 11.3369 23 11.5081 23 11.7526C22.9747 11.9727 22.7974 12.1684 22.5695 12.1684ZM22.5695 11.5815C22.4682 11.5815 22.3922 11.6548 22.3922 11.7526C22.3922 11.8505 22.4682 11.9238 22.5695 11.9238C22.6708 11.9238 22.7467 11.8505 22.7467 11.7526C22.7214 11.6548 22.6454 11.5815 22.5695 11.5815Z" fill="#97D6EF"/>
<path d="M16.8005 12.5349H17.9138L16.8005 4.76562V12.5349Z" fill="#346370"/>
<path d="M13.3844 5.76758L14.3712 12.5351H13.4097L13.3844 5.76758Z" fill="#B1BAB9"/>
</svg>
