<svg width="17" height="21" viewBox="0 0 17 21" fill="none" xmlns="http://www.w3.org/2000/svg">
<path d="M8.66679 7.6363L8.58503 7.59673C8.56459 7.59673 8.54415 7.57694 8.52371 7.57694L6.00954 6.52827V2.15549C6.00954 1.46296 5.41677 0.88916 4.70135 0.88916C3.98594 0.88916 3.39317 1.46296 3.39317 2.15549V6.52827L0.695035 7.6363C0.286227 7.85395 6.10352e-05 8.26947 6.10352e-05 8.74434V20.0226C6.10352e-05 20.7151 0.592833 20.814 1.30825 20.814H8.05358C8.769 20.814 9.36177 20.7349 9.36177 20.0226V8.74434C9.36177 8.26947 9.0756 7.85395 8.66679 7.6363Z" fill="#E6E0CA"/>
<path d="M8.52381 7.89528L8.46249 7.85571C8.44205 7.85571 8.4216 7.83592 8.40116 7.83592L7.39958 7.42041H1.942L0.838213 7.8755C0.511167 8.05357 0.306763 8.38994 0.306763 8.7461V20.0243C0.306763 20.3805 0.449846 20.519 1.32878 20.519H8.05368C8.93262 20.519 9.0757 20.3805 9.0757 20.0243V8.7461C9.0757 8.38994 8.87129 8.05357 8.52381 7.89528Z" fill="#EB7801"/>
<path d="M6.29537 1.46419C6.29537 1.58291 6.09096 1.68184 5.86612 1.68184H3.45415C3.20887 1.68184 3.0249 1.58291 3.0249 1.46419V0.21765C3.0249 0.0989317 3.22931 0 3.45415 0H5.86612C6.1114 0 6.29537 0.0989317 6.29537 0.21765V1.46419Z" fill="#394251"/>
<path d="M2.61655 20.2412C2.61655 20.4786 2.41215 20.6567 2.18731 20.6567H1.79894C1.55365 20.6567 1.36969 20.4588 1.36969 20.2412V8.38915C1.36969 8.15171 1.57409 7.97363 1.79894 7.97363H2.18731C2.43259 7.97363 2.61655 8.1715 2.61655 8.38915V20.2412Z" fill="#E6E0CA"/>
<path d="M4.37415 5.97633C4.37415 6.13462 4.25151 6.25334 4.08798 6.25334C3.92446 6.25334 3.80182 6.13462 3.80182 5.97633V2.2565C3.80182 2.09821 3.92446 1.97949 4.08798 1.97949C4.25151 1.97949 4.37415 2.09821 4.37415 2.2565V5.97633Z" fill="#F7F3E7"/>
<path d="M5.98911 2.63184H3.37274V4.76876H5.98911V2.63184Z" fill="#B1291D"/>
<path d="M5.98911 2.94873H3.37274V3.30488H5.98911V2.94873Z" fill="#E6E0CA"/>
<path d="M5.98911 4.07617H3.37274V4.43233H5.98911V4.07617Z" fill="#E6E0CA"/>
<path d="M9.36147 10.231H0.0202026V17.6113H9.36147V10.231Z" fill="#B1291D"/>
<path d="M1.90105 15.75L2.08502 16.1062L2.49383 16.1655L2.20766 16.4623L2.26898 16.858L1.90105 16.6602L1.53313 16.858L1.59445 16.4623L1.28784 16.1655L1.71709 16.1062L1.90105 15.75Z" fill="#EAEEEF"/>
<path d="M3.33221 15.75L3.51617 16.1062L3.92498 16.1655L3.61837 16.4623L3.70013 16.858L3.33221 16.6602L2.94384 16.858L3.0256 16.4623L2.71899 16.1655L3.14824 16.1062L3.33221 15.75Z" fill="#EAEEEF"/>
<path d="M4.74212 15.75L4.94653 16.1062L5.35534 16.1655L5.04873 16.4623L5.13049 16.858L4.74212 16.6602L4.3742 16.858L4.45596 16.4623L4.14935 16.1655L4.55816 16.1062L4.74212 15.75Z" fill="#EAEEEF"/>
<path d="M6.1734 15.75L6.35736 16.1062L6.78661 16.1655L6.48001 16.4623L6.54133 16.858L6.1734 16.6602L5.80547 16.858L5.88723 16.4623L5.58063 16.1655L5.98944 16.1062L6.1734 15.75Z" fill="#EAEEEF"/>
<path d="M7.604 15.75L7.78797 16.1062L8.21721 16.1655L7.91061 16.4623L7.97193 16.858L7.604 16.6602L7.23607 16.858L7.2974 16.4623L7.01123 16.1655L7.42004 16.1062L7.604 15.75Z" fill="#EAEEEF"/>
<path d="M0.838285 15.5721L1.20621 15.5919C1.16533 15.3941 1.14489 15.1962 1.14489 14.9785C1.14489 13.0395 2.78012 11.4566 4.78328 11.4566C6.78644 11.4566 8.42167 13.0395 8.42167 14.9785C8.42167 15.1962 8.40123 15.3941 8.36035 15.5919H8.72828V15.5721L9.11665 15.0379C9.15753 14.9983 9.15753 14.9192 9.11665 14.8796L8.72828 14.3454L8.93268 13.732C8.95312 13.6726 8.93268 13.6133 8.8918 13.5737L8.33991 13.1978V12.5448C8.33991 12.4855 8.29903 12.4261 8.23771 12.4063L7.60406 12.2085L7.39965 11.5951C7.37921 11.5357 7.31789 11.4961 7.27701 11.4961H6.60248L6.21411 10.9817C6.17323 10.9421 6.11191 10.9223 6.05059 10.9421L5.41693 11.14L4.86504 10.7641C4.82416 10.7245 4.7424 10.7245 4.70152 10.7641L4.17007 11.14L3.53642 10.9421C3.4751 10.9223 3.41378 10.9421 3.3729 10.9817L2.98453 11.5159H2.30999C2.24867 11.5159 2.18735 11.5555 2.18735 11.6149L1.98295 12.2282L1.3493 12.4261C1.28797 12.4459 1.24709 12.5053 1.24709 12.5646V13.2176L0.695202 13.5935C0.654322 13.6331 0.633881 13.6924 0.654322 13.7518L0.858726 14.3652L0.470358 14.8994C0.429477 14.939 0.429477 15.0181 0.470358 15.0577L0.838285 15.5721ZM8.85092 14.9588L8.56476 15.3545C8.5852 15.2358 8.5852 15.0973 8.5852 14.9785C8.5852 14.84 8.5852 14.7213 8.56476 14.5828L8.85092 14.9588ZM8.09463 12.6438V13.1384C7.95155 12.901 7.78802 12.6833 7.60406 12.4855L8.09463 12.6438ZM6.05059 11.2191L6.35719 11.6149C6.11191 11.4961 5.84618 11.417 5.56002 11.3576L6.05059 11.2191ZM3.53642 11.2191L4.02699 11.3774C3.74082 11.4368 3.4751 11.5159 3.22981 11.6347L3.53642 11.2191ZM2.00339 12.5053C1.81942 12.7031 1.6559 12.9208 1.51282 13.1582V12.6635L2.00339 12.5053ZM1.04269 14.563C1.02225 14.7015 1.02225 14.84 1.02225 14.9785C1.02225 15.117 1.02225 15.2358 1.04269 15.3743L0.736083 14.9785L1.04269 14.563Z" fill="#EAEEEF"/>
<path d="M16.4205 10.9683V20.2621C16.4205 20.6722 16.0607 21.0002 15.6109 21.0002H8.87431C8.42454 21.0002 8.06472 20.6722 8.06472 20.2621V10.9683H16.4205Z" fill="#DBDBDB"/>
<path d="M16.1504 10.4219V19.8889C16.1504 20.2716 15.8106 20.5814 15.3908 20.5814H9.09392C8.67414 20.5814 8.33431 20.2716 8.33431 19.8889V10.4219H16.1504Z" fill="#FFAA00"/>
<path opacity="0.2" d="M13.2621 19.0878C13.2621 18.9694 13.372 18.8691 13.5019 18.8691C13.6319 18.8691 13.7418 18.9694 13.7418 19.0878C13.7418 19.2063 13.6319 19.3065 13.5019 19.3065C13.372 19.3065 13.2621 19.2063 13.2621 19.0878Z" fill="#F9F9F9"/>
<path opacity="0.2" d="M11.7826 16.6557C11.7826 16.5372 11.8925 16.437 12.0224 16.437C12.1524 16.437 12.2623 16.5372 12.2623 16.6557C12.2623 16.7741 12.1524 16.8744 12.0224 16.8744C11.8925 16.8744 11.7826 16.7741 11.7826 16.6557Z" fill="#F9F9F9"/>
<path opacity="0.2" d="M10.5334 18.2856C10.5334 18.1671 10.6433 18.0669 10.7732 18.0669C10.9032 18.0669 11.0131 18.1671 11.0131 18.2856C11.0131 18.404 10.9032 18.5043 10.7732 18.5043C10.6333 18.5043 10.5334 18.4131 10.5334 18.2856Z" fill="#F9F9F9"/>
<path opacity="0.2" d="M14.1415 13.393C14.1415 13.2745 14.2514 13.1743 14.3813 13.1743C14.5113 13.1743 14.6212 13.2745 14.6212 13.393C14.6212 13.5114 14.5113 13.6117 14.3813 13.6117C14.2514 13.6117 14.1415 13.5114 14.1415 13.393Z" fill="#F9F9F9"/>
<path opacity="0.2" d="M14.4814 17.1386C14.4814 17.0201 14.5913 16.9199 14.7212 16.9199C14.8512 16.9199 14.9611 17.0201 14.9611 17.1386C14.9611 17.2571 14.8512 17.3573 14.7212 17.3573C14.5913 17.3573 14.4814 17.2662 14.4814 17.1386Z" fill="#F9F9F9"/>
<path opacity="0.2" d="M12.4425 14.04C12.4425 13.9215 12.5524 13.8213 12.6824 13.8213C12.8123 13.8213 12.9222 13.9215 12.9222 14.04C12.9222 14.1584 12.8123 14.2586 12.6824 14.2586C12.5524 14.2586 12.4425 14.1675 12.4425 14.04Z" fill="#F9F9F9"/>
<path opacity="0.2" d="M11.0829 13.0266C11.0829 12.9446 11.1529 12.8809 11.2429 12.8809C11.3328 12.8809 11.4028 12.9446 11.4028 13.0266C11.4028 13.1087 11.3328 13.1724 11.2429 13.1724C11.1629 13.1815 11.0829 13.1087 11.0829 13.0266Z" fill="#F9F9F9"/>
<path opacity="0.2" d="M14.3215 15.1062C14.3215 15.0242 14.3915 14.9604 14.4814 14.9604C14.5714 14.9604 14.6414 15.0242 14.6414 15.1062C14.6414 15.1882 14.5714 15.252 14.4814 15.252C14.3915 15.2611 14.3215 15.1882 14.3215 15.1062Z" fill="#F9F9F9"/>
<path opacity="0.2" d="M10.0536 14.7962C10.0536 14.7142 10.1235 14.6504 10.2135 14.6504C10.3034 14.6504 10.3734 14.7142 10.3734 14.7962C10.3734 14.8782 10.3034 14.942 10.2135 14.942C10.1235 14.942 10.0536 14.8782 10.0536 14.7962Z" fill="#F9F9F9"/>
<path opacity="0.2" d="M11.0829 19.0872C11.0829 19.0052 11.1529 18.9414 11.2429 18.9414C11.3328 18.9414 11.4028 19.0052 11.4028 19.0872C11.4028 19.1692 11.3328 19.233 11.2429 19.233C11.1629 19.2421 11.0829 19.1692 11.0829 19.0872Z" fill="#F9F9F9"/>
<path opacity="0.2" d="M9.9936 10.6679C9.9936 10.5586 10.0936 10.4766 10.2035 10.4766C10.3234 10.4766 10.4134 10.5677 10.4134 10.6679C10.4134 10.7772 10.3134 10.8593 10.2035 10.8593C10.0936 10.8593 9.9936 10.7772 9.9936 10.6679Z" fill="#F9F9F9"/>
<path opacity="0.2" d="M12.9821 11.1332C12.9821 11.0239 13.082 10.9419 13.192 10.9419C13.3119 10.9419 13.4019 11.033 13.4019 11.1332C13.4019 11.2426 13.3019 11.3246 13.192 11.3246C13.082 11.3246 12.9821 11.2335 12.9821 11.1332Z" fill="#F9F9F9"/>
<path opacity="0.2" d="M13.2021 17.1372C13.2021 17.0643 13.2721 17.0005 13.352 17.0005C13.432 17.0005 13.502 17.0643 13.502 17.1372C13.502 17.2101 13.432 17.2738 13.352 17.2738C13.2621 17.2829 13.2021 17.2192 13.2021 17.1372Z" fill="#F9F9F9"/>
<path opacity="0.2" d="M11.7427 15.1051C11.7427 15.1416 11.7826 15.178 11.8226 15.178C11.8626 15.178 11.9026 15.1416 11.9026 15.1051C11.9026 15.0687 11.8626 15.0322 11.8226 15.0322C11.7727 15.0322 11.7427 15.0687 11.7427 15.1051Z" fill="#F9F9F9"/>
<path opacity="0.2" d="M12.6423 15.4973C12.5982 15.4973 12.5624 15.4647 12.5624 15.4245C12.5624 15.3842 12.5982 15.3516 12.6423 15.3516C12.6865 15.3516 12.7223 15.3842 12.7223 15.4245C12.7223 15.4647 12.6865 15.4973 12.6423 15.4973Z" fill="#F9F9F9"/>
<path opacity="0.2" d="M10.8531 11.0047C10.809 11.0047 10.7732 10.972 10.7732 10.9318C10.7732 10.8915 10.809 10.8589 10.8531 10.8589C10.8973 10.8589 10.9331 10.8915 10.9331 10.9318C10.9331 10.972 10.8973 11.0047 10.8531 11.0047Z" fill="#F9F9F9"/>
<path opacity="0.2" d="M13.472 11.1958H15.5609V19.5876C15.5609 19.9065 15.2711 20.1708 14.9212 20.1708H13.472V11.1958Z" fill="#F9F9F9"/>
<path opacity="0.2" d="M8.97396 11.0044H11.3428V20.1707H9.57366C9.2938 20.1707 9.06391 20.0158 8.97396 19.788V11.0044Z" fill="#F9F9F9"/>
<path d="M8.10463 19.3521L8.1646 18.0765C6.61538 17.4295 6.26555 17.0377 6.26555 16.5457V13.6937C6.26555 13.6209 6.26555 13.548 6.49544 13.548H8.3645V12.3726H6.49544C5.59589 12.3726 4.9662 12.9193 4.9662 13.6937V16.5457C4.9762 17.5844 5.93572 18.45 8.10463 19.3521Z" fill="#DBDBDB"/>
<path d="M13.7717 10.3762C13.7717 9.56522 14.4914 8.90918 15.3809 8.90918C16.2805 8.90918 17.0001 9.56522 17.0001 10.3762C17.0001 11.1871 16.2805 11.8431 15.3909 11.8431C14.4914 11.8522 13.7717 11.1962 13.7717 10.3762Z" fill="#F9F9F9"/>
<path d="M11.7327 10.3757C11.7327 9.70148 12.3324 9.15479 13.072 9.15479C13.8116 9.15479 14.4113 9.70148 14.4113 10.3757C14.4113 11.05 13.8116 11.5967 13.072 11.5967C12.3324 11.5967 11.7327 11.05 11.7327 10.3757Z" fill="#F9F9F9"/>
<path d="M13.0721 9.37352C13.0721 8.79038 13.5819 8.32568 14.2115 8.32568C14.8412 8.32568 15.361 8.79038 15.361 9.37352C15.361 9.95667 14.8512 10.4214 14.2115 10.4214C13.5819 10.4123 13.0721 9.94756 13.0721 9.37352Z" fill="#F9F9F9"/>
<path d="M9.85379 10.0483C9.85379 9.34666 10.4835 8.78174 11.2531 8.78174C12.0227 8.78174 12.6424 9.34666 12.6424 10.0483C12.6424 10.7499 12.0227 11.3148 11.2531 11.3148C10.4835 11.3148 9.85379 10.7499 9.85379 10.0483Z" fill="#F9F9F9"/>
<path d="M8.35444 10.3755C8.35444 9.81056 8.85419 9.35498 9.47388 9.35498C10.0936 9.35498 10.5933 9.81056 10.5933 10.3755C10.5933 10.9404 10.0936 11.396 9.47388 11.396C8.85419 11.4051 8.35444 10.9404 8.35444 10.3755Z" fill="#F9F9F9"/>
<path d="M7.8845 10.1466C7.8845 9.72743 8.25432 9.39941 8.70409 9.39941C9.16386 9.39941 9.52368 9.73655 9.52368 10.1466C9.52368 10.5566 9.15387 10.8937 8.70409 10.8937C8.25432 10.8937 7.8845 10.5566 7.8845 10.1466Z" fill="#F9F9F9"/>
<path d="M7.05506 11.0868C7.05506 10.6403 7.45486 10.2759 7.94461 10.2759C8.43437 10.2759 8.83417 10.6403 8.83417 11.0868C8.83417 11.5333 8.43437 11.8978 7.94461 11.8978C7.45486 11.8978 7.05506 11.5333 7.05506 11.0868Z" fill="#F9F9F9"/>
<path d="M8.7542 11.8528C8.7542 11.4884 9.07404 11.1968 9.47384 11.1968C9.87364 11.1968 10.1935 11.4884 10.1935 11.8528C10.1935 12.2173 9.87364 12.5089 9.47384 12.5089C9.07404 12.5089 8.7542 12.2173 8.7542 11.8528Z" fill="#F9F9F9"/>
<path d="M8.48434 12.8808C8.48434 12.5528 8.7742 12.2886 9.13402 12.2886C9.49384 12.2886 9.78369 12.5528 9.78369 12.8808C9.78369 13.2089 9.49384 13.4731 9.13402 13.4731C8.7742 13.4822 8.48434 13.2089 8.48434 12.8808Z" fill="#F9F9F9"/>
</svg>
