<svg width="21" height="18" viewBox="0 0 21 18" fill="none" xmlns="http://www.w3.org/2000/svg">
<path d="M20.7363 2.02751C19.4987 1.6914 19.2803 1.47659 18.9386 0.259378C18.8956 0.106139 18.7538 0 18.5922 0C18.4306 0 18.2888 0.106139 18.2458 0.259378C17.904 1.47659 17.6857 1.6914 16.4481 2.02746C16.2923 2.06977 16.1844 2.20914 16.1844 2.36819C16.1844 2.52714 16.2923 2.66656 16.4481 2.70891C17.6856 3.04498 17.904 3.25983 18.2458 4.477C18.2888 4.63019 18.4306 4.73637 18.5922 4.73637C18.7538 4.73637 18.8956 4.63019 18.9386 4.477C19.2803 3.25979 19.4987 3.04502 20.7363 2.70891C20.8921 2.66665 21 2.52723 21 2.36819C21 2.20914 20.8921 2.06977 20.7363 2.02751Z" fill="#FFC753"/>
<path d="M17.2585 15.7555C16.2331 15.477 16.0522 15.2991 15.769 14.2905C15.7334 14.1636 15.6159 14.0757 15.482 14.0757C15.3481 14.0757 15.2306 14.1636 15.195 14.2905C14.9119 15.2991 14.7309 15.4771 13.7055 15.7555C13.5764 15.7906 13.487 15.9061 13.487 16.0378C13.487 16.1696 13.5764 16.285 13.7055 16.3202C14.7309 16.5986 14.912 16.7767 15.195 17.7852C15.2306 17.9121 15.3481 18 15.482 18C15.616 18 15.7334 17.9121 15.769 17.7852C16.0522 16.7767 16.2332 16.5986 17.2585 16.3202C17.3876 16.2851 17.477 16.1696 17.477 16.0378C17.4771 15.9061 17.3876 15.7907 17.2585 15.7555Z" fill="#FFC753"/>
<path d="M0.108677 7.05957C-0.0610304 7.35497 -0.0300802 7.72521 0.192104 7.98977L7.84695 17.1031C8.00611 17.2927 8.24312 17.4024 8.4931 17.4024C8.74321 17.4024 8.98009 17.2927 9.13938 17.1031L16.7941 7.98981C17.0164 7.72525 17.0473 7.35501 16.8776 7.05961L0.108677 7.05957Z" fill="#53E7D3"/>
<path d="M5.18744 7.52002L8.49258 17.4026L8.49314 17.4027L8.49375 17.4026L11.7989 7.52002H5.18744Z" fill="#B9F5ED"/>
<path d="M16.8477 7.01069L14.116 2.93645C13.9608 2.70511 13.698 2.56592 13.4162 2.56592H3.57019C3.28844 2.56592 3.02558 2.70515 2.8704 2.93645L0.13853 7.01069C0.0350026 7.16505 -0.00965024 7.34413 0.00232349 7.51961H16.9839C16.9959 7.34413 16.9512 7.16509 16.8477 7.01069Z" fill="#B9F5ED"/>
<path d="M16.8476 7.01107L14.1157 2.93666C14.0346 2.81591 13.9239 2.72108 13.7968 2.65723L10.5363 7.52H16.9839C16.9958 7.34448 16.9512 7.16543 16.8476 7.01107Z" fill="#37C4B3"/>
<path d="M2.87049 2.93671L0.138447 7.01107C0.0349197 7.16543 -0.00964668 7.34448 0.0022406 7.52H6.44981L3.18929 2.65723C3.06216 2.72104 2.9515 2.81591 2.87049 2.93671Z" fill="#37C4B3"/>
<path opacity="0.1" d="M1.46921 7.99015C1.23462 7.71084 1.21288 7.31357 1.4157 7.01118L4.14752 2.93694C4.30266 2.7056 4.56557 2.56641 4.84732 2.56641H3.5701C3.28835 2.56641 3.02549 2.70564 2.87031 2.93694L0.138484 7.01113C-0.0643346 7.31357 -0.0425916 7.71075 0.191998 7.99011L7.84689 17.1034C8.00609 17.293 1.46921 7.99015 1.46921 7.99015Z" fill="black"/>
<path d="M8.48831 2.56592L5.16687 7.51966H11.8194L8.4979 2.56592H8.48831Z" fill="#53E7D3"/>
</svg>
