<svg width="19" height="18" viewBox="0 0 19 18" fill="none" xmlns="http://www.w3.org/2000/svg">
<g clip-path="url(#clip0_615_815)">
<path d="M1.634 4.63754C1.49077 4.11696 0.751231 4.10419 0.581692 4.56409L0 5.81284C0.114 5.87033 0.225077 5.92782 0.333231 5.99169C0.938308 4.68864 0.964615 4.66309 1.06108 4.64712C1.19554 4.62796 1.24815 4.74932 1.28323 4.85152L2.86462 9.67729H3.29723L1.634 4.63754Z" fill="#ED264E"/>
<path d="M2.8266 17.9935L2.80029 12.893L5.00137 0.0253906H16.7989L19 12.893L18.9766 17.9935H2.8266Z" fill="#E79D3A"/>
<path d="M18.202 4.43932H3.50183L4.22675 0H17.4771L18.202 4.43932Z" fill="#F3B267"/>
<path d="M18.9737 12.8931H2.80029V17.9935H18.9737V12.8931Z" fill="#F3B267"/>
<path d="M6.99492 8.25928V10.546C6.65 13.9761 6.64708 14.0176 6.24661 18.0002H1.31246C0.871076 13.4779 0.821384 12.9605 0.593384 10.5971V8.25928H6.99492Z" fill="#A1CFDB"/>
<path d="M6.61783 8.20167V7.33936H0.985063V8.20167H0.128601V9.4153H7.45091V8.20167H6.61783Z" fill="#5F3A16"/>
<path d="M6.85461 11.9478L6.6383 14.1259H0.935376L0.724915 11.9478H6.85461Z" fill="#ED264E"/>
</g>
<defs>
<clipPath id="clip0_615_815">
<rect width="19" height="18" fill="white"/>
</clipPath>
</defs>
</svg>
