<svg width="26" height="15" viewBox="0 0 26 15" fill="none" xmlns="http://www.w3.org/2000/svg">
<path d="M9.26593 14.6633L14.6556 0L25.4348 14.6633H9.26593Z" fill="#D68B2F"/>
<path d="M5.02405 14.6633L14.6555 0L20.4777 14.6633H5.02405Z" fill="#FCB756"/>
<path d="M15.9198 6.18082C15.9198 6.41278 15.7368 6.59503 15.5039 6.59503H14.3894C14.1565 6.59503 13.9735 6.41278 13.9735 6.18082C13.9735 5.94886 14.1565 5.7666 14.3894 5.7666H15.5039C15.7368 5.78317 15.9198 5.96543 15.9198 6.18082Z" fill="#D68B2F"/>
<path d="M13.2749 7.80387C13.2749 8.03583 13.0919 8.21808 12.859 8.21808H11.7445C11.5116 8.21808 11.3286 8.03583 11.3286 7.80387C11.3286 7.5719 11.5116 7.38965 11.7445 7.38965H12.859C13.0919 7.38965 13.2749 7.5719 13.2749 7.80387Z" fill="#D68B2F"/>
<path d="M16.7181 8.2189C16.7181 8.45087 16.5351 8.63312 16.3022 8.63312H15.1877C14.9548 8.63312 14.7719 8.45087 14.7719 8.2189C14.7719 7.98694 14.9548 7.80469 15.1877 7.80469H16.3022C16.5351 7.80469 16.7181 7.98694 16.7181 8.2189Z" fill="#D68B2F"/>
<path d="M18.3152 12.9386C18.3152 13.1706 18.1322 13.3528 17.8993 13.3528H16.7848C16.5519 13.3528 16.3689 13.1706 16.3689 12.9386C16.3689 12.7067 16.5519 12.5244 16.7848 12.5244H17.8993C18.1322 12.5244 18.3152 12.7232 18.3152 12.9386Z" fill="#D68B2F"/>
<path d="M15.4871 11.9796C15.4871 12.2116 15.3042 12.3939 15.0713 12.3939H13.9568C13.7239 12.3939 13.5409 12.2116 13.5409 11.9796C13.5409 11.7477 13.7239 11.5654 13.9568 11.5654H15.0713C15.3042 11.582 15.4871 11.7643 15.4871 11.9796Z" fill="#D68B2F"/>
<path d="M3.3103 14.387L6.85349 6.16895L13.9232 14.387H3.3103Z" fill="#D68B2F"/>
<path d="M0.54895 14.387L6.85349 6.16895L10.6795 14.387H0.54895Z" fill="#FCB756"/>
<path d="M3.49335 13.3266C3.49335 13.4922 3.36027 13.6248 3.19392 13.6248H2.4121C2.24575 13.6248 2.11267 13.4922 2.11267 13.3266C2.11267 13.1609 2.24575 13.0283 2.4121 13.0283H3.19392C3.36027 13.0283 3.49335 13.1609 3.49335 13.3266Z" fill="#D68B2F"/>
<path d="M4.69098 12.2484C4.69098 12.4141 4.5579 12.5467 4.39156 12.5467H3.60973C3.44338 12.5467 3.3103 12.4141 3.3103 12.2484C3.3103 12.0827 3.44338 11.9502 3.60973 11.9502H4.39156C4.5579 11.9668 4.69098 12.0993 4.69098 12.2484Z" fill="#D68B2F"/>
<path d="M6.12152 13.6078C6.12152 13.7735 5.98845 13.906 5.8221 13.906H5.04027C4.87392 13.906 4.74084 13.7735 4.74084 13.6078C4.74084 13.4421 4.87392 13.3096 5.04027 13.3096H5.8221C5.98845 13.3261 6.12152 13.4421 6.12152 13.6078Z" fill="#D68B2F"/>
<path d="M7.50214 8.72011C7.50214 8.8858 7.36906 9.01835 7.20271 9.01835H6.42088C6.25454 9.01835 6.12146 8.8858 6.12146 8.72011C6.12146 8.55442 6.25454 8.42188 6.42088 8.42188H7.20271C7.36906 8.43844 7.50214 8.57099 7.50214 8.72011Z" fill="#D68B2F"/>
<path d="M26 14.3877H0V15.0007H26V14.3877Z" fill="#D68B2F"/>
</svg>
