<svg width="16" height="16" viewBox="0 0 16 16" fill="none" xmlns="http://www.w3.org/2000/svg">
<g clip-path="url(#clip0_615_910)">
<path d="M13.7797 6.07031C13.7797 6.07482 13.7797 6.07932 13.7797 6.08382V6.10184C13.7797 6.09733 13.7797 6.09733 13.7797 6.09283C13.757 6.45309 13.3673 6.7458 12.887 6.7458H12.674C12.1847 6.7458 11.7904 6.44408 11.7814 6.07031C11.7723 6.44408 11.3781 6.7458 10.8887 6.7458H10.6757C10.1864 6.7458 9.79213 6.44408 9.78307 6.07482C9.77401 6.44858 9.37979 6.7458 8.89041 6.7458H8.67744C8.18806 6.7458 7.79383 6.44408 7.78477 6.07482C7.77571 6.44858 7.38149 6.7458 6.89211 6.7458H6.67914C6.18976 6.7458 5.79553 6.44408 5.78647 6.07482C5.77741 6.44858 5.38319 6.7458 4.89381 6.7458H4.68083C4.19146 6.7458 3.79723 6.44858 3.78817 6.07482C3.77911 6.44858 3.38035 6.7458 2.8955 6.7458H2.68253C2.19315 6.7458 1.79893 6.44858 1.78987 6.07482C1.78987 6.09733 1.78534 6.11985 1.78534 6.14236C1.73096 6.48011 1.35487 6.7458 0.897204 6.7458H0.684234C0.679702 6.7458 0.679702 6.7458 0.675171 6.7458V15.0227H14.8173V6.7458H14.6678C14.183 6.7458 13.7887 6.44408 13.7797 6.07031Z" fill="#1B1C27"/>
<path d="M0.66156 3.52588V6.74569C0.666091 6.74569 0.666091 6.74569 0.670623 6.74569H0.883593C1.34125 6.74569 1.71735 6.4845 1.77173 6.14226C1.77626 6.11974 1.77626 6.09723 1.77626 6.07471C1.78532 6.44848 2.18407 6.74569 2.66892 6.74569H2.88189C3.37127 6.74569 3.7655 6.44848 3.77456 6.07471C3.78362 6.44848 4.18238 6.74569 4.66722 6.74569H4.88019C5.36957 6.74569 5.7638 6.44398 5.77286 6.07471C5.78192 6.44848 6.18068 6.74569 6.66552 6.74569H6.8785C7.36788 6.74569 7.7621 6.44398 7.77116 6.07471C7.78022 6.44848 8.17898 6.74569 8.66383 6.74569H8.8768C9.36618 6.74569 9.7604 6.44398 9.76946 6.07471C9.77852 6.44848 10.1773 6.74569 10.6621 6.74569H10.8751C11.3645 6.74569 11.7587 6.44398 11.7678 6.07021C11.7768 6.44398 12.171 6.74569 12.6604 6.74569H12.8734C13.3537 6.74569 13.7434 6.45749 13.7661 6.09272C13.7661 6.09723 13.7661 6.09723 13.7661 6.10173V6.08372C13.7661 6.07921 13.7661 6.07471 13.7661 6.07021C13.7751 6.44398 14.1693 6.74119 14.6587 6.74119H14.8083V3.52588H0.66156Z" fill="#D6D8D8"/>
<path d="M2.35626 6.17383V13.5997H2.42423L13.0954 6.17383H2.35626Z" fill="#F2F2F2" fill-opacity="0.93"/>
<path d="M2.42426 13.5997H13.1272V6.17383H13.0955L2.42426 13.5997Z" fill="#FBFBFB"/>
<path d="M7.99769 0.616943V0H5.99939V1.33746V1.81931V5.07515C5.99939 5.45342 6.39814 5.75964 6.89206 5.75964H7.10503C7.59894 5.75964 7.99769 5.45342 7.99769 5.07515V0.688995C8.00222 0.666479 8.00222 0.643963 7.99769 0.616943Z" fill="#CC3232"/>
<path d="M10.0006 0.670982V0H7.99774V1.80129H8.00227V5.07515C8.00227 5.45342 8.40103 5.75964 8.89494 5.75964H9.10791C9.60182 5.75964 10.0006 5.45342 10.0006 5.07515V0.688995C10.0006 0.684492 10.0006 0.675486 10.0006 0.670982Z" fill="#1B1C27"/>
<path d="M12.0034 0.675486V0H10.0051V0.679989C10.0051 0.684492 10.0051 0.684492 10.0051 0.688995V5.07515C10.0051 5.45342 10.4038 5.75964 10.8977 5.75964H11.1107C11.6046 5.75964 12.0034 5.45342 12.0034 5.07515V0.688995C12.0034 0.684492 12.0034 0.679989 12.0034 0.675486Z" fill="#CC3232"/>
<path d="M4.00564 0H2.77313C2.76407 0 2.755 0.00450324 2.74594 0.00450324C2.465 0.0225162 2.21578 0.0720518 1.99375 0.148607V0.382775C1.36843 0.941176 1.28687 1.86884 1.28687 1.86884L1.99375 1.85984V5.16071C1.99828 5.13819 1.99828 5.11568 1.99828 5.09316C2.00734 5.46693 2.40609 5.76414 2.89094 5.76414H3.10391C3.59783 5.76414 3.99658 5.45792 3.99658 5.07965V1.84182H4.00111V0H4.00564Z" fill="#CC3232"/>
<path d="M1.77625 0.233999C-0.0453332 1.08061 -2.02915e-05 3.95818 -2.02915e-05 3.95818C-2.02915e-05 3.95818 -2.02915e-05 3.95818 -2.02915e-05 3.96268V5.07498C-2.02915e-05 5.45325 0.398734 5.75947 0.892645 5.75947H1.10562C1.56328 5.75947 1.93937 5.49828 1.99375 5.15604V0.148438C1.92125 0.175457 1.84422 0.202476 1.77625 0.233999Z" fill="#1B1C27"/>
<path d="M14.0017 1.74275L14.2463 1.73825L14.0017 1.38249V0.688995C14.0017 0.679989 14.0017 0.670982 14.0017 0.661976V0.148607C13.7388 0.0585421 13.4443 0.00450324 13.1135 0.00450324C13.1135 0.00450324 13.1135 0.00450324 13.109 0.00450324H13.0682L13.0637 0H12.0034V0.675486C12.0034 0.679989 12.0034 0.684492 12.0034 0.684492V5.07064C12.0034 5.44892 12.4021 5.75514 12.896 5.75514H13.109C13.5893 5.75514 13.979 5.46693 14.0017 5.10667C14.0017 5.11117 14.0017 5.11117 14.0017 5.11568V5.09766C14.0017 5.08866 14.0017 5.07965 14.0017 5.07064V1.74275Z" fill="#1B1C27"/>
<path d="M14.0016 5.07959V5.12462C14.0334 5.48038 14.4185 5.76408 14.8943 5.76408H14.8988C14.4004 5.76408 14.0016 5.45786 14.0016 5.07959Z" fill="#CC3232"/>
<path d="M15.9999 3.95828C15.9999 3.95828 16.0452 1.08522 14.2282 0.234108C14.1557 0.202585 14.0832 0.171062 14.0062 0.144043V0.684431V5.07058C14.0062 5.44886 14.4049 5.75508 14.8988 5.75508H15.1073C15.6012 5.75508 15.9999 5.44886 15.9999 5.07058V3.96279C15.9999 3.95828 15.9999 3.95828 15.9999 3.95828Z" fill="#CC3232"/>
<path d="M5.9994 0.643963V0H4.00563V0.616943C4.0011 0.63946 4.0011 0.666479 4.0011 0.688995V5.07515C4.0011 5.45342 4.39985 5.75964 4.89376 5.75964H5.10673C5.60065 5.75964 5.9994 5.45342 5.9994 5.07515V0.688995C6.00393 0.675486 5.9994 0.657473 5.9994 0.643963Z" fill="#1B1C27"/>
<path d="M15.3294 15.3968C15.3294 15.7255 15.0575 15.9957 14.7267 15.9957H0.752198C0.416882 15.9957 0.149536 15.7255 0.149536 15.3968C0.149536 15.0635 0.421414 14.7979 0.752198 14.7979H14.7267C15.062 14.7979 15.3294 15.068 15.3294 15.3968Z" fill="#FBFBFB"/>
<path d="M10.2861 12.2303C10.5353 12.2303 10.7347 12.0412 10.7347 11.8115V9.51939C10.7347 9.28972 10.5353 9.10059 10.2861 9.10059H5.72759C5.47837 9.10059 5.27899 9.28972 5.27899 9.51939V11.8115C5.27899 12.0412 5.47837 12.2303 5.72759 12.2303H10.2861Z" fill="#EAEAEA"/>
<path d="M10.5035 8.79883H9.89182H9.4251H6.43897H6.01756H5.501C5.18381 8.79883 4.93005 9.05101 4.93005 9.36624V12.0276C4.93005 12.3429 5.18381 12.5951 5.501 12.5951H10.5035C10.8207 12.5951 11.0745 12.3429 11.0745 12.0276V9.36624C11.0745 9.05101 10.8162 8.79883 10.5035 8.79883ZM10.8796 11.852C10.8796 12.1582 10.6168 12.4104 10.2906 12.4104H5.72756C5.62334 12.4104 5.52818 12.3834 5.44209 12.3429C5.25631 12.2483 5.12943 12.0637 5.12943 11.8475V9.55537C5.12943 9.24915 5.39225 8.99697 5.7185 8.99697H10.277C10.3812 8.99697 10.4764 9.02399 10.5625 9.06452C10.7482 9.15909 10.8751 9.34372 10.8751 9.55988V11.852H10.8796Z" fill="#DB4743"/>
<path d="M5.13852 11.8521V9.55997C5.13852 9.25375 5.40586 9.00157 5.72759 9.00157H10.2861C10.3858 9.00157 10.4809 9.02409 10.5625 9.06462C10.4764 9.01959 10.3812 8.99707 10.277 8.99707H5.71852C5.39227 8.99707 5.12946 9.24925 5.12946 9.55547V11.8476C5.12946 12.0638 5.25633 12.2484 5.44211 12.343C5.26086 12.2439 5.13852 12.0593 5.13852 11.8521Z" fill="#DB4743"/>
<path d="M8.54148 10.8703H9.04445V10.5595H8.54148V10.2083H9.07617V9.89307H8.22882V11.5863H9.10336V11.2756H8.54148V10.8703Z" fill="#DB4743"/>
<path d="M10.209 10.3884C10.209 10.6406 10.2135 10.8703 10.2362 11.0954H10.2316C10.1727 10.9063 10.0912 10.6946 10.0096 10.5145L9.72414 9.89307H9.36163V11.5863H9.6471V11.0774C9.6471 10.8027 9.64257 10.564 9.63351 10.3389L9.63804 10.3344C9.70601 10.5325 9.79664 10.7532 9.87367 10.9333L10.1682 11.5863H10.4945V9.89307H10.209V10.3884Z" fill="#DB4743"/>
<path d="M7.83913 10.0194C7.7485 9.92931 7.61256 9.88428 7.42225 9.88428C7.23194 9.88428 7.10053 9.89779 7.00537 9.9203V11.591H7.3135V10.9876C7.34069 10.9921 7.37694 10.9966 7.41772 10.9966C7.59897 10.9966 7.75757 10.9425 7.86179 10.8164C7.94335 10.7219 7.98866 10.5823 7.98866 10.4157C7.98866 10.249 7.92975 10.1049 7.83913 10.0194ZM7.41319 10.6949C7.36787 10.6949 7.33616 10.6904 7.30897 10.6859V10.186C7.33162 10.177 7.37241 10.1725 7.43584 10.1725C7.58991 10.1725 7.676 10.2671 7.676 10.4202C7.68053 10.5913 7.57631 10.6949 7.41319 10.6949Z" fill="#DB4743"/>
<path d="M6.10366 9.86621C5.70038 9.86621 5.43756 10.2445 5.43756 10.7533C5.43756 11.2352 5.67319 11.6135 6.081 11.6135C6.47976 11.6135 6.75164 11.2757 6.75164 10.7218C6.75164 10.258 6.52507 9.86621 6.10366 9.86621ZM6.09913 11.3117C5.89069 11.3117 5.76381 11.0776 5.76381 10.7443C5.76381 10.4156 5.88616 10.1679 6.0946 10.1679C6.30757 10.1679 6.42538 10.4291 6.42538 10.7353C6.42538 11.0641 6.30757 11.3117 6.09913 11.3117Z" fill="#DB4743"/>
<path d="M7.6262 7.99731C7.68058 8.04685 7.75308 8.07837 7.83464 8.07837C7.92074 8.07837 8.0023 8.04234 8.05668 7.9838L9.42513 8.79438H9.88732L8.13824 7.75864C8.13371 7.59202 7.99777 7.46143 7.83011 7.46143C7.65792 7.46143 7.52198 7.60103 7.52198 7.76765V7.77215L6.01306 8.78988H6.43447L7.6262 7.99731Z" fill="#1B1C27"/>
<path d="M7.50836 7.77237C7.50836 7.94799 7.65336 8.0921 7.83008 8.0921C8.0068 8.0921 8.15181 7.94799 8.15181 7.77237C8.15181 7.59674 8.0068 7.45264 7.83008 7.45264C7.65336 7.45714 7.50836 7.59674 7.50836 7.77237Z" fill="#DB4743"/>
</g>
<defs>
<clipPath id="clip0_615_910">
<rect width="16" height="16" fill="white"/>
</clipPath>
</defs>
</svg>
