<svg width="23" height="21" viewBox="0 0 23 21" fill="none" xmlns="http://www.w3.org/2000/svg">
<path d="M5.62302 12.4219C5.81363 12.2148 6.13131 12.2148 6.35369 12.3923C7.21143 13.0726 8.10094 13.6346 9.02221 14.1078C9.27636 14.2261 9.3399 14.4923 9.24459 14.7289C9.11752 14.9656 8.83161 15.0543 8.57746 14.936C7.59265 14.4627 6.6396 13.8712 5.7501 13.1613C5.52772 12.9839 5.46418 12.6289 5.62302 12.4219Z" fill="#F8AE6D"/>
<path d="M17.3773 12.4219C17.1866 12.2148 16.869 12.2148 16.6466 12.3923C15.7888 13.0726 14.8993 13.6346 13.9781 14.1078C13.7239 14.2261 13.6604 14.4923 13.7557 14.7289C13.8828 14.9656 14.1687 15.0543 14.4228 14.936C15.4076 14.4627 16.3607 13.8712 17.2502 13.1613C17.5043 12.9839 17.5679 12.6289 17.3773 12.4219Z" fill="#F8AE6D"/>
<path d="M14.0414 1.80423C14.0414 2.80986 12.8977 3.60845 11.4999 3.60845C10.1021 3.60845 8.9585 2.80986 8.9585 1.80423C8.9585 0.798592 10.1021 0 11.4999 0C12.8977 0 14.0414 0.798592 14.0414 1.80423Z" fill="#7E4210"/>
<path d="M16.0111 6.18172C16.0111 8.99158 14.0097 12.3338 11.5318 12.3338C9.05388 12.3338 7.05249 9.02115 7.05249 6.18172C7.05249 3.34228 9.02211 2.15918 11.5 2.15918C13.9779 2.15918 16.0111 3.37186 16.0111 6.18172Z" fill="#5B300B"/>
<path d="M19.1245 19.6984V20.9998H3.90754V19.6688C3.90754 18.5449 3.49455 17.1843 5.36887 16.0899C5.43241 16.0603 5.75009 15.9125 5.97247 15.8533C6.06777 15.8237 6.13131 15.7941 6.13131 15.7941L6.60783 15.6463L7.21142 15.4392L9.59403 14.6406V14.9364C9.59403 14.9956 9.59403 15.0547 9.59403 15.0843C9.59403 15.1434 9.6258 15.2026 9.6258 15.2618C9.81641 16.0308 10.5471 16.6223 11.4048 16.6223H11.5954C12.4849 16.6223 13.1838 16.0603 13.3744 15.2913C13.3744 15.2618 13.3744 15.2322 13.4062 15.2026C13.4062 15.173 13.4062 15.1434 13.4062 15.1139C13.4062 15.1139 13.4062 15.1139 13.4062 15.0843C13.4062 15.0547 13.4062 14.9956 13.4062 14.9364V14.6406L15.7888 15.4392L16.3924 15.6463L16.8689 15.7941C16.8689 15.7941 16.9325 15.8237 17.0278 15.8533C17.2184 15.942 17.5361 16.0603 17.6314 16.0899C19.5057 17.2139 19.1245 18.5744 19.1245 19.6984Z" fill="#FFCC96"/>
<path d="M13.4382 12.8372V14.9372C13.4382 15.0555 13.4064 15.1738 13.4064 15.2921C13.2158 16.0611 12.4851 16.6231 11.6274 16.6231H11.4368C10.5473 16.6231 9.81659 16.0316 9.65774 15.2625C9.62598 15.1442 9.62598 15.0259 9.62598 14.9076V12.8076C10.1343 13.2513 10.579 13.4583 11.5321 13.5471C12.4851 13.4879 12.9299 13.2809 13.4382 12.8372Z" fill="#FFCC96"/>
<path opacity="0.05" d="M13.4382 12.8359V13.5458C12.9299 13.9895 12.4851 14.1965 11.5321 14.2852C10.579 14.1965 10.1343 13.9895 9.62598 13.5458V12.8359C10.1343 13.2796 10.579 13.4866 11.5321 13.5754C12.4851 13.4866 12.9299 13.2796 13.4382 12.8359Z" fill="#151513"/>
<path d="M16.424 20.4076C16.424 20.6147 16.3923 20.8217 16.3287 20.9992H6.70297C6.63943 20.8217 6.60767 20.6147 6.60767 20.4076C6.60767 19.6386 7.11596 18.9583 7.84662 18.6034C8.03723 18.5147 8.22784 18.4259 8.45022 18.3963C8.6726 18.3372 8.92674 18.3076 9.14912 18.3076C10.1975 18.3076 12.8025 18.3076 13.8508 18.3076C14.1049 18.3076 14.3273 18.3372 14.5497 18.3963C14.7721 18.4555 14.9627 18.5147 15.1533 18.6034C15.9157 18.9879 16.424 19.6386 16.424 20.4076Z" fill="#F5F5F5"/>
<path d="M15.9792 7.27551C15.9474 7.27551 15.9157 7.27551 15.8839 7.27551C15.7886 7.27551 15.6933 7.33466 15.598 7.39382C15.598 7.21635 15.5662 7.03889 15.5662 6.891C15.5662 6.86142 15.5662 6.83185 15.5662 6.80227C15.5662 6.71354 15.5344 6.59523 15.5344 6.5065C15.4709 6.15157 15.3756 5.82621 15.2485 5.56002C13.7872 3.90368 9.46673 3.96283 7.87833 5.56002C7.75126 5.82621 7.65595 6.15157 7.59241 6.5065C7.56065 6.59523 7.56065 6.71354 7.56065 6.80227C7.56065 6.83185 7.56065 6.86142 7.56065 6.891C7.52888 7.03889 7.52888 7.21635 7.52888 7.39382C7.43357 7.33466 7.33827 7.27551 7.24297 7.27551C7.2112 7.27551 7.17943 7.27551 7.14766 7.27551C6.82998 7.33466 6.6076 7.77833 6.63937 8.31072C6.63937 8.39945 6.63937 8.45861 6.67114 8.54734C6.67114 8.6065 6.70291 8.66565 6.70291 8.72481C6.82998 9.13889 7.05236 9.46424 7.33827 9.55298C7.37004 9.55298 7.40181 9.58255 7.43357 9.58255C7.46534 9.58255 7.49711 9.58255 7.52888 9.58255C7.56065 9.58255 7.59241 9.58255 7.59241 9.55298C7.84656 10.5586 8.19601 11.3276 8.54546 11.7121C9.02198 12.1854 9.33966 12.5403 9.65734 12.8361C10.1656 13.2797 10.6104 13.4868 11.5634 13.5755C11.5634 13.5755 11.5634 13.5755 11.5952 13.5755C11.5952 13.5755 11.5952 13.5755 11.627 13.5755C12.5482 13.4868 13.0248 13.2797 13.5331 12.8361C13.8507 12.5699 14.1684 12.1854 14.6449 11.7121C15.0262 11.3276 15.3438 10.5586 15.598 9.55298C15.6298 9.55298 15.6298 9.58255 15.6615 9.58255C15.6933 9.58255 15.7251 9.58255 15.7568 9.58255C15.7886 9.58255 15.8204 9.58255 15.8521 9.55298C16.1698 9.43467 16.424 9.05016 16.5193 8.51776C16.5193 8.42903 16.551 8.36988 16.551 8.28114C16.5193 7.74875 16.3287 7.30509 15.9792 7.27551Z" fill="#FFCC96"/>
<path d="M16.2016 14.171C15.9475 14.0822 15.6934 14.171 15.5981 14.378L14.3273 17.0696C14.232 17.2766 14.3273 17.5428 14.5497 17.6315C14.7721 17.7203 15.058 17.6315 15.1533 17.4245L16.424 14.733C16.5193 14.4963 16.424 14.2597 16.2016 14.171Z" fill="#F8AE6D"/>
<path d="M17.0275 14.4963C16.7733 14.4075 16.5192 14.5258 16.4239 14.7625L15.2167 17.9568C15.1214 18.1934 15.2485 18.4301 15.5026 18.5188C15.7568 18.6075 16.0109 18.4892 16.1062 18.2526L17.3134 15.0582C17.3769 14.8216 17.2499 14.585 17.0275 14.4963Z" fill="#F8AE6D"/>
<path d="M17.8219 14.8207C17.5678 14.7615 17.3136 14.9094 17.2501 15.146L16.583 18.0446C16.5194 18.2812 16.6783 18.5178 16.9324 18.5474C17.1866 18.6066 17.4407 18.4587 17.4725 18.2221L18.1396 15.3531C18.2032 15.1164 18.0443 14.8798 17.8219 14.8207Z" fill="#F8AE6D"/>
<path d="M18.5843 15.1463C18.3619 15.1168 18.1395 15.2647 18.1077 15.4717L17.7901 17.8083C17.7583 18.0154 17.9171 18.2224 18.1395 18.252C18.3619 18.2816 18.5843 18.1337 18.616 17.9266L18.9655 15.59C18.9655 15.383 18.8066 15.1759 18.5843 15.1463Z" fill="#F8AE6D"/>
<path d="M18.9018 12.5438L18.0758 12.2185C17.3769 11.9523 16.5827 12.2185 16.2968 12.8692L15.8521 13.8157L19.1559 15.1466L19.6007 14.2002C19.9184 13.5495 19.6007 12.81 18.9018 12.5438Z" fill="#FFBC80"/>
<path d="M23 7.42697L19.7279 6.06641L16.8688 12.8692L19.2196 13.8157L23 7.42697Z" fill="#FFBC80"/>
<path d="M19.2195 14.9983L18.9018 15.7081C18.8065 15.9152 18.5841 15.9743 18.3617 15.9152C18.1394 15.8264 18.0758 15.6194 18.1394 15.4123L18.0758 15.5307C17.9805 15.7377 17.6946 15.856 17.4722 15.7377C17.2498 15.649 17.1228 15.3828 17.2498 15.1757L17.1863 15.294C17.091 15.5011 16.8051 15.6194 16.5827 15.5011C16.3603 15.4123 16.2333 15.1461 16.3603 14.9391C16.265 15.1461 15.9791 15.2645 15.7567 15.1461C15.5344 15.0574 15.4073 14.7912 15.5344 14.5842L15.9791 13.6377L19.2195 14.9983Z" fill="#FFBC80"/>
<path d="M6.82993 14.171C7.08408 14.0822 7.33822 14.171 7.43353 14.378L8.70425 17.0696C8.79956 17.2766 8.70425 17.5428 8.48187 17.6315C8.2595 17.7203 7.97358 17.6315 7.87828 17.4245L6.60755 14.733C6.48048 14.4963 6.57579 14.2597 6.82993 14.171Z" fill="#F8AE6D"/>
<path d="M6.00432 14.4963C6.25847 14.4075 6.51261 14.5258 6.60792 14.7625L7.81511 17.9568C7.91041 18.1934 7.78334 18.4301 7.52919 18.5188C7.27505 18.6075 7.0209 18.4892 6.9256 18.2526L5.71841 15.0582C5.62311 14.8216 5.75018 14.585 6.00432 14.4963Z" fill="#F8AE6D"/>
<path d="M5.2099 14.8207C5.46404 14.7615 5.71819 14.9094 5.78172 15.146L6.44885 18.015C6.51239 18.2516 6.35355 18.4883 6.0994 18.5178C5.84526 18.577 5.59111 18.4291 5.55934 18.1925L4.89221 15.3235C4.79691 15.1164 4.95575 14.8798 5.2099 14.8207Z" fill="#F8AE6D"/>
<path d="M4.41575 15.1463C4.63813 15.1168 4.86051 15.2647 4.89227 15.4717L5.24172 17.8083C5.27349 18.0154 5.11465 18.2224 4.89227 18.252C4.6699 18.2816 4.44752 18.1337 4.41575 17.9266L4.0663 15.59C4.03454 15.383 4.19338 15.1759 4.41575 15.1463Z" fill="#F8AE6D"/>
<path d="M4.09808 12.5438L4.92405 12.2185C5.62295 11.9523 6.41715 12.2185 6.70306 12.8692L7.14782 13.8157L3.84393 15.1466L3.39918 14.2002C3.11326 13.5495 3.43095 12.81 4.09808 12.5438Z" fill="#FFBC80"/>
<path d="M0 7.42697L3.30389 6.06641L6.13125 12.8692L3.81218 13.8157L0 7.42697Z" fill="#FFBC80"/>
<path d="M3.7804 14.9983L4.09808 15.7081C4.19338 15.9152 4.41576 15.9743 4.63814 15.9152C4.86051 15.8264 4.92405 15.6194 4.86051 15.4123L4.92405 15.5307C5.01935 15.7377 5.30527 15.856 5.52764 15.7377C5.75002 15.649 5.87709 15.3828 5.75002 15.1757L5.81356 15.294C5.90886 15.5011 6.19477 15.6194 6.41715 15.5011C6.63953 15.4123 6.7666 15.1461 6.63953 14.9391C6.73483 15.1461 7.02075 15.2645 7.24312 15.1461C7.4655 15.0574 7.59257 14.7912 7.4655 14.5842L7.02075 13.6377L3.7804 14.9983Z" fill="#FFBC80"/>
</svg>
