<svg width="25" height="24" viewBox="0 0 25 24" fill="none" xmlns="http://www.w3.org/2000/svg">
<path d="M25 22.5256H0V23.9985H25V22.5256Z" fill="#95A5A6"/>
<path d="M23.7216 21.183H1.27637V22.6559H23.7216V21.183Z" fill="#95A5A6"/>
<path d="M22.4453 19.8418H2.52441V21.3147H22.4453V19.8418Z" fill="#95A5A6"/>
<path d="M22.4453 8.02234H2.52441V9.49523H22.4453V8.02234Z" fill="#ECF0F1"/>
<path d="M24.6366 22.8873H3.04297V24.0002H24.6366V22.8873Z" fill="#F7F7F7"/>
<path d="M23.3584 21.5426H4.28906V22.6555H23.3584V21.5426Z" fill="#F7F7F7"/>
<path d="M22.1124 20.2323H5.56738V21.3451H22.1124V20.2323Z" fill="#F7F7F7"/>
<path d="M6.9649 9.49658H4.41016V19.8757H6.9649V9.49658Z" fill="#F7F7F7"/>
<path d="M11.4971 9.49658H8.94238V19.8757H11.4971V9.49658Z" fill="#F7F7F7"/>
<path d="M16.0284 9.49658H13.4736V19.8757H16.0284V9.49658Z" fill="#F7F7F7"/>
<path d="M20.5899 9.49658H18.0352V19.8757H20.5899V9.49658Z" fill="#F7F7F7"/>
<path d="M3.80176 19.1859C3.80176 18.8258 4.07548 18.5312 4.41003 18.5312C4.74458 18.5312 5.0183 18.8258 5.0183 19.1859C5.0183 19.5459 4.74458 19.8405 4.41003 19.8405C4.07548 19.8405 3.80176 19.5459 3.80176 19.1859Z" fill="#F7F7F7"/>
<path d="M4.40946 19.4819C4.2574 19.4819 4.13574 19.351 4.13574 19.1874C4.13574 19.0237 4.2574 18.8928 4.40946 18.8928C4.56153 18.8928 4.68319 19.0237 4.68319 19.1874C4.68319 19.351 4.56153 19.4819 4.40946 19.4819Z" fill="#BDC3C7"/>
<path d="M6.3252 19.1859C6.3252 18.8258 6.59892 18.5312 6.93347 18.5312C7.26802 18.5312 7.54174 18.8258 7.54174 19.1859C7.54174 19.5459 7.26802 19.8405 6.93347 19.8405C6.62933 19.8405 6.3252 19.5459 6.3252 19.1859Z" fill="#F7F7F7"/>
<path d="M6.96318 19.4819C6.81111 19.4819 6.68945 19.351 6.68945 19.1874C6.68945 19.0237 6.81111 18.8928 6.96318 18.8928C7.11524 18.8928 7.2369 19.0237 7.2369 19.1874C7.2369 19.351 7.11524 19.4819 6.96318 19.4819Z" fill="#BDC3C7"/>
<path d="M3.80176 10.1501C3.80176 9.79006 4.07548 9.49548 4.41003 9.49548C4.74458 9.49548 5.0183 9.79006 5.0183 10.1501C5.0183 10.5101 4.74458 10.8047 4.41003 10.8047C4.07548 10.8047 3.80176 10.5101 3.80176 10.1501Z" fill="#F7F7F7"/>
<path d="M4.40946 10.4439C4.2574 10.4439 4.13574 10.313 4.13574 10.1494C4.13574 9.98576 4.2574 9.85486 4.40946 9.85486C4.56153 9.85486 4.68319 9.98576 4.68319 10.1494C4.68319 10.313 4.56153 10.4439 4.40946 10.4439Z" fill="#BDC3C7"/>
<path d="M6.3252 10.1501C6.3252 9.79006 6.59892 9.49548 6.93347 9.49548C7.26802 9.49548 7.54174 9.79006 7.54174 10.1501C7.54174 10.5101 7.26802 10.8047 6.93347 10.8047C6.62933 10.8375 6.3252 10.5101 6.3252 10.1501Z" fill="#F7F7F7"/>
<path d="M6.96318 10.4439C6.81111 10.4439 6.68945 10.313 6.68945 10.1494C6.68945 9.98576 6.81111 9.85486 6.96318 9.85486C7.11524 9.85486 7.2369 9.98576 7.2369 10.1494C7.2369 10.313 7.11524 10.4439 6.96318 10.4439Z" fill="#BDC3C7"/>
<path d="M8.33301 19.1859C8.33301 18.8258 8.60673 18.5312 8.94128 18.5312C9.27583 18.5312 9.54955 18.8258 9.54955 19.1859C9.54955 19.5459 9.27583 19.8405 8.94128 19.8405C8.60673 19.8405 8.33301 19.5459 8.33301 19.1859Z" fill="#F7F7F7"/>
<path d="M8.94169 19.4819C8.78962 19.4819 8.66797 19.351 8.66797 19.1874C8.66797 19.0237 8.78962 18.8928 8.94169 18.8928C9.09376 18.8928 9.21541 19.0237 9.21541 19.1874C9.21541 19.351 9.09376 19.4819 8.94169 19.4819Z" fill="#BDC3C7"/>
<path d="M10.8877 19.1859C10.8877 18.8258 11.1614 18.5312 11.496 18.5312C11.8305 18.5312 12.1042 18.8258 12.1042 19.1859C12.1042 19.5459 11.8305 19.8405 11.496 19.8405C11.1614 19.8405 10.8877 19.5459 10.8877 19.1859Z" fill="#F7F7F7"/>
<path d="M11.4964 19.4819C11.3443 19.4819 11.2227 19.351 11.2227 19.1874C11.2227 19.0237 11.3443 18.8928 11.4964 18.8928C11.6484 18.8928 11.7701 19.0237 11.7701 19.1874C11.7701 19.351 11.6484 19.4819 11.4964 19.4819Z" fill="#BDC3C7"/>
<path d="M8.33301 10.1501C8.33301 9.79006 8.60673 9.49548 8.94128 9.49548C9.27583 9.49548 9.54955 9.79006 9.54955 10.1501C9.54955 10.5101 9.27583 10.8047 8.94128 10.8047C8.60673 10.8375 8.33301 10.5101 8.33301 10.1501Z" fill="#F7F7F7"/>
<path d="M8.94169 10.4439C8.78962 10.4439 8.66797 10.313 8.66797 10.1494C8.66797 9.98576 8.78962 9.85486 8.94169 9.85486C9.09376 9.85486 9.21541 9.98576 9.21541 10.1494C9.21541 10.313 9.09376 10.4439 8.94169 10.4439Z" fill="#BDC3C7"/>
<path d="M10.8877 10.1501C10.8877 9.79006 11.1614 9.49548 11.496 9.49548C11.8305 9.49548 12.1042 9.79006 12.1042 10.1501C12.1042 10.5101 11.8305 10.8047 11.496 10.8047C11.1614 10.8375 10.8877 10.5101 10.8877 10.1501Z" fill="#F7F7F7"/>
<path d="M11.4964 10.4439C11.3443 10.4439 11.2227 10.313 11.2227 10.1494C11.2227 9.98576 11.3443 9.85486 11.4964 9.85486C11.6484 9.85486 11.7701 9.98576 11.7701 10.1494C11.7701 10.313 11.6484 10.4439 11.4964 10.4439Z" fill="#BDC3C7"/>
<path d="M12.8652 19.1859C12.8652 18.8258 13.139 18.5312 13.4735 18.5312C13.8081 18.5312 14.0818 18.8258 14.0818 19.1859C14.0818 19.5459 13.8081 19.8405 13.4735 19.8405C13.139 19.8405 12.8652 19.5459 12.8652 19.1859Z" fill="#F7F7F7"/>
<path d="M13.4729 19.4819C13.3209 19.4819 13.1992 19.351 13.1992 19.1874C13.1992 19.0237 13.3209 18.8928 13.4729 18.8928C13.625 18.8928 13.7467 19.0237 13.7467 19.1874C13.7771 19.351 13.6554 19.4819 13.4729 19.4819Z" fill="#BDC3C7"/>
<path d="M15.4199 19.1859C15.4199 18.8258 15.6936 18.5312 16.0282 18.5312C16.3627 18.5312 16.6365 18.8258 16.6365 19.1859C16.6365 19.5459 16.3627 19.8405 16.0282 19.8405C15.6936 19.8405 15.4199 19.5459 15.4199 19.1859Z" fill="#F7F7F7"/>
<path d="M16.0276 19.4819C15.8756 19.4819 15.7539 19.351 15.7539 19.1874C15.7539 19.0237 15.8756 18.8928 16.0276 18.8928C16.1797 18.8928 16.3014 19.0237 16.3014 19.1874C16.3014 19.351 16.1797 19.4819 16.0276 19.4819Z" fill="#BDC3C7"/>
<path d="M12.8652 10.1501C12.8652 9.79006 13.139 9.49548 13.4735 9.49548C13.8081 9.49548 14.0818 9.79006 14.0818 10.1501C14.0818 10.5101 13.8081 10.8047 13.4735 10.8047C13.139 10.8375 12.8652 10.5101 12.8652 10.1501Z" fill="#F7F7F7"/>
<path d="M13.4729 10.4439C13.3209 10.4439 13.1992 10.313 13.1992 10.1494C13.1992 9.98576 13.3209 9.85486 13.4729 9.85486C13.625 9.85486 13.7467 9.98576 13.7467 10.1494C13.7771 10.313 13.6554 10.4439 13.4729 10.4439Z" fill="#BDC3C7"/>
<path d="M15.4199 10.1501C15.4199 9.79006 15.6936 9.49548 16.0282 9.49548C16.3627 9.49548 16.6365 9.79006 16.6365 10.1501C16.6365 10.5101 16.3627 10.8047 16.0282 10.8047C15.6936 10.8375 15.4199 10.5101 15.4199 10.1501Z" fill="#F7F7F7"/>
<path d="M16.0276 10.4439C15.8756 10.4439 15.7539 10.313 15.7539 10.1494C15.7539 9.98576 15.8756 9.85486 16.0276 9.85486C16.1797 9.85486 16.3014 9.98576 16.3014 10.1494C16.3014 10.313 16.1797 10.4439 16.0276 10.4439Z" fill="#BDC3C7"/>
<path d="M17.3955 19.1859C17.3955 18.8258 17.6692 18.5312 18.0038 18.5312C18.3383 18.5312 18.6121 18.8258 18.6121 19.1859C18.6121 19.5459 18.3383 19.8405 18.0038 19.8405C17.6692 19.8405 17.3955 19.5459 17.3955 19.1859Z" fill="#F7F7F7"/>
<path d="M18.0345 19.4819C17.8824 19.4819 17.7607 19.351 17.7607 19.1874C17.7607 19.0237 17.8824 18.8928 18.0345 18.8928C18.1865 18.8928 18.3082 19.0237 18.3082 19.1874C18.3082 19.351 18.1865 19.4819 18.0345 19.4819Z" fill="#BDC3C7"/>
<path d="M19.9512 19.1859C19.9512 18.8258 20.2249 18.5312 20.5594 18.5312C20.894 18.5312 21.1677 18.8258 21.1677 19.1859C21.1677 19.5459 20.894 19.8405 20.5594 19.8405C20.2249 19.8405 19.9512 19.5459 19.9512 19.1859Z" fill="#F7F7F7"/>
<path d="M20.5892 19.4819C20.4371 19.4819 20.3154 19.351 20.3154 19.1874C20.3154 19.0237 20.4371 18.8928 20.5892 18.8928C20.7412 18.8928 20.8629 19.0237 20.8629 19.1874C20.8629 19.351 20.7412 19.4819 20.5892 19.4819Z" fill="#BDC3C7"/>
<path d="M17.3955 10.1501C17.3955 9.79006 17.6692 9.49548 18.0038 9.49548C18.3383 9.49548 18.6121 9.79006 18.6121 10.1501C18.6121 10.5101 18.3383 10.8047 18.0038 10.8047C17.6692 10.8375 17.3955 10.5101 17.3955 10.1501Z" fill="#F7F7F7"/>
<path d="M18.0345 10.4439C17.8824 10.4439 17.7607 10.313 17.7607 10.1494C17.7607 9.98576 17.8824 9.85486 18.0345 9.85486C18.1865 9.85486 18.3082 9.98576 18.3082 10.1494C18.3082 10.313 18.1865 10.4439 18.0345 10.4439Z" fill="#BDC3C7"/>
<path d="M19.9512 10.1501C19.9512 9.79006 20.2249 9.49548 20.5594 9.49548C20.894 9.49548 21.1677 9.79006 21.1677 10.1501C21.1677 10.5101 20.894 10.8047 20.5594 10.8047C20.2249 10.8047 19.9512 10.5101 19.9512 10.1501Z" fill="#F7F7F7"/>
<path d="M20.5892 10.4439C20.4371 10.4439 20.3154 10.313 20.3154 10.1494C20.3154 9.98576 20.4371 9.85486 20.5892 9.85486C20.7412 9.85486 20.8629 9.98576 20.8629 10.1494C20.8629 10.313 20.7412 10.4439 20.5892 10.4439Z" fill="#BDC3C7"/>
<path d="M24.179 8.02168H0.821289L12.5001 0L24.179 8.02168Z" fill="#C0392B"/>
<path d="M22.6898 8.02207H2.28223L12.5012 1.01538L22.6898 8.02207Z" fill="#F7F7F7"/>
<path d="M8.05889 7.07244L7.72434 5.76257C7.75475 5.99179 7.75475 6.15553 7.75475 6.28652V7.07244H7.35938V5.27136H7.96765L8.3022 6.54849L8.63675 5.27136H9.24502V7.07244H8.81923V6.28652C8.81923 6.25377 8.81923 6.18827 8.81923 6.15553C8.81923 6.09003 8.81923 5.99179 8.84964 5.79531L8.51509 7.10519H8.05889V7.07244Z" fill="#C0392B"/>
<path d="M11.0095 5.2737V6.3539C11.0095 6.58303 10.9487 6.77943 10.827 6.91036C10.7054 7.0413 10.5229 7.10676 10.2796 7.10676C10.0363 7.10676 9.88421 7.0413 9.76256 6.91036C9.6409 6.77943 9.58008 6.61576 9.58008 6.3539V5.2737H10.0363V6.32116C10.0363 6.4521 10.0667 6.5503 10.0971 6.58303C10.1275 6.6485 10.2188 6.68123 10.2796 6.68123C10.3708 6.68123 10.4317 6.6485 10.4925 6.58303C10.5229 6.51756 10.5533 6.41936 10.5533 6.28843V5.24097H11.0095V5.2737Z" fill="#C0392B"/>
<path d="M12.4379 6.51685C12.4379 6.61505 12.4075 6.71325 12.3467 6.81145C12.2859 6.90965 12.225 6.97512 12.1338 7.00785C12.0426 7.04058 11.9209 7.07332 11.7993 7.07332C11.6776 7.07332 11.5864 7.07332 11.5255 7.04058C11.4647 7.00785 11.3735 7.00785 11.2822 6.94238V6.54958C11.3735 6.58232 11.4647 6.64778 11.5559 6.64778C11.6472 6.68052 11.7384 6.68052 11.7993 6.68052C11.8601 6.68052 11.9209 6.68052 11.9513 6.64778C11.9817 6.61505 12.0122 6.58232 12.0122 6.54958C12.0122 6.51685 12.0122 6.51685 11.9817 6.48412C11.9817 6.45138 11.9513 6.45138 11.9209 6.41865C11.8905 6.38592 11.8297 6.35318 11.708 6.28772C11.5864 6.22225 11.5255 6.18952 11.4647 6.12405C11.4039 6.05858 11.3735 6.02585 11.3431 5.96038C11.3126 5.89492 11.3126 5.82945 11.3126 5.73125C11.3126 5.56759 11.3735 5.43665 11.4951 5.33845C11.6168 5.24025 11.7688 5.20752 11.9513 5.20752C12.1338 5.20752 12.2859 5.24025 12.4684 5.33845L12.3163 5.69852C12.1642 5.63305 12.0122 5.56759 11.9209 5.56759C11.8601 5.56759 11.8297 5.56759 11.7993 5.60032C11.7688 5.63305 11.7688 5.66579 11.7688 5.69852C11.7688 5.73125 11.7993 5.76399 11.8297 5.79672C11.8601 5.82945 11.9513 5.86219 12.1034 5.96038C12.2555 6.02585 12.3467 6.09132 12.4075 6.18952C12.4075 6.28772 12.4379 6.38592 12.4379 6.51685Z" fill="#C0392B"/>
<path d="M13.6853 7.07244H12.6816V5.27136H13.6853V5.66432H13.1378V5.95905H13.6245V6.35201H13.1378V6.67948H13.6853V7.07244Z" fill="#C0392B"/>
<path d="M15.4187 5.2737V6.3539C15.4187 6.58303 15.3579 6.77943 15.2362 6.91036C15.1146 7.0413 14.9321 7.10676 14.6888 7.10676C14.4455 7.10676 14.2934 7.0413 14.1717 6.91036C14.0501 6.77943 13.9893 6.61576 13.9893 6.3539V5.2737H14.4455V6.32116C14.4455 6.4521 14.4759 6.5503 14.5063 6.58303C14.5367 6.6485 14.6279 6.68123 14.6888 6.68123C14.78 6.68123 14.8408 6.6485 14.9017 6.58303C14.9321 6.51756 14.9625 6.41936 14.9625 6.28843V5.24097H15.4187V5.2737Z" fill="#C0392B"/>
<path d="M16.4847 7.07244L16.1501 5.76257C16.1805 5.99179 16.1805 6.15553 16.1805 6.28652V7.07244H15.7852V5.27136H16.3934L16.728 6.54849L17.0625 5.27136H17.6708V7.07244H17.245V6.28652C17.245 6.25377 17.245 6.18827 17.245 6.15553C17.245 6.09003 17.245 5.99179 17.2754 5.79531L16.9409 7.10519H16.4847V7.07244Z" fill="#C0392B"/>
<path d="M6.9649 9.85486H4.41016V10.1493H6.9649V9.85486Z" fill="#BDC3C7"/>
<path d="M6.9649 19.1864H4.41016V19.4809H6.9649V19.1864Z" fill="#BDC3C7"/>
<path d="M11.4962 9.85486H8.94141V10.1493H11.4962V9.85486Z" fill="#BDC3C7"/>
<path d="M11.4962 19.1864H8.94141V19.4809H11.4962V19.1864Z" fill="#BDC3C7"/>
<path d="M16.0284 9.85486H13.4736V10.1493H16.0284V9.85486Z" fill="#BDC3C7"/>
<path d="M16.0284 19.1864H13.4736V19.4809H16.0284V19.1864Z" fill="#BDC3C7"/>
<path d="M20.5909 9.85486H18.0361V10.1493H20.5909V9.85486Z" fill="#BDC3C7"/>
<path d="M20.5909 19.1864H18.0361V19.4809H20.5909V19.1864Z" fill="#BDC3C7"/>
<path d="M5.6271 10.8372H5.38379V18.5314H5.6271V10.8372Z" fill="#BDC3C7"/>
<path d="M6.173 10.8372H5.92969V18.5314H6.173V10.8372Z" fill="#BDC3C7"/>
<path d="M10.1574 10.8372H9.91406V18.5314H10.1574V10.8372Z" fill="#BDC3C7"/>
<path d="M10.7355 10.8372H10.4922V18.5314H10.7355V10.8372Z" fill="#BDC3C7"/>
<path d="M14.7199 10.8372H14.4766V18.5314H14.7199V10.8372Z" fill="#BDC3C7"/>
<path d="M15.2677 10.8372H15.0244V18.5314H15.2677V10.8372Z" fill="#BDC3C7"/>
<path d="M19.2521 10.8372H19.0088V18.5314H19.2521V10.8372Z" fill="#BDC3C7"/>
<path d="M19.798 10.8372H19.5547V18.5314H19.798V10.8372Z" fill="#BDC3C7"/>
<path d="M2.43304 7.62892C2.43304 7.72707 2.37222 7.7925 2.28097 7.7925C2.18973 7.7925 2.12891 7.72707 2.12891 7.62892C2.12891 7.53077 2.18973 7.46533 2.28097 7.46533C2.37222 7.46533 2.43304 7.53077 2.43304 7.62892Z" fill="#F1C40F"/>
<path d="M2.70634 7.43238C2.70634 7.53053 2.64551 7.59597 2.55427 7.59597C2.49344 7.59597 2.43262 7.53053 2.43262 7.43238C2.43262 7.33423 2.49344 7.2688 2.58469 7.2688C2.64551 7.30152 2.70634 7.36695 2.70634 7.43238Z" fill="#F1C40F"/>
<path d="M3.01117 7.23683C3.01117 7.33498 2.95034 7.40041 2.8591 7.40041C2.76786 7.40041 2.70703 7.33498 2.70703 7.23683C2.70703 7.13868 2.76786 7.07324 2.8591 7.07324C2.95034 7.10596 3.01117 7.17139 3.01117 7.23683Z" fill="#F1C40F"/>
<path d="M3.2846 7.04066C3.2846 7.13881 3.22378 7.20424 3.13254 7.20424C3.0413 7.20424 2.98047 7.13881 2.98047 7.04066C2.98047 6.94251 3.0413 6.87708 3.13254 6.87708C3.22378 6.90979 3.2846 6.97523 3.2846 7.04066Z" fill="#F1C40F"/>
<path d="M3.55902 6.87635C3.55902 6.9745 3.49819 7.03994 3.40695 7.03994C3.31571 7.03994 3.25488 6.9745 3.25488 6.87635C3.25488 6.7782 3.31571 6.71277 3.40695 6.71277C3.49819 6.71277 3.55902 6.7782 3.55902 6.87635Z" fill="#F1C40F"/>
<path d="M3.86273 6.68019C3.86273 6.77834 3.8019 6.84377 3.71066 6.84377C3.61942 6.84377 3.55859 6.77834 3.55859 6.68019C3.55859 6.58204 3.61942 6.5166 3.71066 6.5166C3.8019 6.5166 3.86273 6.58204 3.86273 6.68019Z" fill="#F1C40F"/>
<path d="M4.13617 6.4828C4.13617 6.58095 4.07534 6.64638 3.9841 6.64638C3.89286 6.64638 3.83203 6.58095 3.83203 6.4828C3.83203 6.38465 3.89286 6.31921 3.9841 6.31921C4.07534 6.31921 4.13617 6.38465 4.13617 6.4828Z" fill="#F1C40F"/>
<path d="M4.41156 6.28736C4.41156 6.38551 4.35073 6.45095 4.25949 6.45095C4.16825 6.45095 4.10742 6.38551 4.10742 6.28736C4.10742 6.18921 4.16825 6.12378 4.25949 6.12378C4.35073 6.12378 4.41156 6.18921 4.41156 6.28736Z" fill="#F1C40F"/>
<path d="M4.71429 6.08985C4.71429 6.188 4.65347 6.25344 4.56222 6.25344C4.47098 6.25344 4.41016 6.188 4.41016 6.08985C4.41016 5.9917 4.47098 5.92627 4.56222 5.92627C4.62305 5.95899 4.71429 6.02442 4.71429 6.08985Z" fill="#F1C40F"/>
<path d="M4.98773 5.89332C4.98773 5.99147 4.9269 6.0569 4.83566 6.0569C4.74442 6.0569 4.68359 5.99147 4.68359 5.89332C4.68359 5.79517 4.74442 5.72974 4.83566 5.72974C4.9269 5.76245 4.98773 5.82789 4.98773 5.89332Z" fill="#F1C40F"/>
<path d="M5.26214 5.69776C5.26214 5.79591 5.20132 5.86135 5.11008 5.86135C5.01884 5.86135 4.95801 5.79591 4.95801 5.69776C4.95801 5.59961 5.01884 5.53418 5.11008 5.53418C5.20132 5.5669 5.26214 5.63233 5.26214 5.69776Z" fill="#F1C40F"/>
<path d="M5.53558 5.53285C5.53558 5.631 5.47475 5.69643 5.38351 5.69643C5.29227 5.69643 5.23145 5.631 5.23145 5.53285C5.23145 5.4347 5.29227 5.36926 5.38351 5.36926C5.47475 5.36926 5.53558 5.4347 5.53558 5.53285Z" fill="#F1C40F"/>
<path d="M5.84027 5.33729C5.84027 5.43544 5.77944 5.50087 5.6882 5.50087C5.59696 5.50087 5.53613 5.43544 5.53613 5.33729C5.53613 5.23914 5.59696 5.17371 5.6882 5.17371C5.77944 5.17371 5.84027 5.23914 5.84027 5.33729Z" fill="#F1C40F"/>
<path d="M6.11371 5.14112C6.11371 5.23927 6.05288 5.30471 5.96164 5.30471C5.8704 5.30471 5.80957 5.23927 5.80957 5.14112C5.80957 5.04297 5.8704 4.97754 5.96164 4.97754C6.05288 4.97754 6.11371 5.04297 6.11371 5.14112Z" fill="#F1C40F"/>
<path d="M6.38714 4.94374C6.38714 5.04189 6.32632 5.10732 6.23508 5.10732C6.14384 5.10732 6.08301 5.04189 6.08301 4.94374C6.08301 4.84558 6.14384 4.78015 6.23508 4.78015C6.32632 4.78015 6.38714 4.84558 6.38714 4.94374Z" fill="#F1C40F"/>
<path d="M6.69085 4.7461C6.69085 4.84425 6.63003 4.90969 6.53879 4.90969C6.44755 4.90969 6.38672 4.84425 6.38672 4.7461C6.38672 4.64795 6.44755 4.58252 6.53879 4.58252C6.63003 4.58252 6.69085 4.68067 6.69085 4.7461Z" fill="#F1C40F"/>
<path d="M6.96527 4.55079C6.96527 4.64894 6.90444 4.71437 6.8132 4.71437C6.72196 4.71437 6.66113 4.64894 6.66113 4.55079C6.66113 4.45264 6.72196 4.38721 6.8132 4.38721C6.90444 4.41992 6.96527 4.48536 6.96527 4.55079Z" fill="#F1C40F"/>
<path d="M7.23871 4.35548C7.23871 4.45363 7.17788 4.51906 7.08664 4.51906C6.9954 4.51906 6.93457 4.45363 6.93457 4.35548C6.93457 4.25733 6.9954 4.19189 7.08664 4.19189C7.17788 4.22461 7.23871 4.29004 7.23871 4.35548Z" fill="#F1C40F"/>
<path d="M7.54339 4.1902C7.54339 4.28835 7.48257 4.35378 7.39133 4.35378C7.30009 4.35378 7.23926 4.28835 7.23926 4.1902C7.23926 4.09204 7.30009 4.02661 7.39133 4.02661C7.48257 4.02661 7.54339 4.09204 7.54339 4.1902Z" fill="#F1C40F"/>
<path d="M7.81683 3.9961C7.81683 4.09425 7.756 4.15969 7.66476 4.15969C7.57352 4.15969 7.5127 4.09425 7.5127 3.9961C7.5127 3.89795 7.57352 3.83252 7.66476 3.83252C7.756 3.83252 7.81683 3.89795 7.81683 3.9961Z" fill="#F1C40F"/>
<path d="M8.09027 3.79945C8.09027 3.8976 8.02944 3.96303 7.9382 3.96303C7.84696 3.96303 7.78613 3.8976 7.78613 3.79945C7.78613 3.7013 7.84696 3.63586 7.9382 3.63586C8.02944 3.63586 8.09027 3.7013 8.09027 3.79945Z" fill="#F1C40F"/>
<path d="M8.39496 3.60206C8.39496 3.70021 8.33413 3.76564 8.24289 3.76564C8.15165 3.76564 8.09082 3.70021 8.09082 3.60206C8.09082 3.50391 8.15165 3.43848 8.24289 3.43848C8.33413 3.43848 8.39496 3.50391 8.39496 3.60206Z" fill="#F1C40F"/>
<path d="M8.66742 3.40577C8.66742 3.50392 8.60659 3.56935 8.51535 3.56935C8.42411 3.56935 8.36328 3.50392 8.36328 3.40577C8.36328 3.30762 8.42411 3.24219 8.51535 3.24219C8.60659 3.24219 8.66742 3.34034 8.66742 3.40577Z" fill="#F1C40F"/>
<path d="M8.94183 3.20814C8.94183 3.30629 8.881 3.37172 8.78976 3.37172C8.69852 3.37172 8.6377 3.30629 8.6377 3.20814C8.6377 3.10999 8.69852 3.04456 8.78976 3.04456C8.881 3.07727 8.94183 3.14271 8.94183 3.20814Z" fill="#F1C40F"/>
<path d="M9.24652 3.01051C9.24652 3.10866 9.18569 3.17409 9.09445 3.17409C9.00321 3.17409 8.94238 3.10866 8.94238 3.01051C8.94238 2.91236 9.00321 2.84692 9.09445 2.84692C9.18569 2.87964 9.24652 2.94507 9.24652 3.01051Z" fill="#F1C40F"/>
<path d="M9.51898 2.81751C9.51898 2.91566 9.45815 2.9811 9.36691 2.9811C9.27567 2.9811 9.21484 2.91566 9.21484 2.81751C9.21484 2.71936 9.27567 2.65393 9.36691 2.65393C9.45815 2.68665 9.51898 2.75208 9.51898 2.81751Z" fill="#F1C40F"/>
<path d="M9.79242 2.65235C9.79242 2.7505 9.73159 2.81594 9.64035 2.81594C9.54911 2.81594 9.48828 2.7505 9.48828 2.65235C9.48828 2.5542 9.54911 2.48877 9.64035 2.48877C9.73159 2.48877 9.79242 2.5542 9.79242 2.65235Z" fill="#F1C40F"/>
<path d="M10.0981 2.45704C10.0981 2.55519 10.0373 2.62062 9.94601 2.62062C9.85477 2.62062 9.79395 2.55519 9.79395 2.45704C9.79395 2.35889 9.85477 2.29346 9.94601 2.29346C10.0068 2.29346 10.0981 2.35889 10.0981 2.45704Z" fill="#F1C40F"/>
<path d="M10.3705 2.26039C10.3705 2.35854 10.3097 2.42397 10.2185 2.42397C10.1272 2.42397 10.0664 2.35854 10.0664 2.26039C10.0664 2.16224 10.1272 2.0968 10.2185 2.0968C10.3097 2.0968 10.3705 2.16224 10.3705 2.26039Z" fill="#F1C40F"/>
<path d="M10.645 2.063C10.645 2.16115 10.5841 2.22658 10.4929 2.22658C10.4016 2.22658 10.3408 2.16115 10.3408 2.063C10.3408 1.96485 10.4016 1.89941 10.4929 1.89941C10.5841 1.89941 10.645 1.96485 10.645 2.063Z" fill="#F1C40F"/>
<path d="M10.9496 1.86561C10.9496 1.96376 10.8888 2.02919 10.7976 2.02919C10.7063 2.02919 10.6455 1.96376 10.6455 1.86561C10.6455 1.76746 10.7063 1.70203 10.7976 1.70203C10.8584 1.73474 10.9496 1.80018 10.9496 1.86561Z" fill="#F1C40F"/>
<path d="M11.2211 1.67018C11.2211 1.76833 11.1603 1.83376 11.0691 1.83376C10.9778 1.83376 10.917 1.76833 10.917 1.67018C10.917 1.57203 10.9778 1.50659 11.0691 1.50659C11.1603 1.53931 11.2211 1.60474 11.2211 1.67018Z" fill="#F1C40F"/>
<path d="M11.4965 1.47376C11.4965 1.57191 11.4357 1.63735 11.3445 1.63735C11.2532 1.63735 11.1924 1.57191 11.1924 1.47376C11.1924 1.37561 11.2532 1.31018 11.3445 1.31018C11.4357 1.3429 11.4965 1.40833 11.4965 1.47376Z" fill="#F1C40F"/>
<path d="M11.7709 1.3097C11.7709 1.40785 11.7101 1.47329 11.6189 1.47329C11.5276 1.47329 11.4668 1.40785 11.4668 1.3097C11.4668 1.21155 11.5276 1.14612 11.6189 1.14612C11.7101 1.14612 11.7709 1.21155 11.7709 1.3097Z" fill="#F1C40F"/>
<path d="M12.0737 1.11207C12.0737 1.21022 12.0128 1.27565 11.9216 1.27565C11.8304 1.27565 11.7695 1.21022 11.7695 1.11207C11.7695 1.01392 11.8304 0.948486 11.9216 0.948486C12.0128 0.948486 12.0737 1.01392 12.0737 1.11207Z" fill="#F1C40F"/>
<path d="M12.3471 0.919077C12.3471 1.01723 12.2863 1.08266 12.195 1.08266C12.1038 1.08266 12.043 1.01723 12.043 0.919077C12.043 0.820927 12.1038 0.755493 12.195 0.755493C12.2863 0.755493 12.3471 0.820927 12.3471 0.919077Z" fill="#F1C40F"/>
<path d="M12.6225 0.720102C12.6225 0.818253 12.5617 0.883686 12.4704 0.883686C12.3792 0.883686 12.3184 0.818253 12.3184 0.720102C12.3184 0.621952 12.3792 0.556519 12.4704 0.556519C12.5617 0.556519 12.6225 0.621952 12.6225 0.720102Z" fill="#F1C40F"/>
<path d="M22.5684 7.62879C22.5684 7.72694 22.6292 7.79238 22.7204 7.79238C22.8117 7.79238 22.8725 7.72694 22.8725 7.62879C22.8725 7.53064 22.8117 7.46521 22.7204 7.46521C22.6292 7.46521 22.5684 7.53064 22.5684 7.62879Z" fill="#F1C40F"/>
<path d="M22.2637 7.43128C22.2637 7.52943 22.3245 7.59487 22.4157 7.59487C22.507 7.59487 22.5678 7.52943 22.5678 7.43128C22.5678 7.33313 22.507 7.2677 22.4157 7.2677C22.3245 7.30042 22.2637 7.36585 22.2637 7.43128Z" fill="#F1C40F"/>
<path d="M21.9893 7.23683C21.9893 7.33498 22.0501 7.40041 22.1413 7.40041C22.2326 7.40041 22.2934 7.33498 22.2934 7.23683C22.2934 7.13868 22.2326 7.07324 22.1413 7.07324C22.0501 7.10596 21.9893 7.17139 21.9893 7.23683Z" fill="#F1C40F"/>
<path d="M21.7158 7.04066C21.7158 7.13881 21.7766 7.20424 21.8679 7.20424C21.9591 7.20424 22.02 7.13881 22.02 7.04066C22.02 6.94251 21.9591 6.87708 21.8679 6.87708C21.7766 6.90979 21.7158 6.97523 21.7158 7.04066Z" fill="#F1C40F"/>
<path d="M21.4121 6.87635C21.4121 6.9745 21.4729 7.03994 21.5642 7.03994C21.6554 7.03994 21.7162 6.9745 21.7162 6.87635C21.7162 6.7782 21.6554 6.71277 21.5642 6.71277C21.4729 6.71277 21.4121 6.7782 21.4121 6.87635Z" fill="#F1C40F"/>
<path d="M21.1367 6.68019C21.1367 6.77834 21.1975 6.84377 21.2888 6.84377C21.38 6.84377 21.4409 6.77834 21.4409 6.68019C21.4409 6.58204 21.38 6.5166 21.2888 6.5166C21.1975 6.5166 21.1367 6.58204 21.1367 6.68019Z" fill="#F1C40F"/>
<path d="M20.8643 6.4828C20.8643 6.58095 20.9251 6.64638 21.0163 6.64638C21.1076 6.64638 21.1684 6.58095 21.1684 6.4828C21.1684 6.38465 21.1076 6.31921 21.0163 6.31921C20.9251 6.31921 20.8643 6.38465 20.8643 6.4828Z" fill="#F1C40F"/>
<path d="M20.5596 6.28614C20.5596 6.38429 20.6204 6.44973 20.7116 6.44973C20.8029 6.44973 20.8637 6.38429 20.8637 6.28614C20.8637 6.18799 20.8029 6.12256 20.7116 6.12256C20.6204 6.12256 20.5596 6.18799 20.5596 6.28614Z" fill="#F1C40F"/>
<path d="M20.2861 6.08973C20.2861 6.18788 20.347 6.25331 20.4382 6.25331C20.5294 6.25331 20.5903 6.18788 20.5903 6.08973C20.5903 5.99158 20.5294 5.92615 20.4382 5.92615C20.347 5.95886 20.2861 6.0243 20.2861 6.08973Z" fill="#F1C40F"/>
<path d="M20.0117 5.89222C20.0117 5.99037 20.0725 6.05581 20.1638 6.05581C20.255 6.05581 20.3159 5.99037 20.3159 5.89222C20.3159 5.79407 20.255 5.72864 20.1638 5.72864C20.0725 5.76135 20.0117 5.82679 20.0117 5.89222Z" fill="#F1C40F"/>
<path d="M19.708 5.69776C19.708 5.79591 19.7688 5.86135 19.8601 5.86135C19.9513 5.86135 20.0121 5.79591 20.0121 5.69776C20.0121 5.59961 19.9513 5.53418 19.8601 5.53418C19.7688 5.5669 19.708 5.63233 19.708 5.69776Z" fill="#F1C40F"/>
<path d="M19.4336 5.53285C19.4336 5.631 19.4944 5.69643 19.5857 5.69643C19.6769 5.69643 19.7377 5.631 19.7377 5.53285C19.7377 5.4347 19.6769 5.36926 19.5857 5.36926C19.4944 5.36926 19.4336 5.4347 19.4336 5.53285Z" fill="#F1C40F"/>
<path d="M19.1602 5.33839C19.1602 5.43654 19.221 5.50197 19.3122 5.50197C19.4035 5.50197 19.4643 5.43654 19.4643 5.33839C19.4643 5.24024 19.4035 5.1748 19.3122 5.1748C19.221 5.1748 19.1602 5.24024 19.1602 5.33839Z" fill="#F1C40F"/>
<path d="M18.8574 5.14222C18.8574 5.24037 18.9182 5.30581 19.0095 5.30581C19.1007 5.30581 19.1616 5.24037 19.1616 5.14222C19.1616 5.04407 19.1007 4.97864 19.0095 4.97864C18.9487 4.97864 18.8574 5.04407 18.8574 5.14222Z" fill="#F1C40F"/>
<path d="M18.583 4.94374C18.583 5.04189 18.6438 5.10732 18.7351 5.10732C18.8263 5.10732 18.8871 5.04189 18.8871 4.94374C18.8871 4.84558 18.8263 4.78015 18.7351 4.78015C18.6438 4.78015 18.583 4.84558 18.583 4.94374Z" fill="#F1C40F"/>
<path d="M18.3096 4.74598C18.3096 4.84413 18.3704 4.90956 18.4616 4.90956C18.5529 4.90956 18.6137 4.84413 18.6137 4.74598C18.6137 4.64783 18.5529 4.5824 18.4616 4.5824C18.3704 4.5824 18.3096 4.68055 18.3096 4.74598Z" fill="#F1C40F"/>
<path d="M18.0361 4.55067C18.0361 4.64882 18.097 4.71425 18.1882 4.71425C18.2794 4.71425 18.3403 4.64882 18.3403 4.55067C18.3403 4.45252 18.2794 4.38708 18.1882 4.38708C18.097 4.4198 18.0361 4.48524 18.0361 4.55067Z" fill="#F1C40F"/>
<path d="M17.7314 4.35645C17.7314 4.45461 17.7923 4.52004 17.8835 4.52004C17.9748 4.52004 18.0356 4.45461 18.0356 4.35645C18.0356 4.2583 17.9748 4.19287 17.8835 4.19287C17.7923 4.22559 17.7314 4.29102 17.7314 4.35645Z" fill="#F1C40F"/>
<path d="M17.458 4.1902C17.458 4.28835 17.5188 4.35378 17.6101 4.35378C17.7013 4.35378 17.7621 4.28835 17.7621 4.1902C17.7621 4.09204 17.7013 4.02661 17.6101 4.02661C17.5188 4.02661 17.458 4.09204 17.458 4.1902Z" fill="#F1C40F"/>
<path d="M17.1855 3.99598C17.1855 4.09413 17.2464 4.15956 17.3376 4.15956C17.4289 4.15956 17.4897 4.09413 17.4897 3.99598C17.4897 3.89783 17.4289 3.8324 17.3376 3.8324C17.2464 3.8324 17.1855 3.89783 17.1855 3.99598Z" fill="#F1C40F"/>
<path d="M16.8789 3.79945C16.8789 3.8976 16.9397 3.96303 17.031 3.96303C17.1222 3.96303 17.183 3.8976 17.183 3.79945C17.183 3.7013 17.1222 3.63586 17.031 3.63586C16.9397 3.63586 16.8789 3.7013 16.8789 3.79945Z" fill="#F1C40F"/>
<path d="M16.6064 3.60206C16.6064 3.70021 16.6673 3.76564 16.7585 3.76564C16.8498 3.76564 16.9106 3.70021 16.9106 3.60206C16.9106 3.50391 16.8498 3.43848 16.7585 3.43848C16.6673 3.43848 16.6064 3.50391 16.6064 3.60206Z" fill="#F1C40F"/>
<path d="M16.333 3.40577C16.333 3.50392 16.3938 3.56935 16.4851 3.56935C16.5763 3.56935 16.6371 3.50392 16.6371 3.40577C16.6371 3.30762 16.5763 3.24219 16.4851 3.24219C16.3938 3.24219 16.333 3.34034 16.333 3.40577Z" fill="#F1C40F"/>
<path d="M16.0283 3.20924C16.0283 3.30739 16.0891 3.37282 16.1804 3.37282C16.2716 3.37282 16.3325 3.30739 16.3325 3.20924C16.3325 3.11109 16.2716 3.04565 16.1804 3.04565C16.0891 3.07837 16.0283 3.1438 16.0283 3.20924Z" fill="#F1C40F"/>
<path d="M15.7539 3.01051C15.7539 3.10866 15.8147 3.17409 15.906 3.17409C15.9972 3.17409 16.058 3.10866 16.058 3.01051C16.058 2.91236 15.9972 2.84692 15.906 2.84692C15.8147 2.87964 15.7539 2.94507 15.7539 3.01051Z" fill="#F1C40F"/>
<path d="M15.4814 2.81629C15.4814 2.91444 15.5423 2.97988 15.6335 2.97988C15.7248 2.97988 15.7856 2.91444 15.7856 2.81629C15.7856 2.71814 15.7248 2.65271 15.6335 2.65271C15.5423 2.68543 15.4814 2.75086 15.4814 2.81629Z" fill="#F1C40F"/>
<path d="M15.1777 2.65223C15.1777 2.75038 15.2386 2.81581 15.3298 2.81581C15.421 2.81581 15.4819 2.75038 15.4819 2.65223C15.4819 2.55408 15.421 2.48865 15.3298 2.48865C15.2386 2.48865 15.1777 2.55408 15.1777 2.65223Z" fill="#F1C40F"/>
<path d="M14.9033 2.45582C14.9033 2.55397 14.9641 2.6194 15.0554 2.6194C15.1466 2.6194 15.2075 2.55397 15.2075 2.45582C15.2075 2.35767 15.1466 2.29224 15.0554 2.29224C14.9641 2.29224 14.9033 2.35767 14.9033 2.45582Z" fill="#F1C40F"/>
<path d="M14.6299 2.26039C14.6299 2.35854 14.6907 2.42397 14.782 2.42397C14.8732 2.42397 14.934 2.35854 14.934 2.26039C14.934 2.16224 14.8732 2.0968 14.782 2.0968C14.6907 2.0968 14.6299 2.16224 14.6299 2.26039Z" fill="#F1C40F"/>
<path d="M14.3252 2.063C14.3252 2.16115 14.386 2.22658 14.4773 2.22658C14.5685 2.22658 14.6293 2.16115 14.6293 2.063C14.6293 1.96485 14.5685 1.89941 14.4773 1.89941C14.386 1.89941 14.3252 1.96485 14.3252 2.063Z" fill="#F1C40F"/>
<path d="M14.0518 1.86561C14.0518 1.96376 14.1126 2.02919 14.2038 2.02919C14.2951 2.02919 14.3559 1.96376 14.3559 1.86561C14.3559 1.76746 14.2951 1.70203 14.2038 1.70203C14.1126 1.73474 14.0518 1.80018 14.0518 1.86561Z" fill="#F1C40F"/>
<path d="M13.7773 1.67018C13.7773 1.76833 13.8382 1.83376 13.9294 1.83376C14.0207 1.83376 14.0815 1.76833 14.0815 1.67018C14.0815 1.57203 14.0207 1.50659 13.9294 1.50659C13.8382 1.53931 13.7773 1.60474 13.7773 1.67018Z" fill="#F1C40F"/>
<path d="M13.4746 1.47364C13.4746 1.57179 13.5354 1.63723 13.6267 1.63723C13.7179 1.63723 13.7787 1.57179 13.7787 1.47364C13.7787 1.37549 13.7179 1.31006 13.6267 1.31006C13.5659 1.34278 13.4746 1.40821 13.4746 1.47364Z" fill="#F1C40F"/>
<path d="M13.2002 1.30958C13.2002 1.40773 13.261 1.47316 13.3523 1.47316C13.4435 1.47316 13.5043 1.40773 13.5043 1.30958C13.5043 1.21143 13.4435 1.146 13.3523 1.146C13.261 1.146 13.2002 1.21143 13.2002 1.30958Z" fill="#F1C40F"/>
<path d="M12.9258 1.11207C12.9258 1.21022 12.9866 1.27565 13.0778 1.27565C13.1691 1.27565 13.2299 1.21022 13.2299 1.11207C13.2299 1.01392 13.1691 0.948486 13.0778 0.948486C12.9866 0.948486 12.9258 1.01392 12.9258 1.11207Z" fill="#F1C40F"/>
<path d="M12.6523 0.918955C12.6523 1.01711 12.7132 1.08254 12.8044 1.08254C12.8957 1.08254 12.9565 1.01711 12.9565 0.918955C12.9565 0.820805 12.8957 0.755371 12.8044 0.755371C12.7132 0.755371 12.6523 0.820805 12.6523 0.918955Z" fill="#F1C40F"/>
<path d="M12.3486 0.720346C12.3486 0.818497 12.4095 0.88393 12.5007 0.88393C12.5919 0.88393 12.6528 0.818497 12.6528 0.720346C12.6528 0.622196 12.5919 0.556763 12.5007 0.556763C12.4095 0.556763 12.3486 0.622196 12.3486 0.720346Z" fill="#F1C40F"/>
<path d="M4.59153 10.1486C4.59153 10.2469 4.50029 10.3453 4.40904 10.3453C4.3178 10.3453 4.22656 10.2469 4.22656 10.1486C4.22656 10.0502 4.3178 9.9519 4.40904 9.9519C4.50029 9.9519 4.59153 10.0502 4.59153 10.1486Z" fill="#F1C40F"/>
<path d="M7.14719 10.1486C7.14719 10.2469 7.05595 10.3453 6.96471 10.3453C6.87347 10.3453 6.78223 10.2469 6.78223 10.1486C6.78223 10.0502 6.87347 9.9519 6.96471 9.9519C7.05595 9.9519 7.14719 10.0502 7.14719 10.1486Z" fill="#F1C40F"/>
<path d="M6.9649 9.9519H4.41016V10.05H6.9649V9.9519Z" fill="#F1C40F"/>
<path d="M4.59153 19.1876C4.59153 19.0893 4.50029 18.991 4.40904 18.991C4.3178 18.991 4.22656 19.0893 4.22656 19.1876C4.22656 19.286 4.3178 19.3843 4.40904 19.3843C4.50029 19.3843 4.59153 19.286 4.59153 19.1876Z" fill="#F1C40F"/>
<path d="M7.14719 19.1876C7.14719 19.0893 7.05595 18.991 6.96471 18.991C6.87347 18.991 6.78223 19.0893 6.78223 19.1876C6.78223 19.286 6.87347 19.3843 6.96471 19.3843C7.05595 19.3843 7.14719 19.286 7.14719 19.1876Z" fill="#F1C40F"/>
<path d="M6.9649 19.2545H4.41016V19.3526H6.9649V19.2545Z" fill="#F1C40F"/>
<path d="M9.12473 10.1486C9.12473 10.2469 9.03349 10.3453 8.94225 10.3453C8.85101 10.3453 8.75977 10.2469 8.75977 10.1486C8.75977 10.0502 8.85101 9.9519 8.94225 9.9519C9.03349 9.9519 9.12473 10.0502 9.12473 10.1486Z" fill="#F1C40F"/>
<path d="M11.6784 10.1486C11.6784 10.2469 11.5872 10.3453 11.496 10.3453C11.4047 10.3453 11.3135 10.2469 11.3135 10.1486C11.3135 10.0502 11.4047 9.9519 11.496 9.9519C11.5872 9.9519 11.6784 10.0502 11.6784 10.1486Z" fill="#F1C40F"/>
<path d="M11.4962 9.9519H8.94141V10.05H11.4962V9.9519Z" fill="#F1C40F"/>
<path d="M9.12473 19.1876C9.12473 19.0893 9.03349 18.991 8.94225 18.991C8.85101 18.991 8.75977 19.0893 8.75977 19.1876C8.75977 19.286 8.85101 19.3843 8.94225 19.3843C9.03349 19.3843 9.12473 19.286 9.12473 19.1876Z" fill="#F1C40F"/>
<path d="M11.6784 19.1876C11.6784 19.0893 11.5872 18.991 11.496 18.991C11.4047 18.991 11.3135 19.0893 11.3135 19.1876C11.3135 19.286 11.4047 19.3843 11.496 19.3843C11.5872 19.3843 11.6784 19.286 11.6784 19.1876Z" fill="#F1C40F"/>
<path d="M11.4962 19.2545H8.94141V19.3526H11.4962V19.2545Z" fill="#F1C40F"/>
<path d="M13.656 10.1486C13.656 10.2469 13.5647 10.3453 13.4735 10.3453C13.3823 10.3453 13.291 10.2469 13.291 10.1486C13.291 10.0502 13.3823 9.9519 13.4735 9.9519C13.5952 9.9519 13.656 10.0502 13.656 10.1486Z" fill="#F1C40F"/>
<path d="M16.2107 10.1486C16.2107 10.2469 16.1194 10.3453 16.0282 10.3453C15.9369 10.3453 15.8457 10.2469 15.8457 10.1486C15.8457 10.0502 15.9369 9.9519 16.0282 9.9519C16.1194 9.9519 16.2107 10.0502 16.2107 10.1486Z" fill="#F1C40F"/>
<path d="M16.0284 9.9519H13.4736V10.05H16.0284V9.9519Z" fill="#F1C40F"/>
<path d="M13.656 19.1876C13.656 19.0893 13.5647 18.991 13.4735 18.991C13.3823 18.991 13.291 19.0893 13.291 19.1876C13.291 19.286 13.3823 19.3843 13.4735 19.3843C13.5952 19.3843 13.656 19.286 13.656 19.1876Z" fill="#F1C40F"/>
<path d="M16.2107 19.1876C16.2107 19.0893 16.1194 18.991 16.0282 18.991C15.9369 18.991 15.8457 19.0893 15.8457 19.1876C15.8457 19.286 15.9369 19.3843 16.0282 19.3843C16.1194 19.3843 16.2107 19.286 16.2107 19.1876Z" fill="#F1C40F"/>
<path d="M16.0284 19.2545H13.4736V19.3526H16.0284V19.2545Z" fill="#F1C40F"/>
<path d="M18.1872 10.1486C18.1872 10.2469 18.096 10.3453 18.0047 10.3453C17.9135 10.3453 17.8223 10.2469 17.8223 10.1486C17.8223 10.0502 17.9135 9.9519 18.0047 9.9519C18.1264 9.9519 18.1872 10.0502 18.1872 10.1486Z" fill="#F1C40F"/>
<path d="M20.7419 10.1486C20.7419 10.2469 20.6507 10.3453 20.5594 10.3453C20.4682 10.3453 20.377 10.2469 20.377 10.1486C20.377 10.0502 20.4682 9.9519 20.5594 9.9519C20.6811 9.9519 20.7419 10.0502 20.7419 10.1486Z" fill="#F1C40F"/>
<path d="M20.5909 9.9519H18.0361V10.05H20.5909V9.9519Z" fill="#F1C40F"/>
<path d="M18.1872 19.1876C18.1872 19.0893 18.096 18.991 18.0047 18.991C17.9135 18.991 17.8223 19.0893 17.8223 19.1876C17.8223 19.286 17.9135 19.3843 18.0047 19.3843C18.1264 19.3843 18.1872 19.286 18.1872 19.1876Z" fill="#F1C40F"/>
<path d="M20.7419 19.1876C20.7419 19.0893 20.6507 18.991 20.5594 18.991C20.4682 18.991 20.377 19.0893 20.377 19.1876C20.377 19.286 20.4682 19.3843 20.5594 19.3843C20.6811 19.3843 20.7419 19.286 20.7419 19.1876Z" fill="#F1C40F"/>
<path d="M20.5909 19.2545H18.0361V19.3526H20.5909V19.2545Z" fill="#F1C40F"/>
<path d="M22.4453 9.13501H2.52441V9.33195H22.4453V9.13501Z" fill="#F1C40F"/>
<path d="M22.4453 8.90515H2.52441V9.10209H22.4453V8.90515Z" fill="#E67E22"/>
<path d="M22.4453 8.21777H2.52441V8.41471H22.4453V8.21777Z" fill="#F1C40F"/>
<path d="M22.4453 8.41284H2.52441V8.60978H22.4453V8.41284Z" fill="#E67E22"/>
<path d="M2.7973 8.77406C2.7973 8.87221 2.73647 8.93764 2.64523 8.93764C2.55399 8.93764 2.49316 8.87221 2.49316 8.77406C2.49316 8.67591 2.55399 8.61047 2.64523 8.61047C2.73647 8.61047 2.7973 8.67591 2.7973 8.77406Z" fill="#F1C40F"/>
<path d="M3.10101 8.77406C3.10101 8.87221 3.04018 8.93764 2.94894 8.93764C2.8577 8.93764 2.79688 8.87221 2.79688 8.77406C2.79688 8.67591 2.8577 8.61047 2.94894 8.61047C3.00977 8.61047 3.10101 8.67591 3.10101 8.77406Z" fill="#F1C40F"/>
<path d="M3.37445 8.77406C3.37445 8.87221 3.31362 8.93764 3.22238 8.93764C3.13114 8.93764 3.07031 8.87221 3.07031 8.77406C3.07031 8.67591 3.13114 8.61047 3.22238 8.61047C3.31362 8.61047 3.37445 8.67591 3.37445 8.77406Z" fill="#F1C40F"/>
<path d="M3.64789 8.77406C3.64789 8.87221 3.58706 8.93764 3.49582 8.93764C3.40458 8.93764 3.34375 8.87221 3.34375 8.77406C3.34375 8.67591 3.40458 8.61047 3.49582 8.61047C3.58706 8.61047 3.64789 8.67591 3.64789 8.77406Z" fill="#F1C40F"/>
<path d="M3.92328 8.77406C3.92328 8.87221 3.86245 8.93764 3.77121 8.93764C3.67997 8.93764 3.61914 8.87221 3.61914 8.77406C3.61914 8.67591 3.67997 8.61047 3.77121 8.61047C3.86245 8.61047 3.92328 8.67591 3.92328 8.77406Z" fill="#F1C40F"/>
<path d="M4.19574 8.77406C4.19574 8.87221 4.13491 8.93764 4.04367 8.93764C3.95243 8.93764 3.8916 8.87221 3.8916 8.77406C3.8916 8.67591 3.95243 8.61047 4.04367 8.61047C4.13491 8.61047 4.19574 8.67591 4.19574 8.77406Z" fill="#F1C40F"/>
<path d="M4.50043 8.77406C4.50043 8.87221 4.4396 8.93764 4.34836 8.93764C4.25712 8.93764 4.19629 8.87221 4.19629 8.77406C4.19629 8.67591 4.25712 8.61047 4.34836 8.61047C4.4396 8.61047 4.50043 8.67591 4.50043 8.77406Z" fill="#F1C40F"/>
<path d="M4.77289 8.77406C4.77289 8.87221 4.71206 8.93764 4.62082 8.93764C4.52958 8.93764 4.46875 8.87221 4.46875 8.77406C4.46875 8.67591 4.52958 8.61047 4.62082 8.61047C4.71206 8.61047 4.77289 8.67591 4.77289 8.77406Z" fill="#F1C40F"/>
<path d="M5.0473 8.77406C5.0473 8.87221 4.98647 8.93764 4.89523 8.93764C4.80399 8.93764 4.74316 8.87221 4.74316 8.77406C4.74316 8.67591 4.80399 8.61047 4.89523 8.61047C4.98647 8.61047 5.0473 8.67591 5.0473 8.77406Z" fill="#F1C40F"/>
<path d="M5.32171 8.77406C5.32171 8.87221 5.26089 8.93764 5.16965 8.93764C5.07841 8.93764 5.01758 8.87221 5.01758 8.77406C5.01758 8.67591 5.07841 8.61047 5.16965 8.61047C5.26089 8.61047 5.32171 8.67591 5.32171 8.77406Z" fill="#F1C40F"/>
<path d="M5.62543 8.77406C5.62543 8.87221 5.5646 8.93764 5.47336 8.93764C5.38212 8.93764 5.32129 8.87221 5.32129 8.77406C5.32129 8.67591 5.38212 8.61047 5.47336 8.61047C5.5646 8.61047 5.62543 8.67591 5.62543 8.77406Z" fill="#F1C40F"/>
<path d="M5.89789 8.77406C5.89789 8.87221 5.83706 8.93764 5.74582 8.93764C5.65458 8.93764 5.59375 8.87221 5.59375 8.77406C5.59375 8.67591 5.65458 8.61047 5.74582 8.61047C5.83706 8.61047 5.89789 8.67591 5.89789 8.77406Z" fill="#F1C40F"/>
<path d="M6.1723 8.77406C6.1723 8.87221 6.11147 8.93764 6.02023 8.93764C5.92899 8.93764 5.86816 8.87221 5.86816 8.77406C5.86816 8.67591 5.92899 8.61047 6.02023 8.61047C6.11147 8.61047 6.1723 8.67591 6.1723 8.77406Z" fill="#F1C40F"/>
<path d="M6.44769 8.77406C6.44769 8.87221 6.38686 8.93764 6.29562 8.93764C6.20438 8.93764 6.14355 8.87221 6.14355 8.77406C6.14355 8.67591 6.20438 8.61047 6.29562 8.61047C6.38686 8.61047 6.44769 8.67591 6.44769 8.77406Z" fill="#F1C40F"/>
<path d="M6.75043 8.77406C6.75043 8.87221 6.6896 8.93764 6.59836 8.93764C6.50712 8.93764 6.44629 8.87221 6.44629 8.77406C6.44629 8.67591 6.50712 8.61047 6.59836 8.61047C6.65918 8.61047 6.75043 8.67591 6.75043 8.77406Z" fill="#F1C40F"/>
<path d="M7.02484 8.77406C7.02484 8.87221 6.96401 8.93764 6.87277 8.93764C6.78153 8.93764 6.7207 8.87221 6.7207 8.77406C6.7207 8.67591 6.78153 8.61047 6.87277 8.61047C6.96401 8.61047 7.02484 8.67591 7.02484 8.77406Z" fill="#F1C40F"/>
<path d="M7.29828 8.77406C7.29828 8.87221 7.23745 8.93764 7.14621 8.93764C7.05497 8.93764 6.99414 8.87221 6.99414 8.77406C6.99414 8.67591 7.05497 8.61047 7.14621 8.61047C7.23745 8.61047 7.29828 8.67591 7.29828 8.77406Z" fill="#F1C40F"/>
<path d="M7.57269 8.77406C7.57269 8.87221 7.51186 8.93764 7.42062 8.93764C7.32938 8.93764 7.26855 8.87221 7.26855 8.77406C7.26855 8.67591 7.32938 8.61047 7.42062 8.61047C7.51186 8.61047 7.57269 8.67591 7.57269 8.77406Z" fill="#F1C40F"/>
<path d="M7.84515 8.77406C7.84515 8.87221 7.78432 8.93764 7.69308 8.93764C7.60184 8.93764 7.54102 8.87221 7.54102 8.77406C7.54102 8.67591 7.60184 8.61047 7.69308 8.61047C7.78432 8.61047 7.84515 8.67591 7.84515 8.77406Z" fill="#F1C40F"/>
<path d="M8.15082 8.77406C8.15082 8.87221 8.08999 8.93764 7.99875 8.93764C7.90751 8.93764 7.84668 8.87221 7.84668 8.77406C7.84668 8.67591 7.90751 8.61047 7.99875 8.61047C8.08999 8.61047 8.15082 8.67591 8.15082 8.77406Z" fill="#F1C40F"/>
<path d="M8.42328 8.77406C8.42328 8.87221 8.36245 8.93764 8.27121 8.93764C8.17997 8.93764 8.11914 8.87221 8.11914 8.77406C8.11914 8.67591 8.17997 8.61047 8.27121 8.61047C8.36245 8.61047 8.42328 8.67591 8.42328 8.77406Z" fill="#F1C40F"/>
<path d="M8.69671 8.77406C8.69671 8.87221 8.63589 8.93764 8.54465 8.93764C8.45341 8.93764 8.39258 8.87221 8.39258 8.77406C8.39258 8.67591 8.45341 8.61047 8.54465 8.61047C8.63589 8.61047 8.69671 8.67591 8.69671 8.77406Z" fill="#F1C40F"/>
<path d="M8.97015 8.77406C8.97015 8.87221 8.90932 8.93764 8.81808 8.93764C8.72684 8.93764 8.66602 8.87221 8.66602 8.77406C8.66602 8.67591 8.72684 8.61047 8.81808 8.61047C8.90932 8.61047 8.97015 8.67591 8.97015 8.77406Z" fill="#F1C40F"/>
<path d="M9.27582 8.77406C9.27582 8.87221 9.21499 8.93764 9.12375 8.93764C9.03251 8.93764 8.97168 8.87221 8.97168 8.77406C8.97168 8.67591 9.03251 8.61047 9.12375 8.61047C9.21499 8.61047 9.27582 8.67591 9.27582 8.77406Z" fill="#F1C40F"/>
<path d="M9.54828 8.77406C9.54828 8.87221 9.48745 8.93764 9.39621 8.93764C9.30497 8.93764 9.24414 8.87221 9.24414 8.77406C9.24414 8.67591 9.30497 8.61047 9.39621 8.61047C9.48745 8.61047 9.54828 8.67591 9.54828 8.77406Z" fill="#F1C40F"/>
<path d="M9.82269 8.77406C9.82269 8.87221 9.76186 8.93764 9.67062 8.93764C9.57938 8.93764 9.51855 8.87221 9.51855 8.77406C9.51855 8.67591 9.57938 8.61047 9.67062 8.61047C9.76186 8.61047 9.82269 8.67591 9.82269 8.77406Z" fill="#F1C40F"/>
<path d="M10.0971 8.77406C10.0971 8.87221 10.0363 8.93764 9.94504 8.93764C9.8538 8.93764 9.79297 8.87221 9.79297 8.77406C9.79297 8.67591 9.8538 8.61047 9.94504 8.61047C10.0363 8.61047 10.0971 8.67591 10.0971 8.77406Z" fill="#F1C40F"/>
<path d="M10.4008 8.77406C10.4008 8.87221 10.34 8.93764 10.2487 8.93764C10.1575 8.93764 10.0967 8.87221 10.0967 8.77406C10.0967 8.67591 10.1575 8.61047 10.2487 8.61047C10.3096 8.61047 10.4008 8.67591 10.4008 8.77406Z" fill="#F1C40F"/>
<path d="M10.6743 8.77406C10.6743 8.87221 10.6134 8.93764 10.5222 8.93764C10.4309 8.93764 10.3701 8.87221 10.3701 8.77406C10.3701 8.67591 10.4309 8.61047 10.5222 8.61047C10.6134 8.61047 10.6743 8.67591 10.6743 8.77406Z" fill="#F1C40F"/>
<path d="M10.9477 8.77406C10.9477 8.87221 10.8869 8.93764 10.7956 8.93764C10.7044 8.93764 10.6436 8.87221 10.6436 8.77406C10.6436 8.67591 10.7044 8.61047 10.7956 8.61047C10.8869 8.61047 10.9477 8.67591 10.9477 8.77406Z" fill="#F1C40F"/>
<path d="M11.2211 8.77406C11.2211 8.87221 11.1603 8.93764 11.0691 8.93764C10.9778 8.93764 10.917 8.87221 10.917 8.77406C10.917 8.67591 10.9778 8.61047 11.0691 8.61047C11.1603 8.61047 11.2211 8.67591 11.2211 8.77406Z" fill="#F1C40F"/>
<path d="M11.4965 8.77406C11.4965 8.87221 11.4357 8.93764 11.3445 8.93764C11.2532 8.93764 11.1924 8.87221 11.1924 8.77406C11.1924 8.67591 11.2532 8.61047 11.3445 8.61047C11.4357 8.61047 11.4965 8.67591 11.4965 8.77406Z" fill="#F1C40F"/>
<path d="M11.7993 8.77406C11.7993 8.87221 11.7384 8.93764 11.6472 8.93764C11.5559 8.93764 11.4951 8.87221 11.4951 8.77406C11.4951 8.67591 11.5559 8.61047 11.6472 8.61047C11.7384 8.61047 11.7993 8.67591 11.7993 8.77406Z" fill="#F1C40F"/>
<path d="M12.0737 8.77406C12.0737 8.87221 12.0128 8.93764 11.9216 8.93764C11.8304 8.93764 11.7695 8.87221 11.7695 8.77406C11.7695 8.67591 11.8304 8.61047 11.9216 8.61047C12.0128 8.61047 12.0737 8.67591 12.0737 8.77406Z" fill="#F1C40F"/>
<path d="M12.3461 8.77406C12.3461 8.87221 12.2853 8.93764 12.1941 8.93764C12.1028 8.93764 12.042 8.87221 12.042 8.77406C12.042 8.67591 12.1028 8.61047 12.1941 8.61047C12.2853 8.61047 12.3461 8.67591 12.3461 8.77406Z" fill="#F1C40F"/>
<path d="M12.6196 8.77406C12.6196 8.87221 12.5587 8.93764 12.4675 8.93764C12.3763 8.93764 12.3154 8.87221 12.3154 8.77406C12.3154 8.67591 12.3763 8.61047 12.4675 8.61047C12.5587 8.61047 12.6196 8.67591 12.6196 8.77406Z" fill="#F1C40F"/>
<path d="M12.9252 8.77406C12.9252 8.87221 12.8644 8.93764 12.7732 8.93764C12.6819 8.93764 12.6211 8.87221 12.6211 8.77406C12.6211 8.67591 12.6819 8.61047 12.7732 8.61047C12.8644 8.61047 12.9252 8.67591 12.9252 8.77406Z" fill="#F1C40F"/>
<path d="M13.1987 8.77406C13.1987 8.87221 13.1378 8.93764 13.0466 8.93764C12.9554 8.93764 12.8945 8.87221 12.8945 8.77406C12.8945 8.67591 12.9554 8.61047 13.0466 8.61047C13.1378 8.61047 13.1987 8.67591 13.1987 8.77406Z" fill="#F1C40F"/>
<path d="M13.4721 8.77406C13.4721 8.87221 13.4113 8.93764 13.32 8.93764C13.2288 8.93764 13.168 8.87221 13.168 8.77406C13.168 8.67591 13.2288 8.61047 13.32 8.61047C13.4113 8.61047 13.4721 8.67591 13.4721 8.77406Z" fill="#F1C40F"/>
<path d="M13.7455 8.77406C13.7455 8.87221 13.6847 8.93764 13.5935 8.93764C13.5022 8.93764 13.4414 8.87221 13.4414 8.77406C13.4414 8.67591 13.5022 8.61047 13.5935 8.61047C13.6847 8.61047 13.7455 8.67591 13.7455 8.77406Z" fill="#F1C40F"/>
<path d="M14.0493 8.77406C14.0493 8.87221 13.9884 8.93764 13.8972 8.93764C13.8059 8.93764 13.7451 8.87221 13.7451 8.77406C13.7451 8.67591 13.8059 8.61047 13.8972 8.61047C13.958 8.61047 14.0493 8.67591 14.0493 8.77406Z" fill="#F1C40F"/>
<path d="M14.3237 8.77406C14.3237 8.87221 14.2628 8.93764 14.1716 8.93764C14.0804 8.93764 14.0195 8.87221 14.0195 8.77406C14.0195 8.67591 14.0804 8.61047 14.1716 8.61047C14.2628 8.61047 14.3237 8.67591 14.3237 8.77406Z" fill="#F1C40F"/>
<path d="M14.5981 8.77406C14.5981 8.87221 14.5373 8.93764 14.446 8.93764C14.3548 8.93764 14.2939 8.87221 14.2939 8.77406C14.2939 8.67591 14.3548 8.61047 14.446 8.61047C14.5373 8.61047 14.5981 8.67591 14.5981 8.77406Z" fill="#F1C40F"/>
<path d="M14.8705 8.77406C14.8705 8.87221 14.8097 8.93764 14.7185 8.93764C14.6272 8.93764 14.5664 8.87221 14.5664 8.77406C14.5664 8.67591 14.6272 8.61047 14.7185 8.61047C14.8097 8.61047 14.8705 8.67591 14.8705 8.77406Z" fill="#F1C40F"/>
<path d="M15.145 8.77406C15.145 8.87221 15.0841 8.93764 14.9929 8.93764C14.9016 8.93764 14.8408 8.87221 14.8408 8.77406C14.8408 8.67591 14.9016 8.61047 14.9929 8.61047C15.0841 8.61047 15.145 8.67591 15.145 8.77406Z" fill="#F1C40F"/>
<path d="M15.4496 8.77406C15.4496 8.87221 15.3888 8.93764 15.2976 8.93764C15.2063 8.93764 15.1455 8.87221 15.1455 8.77406C15.1455 8.67591 15.2063 8.61047 15.2976 8.61047C15.3888 8.61047 15.4496 8.67591 15.4496 8.77406Z" fill="#F1C40F"/>
<path d="M15.7231 8.77406C15.7231 8.87221 15.6623 8.93764 15.571 8.93764C15.4798 8.93764 15.4189 8.87221 15.4189 8.77406C15.4189 8.67591 15.4798 8.61047 15.571 8.61047C15.6623 8.61047 15.7231 8.67591 15.7231 8.77406Z" fill="#F1C40F"/>
<path d="M15.9975 8.77406C15.9975 8.87221 15.9367 8.93764 15.8454 8.93764C15.7542 8.93764 15.6934 8.87221 15.6934 8.77406C15.6934 8.67591 15.7542 8.61047 15.8454 8.61047C15.9367 8.61047 15.9975 8.67591 15.9975 8.77406Z" fill="#F1C40F"/>
<path d="M16.27 8.77406C16.27 8.87221 16.2091 8.93764 16.1179 8.93764C16.0266 8.93764 15.9658 8.87221 15.9658 8.77406C15.9658 8.67591 16.0266 8.61047 16.1179 8.61047C16.2091 8.61047 16.27 8.67591 16.27 8.77406Z" fill="#F1C40F"/>
<path d="M16.5737 8.77406C16.5737 8.87221 16.5128 8.93764 16.4216 8.93764C16.3304 8.93764 16.2695 8.87221 16.2695 8.77406C16.2695 8.67591 16.3304 8.61047 16.4216 8.61047C16.5128 8.61047 16.5737 8.67591 16.5737 8.77406Z" fill="#F1C40F"/>
<path d="M16.8491 8.77406C16.8491 8.87221 16.7882 8.93764 16.697 8.93764C16.6057 8.93764 16.5449 8.87221 16.5449 8.77406C16.5449 8.67591 16.6057 8.61047 16.697 8.61047C16.7882 8.61047 16.8491 8.67591 16.8491 8.77406Z" fill="#F1C40F"/>
<path d="M17.1225 8.77406C17.1225 8.87221 17.0617 8.93764 16.9704 8.93764C16.8792 8.93764 16.8184 8.87221 16.8184 8.77406C16.8184 8.67591 16.8792 8.61047 16.9704 8.61047C17.0617 8.61047 17.1225 8.67591 17.1225 8.77406Z" fill="#F1C40F"/>
<path d="M17.395 8.77406C17.395 8.87221 17.3341 8.93764 17.2429 8.93764C17.1516 8.93764 17.0908 8.87221 17.0908 8.77406C17.0908 8.67591 17.1516 8.61047 17.2429 8.61047C17.3341 8.61047 17.395 8.67591 17.395 8.77406Z" fill="#F1C40F"/>
<path d="M17.6987 8.77406C17.6987 8.87221 17.6378 8.93764 17.5466 8.93764C17.4554 8.93764 17.3945 8.87221 17.3945 8.77406C17.3945 8.67591 17.4554 8.61047 17.5466 8.61047C17.6074 8.61047 17.6987 8.67591 17.6987 8.77406Z" fill="#F1C40F"/>
<path d="M17.9741 8.77406C17.9741 8.87221 17.9132 8.93764 17.822 8.93764C17.7307 8.93764 17.6699 8.87221 17.6699 8.77406C17.6699 8.67591 17.7307 8.61047 17.822 8.61047C17.9132 8.61047 17.9741 8.67591 17.9741 8.77406Z" fill="#F1C40F"/>
<path d="M18.2475 8.77406C18.2475 8.87221 18.1867 8.93764 18.0954 8.93764C18.0042 8.93764 17.9434 8.87221 17.9434 8.77406C17.9434 8.67591 18.0042 8.61047 18.0954 8.61047C18.1867 8.61047 18.2475 8.67591 18.2475 8.77406Z" fill="#F1C40F"/>
<path d="M18.5209 8.77406C18.5209 8.87221 18.4601 8.93764 18.3689 8.93764C18.2776 8.93764 18.2168 8.87221 18.2168 8.77406C18.2168 8.67591 18.2776 8.61047 18.3689 8.61047C18.4601 8.61047 18.5209 8.67591 18.5209 8.77406Z" fill="#F1C40F"/>
<path d="M18.7944 8.77406C18.7944 8.87221 18.7335 8.93764 18.6423 8.93764C18.5511 8.93764 18.4902 8.87221 18.4902 8.77406C18.4902 8.67591 18.5511 8.61047 18.6423 8.61047C18.7335 8.61047 18.7944 8.67591 18.7944 8.77406Z" fill="#F1C40F"/>
<path d="M19.0981 8.77406C19.0981 8.87221 19.0373 8.93764 18.946 8.93764C18.8548 8.93764 18.7939 8.87221 18.7939 8.77406C18.7939 8.67591 18.8548 8.61047 18.946 8.61047C19.0373 8.61047 19.0981 8.67591 19.0981 8.77406Z" fill="#F1C40F"/>
<path d="M19.3735 8.77406C19.3735 8.87221 19.3126 8.93764 19.2214 8.93764C19.1302 8.93764 19.0693 8.87221 19.0693 8.77406C19.0693 8.67591 19.1302 8.61047 19.2214 8.61047C19.3126 8.61047 19.3735 8.67591 19.3735 8.77406Z" fill="#F1C40F"/>
<path d="M19.6469 8.77406C19.6469 8.87221 19.5861 8.93764 19.4948 8.93764C19.4036 8.93764 19.3428 8.87221 19.3428 8.77406C19.3428 8.67591 19.4036 8.61047 19.4948 8.61047C19.5861 8.61047 19.6469 8.67591 19.6469 8.77406Z" fill="#F1C40F"/>
<path d="M19.9194 8.77406C19.9194 8.87221 19.8585 8.93764 19.7673 8.93764C19.6761 8.93764 19.6152 8.87221 19.6152 8.77406C19.6152 8.67591 19.6761 8.61047 19.7673 8.61047C19.8585 8.61047 19.9194 8.67591 19.9194 8.77406Z" fill="#F1C40F"/>
<path d="M20.2241 8.77406C20.2241 8.87221 20.1632 8.93764 20.072 8.93764C19.9807 8.93764 19.9199 8.87221 19.9199 8.77406C19.9199 8.67591 19.9807 8.61047 20.072 8.61047C20.1632 8.61047 20.2241 8.67591 20.2241 8.77406Z" fill="#F1C40F"/>
<path d="M20.4994 8.77406C20.4994 8.87221 20.4386 8.93764 20.3474 8.93764C20.2561 8.93764 20.1953 8.87221 20.1953 8.77406C20.1953 8.67591 20.2561 8.61047 20.3474 8.61047C20.4386 8.61047 20.4994 8.67591 20.4994 8.77406Z" fill="#F1C40F"/>
<path d="M20.7709 8.77406C20.7709 8.87221 20.7101 8.93764 20.6189 8.93764C20.5276 8.93764 20.4668 8.87221 20.4668 8.77406C20.4668 8.67591 20.5276 8.61047 20.6189 8.61047C20.7101 8.61047 20.7709 8.67591 20.7709 8.77406Z" fill="#F1C40F"/>
<path d="M21.0453 8.77406C21.0453 8.87221 20.9845 8.93764 20.8933 8.93764C20.802 8.93764 20.7412 8.87221 20.7412 8.77406C20.7412 8.67591 20.802 8.61047 20.8933 8.61047C20.9845 8.61047 21.0453 8.67591 21.0453 8.77406Z" fill="#F1C40F"/>
<path d="M21.35 8.77406C21.35 8.87221 21.2892 8.93764 21.198 8.93764C21.1067 8.93764 21.0459 8.87221 21.0459 8.77406C21.0459 8.67591 21.1067 8.61047 21.198 8.61047C21.2588 8.61047 21.35 8.67591 21.35 8.77406Z" fill="#F1C40F"/>
<path d="M21.6225 8.77406C21.6225 8.87221 21.5617 8.93764 21.4704 8.93764C21.3792 8.93764 21.3184 8.87221 21.3184 8.77406C21.3184 8.67591 21.3792 8.61047 21.4704 8.61047C21.5617 8.61047 21.6225 8.67591 21.6225 8.77406Z" fill="#F1C40F"/>
<path d="M21.8969 8.77406C21.8969 8.87221 21.8361 8.93764 21.7448 8.93764C21.6536 8.93764 21.5928 8.87221 21.5928 8.77406C21.5928 8.67591 21.6536 8.61047 21.7448 8.61047C21.8361 8.61047 21.8969 8.67591 21.8969 8.77406Z" fill="#F1C40F"/>
<path d="M22.1703 8.77406C22.1703 8.87221 22.1095 8.93764 22.0183 8.93764C21.927 8.93764 21.8662 8.87221 21.8662 8.77406C21.8662 8.67591 21.927 8.61047 22.0183 8.61047C22.1095 8.61047 22.1703 8.67591 22.1703 8.77406Z" fill="#F1C40F"/>
<path d="M22.4448 8.77406C22.4448 8.87221 22.3839 8.93764 22.2927 8.93764C22.2015 8.93764 22.1406 8.87221 22.1406 8.77406C22.1406 8.67591 22.2015 8.61047 22.2927 8.61047C22.3839 8.61047 22.4448 8.67591 22.4448 8.77406Z" fill="#F1C40F"/>
</svg>
