<svg width="26" height="17" viewBox="0 0 26 17" fill="none" xmlns="http://www.w3.org/2000/svg">
<path d="M22.8385 16.1543L24.0894 14.2246V16.1543H22.8385Z" fill="#B8B824"/>
<path d="M25.3741 16.1543L24.0894 14.2246V16.1543H25.3741Z" fill="#93932F"/>
<path d="M23.1766 15.2226L24.0894 13.8252V15.2226H23.1766Z" fill="#A4AB18"/>
<path d="M25.036 15.2226L24.0894 13.8252V15.2226H25.036Z" fill="#76770B"/>
<path d="M23.4131 14.5236L24.0893 13.4922V14.5236H23.4131Z" fill="#B8B824"/>
<path d="M24.7993 14.5236L24.0894 13.4922V14.5236H24.7993Z" fill="#93932F"/>
<path d="M22.4152 16.3179H13.2192L15.7549 8.83189L17.9524 7.46777L22.4152 16.3179Z" fill="#45B4D0"/>
<path d="M14.7921 15.5514L16.2796 13.3223V15.5514H14.7921Z" fill="#B8B824"/>
<path d="M17.7335 15.5514L16.2797 13.3223V15.5514H17.7335Z" fill="#93932F"/>
<path d="M15.1979 14.4848L16.2798 12.8545V14.4848H15.1979Z" fill="#A4AB18"/>
<path d="M17.3617 14.4848L16.2798 12.8545V14.4848H17.3617Z" fill="#76770B"/>
<path d="M15.502 13.6547L16.2796 12.4902V13.6547H15.502Z" fill="#B8B824"/>
<path d="M17.0573 13.6547L16.2797 12.4902V13.6547H17.0573Z" fill="#93932F"/>
<path d="M1.79175 16.3835L9.60154 3.1748L17.9185 16.3835H1.79175Z" fill="#6CDFF1"/>
<path d="M9.83842 12.2589L6.69421 16.3845H16.1268L12.6107 11.2607L9.83842 12.2589Z" fill="#4EBFDA"/>
<path d="M1.18323 16.15L2.94128 13.4883V16.15H1.18323Z" fill="#B8B824"/>
<path d="M4.69921 16.15L2.94116 13.4883V16.15H4.69921Z" fill="#93932F"/>
<path d="M1.65649 14.8868L2.94122 12.9238V14.8868H1.65649Z" fill="#A4AB18"/>
<path d="M4.22589 14.8868L2.94116 12.9238V14.8868H4.22589Z" fill="#76770B"/>
<path d="M1.99481 13.8876L2.94145 12.4902V13.8876H1.99481Z" fill="#B8B824"/>
<path d="M3.88786 13.8876L2.94122 12.4902V13.8876H3.88786Z" fill="#93932F"/>
<path d="M3.58374 16.1527L5.91654 12.6592V16.1527H3.58374Z" fill="#B8B824"/>
<path d="M8.24918 16.1527L5.91638 12.6592V16.1527H8.24918Z" fill="#93932F"/>
<path d="M4.22595 14.4554L5.91638 11.8936V14.4554H4.22595Z" fill="#A4AB18"/>
<path d="M7.64062 14.4554L5.91638 11.8936V14.4554H7.64062Z" fill="#76770B"/>
<path d="M4.66553 13.1914L5.91645 11.2949V13.1914H4.66553Z" fill="#B8B824"/>
<path d="M7.1673 13.1914L5.91638 11.2949V13.1914H7.1673Z" fill="#93932F"/>
<path d="M16.1102 16.15L17.8683 13.4883V16.15H16.1102Z" fill="#B8B824"/>
<path d="M19.6263 16.15L17.8683 13.4883V16.15H19.6263Z" fill="#93932F"/>
<path d="M16.5836 14.8868L17.8683 12.9238V14.8868H16.5836Z" fill="#A4AB18"/>
<path d="M19.153 14.8868L17.8683 12.9238V14.8868H19.153Z" fill="#76770B"/>
<path d="M16.9217 13.8876L17.8683 12.4902V13.8876H16.9217Z" fill="#B8B824"/>
<path d="M18.8149 13.8876L17.8683 12.4902V13.8876H18.8149Z" fill="#93932F"/>
<path d="M4.46289 11.8919L7.84375 8.83092L9.83846 12.2579L12.6108 11.2597L15.3493 12.3244L9.6018 3.1748L4.46289 11.8919Z" fill="#74F8FD"/>
<path d="M9.60168 3.1748L7.84363 8.83092L9.83834 12.2579L9.60168 3.1748Z" fill="#9AF8FD"/>
<path d="M12.2049 6.10365L15.7548 8.83189L17.9524 7.46777L20.4204 8.3661L15.2815 0.314453L12.2049 6.10365Z" fill="#6CDFF1"/>
<path d="M15.2815 0.314453L15.7548 8.83189L17.9524 7.46777L18.4933 5.33841L15.2815 0.314453Z" fill="#74F8FD"/>
<path d="M25.7482 16.6847H0.251816C0.094431 16.6847 0 16.5516 0 16.4185C0 16.2854 0.125908 16.1523 0.251816 16.1523H25.7482C25.9056 16.1523 26 16.2854 26 16.4185C26 16.5516 25.9056 16.6847 25.7482 16.6847Z" fill="#614D44"/>
</svg>
