<svg width="20" height="25" viewBox="0 0 20 25" fill="none" xmlns="http://www.w3.org/2000/svg">
<path d="M10.0893 5.01483L10.5181 5.10156L8.08661 15.9994L7.6578 15.9126L10.0893 5.01483Z" fill="#F9E2C4"/>
<path d="M19.4567 8.40441C19.4567 8.40441 18.1753 1.50168 11.2626 0.0890265C11.2626 0.0890265 3.74301 -0.906251 0.573307 4.58383C0.573307 4.58383 3.16977 3.36381 4.3837 6.34964C4.3837 6.34964 7.51969 4.55172 9.88011 7.02386C9.88011 7.02386 13.151 5.12962 14.837 8.30809C14.837 8.30809 17.4672 6.25332 19.4567 8.40441Z" fill="#8A7DDC"/>
<path d="M14.8369 8.30805C14.8369 8.30805 15.4439 1.98323 11.4311 0.121094C11.4311 0.121094 11.7009 3.5243 9.88001 7.02382C9.88001 6.99172 12.9823 5.32222 14.8369 8.30805Z" fill="#6E66CC"/>
<path d="M11.4313 0.12189C11.4313 0.12189 5.73261 1.59875 4.3838 6.3504C4.3838 6.3504 3.33847 3.49299 0.573405 4.58458C0.539685 4.55248 3.06871 -0.873387 11.4313 0.12189Z" fill="#6E66CC"/>
<path d="M7.28374 9.6875L0.269926 10.0086L6.17097 19.0945L13.3534 18.8376L7.28374 9.6875Z" fill="#FFDA65"/>
<path d="M6.92726 8.65897L13.6078 18.6543L13.3233 18.8267L6.64276 8.83135L6.92726 8.65897Z" fill="#F9E2C4"/>
<path d="M10.7907 15.7891H11.1616V23.7834H10.7907V15.7891Z" fill="#F9E2C4"/>
<path d="M13.9676 18.623L14.1461 18.9326L11.0128 20.5702L10.8344 20.2607L13.9676 18.623Z" fill="#F9E2C4"/>
<path d="M17.0962 23.7496L16.6578 23.8459L11.1614 15.2416L11.4312 15.0811L17.0962 23.7496Z" fill="#F9E2C4"/>
<path d="M5.86723 18.3894L6.10327 18.7426L13.5217 18.6784L13.1508 18.3252L5.86723 18.3894Z" fill="#F9E2C4"/>
<path d="M6.20465 18.7439L11.2627 18.6797L11.8359 18.9044L6.44069 19.0971L6.20465 18.7439Z" fill="#EDAD33"/>
<path d="M8.73375 13.8616C8.73375 13.8616 9.67792 13.99 9.8128 13.9258C10.2174 13.7332 11.3977 13.8616 11.2965 14.0221C11.229 14.1505 9.91396 14.4716 9.74536 14.4716C9.50931 14.5037 8.96979 14.5037 8.76747 14.5037C8.56515 14.5037 8.73375 13.8616 8.73375 13.8616Z" fill="#E29B96"/>
<path d="M5.42917 11.07C5.26056 10.8131 4.72104 10.2673 4.11408 10.781C3.54083 11.2626 4.6536 14.5053 5.69893 14.73C6.74426 14.9548 9.74536 14.5053 9.74536 14.5053L9.27328 13.9916L6.47449 13.4458C6.47449 13.4137 6.10357 12.001 5.42917 11.07Z" fill="#E29B96"/>
<path d="M4.31618 12.3552C4.11386 11.4242 3.60805 10.9747 3.30457 11.0068C3.37201 10.9747 3.64177 10.8463 3.74293 10.782C4.08014 10.6536 4.41734 10.5894 4.75454 10.5252C6.23824 10.3647 7.1824 11.1031 7.51961 11.7452C7.78937 12.3231 7.62077 13.2221 7.75565 13.9605C7.78937 14.1852 7.89053 14.4421 8.02541 14.6347C8.12657 14.7953 8.26145 14.9237 8.36261 15.0842C8.6661 15.5658 8.59865 16.1758 8.43005 16.6895C8.29517 17.1069 8.05913 17.4921 7.68821 17.7811C7.21612 18.1343 6.60916 18.2306 6.00219 18.2948C5.83359 18.3269 5.63127 18.3269 5.46267 18.3269C5.0243 18.2627 4.75454 17.8774 4.58594 17.5242C4.21502 16.6574 4.65338 15.5016 4.65338 15.1805C4.65338 13.9926 3.47317 12.0342 3.33829 12.0021C3.30457 12.0663 3.91154 12.2268 4.31618 12.3552Z" fill="#F96D3D"/>
<path d="M17.7369 17.4573C17.7369 17.4573 17.5346 18.2278 17.8043 18.3883C17.8718 18.4205 18.1078 18.5168 18.3776 18.4205C18.445 18.3883 18.5125 18.2599 18.6136 18.292C19.5241 18.4205 20.2322 18.2278 19.9287 18.0673C19.6589 17.9389 18.3776 17.4894 17.7369 17.2646V17.4573Z" fill="#F4C6C1"/>
<path d="M7.2836 16.2077L7.99173 15.8224C7.99173 15.8224 12.7463 15.5656 13.5893 18.712C13.9602 20.1246 14.23 23.4315 14.2637 24.0094C14.2974 24.0094 14.2974 24.0415 14.3311 24.0415C14.7695 24.3947 15.4776 24.4268 15.7474 24.5552C16.2532 24.7478 13.8928 25.101 13.6567 24.9726C13.4881 24.8763 13.5893 24.5873 13.5219 24.3305C13.3533 23.6241 11.2626 20.4778 11.7347 18.8083C11.701 18.8404 7.75569 18.1662 7.2836 16.2077Z" fill="#E29B96"/>
<path d="M4.95693 17.0098C5.63134 16.0467 9.8801 14.1845 11.6335 14.923C13.151 15.5651 17.2311 17.0419 17.2311 17.0419C17.4672 17.1383 18.1078 17.3951 18.6136 17.5556L18.1078 18.1014L17.7369 18.2299C17.7369 18.2299 17.602 18.0051 17.5683 18.0051C17.5009 17.9088 17.366 17.8125 17.2648 17.8125C17.0625 17.7483 16.8265 17.7804 16.6242 17.7483C16.3881 17.7483 16.1521 17.7162 15.9497 17.6841C15.3428 17.6199 14.7695 17.5556 14.1626 17.4593C13.5219 17.363 12.9149 17.2346 12.308 17.0419C11.8022 16.8814 11.2963 16.6888 10.9254 16.3356L10.8917 16.3035C10.8917 16.3035 7.65456 18.583 6.00226 18.5188C4.55229 18.4546 4.58601 17.5556 4.95693 17.0098Z" fill="#F4C6C1"/>
<g opacity="0.3">
<path d="M6.10341 11.6148C6.10341 11.679 6.17085 11.7432 6.23829 11.7432C6.30573 11.7432 6.37317 11.679 6.37317 11.6148C6.37317 11.5505 6.30573 11.4863 6.23829 11.4863C6.17085 11.4863 6.10341 11.5505 6.10341 11.6148Z" fill="black"/>
</g>
<g opacity="0.3">
<path d="M5.42909 11.4224C5.42909 11.4866 5.49653 11.5508 5.56397 11.5508C5.63141 11.5508 5.69885 11.4866 5.69885 11.4224C5.69885 11.3582 5.63141 11.2939 5.56397 11.2939C5.49653 11.2939 5.42909 11.3261 5.42909 11.4224Z" fill="black"/>
</g>
<g opacity="0.3">
<path d="M4.75453 11.3267C4.75453 11.3909 4.82197 11.4551 4.88941 11.4551C4.95685 11.4551 5.02429 11.3909 5.02429 11.3267C5.02429 11.2625 4.95685 11.1982 4.88941 11.1982C4.82197 11.1982 4.75453 11.2303 4.75453 11.3267Z" fill="black"/>
</g>
<g opacity="0.3">
<path d="M3.94557 10.9741C3.94557 11.0383 4.01301 11.1025 4.08045 11.1025C4.14789 11.1025 4.21533 11.0383 4.21533 10.9741C4.21533 10.9099 4.14789 10.8457 4.08045 10.8457C4.01301 10.8457 3.94557 10.8778 3.94557 10.9741Z" fill="black"/>
</g>
<g opacity="0.3">
<path d="M5.02443 11.9702C5.02443 12.0344 5.09187 12.0986 5.15931 12.0986C5.22675 12.0986 5.29419 12.0344 5.29419 11.9702C5.29419 11.906 5.22675 11.8418 5.15931 11.8418C5.09187 11.8418 5.02443 11.8739 5.02443 11.9702Z" fill="black"/>
</g>
<g opacity="0.3">
<path d="M4.21522 11.4224C4.21522 11.4866 4.28266 11.5508 4.3501 11.5508C4.41754 11.5508 4.48499 11.4866 4.48499 11.4224C4.48499 11.3582 4.41754 11.2939 4.3501 11.2939C4.28266 11.3261 4.21522 11.3582 4.21522 11.4224Z" fill="black"/>
</g>
<g opacity="0.3">
<path d="M5.73268 11.9702C5.73268 12.0344 5.80012 12.0986 5.86756 12.0986C5.935 12.0986 6.00244 12.0344 6.00244 11.9702C6.00244 11.906 5.935 11.8418 5.86756 11.8418C5.80012 11.8418 5.73268 11.8739 5.73268 11.9702Z" fill="black"/>
</g>
<g opacity="0.3">
<path d="M6.40699 12.2583C6.40699 12.3225 6.47444 12.3867 6.54188 12.3867C6.60932 12.3867 6.67676 12.3225 6.67676 12.2583C6.67676 12.1941 6.60932 12.1299 6.54188 12.1299C6.47444 12.1299 6.40699 12.1941 6.40699 12.2583Z" fill="black"/>
</g>
<g opacity="0.3">
<path d="M7.18251 12.2583C7.18251 12.3225 7.24995 12.3867 7.31739 12.3867C7.38483 12.3867 7.45227 12.3225 7.45227 12.2583C7.45227 12.1941 7.38483 12.1299 7.31739 12.1299C7.21623 12.1299 7.18251 12.1941 7.18251 12.2583Z" fill="black"/>
</g>
<g opacity="0.3">
<path d="M7.08131 11.7446C7.08131 11.8088 7.14875 11.8731 7.21619 11.8731C7.28363 11.8731 7.35107 11.8088 7.35107 11.7446C7.35107 11.6804 7.28363 11.6162 7.21619 11.6162C7.14875 11.6162 7.08131 11.6804 7.08131 11.7446Z" fill="black"/>
</g>
<g opacity="0.3">
<path d="M7.24977 13.1255C7.24977 13.1897 7.31721 13.2539 7.38465 13.2539C7.45209 13.2539 7.51953 13.1897 7.51953 13.1255C7.51953 13.0613 7.45209 12.9971 7.38465 12.9971C7.31721 12.9971 7.24977 13.0613 7.24977 13.1255Z" fill="black"/>
</g>
<g opacity="0.3">
<path d="M6.27199 12.8989C6.27199 12.9631 6.33943 13.0274 6.40687 13.0274C6.47431 13.0274 6.54175 12.9631 6.54175 12.8989C6.54175 12.8347 6.47431 12.7705 6.40687 12.7705C6.33943 12.7705 6.27199 12.8026 6.27199 12.8989Z" fill="black"/>
</g>
<g opacity="0.3">
<path d="M5.66517 12.4819C5.66517 12.5462 5.73261 12.6104 5.80005 12.6104C5.8675 12.6104 5.93494 12.5462 5.93494 12.4819C5.93494 12.4177 5.8675 12.3535 5.80005 12.3535C5.69889 12.3535 5.66517 12.4177 5.66517 12.4819Z" fill="black"/>
</g>
<g opacity="0.3">
<path d="M4.95692 12.6118C4.95692 12.676 5.02436 12.7402 5.0918 12.7402C5.15924 12.7402 5.22668 12.676 5.22668 12.6118C5.22668 12.5476 5.15924 12.4834 5.0918 12.4834C4.99064 12.4834 4.95692 12.5476 4.95692 12.6118Z" fill="black"/>
</g>
<g opacity="0.3">
<path d="M4.3838 12.1294C4.3838 12.1936 4.45124 12.2578 4.51868 12.2578C4.58612 12.2578 4.65356 12.1936 4.65356 12.1294C4.65356 12.0652 4.58612 12.001 4.51868 12.001C4.45124 12.001 4.3838 12.0652 4.3838 12.1294Z" fill="black"/>
</g>
<g opacity="0.3">
<path d="M4.2151 12.7075C4.2151 12.7717 4.28254 12.8359 4.34998 12.8359C4.41742 12.8359 4.48486 12.7717 4.48486 12.7075C4.48486 12.6433 4.41742 12.5791 4.34998 12.5791C4.28254 12.5791 4.2151 12.6112 4.2151 12.7075Z" fill="black"/>
</g>
<g opacity="0.3">
<path d="M4.61976 13.2534C4.61976 13.3176 4.68721 13.3818 4.75465 13.3818C4.82209 13.3818 4.88953 13.3176 4.88953 13.2534C4.88953 13.1892 4.82209 13.125 4.75465 13.125C4.68721 13.125 4.61976 13.1892 4.61976 13.2534Z" fill="black"/>
</g>
<g opacity="0.3">
<path d="M5.42909 13.0913C5.42909 13.1555 5.49653 13.2197 5.56397 13.2197C5.63141 13.2197 5.69885 13.1555 5.69885 13.0913C5.69885 13.0271 5.63141 12.9629 5.56397 12.9629C5.49653 12.995 5.42909 13.0271 5.42909 13.0913Z" fill="black"/>
</g>
<g opacity="0.3">
<path d="M6.13698 13.4771C6.13698 13.5413 6.20442 13.6055 6.27186 13.6055C6.3393 13.6055 6.40674 13.5413 6.40674 13.4771C6.40674 13.4128 6.3393 13.3486 6.27186 13.3486C6.20442 13.3807 6.13698 13.4128 6.13698 13.4771Z" fill="black"/>
</g>
<g opacity="0.3">
<path d="M6.91285 13.6079C6.91285 13.6721 6.98029 13.7363 7.04774 13.7363C7.11518 13.7363 7.18262 13.6721 7.18262 13.6079C7.18262 13.5437 7.11518 13.4795 7.04774 13.4795C6.98029 13.4795 6.91285 13.5437 6.91285 13.6079Z" fill="black"/>
</g>
<g opacity="0.3">
<path d="M7.24977 14.1519C7.24977 14.2161 7.31721 14.2803 7.38465 14.2803C7.45209 14.2803 7.51953 14.2161 7.51953 14.1519C7.51953 14.0876 7.45209 14.0234 7.38465 14.0234C7.31721 14.0234 7.24977 14.0876 7.24977 14.1519Z" fill="black"/>
</g>
<g opacity="0.3">
<path d="M6.64296 14.4409C6.64296 14.5051 6.7104 14.5693 6.77784 14.5693C6.84528 14.5693 6.91272 14.5051 6.91272 14.4409C6.91272 14.3767 6.84528 14.3125 6.77784 14.3125C6.7104 14.3125 6.64296 14.3767 6.64296 14.4409Z" fill="black"/>
</g>
<g opacity="0.3">
<path d="M6.03615 14.1841C6.03615 14.2483 6.10359 14.3125 6.17103 14.3125C6.23847 14.3125 6.30591 14.2483 6.30591 14.1841C6.30591 14.1199 6.23847 14.0557 6.17103 14.0557C6.10359 14.0557 6.03615 14.1199 6.03615 14.1841Z" fill="black"/>
</g>
<g opacity="0.3">
<path d="M5.29432 13.8306C5.29432 13.8948 5.36177 13.959 5.42921 13.959C5.49665 13.959 5.56409 13.8948 5.56409 13.8306C5.56409 13.7664 5.49665 13.7021 5.42921 13.7021C5.36177 13.7021 5.29432 13.7664 5.29432 13.8306Z" fill="black"/>
</g>
<g opacity="0.3">
<path d="M4.75453 14.1841C4.75453 14.2483 4.82197 14.3125 4.88941 14.3125C4.95685 14.3125 5.02429 14.2483 5.02429 14.1841C5.02429 14.1199 4.95685 14.0557 4.88941 14.0557C4.78825 14.0557 4.75453 14.1199 4.75453 14.1841Z" fill="black"/>
</g>
<g opacity="0.3">
<path d="M6.10328 14.9214C6.10328 14.9856 6.17072 15.0498 6.23817 15.0498C6.30561 15.0498 6.37305 14.9856 6.37305 14.9214C6.37305 14.8572 6.30561 14.793 6.23817 14.793C6.17072 14.793 6.10328 14.8572 6.10328 14.9214Z" fill="black"/>
</g>
<g opacity="0.3">
<path d="M5.42921 14.5366C5.42921 14.6008 5.49665 14.665 5.56409 14.665C5.63153 14.665 5.69897 14.6008 5.69897 14.5366C5.69897 14.4724 5.63153 14.4082 5.56409 14.4082C5.49665 14.4082 5.42921 14.4403 5.42921 14.5366Z" fill="black"/>
</g>
<g opacity="0.3">
<path d="M4.88942 15.5327C4.88942 15.5969 4.95686 15.6611 5.0243 15.6611C5.09174 15.6611 5.15918 15.5969 5.15918 15.5327C5.15918 15.4685 5.09174 15.4043 5.0243 15.4043C4.92314 15.4043 4.88942 15.4685 4.88942 15.5327Z" fill="black"/>
</g>
<g opacity="0.3">
<path d="M4.88942 14.8589C4.88942 14.9231 4.95686 14.9873 5.0243 14.9873C5.09174 14.9873 5.15918 14.9231 5.15918 14.8589C5.15918 14.7947 5.09174 14.7305 5.0243 14.7305C4.92314 14.7305 4.88942 14.7947 4.88942 14.8589Z" fill="black"/>
</g>
<g opacity="0.3">
<path d="M4.75453 16.4634C4.75453 16.5276 4.82197 16.5918 4.88941 16.5918C4.95685 16.5918 5.02429 16.5276 5.02429 16.4634C5.02429 16.3992 4.95685 16.335 4.88941 16.335C4.78825 16.335 4.75453 16.3992 4.75453 16.4634Z" fill="black"/>
</g>
<g opacity="0.3">
<path d="M5.53016 16.0142C5.53016 16.0784 5.59761 16.1426 5.66505 16.1426C5.73249 16.1426 5.79993 16.0784 5.79993 16.0142C5.79993 15.95 5.73249 15.8857 5.66505 15.8857C5.56389 15.8857 5.53016 15.95 5.53016 16.0142Z" fill="black"/>
</g>
<g opacity="0.3">
<path d="M6.8788 14.9878C6.8788 15.052 6.94624 15.1162 7.01368 15.1162C7.08112 15.1162 7.14856 15.052 7.14856 14.9878C7.14856 14.9236 7.08112 14.8594 7.01368 14.8594C6.91252 14.8594 6.8788 14.9236 6.8788 14.9878Z" fill="black"/>
</g>
<g opacity="0.3">
<path d="M7.55336 14.9878C7.55336 15.052 7.6208 15.1162 7.68824 15.1162C7.75568 15.1162 7.82312 15.052 7.82312 14.9878C7.82312 14.9236 7.75568 14.8594 7.68824 14.8594C7.6208 14.8594 7.55336 14.9236 7.55336 14.9878Z" fill="black"/>
</g>
<g opacity="0.3">
<path d="M5.53016 15.2437C5.53016 15.3079 5.59761 15.3721 5.66505 15.3721C5.73249 15.3721 5.79993 15.3079 5.79993 15.2437C5.79993 15.1794 5.73249 15.1152 5.66505 15.1152C5.56389 15.1152 5.53016 15.1473 5.53016 15.2437Z" fill="black"/>
</g>
<g opacity="0.3">
<path d="M6.30568 15.5327C6.30568 15.5969 6.37312 15.6611 6.44056 15.6611C6.508 15.6611 6.57544 15.5969 6.57544 15.5327C6.57544 15.4685 6.508 15.4043 6.44056 15.4043C6.37312 15.4043 6.30568 15.4685 6.30568 15.5327Z" fill="black"/>
</g>
<g opacity="0.3">
<path d="M6.64296 11.3267C6.64296 11.3909 6.7104 11.4551 6.77784 11.4551C6.84528 11.4551 6.91272 11.3909 6.91272 11.3267C6.91272 11.2625 6.84528 11.1982 6.77784 11.1982C6.7104 11.1982 6.64296 11.2303 6.64296 11.3267Z" fill="black"/>
</g>
<path d="M10.3859 12.994C10.3859 12.994 10.2848 13.7646 10.4534 13.9893H10.1836C10.1836 13.9893 10.3185 13.3793 10.251 12.9619L10.3859 12.994Z" fill="#E9686D"/>
<path d="M9.84648 14.0211C9.84648 14.0532 10.0488 14.1174 10.3186 14.1174C10.5546 14.1174 10.7906 14.0853 10.7906 14.0211C10.7906 13.989 10.5883 13.9248 10.3186 13.9248C10.0488 13.9248 9.84648 13.989 9.84648 14.0211Z" fill="#EF4D59"/>
<path d="M8.16043 13.5075C8.16043 13.5075 9.1046 13.4754 9.23948 13.3791C9.61041 13.1223 10.7906 13.058 10.7232 13.2507C10.6895 13.4112 9.44181 13.8928 9.2732 13.957C9.07088 14.0212 8.49764 14.1175 8.29532 14.1496C8.12671 14.1496 8.16043 13.5075 8.16043 13.5075Z" fill="#F4C6C1"/>
<path d="M4.41735 11.2902C4.18131 11.0654 3.57434 10.616 3.06854 11.226C2.56274 11.8039 4.28247 14.7897 5.3278 14.8539C6.40685 14.9181 9.27307 13.955 9.27307 13.955L8.69983 13.5376L5.8336 13.4413C5.86732 13.4413 5.22664 12.1249 4.41735 11.2902Z" fill="#F4C6C1"/>
<path d="M10.7568 11.7744C10.7568 11.7744 11.1277 13.0907 10.3522 13.1871C9.57659 13.2513 9.84636 11.7744 9.84636 11.7744H10.7568Z" fill="#E9686D"/>
<path d="M9.84636 11.775C9.84636 11.8392 10.0487 11.8713 10.3184 11.8713C10.5545 11.8713 10.7905 11.8392 10.7905 11.775C10.7905 11.7108 10.5882 11.6787 10.3184 11.6787C10.0487 11.6787 9.84636 11.7108 9.84636 11.775Z" fill="#EF4D59"/>
<path d="M10.6218 12.1924C10.6218 12.1924 10.8915 12.9629 10.3183 13.0271C9.74504 13.0592 9.94736 12.1924 9.94736 12.1924H10.6218Z" fill="#EF4D59"/>
<path d="M9.94754 12.1941C9.94754 12.2262 10.0824 12.2583 10.2847 12.2583C10.4533 12.2583 10.6219 12.2262 10.6219 12.1941C10.6219 12.162 10.4871 12.1299 10.2847 12.1299C10.1161 12.1299 9.94754 12.162 9.94754 12.1941Z" fill="#EF4D59"/>
<path d="M10.6894 12.5132C10.6521 12.5132 10.622 12.4844 10.622 12.449C10.622 12.4135 10.6521 12.3848 10.6894 12.3848C10.7266 12.3848 10.7568 12.4135 10.7568 12.449C10.7568 12.4844 10.7266 12.5132 10.6894 12.5132Z" fill="#FFA383"/>
<path d="M10.3857 12.6736C10.3857 12.7057 10.4195 12.7378 10.4532 12.7378C10.4869 12.7378 10.5206 12.7057 10.5206 12.6736C10.5206 12.6415 10.4869 12.6094 10.4532 12.6094C10.4195 12.6094 10.3857 12.6415 10.3857 12.6736Z" fill="#FFA383"/>
<path d="M10.1498 12.8671C10.1498 12.8992 10.1836 12.8992 10.1836 12.8992C10.2173 12.8992 10.2173 12.8671 10.2173 12.8671C10.2173 12.835 10.1836 12.835 10.1836 12.835L10.1498 12.8671Z" fill="#FFA383"/>
<path d="M9.91383 12.6091C9.91383 12.6412 9.94755 12.6733 9.98127 12.6733C10.015 12.6733 10.0487 12.6412 10.0487 12.6091C10.0487 12.577 10.015 12.5449 9.98127 12.5449C9.91383 12.5449 9.91383 12.577 9.91383 12.6091Z" fill="#FFA383"/>
<path d="M10.2173 12.5134C10.2173 12.5455 10.251 12.5776 10.2847 12.5776C10.3185 12.5776 10.3522 12.5455 10.3522 12.5134C10.3522 12.4813 10.3185 12.4492 10.2847 12.4492C10.2173 12.4492 10.2173 12.4813 10.2173 12.5134Z" fill="#FFA383"/>
<path d="M0.270187 10.0098C0.270187 10.0098 0.573669 16.8162 6.20496 18.903L0.270187 10.0098Z" fill="#EBAB33"/>
<path d="M9.44165 23.7523H8.96957L-2.86102e-05 9.72205L0.269735 9.56152L9.44165 23.7523Z" fill="#F9E2C4"/>
<path d="M2.39409 13.542H2.76501V23.7195H2.39409V13.542Z" fill="#F9E2C4"/>
<path d="M5.77874 18.4667L5.95715 18.7764L2.64614 20.506L2.46773 20.1963L5.77874 18.4667Z" fill="#F9E2C4"/>
<path d="M18.8835 6.70475C18.9172 6.67264 18.9172 6.70475 18.8835 6.70475C18.9172 6.67264 18.9509 6.64054 18.9172 6.64054C18.9172 6.60843 17.5347 4.93893 14.8033 6.28737C14.6347 6.03053 13.3871 4.42524 10.5883 5.2921C10.3522 5.00314 8.43018 2.56311 5.36163 4.1684C5.22675 3.84734 4.35002 2.04942 1.9896 2.62732C1.95588 2.62732 1.95588 2.65943 1.95588 2.69153C1.95588 2.72364 1.9896 2.72364 2.02332 2.72364C4.51862 2.11363 5.29419 4.1684 5.29419 4.23261C5.29419 4.23261 5.29419 4.26471 5.32791 4.26471H5.36163C8.56506 2.56311 10.5208 5.3242 10.5546 5.35631C10.5546 5.38841 10.5883 5.38841 10.622 5.38841C13.5894 4.45735 14.7696 6.35158 14.7696 6.38369C14.7696 6.4158 14.8033 6.4158 14.837 6.4158C17.5009 5.06736 18.8497 6.70475 18.8497 6.70475C18.8835 6.67264 18.8835 6.70475 18.8835 6.70475Z" fill="white"/>
<path d="M6.98018 13.0581C7.0139 13.0581 7.0139 13.0581 7.0139 13.026C7.24994 12.127 6.40694 11.2281 6.37322 11.196C6.3395 11.1638 6.3395 11.1638 6.30578 11.196C6.27206 11.2281 6.27206 11.2281 6.30578 11.2602C6.30578 11.2602 7.14878 12.1591 6.91274 12.9939C6.94646 13.026 6.94646 13.0581 6.98018 13.0581Z" fill="white"/>
<path d="M3.84414 10.7471C4.55226 9.88028 3.97902 8.94922 3.97902 8.94922C3.97902 8.94922 5.29411 9.07764 5.29411 9.20606C5.15923 10.2334 6.17084 10.6508 6.40688 10.9719C6.81152 11.5819 4.72087 10.8435 4.18134 10.715C4.01274 10.715 3.84414 10.7471 3.84414 10.7471Z" fill="#EABDB8"/>
<path d="M5.36176 9.84975L5.4292 10.0103C5.4292 10.0103 4.58619 9.91396 4.18155 9.36816L5.36176 9.84975Z" fill="#E29B96"/>
<path d="M5.49661 7.34436C5.49661 7.34436 7.38494 9.94493 6.03613 10.2339C4.88964 10.4907 5.02452 7.5691 5.02452 7.5691V7.24805L5.49661 7.34436Z" fill="#A76745"/>
<path d="M4.822 7.18501C5.32781 7.47396 6.6429 8.85451 6.00221 9.68926C5.73245 10.0424 4.68712 9.84979 4.01271 9.20767C3.74295 8.95083 3.57435 8.30871 3.74295 7.6666C3.77667 7.37765 4.24876 6.86396 4.822 7.18501Z" fill="#F4C6C1"/>
<path d="M4.75464 7.05576C4.75464 7.05576 3.54071 6.7347 3.06862 7.8263C2.59654 8.91789 2.79886 10.3626 3.77675 10.3626C3.87791 10.3626 3.97907 10.3305 4.04651 10.2984C4.11395 10.2663 4.14767 10.17 4.18139 10.0737C4.21511 9.97738 4.21511 9.91317 4.24883 9.81685C4.28255 9.46369 4.14767 9.11053 4.14767 8.75736C4.14767 8.72526 4.18139 8.69315 4.18139 8.66105C4.18139 8.62894 4.18139 8.59683 4.18139 8.56473C4.18139 8.50052 4.18139 8.43631 4.18139 8.33999C4.18139 8.21157 4.21511 8.05104 4.21511 7.92261C4.24883 7.69787 4.34999 7.50524 4.45116 7.31261C4.48488 7.24839 4.55232 7.18418 4.61976 7.11997C4.61976 7.11997 4.72092 7.05576 4.75464 7.05576Z" fill="#A76745"/>
<path d="M4.92336 7.34343C4.92336 7.34343 4.95708 8.8203 3.87803 8.98083C3.87803 8.98083 3.43967 7.98555 4.28268 7.18291C4.28268 7.18291 5.46289 6.54079 6.03613 8.21029C6.03613 8.21029 5.32801 8.24239 4.92336 7.34343Z" fill="#A76745"/>
<path d="M4.75452 7.05664C4.75452 7.05664 3.60803 7.53823 3.84407 8.69403L3.43942 8.62982C3.4057 8.66193 3.30454 7.12085 4.75452 7.05664Z" fill="#EF4D59"/>
<path d="M4.38383 9.016C4.38383 9.016 4.04663 8.72705 3.84431 8.82337C3.64199 8.91968 3.91175 9.40127 4.31639 9.33706C4.72104 9.24074 4.48499 9.08021 4.38383 9.016Z" fill="#F4C6C1"/>
</svg>
