<svg width="24" height="18" viewBox="0 0 24 18" fill="none" xmlns="http://www.w3.org/2000/svg">
<g clip-path="url(#clip0_615_755)">
<path d="M23.7626 14.2129C21.5664 11.9839 18.4996 9.65899 12.3858 9.49121C12.1088 9.49121 11.8318 9.51518 11.5548 9.53915C8.09236 9.8028 6.54908 11.8401 5.75765 12.8228C5.73786 12.8467 5.71808 12.8947 5.71808 12.9426L6.07422 12.9905C6.82608 12.2715 8.62657 10.5218 11.5153 10.402C11.7725 10.402 12.0099 10.378 12.2671 10.402C16.1055 10.4499 18.9547 11.6244 21.6257 13.0624L23.7428 14.7642L24 14.5485C23.9802 14.4286 23.9407 14.3807 23.7626 14.2129Z" fill="#E0D3D1"/>
<path d="M23.4856 14.3567C20.7749 11.4805 17.3322 9.73086 12.1484 9.77879C11.8714 9.77879 11.5944 9.80276 11.3372 9.80276C7.95384 10.0185 6.45013 12.0078 5.67849 12.9665C5.6587 12.9905 5.63892 13.0384 5.63892 13.0864L6.52927 13.1104C7.28113 12.4153 8.52762 10.4739 11.3768 10.354C11.634 10.354 12.188 10.1862 12.4452 10.1862C18.2028 10.4499 20.953 12.8946 22.892 14.6683L23.7626 14.7402C23.723 14.6443 23.6043 14.4286 23.4856 14.3567Z" fill="#C6BAB9"/>
<path d="M20.0824 16.3943L22.4171 13.4222C22.4171 13.4222 20.3792 10.9775 15.2547 10.0667C15.2547 10.0667 11.8912 9.15593 8.09232 10.3543L7.43939 13.614C7.43939 13.614 12.3067 12.4635 13.7312 12.6553C15.1954 12.847 20.0824 16.3943 20.0824 16.3943Z" fill="#5E2014"/>
<path d="M8.29022 12.6551C8.17151 12.727 7.32072 12.5592 7.51858 12.9427L0.296815 3.69107C0.237458 3.5952 0.395743 3.30758 0.573814 3.28362L5.63894 2.70838C5.75766 2.68442 5.87637 2.73235 5.91594 2.80426L12.5046 10.0666C12.5441 10.1385 11.0009 10.8575 10.9217 10.9055L8.29022 12.6551Z" fill="#5E2014"/>
<path d="M0.474856 3.28369L7.75598 12.823L7.26134 13.2065L0 3.73908L0.474856 3.28369Z" fill="#C6BAB9"/>
<path d="M21.4873 17.3288C19.1526 14.932 15.3933 12.3195 11.2383 12.1996C10.9613 12.1996 10.5458 12.1517 10.249 12.1757C6.54911 12.3914 5.06518 13.7575 3.6604 15.5791C3.60104 15.651 3.44276 15.8428 3.42297 15.9626L4.0759 15.9147C6.15339 13.6617 7.67689 13.446 10.9613 13.2063C11.2185 13.1823 11.4955 13.1823 11.7527 13.1823C15.3933 13.2303 18.3216 15.4832 20.6365 17.5445L21.4477 17.952L21.6653 17.6883C21.6456 17.5685 21.5862 17.4247 21.4873 17.3288Z" fill="#E0D3D1"/>
<path d="M21.2498 17.6166C18.9547 15.2438 15.6307 12.4395 10.9019 12.4155C10.6249 12.4155 10.3281 12.4155 10.0511 12.4395C6.48972 12.775 4.82773 13.9015 3.3438 16.0107C3.28444 16.0826 3.26466 16.1785 3.24487 16.2984L3.93737 16.3463C5.34215 14.9322 6.76672 13.5181 10.0116 13.3023C10.2688 13.2784 10.5458 13.2784 10.803 13.2784C15.6505 13.4222 18.3215 15.9388 20.5969 18.0001L21.4477 17.9761C21.4081 17.8563 21.3487 17.7125 21.2498 17.6166Z" fill="#C6BAB9"/>
<path d="M11.7329 8.34131C12.5837 8.41321 14.7205 8.67686 15.3339 8.82067C15.3339 8.82067 15.69 8.89257 16.0066 9.25209C16.1847 9.46781 18.559 10.8819 19.2317 10.8819C20.1616 10.8819 20.498 10.7141 20.775 10.4984C21.1905 10.2588 21.2498 10.5703 20.9135 11.2175C20.7552 11.553 20.3001 11.577 20.1418 12.1762C19.9637 12.8233 19.4889 12.6316 19.2317 12.296C18.9942 11.9365 19.0932 12.0084 18.5985 11.9845C18.0841 11.9605 16.3034 12.0564 15.3735 10.81C14.7997 10.067 13.9489 11.3373 11.5351 10.9538C10.2688 10.7381 11.7329 8.34131 11.7329 8.34131Z" fill="#D6A092"/>
<path d="M10.2094 7.47803L11.2778 8.05326C11.2778 8.05326 13.3751 8.36484 13.9884 8.62849C13.7312 8.65246 13.4345 8.7723 13.1377 9.61118C12.2275 9.46737 12.3462 9.51531 10.8821 9.32357L8.72546 8.60453L10.2094 7.47803Z" fill="#76D8FF"/>
<path d="M10.4271 8.9165C11.357 9.06031 13.2564 9.22809 13.9489 9.46777C13.9489 9.46777 14.5425 9.41983 14.9184 10.043C15.0767 10.3306 18.1039 11.9365 18.8557 12.0084C19.8846 12.0563 20.0429 12.0323 20.3595 11.7927C20.8343 11.577 20.6167 12.4638 20.1616 12.9911C19.9044 13.2787 19.4691 12.9911 19.1723 13.3027C18.6777 13.782 18.4798 13.782 18.2622 13.3506C18.1632 13.1588 17.9852 13.0869 17.9258 13.063C17.4114 12.7754 15.0965 13.2547 14.1468 11.7687C13.573 10.8819 12.1088 12.272 9.45756 11.6249C7.99342 11.3133 10.4271 8.9165 10.4271 8.9165Z" fill="#EAC4B2"/>
<path d="M7.43941 9.18016C7.34048 10.019 7.89448 11.8886 9.3784 11.8406L12.1286 11.9605C12.1286 11.9605 12.4254 9.46778 13.4938 9.27603C12.5639 9.01239 10.7634 8.67683 10.7634 8.67683L9.55647 7.52637L7.43941 9.18016Z" fill="#58B4ED"/>
<path d="M6.54901 1.89376C6.27201 1.84582 6.17308 1.58217 5.93566 1.67805C5.81694 1.72598 5.55973 2.0855 5.53994 2.18137C5.52016 2.27725 5.3223 2.63677 5.34209 2.87645C5.36187 3.11613 5.50037 3.33184 5.77737 3.11613C6.05437 2.90042 6.17308 2.46899 6.48965 2.63677C6.68751 2.78058 6.54901 1.89376 6.54901 1.89376Z" fill="#EAC4B2"/>
<path d="M9.06179 3.1639C9.04201 2.97216 9.02222 2.78041 8.42865 2.4928C7.85487 2.20518 7.32066 2.10931 6.37095 1.86963C6.23245 2.32502 6.27202 2.51677 6.27202 2.51677C6.27202 2.51677 6.90516 3.11597 7.69658 3.66723C8.5078 4.26643 9.06179 3.1639 9.06179 3.1639Z" fill="#EAC4B2"/>
<path d="M5.67843 2.68458C5.83671 2.54077 5.91586 2.27712 6.15328 2.18125C6.25221 2.15728 6.60835 2.34903 6.78642 2.46887C6.98428 2.56474 8.13185 3.18791 8.13185 3.18791L7.59764 3.6433C7.59764 3.6433 6.43028 2.66061 6.272 2.66061C6.1335 2.66061 5.73779 3.33171 5.5795 3.28378C5.46079 3.21187 5.67843 2.68458 5.67843 2.68458Z" fill="#D6A092"/>
<path d="M5.2036 3.06778C5.12446 3.04381 5.02553 2.73223 5.00574 2.63635C4.98596 2.54048 5.22338 2.32477 5.32231 2.27683C5.42124 2.2289 5.55974 2.10906 5.52017 2.27683C5.4806 2.44461 5.24317 2.63635 5.24317 2.63635L5.2036 3.06778Z" fill="#EAC4B2"/>
<path d="M5.08486 2.51654C5.04529 2.42066 5.06508 2.27686 5.10465 2.22892C5.14422 2.18098 5.50036 1.91733 5.55972 1.96527C5.61908 2.01321 5.67843 2.03717 5.5795 2.13305C5.46079 2.20495 5.08486 2.51654 5.08486 2.51654Z" fill="#EAC4B2"/>
<path d="M5.18379 2.13339C5.164 2.08546 5.14422 1.98959 5.20357 1.94165C5.26293 1.86975 5.61907 1.77387 5.61907 1.84578C5.61907 1.89371 5.52014 1.98959 5.52014 1.98959L5.18379 2.13339Z" fill="#EAC4B2"/>
<path d="M5.26294 1.94146C5.28273 1.82162 5.34208 1.72575 5.42122 1.70178C5.50037 1.67781 5.63887 1.67781 5.61908 1.72575C5.63887 1.79765 5.26294 1.94146 5.26294 1.94146Z" fill="#EAC4B2"/>
<path d="M5.73782 2.85209C5.34211 2.75622 5.06511 2.90002 5.12447 2.73225C5.16404 2.56447 5.44104 2.51654 5.63889 2.4686C5.83675 2.44463 6.11375 2.27686 6.11375 2.27686L5.73782 2.85209Z" fill="#D6A092"/>
<path d="M3.6999 1.89357C3.58119 1.65389 3.38333 1.05469 3.22505 1.39024C3.06676 1.7258 2.90848 1.96548 2.82934 2.80436C2.82934 2.87626 2.80955 2.94817 2.75019 3.02007C1.97855 4.33831 0.890341 5.03339 0.870555 6.47147C0.870555 6.47147 0.791413 7.0467 1.04863 7.28638C1.30584 7.52606 2.15662 7.35829 2.41384 6.49544C3.00741 4.50609 3.46248 3.66721 3.46248 3.66721C3.46248 3.66721 3.93733 3.33166 3.91755 3.33166C4.03626 3.23578 4.1154 3.11594 4.13519 3.04404C4.2539 2.68452 3.81862 2.13325 3.6999 1.89357Z" fill="#EAC4B2"/>
<path d="M3.69992 3.35569C3.73949 3.45156 4.01649 2.92426 4.09563 2.80442C4.17477 2.66061 4.15499 2.46887 4.07584 2.30109C4.01649 2.18125 3.89777 2.03744 3.8582 1.8457C3.83842 1.70189 3.64056 1.82173 3.73949 2.08538C3.79884 2.27712 3.83842 2.51681 3.83842 2.51681L3.60099 2.68458C3.5812 2.68458 3.64056 3.16394 3.69992 3.35569Z" fill="#EAC4B2"/>
<path d="M8.23082 5.08166C8.76503 4.48245 9.18053 3.18818 9.04203 3.04437C8.90353 2.90056 8.19125 2.92453 8.09232 3.06834C7.47896 3.83532 7.20197 3.6196 7.20197 3.6196L8.23082 5.08166Z" fill="#EAC4B2"/>
<path d="M9.67521 6.68728C9.29928 6.23188 9.141 5.72855 8.60679 5.24919L8.56721 5.03348C8.56721 5.03348 8.11214 3.5954 7.16243 3.6673C6.98436 3.6673 6.82608 3.83508 6.05444 3.78714C6.07422 3.83508 5.79722 3.47556 5.71808 3.16397C5.73787 3.11604 5.73787 3.0681 5.75765 3.02017C5.77744 2.97223 5.75765 2.92429 5.69829 2.90032C5.71808 2.80445 5.73787 2.73255 5.52022 2.66064H5.0058L5.06515 2.82842C4.47158 2.85239 3.71973 2.94826 3.71973 2.94826C3.91759 3.18794 4.43201 3.52349 4.4518 4.21857C4.33308 4.43428 3.73951 4.67396 3.66037 4.7219C3.56144 4.7219 3.14594 4.8657 2.96787 5.15332C2.6513 5.63268 1.99838 5.96823 1.99838 5.96823L1.00909 7.26251C1.40481 7.69393 2.98766 7.26251 4.13523 7.0468C4.19458 7.26251 5.85658 7.66997 6.43036 8.43694C7.00415 9.20392 7.26136 9.65931 7.49879 9.94693C7.51858 9.58741 7.59772 9.32376 8.64636 8.55678C9.20036 8.14933 10.1896 7.52616 10.1896 7.52616C10.1896 7.52616 9.93243 6.99886 9.67521 6.68728Z" fill="#EAC4B2"/>
<path d="M6.19293 8.58067C6.86564 9.20384 7.3405 9.6832 7.57793 9.97082C7.59771 9.65923 7.6175 9.41955 8.32978 8.82035C8.11214 8.58067 7.87471 8.36496 7.73621 8.22115C7.32071 7.78972 6.66779 6.6872 6.31165 6.49545C5.87636 6.54339 4.92665 6.32767 4.43201 5.75244L3.83844 7.09465C3.95715 7.07068 4.07587 7.04672 4.1748 7.02275C4.25394 7.23846 5.46086 7.90956 6.19293 8.58067Z" fill="#D6A092"/>
<path d="M7.00414 6.15989C7.26136 5.87228 7.43943 5.60863 7.79557 5.58466C8.42871 5.51276 8.60678 5.24911 8.60678 5.24911V5.20117C8.60678 5.20117 8.1715 5.39292 7.73621 5.46482C7.18221 5.53672 6.68757 6.35164 6.31165 6.51941C6.62822 6.56735 7.00414 6.15989 7.00414 6.15989Z" fill="#D6A092"/>
<path d="M6.23248 5.72828C6.23248 5.80019 6.17313 5.87209 6.11377 5.87209C6.05441 5.87209 5.99506 5.80019 5.99506 5.72828C5.99506 5.65638 6.05441 5.58447 6.11377 5.58447C6.17313 5.58447 6.23248 5.65638 6.23248 5.72828Z" fill="#D6A092"/>
<path d="M8.13188 4.84152C8.13188 4.91342 8.09231 4.96136 8.03295 4.96136C7.97359 4.96136 7.93402 4.91342 7.93402 4.84152C7.93402 4.76962 7.97359 4.72168 8.03295 4.72168C8.09231 4.72168 8.13188 4.79358 8.13188 4.84152Z" fill="#D6A092"/>
<path d="M5.81699 3.21191L4.37264 7.21458L3.14593 7.19061C3.14593 7.19061 2.57214 5.63269 2.75022 5.44094C2.92829 5.2492 3.16571 4.88968 3.601 4.7219C4.03628 4.55412 4.59028 4.41032 4.49135 4.02683C4.41221 3.73921 4.155 3.30779 4.155 3.30779C4.155 3.30779 5.18385 3.61937 5.34214 3.5235C5.48064 3.47556 5.81699 3.21191 5.81699 3.21191Z" fill="#D6A092" fill-opacity="0.58"/>
<path d="M2.73042 3.02003C1.95878 4.33827 0.870566 5.03335 0.85078 6.47143C0.85078 6.47143 0.771637 7.04666 1.02885 7.28634C1.08821 7.33428 1.16735 7.38221 1.28606 7.38221C1.87963 7.57396 3.18549 7.21444 4.19456 7.02269C4.19456 7.04666 4.21434 7.04666 4.23413 7.07063C4.23413 7.07063 4.23413 7.04666 4.25391 7.04666C4.39241 6.51936 4.43198 5.87223 4.43198 5.87223C3.60099 6.97476 1.66199 6.99872 1.32564 6.80698C0.989279 6.6392 1.78071 4.81763 2.59192 3.90685C3.28442 3.13987 3.42291 2.90019 3.4427 2.68448C3.46249 2.56464 3.20527 2.01337 3.10634 1.62988C3.00742 1.86956 2.8887 2.15718 2.82935 2.78035C2.80956 2.90019 2.78977 2.97209 2.73042 3.02003Z" fill="#D6A092"/>
<path d="M5.8368 1.72609C5.87637 1.63022 5.89615 1.51038 5.8368 1.43847C5.79722 1.4145 5.73787 1.39054 5.63894 1.36657C5.61915 1.31863 5.57958 1.2707 5.54001 1.19879C5.02558 0.359911 4.80794 0.0483265 3.99673 0.575623C3.24487 1.05498 3.2053 2.20545 3.71973 3.04433C4.21437 3.88321 5.5598 3.49972 5.91594 3.18814C6.21272 2.92449 6.13358 2.37323 5.8368 1.72609Z" fill="#EAC4B2"/>
<path d="M3.77912 3.21175C4.23419 3.97872 5.4609 3.69111 5.93575 3.16381C5.28283 3.18778 4.3529 2.99603 3.6604 0.814941C3.6604 0.814941 3.6604 1.19843 3.44276 1.46208C3.40319 1.84557 3.5219 2.78032 3.77912 3.21175Z" fill="#D6A092"/>
<path d="M4.74859 0.12004C5.12451 0.359721 5.30258 0.767178 5.1443 0.599401C4.80794 0.239881 4.25394 0.455593 4.21437 0.671305C4.15502 0.86305 3.99673 1.05479 3.95716 1.1986C3.91759 1.34241 3.81866 0.815114 3.81866 0.815114L3.87802 1.24654L3.71973 2.10939L3.97694 2.94827L4.43201 3.85906C4.43201 3.85906 3.91759 3.9789 3.22509 3.28382C3.04702 3.09208 2.88873 2.68462 2.77002 2.46891C2.65131 2.20526 2.59195 1.7259 2.69088 1.55812C2.78981 1.39035 2.84916 1.29447 2.9283 1.24654C3.02723 1.22257 2.90852 1.05479 3.04702 0.815114C3.18552 0.575433 3.22509 0.503529 3.58123 0.263849C4.33309 -0.215512 4.74859 0.12004 4.74859 0.12004Z" fill="#300901"/>
<path d="M3.77911 2.0376C3.60103 2.0376 3.40318 2.30125 3.66039 2.68473C3.91761 3.06822 4.09568 3.02029 4.15503 2.87648C4.25396 2.7087 3.77911 2.0376 3.77911 2.0376Z" fill="#D6A092"/>
</g>
<defs>
<clipPath id="clip0_615_755">
<rect width="24" height="18" fill="white"/>
</clipPath>
</defs>
</svg>
