<svg width="14" height="18" viewBox="0 0 14 18" fill="none" xmlns="http://www.w3.org/2000/svg">
<path d="M7.82334 4.15203C7.82334 4.40063 8.02922 4.62438 8.31231 4.62438C8.56965 4.62438 8.80127 4.42549 8.80127 4.15203C8.80127 3.90343 8.59539 3.67969 8.31231 3.67969C8.02922 3.67969 7.82334 3.90343 7.82334 4.15203Z" fill="#4799AF"/>
<path d="M8.28628 3.7793C8.49216 3.7793 8.6723 3.95332 8.6723 4.1522H8.51789C8.51789 4.0279 8.41495 3.92846 8.28628 3.92846C8.1576 3.92846 8.05466 4.0279 8.05466 4.1522H7.92599C7.92599 3.95332 8.0804 3.7793 8.28628 3.7793Z" fill="#4799AF"/>
<path d="M8.28628 4.37511C8.41495 4.37511 8.51789 4.27567 8.51789 4.15137H8.6723C8.6723 4.35025 8.49216 4.52427 8.28628 4.52427C8.0804 4.52427 7.90025 4.35025 7.90025 4.15137H8.05466C8.05466 4.27567 8.1576 4.37511 8.28628 4.37511Z" fill="#4799AF"/>
<path d="M5.17261 4.15203C5.17261 4.40063 4.96673 4.62438 4.68364 4.62438C4.42629 4.62438 4.19468 4.42549 4.19468 4.15203C4.19468 3.90343 4.40056 3.67969 4.68364 3.67969C4.96673 3.67969 5.17261 3.90343 5.17261 4.15203Z" fill="#4799AF"/>
<path d="M4.71029 3.7793C4.50441 3.7793 4.32426 3.95332 4.32426 4.1522H4.47867C4.47867 4.0279 4.58161 3.92846 4.71029 3.92846C4.83896 3.92846 4.9419 4.0279 4.9419 4.1522H5.09631C5.07058 3.95332 4.91617 3.7793 4.71029 3.7793Z" fill="#4799AF"/>
<path d="M6.48549 0C8.46709 0 8.51855 3.95278 8.51855 4.40026H8.05533C8.05533 3.30641 7.77224 0.447484 6.48549 0.447484C5.19875 0.447484 4.91566 3.30641 4.91566 4.40026H4.45243C4.45243 3.95278 4.52964 0 6.48549 0Z" fill="#D23733"/>
<path d="M4.71029 4.37511C4.58161 4.37511 4.47867 4.27567 4.47867 4.15137H4.32426C4.32426 4.35025 4.50441 4.52427 4.71029 4.52427C4.91617 4.52427 5.09631 4.35025 5.09631 4.15137H4.9419C4.9419 4.27567 4.83896 4.37511 4.71029 4.37511Z" fill="#4799AF"/>
<path d="M3.37146 3.25781H14V17.9999H3.37146V3.25781Z" fill="#F2C537"/>
<path d="M2.00763 3.25488H4.01495V17.997H2.00763V3.25488Z" fill="#DCAB14"/>
<path d="M0.000180244 3.25488H2.00751V17.997H0.000180244V3.25488Z" fill="#EEBF1B"/>
<path d="M9.9857 4.25164C9.9857 4.50024 10.1916 4.72399 10.4747 4.72399C10.732 4.72399 10.9636 4.5251 10.9636 4.25164C10.9636 4.00304 10.7577 3.7793 10.4747 3.7793C10.2173 3.80416 9.9857 4.00304 9.9857 4.25164Z" fill="#D23733"/>
<path d="M10.4747 3.9043C10.6806 3.9043 10.8607 4.07832 10.8607 4.2772H10.7063C10.7063 4.1529 10.6034 4.05346 10.4747 4.05346C10.346 4.05346 10.2431 4.1529 10.2431 4.2772H10.0887C10.0887 4.05346 10.2688 3.9043 10.4747 3.9043Z" fill="#D23733"/>
<path d="M10.2428 4.52526H10.706C10.706 4.07778 10.6545 0.125 8.67293 0.125V0.572484C9.95968 0.547624 10.2428 3.40655 10.2428 4.52526Z" fill="#E7473D"/>
<path d="M10.4747 4.50109C10.6034 4.50109 10.7063 4.40164 10.7063 4.27734H10.8607C10.8607 4.47623 10.6806 4.65025 10.4747 4.65025C10.2688 4.65025 10.0887 4.47623 10.0887 4.27734H10.2431C10.2431 4.37678 10.346 4.50109 10.4747 4.50109Z" fill="#D23733"/>
<path d="M7.36047 4.25164C7.36047 4.50024 7.15459 4.72399 6.87151 4.72399C6.61416 4.72399 6.38254 4.5251 6.38254 4.25164C6.38254 4.00304 6.58842 3.7793 6.87151 3.7793C7.15459 3.80416 7.36047 4.00304 7.36047 4.25164Z" fill="#D23733"/>
<path d="M6.87106 3.9043C6.66518 3.9043 6.48503 4.07832 6.48503 4.2772H6.63944C6.63944 4.1529 6.74238 4.05346 6.87106 4.05346C6.99973 4.05346 7.10267 4.1529 7.10267 4.2772H7.25708C7.25708 4.05346 7.07694 3.9043 6.87106 3.9043Z" fill="#D23733"/>
<path d="M7.1032 4.52526H6.63997C6.63997 4.07778 6.69144 0.125 8.67303 0.125V0.572484C7.38629 0.547624 7.1032 3.40655 7.1032 4.52526Z" fill="#E7473D"/>
<path d="M6.87106 4.50109C6.74238 4.50109 6.63944 4.40164 6.63944 4.27734H6.48503C6.48503 4.47623 6.66518 4.65025 6.87106 4.65025C7.07694 4.65025 7.25708 4.47623 7.25708 4.27734H7.10267C7.10267 4.37678 6.99973 4.50109 6.87106 4.50109Z" fill="#D23733"/>
<path d="M4.01508 17.9738L2.00775 15.7861L0.000421524 17.9738H4.01508Z" fill="#F2C537"/>
</svg>
