<svg width="17" height="22" viewBox="0 0 17 22" fill="none" xmlns="http://www.w3.org/2000/svg">
<path d="M1.83376 16.0689C1.41729 16.0689 1.31769 16.0204 1.28148 15.972C0.78352 15.4071 0.176916 11.1457 0.357991 10.1934C0.59339 8.99082 0.928381 8.26445 1.00081 8.12725C0.846896 7.95776 -0.19429 6.82786 0.0320547 6.41625C0.33083 5.86744 2.05105 4.54383 2.2955 4.35821L1.58931 3.0911L1.60742 3.07496C2.45847 1.86434 7.58292 0 10.0274 0C10.3443 0 10.6159 0.032283 10.8332 0.0887783C12.8341 0.637589 14.7445 2.4293 15.0161 3.0346C15.2605 3.57534 14.8893 4.09187 14.8078 4.19679C14.9708 4.4712 16.51 7.10226 16.8721 8.39358C17.2433 9.74947 16.691 13.7606 16.6639 13.9301V13.9624L16.6277 13.9705C16.4919 13.9947 4.51368 16.0689 1.83376 16.0689ZM1.6889 3.10724L2.40415 4.39049L2.37699 4.4147C2.35888 4.42277 0.412314 5.89972 0.113539 6.46467C-0.0584831 6.77943 0.765412 7.75599 1.09135 8.10303L1.10946 8.11918L1.1004 8.14339C1.1004 8.15146 0.711089 8.8859 0.457583 10.2095C0.276507 11.1457 0.874058 15.3667 1.36296 15.9236C1.38107 15.9397 1.46255 15.9882 1.84281 15.9882C4.44125 15.9882 15.8671 14.0189 16.5643 13.8978C16.6186 13.5266 17.1256 9.70104 16.7725 8.42586C16.4013 7.08612 14.7264 4.25329 14.7083 4.22907L14.6901 4.20486L14.7083 4.18065C14.7173 4.17258 15.17 3.63184 14.9255 3.07496C14.6539 2.47772 12.7707 0.710226 10.797 0.177557C10.5888 0.121061 10.3262 0.0887783 10.0184 0.0887783C7.60103 0.0887783 2.56712 1.91277 1.6889 3.10724Z" fill="#E2C9AF"/>
<path d="M5.14761 19.1759C5.14761 19.1759 4.14264 18.8289 3.65374 18.4576C2.81173 17.812 1.8973 16.7466 1.40839 16.1897C0.91949 15.6409 0.213294 11.1778 0.403423 10.2093C0.665983 8.86149 1.04624 8.12705 1.04624 8.12705C1.04624 8.12705 -0.157912 6.85994 0.068433 6.44834C0.385316 5.86724 2.34094 4.38222 2.34094 4.38222L1.63474 3.10704C2.56728 1.79151 8.78724 -0.419875 10.8062 0.137007C12.8343 0.693889 14.6994 2.47753 14.9619 3.05862C15.2245 3.64778 14.7356 4.20467 14.7356 4.20467C14.7356 4.20467 16.4286 7.04557 16.8089 8.40953C17.1892 9.77349 16.6369 13.9864 16.6369 13.9864C16.6369 13.9864 16.0122 15.8346 15.4327 16.7466C14.8533 17.6586 13.2598 18.8692 13.2598 18.8692L5.14761 19.1759Z" fill="#F4E5D4"/>
<path d="M5.14761 19.1759C5.14761 19.1759 4.14264 18.8289 3.65374 18.4576C2.81173 17.812 1.8973 16.7466 1.40839 16.1897C0.91949 15.6409 0.213294 11.1778 0.403423 10.2093C0.665983 8.86149 1.04624 8.12705 1.04624 8.12705C1.04624 8.12705 -0.157912 6.85994 0.068433 6.44834C0.385316 5.86724 2.34094 4.38222 2.34094 4.38222L1.63474 3.10704C2.56728 1.79151 8.78724 -0.419875 10.8062 0.137007C12.8343 0.693889 14.6994 2.47753 14.9619 3.05862C15.2245 3.64778 14.7356 4.20467 14.7356 4.20467C14.7356 4.20467 16.4286 7.04557 16.8089 8.40953C17.1892 9.77349 16.6369 13.9864 16.6369 13.9864C16.6369 13.9864 16.0122 15.8346 15.4327 16.7466C14.8533 17.6586 13.2055 18.8692 13.2055 18.8692L5.14761 19.1759Z" fill="#F4E5D4"/>
<path opacity="0.7" d="M16.7364 13.1074C16.6821 13.6401 16.6368 13.9871 16.6368 13.9871C16.6368 13.9871 16.0121 15.8353 15.4327 16.7473C14.8532 17.6593 13.0787 18.9506 13.0787 18.9506L5.13852 19.1686C5.13852 19.1686 4.13355 18.8215 3.64464 18.4503C2.80264 17.8046 1.88821 16.7393 1.3993 16.1824C1.2635 16.029 1.10958 15.569 0.964722 14.9637L16.7364 13.1074Z" fill="#AFA09A"/>
<path d="M2.92004 16.7949C3.40895 17.7876 5.52754 19.5551 3.74394 17.0451C3.57192 16.8191 3.20071 16.9321 2.92004 16.7949Z" fill="#845B41"/>
<path d="M14.7355 16.7933C14.5816 17.3906 14.0565 18.2622 13.3593 18.3833C13.8573 16.9305 14.8894 16.5431 14.7355 16.7933Z" fill="#845B41"/>
<path d="M3.87064 16.2472C3.87064 16.2472 3.84348 16.2715 3.79821 16.3037C3.75294 16.3441 3.68957 16.4006 3.60808 16.4732C3.5266 16.5459 3.43606 16.6427 3.32742 16.7557C3.22782 16.8687 3.11918 16.9978 3.01959 17.1512C2.91999 17.3045 2.8204 17.474 2.74797 17.6677C2.67554 17.8614 2.62122 18.0632 2.62122 18.2891C2.62122 18.3214 2.62122 18.3456 2.62122 18.3698C2.62122 18.3941 2.63027 18.4183 2.63027 18.4425C2.63933 18.4909 2.65743 18.5474 2.6846 18.5878C2.73892 18.6846 2.82946 18.7572 2.9381 18.8137C3.04675 18.8702 3.1735 18.9025 3.2912 18.9106C3.35458 18.9106 3.41795 18.9106 3.48133 18.9025C3.50849 18.8944 3.53565 18.8864 3.54471 18.8783C3.55376 18.8702 3.54471 18.8702 3.54471 18.8702C3.54471 18.8702 3.54471 18.8622 3.53565 18.8541C3.49944 18.8218 3.43606 18.7976 3.39079 18.7976C3.32742 18.7976 3.26404 18.8137 3.20972 18.8299C3.09202 18.8702 2.97432 18.9267 2.87473 18.9994C2.77513 19.072 2.69365 19.1689 2.67554 19.2738C2.66649 19.298 2.66649 19.3303 2.66649 19.3545C2.66649 19.3868 2.67554 19.411 2.67554 19.4352C2.69365 19.4836 2.72081 19.532 2.75703 19.5805C2.82946 19.6692 2.92905 19.7338 3.01959 19.8064C3.11918 19.871 3.20972 19.9356 3.30025 20.0001C3.39079 20.0647 3.47228 20.1373 3.5266 20.2261C3.55376 20.2745 3.56281 20.323 3.56281 20.3714C3.55376 20.4198 3.53565 20.4682 3.51754 20.5086C3.43606 20.6781 3.30931 20.7991 3.21877 20.9283C3.12823 21.0493 3.07391 21.1704 3.06486 21.2753C3.0558 21.3802 3.07391 21.4609 3.08296 21.5174C3.09202 21.5417 3.10107 21.5659 3.10107 21.582C3.09202 21.5659 3.09202 21.5497 3.08296 21.5174C3.06486 21.4609 3.04675 21.3802 3.0558 21.2753C3.06486 21.1704 3.11918 21.0493 3.20972 20.9202C3.2912 20.7991 3.41795 20.67 3.49944 20.5005C3.51754 20.4602 3.53565 20.4117 3.53565 20.3714C3.53565 20.323 3.5266 20.2826 3.49944 20.2423C3.45417 20.1616 3.36363 20.0889 3.27309 20.0324C3.18255 19.9679 3.08296 19.9114 2.98337 19.8468C2.88378 19.7822 2.78419 19.7096 2.7027 19.6208C2.62122 19.532 2.5669 19.4029 2.60311 19.2818C2.63027 19.1608 2.72081 19.0559 2.8204 18.9752C2.91999 18.8944 3.04675 18.8299 3.1735 18.7815C3.23688 18.7572 3.30931 18.7411 3.38174 18.7411C3.46322 18.7411 3.53565 18.7572 3.59903 18.8137C3.61714 18.8299 3.62619 18.846 3.63524 18.8702C3.6443 18.8944 3.62619 18.9267 3.60808 18.9429C3.57187 18.9752 3.53565 18.9832 3.49944 18.9994C3.42701 19.0155 3.35458 19.0155 3.28215 19.0155C3.13729 19.0074 3.00148 18.9752 2.87473 18.9106C2.74797 18.8541 2.63933 18.7572 2.57595 18.6523C2.53974 18.5958 2.52163 18.5393 2.50352 18.4748C2.49447 18.4425 2.49447 18.4102 2.48541 18.3779C2.48541 18.3537 2.48541 18.3214 2.48541 18.2891C2.48541 18.0551 2.53068 17.8372 2.60311 17.6354C2.67554 17.4336 2.77513 17.2561 2.87473 17.0947C2.97432 16.9333 3.08296 16.7961 3.19161 16.675C3.2912 16.5539 3.39079 16.4571 3.47228 16.3844C3.55376 16.3037 3.61714 16.2472 3.66241 16.2069C3.70767 16.1665 3.73484 16.1504 3.73484 16.1504L3.87064 16.2472Z" fill="#845B41"/>
<path d="M15.6591 15.1969C15.5233 16.2299 14.5727 17.0774 14.0838 17.0774C13.5949 17.0774 13.8846 16.238 13.8846 15.1969C13.8846 14.1558 14.6089 13.3164 15.0978 13.3164C15.5867 13.3164 15.804 14.1154 15.6591 15.1969Z" fill="#E7BD90"/>
<path d="M15.6592 14.9227C15.5234 15.9558 14.5728 16.8032 14.0839 16.8032C13.8937 16.8032 13.8213 16.6741 13.8032 16.4562C13.7851 16.8355 13.8213 17.0776 14.0839 17.0776C14.5728 17.0776 15.5234 16.2302 15.6592 15.1971C15.6954 14.9227 15.7045 14.6645 15.6954 14.4385C15.6954 14.5918 15.6864 14.7532 15.6592 14.9227Z" fill="#DDAE7E"/>
<path d="M1.98757 15.1969C2.12338 16.2299 3.07403 17.0774 3.56293 17.0774C4.05184 17.0774 3.76211 16.238 3.76211 15.1969C3.76211 14.1558 3.03781 13.3164 2.54891 13.3164C2.06 13.3164 1.84271 14.1154 1.98757 15.1969Z" fill="#E7BD90"/>
<path d="M1.98778 14.9227C2.12359 15.9558 3.07424 16.8032 3.56314 16.8032C3.75327 16.8032 3.82571 16.6741 3.84381 16.4562C3.86192 16.8355 3.82571 17.0776 3.56314 17.0776C3.07424 17.0776 2.12359 16.2302 1.98778 15.1971C1.95157 14.9227 1.94251 14.6645 1.95157 14.4385C1.95157 14.5918 1.96062 14.7532 1.98778 14.9227Z" fill="#DDAE7E"/>
<path d="M8.92301 21.9931C12.1332 21.9931 14.7355 18.7555 14.7355 14.7617C14.7355 10.7679 12.1332 7.53027 8.92301 7.53027C5.71283 7.53027 3.11047 10.7679 3.11047 14.7617C3.11047 18.7555 5.71283 21.9931 8.92301 21.9931Z" fill="#E7BD90"/>
<path d="M8.92305 21.7495C7.22094 21.7495 3.16484 18.4244 3.11957 14.4697C3.11957 14.5666 3.11957 14.6634 3.11957 14.7683C3.11957 18.7634 7.4835 21.9997 8.9321 21.9997C10.3807 21.9997 14.7446 18.7634 14.7446 14.7683C14.7446 14.6715 14.7446 14.5666 14.7446 14.4697C14.6813 18.4244 10.5799 21.7495 8.92305 21.7495Z" fill="#DDAE7E"/>
<path d="M14.8533 14.0119C14.8533 14.0119 14.8714 14.6737 14.7356 15.1499C14.7356 15.1499 14.4096 14.6657 14.3734 13.334L14.8533 14.0119Z" fill="#845B41"/>
<path d="M2.89337 14.4613C2.89337 14.4613 3.01107 15.1877 3.18309 15.5993C3.18309 15.5993 3.52714 14.5017 3.33701 12.9844L2.89337 14.4613Z" fill="#845B41"/>
<path d="M11.2318 9.07932C13.3504 10.185 12.8615 14.0106 14.962 14.0106C14.8081 13.9056 12.3635 7.23112 11.5306 7.99784C11.4038 8.20768 11.1232 9.02283 11.2318 9.07932Z" fill="#845B41"/>
<path d="M14.1651 14.0027C14.1651 14.0027 13.3683 13.5023 13.151 12.5419C12.979 11.8074 12.4449 10.7421 12.0374 10.1045C11.8292 10.5161 11.5033 10.8631 10.9962 10.9761C9.43899 11.3474 6.79528 11.4604 6.29733 12.106C5.79937 12.7517 6.06193 12.9858 6.06193 12.9858C6.06193 12.9858 5.14749 12.9857 4.94831 12.6306C4.94831 12.6306 4.50467 14.0511 3.382 14.3416C3.10134 18.2237 7.22081 21.5811 8.92293 21.5811C10.7608 21.5811 14.2103 18.2317 14.491 15.0357C14.3552 14.8017 14.2194 14.4708 14.1651 14.0027Z" fill="#FFF6E9"/>
<path d="M12.0467 8.55518C10.9874 11.9045 5.89912 7.6674 3.18298 14.5195C3.41838 11.0894 7.12139 7.71582 10.5075 7.71582C10.7972 7.71582 11.096 7.74003 11.4038 7.79653C11.6302 7.82881 11.9652 8.31306 12.0467 8.55518Z" fill="#845B41"/>
<path d="M1.29962 16.003C1.29962 16.003 2.64863 15.3009 3.44537 13.4365C4.2421 11.5722 6.85865 7.89192 11.1411 8.1744C11.1411 8.1744 12.2457 9.08639 12.9428 10.4181C13.6399 11.7497 14.2284 15.3009 16.6367 13.9934L16.6639 13.7836C16.2474 12.6214 13.812 6.49568 11.4851 6.45533C8.90481 6.4069 5.92611 6.91536 4.74912 7.72244C3.26429 8.72321 -0.429656 11.9999 1.29962 16.003Z" fill="#F4E5D4"/>
<path d="M7.60093 12.2674C7.70958 12.5983 6.69555 12.5499 5.67247 12.6629C4.64939 12.7758 3.85266 13.1471 3.85266 13.1471C3.85266 13.1471 4.70372 12.4288 5.7268 12.3158C6.75893 12.1948 7.56472 12.1463 7.60093 12.2674Z" fill="#845B41"/>
<path d="M8.19126 15.2614C8.48453 14.2287 7.78313 13.1796 6.62463 12.9182C5.46613 12.6567 4.28925 13.282 3.99598 14.3147C3.70271 15.3474 4.40411 16.3965 5.56261 16.6579C6.72111 16.9194 7.89799 16.2941 8.19126 15.2614Z" fill="#F4E5D4"/>
<path d="M5.34706 11.2998C5.27463 11.3159 5.23842 11.3724 5.21126 11.4047C4.64992 12.4055 4.51411 13.8017 3.21942 14.1972C3.76265 13.1399 4.1248 11.8486 5.34706 11.2998Z" fill="#845B41"/>
<path d="M11.7205 9.29785C11.5123 10.7102 4.64048 11.0492 5.39194 12.51C5.43721 12.5907 5.6545 12.7441 5.6545 12.7441C5.6545 12.7441 4.8125 12.7521 4.8125 11.9531C4.8125 9.80631 8.84144 10.3228 11.132 9.38663C11.2769 9.32206 11.5666 9.34628 11.7205 9.29785Z" fill="#845B41"/>
<path d="M11.7568 9.39433C11.3675 11.2425 9.21268 10.5646 6.37885 11.4362C8.10812 10.3144 11.4761 11.0166 11.6391 9.37012C11.6663 9.37012 11.6934 9.4024 11.7115 9.4024C11.7296 9.41047 11.7477 9.37819 11.7568 9.39433Z" fill="#845B41"/>
<g opacity="0.2">
<path d="M11.6484 9.09668C11.0961 10.5575 5.69102 10.4768 5.07536 12.1071C4.98482 9.83919 9.15863 10.1055 11.6484 9.09668Z" fill="#845B41"/>
</g>
<path opacity="0.2" d="M5.99866 10.4515C6.72296 9.83008 11.3313 9.34583 11.4581 8.85352C9.26708 9.53953 7.6555 9.1602 5.99866 10.4515Z" fill="#845B41"/>
<path d="M11.4851 6.44752C8.90481 6.39909 5.92611 6.90755 4.74912 7.71462C3.26429 8.72347 -0.429656 12.0002 1.29962 16.0033C1.29962 16.0033 2.64863 15.3011 3.44537 13.4368C4.2421 11.5724 6.85865 7.89218 11.1411 8.17466C11.1411 8.17466 12.2457 9.08665 12.9428 10.4183C13.6399 11.75 14.2284 15.3011 16.6367 13.9937L16.6639 13.7838C16.2927 12.7346 13.8482 6.48787 11.4851 6.44752Z" fill="#F4E5D4"/>
<path opacity="0.2" d="M4.81253 11.7354C4.61335 12.5021 4.12445 13.1719 3.53595 13.7369C3.93432 13.059 4.16972 12.268 4.81253 11.7354Z" fill="#845B41"/>
<path d="M8.50668 6.75541C9.55692 6.54557 10.58 6.32766 11.4582 6.10975C11.4582 6.10975 11.3315 4.8265 8.48857 4.50367C7.02186 4.33419 4.16991 4.71351 2.32294 4.3584L2.34105 4.38261C2.34105 4.38261 0.376372 5.8757 0.0685433 6.44872C0.0504357 6.48908 0.0413818 6.5375 0.0413818 6.594C0.901492 6.7312 4.70409 7.26387 8.50668 6.75541Z" fill="#F4E5D4"/>
<path d="M3.74422 12.1072C6.27023 7.39386 10.607 7.94267 10.607 7.94267C11.6482 7.05489 11.4671 6.10254 11.4671 6.10254C10.5889 6.32045 9.56581 6.53836 8.51557 6.7482C5.31052 7.39386 1.79765 7.95074 1.00997 8.07987C1.03714 8.11216 1.05524 8.1283 1.05524 8.1283C1.05524 8.1283 0.674984 8.86274 0.412423 10.2106C0.258509 11.0096 0.711198 14.1975 1.14578 15.5857C2.75736 14.7221 3.74422 12.1072 3.74422 12.1072Z" fill="#F4E5D4"/>
<path d="M14.1019 8.13553C15.0073 8.45836 16.0394 8.93454 16.9358 9.62862C16.9267 9.13631 16.8905 8.70856 16.809 8.41801C16.4378 7.05405 14.7447 4.20508 14.7447 4.20508C14.7447 4.20508 13.6583 5.34305 12.0467 5.9645C12.0467 6.04521 12.0558 6.49717 12.0467 6.31154C12.0467 6.31154 13.4229 6.17434 14.618 6.6828C14.618 6.6828 12.6986 6.19855 11.9743 6.70701C11.9743 6.70701 12.762 6.94106 12.9702 7.14283L11.8837 7.04598C11.8837 7.04598 12.9249 7.69971 13.3142 8.35344C13.3142 8.35344 12.3817 7.4011 11.7298 7.41724C11.7298 7.41724 11.4582 7.94991 11.3405 8.07097C13.097 8.64399 14.0204 11.9449 14.5003 12.9941C15.0073 14.116 16.2567 13.8981 16.6732 13.7851C16.7366 13.2282 16.9177 11.6463 16.9448 10.2824C15.8765 9.20087 14.9077 8.53907 14.1019 8.13553Z" fill="#F4E5D4"/>
<path d="M13.7033 1.71022C12.9337 1.08071 11.8925 0.435045 10.8151 0.136427C9.58381 -0.202544 6.78619 0.49154 4.58612 1.37125C5.38285 1.78286 8.21669 2.22675 8.12615 2.29132C8.04467 2.34781 4.91206 1.92006 3.69885 1.75058C2.73009 2.20254 1.96957 2.67064 1.66174 3.06611C4.27829 3.66335 8.78708 3.30823 10.9962 4.60762C11.3402 4.2283 11.7477 3.49386 11.7477 3.49386C11.6933 4.01846 11.3765 4.51077 11.2044 4.73675C11.2225 4.7529 11.2407 4.76097 11.2588 4.77711C11.7205 4.47849 12.3995 3.96196 12.3995 3.96196C12.2637 4.3655 11.7024 4.76097 11.4398 4.91431C11.4579 4.92238 11.467 4.93852 11.4761 4.94659C12.2728 4.70447 13.83 3.63106 13.83 3.63106C13.6309 4.23637 12.3181 4.92238 11.7386 5.20486C11.802 5.28557 11.8654 5.36627 11.9287 5.44698C14.1831 4.81746 16.0754 3.49386 13.7033 1.71022Z" fill="#F4E5D4"/>
<path d="M8.00836 16.5703C8.57875 16.8528 9.35738 16.8528 9.84628 16.5703C9.84628 16.5703 8.98617 17.8455 8.00836 16.5703Z" fill="#DDB897"/>
<path d="M8.09955 20.1277H9.67491C9.67491 20.1277 9.31276 19.6758 8.89628 19.6758C8.48886 19.6758 8.09955 20.1277 8.09955 20.1277Z" fill="#F4E5D4"/>
<path d="M14.0229 15.0969C14.2158 14.0456 13.4161 13.0539 12.2367 12.882C11.0572 12.71 9.94478 13.4229 9.7519 14.4743C9.55901 15.5256 10.3588 16.5173 11.5382 16.6893C12.7176 16.8612 13.83 16.1483 14.0229 15.0969Z" fill="#F4E5D4"/>
<path opacity="0.6" d="M1.41743 8.37733C0.8742 8.53874 0.584479 10.3627 0.847039 10.2578C1.11865 10.1529 8.17156 7.49761 8.03575 7.31199C7.89994 7.11829 1.72526 8.3289 1.41743 8.37733Z" fill="#FFF6E9"/>
<path opacity="0.6" d="M0.584412 6.2961C0.783595 5.81185 1.13669 5.6343 1.66181 5.34375C1.66181 5.34375 5.45535 6.22346 5.53684 6.44137C5.61832 6.67542 1.9787 6.64314 0.584412 6.2961Z" fill="#FFF6E9"/>
<path d="M10.236 12.2856C10.1364 12.6245 11.1414 12.56 12.1645 12.6649C13.1876 12.7698 13.9843 13.133 13.9843 13.133C13.9843 13.133 13.1242 12.4228 12.1011 12.3179C11.078 12.2129 10.2722 12.1726 10.236 12.2856Z" fill="#845B41"/>
<path d="M11.8836 16.4496C13.0786 16.4496 14.0474 15.586 14.0474 14.5207C14.0474 13.4554 13.0786 12.5918 11.8836 12.5918C10.6885 12.5918 9.71973 13.4554 9.71973 14.5207C9.71973 15.586 10.6885 16.4496 11.8836 16.4496Z" fill="#E5F9C5"/>
<path d="M11.8836 12.5918C10.6885 12.5918 9.71973 13.4554 9.71973 14.5207C9.71973 15.586 10.6885 16.4496 11.8836 16.4496C13.0787 16.4496 14.0474 15.586 14.0474 14.5207C14.0474 13.4554 13.0787 12.5918 11.8836 12.5918ZM11.8836 16.3124C10.7428 16.3124 9.82837 15.4892 9.82837 14.4804C9.82837 13.4634 10.7519 12.6483 11.8836 12.6483C13.0244 12.6483 13.9388 13.4715 13.9388 14.4804C13.9388 15.4973 13.0244 16.3124 11.8836 16.3124Z" fill="#AECC80"/>
<path d="M11.8828 12.8651C11.9025 12.8651 11.9185 12.8328 11.9185 12.7929C11.9185 12.753 11.9025 12.7207 11.8828 12.7207C11.8632 12.7207 11.8472 12.753 11.8472 12.7929C11.8472 12.8328 11.8632 12.8651 11.8828 12.8651Z" fill="#AECC80"/>
<path d="M10.5437 13.2801C10.5708 13.3042 10.5889 13.3443 10.5708 13.3524C10.5527 13.3604 10.5165 13.3524 10.4893 13.3283C10.4622 13.3042 10.4441 13.2641 10.4622 13.2561C10.4712 13.24 10.5075 13.248 10.5437 13.2801Z" fill="#AECC80"/>
<path d="M9.94586 14.4873C9.99113 14.4873 10.0273 14.5034 10.0273 14.5194C10.0273 14.5354 9.99113 14.5515 9.94586 14.5515C9.9006 14.5515 9.86438 14.5354 9.86438 14.5194C9.86438 14.5034 9.9006 14.4873 9.94586 14.4873Z" fill="#AECC80"/>
<path d="M10.4884 15.7219C10.5152 15.6979 10.5597 15.6818 10.5686 15.6979C10.5775 15.7139 10.5686 15.746 10.5419 15.7701C10.5152 15.7941 10.4706 15.8102 10.4617 15.7941C10.4439 15.7781 10.4528 15.746 10.4884 15.7219Z" fill="#AECC80"/>
<path d="M11.8828 16.327C11.9025 16.327 11.9185 16.2947 11.9185 16.2548C11.9185 16.2149 11.9025 16.1826 11.8828 16.1826C11.8632 16.1826 11.8472 16.2149 11.8472 16.2548C11.8472 16.2947 11.8632 16.327 11.8828 16.327Z" fill="#AECC80"/>
<path d="M13.2326 15.7701C13.2054 15.746 13.1873 15.7059 13.2054 15.6979C13.2235 15.6818 13.2597 15.6979 13.2869 15.7219C13.3141 15.746 13.3322 15.7861 13.3141 15.7941C13.2959 15.8022 13.2597 15.7941 13.2326 15.7701Z" fill="#AECC80"/>
<path d="M13.83 14.5515C13.875 14.5515 13.9115 14.5371 13.9115 14.5194C13.9115 14.5017 13.875 14.4873 13.83 14.4873C13.785 14.4873 13.7485 14.5017 13.7485 14.5194C13.7485 14.5371 13.785 14.5515 13.83 14.5515Z" fill="#AECC80"/>
<path d="M13.2854 13.3277C13.2587 13.3518 13.2142 13.3678 13.2053 13.3518C13.1875 13.3357 13.2053 13.3036 13.232 13.2796C13.2587 13.2555 13.3032 13.2394 13.3121 13.2555C13.321 13.2715 13.3121 13.2956 13.2854 13.3277Z" fill="#AECC80"/>
<path d="M11.8835 15.4417C12.4535 15.4417 12.9156 15.0298 12.9156 14.5216C12.9156 14.0135 12.4535 13.6016 11.8835 13.6016C11.3135 13.6016 10.8514 14.0135 10.8514 14.5216C10.8514 15.0298 11.3135 15.4417 11.8835 15.4417Z" fill="#F0FFD4"/>
<path d="M12.1553 13.8651C12.1553 13.9781 12.0286 14.3413 11.8747 14.3413C11.7207 14.3413 11.594 13.9781 11.594 13.8651C11.594 13.7521 11.7207 13.6553 11.8747 13.6553C12.0286 13.6553 12.1553 13.7521 12.1553 13.8651Z" fill="#E5F9C5"/>
<path d="M11.2859 14.0915C11.4127 14.1237 11.7567 14.3497 11.7114 14.4789C11.6662 14.608 11.2406 14.608 11.1139 14.5757C10.9871 14.5434 10.9238 14.4062 10.9781 14.269C11.0234 14.1318 11.1592 14.0511 11.2859 14.0915Z" fill="#E5F9C5"/>
<path d="M11.2498 14.8979C11.3313 14.801 11.6663 14.5751 11.793 14.6558C11.9198 14.7365 11.784 15.0997 11.7115 15.1884C11.6301 15.2853 11.4671 15.2934 11.3403 15.2126C11.2136 15.1319 11.1683 14.9867 11.2498 14.8979Z" fill="#E5F9C5"/>
<path d="M12.1006 15.1718C12.0192 15.075 11.8924 14.7199 12.0192 14.6392C12.1459 14.5585 12.49 14.7844 12.5624 14.8813C12.6439 14.9781 12.5986 15.1153 12.4719 15.2041C12.3451 15.2768 12.1731 15.2687 12.1006 15.1718Z" fill="#E5F9C5"/>
<path d="M12.6619 14.5417C12.5351 14.5739 12.1096 14.582 12.0643 14.4448C12.019 14.3076 12.3631 14.0897 12.4898 14.0574C12.6166 14.0251 12.7524 14.0978 12.8067 14.235C12.852 14.3641 12.7886 14.5013 12.6619 14.5417Z" fill="#E5F9C5"/>
<g opacity="0.3">
<path d="M12.0102 14.2546C12.0555 14.1659 12.0917 14.0529 12.0917 14.0044C12.0917 13.9157 11.9921 13.835 11.8653 13.835C11.7386 13.835 11.639 13.9076 11.639 14.0044C11.639 14.0609 11.6752 14.1901 11.7295 14.2789C11.7657 14.3273 11.811 14.3596 11.8563 14.3596C11.9196 14.3596 11.974 14.3111 12.0102 14.2546Z" fill="#AECC80"/>
<path d="M11.5394 14.238C11.4851 14.2057 11.4398 14.1815 11.4127 14.1734C11.3131 14.1411 11.2044 14.2057 11.1682 14.3106C11.132 14.4155 11.1773 14.5204 11.2769 14.5527C11.3402 14.5689 11.5123 14.5769 11.63 14.5527C11.6662 14.5366 11.6933 14.5124 11.7024 14.4882C11.7295 14.4155 11.639 14.3187 11.5394 14.238Z" fill="#AECC80"/>
<path d="M11.793 14.666C11.7206 14.6176 11.5848 14.666 11.4671 14.7386C11.4309 14.7628 11.3946 14.7951 11.3856 14.8112C11.3222 14.8839 11.3584 14.9969 11.458 15.0614C11.5576 15.126 11.6844 15.1179 11.7477 15.0453C11.784 15.0049 11.8292 14.9 11.8473 14.8112C11.8383 14.7467 11.8292 14.6902 11.793 14.666Z" fill="#AECC80"/>
<path d="M12.0101 14.6504C11.9558 14.6827 11.9558 14.7634 11.9648 14.8441C11.992 14.9248 12.0191 14.9974 12.0463 15.0297C12.1097 15.1023 12.2364 15.1104 12.336 15.0458C12.4356 14.9813 12.4718 14.8683 12.4085 14.7957C12.3813 14.7714 12.336 14.723 12.2726 14.6827C12.1731 14.6423 12.0644 14.61 12.0101 14.6504Z" fill="#AECC80"/>
<path d="M12.3541 14.1598C12.3179 14.1678 12.2454 14.2082 12.1821 14.2485C12.1006 14.3212 12.0372 14.3938 12.0644 14.4584C12.0825 14.4987 12.1187 14.5229 12.1821 14.5391C12.2998 14.5552 12.4356 14.5472 12.4989 14.531C12.5985 14.4987 12.6438 14.3938 12.6076 14.2889C12.5623 14.192 12.4537 14.1275 12.3541 14.1598Z" fill="#AECC80"/>
</g>
<g opacity="0.5">
<path d="M13.8481 13.708C13.9567 13.9421 14.0201 14.1923 14.0201 14.4586C14.0201 15.5239 13.0514 16.3875 11.8563 16.3875C10.9871 16.3875 10.2447 15.9355 9.90063 15.2818C10.2266 15.9759 10.9961 16.4601 11.8925 16.4601C13.0876 16.4601 14.0563 15.5966 14.0563 14.5312C14.0563 14.2326 13.9748 13.9582 13.8481 13.708Z" fill="#AECC80"/>
</g>
<path d="M6.08927 16.4496C7.28434 16.4496 8.25313 15.586 8.25313 14.5207C8.25313 13.4554 7.28434 12.5918 6.08927 12.5918C4.89421 12.5918 3.92542 13.4554 3.92542 14.5207C3.92542 15.586 4.89421 16.4496 6.08927 16.4496Z" fill="#E5F9C5"/>
<path d="M6.08927 12.5918C4.89417 12.5918 3.92542 13.4554 3.92542 14.5207C3.92542 15.586 4.89417 16.4496 6.08927 16.4496C7.28437 16.4496 8.25313 15.586 8.25313 14.5207C8.25313 13.4554 7.28437 12.5918 6.08927 12.5918ZM6.08927 16.3124C4.94849 16.3124 4.03406 15.4892 4.03406 14.4804C4.03406 13.4634 4.95755 12.6483 6.08927 12.6483C7.221 12.6483 8.14448 13.4715 8.14448 14.4804C8.15354 15.4973 7.23005 16.3124 6.08927 16.3124Z" fill="#AECC80"/>
<path d="M6.0886 12.8651C6.10827 12.8651 6.12421 12.8328 6.12421 12.7929C6.12421 12.753 6.10827 12.7207 6.0886 12.7207C6.06892 12.7207 6.05298 12.753 6.05298 12.7929C6.05298 12.8328 6.06892 12.8651 6.0886 12.8651Z" fill="#AECC80"/>
<path d="M4.74893 13.2776C4.77609 13.3016 4.7942 13.3417 4.77609 13.3498C4.75798 13.3658 4.72177 13.3498 4.69461 13.3257C4.66745 13.3016 4.64934 13.2615 4.66745 13.2535C4.68555 13.2455 4.71271 13.2455 4.74893 13.2776Z" fill="#AECC80"/>
<path d="M4.15174 14.4873C4.197 14.4873 4.23322 14.5034 4.23322 14.5194C4.23322 14.5354 4.197 14.5515 4.15174 14.5515C4.10647 14.5515 4.07025 14.5354 4.07025 14.5194C4.07025 14.5034 4.10647 14.4873 4.15174 14.4873Z" fill="#AECC80"/>
<path d="M4.69426 15.7219C4.72097 15.6979 4.76549 15.6818 4.7744 15.6979C4.79221 15.7139 4.7744 15.746 4.74769 15.7701C4.72097 15.7941 4.67645 15.8102 4.66754 15.7941C4.65864 15.7781 4.65864 15.746 4.69426 15.7219Z" fill="#AECC80"/>
<path d="M6.0886 16.327C6.10827 16.327 6.12421 16.2947 6.12421 16.2548C6.12421 16.2149 6.10827 16.1826 6.0886 16.1826C6.06892 16.1826 6.05298 16.2149 6.05298 16.2548C6.05298 16.2947 6.06892 16.327 6.0886 16.327Z" fill="#AECC80"/>
<path d="M7.52198 15.7977C7.53595 15.7852 7.52179 15.7524 7.49035 15.7244C7.45891 15.6964 7.42209 15.6837 7.40812 15.6962C7.39414 15.7087 7.4083 15.7415 7.43974 15.7695C7.47119 15.7975 7.50801 15.8102 7.52198 15.7977Z" fill="#AECC80"/>
<path d="M8.03565 14.5515C8.08065 14.5515 8.11713 14.5371 8.11713 14.5194C8.11713 14.5017 8.08065 14.4873 8.03565 14.4873C7.99064 14.4873 7.95416 14.5017 7.95416 14.5194C7.95416 14.5371 7.99064 14.5515 8.03565 14.5515Z" fill="#AECC80"/>
<path d="M7.49089 13.3277C7.46418 13.3518 7.41965 13.3678 7.41075 13.3518C7.40184 13.3357 7.41075 13.3036 7.43746 13.2796C7.46418 13.2555 7.5087 13.2394 7.5176 13.2555C7.53541 13.2635 7.5176 13.2956 7.49089 13.3277Z" fill="#AECC80"/>
<path d="M6.08908 15.4417C6.65911 15.4417 7.12121 15.0298 7.12121 14.5216C7.12121 14.0135 6.65911 13.6016 6.08908 13.6016C5.51905 13.6016 5.05695 14.0135 5.05695 14.5216C5.05695 15.0298 5.51905 15.4417 6.08908 15.4417Z" fill="#F0FFD4"/>
<path d="M6.3609 13.8651C6.3609 13.9781 6.23414 14.3413 6.08023 14.3413C5.92631 14.3413 5.79956 13.9781 5.79956 13.8651C5.79956 13.7521 5.92631 13.6553 6.08023 13.6553C6.23414 13.6553 6.3609 13.7521 6.3609 13.8651Z" fill="#E5F9C5"/>
<path d="M5.49167 14.0915C5.61842 14.1237 5.96246 14.3497 5.9172 14.4789C5.87193 14.608 5.4464 14.608 5.31965 14.5757C5.19289 14.5434 5.12952 14.4062 5.18384 14.269C5.22911 14.1318 5.36491 14.0511 5.49167 14.0915Z" fill="#E5F9C5"/>
<path d="M5.45549 14.8979C5.53698 14.801 5.87197 14.5751 5.99872 14.6558C6.12548 14.7365 5.98967 15.0997 5.91724 15.1884C5.83575 15.2853 5.67279 15.2934 5.54603 15.2126C5.41928 15.1319 5.38306 14.9867 5.45549 14.8979Z" fill="#E5F9C5"/>
<path d="M6.30634 15.1718C6.22485 15.075 6.0981 14.7199 6.22485 14.6392C6.3516 14.5585 6.69565 14.7844 6.76808 14.8813C6.84956 14.9781 6.80429 15.1153 6.67754 15.2041C6.55079 15.2768 6.38782 15.2687 6.30634 15.1718Z" fill="#E5F9C5"/>
<path d="M6.86805 14.5417C6.74129 14.5739 6.31576 14.582 6.27049 14.4448C6.22523 14.3076 6.56927 14.0897 6.69602 14.0574C6.82278 14.0251 6.95858 14.0978 7.01291 14.235C7.05818 14.3641 6.9948 14.5013 6.86805 14.5417Z" fill="#E5F9C5"/>
<g opacity="0.3">
<path d="M6.21612 14.2546C6.26138 14.1659 6.2976 14.0529 6.2976 14.0044C6.2976 13.9157 6.19801 13.835 6.07125 13.835C5.9445 13.835 5.84491 13.9076 5.84491 14.0044C5.84491 14.0609 5.88112 14.1901 5.93545 14.2789C5.97166 14.3273 6.01693 14.3596 6.0622 14.3596C6.12558 14.3596 6.1799 14.3111 6.21612 14.2546Z" fill="#AECC80"/>
<path d="M5.74504 14.238C5.69072 14.2057 5.64545 14.1815 5.61829 14.1734C5.5187 14.1411 5.41005 14.2057 5.37384 14.3106C5.33762 14.4155 5.38289 14.5204 5.48248 14.5527C5.54586 14.5689 5.71788 14.5769 5.83558 14.5527C5.8718 14.5366 5.89896 14.5124 5.90801 14.4882C5.93517 14.4155 5.85369 14.3187 5.74504 14.238Z" fill="#AECC80"/>
<path d="M5.99864 14.666C5.92621 14.6176 5.79041 14.666 5.67271 14.7386C5.63649 14.7628 5.60028 14.7951 5.59122 14.8112C5.52785 14.8839 5.56406 14.9969 5.66365 15.0614C5.76324 15.126 5.89 15.1179 5.95337 15.0453C5.98959 15.0049 6.03486 14.9 6.05297 14.8112C6.04391 14.7467 6.03486 14.6902 5.99864 14.666Z" fill="#AECC80"/>
<path d="M6.21565 14.6504C6.16133 14.6827 6.16133 14.7634 6.17038 14.8441C6.19754 14.9248 6.2247 14.9974 6.25187 15.0297C6.31524 15.1023 6.442 15.1104 6.54159 15.0458C6.64118 14.9813 6.67739 14.8683 6.61402 14.7957C6.58686 14.7714 6.54159 14.723 6.47821 14.6827C6.37862 14.6423 6.26997 14.61 6.21565 14.6504Z" fill="#AECC80"/>
<path d="M6.56002 14.1598C6.5238 14.1678 6.45137 14.2082 6.388 14.2485C6.30651 14.3212 6.24314 14.3938 6.2703 14.4584C6.2884 14.4987 6.32462 14.5229 6.388 14.5391C6.5057 14.5552 6.6415 14.5472 6.70488 14.531C6.80447 14.4987 6.84974 14.3938 6.81352 14.2889C6.76826 14.192 6.65961 14.1275 6.56002 14.1598Z" fill="#AECC80"/>
</g>
<g opacity="0.5">
<path d="M8.05366 13.708C8.1623 13.9421 8.22568 14.1923 8.22568 14.4586C8.22568 15.5239 7.25692 16.3875 6.06182 16.3875C5.19266 16.3875 4.45025 15.9355 4.1062 15.2818C4.43214 15.9759 5.20171 16.4601 6.09804 16.4601C7.29314 16.4601 8.26189 15.5966 8.26189 14.5312C8.26189 14.2326 8.18041 13.9582 8.05366 13.708Z" fill="#AECC80"/>
</g>
<path opacity="0.6" d="M5.91703 1.08896C5.91703 1.08896 8.66033 0.0559016 10.1633 0.217317C10.5707 0.306095 10.0818 1.99288 9.48422 2.16237C8.88667 2.33185 5.41907 1.27458 5.91703 1.08896Z" fill="#FFF6E9"/>
<path d="M14.8532 14.0117C14.8532 14.0117 14.8622 14.2619 14.8351 14.5605C15.0795 14.7058 15.3693 14.7704 15.6952 14.7219C15.7042 14.5605 15.7042 14.4153 15.6952 14.27C15.3783 14.2781 15.0976 14.1812 14.8532 14.0117Z" fill="#DDAE7E"/>
<path d="M2.89283 14.4627L2.90188 14.4385C2.61216 14.8743 2.30433 15.2133 2.03271 15.4554C2.05988 15.5603 2.09609 15.6652 2.14136 15.7702C2.16852 15.7782 2.18663 15.7782 2.21379 15.7863C2.44919 15.5684 2.7208 15.2859 2.98336 14.9147C2.92904 14.6645 2.89283 14.4627 2.89283 14.4627Z" fill="#DDAE7E"/>
<path d="M10.8332 18.4272C10.3262 18.3546 9.65619 18.1528 9.46606 18.1286C9.27593 18.0963 9.0858 18.1932 8.94094 18.2174C8.84135 18.2335 8.79608 18.1689 8.55163 18.1367C8.29812 18.1044 7.88165 18.2739 7.03059 18.4111C6.96721 18.4191 6.94005 18.3869 7.03964 18.4514C7.50139 18.75 7.78205 19.5168 8.89567 19.5168C10.1089 19.5168 10.127 18.8146 10.8966 18.4353C10.9962 18.3869 11.0324 18.4353 10.8332 18.4272Z" fill="#ED8383"/>
<path d="M11.1682 18.2006L11.4127 18.4427V18.4508H11.4036L11.1049 18.249C11.0868 18.2329 11.0777 18.2087 11.0958 18.2006C11.1139 18.1844 11.1411 18.1844 11.1682 18.2006Z" fill="#A53F3F"/>
<path d="M6.74999 18.2664L6.50553 18.4358C6.49648 18.4358 6.49648 18.4358 6.48743 18.4358V18.4278L6.69566 18.2341C6.70472 18.2179 6.73188 18.2179 6.74999 18.226C6.76809 18.2341 6.76809 18.2502 6.74999 18.2664Z" fill="#A53F3F"/>
<path opacity="0.5" d="M8.95934 19.0186C9.30338 19.0186 9.56594 19.0347 9.60216 19.1073C9.65648 19.2042 9.39392 19.3737 8.95934 19.3737C8.46138 19.3737 8.18071 19.2687 8.21693 19.1154C8.23504 19.0347 8.81448 19.0186 8.95934 19.0186Z" fill="#ED8383"/>
<path opacity="0.5" d="M8.51546 18.1777C8.58789 18.1777 8.76896 18.2181 8.77802 18.2665C8.78707 18.3956 8.37965 18.436 8.22574 18.4441C7.73683 18.4683 8.3887 18.1858 8.51546 18.1777Z" fill="#ED8383"/>
<path d="M7.54681 18.5137C7.54681 18.5137 8.20774 18.9253 8.87772 18.9253C9.5477 18.9253 10.1724 18.5621 10.1724 18.5621L9.55676 18.554L8.87772 18.6832L8.29828 18.5702L7.54681 18.5137Z" fill="#FFEEEE"/>
<path opacity="0.5" d="M9.03143 18.2974C9.03143 18.3214 9.05859 18.3455 9.10386 18.3455C9.22156 18.3455 9.35737 18.2091 9.33021 18.177C9.30305 18.1529 9.03143 18.2171 9.03143 18.2974Z" fill="#ED8383"/>
<path d="M9.56585 18.554L8.88682 18.6832L8.30737 18.5702L7.55591 18.5137C7.55591 18.5137 7.64645 18.5702 7.79131 18.6347H7.80036C7.80036 18.6347 8.2621 18.6267 8.35264 18.6589C8.45223 18.6912 8.77817 18.7639 8.92303 18.7639C9.06789 18.7639 9.45721 18.6751 9.5749 18.6589C9.64733 18.6509 9.8103 18.6751 9.96422 18.6589C10.1 18.5944 10.1815 18.546 10.1815 18.546L9.56585 18.554Z" fill="#E5BDD3"/>
<path d="M7.55601 18.5078C7.55601 18.5078 7.70087 18.5966 7.93626 18.6854C8.05396 18.7338 8.18977 18.7822 8.34368 18.8226C8.41612 18.8387 8.4976 18.8629 8.58814 18.871C8.66962 18.8871 8.75111 18.8952 8.84164 18.8952C8.85975 18.8952 8.88691 18.8952 8.90502 18.8952H8.9684C9.01367 18.8952 9.04988 18.8871 9.09515 18.8871C9.14042 18.8871 9.17663 18.8791 9.2219 18.871C9.25812 18.8629 9.30339 18.8549 9.3396 18.8549C9.37582 18.8468 9.41203 18.8387 9.4573 18.8306C9.49352 18.8226 9.52973 18.8145 9.56595 18.8064C9.63838 18.7903 9.70175 18.7661 9.76513 18.7419C9.82851 18.7177 9.87378 18.7015 9.9281 18.6773C9.97337 18.6612 10.0186 18.6369 10.0458 18.6208C10.1092 18.5885 10.1454 18.5724 10.1454 18.5724C10.1544 18.5724 10.1544 18.5724 10.1635 18.5724C10.1635 18.5804 10.1635 18.5804 10.1635 18.5885C10.1635 18.5885 10.1273 18.6127 10.0639 18.6531C10.0005 18.6854 9.90094 18.7419 9.78324 18.7822C9.71986 18.8064 9.65649 18.8306 9.58406 18.8549C9.51162 18.871 9.43919 18.9033 9.35771 18.9113C9.31244 18.9194 9.27623 18.9275 9.23096 18.9356C9.18569 18.9436 9.14947 18.9517 9.1042 18.9517C9.05893 18.9517 9.02272 18.9598 8.97745 18.9598L8.91407 18.9678C8.88691 18.9678 8.86881 18.9678 8.84164 18.9678C8.75111 18.9678 8.66962 18.9598 8.57908 18.9436C8.4976 18.9275 8.40706 18.9114 8.33463 18.8952C8.25315 18.8791 8.18072 18.8468 8.10829 18.8226C8.03586 18.7984 7.97248 18.7741 7.91816 18.7419C7.80046 18.6934 7.70992 18.6369 7.64654 18.6047C7.58317 18.5643 7.54695 18.5401 7.54695 18.5401C7.5379 18.5401 7.5379 18.532 7.54695 18.524C7.54695 18.5078 7.55601 18.5078 7.55601 18.5078Z" fill="#BF5252"/>
<path d="M6.73204 18.2584C6.73204 18.2584 6.74109 18.2745 6.76825 18.2907C6.79541 18.3068 6.83163 18.331 6.88595 18.3552C6.9946 18.4037 7.16662 18.444 7.38391 18.4682C7.49256 18.4844 7.61026 18.4924 7.72796 18.5005C7.85471 18.5086 7.98146 18.5086 8.11727 18.5167C8.18064 18.5167 8.25308 18.5247 8.32551 18.5328C8.39794 18.5409 8.47037 18.557 8.53374 18.5732C8.60617 18.5893 8.66955 18.6054 8.74198 18.6216C8.80536 18.6377 8.87779 18.6539 8.94116 18.6458C9.07697 18.6297 9.21278 18.5812 9.35764 18.557C9.43007 18.5489 9.5025 18.5328 9.57493 18.5328C9.64736 18.5328 9.71074 18.5409 9.78317 18.5409C10.0457 18.5489 10.2992 18.5409 10.5165 18.5086C10.6252 18.4924 10.7157 18.4763 10.7972 18.444C10.8425 18.436 10.8787 18.4198 10.9149 18.4037C10.9511 18.3956 10.9783 18.3795 11.0054 18.3633C11.0598 18.3391 11.105 18.3149 11.1322 18.2988C11.1593 18.2826 11.1774 18.2745 11.1774 18.2745C11.1956 18.2584 11.2318 18.2584 11.2499 18.2826C11.268 18.2988 11.268 18.331 11.2408 18.3472C11.2318 18.3552 11.2318 18.3552 11.2227 18.3552C11.2227 18.3552 11.2046 18.3633 11.1684 18.3714C11.1322 18.3795 11.0869 18.3956 11.0326 18.4198C10.9692 18.444 10.8968 18.4602 10.8153 18.4844C10.7338 18.5086 10.6342 18.5328 10.5256 18.557C10.4169 18.5732 10.3083 18.5974 10.1815 18.6135C10.0548 18.6297 9.92803 18.6377 9.79222 18.6458C9.72884 18.6458 9.65641 18.6458 9.58398 18.6458C9.52061 18.6458 9.45723 18.6539 9.3848 18.67C9.24899 18.6942 9.11319 18.7265 8.95927 18.7426C8.87779 18.7507 8.80536 18.7346 8.73293 18.7184C8.6605 18.7023 8.59712 18.6861 8.52469 18.67C8.45226 18.6539 8.38888 18.6377 8.32551 18.6297C8.26213 18.6216 8.1897 18.6135 8.12632 18.6054C7.99051 18.5974 7.86376 18.5812 7.73701 18.5651C7.61026 18.5489 7.50161 18.5328 7.39296 18.5167C7.17567 18.4844 7.00365 18.444 6.8769 18.4037C6.81352 18.3875 6.76825 18.3714 6.73204 18.3552C6.70488 18.3391 6.68677 18.331 6.68677 18.331C6.65961 18.323 6.65055 18.2907 6.66866 18.2745C6.67772 18.2503 6.71393 18.2423 6.73204 18.2584Z" fill="#A53F3F"/>
</svg>
