<svg width="24" height="19" viewBox="0 0 24 19" fill="none" xmlns="http://www.w3.org/2000/svg">
<path d="M14.7845 11.4871C14.7845 11.4871 17.9747 8.72568 18.6608 8.28385C19.3468 7.84202 19.9986 7.62111 20.3416 7.9893C20.7532 7.54747 22.2282 6.40607 22.9143 6.81108C23.566 7.21609 23.3259 7.8052 23.3259 7.8052L15.3677 14.6536L14.7845 11.4871Z" fill="#F5CDAF"/>
<path d="M23.7718 8.02673C23.566 7.769 22.7084 7.69536 21.7479 8.50538C20.8218 9.27859 16.6711 12.7028 16.2938 12.9973C16.2938 12.9605 16.2938 12.9237 16.2938 12.8501C16.2938 12.3714 16.0537 11.9664 15.6763 11.7823C15.5734 11.7087 15.4362 11.6718 15.3333 11.6718C13.8926 11.23 8.7472 9.60996 8.12975 9.4995C7.40939 9.35223 5.17971 8.98403 3.46458 10.6409C1.78374 12.2978 0 15.2065 0 18.9989H6.86055C6.86055 18.9989 6.62043 17.8575 6.96345 17.5261C7.30648 17.1947 9.98209 17.1579 11.1827 17.4157C12.3833 17.6366 14.7502 18.0784 15.299 17.8943C15.9508 17.6734 22.6398 10.5304 23.4288 9.57314C24.252 8.57902 24.0119 8.28447 23.7718 8.02673Z" fill="#FFE1C3"/>
<path d="M7.82104 12.8855C8.12977 12.9223 8.43849 12.9591 8.74722 12.9959C9.05594 13.0327 9.36467 13.0695 9.67339 13.1064C10.2908 13.18 10.9083 13.2905 11.5257 13.3641C12.7606 13.5482 13.9955 13.7691 15.1961 14.0637C15.2647 14.0637 15.3333 14.0637 15.402 14.0637C15.4706 14.0637 15.5392 14.0268 15.6078 13.99C15.6764 13.9532 15.745 13.9164 15.8136 13.8796L15.9165 13.8059L15.9851 13.7323C16.0194 13.6955 16.0537 13.6955 16.0537 13.6587L16.1223 13.5482L16.1909 13.4377C16.1909 13.4009 16.2252 13.3641 16.2252 13.3273C16.2595 13.2536 16.2938 13.18 16.2938 13.1064L16.3281 12.8486V13.1064C16.3281 13.18 16.2938 13.2536 16.2938 13.3641C16.2938 13.4009 16.2595 13.4377 16.2595 13.4746L16.1909 13.6218L16.1223 13.7323C16.088 13.7691 16.088 13.8059 16.0537 13.8428L15.9851 13.9532L15.8822 13.99C15.8136 14.0637 15.745 14.1005 15.6764 14.1373C15.6078 14.1741 15.5049 14.2109 15.4363 14.2109C15.3676 14.2478 15.2647 14.2478 15.1961 14.2478C13.9612 14.1005 12.7263 13.8796 11.4914 13.6587C10.874 13.5482 10.2565 13.4377 9.63909 13.2905C9.33037 13.2168 9.02164 13.18 8.71292 13.0695C8.43849 13.0327 8.12977 12.9591 7.82104 12.8855Z" fill="#F5CDAF"/>
<g opacity="0.7">
<path d="M15.9508 12.8879C16.1223 12.2988 15.8822 12.0043 15.1275 11.857C14.3729 11.6729 14.0984 11.857 13.9612 12.2988C13.824 12.7407 14.3729 13.1825 14.7502 13.3298C15.4019 13.477 15.7793 13.477 15.9508 12.8879Z" fill="#FFE1C3"/>
</g>
<path d="M16.088 4.12376C16.088 6.40656 14.3729 8.24752 12.2461 8.24752C10.1194 8.24752 8.40424 6.40656 8.40424 4.12376C8.40424 1.84096 10.1194 0 12.2461 0C14.3729 0 16.088 1.84096 16.088 4.12376Z" fill="#DC3200"/>
<path d="M12.9324 1.58203H11.5602V6.58945H12.9324V1.58203Z" fill="white"/>
<path d="M14.5788 3.38574H9.91364V4.85851H14.5788V3.38574Z" fill="white"/>
</svg>
